%TF.GenerationSoftware,KiCad,Pcbnew,9.0.0*%
%TF.CreationDate,2025-03-16T11:09:15+01:00*%
%TF.ProjectId,DMH_Tripple_VCA_PCB_1,444d485f-5472-4697-9070-6c655f564341,1*%
%TF.SameCoordinates,Original*%
%TF.FileFunction,Drillmap*%
%TF.FilePolarity,Positive*%
%FSLAX45Y45*%
G04 Gerber Fmt 4.5, Leading zero omitted, Abs format (unit mm)*
G04 Created by KiCad (PCBNEW 9.0.0) date 2025-03-16 11:09:15*
%MOMM*%
%LPD*%
G01*
G04 APERTURE LIST*
%ADD10C,0.050000*%
%ADD11C,0.200000*%
%ADD12C,0.100000*%
%ADD13C,0.110000*%
G04 APERTURE END LIST*
D10*
X5100000Y-4250000D02*
X9900000Y-4250000D01*
X9900000Y-21750000D01*
X5100000Y-21750000D01*
X5100000Y-4250000D01*
D11*
D12*
X7060500Y-6790000D02*
X7140500Y-6870000D01*
X7140500Y-6790000D02*
X7060500Y-6870000D01*
X7060500Y-7195000D02*
X7140500Y-7275000D01*
X7140500Y-7195000D02*
X7060500Y-7275000D01*
X7060500Y-7600000D02*
X7140500Y-7680000D01*
X7140500Y-7600000D02*
X7060500Y-7680000D01*
X7060500Y-8005000D02*
X7140500Y-8085000D01*
X7140500Y-8005000D02*
X7060500Y-8085000D01*
X7060500Y-8410000D02*
X7140500Y-8490000D01*
X7140500Y-8410000D02*
X7060500Y-8490000D01*
X7060500Y-8815000D02*
X7140500Y-8895000D01*
X7140500Y-8815000D02*
X7060500Y-8895000D01*
X7060500Y-9220000D02*
X7140500Y-9300000D01*
X7140500Y-9220000D02*
X7060500Y-9300000D01*
X7060500Y-9625000D02*
X7140500Y-9705000D01*
X7140500Y-9625000D02*
X7060500Y-9705000D01*
X7060500Y-10030000D02*
X7140500Y-10110000D01*
X7140500Y-10030000D02*
X7060500Y-10110000D01*
X7060500Y-10435000D02*
X7140500Y-10515000D01*
X7140500Y-10435000D02*
X7060500Y-10515000D01*
X7060500Y-10840000D02*
X7140500Y-10920000D01*
X7140500Y-10840000D02*
X7060500Y-10920000D01*
X7060500Y-11245000D02*
X7140500Y-11325000D01*
X7140500Y-11245000D02*
X7060500Y-11325000D01*
X7060500Y-11650000D02*
X7140500Y-11730000D01*
X7140500Y-11650000D02*
X7060500Y-11730000D01*
X7060500Y-12055000D02*
X7140500Y-12135000D01*
X7140500Y-12055000D02*
X7060500Y-12135000D01*
X7060500Y-12460000D02*
X7140500Y-12540000D01*
X7140500Y-12460000D02*
X7060500Y-12540000D01*
X7289489Y-5485000D02*
X7369489Y-5565000D01*
X7369489Y-5485000D02*
X7289489Y-5565000D01*
X7310500Y-14935000D02*
X7390500Y-15015000D01*
X7390500Y-14935000D02*
X7310500Y-15015000D01*
X7312000Y-13315000D02*
X7392000Y-13395000D01*
X7392000Y-13315000D02*
X7312000Y-13395000D01*
X7312000Y-13720000D02*
X7392000Y-13800000D01*
X7392000Y-13720000D02*
X7312000Y-13800000D01*
X7312000Y-14125000D02*
X7392000Y-14205000D01*
X7392000Y-14125000D02*
X7312000Y-14205000D01*
X7312000Y-14530000D02*
X7392000Y-14610000D01*
X7392000Y-14530000D02*
X7312000Y-14610000D01*
X7312000Y-15340000D02*
X7392000Y-15420000D01*
X7392000Y-15340000D02*
X7312000Y-15420000D01*
X7312000Y-15745000D02*
X7392000Y-15825000D01*
X7392000Y-15745000D02*
X7312000Y-15825000D01*
X7312000Y-16150000D02*
X7392000Y-16230000D01*
X7392000Y-16150000D02*
X7312000Y-16230000D01*
X7312000Y-16555000D02*
X7392000Y-16635000D01*
X7392000Y-16555000D02*
X7312000Y-16635000D01*
X7312000Y-16960000D02*
X7392000Y-17040000D01*
X7392000Y-16960000D02*
X7312000Y-17040000D01*
X7312000Y-17365000D02*
X7392000Y-17445000D01*
X7392000Y-17365000D02*
X7312000Y-17445000D01*
X7312000Y-17770000D02*
X7392000Y-17850000D01*
X7392000Y-17770000D02*
X7312000Y-17850000D01*
X7312000Y-18175000D02*
X7392000Y-18255000D01*
X7392000Y-18175000D02*
X7312000Y-18255000D01*
X7312000Y-18580000D02*
X7392000Y-18660000D01*
X7392000Y-18580000D02*
X7312000Y-18660000D01*
X7312000Y-18985000D02*
X7392000Y-19065000D01*
X7392000Y-18985000D02*
X7312000Y-19065000D01*
X7314500Y-6790000D02*
X7394500Y-6870000D01*
X7394500Y-6790000D02*
X7314500Y-6870000D01*
X7314500Y-7195000D02*
X7394500Y-7275000D01*
X7394500Y-7195000D02*
X7314500Y-7275000D01*
X7314500Y-7600000D02*
X7394500Y-7680000D01*
X7394500Y-7600000D02*
X7314500Y-7680000D01*
X7314500Y-8005000D02*
X7394500Y-8085000D01*
X7394500Y-8005000D02*
X7314500Y-8085000D01*
X7314500Y-8410000D02*
X7394500Y-8490000D01*
X7394500Y-8410000D02*
X7314500Y-8490000D01*
X7314500Y-8815000D02*
X7394500Y-8895000D01*
X7394500Y-8815000D02*
X7314500Y-8895000D01*
X7314500Y-9220000D02*
X7394500Y-9300000D01*
X7394500Y-9220000D02*
X7314500Y-9300000D01*
X7314500Y-9625000D02*
X7394500Y-9705000D01*
X7394500Y-9625000D02*
X7314500Y-9705000D01*
X7314500Y-10030000D02*
X7394500Y-10110000D01*
X7394500Y-10030000D02*
X7314500Y-10110000D01*
X7314500Y-10435000D02*
X7394500Y-10515000D01*
X7394500Y-10435000D02*
X7314500Y-10515000D01*
X7314500Y-10840000D02*
X7394500Y-10920000D01*
X7394500Y-10840000D02*
X7314500Y-10920000D01*
X7314500Y-11245000D02*
X7394500Y-11325000D01*
X7394500Y-11245000D02*
X7314500Y-11325000D01*
X7314500Y-11650000D02*
X7394500Y-11730000D01*
X7394500Y-11650000D02*
X7314500Y-11730000D01*
X7314500Y-12055000D02*
X7394500Y-12135000D01*
X7394500Y-12055000D02*
X7314500Y-12135000D01*
X7314500Y-12460000D02*
X7394500Y-12540000D01*
X7394500Y-12460000D02*
X7314500Y-12540000D01*
X7489489Y-5485000D02*
X7569489Y-5565000D01*
X7569489Y-5485000D02*
X7489489Y-5565000D01*
X7564500Y-14935000D02*
X7644500Y-15015000D01*
X7644500Y-14935000D02*
X7564500Y-15015000D01*
X7566000Y-13315000D02*
X7646000Y-13395000D01*
X7646000Y-13315000D02*
X7566000Y-13395000D01*
X7566000Y-13720000D02*
X7646000Y-13800000D01*
X7646000Y-13720000D02*
X7566000Y-13800000D01*
X7566000Y-14125000D02*
X7646000Y-14205000D01*
X7646000Y-14125000D02*
X7566000Y-14205000D01*
X7566000Y-14530000D02*
X7646000Y-14610000D01*
X7646000Y-14530000D02*
X7566000Y-14610000D01*
X7566000Y-15340000D02*
X7646000Y-15420000D01*
X7646000Y-15340000D02*
X7566000Y-15420000D01*
X7566000Y-15745000D02*
X7646000Y-15825000D01*
X7646000Y-15745000D02*
X7566000Y-15825000D01*
X7566000Y-16150000D02*
X7646000Y-16230000D01*
X7646000Y-16150000D02*
X7566000Y-16230000D01*
X7566000Y-16555000D02*
X7646000Y-16635000D01*
X7646000Y-16555000D02*
X7566000Y-16635000D01*
X7566000Y-16960000D02*
X7646000Y-17040000D01*
X7646000Y-16960000D02*
X7566000Y-17040000D01*
X7566000Y-17365000D02*
X7646000Y-17445000D01*
X7646000Y-17365000D02*
X7566000Y-17445000D01*
X7566000Y-17770000D02*
X7646000Y-17850000D01*
X7646000Y-17770000D02*
X7566000Y-17850000D01*
X7566000Y-18175000D02*
X7646000Y-18255000D01*
X7646000Y-18175000D02*
X7566000Y-18255000D01*
X7566000Y-18580000D02*
X7646000Y-18660000D01*
X7646000Y-18580000D02*
X7566000Y-18660000D01*
X7566000Y-18985000D02*
X7646000Y-19065000D01*
X7646000Y-18985000D02*
X7566000Y-19065000D01*
X7880000Y-9198500D02*
X7960000Y-9278500D01*
X7960000Y-9198500D02*
X7880000Y-9278500D01*
X7880000Y-9452500D02*
X7960000Y-9532500D01*
X7960000Y-9452500D02*
X7880000Y-9532500D01*
X7880000Y-9706500D02*
X7960000Y-9786500D01*
X7960000Y-9706500D02*
X7880000Y-9786500D01*
X7880000Y-9960500D02*
X7960000Y-10040500D01*
X7960000Y-9960500D02*
X7880000Y-10040500D01*
X7880000Y-10214500D02*
X7960000Y-10294500D01*
X7960000Y-10214500D02*
X7880000Y-10294500D01*
X7880000Y-10468500D02*
X7960000Y-10548500D01*
X7960000Y-10468500D02*
X7880000Y-10548500D01*
X7880000Y-10722500D02*
X7960000Y-10802500D01*
X7960000Y-10722500D02*
X7880000Y-10802500D01*
X7880000Y-15198500D02*
X7960000Y-15278500D01*
X7960000Y-15198500D02*
X7880000Y-15278500D01*
X7880000Y-15452500D02*
X7960000Y-15532500D01*
X7960000Y-15452500D02*
X7880000Y-15532500D01*
X7880000Y-15706500D02*
X7960000Y-15786500D01*
X7960000Y-15706500D02*
X7880000Y-15786500D01*
X7880000Y-15960500D02*
X7960000Y-16040500D01*
X7960000Y-15960500D02*
X7880000Y-16040500D01*
X7880000Y-16214500D02*
X7960000Y-16294500D01*
X7960000Y-16214500D02*
X7880000Y-16294500D01*
X7880000Y-16468500D02*
X7960000Y-16548500D01*
X7960000Y-16468500D02*
X7880000Y-16548500D01*
X7880000Y-16722500D02*
X7960000Y-16802500D01*
X7960000Y-16722500D02*
X7880000Y-16802500D01*
X7935000Y-5310000D02*
X8015000Y-5390000D01*
X8015000Y-5310000D02*
X7935000Y-5390000D01*
X7935000Y-5810000D02*
X8015000Y-5890000D01*
X8015000Y-5810000D02*
X7935000Y-5890000D01*
X8006000Y-12310000D02*
X8086000Y-12390000D01*
X8086000Y-12310000D02*
X8006000Y-12390000D01*
X8006000Y-13660000D02*
X8086000Y-13740000D01*
X8086000Y-13660000D02*
X8006000Y-13740000D01*
X8007000Y-7660000D02*
X8087000Y-7740000D01*
X8087000Y-7660000D02*
X8007000Y-7740000D01*
X8010000Y-8910000D02*
X8090000Y-8990000D01*
X8090000Y-8910000D02*
X8010000Y-8990000D01*
X8010000Y-11010000D02*
X8090000Y-11090000D01*
X8090000Y-11010000D02*
X8010000Y-11090000D01*
X8010000Y-14910000D02*
X8090000Y-14990000D01*
X8090000Y-14910000D02*
X8010000Y-14990000D01*
X8010000Y-17010000D02*
X8090000Y-17090000D01*
X8090000Y-17010000D02*
X8010000Y-17090000D01*
X8035000Y-8056000D02*
X8115000Y-8136000D01*
X8115000Y-8056000D02*
X8035000Y-8136000D01*
X8035000Y-8310000D02*
X8115000Y-8390000D01*
X8115000Y-8310000D02*
X8035000Y-8390000D01*
X8035000Y-8564000D02*
X8115000Y-8644000D01*
X8115000Y-8564000D02*
X8035000Y-8644000D01*
X8035000Y-11406000D02*
X8115000Y-11486000D01*
X8115000Y-11406000D02*
X8035000Y-11486000D01*
X8035000Y-11660000D02*
X8115000Y-11740000D01*
X8115000Y-11660000D02*
X8035000Y-11740000D01*
X8035000Y-11914000D02*
X8115000Y-11994000D01*
X8115000Y-11914000D02*
X8035000Y-11994000D01*
X8035000Y-14081000D02*
X8115000Y-14161000D01*
X8115000Y-14081000D02*
X8035000Y-14161000D01*
X8035000Y-14335000D02*
X8115000Y-14415000D01*
X8115000Y-14335000D02*
X8035000Y-14415000D01*
X8035000Y-14589000D02*
X8115000Y-14669000D01*
X8115000Y-14589000D02*
X8035000Y-14669000D01*
X8260000Y-12310000D02*
X8340000Y-12390000D01*
X8340000Y-12310000D02*
X8260000Y-12390000D01*
X8260000Y-13660000D02*
X8340000Y-13740000D01*
X8340000Y-13660000D02*
X8260000Y-13740000D01*
X8261000Y-7660000D02*
X8341000Y-7740000D01*
X8341000Y-7660000D02*
X8261000Y-7740000D01*
X8485000Y-8056000D02*
X8565000Y-8136000D01*
X8565000Y-8056000D02*
X8485000Y-8136000D01*
X8485000Y-8310000D02*
X8565000Y-8390000D01*
X8565000Y-8310000D02*
X8485000Y-8390000D01*
X8485000Y-8564000D02*
X8565000Y-8644000D01*
X8565000Y-8564000D02*
X8485000Y-8644000D01*
X8485000Y-11406000D02*
X8565000Y-11486000D01*
X8565000Y-11406000D02*
X8485000Y-11486000D01*
X8485000Y-11660000D02*
X8565000Y-11740000D01*
X8565000Y-11660000D02*
X8485000Y-11740000D01*
X8485000Y-11914000D02*
X8565000Y-11994000D01*
X8565000Y-11914000D02*
X8485000Y-11994000D01*
X8485000Y-14081000D02*
X8565000Y-14161000D01*
X8565000Y-14081000D02*
X8485000Y-14161000D01*
X8485000Y-14335000D02*
X8565000Y-14415000D01*
X8565000Y-14335000D02*
X8485000Y-14415000D01*
X8485000Y-14589000D02*
X8565000Y-14669000D01*
X8565000Y-14589000D02*
X8485000Y-14669000D01*
X8510000Y-8910000D02*
X8590000Y-8990000D01*
X8590000Y-8910000D02*
X8510000Y-8990000D01*
X8510000Y-11010000D02*
X8590000Y-11090000D01*
X8590000Y-11010000D02*
X8510000Y-11090000D01*
X8510000Y-14910000D02*
X8590000Y-14990000D01*
X8590000Y-14910000D02*
X8510000Y-14990000D01*
X8510000Y-17010000D02*
X8590000Y-17090000D01*
X8590000Y-17010000D02*
X8510000Y-17090000D01*
X8514000Y-12310000D02*
X8594000Y-12390000D01*
X8594000Y-12310000D02*
X8514000Y-12390000D01*
X8514000Y-13660000D02*
X8594000Y-13740000D01*
X8594000Y-13660000D02*
X8514000Y-13740000D01*
X8515000Y-7660000D02*
X8595000Y-7740000D01*
X8595000Y-7660000D02*
X8515000Y-7740000D01*
X8585000Y-5310000D02*
X8665000Y-5390000D01*
X8665000Y-5310000D02*
X8585000Y-5390000D01*
X8585000Y-5810000D02*
X8665000Y-5890000D01*
X8665000Y-5810000D02*
X8585000Y-5890000D01*
X8642000Y-9198500D02*
X8722000Y-9278500D01*
X8722000Y-9198500D02*
X8642000Y-9278500D01*
X8642000Y-9452500D02*
X8722000Y-9532500D01*
X8722000Y-9452500D02*
X8642000Y-9532500D01*
X8642000Y-9706500D02*
X8722000Y-9786500D01*
X8722000Y-9706500D02*
X8642000Y-9786500D01*
X8642000Y-9960500D02*
X8722000Y-10040500D01*
X8722000Y-9960500D02*
X8642000Y-10040500D01*
X8642000Y-10214500D02*
X8722000Y-10294500D01*
X8722000Y-10214500D02*
X8642000Y-10294500D01*
X8642000Y-10468500D02*
X8722000Y-10548500D01*
X8722000Y-10468500D02*
X8642000Y-10548500D01*
X8642000Y-10722500D02*
X8722000Y-10802500D01*
X8722000Y-10722500D02*
X8642000Y-10802500D01*
X8642000Y-15198500D02*
X8722000Y-15278500D01*
X8722000Y-15198500D02*
X8642000Y-15278500D01*
X8642000Y-15452500D02*
X8722000Y-15532500D01*
X8722000Y-15452500D02*
X8642000Y-15532500D01*
X8642000Y-15706500D02*
X8722000Y-15786500D01*
X8722000Y-15706500D02*
X8642000Y-15786500D01*
X8642000Y-15960500D02*
X8722000Y-16040500D01*
X8722000Y-15960500D02*
X8642000Y-16040500D01*
X8642000Y-16214500D02*
X8722000Y-16294500D01*
X8722000Y-16214500D02*
X8642000Y-16294500D01*
X8642000Y-16468500D02*
X8722000Y-16548500D01*
X8722000Y-16468500D02*
X8642000Y-16548500D01*
X8642000Y-16722500D02*
X8722000Y-16802500D01*
X8722000Y-16722500D02*
X8642000Y-16802500D01*
X9039489Y-5485000D02*
X9119489Y-5565000D01*
X9119489Y-5485000D02*
X9039489Y-5565000D01*
X9160500Y-6810000D02*
X9240500Y-6890000D01*
X9240500Y-6810000D02*
X9160500Y-6890000D01*
X9160500Y-7215000D02*
X9240500Y-7295000D01*
X9240500Y-7215000D02*
X9160500Y-7295000D01*
X9160500Y-7620000D02*
X9240500Y-7700000D01*
X9240500Y-7620000D02*
X9160500Y-7700000D01*
X9160500Y-8025000D02*
X9240500Y-8105000D01*
X9240500Y-8025000D02*
X9160500Y-8105000D01*
X9160500Y-8430000D02*
X9240500Y-8510000D01*
X9240500Y-8430000D02*
X9160500Y-8510000D01*
X9160500Y-8835000D02*
X9240500Y-8915000D01*
X9240500Y-8835000D02*
X9160500Y-8915000D01*
X9160500Y-9240000D02*
X9240500Y-9320000D01*
X9240500Y-9240000D02*
X9160500Y-9320000D01*
X9160500Y-9645000D02*
X9240500Y-9725000D01*
X9240500Y-9645000D02*
X9160500Y-9725000D01*
X9160500Y-10050000D02*
X9240500Y-10130000D01*
X9240500Y-10050000D02*
X9160500Y-10130000D01*
X9160500Y-10455000D02*
X9240500Y-10535000D01*
X9240500Y-10455000D02*
X9160500Y-10535000D01*
X9160500Y-10860000D02*
X9240500Y-10940000D01*
X9240500Y-10860000D02*
X9160500Y-10940000D01*
X9160500Y-11265000D02*
X9240500Y-11345000D01*
X9240500Y-11265000D02*
X9160500Y-11345000D01*
X9160500Y-11670000D02*
X9240500Y-11750000D01*
X9240500Y-11670000D02*
X9160500Y-11750000D01*
X9160500Y-12075000D02*
X9240500Y-12155000D01*
X9240500Y-12075000D02*
X9160500Y-12155000D01*
X9160500Y-12480000D02*
X9240500Y-12560000D01*
X9240500Y-12480000D02*
X9160500Y-12560000D01*
X9160500Y-16560000D02*
X9240500Y-16640000D01*
X9240500Y-16560000D02*
X9160500Y-16640000D01*
X9160500Y-16965000D02*
X9240500Y-17045000D01*
X9240500Y-16965000D02*
X9160500Y-17045000D01*
X9160500Y-17360000D02*
X9240500Y-17440000D01*
X9240500Y-17360000D02*
X9160500Y-17440000D01*
X9160500Y-17765000D02*
X9240500Y-17845000D01*
X9240500Y-17765000D02*
X9160500Y-17845000D01*
X9160500Y-18175000D02*
X9240500Y-18255000D01*
X9240500Y-18175000D02*
X9160500Y-18255000D01*
X9160500Y-18580000D02*
X9240500Y-18660000D01*
X9240500Y-18580000D02*
X9160500Y-18660000D01*
X9160500Y-18985000D02*
X9240500Y-19065000D01*
X9240500Y-18985000D02*
X9160500Y-19065000D01*
X9239489Y-5485000D02*
X9319489Y-5565000D01*
X9319489Y-5485000D02*
X9239489Y-5565000D01*
X9414500Y-6810000D02*
X9494500Y-6890000D01*
X9494500Y-6810000D02*
X9414500Y-6890000D01*
X9414500Y-7215000D02*
X9494500Y-7295000D01*
X9494500Y-7215000D02*
X9414500Y-7295000D01*
X9414500Y-7620000D02*
X9494500Y-7700000D01*
X9494500Y-7620000D02*
X9414500Y-7700000D01*
X9414500Y-8025000D02*
X9494500Y-8105000D01*
X9494500Y-8025000D02*
X9414500Y-8105000D01*
X9414500Y-8430000D02*
X9494500Y-8510000D01*
X9494500Y-8430000D02*
X9414500Y-8510000D01*
X9414500Y-8835000D02*
X9494500Y-8915000D01*
X9494500Y-8835000D02*
X9414500Y-8915000D01*
X9414500Y-9240000D02*
X9494500Y-9320000D01*
X9494500Y-9240000D02*
X9414500Y-9320000D01*
X9414500Y-9645000D02*
X9494500Y-9725000D01*
X9494500Y-9645000D02*
X9414500Y-9725000D01*
X9414500Y-10050000D02*
X9494500Y-10130000D01*
X9494500Y-10050000D02*
X9414500Y-10130000D01*
X9414500Y-10455000D02*
X9494500Y-10535000D01*
X9494500Y-10455000D02*
X9414500Y-10535000D01*
X9414500Y-10860000D02*
X9494500Y-10940000D01*
X9494500Y-10860000D02*
X9414500Y-10940000D01*
X9414500Y-11265000D02*
X9494500Y-11345000D01*
X9494500Y-11265000D02*
X9414500Y-11345000D01*
X9414500Y-11670000D02*
X9494500Y-11750000D01*
X9494500Y-11670000D02*
X9414500Y-11750000D01*
X9414500Y-12075000D02*
X9494500Y-12155000D01*
X9494500Y-12075000D02*
X9414500Y-12155000D01*
X9414500Y-12480000D02*
X9494500Y-12560000D01*
X9494500Y-12480000D02*
X9414500Y-12560000D01*
X9414500Y-16560000D02*
X9494500Y-16640000D01*
X9494500Y-16560000D02*
X9414500Y-16640000D01*
X9414500Y-16965000D02*
X9494500Y-17045000D01*
X9494500Y-16965000D02*
X9414500Y-17045000D01*
X9414500Y-17360000D02*
X9494500Y-17440000D01*
X9494500Y-17360000D02*
X9414500Y-17440000D01*
X9414500Y-17765000D02*
X9494500Y-17845000D01*
X9494500Y-17765000D02*
X9414500Y-17845000D01*
X9414500Y-18175000D02*
X9494500Y-18255000D01*
X9494500Y-18175000D02*
X9414500Y-18255000D01*
X9414500Y-18580000D02*
X9494500Y-18660000D01*
X9494500Y-18580000D02*
X9414500Y-18660000D01*
X9414500Y-18985000D02*
X9494500Y-19065000D01*
X9494500Y-18985000D02*
X9414500Y-19065000D01*
X5440381Y-4665381D02*
G75*
G02*
X5340381Y-4665381I-50000J0D01*
G01*
X5340381Y-4665381D02*
G75*
G02*
X5440381Y-4665381I50000J0D01*
G01*
X5408059Y-4576993D02*
X5301993Y-4683059D01*
X5372703Y-4753769D02*
G75*
G02*
X5301993Y-4683059I-35355J35355D01*
G01*
X5372703Y-4753769D02*
X5478769Y-4647703D01*
X5478769Y-4647703D02*
G75*
G03*
X5408059Y-4576993I-35355J35355D01*
G01*
X5440381Y-6515381D02*
G75*
G02*
X5340381Y-6515381I-50000J0D01*
G01*
X5340381Y-6515381D02*
G75*
G02*
X5440381Y-6515381I50000J0D01*
G01*
X5408059Y-6426993D02*
X5301993Y-6533059D01*
X5372703Y-6603769D02*
G75*
G02*
X5301993Y-6533059I-35355J35355D01*
G01*
X5372703Y-6603769D02*
X5478769Y-6497703D01*
X5478769Y-6497703D02*
G75*
G03*
X5408059Y-6426993I-35355J35355D01*
G01*
X5440381Y-8365381D02*
G75*
G02*
X5340381Y-8365381I-50000J0D01*
G01*
X5340381Y-8365381D02*
G75*
G02*
X5440381Y-8365381I50000J0D01*
G01*
X5408059Y-8276993D02*
X5301993Y-8383059D01*
X5372703Y-8453769D02*
G75*
G02*
X5301993Y-8383059I-35355J35355D01*
G01*
X5372703Y-8453769D02*
X5478769Y-8347703D01*
X5478769Y-8347703D02*
G75*
G03*
X5408059Y-8276993I-35355J35355D01*
G01*
X5440381Y-10690381D02*
G75*
G02*
X5340381Y-10690381I-50000J0D01*
G01*
X5340381Y-10690381D02*
G75*
G02*
X5440381Y-10690381I50000J0D01*
G01*
X5408059Y-10601993D02*
X5301993Y-10708059D01*
X5372703Y-10778769D02*
G75*
G02*
X5301993Y-10708059I-35355J35355D01*
G01*
X5372703Y-10778769D02*
X5478769Y-10672703D01*
X5478769Y-10672703D02*
G75*
G03*
X5408059Y-10601993I-35355J35355D01*
G01*
X5440381Y-12540381D02*
G75*
G02*
X5340381Y-12540381I-50000J0D01*
G01*
X5340381Y-12540381D02*
G75*
G02*
X5440381Y-12540381I50000J0D01*
G01*
X5408059Y-12451993D02*
X5301993Y-12558059D01*
X5372703Y-12628769D02*
G75*
G02*
X5301993Y-12558059I-35355J35355D01*
G01*
X5372703Y-12628769D02*
X5478769Y-12522703D01*
X5478769Y-12522703D02*
G75*
G03*
X5408059Y-12451993I-35355J35355D01*
G01*
X5440381Y-14390381D02*
G75*
G02*
X5340381Y-14390381I-50000J0D01*
G01*
X5340381Y-14390381D02*
G75*
G02*
X5440381Y-14390381I50000J0D01*
G01*
X5408059Y-14301993D02*
X5301993Y-14408059D01*
X5372703Y-14478769D02*
G75*
G02*
X5301993Y-14408059I-35355J35355D01*
G01*
X5372703Y-14478769D02*
X5478769Y-14372703D01*
X5478769Y-14372703D02*
G75*
G03*
X5408059Y-14301993I-35355J35355D01*
G01*
X5440381Y-16715381D02*
G75*
G02*
X5340381Y-16715381I-50000J0D01*
G01*
X5340381Y-16715381D02*
G75*
G02*
X5440381Y-16715381I50000J0D01*
G01*
X5408059Y-16626993D02*
X5301993Y-16733059D01*
X5372703Y-16803769D02*
G75*
G02*
X5301993Y-16733059I-35355J35355D01*
G01*
X5372703Y-16803769D02*
X5478769Y-16697703D01*
X5478769Y-16697703D02*
G75*
G03*
X5408059Y-16626993I-35355J35355D01*
G01*
X5440381Y-18565381D02*
G75*
G02*
X5340381Y-18565381I-50000J0D01*
G01*
X5340381Y-18565381D02*
G75*
G02*
X5440381Y-18565381I50000J0D01*
G01*
X5408059Y-18476993D02*
X5301993Y-18583059D01*
X5372703Y-18653769D02*
G75*
G02*
X5301993Y-18583059I-35355J35355D01*
G01*
X5372703Y-18653769D02*
X5478769Y-18547703D01*
X5478769Y-18547703D02*
G75*
G03*
X5408059Y-18476993I-35355J35355D01*
G01*
X5440381Y-20415381D02*
G75*
G02*
X5340381Y-20415381I-50000J0D01*
G01*
X5340381Y-20415381D02*
G75*
G02*
X5440381Y-20415381I50000J0D01*
G01*
X5408059Y-20326993D02*
X5301993Y-20433059D01*
X5372703Y-20503769D02*
G75*
G02*
X5301993Y-20433059I-35355J35355D01*
G01*
X5372703Y-20503769D02*
X5478769Y-20397703D01*
X5478769Y-20397703D02*
G75*
G03*
X5408059Y-20326993I-35355J35355D01*
G01*
X6150000Y-4475000D02*
G75*
G02*
X6050000Y-4475000I-50000J0D01*
G01*
X6050000Y-4475000D02*
G75*
G02*
X6150000Y-4475000I50000J0D01*
G01*
X6025000Y-4525000D02*
X6175000Y-4525000D01*
X6175000Y-4425000D02*
G75*
G02*
X6175000Y-4525000I0J-50000D01*
G01*
X6175000Y-4425000D02*
X6025000Y-4425000D01*
X6025000Y-4425000D02*
G75*
G03*
X6025000Y-4525000I0J-50000D01*
G01*
X6150000Y-6325000D02*
G75*
G02*
X6050000Y-6325000I-50000J0D01*
G01*
X6050000Y-6325000D02*
G75*
G02*
X6150000Y-6325000I50000J0D01*
G01*
X6025000Y-6375000D02*
X6175000Y-6375000D01*
X6175000Y-6275000D02*
G75*
G02*
X6175000Y-6375000I0J-50000D01*
G01*
X6175000Y-6275000D02*
X6025000Y-6275000D01*
X6025000Y-6275000D02*
G75*
G03*
X6025000Y-6375000I0J-50000D01*
G01*
X6150000Y-8175000D02*
G75*
G02*
X6050000Y-8175000I-50000J0D01*
G01*
X6050000Y-8175000D02*
G75*
G02*
X6150000Y-8175000I50000J0D01*
G01*
X6025000Y-8225000D02*
X6175000Y-8225000D01*
X6175000Y-8125000D02*
G75*
G02*
X6175000Y-8225000I0J-50000D01*
G01*
X6175000Y-8125000D02*
X6025000Y-8125000D01*
X6025000Y-8125000D02*
G75*
G03*
X6025000Y-8225000I0J-50000D01*
G01*
X6150000Y-10500000D02*
G75*
G02*
X6050000Y-10500000I-50000J0D01*
G01*
X6050000Y-10500000D02*
G75*
G02*
X6150000Y-10500000I50000J0D01*
G01*
X6025000Y-10550000D02*
X6175000Y-10550000D01*
X6175000Y-10450000D02*
G75*
G02*
X6175000Y-10550000I0J-50000D01*
G01*
X6175000Y-10450000D02*
X6025000Y-10450000D01*
X6025000Y-10450000D02*
G75*
G03*
X6025000Y-10550000I0J-50000D01*
G01*
X6150000Y-12350000D02*
G75*
G02*
X6050000Y-12350000I-50000J0D01*
G01*
X6050000Y-12350000D02*
G75*
G02*
X6150000Y-12350000I50000J0D01*
G01*
X6025000Y-12400000D02*
X6175000Y-12400000D01*
X6175000Y-12300000D02*
G75*
G02*
X6175000Y-12400000I0J-50000D01*
G01*
X6175000Y-12300000D02*
X6025000Y-12300000D01*
X6025000Y-12300000D02*
G75*
G03*
X6025000Y-12400000I0J-50000D01*
G01*
X6150000Y-14200000D02*
G75*
G02*
X6050000Y-14200000I-50000J0D01*
G01*
X6050000Y-14200000D02*
G75*
G02*
X6150000Y-14200000I50000J0D01*
G01*
X6025000Y-14250000D02*
X6175000Y-14250000D01*
X6175000Y-14150000D02*
G75*
G02*
X6175000Y-14250000I0J-50000D01*
G01*
X6175000Y-14150000D02*
X6025000Y-14150000D01*
X6025000Y-14150000D02*
G75*
G03*
X6025000Y-14250000I0J-50000D01*
G01*
X6150000Y-16525000D02*
G75*
G02*
X6050000Y-16525000I-50000J0D01*
G01*
X6050000Y-16525000D02*
G75*
G02*
X6150000Y-16525000I50000J0D01*
G01*
X6025000Y-16575000D02*
X6175000Y-16575000D01*
X6175000Y-16475000D02*
G75*
G02*
X6175000Y-16575000I0J-50000D01*
G01*
X6175000Y-16475000D02*
X6025000Y-16475000D01*
X6025000Y-16475000D02*
G75*
G03*
X6025000Y-16575000I0J-50000D01*
G01*
X6150000Y-18375000D02*
G75*
G02*
X6050000Y-18375000I-50000J0D01*
G01*
X6050000Y-18375000D02*
G75*
G02*
X6150000Y-18375000I50000J0D01*
G01*
X6025000Y-18425000D02*
X6175000Y-18425000D01*
X6175000Y-18325000D02*
G75*
G02*
X6175000Y-18425000I0J-50000D01*
G01*
X6175000Y-18325000D02*
X6025000Y-18325000D01*
X6025000Y-18325000D02*
G75*
G03*
X6025000Y-18425000I0J-50000D01*
G01*
X6150000Y-20225000D02*
G75*
G02*
X6050000Y-20225000I-50000J0D01*
G01*
X6050000Y-20225000D02*
G75*
G02*
X6150000Y-20225000I50000J0D01*
G01*
X6025000Y-20275000D02*
X6175000Y-20275000D01*
X6175000Y-20175000D02*
G75*
G02*
X6175000Y-20275000I0J-50000D01*
G01*
X6175000Y-20175000D02*
X6025000Y-20175000D01*
X6025000Y-20175000D02*
G75*
G03*
X6025000Y-20275000I0J-50000D01*
G01*
X6550000Y-5075000D02*
G75*
G02*
X6450000Y-5075000I-50000J0D01*
G01*
X6450000Y-5075000D02*
G75*
G02*
X6550000Y-5075000I50000J0D01*
G01*
X6450000Y-5000000D02*
X6450000Y-5150000D01*
X6550000Y-5150000D02*
G75*
G02*
X6450000Y-5150000I-50000J0D01*
G01*
X6550000Y-5150000D02*
X6550000Y-5000000D01*
X6550000Y-5000000D02*
G75*
G03*
X6450000Y-5000000I-50000J0D01*
G01*
X6550000Y-6925000D02*
G75*
G02*
X6450000Y-6925000I-50000J0D01*
G01*
X6450000Y-6925000D02*
G75*
G02*
X6550000Y-6925000I50000J0D01*
G01*
X6450000Y-6850000D02*
X6450000Y-7000000D01*
X6550000Y-7000000D02*
G75*
G02*
X6450000Y-7000000I-50000J0D01*
G01*
X6550000Y-7000000D02*
X6550000Y-6850000D01*
X6550000Y-6850000D02*
G75*
G03*
X6450000Y-6850000I-50000J0D01*
G01*
X6550000Y-8775000D02*
G75*
G02*
X6450000Y-8775000I-50000J0D01*
G01*
X6450000Y-8775000D02*
G75*
G02*
X6550000Y-8775000I50000J0D01*
G01*
X6450000Y-8700000D02*
X6450000Y-8850000D01*
X6550000Y-8850000D02*
G75*
G02*
X6450000Y-8850000I-50000J0D01*
G01*
X6550000Y-8850000D02*
X6550000Y-8700000D01*
X6550000Y-8700000D02*
G75*
G03*
X6450000Y-8700000I-50000J0D01*
G01*
X6550000Y-11100000D02*
G75*
G02*
X6450000Y-11100000I-50000J0D01*
G01*
X6450000Y-11100000D02*
G75*
G02*
X6550000Y-11100000I50000J0D01*
G01*
X6450000Y-11025000D02*
X6450000Y-11175000D01*
X6550000Y-11175000D02*
G75*
G02*
X6450000Y-11175000I-50000J0D01*
G01*
X6550000Y-11175000D02*
X6550000Y-11025000D01*
X6550000Y-11025000D02*
G75*
G03*
X6450000Y-11025000I-50000J0D01*
G01*
X6550000Y-12950000D02*
G75*
G02*
X6450000Y-12950000I-50000J0D01*
G01*
X6450000Y-12950000D02*
G75*
G02*
X6550000Y-12950000I50000J0D01*
G01*
X6450000Y-12875000D02*
X6450000Y-13025000D01*
X6550000Y-13025000D02*
G75*
G02*
X6450000Y-13025000I-50000J0D01*
G01*
X6550000Y-13025000D02*
X6550000Y-12875000D01*
X6550000Y-12875000D02*
G75*
G03*
X6450000Y-12875000I-50000J0D01*
G01*
X6550000Y-14800000D02*
G75*
G02*
X6450000Y-14800000I-50000J0D01*
G01*
X6450000Y-14800000D02*
G75*
G02*
X6550000Y-14800000I50000J0D01*
G01*
X6450000Y-14725000D02*
X6450000Y-14875000D01*
X6550000Y-14875000D02*
G75*
G02*
X6450000Y-14875000I-50000J0D01*
G01*
X6550000Y-14875000D02*
X6550000Y-14725000D01*
X6550000Y-14725000D02*
G75*
G03*
X6450000Y-14725000I-50000J0D01*
G01*
X6550000Y-17125000D02*
G75*
G02*
X6450000Y-17125000I-50000J0D01*
G01*
X6450000Y-17125000D02*
G75*
G02*
X6550000Y-17125000I50000J0D01*
G01*
X6450000Y-17050000D02*
X6450000Y-17200000D01*
X6550000Y-17200000D02*
G75*
G02*
X6450000Y-17200000I-50000J0D01*
G01*
X6550000Y-17200000D02*
X6550000Y-17050000D01*
X6550000Y-17050000D02*
G75*
G03*
X6450000Y-17050000I-50000J0D01*
G01*
X6550000Y-18975000D02*
G75*
G02*
X6450000Y-18975000I-50000J0D01*
G01*
X6450000Y-18975000D02*
G75*
G02*
X6550000Y-18975000I50000J0D01*
G01*
X6450000Y-18900000D02*
X6450000Y-19050000D01*
X6550000Y-19050000D02*
G75*
G02*
X6450000Y-19050000I-50000J0D01*
G01*
X6550000Y-19050000D02*
X6550000Y-18900000D01*
X6550000Y-18900000D02*
G75*
G03*
X6450000Y-18900000I-50000J0D01*
G01*
X6550000Y-20825000D02*
G75*
G02*
X6450000Y-20825000I-50000J0D01*
G01*
X6450000Y-20825000D02*
G75*
G02*
X6550000Y-20825000I50000J0D01*
G01*
X6450000Y-20750000D02*
X6450000Y-20900000D01*
X6550000Y-20900000D02*
G75*
G02*
X6450000Y-20900000I-50000J0D01*
G01*
X6550000Y-20900000D02*
X6550000Y-20750000D01*
X6550000Y-20750000D02*
G75*
G03*
X6450000Y-20750000I-50000J0D01*
G01*
X7396250Y-20167000D02*
G75*
G02*
X7296250Y-20167000I-50000J0D01*
G01*
X7296250Y-20167000D02*
G75*
G02*
X7396250Y-20167000I50000J0D01*
G01*
X7396250Y-20421000D02*
G75*
G02*
X7296250Y-20421000I-50000J0D01*
G01*
X7296250Y-20421000D02*
G75*
G02*
X7396250Y-20421000I50000J0D01*
G01*
X7396250Y-20675000D02*
G75*
G02*
X7296250Y-20675000I-50000J0D01*
G01*
X7296250Y-20675000D02*
G75*
G02*
X7396250Y-20675000I50000J0D01*
G01*
X7396250Y-20929000D02*
G75*
G02*
X7296250Y-20929000I-50000J0D01*
G01*
X7296250Y-20929000D02*
G75*
G02*
X7396250Y-20929000I50000J0D01*
G01*
X7396250Y-21183000D02*
G75*
G02*
X7296250Y-21183000I-50000J0D01*
G01*
X7296250Y-21183000D02*
G75*
G02*
X7396250Y-21183000I50000J0D01*
G01*
X7650250Y-20167000D02*
G75*
G02*
X7550250Y-20167000I-50000J0D01*
G01*
X7550250Y-20167000D02*
G75*
G02*
X7650250Y-20167000I50000J0D01*
G01*
X7650250Y-20421000D02*
G75*
G02*
X7550250Y-20421000I-50000J0D01*
G01*
X7550250Y-20421000D02*
G75*
G02*
X7650250Y-20421000I50000J0D01*
G01*
X7650250Y-20675000D02*
G75*
G02*
X7550250Y-20675000I-50000J0D01*
G01*
X7550250Y-20675000D02*
G75*
G02*
X7650250Y-20675000I50000J0D01*
G01*
X7650250Y-20929000D02*
G75*
G02*
X7550250Y-20929000I-50000J0D01*
G01*
X7550250Y-20929000D02*
G75*
G02*
X7650250Y-20929000I50000J0D01*
G01*
X7650250Y-21183000D02*
G75*
G02*
X7550250Y-21183000I-50000J0D01*
G01*
X7550250Y-21183000D02*
G75*
G02*
X7650250Y-21183000I50000J0D01*
G01*
X7717500Y-7097500D02*
G75*
G02*
X7617500Y-7097500I-50000J0D01*
G01*
X7617500Y-7097500D02*
G75*
G02*
X7717500Y-7097500I50000J0D01*
G01*
X7717500Y-13122500D02*
G75*
G02*
X7617500Y-13122500I-50000J0D01*
G01*
X7617500Y-13122500D02*
G75*
G02*
X7717500Y-13122500I50000J0D01*
G01*
X7717500Y-19422500D02*
G75*
G02*
X7617500Y-19422500I-50000J0D01*
G01*
X7617500Y-19422500D02*
G75*
G02*
X7717500Y-19422500I50000J0D01*
G01*
X7842000Y-4621250D02*
G75*
G02*
X7742000Y-4621250I-50000J0D01*
G01*
X7742000Y-4621250D02*
G75*
G02*
X7842000Y-4621250I50000J0D01*
G01*
X7842000Y-4875250D02*
G75*
G02*
X7742000Y-4875250I-50000J0D01*
G01*
X7742000Y-4875250D02*
G75*
G02*
X7842000Y-4875250I50000J0D01*
G01*
X7971500Y-7097500D02*
G75*
G02*
X7871500Y-7097500I-50000J0D01*
G01*
X7871500Y-7097500D02*
G75*
G02*
X7971500Y-7097500I50000J0D01*
G01*
X7971500Y-13122500D02*
G75*
G02*
X7871500Y-13122500I-50000J0D01*
G01*
X7871500Y-13122500D02*
G75*
G02*
X7971500Y-13122500I50000J0D01*
G01*
X7971500Y-19422500D02*
G75*
G02*
X7871500Y-19422500I-50000J0D01*
G01*
X7871500Y-19422500D02*
G75*
G02*
X7971500Y-19422500I50000J0D01*
G01*
X8096000Y-4621250D02*
G75*
G02*
X7996000Y-4621250I-50000J0D01*
G01*
X7996000Y-4621250D02*
G75*
G02*
X8096000Y-4621250I50000J0D01*
G01*
X8096000Y-4875250D02*
G75*
G02*
X7996000Y-4875250I-50000J0D01*
G01*
X7996000Y-4875250D02*
G75*
G02*
X8096000Y-4875250I50000J0D01*
G01*
X8225500Y-7097500D02*
G75*
G02*
X8125500Y-7097500I-50000J0D01*
G01*
X8125500Y-7097500D02*
G75*
G02*
X8225500Y-7097500I50000J0D01*
G01*
X8225500Y-13122500D02*
G75*
G02*
X8125500Y-13122500I-50000J0D01*
G01*
X8125500Y-13122500D02*
G75*
G02*
X8225500Y-13122500I50000J0D01*
G01*
X8225500Y-19422500D02*
G75*
G02*
X8125500Y-19422500I-50000J0D01*
G01*
X8125500Y-19422500D02*
G75*
G02*
X8225500Y-19422500I50000J0D01*
G01*
X8350000Y-4621250D02*
G75*
G02*
X8250000Y-4621250I-50000J0D01*
G01*
X8250000Y-4621250D02*
G75*
G02*
X8350000Y-4621250I50000J0D01*
G01*
X8350000Y-4875250D02*
G75*
G02*
X8250000Y-4875250I-50000J0D01*
G01*
X8250000Y-4875250D02*
G75*
G02*
X8350000Y-4875250I50000J0D01*
G01*
X8479500Y-7097500D02*
G75*
G02*
X8379500Y-7097500I-50000J0D01*
G01*
X8379500Y-7097500D02*
G75*
G02*
X8479500Y-7097500I50000J0D01*
G01*
X8479500Y-13122500D02*
G75*
G02*
X8379500Y-13122500I-50000J0D01*
G01*
X8379500Y-13122500D02*
G75*
G02*
X8479500Y-13122500I50000J0D01*
G01*
X8479500Y-19422500D02*
G75*
G02*
X8379500Y-19422500I-50000J0D01*
G01*
X8379500Y-19422500D02*
G75*
G02*
X8479500Y-19422500I50000J0D01*
G01*
X8550000Y-20625000D02*
G75*
G02*
X8450000Y-20625000I-50000J0D01*
G01*
X8450000Y-20625000D02*
G75*
G02*
X8550000Y-20625000I50000J0D01*
G01*
X8550000Y-20700000D02*
X8550000Y-20550000D01*
X8450000Y-20550000D02*
G75*
G02*
X8550000Y-20550000I50000J0D01*
G01*
X8450000Y-20550000D02*
X8450000Y-20700000D01*
X8450000Y-20700000D02*
G75*
G03*
X8550000Y-20700000I50000J0D01*
G01*
X8604000Y-4621250D02*
G75*
G02*
X8504000Y-4621250I-50000J0D01*
G01*
X8504000Y-4621250D02*
G75*
G02*
X8604000Y-4621250I50000J0D01*
G01*
X8604000Y-4875250D02*
G75*
G02*
X8504000Y-4875250I-50000J0D01*
G01*
X8504000Y-4875250D02*
G75*
G02*
X8604000Y-4875250I50000J0D01*
G01*
X8733500Y-7097500D02*
G75*
G02*
X8633500Y-7097500I-50000J0D01*
G01*
X8633500Y-7097500D02*
G75*
G02*
X8733500Y-7097500I50000J0D01*
G01*
X8733500Y-13122500D02*
G75*
G02*
X8633500Y-13122500I-50000J0D01*
G01*
X8633500Y-13122500D02*
G75*
G02*
X8733500Y-13122500I50000J0D01*
G01*
X8733500Y-19422500D02*
G75*
G02*
X8633500Y-19422500I-50000J0D01*
G01*
X8633500Y-19422500D02*
G75*
G02*
X8733500Y-19422500I50000J0D01*
G01*
X8740381Y-21334619D02*
G75*
G02*
X8640381Y-21334619I-50000J0D01*
G01*
X8640381Y-21334619D02*
G75*
G02*
X8740381Y-21334619I50000J0D01*
G01*
X8601993Y-21316941D02*
X8708059Y-21423007D01*
X8778769Y-21352297D02*
G75*
G02*
X8708059Y-21423007I-35355J-35355D01*
G01*
X8778769Y-21352297D02*
X8672703Y-21246231D01*
X8672703Y-21246231D02*
G75*
G03*
X8601993Y-21316941I-35355J-35355D01*
G01*
X8858000Y-4621250D02*
G75*
G02*
X8758000Y-4621250I-50000J0D01*
G01*
X8758000Y-4621250D02*
G75*
G02*
X8858000Y-4621250I50000J0D01*
G01*
X8858000Y-4875250D02*
G75*
G02*
X8758000Y-4875250I-50000J0D01*
G01*
X8758000Y-4875250D02*
G75*
G02*
X8858000Y-4875250I50000J0D01*
G01*
X8987500Y-7097500D02*
G75*
G02*
X8887500Y-7097500I-50000J0D01*
G01*
X8887500Y-7097500D02*
G75*
G02*
X8987500Y-7097500I50000J0D01*
G01*
X8987500Y-13122500D02*
G75*
G02*
X8887500Y-13122500I-50000J0D01*
G01*
X8887500Y-13122500D02*
G75*
G02*
X8987500Y-13122500I50000J0D01*
G01*
X8987500Y-19422500D02*
G75*
G02*
X8887500Y-19422500I-50000J0D01*
G01*
X8887500Y-19422500D02*
G75*
G02*
X8987500Y-19422500I50000J0D01*
G01*
X9150000Y-20225000D02*
G75*
G02*
X9050000Y-20225000I-50000J0D01*
G01*
X9050000Y-20225000D02*
G75*
G02*
X9150000Y-20225000I50000J0D01*
G01*
X9025000Y-20275000D02*
X9175000Y-20275000D01*
X9175000Y-20175000D02*
G75*
G02*
X9175000Y-20275000I0J-50000D01*
G01*
X9175000Y-20175000D02*
X9025000Y-20175000D01*
X9025000Y-20175000D02*
G75*
G03*
X9025000Y-20275000I0J-50000D01*
G01*
D13*
X6900000Y-4362000D02*
X6900000Y-4472000D01*
X6845000Y-4417000D02*
X6955000Y-4417000D01*
X6900000Y-5378000D02*
X6900000Y-5488000D01*
X6845000Y-5433000D02*
X6955000Y-5433000D01*
X9700000Y-4362000D02*
X9700000Y-4472000D01*
X9645000Y-4417000D02*
X9755000Y-4417000D01*
X9700000Y-5378000D02*
X9700000Y-5488000D01*
X9645000Y-5433000D02*
X9755000Y-5433000D01*
D11*
X5358277Y-22063984D02*
X5358277Y-21863984D01*
X5358277Y-21863984D02*
X5405896Y-21863984D01*
X5405896Y-21863984D02*
X5434467Y-21873508D01*
X5434467Y-21873508D02*
X5453515Y-21892555D01*
X5453515Y-21892555D02*
X5463039Y-21911603D01*
X5463039Y-21911603D02*
X5472563Y-21949698D01*
X5472563Y-21949698D02*
X5472563Y-21978270D01*
X5472563Y-21978270D02*
X5463039Y-22016365D01*
X5463039Y-22016365D02*
X5453515Y-22035412D01*
X5453515Y-22035412D02*
X5434467Y-22054460D01*
X5434467Y-22054460D02*
X5405896Y-22063984D01*
X5405896Y-22063984D02*
X5358277Y-22063984D01*
X5558277Y-22063984D02*
X5558277Y-21930650D01*
X5558277Y-21968746D02*
X5567801Y-21949698D01*
X5567801Y-21949698D02*
X5577324Y-21940174D01*
X5577324Y-21940174D02*
X5596372Y-21930650D01*
X5596372Y-21930650D02*
X5615420Y-21930650D01*
X5682086Y-22063984D02*
X5682086Y-21930650D01*
X5682086Y-21863984D02*
X5672562Y-21873508D01*
X5672562Y-21873508D02*
X5682086Y-21883031D01*
X5682086Y-21883031D02*
X5691610Y-21873508D01*
X5691610Y-21873508D02*
X5682086Y-21863984D01*
X5682086Y-21863984D02*
X5682086Y-21883031D01*
X5805896Y-22063984D02*
X5786848Y-22054460D01*
X5786848Y-22054460D02*
X5777324Y-22035412D01*
X5777324Y-22035412D02*
X5777324Y-21863984D01*
X5910658Y-22063984D02*
X5891610Y-22054460D01*
X5891610Y-22054460D02*
X5882086Y-22035412D01*
X5882086Y-22035412D02*
X5882086Y-21863984D01*
X6139229Y-22063984D02*
X6139229Y-21863984D01*
X6139229Y-21863984D02*
X6205896Y-22006841D01*
X6205896Y-22006841D02*
X6272562Y-21863984D01*
X6272562Y-21863984D02*
X6272562Y-22063984D01*
X6453515Y-22063984D02*
X6453515Y-21959222D01*
X6453515Y-21959222D02*
X6443991Y-21940174D01*
X6443991Y-21940174D02*
X6424943Y-21930650D01*
X6424943Y-21930650D02*
X6386848Y-21930650D01*
X6386848Y-21930650D02*
X6367801Y-21940174D01*
X6453515Y-22054460D02*
X6434467Y-22063984D01*
X6434467Y-22063984D02*
X6386848Y-22063984D01*
X6386848Y-22063984D02*
X6367801Y-22054460D01*
X6367801Y-22054460D02*
X6358277Y-22035412D01*
X6358277Y-22035412D02*
X6358277Y-22016365D01*
X6358277Y-22016365D02*
X6367801Y-21997317D01*
X6367801Y-21997317D02*
X6386848Y-21987793D01*
X6386848Y-21987793D02*
X6434467Y-21987793D01*
X6434467Y-21987793D02*
X6453515Y-21978270D01*
X6548753Y-21930650D02*
X6548753Y-22130650D01*
X6548753Y-21940174D02*
X6567801Y-21930650D01*
X6567801Y-21930650D02*
X6605896Y-21930650D01*
X6605896Y-21930650D02*
X6624943Y-21940174D01*
X6624943Y-21940174D02*
X6634467Y-21949698D01*
X6634467Y-21949698D02*
X6643991Y-21968746D01*
X6643991Y-21968746D02*
X6643991Y-22025889D01*
X6643991Y-22025889D02*
X6634467Y-22044936D01*
X6634467Y-22044936D02*
X6624943Y-22054460D01*
X6624943Y-22054460D02*
X6605896Y-22063984D01*
X6605896Y-22063984D02*
X6567801Y-22063984D01*
X6567801Y-22063984D02*
X6548753Y-22054460D01*
X6729705Y-22044936D02*
X6739229Y-22054460D01*
X6739229Y-22054460D02*
X6729705Y-22063984D01*
X6729705Y-22063984D02*
X6720182Y-22054460D01*
X6720182Y-22054460D02*
X6729705Y-22044936D01*
X6729705Y-22044936D02*
X6729705Y-22063984D01*
X6729705Y-21940174D02*
X6739229Y-21949698D01*
X6739229Y-21949698D02*
X6729705Y-21959222D01*
X6729705Y-21959222D02*
X6720182Y-21949698D01*
X6720182Y-21949698D02*
X6729705Y-21940174D01*
X6729705Y-21940174D02*
X6729705Y-21959222D01*
D12*
X5017500Y-22352500D02*
X5097500Y-22432500D01*
X5097500Y-22352500D02*
X5017500Y-22432500D01*
D11*
X5396372Y-22283984D02*
X5415420Y-22283984D01*
X5415420Y-22283984D02*
X5434467Y-22293508D01*
X5434467Y-22293508D02*
X5443991Y-22303031D01*
X5443991Y-22303031D02*
X5453515Y-22322079D01*
X5453515Y-22322079D02*
X5463039Y-22360174D01*
X5463039Y-22360174D02*
X5463039Y-22407793D01*
X5463039Y-22407793D02*
X5453515Y-22445888D01*
X5453515Y-22445888D02*
X5443991Y-22464936D01*
X5443991Y-22464936D02*
X5434467Y-22474460D01*
X5434467Y-22474460D02*
X5415420Y-22483984D01*
X5415420Y-22483984D02*
X5396372Y-22483984D01*
X5396372Y-22483984D02*
X5377324Y-22474460D01*
X5377324Y-22474460D02*
X5367801Y-22464936D01*
X5367801Y-22464936D02*
X5358277Y-22445888D01*
X5358277Y-22445888D02*
X5348753Y-22407793D01*
X5348753Y-22407793D02*
X5348753Y-22360174D01*
X5348753Y-22360174D02*
X5358277Y-22322079D01*
X5358277Y-22322079D02*
X5367801Y-22303031D01*
X5367801Y-22303031D02*
X5377324Y-22293508D01*
X5377324Y-22293508D02*
X5396372Y-22283984D01*
X5548753Y-22464936D02*
X5558277Y-22474460D01*
X5558277Y-22474460D02*
X5548753Y-22483984D01*
X5548753Y-22483984D02*
X5539229Y-22474460D01*
X5539229Y-22474460D02*
X5548753Y-22464936D01*
X5548753Y-22464936D02*
X5548753Y-22483984D01*
X5672562Y-22369698D02*
X5653515Y-22360174D01*
X5653515Y-22360174D02*
X5643991Y-22350650D01*
X5643991Y-22350650D02*
X5634467Y-22331603D01*
X5634467Y-22331603D02*
X5634467Y-22322079D01*
X5634467Y-22322079D02*
X5643991Y-22303031D01*
X5643991Y-22303031D02*
X5653515Y-22293508D01*
X5653515Y-22293508D02*
X5672562Y-22283984D01*
X5672562Y-22283984D02*
X5710658Y-22283984D01*
X5710658Y-22283984D02*
X5729705Y-22293508D01*
X5729705Y-22293508D02*
X5739229Y-22303031D01*
X5739229Y-22303031D02*
X5748753Y-22322079D01*
X5748753Y-22322079D02*
X5748753Y-22331603D01*
X5748753Y-22331603D02*
X5739229Y-22350650D01*
X5739229Y-22350650D02*
X5729705Y-22360174D01*
X5729705Y-22360174D02*
X5710658Y-22369698D01*
X5710658Y-22369698D02*
X5672562Y-22369698D01*
X5672562Y-22369698D02*
X5653515Y-22379222D01*
X5653515Y-22379222D02*
X5643991Y-22388746D01*
X5643991Y-22388746D02*
X5634467Y-22407793D01*
X5634467Y-22407793D02*
X5634467Y-22445888D01*
X5634467Y-22445888D02*
X5643991Y-22464936D01*
X5643991Y-22464936D02*
X5653515Y-22474460D01*
X5653515Y-22474460D02*
X5672562Y-22483984D01*
X5672562Y-22483984D02*
X5710658Y-22483984D01*
X5710658Y-22483984D02*
X5729705Y-22474460D01*
X5729705Y-22474460D02*
X5739229Y-22464936D01*
X5739229Y-22464936D02*
X5748753Y-22445888D01*
X5748753Y-22445888D02*
X5748753Y-22407793D01*
X5748753Y-22407793D02*
X5739229Y-22388746D01*
X5739229Y-22388746D02*
X5729705Y-22379222D01*
X5729705Y-22379222D02*
X5710658Y-22369698D01*
X5872562Y-22283984D02*
X5891610Y-22283984D01*
X5891610Y-22283984D02*
X5910658Y-22293508D01*
X5910658Y-22293508D02*
X5920182Y-22303031D01*
X5920182Y-22303031D02*
X5929705Y-22322079D01*
X5929705Y-22322079D02*
X5939229Y-22360174D01*
X5939229Y-22360174D02*
X5939229Y-22407793D01*
X5939229Y-22407793D02*
X5929705Y-22445888D01*
X5929705Y-22445888D02*
X5920182Y-22464936D01*
X5920182Y-22464936D02*
X5910658Y-22474460D01*
X5910658Y-22474460D02*
X5891610Y-22483984D01*
X5891610Y-22483984D02*
X5872562Y-22483984D01*
X5872562Y-22483984D02*
X5853515Y-22474460D01*
X5853515Y-22474460D02*
X5843991Y-22464936D01*
X5843991Y-22464936D02*
X5834467Y-22445888D01*
X5834467Y-22445888D02*
X5824943Y-22407793D01*
X5824943Y-22407793D02*
X5824943Y-22360174D01*
X5824943Y-22360174D02*
X5834467Y-22322079D01*
X5834467Y-22322079D02*
X5843991Y-22303031D01*
X5843991Y-22303031D02*
X5853515Y-22293508D01*
X5853515Y-22293508D02*
X5872562Y-22283984D01*
X6063039Y-22283984D02*
X6082086Y-22283984D01*
X6082086Y-22283984D02*
X6101134Y-22293508D01*
X6101134Y-22293508D02*
X6110658Y-22303031D01*
X6110658Y-22303031D02*
X6120182Y-22322079D01*
X6120182Y-22322079D02*
X6129705Y-22360174D01*
X6129705Y-22360174D02*
X6129705Y-22407793D01*
X6129705Y-22407793D02*
X6120182Y-22445888D01*
X6120182Y-22445888D02*
X6110658Y-22464936D01*
X6110658Y-22464936D02*
X6101134Y-22474460D01*
X6101134Y-22474460D02*
X6082086Y-22483984D01*
X6082086Y-22483984D02*
X6063039Y-22483984D01*
X6063039Y-22483984D02*
X6043991Y-22474460D01*
X6043991Y-22474460D02*
X6034467Y-22464936D01*
X6034467Y-22464936D02*
X6024943Y-22445888D01*
X6024943Y-22445888D02*
X6015420Y-22407793D01*
X6015420Y-22407793D02*
X6015420Y-22360174D01*
X6015420Y-22360174D02*
X6024943Y-22322079D01*
X6024943Y-22322079D02*
X6034467Y-22303031D01*
X6034467Y-22303031D02*
X6043991Y-22293508D01*
X6043991Y-22293508D02*
X6063039Y-22283984D01*
X6215420Y-22483984D02*
X6215420Y-22350650D01*
X6215420Y-22369698D02*
X6224943Y-22360174D01*
X6224943Y-22360174D02*
X6243991Y-22350650D01*
X6243991Y-22350650D02*
X6272563Y-22350650D01*
X6272563Y-22350650D02*
X6291610Y-22360174D01*
X6291610Y-22360174D02*
X6301134Y-22379222D01*
X6301134Y-22379222D02*
X6301134Y-22483984D01*
X6301134Y-22379222D02*
X6310658Y-22360174D01*
X6310658Y-22360174D02*
X6329705Y-22350650D01*
X6329705Y-22350650D02*
X6358277Y-22350650D01*
X6358277Y-22350650D02*
X6377324Y-22360174D01*
X6377324Y-22360174D02*
X6386848Y-22379222D01*
X6386848Y-22379222D02*
X6386848Y-22483984D01*
X6482086Y-22483984D02*
X6482086Y-22350650D01*
X6482086Y-22369698D02*
X6491610Y-22360174D01*
X6491610Y-22360174D02*
X6510658Y-22350650D01*
X6510658Y-22350650D02*
X6539229Y-22350650D01*
X6539229Y-22350650D02*
X6558277Y-22360174D01*
X6558277Y-22360174D02*
X6567801Y-22379222D01*
X6567801Y-22379222D02*
X6567801Y-22483984D01*
X6567801Y-22379222D02*
X6577324Y-22360174D01*
X6577324Y-22360174D02*
X6596372Y-22350650D01*
X6596372Y-22350650D02*
X6624943Y-22350650D01*
X6624943Y-22350650D02*
X6643991Y-22360174D01*
X6643991Y-22360174D02*
X6653515Y-22379222D01*
X6653515Y-22379222D02*
X6653515Y-22483984D01*
X7043991Y-22274460D02*
X6872563Y-22531603D01*
X7301134Y-22283984D02*
X7320182Y-22283984D01*
X7320182Y-22283984D02*
X7339229Y-22293508D01*
X7339229Y-22293508D02*
X7348753Y-22303031D01*
X7348753Y-22303031D02*
X7358277Y-22322079D01*
X7358277Y-22322079D02*
X7367801Y-22360174D01*
X7367801Y-22360174D02*
X7367801Y-22407793D01*
X7367801Y-22407793D02*
X7358277Y-22445888D01*
X7358277Y-22445888D02*
X7348753Y-22464936D01*
X7348753Y-22464936D02*
X7339229Y-22474460D01*
X7339229Y-22474460D02*
X7320182Y-22483984D01*
X7320182Y-22483984D02*
X7301134Y-22483984D01*
X7301134Y-22483984D02*
X7282086Y-22474460D01*
X7282086Y-22474460D02*
X7272563Y-22464936D01*
X7272563Y-22464936D02*
X7263039Y-22445888D01*
X7263039Y-22445888D02*
X7253515Y-22407793D01*
X7253515Y-22407793D02*
X7253515Y-22360174D01*
X7253515Y-22360174D02*
X7263039Y-22322079D01*
X7263039Y-22322079D02*
X7272563Y-22303031D01*
X7272563Y-22303031D02*
X7282086Y-22293508D01*
X7282086Y-22293508D02*
X7301134Y-22283984D01*
X7453515Y-22464936D02*
X7463039Y-22474460D01*
X7463039Y-22474460D02*
X7453515Y-22483984D01*
X7453515Y-22483984D02*
X7443991Y-22474460D01*
X7443991Y-22474460D02*
X7453515Y-22464936D01*
X7453515Y-22464936D02*
X7453515Y-22483984D01*
X7586848Y-22283984D02*
X7605896Y-22283984D01*
X7605896Y-22283984D02*
X7624944Y-22293508D01*
X7624944Y-22293508D02*
X7634467Y-22303031D01*
X7634467Y-22303031D02*
X7643991Y-22322079D01*
X7643991Y-22322079D02*
X7653515Y-22360174D01*
X7653515Y-22360174D02*
X7653515Y-22407793D01*
X7653515Y-22407793D02*
X7643991Y-22445888D01*
X7643991Y-22445888D02*
X7634467Y-22464936D01*
X7634467Y-22464936D02*
X7624944Y-22474460D01*
X7624944Y-22474460D02*
X7605896Y-22483984D01*
X7605896Y-22483984D02*
X7586848Y-22483984D01*
X7586848Y-22483984D02*
X7567801Y-22474460D01*
X7567801Y-22474460D02*
X7558277Y-22464936D01*
X7558277Y-22464936D02*
X7548753Y-22445888D01*
X7548753Y-22445888D02*
X7539229Y-22407793D01*
X7539229Y-22407793D02*
X7539229Y-22360174D01*
X7539229Y-22360174D02*
X7548753Y-22322079D01*
X7548753Y-22322079D02*
X7558277Y-22303031D01*
X7558277Y-22303031D02*
X7567801Y-22293508D01*
X7567801Y-22293508D02*
X7586848Y-22283984D01*
X7720182Y-22283984D02*
X7843991Y-22283984D01*
X7843991Y-22283984D02*
X7777325Y-22360174D01*
X7777325Y-22360174D02*
X7805896Y-22360174D01*
X7805896Y-22360174D02*
X7824944Y-22369698D01*
X7824944Y-22369698D02*
X7834467Y-22379222D01*
X7834467Y-22379222D02*
X7843991Y-22398269D01*
X7843991Y-22398269D02*
X7843991Y-22445888D01*
X7843991Y-22445888D02*
X7834467Y-22464936D01*
X7834467Y-22464936D02*
X7824944Y-22474460D01*
X7824944Y-22474460D02*
X7805896Y-22483984D01*
X7805896Y-22483984D02*
X7748753Y-22483984D01*
X7748753Y-22483984D02*
X7729706Y-22474460D01*
X7729706Y-22474460D02*
X7720182Y-22464936D01*
X8034467Y-22483984D02*
X7920182Y-22483984D01*
X7977325Y-22483984D02*
X7977325Y-22283984D01*
X7977325Y-22283984D02*
X7958277Y-22312555D01*
X7958277Y-22312555D02*
X7939229Y-22331603D01*
X7939229Y-22331603D02*
X7920182Y-22341127D01*
X8215420Y-22283984D02*
X8120182Y-22283984D01*
X8120182Y-22283984D02*
X8110658Y-22379222D01*
X8110658Y-22379222D02*
X8120182Y-22369698D01*
X8120182Y-22369698D02*
X8139229Y-22360174D01*
X8139229Y-22360174D02*
X8186848Y-22360174D01*
X8186848Y-22360174D02*
X8205896Y-22369698D01*
X8205896Y-22369698D02*
X8215420Y-22379222D01*
X8215420Y-22379222D02*
X8224944Y-22398269D01*
X8224944Y-22398269D02*
X8224944Y-22445888D01*
X8224944Y-22445888D02*
X8215420Y-22464936D01*
X8215420Y-22464936D02*
X8205896Y-22474460D01*
X8205896Y-22474460D02*
X8186848Y-22483984D01*
X8186848Y-22483984D02*
X8139229Y-22483984D01*
X8139229Y-22483984D02*
X8120182Y-22474460D01*
X8120182Y-22474460D02*
X8110658Y-22464936D01*
X8301134Y-22283984D02*
X8301134Y-22322079D01*
X8377325Y-22283984D02*
X8377325Y-22322079D01*
X8672563Y-22560174D02*
X8663039Y-22550650D01*
X8663039Y-22550650D02*
X8643991Y-22522079D01*
X8643991Y-22522079D02*
X8634468Y-22503031D01*
X8634468Y-22503031D02*
X8624944Y-22474460D01*
X8624944Y-22474460D02*
X8615420Y-22426841D01*
X8615420Y-22426841D02*
X8615420Y-22388746D01*
X8615420Y-22388746D02*
X8624944Y-22341127D01*
X8624944Y-22341127D02*
X8634468Y-22312555D01*
X8634468Y-22312555D02*
X8643991Y-22293508D01*
X8643991Y-22293508D02*
X8663039Y-22264936D01*
X8663039Y-22264936D02*
X8672563Y-22255412D01*
X8853515Y-22483984D02*
X8739230Y-22483984D01*
X8796372Y-22483984D02*
X8796372Y-22283984D01*
X8796372Y-22283984D02*
X8777325Y-22312555D01*
X8777325Y-22312555D02*
X8758277Y-22331603D01*
X8758277Y-22331603D02*
X8739230Y-22341127D01*
X8920182Y-22283984D02*
X9053515Y-22283984D01*
X9053515Y-22283984D02*
X8967801Y-22483984D01*
X9224944Y-22283984D02*
X9129706Y-22283984D01*
X9129706Y-22283984D02*
X9120182Y-22379222D01*
X9120182Y-22379222D02*
X9129706Y-22369698D01*
X9129706Y-22369698D02*
X9148753Y-22360174D01*
X9148753Y-22360174D02*
X9196372Y-22360174D01*
X9196372Y-22360174D02*
X9215420Y-22369698D01*
X9215420Y-22369698D02*
X9224944Y-22379222D01*
X9224944Y-22379222D02*
X9234468Y-22398269D01*
X9234468Y-22398269D02*
X9234468Y-22445888D01*
X9234468Y-22445888D02*
X9224944Y-22464936D01*
X9224944Y-22464936D02*
X9215420Y-22474460D01*
X9215420Y-22474460D02*
X9196372Y-22483984D01*
X9196372Y-22483984D02*
X9148753Y-22483984D01*
X9148753Y-22483984D02*
X9129706Y-22474460D01*
X9129706Y-22474460D02*
X9120182Y-22464936D01*
X9472563Y-22483984D02*
X9472563Y-22283984D01*
X9558277Y-22483984D02*
X9558277Y-22379222D01*
X9558277Y-22379222D02*
X9548753Y-22360174D01*
X9548753Y-22360174D02*
X9529706Y-22350650D01*
X9529706Y-22350650D02*
X9501134Y-22350650D01*
X9501134Y-22350650D02*
X9482087Y-22360174D01*
X9482087Y-22360174D02*
X9472563Y-22369698D01*
X9682087Y-22483984D02*
X9663039Y-22474460D01*
X9663039Y-22474460D02*
X9653515Y-22464936D01*
X9653515Y-22464936D02*
X9643992Y-22445888D01*
X9643992Y-22445888D02*
X9643992Y-22388746D01*
X9643992Y-22388746D02*
X9653515Y-22369698D01*
X9653515Y-22369698D02*
X9663039Y-22360174D01*
X9663039Y-22360174D02*
X9682087Y-22350650D01*
X9682087Y-22350650D02*
X9710658Y-22350650D01*
X9710658Y-22350650D02*
X9729706Y-22360174D01*
X9729706Y-22360174D02*
X9739230Y-22369698D01*
X9739230Y-22369698D02*
X9748753Y-22388746D01*
X9748753Y-22388746D02*
X9748753Y-22445888D01*
X9748753Y-22445888D02*
X9739230Y-22464936D01*
X9739230Y-22464936D02*
X9729706Y-22474460D01*
X9729706Y-22474460D02*
X9710658Y-22483984D01*
X9710658Y-22483984D02*
X9682087Y-22483984D01*
X9863039Y-22483984D02*
X9843992Y-22474460D01*
X9843992Y-22474460D02*
X9834468Y-22455412D01*
X9834468Y-22455412D02*
X9834468Y-22283984D01*
X10015420Y-22474460D02*
X9996373Y-22483984D01*
X9996373Y-22483984D02*
X9958277Y-22483984D01*
X9958277Y-22483984D02*
X9939230Y-22474460D01*
X9939230Y-22474460D02*
X9929706Y-22455412D01*
X9929706Y-22455412D02*
X9929706Y-22379222D01*
X9929706Y-22379222D02*
X9939230Y-22360174D01*
X9939230Y-22360174D02*
X9958277Y-22350650D01*
X9958277Y-22350650D02*
X9996373Y-22350650D01*
X9996373Y-22350650D02*
X10015420Y-22360174D01*
X10015420Y-22360174D02*
X10024944Y-22379222D01*
X10024944Y-22379222D02*
X10024944Y-22398269D01*
X10024944Y-22398269D02*
X9929706Y-22417317D01*
X10101134Y-22474460D02*
X10120182Y-22483984D01*
X10120182Y-22483984D02*
X10158277Y-22483984D01*
X10158277Y-22483984D02*
X10177325Y-22474460D01*
X10177325Y-22474460D02*
X10186849Y-22455412D01*
X10186849Y-22455412D02*
X10186849Y-22445888D01*
X10186849Y-22445888D02*
X10177325Y-22426841D01*
X10177325Y-22426841D02*
X10158277Y-22417317D01*
X10158277Y-22417317D02*
X10129706Y-22417317D01*
X10129706Y-22417317D02*
X10110658Y-22407793D01*
X10110658Y-22407793D02*
X10101134Y-22388746D01*
X10101134Y-22388746D02*
X10101134Y-22379222D01*
X10101134Y-22379222D02*
X10110658Y-22360174D01*
X10110658Y-22360174D02*
X10129706Y-22350650D01*
X10129706Y-22350650D02*
X10158277Y-22350650D01*
X10158277Y-22350650D02*
X10177325Y-22360174D01*
X10253515Y-22560174D02*
X10263039Y-22550650D01*
X10263039Y-22550650D02*
X10282087Y-22522079D01*
X10282087Y-22522079D02*
X10291611Y-22503031D01*
X10291611Y-22503031D02*
X10301134Y-22474460D01*
X10301134Y-22474460D02*
X10310658Y-22426841D01*
X10310658Y-22426841D02*
X10310658Y-22388746D01*
X10310658Y-22388746D02*
X10301134Y-22341127D01*
X10301134Y-22341127D02*
X10291611Y-22312555D01*
X10291611Y-22312555D02*
X10282087Y-22293508D01*
X10282087Y-22293508D02*
X10263039Y-22264936D01*
X10263039Y-22264936D02*
X10253515Y-22255412D01*
D12*
X5097500Y-22656500D02*
G75*
G02*
X4997500Y-22656500I-50000J0D01*
G01*
X4997500Y-22656500D02*
G75*
G02*
X5097500Y-22656500I50000J0D01*
G01*
D11*
X5463039Y-22747984D02*
X5348753Y-22747984D01*
X5405896Y-22747984D02*
X5405896Y-22547984D01*
X5405896Y-22547984D02*
X5386848Y-22576555D01*
X5386848Y-22576555D02*
X5367801Y-22595603D01*
X5367801Y-22595603D02*
X5348753Y-22605127D01*
X5548753Y-22728936D02*
X5558277Y-22738460D01*
X5558277Y-22738460D02*
X5548753Y-22747984D01*
X5548753Y-22747984D02*
X5539229Y-22738460D01*
X5539229Y-22738460D02*
X5548753Y-22728936D01*
X5548753Y-22728936D02*
X5548753Y-22747984D01*
X5682086Y-22547984D02*
X5701134Y-22547984D01*
X5701134Y-22547984D02*
X5720182Y-22557508D01*
X5720182Y-22557508D02*
X5729705Y-22567031D01*
X5729705Y-22567031D02*
X5739229Y-22586079D01*
X5739229Y-22586079D02*
X5748753Y-22624174D01*
X5748753Y-22624174D02*
X5748753Y-22671793D01*
X5748753Y-22671793D02*
X5739229Y-22709888D01*
X5739229Y-22709888D02*
X5729705Y-22728936D01*
X5729705Y-22728936D02*
X5720182Y-22738460D01*
X5720182Y-22738460D02*
X5701134Y-22747984D01*
X5701134Y-22747984D02*
X5682086Y-22747984D01*
X5682086Y-22747984D02*
X5663039Y-22738460D01*
X5663039Y-22738460D02*
X5653515Y-22728936D01*
X5653515Y-22728936D02*
X5643991Y-22709888D01*
X5643991Y-22709888D02*
X5634467Y-22671793D01*
X5634467Y-22671793D02*
X5634467Y-22624174D01*
X5634467Y-22624174D02*
X5643991Y-22586079D01*
X5643991Y-22586079D02*
X5653515Y-22567031D01*
X5653515Y-22567031D02*
X5663039Y-22557508D01*
X5663039Y-22557508D02*
X5682086Y-22547984D01*
X5872562Y-22547984D02*
X5891610Y-22547984D01*
X5891610Y-22547984D02*
X5910658Y-22557508D01*
X5910658Y-22557508D02*
X5920182Y-22567031D01*
X5920182Y-22567031D02*
X5929705Y-22586079D01*
X5929705Y-22586079D02*
X5939229Y-22624174D01*
X5939229Y-22624174D02*
X5939229Y-22671793D01*
X5939229Y-22671793D02*
X5929705Y-22709888D01*
X5929705Y-22709888D02*
X5920182Y-22728936D01*
X5920182Y-22728936D02*
X5910658Y-22738460D01*
X5910658Y-22738460D02*
X5891610Y-22747984D01*
X5891610Y-22747984D02*
X5872562Y-22747984D01*
X5872562Y-22747984D02*
X5853515Y-22738460D01*
X5853515Y-22738460D02*
X5843991Y-22728936D01*
X5843991Y-22728936D02*
X5834467Y-22709888D01*
X5834467Y-22709888D02*
X5824943Y-22671793D01*
X5824943Y-22671793D02*
X5824943Y-22624174D01*
X5824943Y-22624174D02*
X5834467Y-22586079D01*
X5834467Y-22586079D02*
X5843991Y-22567031D01*
X5843991Y-22567031D02*
X5853515Y-22557508D01*
X5853515Y-22557508D02*
X5872562Y-22547984D01*
X6063039Y-22547984D02*
X6082086Y-22547984D01*
X6082086Y-22547984D02*
X6101134Y-22557508D01*
X6101134Y-22557508D02*
X6110658Y-22567031D01*
X6110658Y-22567031D02*
X6120182Y-22586079D01*
X6120182Y-22586079D02*
X6129705Y-22624174D01*
X6129705Y-22624174D02*
X6129705Y-22671793D01*
X6129705Y-22671793D02*
X6120182Y-22709888D01*
X6120182Y-22709888D02*
X6110658Y-22728936D01*
X6110658Y-22728936D02*
X6101134Y-22738460D01*
X6101134Y-22738460D02*
X6082086Y-22747984D01*
X6082086Y-22747984D02*
X6063039Y-22747984D01*
X6063039Y-22747984D02*
X6043991Y-22738460D01*
X6043991Y-22738460D02*
X6034467Y-22728936D01*
X6034467Y-22728936D02*
X6024943Y-22709888D01*
X6024943Y-22709888D02*
X6015420Y-22671793D01*
X6015420Y-22671793D02*
X6015420Y-22624174D01*
X6015420Y-22624174D02*
X6024943Y-22586079D01*
X6024943Y-22586079D02*
X6034467Y-22567031D01*
X6034467Y-22567031D02*
X6043991Y-22557508D01*
X6043991Y-22557508D02*
X6063039Y-22547984D01*
X6215420Y-22747984D02*
X6215420Y-22614650D01*
X6215420Y-22633698D02*
X6224943Y-22624174D01*
X6224943Y-22624174D02*
X6243991Y-22614650D01*
X6243991Y-22614650D02*
X6272563Y-22614650D01*
X6272563Y-22614650D02*
X6291610Y-22624174D01*
X6291610Y-22624174D02*
X6301134Y-22643222D01*
X6301134Y-22643222D02*
X6301134Y-22747984D01*
X6301134Y-22643222D02*
X6310658Y-22624174D01*
X6310658Y-22624174D02*
X6329705Y-22614650D01*
X6329705Y-22614650D02*
X6358277Y-22614650D01*
X6358277Y-22614650D02*
X6377324Y-22624174D01*
X6377324Y-22624174D02*
X6386848Y-22643222D01*
X6386848Y-22643222D02*
X6386848Y-22747984D01*
X6482086Y-22747984D02*
X6482086Y-22614650D01*
X6482086Y-22633698D02*
X6491610Y-22624174D01*
X6491610Y-22624174D02*
X6510658Y-22614650D01*
X6510658Y-22614650D02*
X6539229Y-22614650D01*
X6539229Y-22614650D02*
X6558277Y-22624174D01*
X6558277Y-22624174D02*
X6567801Y-22643222D01*
X6567801Y-22643222D02*
X6567801Y-22747984D01*
X6567801Y-22643222D02*
X6577324Y-22624174D01*
X6577324Y-22624174D02*
X6596372Y-22614650D01*
X6596372Y-22614650D02*
X6624943Y-22614650D01*
X6624943Y-22614650D02*
X6643991Y-22624174D01*
X6643991Y-22624174D02*
X6653515Y-22643222D01*
X6653515Y-22643222D02*
X6653515Y-22747984D01*
X7043991Y-22538460D02*
X6872563Y-22795603D01*
X7301134Y-22547984D02*
X7320182Y-22547984D01*
X7320182Y-22547984D02*
X7339229Y-22557508D01*
X7339229Y-22557508D02*
X7348753Y-22567031D01*
X7348753Y-22567031D02*
X7358277Y-22586079D01*
X7358277Y-22586079D02*
X7367801Y-22624174D01*
X7367801Y-22624174D02*
X7367801Y-22671793D01*
X7367801Y-22671793D02*
X7358277Y-22709888D01*
X7358277Y-22709888D02*
X7348753Y-22728936D01*
X7348753Y-22728936D02*
X7339229Y-22738460D01*
X7339229Y-22738460D02*
X7320182Y-22747984D01*
X7320182Y-22747984D02*
X7301134Y-22747984D01*
X7301134Y-22747984D02*
X7282086Y-22738460D01*
X7282086Y-22738460D02*
X7272563Y-22728936D01*
X7272563Y-22728936D02*
X7263039Y-22709888D01*
X7263039Y-22709888D02*
X7253515Y-22671793D01*
X7253515Y-22671793D02*
X7253515Y-22624174D01*
X7253515Y-22624174D02*
X7263039Y-22586079D01*
X7263039Y-22586079D02*
X7272563Y-22567031D01*
X7272563Y-22567031D02*
X7282086Y-22557508D01*
X7282086Y-22557508D02*
X7301134Y-22547984D01*
X7453515Y-22728936D02*
X7463039Y-22738460D01*
X7463039Y-22738460D02*
X7453515Y-22747984D01*
X7453515Y-22747984D02*
X7443991Y-22738460D01*
X7443991Y-22738460D02*
X7453515Y-22728936D01*
X7453515Y-22728936D02*
X7453515Y-22747984D01*
X7586848Y-22547984D02*
X7605896Y-22547984D01*
X7605896Y-22547984D02*
X7624944Y-22557508D01*
X7624944Y-22557508D02*
X7634467Y-22567031D01*
X7634467Y-22567031D02*
X7643991Y-22586079D01*
X7643991Y-22586079D02*
X7653515Y-22624174D01*
X7653515Y-22624174D02*
X7653515Y-22671793D01*
X7653515Y-22671793D02*
X7643991Y-22709888D01*
X7643991Y-22709888D02*
X7634467Y-22728936D01*
X7634467Y-22728936D02*
X7624944Y-22738460D01*
X7624944Y-22738460D02*
X7605896Y-22747984D01*
X7605896Y-22747984D02*
X7586848Y-22747984D01*
X7586848Y-22747984D02*
X7567801Y-22738460D01*
X7567801Y-22738460D02*
X7558277Y-22728936D01*
X7558277Y-22728936D02*
X7548753Y-22709888D01*
X7548753Y-22709888D02*
X7539229Y-22671793D01*
X7539229Y-22671793D02*
X7539229Y-22624174D01*
X7539229Y-22624174D02*
X7548753Y-22586079D01*
X7548753Y-22586079D02*
X7558277Y-22567031D01*
X7558277Y-22567031D02*
X7567801Y-22557508D01*
X7567801Y-22557508D02*
X7586848Y-22547984D01*
X7720182Y-22547984D02*
X7843991Y-22547984D01*
X7843991Y-22547984D02*
X7777325Y-22624174D01*
X7777325Y-22624174D02*
X7805896Y-22624174D01*
X7805896Y-22624174D02*
X7824944Y-22633698D01*
X7824944Y-22633698D02*
X7834467Y-22643222D01*
X7834467Y-22643222D02*
X7843991Y-22662269D01*
X7843991Y-22662269D02*
X7843991Y-22709888D01*
X7843991Y-22709888D02*
X7834467Y-22728936D01*
X7834467Y-22728936D02*
X7824944Y-22738460D01*
X7824944Y-22738460D02*
X7805896Y-22747984D01*
X7805896Y-22747984D02*
X7748753Y-22747984D01*
X7748753Y-22747984D02*
X7729706Y-22738460D01*
X7729706Y-22738460D02*
X7720182Y-22728936D01*
X7939229Y-22747984D02*
X7977325Y-22747984D01*
X7977325Y-22747984D02*
X7996372Y-22738460D01*
X7996372Y-22738460D02*
X8005896Y-22728936D01*
X8005896Y-22728936D02*
X8024944Y-22700365D01*
X8024944Y-22700365D02*
X8034467Y-22662269D01*
X8034467Y-22662269D02*
X8034467Y-22586079D01*
X8034467Y-22586079D02*
X8024944Y-22567031D01*
X8024944Y-22567031D02*
X8015420Y-22557508D01*
X8015420Y-22557508D02*
X7996372Y-22547984D01*
X7996372Y-22547984D02*
X7958277Y-22547984D01*
X7958277Y-22547984D02*
X7939229Y-22557508D01*
X7939229Y-22557508D02*
X7929706Y-22567031D01*
X7929706Y-22567031D02*
X7920182Y-22586079D01*
X7920182Y-22586079D02*
X7920182Y-22633698D01*
X7920182Y-22633698D02*
X7929706Y-22652746D01*
X7929706Y-22652746D02*
X7939229Y-22662269D01*
X7939229Y-22662269D02*
X7958277Y-22671793D01*
X7958277Y-22671793D02*
X7996372Y-22671793D01*
X7996372Y-22671793D02*
X8015420Y-22662269D01*
X8015420Y-22662269D02*
X8024944Y-22652746D01*
X8024944Y-22652746D02*
X8034467Y-22633698D01*
X8205896Y-22614650D02*
X8205896Y-22747984D01*
X8158277Y-22538460D02*
X8110658Y-22681317D01*
X8110658Y-22681317D02*
X8234467Y-22681317D01*
X8301134Y-22547984D02*
X8301134Y-22586079D01*
X8377325Y-22547984D02*
X8377325Y-22586079D01*
X8672563Y-22824174D02*
X8663039Y-22814650D01*
X8663039Y-22814650D02*
X8643991Y-22786079D01*
X8643991Y-22786079D02*
X8634468Y-22767031D01*
X8634468Y-22767031D02*
X8624944Y-22738460D01*
X8624944Y-22738460D02*
X8615420Y-22690841D01*
X8615420Y-22690841D02*
X8615420Y-22652746D01*
X8615420Y-22652746D02*
X8624944Y-22605127D01*
X8624944Y-22605127D02*
X8634468Y-22576555D01*
X8634468Y-22576555D02*
X8643991Y-22557508D01*
X8643991Y-22557508D02*
X8663039Y-22528936D01*
X8663039Y-22528936D02*
X8672563Y-22519412D01*
X8729706Y-22547984D02*
X8853515Y-22547984D01*
X8853515Y-22547984D02*
X8786849Y-22624174D01*
X8786849Y-22624174D02*
X8815420Y-22624174D01*
X8815420Y-22624174D02*
X8834468Y-22633698D01*
X8834468Y-22633698D02*
X8843991Y-22643222D01*
X8843991Y-22643222D02*
X8853515Y-22662269D01*
X8853515Y-22662269D02*
X8853515Y-22709888D01*
X8853515Y-22709888D02*
X8843991Y-22728936D01*
X8843991Y-22728936D02*
X8834468Y-22738460D01*
X8834468Y-22738460D02*
X8815420Y-22747984D01*
X8815420Y-22747984D02*
X8758277Y-22747984D01*
X8758277Y-22747984D02*
X8739230Y-22738460D01*
X8739230Y-22738460D02*
X8729706Y-22728936D01*
X8967801Y-22633698D02*
X8948753Y-22624174D01*
X8948753Y-22624174D02*
X8939230Y-22614650D01*
X8939230Y-22614650D02*
X8929706Y-22595603D01*
X8929706Y-22595603D02*
X8929706Y-22586079D01*
X8929706Y-22586079D02*
X8939230Y-22567031D01*
X8939230Y-22567031D02*
X8948753Y-22557508D01*
X8948753Y-22557508D02*
X8967801Y-22547984D01*
X8967801Y-22547984D02*
X9005896Y-22547984D01*
X9005896Y-22547984D02*
X9024944Y-22557508D01*
X9024944Y-22557508D02*
X9034468Y-22567031D01*
X9034468Y-22567031D02*
X9043991Y-22586079D01*
X9043991Y-22586079D02*
X9043991Y-22595603D01*
X9043991Y-22595603D02*
X9034468Y-22614650D01*
X9034468Y-22614650D02*
X9024944Y-22624174D01*
X9024944Y-22624174D02*
X9005896Y-22633698D01*
X9005896Y-22633698D02*
X8967801Y-22633698D01*
X8967801Y-22633698D02*
X8948753Y-22643222D01*
X8948753Y-22643222D02*
X8939230Y-22652746D01*
X8939230Y-22652746D02*
X8929706Y-22671793D01*
X8929706Y-22671793D02*
X8929706Y-22709888D01*
X8929706Y-22709888D02*
X8939230Y-22728936D01*
X8939230Y-22728936D02*
X8948753Y-22738460D01*
X8948753Y-22738460D02*
X8967801Y-22747984D01*
X8967801Y-22747984D02*
X9005896Y-22747984D01*
X9005896Y-22747984D02*
X9024944Y-22738460D01*
X9024944Y-22738460D02*
X9034468Y-22728936D01*
X9034468Y-22728936D02*
X9043991Y-22709888D01*
X9043991Y-22709888D02*
X9043991Y-22671793D01*
X9043991Y-22671793D02*
X9034468Y-22652746D01*
X9034468Y-22652746D02*
X9024944Y-22643222D01*
X9024944Y-22643222D02*
X9005896Y-22633698D01*
X9282087Y-22747984D02*
X9282087Y-22547984D01*
X9367801Y-22747984D02*
X9367801Y-22643222D01*
X9367801Y-22643222D02*
X9358277Y-22624174D01*
X9358277Y-22624174D02*
X9339230Y-22614650D01*
X9339230Y-22614650D02*
X9310658Y-22614650D01*
X9310658Y-22614650D02*
X9291611Y-22624174D01*
X9291611Y-22624174D02*
X9282087Y-22633698D01*
X9491611Y-22747984D02*
X9472563Y-22738460D01*
X9472563Y-22738460D02*
X9463039Y-22728936D01*
X9463039Y-22728936D02*
X9453515Y-22709888D01*
X9453515Y-22709888D02*
X9453515Y-22652746D01*
X9453515Y-22652746D02*
X9463039Y-22633698D01*
X9463039Y-22633698D02*
X9472563Y-22624174D01*
X9472563Y-22624174D02*
X9491611Y-22614650D01*
X9491611Y-22614650D02*
X9520182Y-22614650D01*
X9520182Y-22614650D02*
X9539230Y-22624174D01*
X9539230Y-22624174D02*
X9548753Y-22633698D01*
X9548753Y-22633698D02*
X9558277Y-22652746D01*
X9558277Y-22652746D02*
X9558277Y-22709888D01*
X9558277Y-22709888D02*
X9548753Y-22728936D01*
X9548753Y-22728936D02*
X9539230Y-22738460D01*
X9539230Y-22738460D02*
X9520182Y-22747984D01*
X9520182Y-22747984D02*
X9491611Y-22747984D01*
X9672563Y-22747984D02*
X9653515Y-22738460D01*
X9653515Y-22738460D02*
X9643992Y-22719412D01*
X9643992Y-22719412D02*
X9643992Y-22547984D01*
X9824944Y-22738460D02*
X9805896Y-22747984D01*
X9805896Y-22747984D02*
X9767801Y-22747984D01*
X9767801Y-22747984D02*
X9748753Y-22738460D01*
X9748753Y-22738460D02*
X9739230Y-22719412D01*
X9739230Y-22719412D02*
X9739230Y-22643222D01*
X9739230Y-22643222D02*
X9748753Y-22624174D01*
X9748753Y-22624174D02*
X9767801Y-22614650D01*
X9767801Y-22614650D02*
X9805896Y-22614650D01*
X9805896Y-22614650D02*
X9824944Y-22624174D01*
X9824944Y-22624174D02*
X9834468Y-22643222D01*
X9834468Y-22643222D02*
X9834468Y-22662269D01*
X9834468Y-22662269D02*
X9739230Y-22681317D01*
X9910658Y-22738460D02*
X9929706Y-22747984D01*
X9929706Y-22747984D02*
X9967801Y-22747984D01*
X9967801Y-22747984D02*
X9986849Y-22738460D01*
X9986849Y-22738460D02*
X9996373Y-22719412D01*
X9996373Y-22719412D02*
X9996373Y-22709888D01*
X9996373Y-22709888D02*
X9986849Y-22690841D01*
X9986849Y-22690841D02*
X9967801Y-22681317D01*
X9967801Y-22681317D02*
X9939230Y-22681317D01*
X9939230Y-22681317D02*
X9920182Y-22671793D01*
X9920182Y-22671793D02*
X9910658Y-22652746D01*
X9910658Y-22652746D02*
X9910658Y-22643222D01*
X9910658Y-22643222D02*
X9920182Y-22624174D01*
X9920182Y-22624174D02*
X9939230Y-22614650D01*
X9939230Y-22614650D02*
X9967801Y-22614650D01*
X9967801Y-22614650D02*
X9986849Y-22624174D01*
X10234468Y-22671793D02*
X10386849Y-22671793D01*
X10310658Y-22747984D02*
X10310658Y-22595603D01*
X10615420Y-22547984D02*
X10739230Y-22547984D01*
X10739230Y-22547984D02*
X10672563Y-22624174D01*
X10672563Y-22624174D02*
X10701135Y-22624174D01*
X10701135Y-22624174D02*
X10720182Y-22633698D01*
X10720182Y-22633698D02*
X10729706Y-22643222D01*
X10729706Y-22643222D02*
X10739230Y-22662269D01*
X10739230Y-22662269D02*
X10739230Y-22709888D01*
X10739230Y-22709888D02*
X10729706Y-22728936D01*
X10729706Y-22728936D02*
X10720182Y-22738460D01*
X10720182Y-22738460D02*
X10701135Y-22747984D01*
X10701135Y-22747984D02*
X10643992Y-22747984D01*
X10643992Y-22747984D02*
X10624944Y-22738460D01*
X10624944Y-22738460D02*
X10615420Y-22728936D01*
X10863039Y-22547984D02*
X10882087Y-22547984D01*
X10882087Y-22547984D02*
X10901135Y-22557508D01*
X10901135Y-22557508D02*
X10910658Y-22567031D01*
X10910658Y-22567031D02*
X10920182Y-22586079D01*
X10920182Y-22586079D02*
X10929706Y-22624174D01*
X10929706Y-22624174D02*
X10929706Y-22671793D01*
X10929706Y-22671793D02*
X10920182Y-22709888D01*
X10920182Y-22709888D02*
X10910658Y-22728936D01*
X10910658Y-22728936D02*
X10901135Y-22738460D01*
X10901135Y-22738460D02*
X10882087Y-22747984D01*
X10882087Y-22747984D02*
X10863039Y-22747984D01*
X10863039Y-22747984D02*
X10843992Y-22738460D01*
X10843992Y-22738460D02*
X10834468Y-22728936D01*
X10834468Y-22728936D02*
X10824944Y-22709888D01*
X10824944Y-22709888D02*
X10815420Y-22671793D01*
X10815420Y-22671793D02*
X10815420Y-22624174D01*
X10815420Y-22624174D02*
X10824944Y-22586079D01*
X10824944Y-22586079D02*
X10834468Y-22567031D01*
X10834468Y-22567031D02*
X10843992Y-22557508D01*
X10843992Y-22557508D02*
X10863039Y-22547984D01*
X11158277Y-22738460D02*
X11177325Y-22747984D01*
X11177325Y-22747984D02*
X11215420Y-22747984D01*
X11215420Y-22747984D02*
X11234468Y-22738460D01*
X11234468Y-22738460D02*
X11243992Y-22719412D01*
X11243992Y-22719412D02*
X11243992Y-22709888D01*
X11243992Y-22709888D02*
X11234468Y-22690841D01*
X11234468Y-22690841D02*
X11215420Y-22681317D01*
X11215420Y-22681317D02*
X11186849Y-22681317D01*
X11186849Y-22681317D02*
X11167801Y-22671793D01*
X11167801Y-22671793D02*
X11158277Y-22652746D01*
X11158277Y-22652746D02*
X11158277Y-22643222D01*
X11158277Y-22643222D02*
X11167801Y-22624174D01*
X11167801Y-22624174D02*
X11186849Y-22614650D01*
X11186849Y-22614650D02*
X11215420Y-22614650D01*
X11215420Y-22614650D02*
X11234468Y-22624174D01*
X11358277Y-22747984D02*
X11339230Y-22738460D01*
X11339230Y-22738460D02*
X11329706Y-22719412D01*
X11329706Y-22719412D02*
X11329706Y-22547984D01*
X11463039Y-22747984D02*
X11443992Y-22738460D01*
X11443992Y-22738460D02*
X11434468Y-22728936D01*
X11434468Y-22728936D02*
X11424944Y-22709888D01*
X11424944Y-22709888D02*
X11424944Y-22652746D01*
X11424944Y-22652746D02*
X11434468Y-22633698D01*
X11434468Y-22633698D02*
X11443992Y-22624174D01*
X11443992Y-22624174D02*
X11463039Y-22614650D01*
X11463039Y-22614650D02*
X11491611Y-22614650D01*
X11491611Y-22614650D02*
X11510658Y-22624174D01*
X11510658Y-22624174D02*
X11520182Y-22633698D01*
X11520182Y-22633698D02*
X11529706Y-22652746D01*
X11529706Y-22652746D02*
X11529706Y-22709888D01*
X11529706Y-22709888D02*
X11520182Y-22728936D01*
X11520182Y-22728936D02*
X11510658Y-22738460D01*
X11510658Y-22738460D02*
X11491611Y-22747984D01*
X11491611Y-22747984D02*
X11463039Y-22747984D01*
X11586849Y-22614650D02*
X11663039Y-22614650D01*
X11615420Y-22547984D02*
X11615420Y-22719412D01*
X11615420Y-22719412D02*
X11624944Y-22738460D01*
X11624944Y-22738460D02*
X11643992Y-22747984D01*
X11643992Y-22747984D02*
X11663039Y-22747984D01*
X11720182Y-22738460D02*
X11739230Y-22747984D01*
X11739230Y-22747984D02*
X11777325Y-22747984D01*
X11777325Y-22747984D02*
X11796373Y-22738460D01*
X11796373Y-22738460D02*
X11805896Y-22719412D01*
X11805896Y-22719412D02*
X11805896Y-22709888D01*
X11805896Y-22709888D02*
X11796373Y-22690841D01*
X11796373Y-22690841D02*
X11777325Y-22681317D01*
X11777325Y-22681317D02*
X11748754Y-22681317D01*
X11748754Y-22681317D02*
X11729706Y-22671793D01*
X11729706Y-22671793D02*
X11720182Y-22652746D01*
X11720182Y-22652746D02*
X11720182Y-22643222D01*
X11720182Y-22643222D02*
X11729706Y-22624174D01*
X11729706Y-22624174D02*
X11748754Y-22614650D01*
X11748754Y-22614650D02*
X11777325Y-22614650D01*
X11777325Y-22614650D02*
X11796373Y-22624174D01*
X11872563Y-22824174D02*
X11882087Y-22814650D01*
X11882087Y-22814650D02*
X11901135Y-22786079D01*
X11901135Y-22786079D02*
X11910658Y-22767031D01*
X11910658Y-22767031D02*
X11920182Y-22738460D01*
X11920182Y-22738460D02*
X11929706Y-22690841D01*
X11929706Y-22690841D02*
X11929706Y-22652746D01*
X11929706Y-22652746D02*
X11920182Y-22605127D01*
X11920182Y-22605127D02*
X11910658Y-22576555D01*
X11910658Y-22576555D02*
X11901135Y-22557508D01*
X11901135Y-22557508D02*
X11882087Y-22528936D01*
X11882087Y-22528936D02*
X11872563Y-22519412D01*
D13*
X5042500Y-22865500D02*
X5042500Y-22975500D01*
X4987500Y-22920500D02*
X5097500Y-22920500D01*
D11*
X5463039Y-23011984D02*
X5348753Y-23011984D01*
X5405896Y-23011984D02*
X5405896Y-22811984D01*
X5405896Y-22811984D02*
X5386848Y-22840555D01*
X5386848Y-22840555D02*
X5367801Y-22859603D01*
X5367801Y-22859603D02*
X5348753Y-22869127D01*
X5548753Y-22992936D02*
X5558277Y-23002460D01*
X5558277Y-23002460D02*
X5548753Y-23011984D01*
X5548753Y-23011984D02*
X5539229Y-23002460D01*
X5539229Y-23002460D02*
X5548753Y-22992936D01*
X5548753Y-22992936D02*
X5548753Y-23011984D01*
X5748753Y-23011984D02*
X5634467Y-23011984D01*
X5691610Y-23011984D02*
X5691610Y-22811984D01*
X5691610Y-22811984D02*
X5672562Y-22840555D01*
X5672562Y-22840555D02*
X5653515Y-22859603D01*
X5653515Y-22859603D02*
X5634467Y-22869127D01*
X5872562Y-22811984D02*
X5891610Y-22811984D01*
X5891610Y-22811984D02*
X5910658Y-22821508D01*
X5910658Y-22821508D02*
X5920182Y-22831031D01*
X5920182Y-22831031D02*
X5929705Y-22850079D01*
X5929705Y-22850079D02*
X5939229Y-22888174D01*
X5939229Y-22888174D02*
X5939229Y-22935793D01*
X5939229Y-22935793D02*
X5929705Y-22973888D01*
X5929705Y-22973888D02*
X5920182Y-22992936D01*
X5920182Y-22992936D02*
X5910658Y-23002460D01*
X5910658Y-23002460D02*
X5891610Y-23011984D01*
X5891610Y-23011984D02*
X5872562Y-23011984D01*
X5872562Y-23011984D02*
X5853515Y-23002460D01*
X5853515Y-23002460D02*
X5843991Y-22992936D01*
X5843991Y-22992936D02*
X5834467Y-22973888D01*
X5834467Y-22973888D02*
X5824943Y-22935793D01*
X5824943Y-22935793D02*
X5824943Y-22888174D01*
X5824943Y-22888174D02*
X5834467Y-22850079D01*
X5834467Y-22850079D02*
X5843991Y-22831031D01*
X5843991Y-22831031D02*
X5853515Y-22821508D01*
X5853515Y-22821508D02*
X5872562Y-22811984D01*
X6063039Y-22811984D02*
X6082086Y-22811984D01*
X6082086Y-22811984D02*
X6101134Y-22821508D01*
X6101134Y-22821508D02*
X6110658Y-22831031D01*
X6110658Y-22831031D02*
X6120182Y-22850079D01*
X6120182Y-22850079D02*
X6129705Y-22888174D01*
X6129705Y-22888174D02*
X6129705Y-22935793D01*
X6129705Y-22935793D02*
X6120182Y-22973888D01*
X6120182Y-22973888D02*
X6110658Y-22992936D01*
X6110658Y-22992936D02*
X6101134Y-23002460D01*
X6101134Y-23002460D02*
X6082086Y-23011984D01*
X6082086Y-23011984D02*
X6063039Y-23011984D01*
X6063039Y-23011984D02*
X6043991Y-23002460D01*
X6043991Y-23002460D02*
X6034467Y-22992936D01*
X6034467Y-22992936D02*
X6024943Y-22973888D01*
X6024943Y-22973888D02*
X6015420Y-22935793D01*
X6015420Y-22935793D02*
X6015420Y-22888174D01*
X6015420Y-22888174D02*
X6024943Y-22850079D01*
X6024943Y-22850079D02*
X6034467Y-22831031D01*
X6034467Y-22831031D02*
X6043991Y-22821508D01*
X6043991Y-22821508D02*
X6063039Y-22811984D01*
X6215420Y-23011984D02*
X6215420Y-22878650D01*
X6215420Y-22897698D02*
X6224943Y-22888174D01*
X6224943Y-22888174D02*
X6243991Y-22878650D01*
X6243991Y-22878650D02*
X6272563Y-22878650D01*
X6272563Y-22878650D02*
X6291610Y-22888174D01*
X6291610Y-22888174D02*
X6301134Y-22907222D01*
X6301134Y-22907222D02*
X6301134Y-23011984D01*
X6301134Y-22907222D02*
X6310658Y-22888174D01*
X6310658Y-22888174D02*
X6329705Y-22878650D01*
X6329705Y-22878650D02*
X6358277Y-22878650D01*
X6358277Y-22878650D02*
X6377324Y-22888174D01*
X6377324Y-22888174D02*
X6386848Y-22907222D01*
X6386848Y-22907222D02*
X6386848Y-23011984D01*
X6482086Y-23011984D02*
X6482086Y-22878650D01*
X6482086Y-22897698D02*
X6491610Y-22888174D01*
X6491610Y-22888174D02*
X6510658Y-22878650D01*
X6510658Y-22878650D02*
X6539229Y-22878650D01*
X6539229Y-22878650D02*
X6558277Y-22888174D01*
X6558277Y-22888174D02*
X6567801Y-22907222D01*
X6567801Y-22907222D02*
X6567801Y-23011984D01*
X6567801Y-22907222D02*
X6577324Y-22888174D01*
X6577324Y-22888174D02*
X6596372Y-22878650D01*
X6596372Y-22878650D02*
X6624943Y-22878650D01*
X6624943Y-22878650D02*
X6643991Y-22888174D01*
X6643991Y-22888174D02*
X6653515Y-22907222D01*
X6653515Y-22907222D02*
X6653515Y-23011984D01*
X7043991Y-22802460D02*
X6872563Y-23059603D01*
X7301134Y-22811984D02*
X7320182Y-22811984D01*
X7320182Y-22811984D02*
X7339229Y-22821508D01*
X7339229Y-22821508D02*
X7348753Y-22831031D01*
X7348753Y-22831031D02*
X7358277Y-22850079D01*
X7358277Y-22850079D02*
X7367801Y-22888174D01*
X7367801Y-22888174D02*
X7367801Y-22935793D01*
X7367801Y-22935793D02*
X7358277Y-22973888D01*
X7358277Y-22973888D02*
X7348753Y-22992936D01*
X7348753Y-22992936D02*
X7339229Y-23002460D01*
X7339229Y-23002460D02*
X7320182Y-23011984D01*
X7320182Y-23011984D02*
X7301134Y-23011984D01*
X7301134Y-23011984D02*
X7282086Y-23002460D01*
X7282086Y-23002460D02*
X7272563Y-22992936D01*
X7272563Y-22992936D02*
X7263039Y-22973888D01*
X7263039Y-22973888D02*
X7253515Y-22935793D01*
X7253515Y-22935793D02*
X7253515Y-22888174D01*
X7253515Y-22888174D02*
X7263039Y-22850079D01*
X7263039Y-22850079D02*
X7272563Y-22831031D01*
X7272563Y-22831031D02*
X7282086Y-22821508D01*
X7282086Y-22821508D02*
X7301134Y-22811984D01*
X7453515Y-22992936D02*
X7463039Y-23002460D01*
X7463039Y-23002460D02*
X7453515Y-23011984D01*
X7453515Y-23011984D02*
X7443991Y-23002460D01*
X7443991Y-23002460D02*
X7453515Y-22992936D01*
X7453515Y-22992936D02*
X7453515Y-23011984D01*
X7586848Y-22811984D02*
X7605896Y-22811984D01*
X7605896Y-22811984D02*
X7624944Y-22821508D01*
X7624944Y-22821508D02*
X7634467Y-22831031D01*
X7634467Y-22831031D02*
X7643991Y-22850079D01*
X7643991Y-22850079D02*
X7653515Y-22888174D01*
X7653515Y-22888174D02*
X7653515Y-22935793D01*
X7653515Y-22935793D02*
X7643991Y-22973888D01*
X7643991Y-22973888D02*
X7634467Y-22992936D01*
X7634467Y-22992936D02*
X7624944Y-23002460D01*
X7624944Y-23002460D02*
X7605896Y-23011984D01*
X7605896Y-23011984D02*
X7586848Y-23011984D01*
X7586848Y-23011984D02*
X7567801Y-23002460D01*
X7567801Y-23002460D02*
X7558277Y-22992936D01*
X7558277Y-22992936D02*
X7548753Y-22973888D01*
X7548753Y-22973888D02*
X7539229Y-22935793D01*
X7539229Y-22935793D02*
X7539229Y-22888174D01*
X7539229Y-22888174D02*
X7548753Y-22850079D01*
X7548753Y-22850079D02*
X7558277Y-22831031D01*
X7558277Y-22831031D02*
X7567801Y-22821508D01*
X7567801Y-22821508D02*
X7586848Y-22811984D01*
X7824944Y-22878650D02*
X7824944Y-23011984D01*
X7777325Y-22802460D02*
X7729706Y-22945317D01*
X7729706Y-22945317D02*
X7853515Y-22945317D01*
X7910658Y-22811984D02*
X8034467Y-22811984D01*
X8034467Y-22811984D02*
X7967801Y-22888174D01*
X7967801Y-22888174D02*
X7996372Y-22888174D01*
X7996372Y-22888174D02*
X8015420Y-22897698D01*
X8015420Y-22897698D02*
X8024944Y-22907222D01*
X8024944Y-22907222D02*
X8034467Y-22926269D01*
X8034467Y-22926269D02*
X8034467Y-22973888D01*
X8034467Y-22973888D02*
X8024944Y-22992936D01*
X8024944Y-22992936D02*
X8015420Y-23002460D01*
X8015420Y-23002460D02*
X7996372Y-23011984D01*
X7996372Y-23011984D02*
X7939229Y-23011984D01*
X7939229Y-23011984D02*
X7920182Y-23002460D01*
X7920182Y-23002460D02*
X7910658Y-22992936D01*
X8101134Y-22811984D02*
X8224944Y-22811984D01*
X8224944Y-22811984D02*
X8158277Y-22888174D01*
X8158277Y-22888174D02*
X8186848Y-22888174D01*
X8186848Y-22888174D02*
X8205896Y-22897698D01*
X8205896Y-22897698D02*
X8215420Y-22907222D01*
X8215420Y-22907222D02*
X8224944Y-22926269D01*
X8224944Y-22926269D02*
X8224944Y-22973888D01*
X8224944Y-22973888D02*
X8215420Y-22992936D01*
X8215420Y-22992936D02*
X8205896Y-23002460D01*
X8205896Y-23002460D02*
X8186848Y-23011984D01*
X8186848Y-23011984D02*
X8129706Y-23011984D01*
X8129706Y-23011984D02*
X8110658Y-23002460D01*
X8110658Y-23002460D02*
X8101134Y-22992936D01*
X8301134Y-22811984D02*
X8301134Y-22850079D01*
X8377325Y-22811984D02*
X8377325Y-22850079D01*
X8672563Y-23088174D02*
X8663039Y-23078650D01*
X8663039Y-23078650D02*
X8643991Y-23050079D01*
X8643991Y-23050079D02*
X8634468Y-23031031D01*
X8634468Y-23031031D02*
X8624944Y-23002460D01*
X8624944Y-23002460D02*
X8615420Y-22954841D01*
X8615420Y-22954841D02*
X8615420Y-22916746D01*
X8615420Y-22916746D02*
X8624944Y-22869127D01*
X8624944Y-22869127D02*
X8634468Y-22840555D01*
X8634468Y-22840555D02*
X8643991Y-22821508D01*
X8643991Y-22821508D02*
X8663039Y-22792936D01*
X8663039Y-22792936D02*
X8672563Y-22783412D01*
X8834468Y-22878650D02*
X8834468Y-23011984D01*
X8786849Y-22802460D02*
X8739230Y-22945317D01*
X8739230Y-22945317D02*
X8863039Y-22945317D01*
X9091611Y-23011984D02*
X9091611Y-22811984D01*
X9177325Y-23011984D02*
X9177325Y-22907222D01*
X9177325Y-22907222D02*
X9167801Y-22888174D01*
X9167801Y-22888174D02*
X9148753Y-22878650D01*
X9148753Y-22878650D02*
X9120182Y-22878650D01*
X9120182Y-22878650D02*
X9101134Y-22888174D01*
X9101134Y-22888174D02*
X9091611Y-22897698D01*
X9301134Y-23011984D02*
X9282087Y-23002460D01*
X9282087Y-23002460D02*
X9272563Y-22992936D01*
X9272563Y-22992936D02*
X9263039Y-22973888D01*
X9263039Y-22973888D02*
X9263039Y-22916746D01*
X9263039Y-22916746D02*
X9272563Y-22897698D01*
X9272563Y-22897698D02*
X9282087Y-22888174D01*
X9282087Y-22888174D02*
X9301134Y-22878650D01*
X9301134Y-22878650D02*
X9329706Y-22878650D01*
X9329706Y-22878650D02*
X9348753Y-22888174D01*
X9348753Y-22888174D02*
X9358277Y-22897698D01*
X9358277Y-22897698D02*
X9367801Y-22916746D01*
X9367801Y-22916746D02*
X9367801Y-22973888D01*
X9367801Y-22973888D02*
X9358277Y-22992936D01*
X9358277Y-22992936D02*
X9348753Y-23002460D01*
X9348753Y-23002460D02*
X9329706Y-23011984D01*
X9329706Y-23011984D02*
X9301134Y-23011984D01*
X9482087Y-23011984D02*
X9463039Y-23002460D01*
X9463039Y-23002460D02*
X9453515Y-22983412D01*
X9453515Y-22983412D02*
X9453515Y-22811984D01*
X9634468Y-23002460D02*
X9615420Y-23011984D01*
X9615420Y-23011984D02*
X9577325Y-23011984D01*
X9577325Y-23011984D02*
X9558277Y-23002460D01*
X9558277Y-23002460D02*
X9548753Y-22983412D01*
X9548753Y-22983412D02*
X9548753Y-22907222D01*
X9548753Y-22907222D02*
X9558277Y-22888174D01*
X9558277Y-22888174D02*
X9577325Y-22878650D01*
X9577325Y-22878650D02*
X9615420Y-22878650D01*
X9615420Y-22878650D02*
X9634468Y-22888174D01*
X9634468Y-22888174D02*
X9643992Y-22907222D01*
X9643992Y-22907222D02*
X9643992Y-22926269D01*
X9643992Y-22926269D02*
X9548753Y-22945317D01*
X9720182Y-23002460D02*
X9739230Y-23011984D01*
X9739230Y-23011984D02*
X9777325Y-23011984D01*
X9777325Y-23011984D02*
X9796373Y-23002460D01*
X9796373Y-23002460D02*
X9805896Y-22983412D01*
X9805896Y-22983412D02*
X9805896Y-22973888D01*
X9805896Y-22973888D02*
X9796373Y-22954841D01*
X9796373Y-22954841D02*
X9777325Y-22945317D01*
X9777325Y-22945317D02*
X9748753Y-22945317D01*
X9748753Y-22945317D02*
X9729706Y-22935793D01*
X9729706Y-22935793D02*
X9720182Y-22916746D01*
X9720182Y-22916746D02*
X9720182Y-22907222D01*
X9720182Y-22907222D02*
X9729706Y-22888174D01*
X9729706Y-22888174D02*
X9748753Y-22878650D01*
X9748753Y-22878650D02*
X9777325Y-22878650D01*
X9777325Y-22878650D02*
X9796373Y-22888174D01*
X9872563Y-23088174D02*
X9882087Y-23078650D01*
X9882087Y-23078650D02*
X9901134Y-23050079D01*
X9901134Y-23050079D02*
X9910658Y-23031031D01*
X9910658Y-23031031D02*
X9920182Y-23002460D01*
X9920182Y-23002460D02*
X9929706Y-22954841D01*
X9929706Y-22954841D02*
X9929706Y-22916746D01*
X9929706Y-22916746D02*
X9920182Y-22869127D01*
X9920182Y-22869127D02*
X9910658Y-22840555D01*
X9910658Y-22840555D02*
X9901134Y-22821508D01*
X9901134Y-22821508D02*
X9882087Y-22792936D01*
X9882087Y-22792936D02*
X9872563Y-22783412D01*
M02*
