M48
; DRILL file {KiCad 9.0.0} date 2025-03-16T11:09:15+0100
; FORMAT={-:-/ absolute / metric / decimal}
; #@! TF.CreationDate,2025-03-16T11:09:15+01:00
; #@! TF.GenerationSoftware,Kicad,Pcbnew,9.0.0
; #@! TF.FileFunction,Plated,1,2,PTH
FMAT,2
METRIC
; #@! TA.AperFunction,Plated,PTH,ComponentDrill
T1C0.800
; #@! TA.AperFunction,Plated,PTH,ComponentDrill
T2C1.000
; #@! TA.AperFunction,Plated,PTH,ComponentDrill
T3C1.100
%
G90
G05
T1
X71.005Y-68.3
X71.005Y-72.35
X71.005Y-76.4
X71.005Y-80.45
X71.005Y-84.5
X71.005Y-88.55
X71.005Y-92.6
X71.005Y-96.65
X71.005Y-100.7
X71.005Y-104.75
X71.005Y-108.8
X71.005Y-112.85
X71.005Y-116.9
X71.005Y-120.95
X71.005Y-125.0
X73.295Y-55.25
X73.505Y-149.75
X73.52Y-133.55
X73.52Y-137.6
X73.52Y-141.65
X73.52Y-145.7
X73.52Y-153.8
X73.52Y-157.85
X73.52Y-161.9
X73.52Y-165.95
X73.52Y-170.0
X73.52Y-174.05
X73.52Y-178.1
X73.52Y-182.15
X73.52Y-186.2
X73.52Y-190.25
X73.545Y-68.3
X73.545Y-72.35
X73.545Y-76.4
X73.545Y-80.45
X73.545Y-84.5
X73.545Y-88.55
X73.545Y-92.6
X73.545Y-96.65
X73.545Y-100.7
X73.545Y-104.75
X73.545Y-108.8
X73.545Y-112.85
X73.545Y-116.9
X73.545Y-120.95
X73.545Y-125.0
X75.295Y-55.25
X76.045Y-149.75
X76.06Y-133.55
X76.06Y-137.6
X76.06Y-141.65
X76.06Y-145.7
X76.06Y-153.8
X76.06Y-157.85
X76.06Y-161.9
X76.06Y-165.95
X76.06Y-170.0
X76.06Y-174.05
X76.06Y-178.1
X76.06Y-182.15
X76.06Y-186.2
X76.06Y-190.25
X79.2Y-92.385
X79.2Y-94.925
X79.2Y-97.465
X79.2Y-100.005
X79.2Y-102.545
X79.2Y-105.085
X79.2Y-107.625
X79.2Y-152.385
X79.2Y-154.925
X79.2Y-157.465
X79.2Y-160.005
X79.2Y-162.545
X79.2Y-165.085
X79.2Y-167.625
X79.75Y-53.5
X79.75Y-58.5
X80.46Y-123.5
X80.46Y-137.0
X80.47Y-77.0
X80.5Y-89.5
X80.5Y-110.5
X80.5Y-149.5
X80.5Y-170.5
X80.75Y-80.96
X80.75Y-83.5
X80.75Y-86.04
X80.75Y-114.46
X80.75Y-117.0
X80.75Y-119.54
X80.75Y-141.21
X80.75Y-143.75
X80.75Y-146.29
X83.0Y-123.5
X83.0Y-137.0
X83.01Y-77.0
X85.25Y-80.96
X85.25Y-83.5
X85.25Y-86.04
X85.25Y-114.46
X85.25Y-117.0
X85.25Y-119.54
X85.25Y-141.21
X85.25Y-143.75
X85.25Y-146.29
X85.5Y-89.5
X85.5Y-110.5
X85.5Y-149.5
X85.5Y-170.5
X85.54Y-123.5
X85.54Y-137.0
X85.55Y-77.0
X86.25Y-53.5
X86.25Y-58.5
X86.82Y-92.385
X86.82Y-94.925
X86.82Y-97.465
X86.82Y-100.005
X86.82Y-102.545
X86.82Y-105.085
X86.82Y-107.625
X86.82Y-152.385
X86.82Y-154.925
X86.82Y-157.465
X86.82Y-160.005
X86.82Y-162.545
X86.82Y-165.085
X86.82Y-167.625
X90.795Y-55.25
X92.005Y-68.5
X92.005Y-72.55
X92.005Y-76.6
X92.005Y-80.65
X92.005Y-84.7
X92.005Y-88.75
X92.005Y-92.8
X92.005Y-96.85
X92.005Y-100.9
X92.005Y-104.95
X92.005Y-109.0
X92.005Y-113.05
X92.005Y-117.1
X92.005Y-121.15
X92.005Y-125.2
X92.005Y-166.0
X92.005Y-170.05
X92.005Y-174.0
X92.005Y-178.05
X92.005Y-182.15
X92.005Y-186.2
X92.005Y-190.25
X92.795Y-55.25
X94.545Y-68.5
X94.545Y-72.55
X94.545Y-76.6
X94.545Y-80.65
X94.545Y-84.7
X94.545Y-88.75
X94.545Y-92.8
X94.545Y-96.85
X94.545Y-100.9
X94.545Y-104.95
X94.545Y-109.0
X94.545Y-113.05
X94.545Y-117.1
X94.545Y-121.15
X94.545Y-125.2
X94.545Y-166.0
X94.545Y-170.05
X94.545Y-174.0
X94.545Y-178.05
X94.545Y-182.15
X94.545Y-186.2
X94.545Y-190.25
T2
X73.462Y-201.67
X73.462Y-204.21
X73.462Y-206.75
X73.462Y-209.29
X73.462Y-211.83
X76.002Y-201.67
X76.002Y-204.21
X76.002Y-206.75
X76.002Y-209.29
X76.002Y-211.83
X76.675Y-70.975
X76.675Y-131.225
X76.675Y-194.225
X77.92Y-46.212
X77.92Y-48.752
X79.215Y-70.975
X79.215Y-131.225
X79.215Y-194.225
X80.46Y-46.212
X80.46Y-48.752
X81.755Y-70.975
X81.755Y-131.225
X81.755Y-194.225
X83.0Y-46.212
X83.0Y-48.752
X84.295Y-70.975
X84.295Y-131.225
X84.295Y-194.225
X85.54Y-46.212
X85.54Y-48.752
X86.835Y-70.975
X86.835Y-131.225
X86.835Y-194.225
X88.08Y-46.212
X88.08Y-48.752
X89.375Y-70.975
X89.375Y-131.225
X89.375Y-194.225
T3
X69.0Y-44.17
X69.0Y-54.33
X97.0Y-44.17
X97.0Y-54.33
T2
X54.434Y-46.123G85X53.373Y-47.184
G05
X54.434Y-64.623G85X53.373Y-65.684
G05
X54.434Y-83.123G85X53.373Y-84.184
G05
X54.434Y-106.373G85X53.373Y-107.434
G05
X54.434Y-124.873G85X53.373Y-125.934
G05
X54.434Y-143.373G85X53.373Y-144.434
G05
X54.434Y-166.623G85X53.373Y-167.684
G05
X54.434Y-185.123G85X53.373Y-186.184
G05
X54.434Y-203.623G85X53.373Y-204.684
G05
X60.25Y-44.75G85X61.75Y-44.75
G05
X60.25Y-63.25G85X61.75Y-63.25
G05
X60.25Y-81.75G85X61.75Y-81.75
G05
X60.25Y-105.0G85X61.75Y-105.0
G05
X60.25Y-123.5G85X61.75Y-123.5
G05
X60.25Y-142.0G85X61.75Y-142.0
G05
X60.25Y-165.25G85X61.75Y-165.25
G05
X60.25Y-183.75G85X61.75Y-183.75
G05
X60.25Y-202.25G85X61.75Y-202.25
G05
X65.0Y-50.0G85X65.0Y-51.5
G05
X65.0Y-68.5G85X65.0Y-70.0
G05
X65.0Y-87.0G85X65.0Y-88.5
G05
X65.0Y-110.25G85X65.0Y-111.75
G05
X65.0Y-128.75G85X65.0Y-130.25
G05
X65.0Y-147.25G85X65.0Y-148.75
G05
X65.0Y-170.5G85X65.0Y-172.0
G05
X65.0Y-189.0G85X65.0Y-190.5
G05
X65.0Y-207.5G85X65.0Y-209.0
G05
X85.0Y-207.0G85X85.0Y-205.5
G05
X86.373Y-212.816G85X87.434Y-213.877
G05
X90.25Y-202.25G85X91.75Y-202.25
G05
M30
