%TF.GenerationSoftware,KiCad,Pcbnew,9.0.0*%
%TF.CreationDate,2025-03-16T11:09:07+01:00*%
%TF.ProjectId,DMH_Tripple_VCA_PCB_1,444d485f-5472-4697-9070-6c655f564341,1*%
%TF.SameCoordinates,Original*%
%TF.FileFunction,Legend,Top*%
%TF.FilePolarity,Positive*%
%FSLAX46Y46*%
G04 Gerber Fmt 4.6, Leading zero omitted, Abs format (unit mm)*
G04 Created by KiCad (PCBNEW 9.0.0) date 2025-03-16 11:09:07*
%MOMM*%
%LPD*%
G01*
G04 APERTURE LIST*
G04 Aperture macros list*
%AMRoundRect*
0 Rectangle with rounded corners*
0 $1 Rounding radius*
0 $2 $3 $4 $5 $6 $7 $8 $9 X,Y pos of 4 corners*
0 Add a 4 corners polygon primitive as box body*
4,1,4,$2,$3,$4,$5,$6,$7,$8,$9,$2,$3,0*
0 Add four circle primitives for the rounded corners*
1,1,$1+$1,$2,$3*
1,1,$1+$1,$4,$5*
1,1,$1+$1,$6,$7*
1,1,$1+$1,$8,$9*
0 Add four rect primitives between the rounded corners*
20,1,$1+$1,$2,$3,$4,$5,0*
20,1,$1+$1,$4,$5,$6,$7,0*
20,1,$1+$1,$6,$7,$8,$9,0*
20,1,$1+$1,$8,$9,$2,$3,0*%
%AMHorizOval*
0 Thick line with rounded ends*
0 $1 width*
0 $2 $3 position (X,Y) of the first rounded end (center of the circle)*
0 $4 $5 position (X,Y) of the second rounded end (center of the circle)*
0 Add line between two ends*
20,1,$1,$2,$3,$4,$5,0*
0 Add two circle primitives to create the rounded ends*
1,1,$1,$2,$3*
1,1,$1,$4,$5*%
G04 Aperture macros list end*
%ADD10C,0.150000*%
%ADD11C,0.120000*%
%ADD12HorizOval,1.712000X-0.533159X-0.533159X0.533159X0.533159X0*%
%ADD13O,1.712000X3.220000*%
%ADD14O,3.220000X1.712000*%
%ADD15R,1.700000X1.700000*%
%ADD16O,1.700000X1.700000*%
%ADD17HorizOval,1.712000X-0.533159X0.533159X0.533159X-0.533159X0*%
%ADD18RoundRect,0.250000X-0.550000X-0.550000X0.550000X-0.550000X0.550000X0.550000X-0.550000X0.550000X0*%
%ADD19C,1.600000*%
%ADD20O,1.600000X1.600000*%
%ADD21R,1.500000X1.500000*%
%ADD22C,1.500000*%
%ADD23R,2.200000X2.200000*%
%ADD24O,2.200000X2.200000*%
%ADD25RoundRect,0.250000X0.600000X0.600000X-0.600000X0.600000X-0.600000X-0.600000X0.600000X-0.600000X0*%
%ADD26C,1.700000*%
%ADD27C,1.440000*%
%ADD28R,1.600000X1.600000*%
%ADD29RoundRect,0.250000X0.600000X-0.600000X0.600000X0.600000X-0.600000X0.600000X-0.600000X-0.600000X0*%
G04 APERTURE END LIST*
D10*
X54091666Y-164204819D02*
X54091666Y-164919104D01*
X54091666Y-164919104D02*
X54044047Y-165061961D01*
X54044047Y-165061961D02*
X53948809Y-165157200D01*
X53948809Y-165157200D02*
X53805952Y-165204819D01*
X53805952Y-165204819D02*
X53710714Y-165204819D01*
X54472619Y-164204819D02*
X55139285Y-164204819D01*
X55139285Y-164204819D02*
X54710714Y-165204819D01*
X54091666Y-182704819D02*
X54091666Y-183419104D01*
X54091666Y-183419104D02*
X54044047Y-183561961D01*
X54044047Y-183561961D02*
X53948809Y-183657200D01*
X53948809Y-183657200D02*
X53805952Y-183704819D01*
X53805952Y-183704819D02*
X53710714Y-183704819D01*
X54710714Y-183133390D02*
X54615476Y-183085771D01*
X54615476Y-183085771D02*
X54567857Y-183038152D01*
X54567857Y-183038152D02*
X54520238Y-182942914D01*
X54520238Y-182942914D02*
X54520238Y-182895295D01*
X54520238Y-182895295D02*
X54567857Y-182800057D01*
X54567857Y-182800057D02*
X54615476Y-182752438D01*
X54615476Y-182752438D02*
X54710714Y-182704819D01*
X54710714Y-182704819D02*
X54901190Y-182704819D01*
X54901190Y-182704819D02*
X54996428Y-182752438D01*
X54996428Y-182752438D02*
X55044047Y-182800057D01*
X55044047Y-182800057D02*
X55091666Y-182895295D01*
X55091666Y-182895295D02*
X55091666Y-182942914D01*
X55091666Y-182942914D02*
X55044047Y-183038152D01*
X55044047Y-183038152D02*
X54996428Y-183085771D01*
X54996428Y-183085771D02*
X54901190Y-183133390D01*
X54901190Y-183133390D02*
X54710714Y-183133390D01*
X54710714Y-183133390D02*
X54615476Y-183181009D01*
X54615476Y-183181009D02*
X54567857Y-183228628D01*
X54567857Y-183228628D02*
X54520238Y-183323866D01*
X54520238Y-183323866D02*
X54520238Y-183514342D01*
X54520238Y-183514342D02*
X54567857Y-183609580D01*
X54567857Y-183609580D02*
X54615476Y-183657200D01*
X54615476Y-183657200D02*
X54710714Y-183704819D01*
X54710714Y-183704819D02*
X54901190Y-183704819D01*
X54901190Y-183704819D02*
X54996428Y-183657200D01*
X54996428Y-183657200D02*
X55044047Y-183609580D01*
X55044047Y-183609580D02*
X55091666Y-183514342D01*
X55091666Y-183514342D02*
X55091666Y-183323866D01*
X55091666Y-183323866D02*
X55044047Y-183228628D01*
X55044047Y-183228628D02*
X54996428Y-183181009D01*
X54996428Y-183181009D02*
X54901190Y-183133390D01*
X54091666Y-122454819D02*
X54091666Y-123169104D01*
X54091666Y-123169104D02*
X54044047Y-123311961D01*
X54044047Y-123311961D02*
X53948809Y-123407200D01*
X53948809Y-123407200D02*
X53805952Y-123454819D01*
X53805952Y-123454819D02*
X53710714Y-123454819D01*
X55044047Y-122454819D02*
X54567857Y-122454819D01*
X54567857Y-122454819D02*
X54520238Y-122931009D01*
X54520238Y-122931009D02*
X54567857Y-122883390D01*
X54567857Y-122883390D02*
X54663095Y-122835771D01*
X54663095Y-122835771D02*
X54901190Y-122835771D01*
X54901190Y-122835771D02*
X54996428Y-122883390D01*
X54996428Y-122883390D02*
X55044047Y-122931009D01*
X55044047Y-122931009D02*
X55091666Y-123026247D01*
X55091666Y-123026247D02*
X55091666Y-123264342D01*
X55091666Y-123264342D02*
X55044047Y-123359580D01*
X55044047Y-123359580D02*
X54996428Y-123407200D01*
X54996428Y-123407200D02*
X54901190Y-123454819D01*
X54901190Y-123454819D02*
X54663095Y-123454819D01*
X54663095Y-123454819D02*
X54567857Y-123407200D01*
X54567857Y-123407200D02*
X54520238Y-123359580D01*
X54091666Y-201204819D02*
X54091666Y-201919104D01*
X54091666Y-201919104D02*
X54044047Y-202061961D01*
X54044047Y-202061961D02*
X53948809Y-202157200D01*
X53948809Y-202157200D02*
X53805952Y-202204819D01*
X53805952Y-202204819D02*
X53710714Y-202204819D01*
X54615476Y-202204819D02*
X54805952Y-202204819D01*
X54805952Y-202204819D02*
X54901190Y-202157200D01*
X54901190Y-202157200D02*
X54948809Y-202109580D01*
X54948809Y-202109580D02*
X55044047Y-201966723D01*
X55044047Y-201966723D02*
X55091666Y-201776247D01*
X55091666Y-201776247D02*
X55091666Y-201395295D01*
X55091666Y-201395295D02*
X55044047Y-201300057D01*
X55044047Y-201300057D02*
X54996428Y-201252438D01*
X54996428Y-201252438D02*
X54901190Y-201204819D01*
X54901190Y-201204819D02*
X54710714Y-201204819D01*
X54710714Y-201204819D02*
X54615476Y-201252438D01*
X54615476Y-201252438D02*
X54567857Y-201300057D01*
X54567857Y-201300057D02*
X54520238Y-201395295D01*
X54520238Y-201395295D02*
X54520238Y-201633390D01*
X54520238Y-201633390D02*
X54567857Y-201728628D01*
X54567857Y-201728628D02*
X54615476Y-201776247D01*
X54615476Y-201776247D02*
X54710714Y-201823866D01*
X54710714Y-201823866D02*
X54901190Y-201823866D01*
X54901190Y-201823866D02*
X54996428Y-201776247D01*
X54996428Y-201776247D02*
X55044047Y-201728628D01*
X55044047Y-201728628D02*
X55091666Y-201633390D01*
X54091666Y-43704819D02*
X54091666Y-44419104D01*
X54091666Y-44419104D02*
X54044047Y-44561961D01*
X54044047Y-44561961D02*
X53948809Y-44657200D01*
X53948809Y-44657200D02*
X53805952Y-44704819D01*
X53805952Y-44704819D02*
X53710714Y-44704819D01*
X55091666Y-44704819D02*
X54520238Y-44704819D01*
X54805952Y-44704819D02*
X54805952Y-43704819D01*
X54805952Y-43704819D02*
X54710714Y-43847676D01*
X54710714Y-43847676D02*
X54615476Y-43942914D01*
X54615476Y-43942914D02*
X54520238Y-43990533D01*
X75940476Y-68204819D02*
X75940476Y-68919104D01*
X75940476Y-68919104D02*
X75892857Y-69061961D01*
X75892857Y-69061961D02*
X75797619Y-69157200D01*
X75797619Y-69157200D02*
X75654762Y-69204819D01*
X75654762Y-69204819D02*
X75559524Y-69204819D01*
X76892857Y-68204819D02*
X76416667Y-68204819D01*
X76416667Y-68204819D02*
X76369048Y-68681009D01*
X76369048Y-68681009D02*
X76416667Y-68633390D01*
X76416667Y-68633390D02*
X76511905Y-68585771D01*
X76511905Y-68585771D02*
X76750000Y-68585771D01*
X76750000Y-68585771D02*
X76845238Y-68633390D01*
X76845238Y-68633390D02*
X76892857Y-68681009D01*
X76892857Y-68681009D02*
X76940476Y-68776247D01*
X76940476Y-68776247D02*
X76940476Y-69014342D01*
X76940476Y-69014342D02*
X76892857Y-69109580D01*
X76892857Y-69109580D02*
X76845238Y-69157200D01*
X76845238Y-69157200D02*
X76750000Y-69204819D01*
X76750000Y-69204819D02*
X76511905Y-69204819D01*
X76511905Y-69204819D02*
X76416667Y-69157200D01*
X76416667Y-69157200D02*
X76369048Y-69109580D01*
X77559524Y-68204819D02*
X77654762Y-68204819D01*
X77654762Y-68204819D02*
X77750000Y-68252438D01*
X77750000Y-68252438D02*
X77797619Y-68300057D01*
X77797619Y-68300057D02*
X77845238Y-68395295D01*
X77845238Y-68395295D02*
X77892857Y-68585771D01*
X77892857Y-68585771D02*
X77892857Y-68823866D01*
X77892857Y-68823866D02*
X77845238Y-69014342D01*
X77845238Y-69014342D02*
X77797619Y-69109580D01*
X77797619Y-69109580D02*
X77750000Y-69157200D01*
X77750000Y-69157200D02*
X77654762Y-69204819D01*
X77654762Y-69204819D02*
X77559524Y-69204819D01*
X77559524Y-69204819D02*
X77464286Y-69157200D01*
X77464286Y-69157200D02*
X77416667Y-69109580D01*
X77416667Y-69109580D02*
X77369048Y-69014342D01*
X77369048Y-69014342D02*
X77321429Y-68823866D01*
X77321429Y-68823866D02*
X77321429Y-68585771D01*
X77321429Y-68585771D02*
X77369048Y-68395295D01*
X77369048Y-68395295D02*
X77416667Y-68300057D01*
X77416667Y-68300057D02*
X77464286Y-68252438D01*
X77464286Y-68252438D02*
X77559524Y-68204819D01*
X54091666Y-140954819D02*
X54091666Y-141669104D01*
X54091666Y-141669104D02*
X54044047Y-141811961D01*
X54044047Y-141811961D02*
X53948809Y-141907200D01*
X53948809Y-141907200D02*
X53805952Y-141954819D01*
X53805952Y-141954819D02*
X53710714Y-141954819D01*
X54996428Y-140954819D02*
X54805952Y-140954819D01*
X54805952Y-140954819D02*
X54710714Y-141002438D01*
X54710714Y-141002438D02*
X54663095Y-141050057D01*
X54663095Y-141050057D02*
X54567857Y-141192914D01*
X54567857Y-141192914D02*
X54520238Y-141383390D01*
X54520238Y-141383390D02*
X54520238Y-141764342D01*
X54520238Y-141764342D02*
X54567857Y-141859580D01*
X54567857Y-141859580D02*
X54615476Y-141907200D01*
X54615476Y-141907200D02*
X54710714Y-141954819D01*
X54710714Y-141954819D02*
X54901190Y-141954819D01*
X54901190Y-141954819D02*
X54996428Y-141907200D01*
X54996428Y-141907200D02*
X55044047Y-141859580D01*
X55044047Y-141859580D02*
X55091666Y-141764342D01*
X55091666Y-141764342D02*
X55091666Y-141526247D01*
X55091666Y-141526247D02*
X55044047Y-141431009D01*
X55044047Y-141431009D02*
X54996428Y-141383390D01*
X54996428Y-141383390D02*
X54901190Y-141335771D01*
X54901190Y-141335771D02*
X54710714Y-141335771D01*
X54710714Y-141335771D02*
X54615476Y-141383390D01*
X54615476Y-141383390D02*
X54567857Y-141431009D01*
X54567857Y-141431009D02*
X54520238Y-141526247D01*
X73704819Y-132034523D02*
X74419104Y-132034523D01*
X74419104Y-132034523D02*
X74561961Y-132082142D01*
X74561961Y-132082142D02*
X74657200Y-132177380D01*
X74657200Y-132177380D02*
X74704819Y-132320237D01*
X74704819Y-132320237D02*
X74704819Y-132415475D01*
X73704819Y-131129761D02*
X73704819Y-131320237D01*
X73704819Y-131320237D02*
X73752438Y-131415475D01*
X73752438Y-131415475D02*
X73800057Y-131463094D01*
X73800057Y-131463094D02*
X73942914Y-131558332D01*
X73942914Y-131558332D02*
X74133390Y-131605951D01*
X74133390Y-131605951D02*
X74514342Y-131605951D01*
X74514342Y-131605951D02*
X74609580Y-131558332D01*
X74609580Y-131558332D02*
X74657200Y-131510713D01*
X74657200Y-131510713D02*
X74704819Y-131415475D01*
X74704819Y-131415475D02*
X74704819Y-131224999D01*
X74704819Y-131224999D02*
X74657200Y-131129761D01*
X74657200Y-131129761D02*
X74609580Y-131082142D01*
X74609580Y-131082142D02*
X74514342Y-131034523D01*
X74514342Y-131034523D02*
X74276247Y-131034523D01*
X74276247Y-131034523D02*
X74181009Y-131082142D01*
X74181009Y-131082142D02*
X74133390Y-131129761D01*
X74133390Y-131129761D02*
X74085771Y-131224999D01*
X74085771Y-131224999D02*
X74085771Y-131415475D01*
X74085771Y-131415475D02*
X74133390Y-131510713D01*
X74133390Y-131510713D02*
X74181009Y-131558332D01*
X74181009Y-131558332D02*
X74276247Y-131605951D01*
X73704819Y-130415475D02*
X73704819Y-130320237D01*
X73704819Y-130320237D02*
X73752438Y-130224999D01*
X73752438Y-130224999D02*
X73800057Y-130177380D01*
X73800057Y-130177380D02*
X73895295Y-130129761D01*
X73895295Y-130129761D02*
X74085771Y-130082142D01*
X74085771Y-130082142D02*
X74323866Y-130082142D01*
X74323866Y-130082142D02*
X74514342Y-130129761D01*
X74514342Y-130129761D02*
X74609580Y-130177380D01*
X74609580Y-130177380D02*
X74657200Y-130224999D01*
X74657200Y-130224999D02*
X74704819Y-130320237D01*
X74704819Y-130320237D02*
X74704819Y-130415475D01*
X74704819Y-130415475D02*
X74657200Y-130510713D01*
X74657200Y-130510713D02*
X74609580Y-130558332D01*
X74609580Y-130558332D02*
X74514342Y-130605951D01*
X74514342Y-130605951D02*
X74323866Y-130653570D01*
X74323866Y-130653570D02*
X74085771Y-130653570D01*
X74085771Y-130653570D02*
X73895295Y-130605951D01*
X73895295Y-130605951D02*
X73800057Y-130558332D01*
X73800057Y-130558332D02*
X73752438Y-130510713D01*
X73752438Y-130510713D02*
X73704819Y-130415475D01*
X54091666Y-62204819D02*
X54091666Y-62919104D01*
X54091666Y-62919104D02*
X54044047Y-63061961D01*
X54044047Y-63061961D02*
X53948809Y-63157200D01*
X53948809Y-63157200D02*
X53805952Y-63204819D01*
X53805952Y-63204819D02*
X53710714Y-63204819D01*
X54520238Y-62300057D02*
X54567857Y-62252438D01*
X54567857Y-62252438D02*
X54663095Y-62204819D01*
X54663095Y-62204819D02*
X54901190Y-62204819D01*
X54901190Y-62204819D02*
X54996428Y-62252438D01*
X54996428Y-62252438D02*
X55044047Y-62300057D01*
X55044047Y-62300057D02*
X55091666Y-62395295D01*
X55091666Y-62395295D02*
X55091666Y-62490533D01*
X55091666Y-62490533D02*
X55044047Y-62633390D01*
X55044047Y-62633390D02*
X54472619Y-63204819D01*
X54472619Y-63204819D02*
X55091666Y-63204819D01*
X73359819Y-195034523D02*
X74074104Y-195034523D01*
X74074104Y-195034523D02*
X74216961Y-195082142D01*
X74216961Y-195082142D02*
X74312200Y-195177380D01*
X74312200Y-195177380D02*
X74359819Y-195320237D01*
X74359819Y-195320237D02*
X74359819Y-195415475D01*
X73359819Y-194653570D02*
X73359819Y-193986904D01*
X73359819Y-193986904D02*
X74359819Y-194415475D01*
X73359819Y-193415475D02*
X73359819Y-193320237D01*
X73359819Y-193320237D02*
X73407438Y-193224999D01*
X73407438Y-193224999D02*
X73455057Y-193177380D01*
X73455057Y-193177380D02*
X73550295Y-193129761D01*
X73550295Y-193129761D02*
X73740771Y-193082142D01*
X73740771Y-193082142D02*
X73978866Y-193082142D01*
X73978866Y-193082142D02*
X74169342Y-193129761D01*
X74169342Y-193129761D02*
X74264580Y-193177380D01*
X74264580Y-193177380D02*
X74312200Y-193224999D01*
X74312200Y-193224999D02*
X74359819Y-193320237D01*
X74359819Y-193320237D02*
X74359819Y-193415475D01*
X74359819Y-193415475D02*
X74312200Y-193510713D01*
X74312200Y-193510713D02*
X74264580Y-193558332D01*
X74264580Y-193558332D02*
X74169342Y-193605951D01*
X74169342Y-193605951D02*
X73978866Y-193653570D01*
X73978866Y-193653570D02*
X73740771Y-193653570D01*
X73740771Y-193653570D02*
X73550295Y-193605951D01*
X73550295Y-193605951D02*
X73455057Y-193558332D01*
X73455057Y-193558332D02*
X73407438Y-193510713D01*
X73407438Y-193510713D02*
X73359819Y-193415475D01*
X54091666Y-103954819D02*
X54091666Y-104669104D01*
X54091666Y-104669104D02*
X54044047Y-104811961D01*
X54044047Y-104811961D02*
X53948809Y-104907200D01*
X53948809Y-104907200D02*
X53805952Y-104954819D01*
X53805952Y-104954819D02*
X53710714Y-104954819D01*
X54996428Y-104288152D02*
X54996428Y-104954819D01*
X54758333Y-103907200D02*
X54520238Y-104621485D01*
X54520238Y-104621485D02*
X55139285Y-104621485D01*
X54091666Y-80704819D02*
X54091666Y-81419104D01*
X54091666Y-81419104D02*
X54044047Y-81561961D01*
X54044047Y-81561961D02*
X53948809Y-81657200D01*
X53948809Y-81657200D02*
X53805952Y-81704819D01*
X53805952Y-81704819D02*
X53710714Y-81704819D01*
X54472619Y-80704819D02*
X55091666Y-80704819D01*
X55091666Y-80704819D02*
X54758333Y-81085771D01*
X54758333Y-81085771D02*
X54901190Y-81085771D01*
X54901190Y-81085771D02*
X54996428Y-81133390D01*
X54996428Y-81133390D02*
X55044047Y-81181009D01*
X55044047Y-81181009D02*
X55091666Y-81276247D01*
X55091666Y-81276247D02*
X55091666Y-81514342D01*
X55091666Y-81514342D02*
X55044047Y-81609580D01*
X55044047Y-81609580D02*
X54996428Y-81657200D01*
X54996428Y-81657200D02*
X54901190Y-81704819D01*
X54901190Y-81704819D02*
X54615476Y-81704819D01*
X54615476Y-81704819D02*
X54520238Y-81657200D01*
X54520238Y-81657200D02*
X54472619Y-81609580D01*
X83954819Y-213634523D02*
X84669104Y-213634523D01*
X84669104Y-213634523D02*
X84811961Y-213682142D01*
X84811961Y-213682142D02*
X84907200Y-213777380D01*
X84907200Y-213777380D02*
X84954819Y-213920237D01*
X84954819Y-213920237D02*
X84954819Y-214015475D01*
X84954819Y-212634523D02*
X84954819Y-213205951D01*
X84954819Y-212920237D02*
X83954819Y-212920237D01*
X83954819Y-212920237D02*
X84097676Y-213015475D01*
X84097676Y-213015475D02*
X84192914Y-213110713D01*
X84192914Y-213110713D02*
X84240533Y-213205951D01*
X83954819Y-212015475D02*
X83954819Y-211920237D01*
X83954819Y-211920237D02*
X84002438Y-211824999D01*
X84002438Y-211824999D02*
X84050057Y-211777380D01*
X84050057Y-211777380D02*
X84145295Y-211729761D01*
X84145295Y-211729761D02*
X84335771Y-211682142D01*
X84335771Y-211682142D02*
X84573866Y-211682142D01*
X84573866Y-211682142D02*
X84764342Y-211729761D01*
X84764342Y-211729761D02*
X84859580Y-211777380D01*
X84859580Y-211777380D02*
X84907200Y-211824999D01*
X84907200Y-211824999D02*
X84954819Y-211920237D01*
X84954819Y-211920237D02*
X84954819Y-212015475D01*
X84954819Y-212015475D02*
X84907200Y-212110713D01*
X84907200Y-212110713D02*
X84859580Y-212158332D01*
X84859580Y-212158332D02*
X84764342Y-212205951D01*
X84764342Y-212205951D02*
X84573866Y-212253570D01*
X84573866Y-212253570D02*
X84335771Y-212253570D01*
X84335771Y-212253570D02*
X84145295Y-212205951D01*
X84145295Y-212205951D02*
X84050057Y-212158332D01*
X84050057Y-212158332D02*
X84002438Y-212110713D01*
X84002438Y-212110713D02*
X83954819Y-212015475D01*
%TO.C,J7*%
X58500000Y-167550000D02*
X56150000Y-167550000D01*
X58500000Y-167550000D02*
X60850000Y-167550000D01*
X58500000Y-175950000D02*
X56150000Y-175950000D01*
X58500000Y-175950000D02*
X60850000Y-175950000D01*
X53700000Y-171750000D02*
G75*
G02*
X56156222Y-167561121I4800000J0D01*
G01*
X56156222Y-175938879D02*
G75*
G02*
X53700000Y-171750000I2343778J4188879D01*
G01*
X60843778Y-167561121D02*
G75*
G02*
X63300000Y-171750000I-2343781J-4188881D01*
G01*
X63300000Y-171750000D02*
G75*
G02*
X60843778Y-175938879I-4800003J2D01*
G01*
%TO.C,J8*%
X58500000Y-186050000D02*
X56150000Y-186050000D01*
X58500000Y-186050000D02*
X60850000Y-186050000D01*
X58500000Y-194450000D02*
X56150000Y-194450000D01*
X58500000Y-194450000D02*
X60850000Y-194450000D01*
X53700000Y-190250000D02*
G75*
G02*
X56156222Y-186061121I4800000J0D01*
G01*
X56156222Y-194438879D02*
G75*
G02*
X53700000Y-190250000I2343778J4188879D01*
G01*
X60843778Y-186061121D02*
G75*
G02*
X63300000Y-190250000I-2343781J-4188881D01*
G01*
X63300000Y-190250000D02*
G75*
G02*
X60843778Y-194438879I-4800003J2D01*
G01*
%TO.C,J5*%
X58500000Y-125800000D02*
X56150000Y-125800000D01*
X58500000Y-125800000D02*
X60850000Y-125800000D01*
X58500000Y-134200000D02*
X56150000Y-134200000D01*
X58500000Y-134200000D02*
X60850000Y-134200000D01*
X53700000Y-130000000D02*
G75*
G02*
X56156222Y-125811121I4800000J0D01*
G01*
X56156222Y-134188879D02*
G75*
G02*
X53700000Y-130000000I2343778J4188879D01*
G01*
X60843778Y-125811121D02*
G75*
G02*
X63300000Y-130000000I-2343781J-4188881D01*
G01*
X63300000Y-130000000D02*
G75*
G02*
X60843778Y-134188879I-4800003J2D01*
G01*
%TO.C,J9*%
X58500000Y-204550000D02*
X56150000Y-204550000D01*
X58500000Y-204550000D02*
X60850000Y-204550000D01*
X58500000Y-212950000D02*
X56150000Y-212950000D01*
X58500000Y-212950000D02*
X60850000Y-212950000D01*
X53700000Y-208750000D02*
G75*
G02*
X56156222Y-204561121I4800000J0D01*
G01*
X56156222Y-212938879D02*
G75*
G02*
X53700000Y-208750000I2343778J4188879D01*
G01*
X60843778Y-204561121D02*
G75*
G02*
X63300000Y-208750000I-2343781J-4188881D01*
G01*
X63300000Y-208750000D02*
G75*
G02*
X60843778Y-212938879I-4800003J2D01*
G01*
%TO.C,J1*%
X58500000Y-47050000D02*
X56150000Y-47050000D01*
X58500000Y-47050000D02*
X60850000Y-47050000D01*
X58500000Y-55450000D02*
X56150000Y-55450000D01*
X58500000Y-55450000D02*
X60850000Y-55450000D01*
X53700000Y-51250000D02*
G75*
G02*
X56156222Y-47061121I4800000J0D01*
G01*
X56156222Y-55438879D02*
G75*
G02*
X53700000Y-51250000I2343778J4188879D01*
G01*
X60843778Y-47061121D02*
G75*
G02*
X63300000Y-51250000I-2343781J-4188881D01*
G01*
X63300000Y-51250000D02*
G75*
G02*
X60843778Y-55438879I-4800003J2D01*
G01*
D11*
%TO.C,J50*%
X75345000Y-69645000D02*
X76675000Y-69645000D01*
X75345000Y-70975000D02*
X75345000Y-69645000D01*
X77945000Y-69645000D02*
X90705000Y-69645000D01*
X77945000Y-72305000D02*
X77945000Y-69645000D01*
X77945000Y-72305000D02*
X90705000Y-72305000D01*
X90705000Y-72305000D02*
X90705000Y-69645000D01*
D10*
%TO.C,J6*%
X58500000Y-144300000D02*
X56150000Y-144300000D01*
X58500000Y-144300000D02*
X60850000Y-144300000D01*
X58500000Y-152700000D02*
X56150000Y-152700000D01*
X58500000Y-152700000D02*
X60850000Y-152700000D01*
X53700000Y-148500000D02*
G75*
G02*
X56156222Y-144311121I4800000J0D01*
G01*
X56156222Y-152688879D02*
G75*
G02*
X53700000Y-148500000I2343778J4188879D01*
G01*
X60843778Y-144311121D02*
G75*
G02*
X63300000Y-148500000I-2343781J-4188881D01*
G01*
X63300000Y-148500000D02*
G75*
G02*
X60843778Y-152688879I-4800003J2D01*
G01*
D11*
%TO.C,J60*%
X75345000Y-129895000D02*
X76675000Y-129895000D01*
X75345000Y-131225000D02*
X75345000Y-129895000D01*
X77945000Y-129895000D02*
X90705000Y-129895000D01*
X77945000Y-132555000D02*
X77945000Y-129895000D01*
X77945000Y-132555000D02*
X90705000Y-132555000D01*
X90705000Y-132555000D02*
X90705000Y-129895000D01*
D10*
%TO.C,J2*%
X58500000Y-65550000D02*
X56150000Y-65550000D01*
X58500000Y-65550000D02*
X60850000Y-65550000D01*
X58500000Y-73950000D02*
X56150000Y-73950000D01*
X58500000Y-73950000D02*
X60850000Y-73950000D01*
X53700000Y-69750000D02*
G75*
G02*
X56156222Y-65561121I4800000J0D01*
G01*
X56156222Y-73938879D02*
G75*
G02*
X53700000Y-69750000I2343778J4188879D01*
G01*
X60843778Y-65561121D02*
G75*
G02*
X63300000Y-69750000I-2343781J-4188881D01*
G01*
X63300000Y-69750000D02*
G75*
G02*
X60843778Y-73938879I-4800003J2D01*
G01*
D11*
%TO.C,J70*%
X75345000Y-192895000D02*
X76675000Y-192895000D01*
X75345000Y-194225000D02*
X75345000Y-192895000D01*
X77945000Y-192895000D02*
X90705000Y-192895000D01*
X77945000Y-195555000D02*
X77945000Y-192895000D01*
X77945000Y-195555000D02*
X90705000Y-195555000D01*
X90705000Y-195555000D02*
X90705000Y-192895000D01*
D10*
%TO.C,J4*%
X58500000Y-107300000D02*
X56150000Y-107300000D01*
X58500000Y-107300000D02*
X60850000Y-107300000D01*
X58500000Y-115700000D02*
X56150000Y-115700000D01*
X58500000Y-115700000D02*
X60850000Y-115700000D01*
X53700000Y-111500000D02*
G75*
G02*
X56156222Y-107311121I4800000J0D01*
G01*
X56156222Y-115688879D02*
G75*
G02*
X53700000Y-111500000I2343778J4188879D01*
G01*
X60843778Y-107311121D02*
G75*
G02*
X63300000Y-111500000I-2343781J-4188881D01*
G01*
X63300000Y-111500000D02*
G75*
G02*
X60843778Y-115688879I-4800003J2D01*
G01*
%TO.C,J3*%
X58500000Y-84050000D02*
X56150000Y-84050000D01*
X58500000Y-84050000D02*
X60850000Y-84050000D01*
X58500000Y-92450000D02*
X56150000Y-92450000D01*
X58500000Y-92450000D02*
X60850000Y-92450000D01*
X53700000Y-88250000D02*
G75*
G02*
X56156222Y-84061121I4800000J0D01*
G01*
X56156222Y-92438879D02*
G75*
G02*
X53700000Y-88250000I2343778J4188879D01*
G01*
X60843778Y-84061121D02*
G75*
G02*
X63300000Y-88250000I-2343781J-4188881D01*
G01*
X63300000Y-88250000D02*
G75*
G02*
X60843778Y-92438879I-4800003J2D01*
G01*
%TO.C,J10*%
X87300000Y-208750000D02*
X87300000Y-206400000D01*
X87300000Y-208750000D02*
X87300000Y-211100000D01*
X95700000Y-208750000D02*
X95700000Y-206400000D01*
X95700000Y-208750000D02*
X95700000Y-211100000D01*
X87311121Y-206406222D02*
G75*
G02*
X91500000Y-203950000I4188881J-2343781D01*
G01*
X91500000Y-203950000D02*
G75*
G02*
X95688879Y-206406222I-2J-4800003D01*
G01*
X91500000Y-213550000D02*
G75*
G02*
X87311121Y-211093778I0J4800000D01*
G01*
X95688879Y-211093778D02*
G75*
G02*
X91500000Y-213550000I-4188879J2343778D01*
G01*
%TD*%
%LPC*%
D12*
%TO.C,J7*%
X53903810Y-167153810D03*
D13*
X65000000Y-171250000D03*
D14*
X61000000Y-165250000D03*
%TD*%
D12*
%TO.C,J8*%
X53903810Y-185653810D03*
D13*
X65000000Y-189750000D03*
D14*
X61000000Y-183750000D03*
%TD*%
D12*
%TO.C,J5*%
X53903810Y-125403810D03*
D13*
X65000000Y-129500000D03*
D14*
X61000000Y-123500000D03*
%TD*%
D12*
%TO.C,J9*%
X53903810Y-204153810D03*
D13*
X65000000Y-208250000D03*
D14*
X61000000Y-202250000D03*
%TD*%
D12*
%TO.C,J1*%
X53903810Y-46653810D03*
D13*
X65000000Y-50750000D03*
D14*
X61000000Y-44750000D03*
%TD*%
D15*
%TO.C,J50*%
X76675000Y-70975000D03*
D16*
X79215000Y-70975000D03*
X81755000Y-70975000D03*
X84295000Y-70975000D03*
X86835000Y-70975000D03*
X89375000Y-70975000D03*
%TD*%
D12*
%TO.C,J6*%
X53903810Y-143903810D03*
D13*
X65000000Y-148000000D03*
D14*
X61000000Y-142000000D03*
%TD*%
D15*
%TO.C,J60*%
X76675000Y-131225000D03*
D16*
X79215000Y-131225000D03*
X81755000Y-131225000D03*
X84295000Y-131225000D03*
X86835000Y-131225000D03*
X89375000Y-131225000D03*
%TD*%
D12*
%TO.C,J2*%
X53903810Y-65153810D03*
D13*
X65000000Y-69250000D03*
D14*
X61000000Y-63250000D03*
%TD*%
D15*
%TO.C,J70*%
X76675000Y-194225000D03*
D16*
X79215000Y-194225000D03*
X81755000Y-194225000D03*
X84295000Y-194225000D03*
X86835000Y-194225000D03*
X89375000Y-194225000D03*
%TD*%
D12*
%TO.C,J4*%
X53903810Y-106903810D03*
D13*
X65000000Y-111000000D03*
D14*
X61000000Y-105000000D03*
%TD*%
D12*
%TO.C,J3*%
X53903810Y-83653810D03*
D13*
X65000000Y-87750000D03*
D14*
X61000000Y-81750000D03*
%TD*%
D17*
%TO.C,J10*%
X86903810Y-213346190D03*
D14*
X91000000Y-202250000D03*
D13*
X85000000Y-206250000D03*
%TD*%
D18*
%TO.C,U1*%
X79200000Y-107625000D03*
D19*
X79200000Y-105085000D03*
X79200000Y-102545000D03*
X79200000Y-100005000D03*
X79200000Y-97465000D03*
X79200000Y-94925000D03*
X79200000Y-92385000D03*
X86820000Y-92385000D03*
X86820000Y-94925000D03*
X86820000Y-97465000D03*
X86820000Y-100005000D03*
X86820000Y-102545000D03*
X86820000Y-105085000D03*
X86820000Y-107625000D03*
%TD*%
%TO.C,R46*%
X94545000Y-166000000D03*
D20*
X92005000Y-166000000D03*
%TD*%
D21*
%TO.C,Q5*%
X80750000Y-141210000D03*
D22*
X80750000Y-143750000D03*
X80750000Y-146290000D03*
%TD*%
D19*
%TO.C,R27*%
X94545000Y-113050000D03*
D20*
X92005000Y-113050000D03*
%TD*%
D19*
%TO.C,R39*%
X76060000Y-165950000D03*
D20*
X73520000Y-165950000D03*
%TD*%
D23*
%TO.C,D1*%
X69000000Y-54330000D03*
D24*
X69000000Y-44170000D03*
%TD*%
D21*
%TO.C,Q6*%
X85250000Y-146290000D03*
D22*
X85250000Y-143750000D03*
X85250000Y-141210000D03*
%TD*%
D21*
%TO.C,Q2*%
X85250000Y-86040000D03*
D22*
X85250000Y-83500000D03*
X85250000Y-80960000D03*
%TD*%
D19*
%TO.C,C8*%
X80500000Y-149500000D03*
X85500000Y-149500000D03*
%TD*%
%TO.C,R21*%
X94545000Y-88750000D03*
D20*
X92005000Y-88750000D03*
%TD*%
D19*
%TO.C,R10*%
X73545000Y-104750000D03*
D20*
X71005000Y-104750000D03*
%TD*%
D19*
%TO.C,R41*%
X76060000Y-174050000D03*
D20*
X73520000Y-174050000D03*
%TD*%
D19*
%TO.C,R23*%
X94545000Y-96850000D03*
D20*
X92005000Y-96850000D03*
%TD*%
D19*
%TO.C,R1*%
X73545000Y-68300000D03*
D20*
X71005000Y-68300000D03*
%TD*%
D19*
%TO.C,R28*%
X94545000Y-117100000D03*
D20*
X92005000Y-117100000D03*
%TD*%
D25*
%TO.C,J200*%
X76002500Y-201670000D03*
D26*
X76002500Y-204210000D03*
X76002500Y-206750000D03*
X76002500Y-209290000D03*
X76002500Y-211830000D03*
X73462500Y-201670000D03*
X73462500Y-204210000D03*
X73462500Y-206750000D03*
X73462500Y-209290000D03*
X73462500Y-211830000D03*
%TD*%
D19*
%TO.C,R43*%
X76060000Y-182150000D03*
D20*
X73520000Y-182150000D03*
%TD*%
D19*
%TO.C,R51*%
X94545000Y-186200000D03*
D20*
X92005000Y-186200000D03*
%TD*%
D19*
%TO.C,R48*%
X94545000Y-174000000D03*
D20*
X92005000Y-174000000D03*
%TD*%
D27*
%TO.C,RV1*%
X85550000Y-77000000D03*
X83010000Y-77000000D03*
X80470000Y-77000000D03*
%TD*%
D19*
%TO.C,R31*%
X76060000Y-133550000D03*
D20*
X73520000Y-133550000D03*
%TD*%
D19*
%TO.C,R37*%
X76060000Y-157850000D03*
D20*
X73520000Y-157850000D03*
%TD*%
D27*
%TO.C,RV3*%
X85540000Y-137000000D03*
X83000000Y-137000000D03*
X80460000Y-137000000D03*
%TD*%
D19*
%TO.C,R45*%
X76060000Y-190250000D03*
D20*
X73520000Y-190250000D03*
%TD*%
D19*
%TO.C,R8*%
X73545000Y-96650000D03*
D20*
X71005000Y-96650000D03*
%TD*%
D19*
%TO.C,R29*%
X94545000Y-121150000D03*
D20*
X92005000Y-121150000D03*
%TD*%
D19*
%TO.C,R12*%
X73545000Y-112850000D03*
D20*
X71005000Y-112850000D03*
%TD*%
D19*
%TO.C,C6*%
X80500000Y-89500000D03*
X85500000Y-89500000D03*
%TD*%
D28*
%TO.C,C1*%
X73294887Y-55250000D03*
D19*
X75294887Y-55250000D03*
%TD*%
D21*
%TO.C,Q1*%
X80750000Y-80960000D03*
D22*
X80750000Y-83500000D03*
X80750000Y-86040000D03*
%TD*%
D19*
%TO.C,R30*%
X94545000Y-125200000D03*
D20*
X92005000Y-125200000D03*
%TD*%
D19*
%TO.C,R2*%
X73545000Y-72350000D03*
D20*
X71005000Y-72350000D03*
%TD*%
D19*
%TO.C,R33*%
X76060000Y-141650000D03*
D20*
X73520000Y-141650000D03*
%TD*%
D19*
%TO.C,C3*%
X79750000Y-58500000D03*
X79750000Y-53500000D03*
%TD*%
%TO.C,R36*%
X76060000Y-153800000D03*
D20*
X73520000Y-153800000D03*
%TD*%
D19*
%TO.C,R20*%
X94545000Y-84700000D03*
D20*
X92005000Y-84700000D03*
%TD*%
D23*
%TO.C,D2*%
X97000000Y-44170000D03*
D24*
X97000000Y-54330000D03*
%TD*%
D19*
%TO.C,R13*%
X73545000Y-116900000D03*
D20*
X71005000Y-116900000D03*
%TD*%
D27*
%TO.C,RV2*%
X85540000Y-123500000D03*
X83000000Y-123500000D03*
X80460000Y-123500000D03*
%TD*%
D19*
%TO.C,R9*%
X73545000Y-100700000D03*
D20*
X71005000Y-100700000D03*
%TD*%
D19*
%TO.C,R25*%
X94545000Y-104950000D03*
D20*
X92005000Y-104950000D03*
%TD*%
D19*
%TO.C,R17*%
X94545000Y-72550000D03*
D20*
X92005000Y-72550000D03*
%TD*%
D19*
%TO.C,R47*%
X94545000Y-170050000D03*
D20*
X92005000Y-170050000D03*
%TD*%
D19*
%TO.C,R5*%
X73545000Y-84500000D03*
D20*
X71005000Y-84500000D03*
%TD*%
D19*
%TO.C,R15*%
X73545000Y-125000000D03*
D20*
X71005000Y-125000000D03*
%TD*%
D19*
%TO.C,R40*%
X76060000Y-170000000D03*
D20*
X73520000Y-170000000D03*
%TD*%
D19*
%TO.C,R11*%
X73545000Y-108800000D03*
D20*
X71005000Y-108800000D03*
%TD*%
D19*
%TO.C,C4*%
X86250000Y-53500000D03*
X86250000Y-58500000D03*
%TD*%
%TO.C,R26*%
X94545000Y-109000000D03*
D20*
X92005000Y-109000000D03*
%TD*%
D19*
%TO.C,R16*%
X94545000Y-68500000D03*
D20*
X92005000Y-68500000D03*
%TD*%
D19*
%TO.C,R14*%
X73545000Y-120950000D03*
D20*
X71005000Y-120950000D03*
%TD*%
D19*
%TO.C,R49*%
X94545000Y-178050000D03*
D20*
X92005000Y-178050000D03*
%TD*%
D19*
%TO.C,R7*%
X73545000Y-92600000D03*
D20*
X71005000Y-92600000D03*
%TD*%
D19*
%TO.C,C7*%
X80500000Y-170500000D03*
X85500000Y-170500000D03*
%TD*%
%TO.C,R24*%
X94545000Y-100900000D03*
D20*
X92005000Y-100900000D03*
%TD*%
D19*
%TO.C,R44*%
X76060000Y-186200000D03*
D20*
X73520000Y-186200000D03*
%TD*%
D19*
%TO.C,R22*%
X94545000Y-92800000D03*
D20*
X92005000Y-92800000D03*
%TD*%
D19*
%TO.C,R38*%
X76060000Y-161900000D03*
D20*
X73520000Y-161900000D03*
%TD*%
D19*
%TO.C,R50*%
X94545000Y-182150000D03*
D20*
X92005000Y-182150000D03*
%TD*%
D19*
%TO.C,R35*%
X76045000Y-149750000D03*
D20*
X73505000Y-149750000D03*
%TD*%
D28*
%TO.C,C2*%
X90794888Y-55250000D03*
D19*
X92794888Y-55250000D03*
%TD*%
D29*
%TO.C,J100*%
X88080000Y-48752500D03*
D26*
X88080000Y-46212500D03*
X85540000Y-48752500D03*
X85540000Y-46212500D03*
X83000000Y-48752500D03*
X83000000Y-46212500D03*
X80460000Y-48752500D03*
X80460000Y-46212500D03*
X77920000Y-48752500D03*
X77920000Y-46212500D03*
%TD*%
D19*
%TO.C,R18*%
X94545000Y-76600000D03*
D20*
X92005000Y-76600000D03*
%TD*%
D19*
%TO.C,R6*%
X73545000Y-88550000D03*
D20*
X71005000Y-88550000D03*
%TD*%
D18*
%TO.C,U2*%
X79200000Y-167625000D03*
D19*
X79200000Y-165085000D03*
X79200000Y-162545000D03*
X79200000Y-160005000D03*
X79200000Y-157465000D03*
X79200000Y-154925000D03*
X79200000Y-152385000D03*
X86820000Y-152385000D03*
X86820000Y-154925000D03*
X86820000Y-157465000D03*
X86820000Y-160005000D03*
X86820000Y-162545000D03*
X86820000Y-165085000D03*
X86820000Y-167625000D03*
%TD*%
%TO.C,R3*%
X73545000Y-76400000D03*
D20*
X71005000Y-76400000D03*
%TD*%
D19*
%TO.C,R32*%
X76060000Y-137600000D03*
D20*
X73520000Y-137600000D03*
%TD*%
D19*
%TO.C,R4*%
X73545000Y-80450000D03*
D20*
X71005000Y-80450000D03*
%TD*%
D19*
%TO.C,R42*%
X76060000Y-178100000D03*
D20*
X73520000Y-178100000D03*
%TD*%
D19*
%TO.C,R19*%
X94545000Y-80650000D03*
D20*
X92005000Y-80650000D03*
%TD*%
D21*
%TO.C,Q4*%
X85250000Y-119540000D03*
D22*
X85250000Y-117000000D03*
X85250000Y-114460000D03*
%TD*%
D19*
%TO.C,R34*%
X76060000Y-145700000D03*
D20*
X73520000Y-145700000D03*
%TD*%
D21*
%TO.C,Q3*%
X80750000Y-114460000D03*
D22*
X80750000Y-117000000D03*
X80750000Y-119540000D03*
%TD*%
D19*
%TO.C,C5*%
X80500000Y-110500000D03*
X85500000Y-110500000D03*
%TD*%
%TO.C,R52*%
X94545000Y-190250000D03*
D20*
X92005000Y-190250000D03*
%TD*%
%LPD*%
M02*
