%TF.GenerationSoftware,KiCad,Pcbnew,9.0.0*%
%TF.CreationDate,2025-04-19T14:08:19+02:00*%
%TF.ProjectId,DMH_Tripple_VCA_PCB_2,444d485f-5472-4697-9070-6c655f564341,1*%
%TF.SameCoordinates,Original*%
%TF.FileFunction,Legend,Top*%
%TF.FilePolarity,Positive*%
%FSLAX46Y46*%
G04 Gerber Fmt 4.6, Leading zero omitted, Abs format (unit mm)*
G04 Created by KiCad (PCBNEW 9.0.0) date 2025-04-19 14:08:19*
%MOMM*%
%LPD*%
G01*
G04 APERTURE LIST*
%ADD10C,0.150000*%
%ADD11C,0.200000*%
%ADD12C,0.120000*%
%ADD13C,1.600000*%
%ADD14O,1.600000X1.600000*%
%ADD15O,2.720000X3.240000*%
%ADD16R,1.800000X1.800000*%
%ADD17C,1.800000*%
%ADD18R,1.700000X1.700000*%
%ADD19R,1.800000X1.400000*%
%ADD20O,1.800000X1.400000*%
%ADD21C,2.600000*%
%ADD22O,1.700000X1.700000*%
G04 APERTURE END LIST*
D10*
X82607142Y-173574819D02*
X82273809Y-173098628D01*
X82035714Y-173574819D02*
X82035714Y-172574819D01*
X82035714Y-172574819D02*
X82416666Y-172574819D01*
X82416666Y-172574819D02*
X82511904Y-172622438D01*
X82511904Y-172622438D02*
X82559523Y-172670057D01*
X82559523Y-172670057D02*
X82607142Y-172765295D01*
X82607142Y-172765295D02*
X82607142Y-172908152D01*
X82607142Y-172908152D02*
X82559523Y-173003390D01*
X82559523Y-173003390D02*
X82511904Y-173051009D01*
X82511904Y-173051009D02*
X82416666Y-173098628D01*
X82416666Y-173098628D02*
X82035714Y-173098628D01*
X83511904Y-172574819D02*
X83035714Y-172574819D01*
X83035714Y-172574819D02*
X82988095Y-173051009D01*
X82988095Y-173051009D02*
X83035714Y-173003390D01*
X83035714Y-173003390D02*
X83130952Y-172955771D01*
X83130952Y-172955771D02*
X83369047Y-172955771D01*
X83369047Y-172955771D02*
X83464285Y-173003390D01*
X83464285Y-173003390D02*
X83511904Y-173051009D01*
X83511904Y-173051009D02*
X83559523Y-173146247D01*
X83559523Y-173146247D02*
X83559523Y-173384342D01*
X83559523Y-173384342D02*
X83511904Y-173479580D01*
X83511904Y-173479580D02*
X83464285Y-173527200D01*
X83464285Y-173527200D02*
X83369047Y-173574819D01*
X83369047Y-173574819D02*
X83130952Y-173574819D01*
X83130952Y-173574819D02*
X83035714Y-173527200D01*
X83035714Y-173527200D02*
X82988095Y-173479580D01*
X84464285Y-172574819D02*
X83988095Y-172574819D01*
X83988095Y-172574819D02*
X83940476Y-173051009D01*
X83940476Y-173051009D02*
X83988095Y-173003390D01*
X83988095Y-173003390D02*
X84083333Y-172955771D01*
X84083333Y-172955771D02*
X84321428Y-172955771D01*
X84321428Y-172955771D02*
X84416666Y-173003390D01*
X84416666Y-173003390D02*
X84464285Y-173051009D01*
X84464285Y-173051009D02*
X84511904Y-173146247D01*
X84511904Y-173146247D02*
X84511904Y-173384342D01*
X84511904Y-173384342D02*
X84464285Y-173479580D01*
X84464285Y-173479580D02*
X84416666Y-173527200D01*
X84416666Y-173527200D02*
X84321428Y-173574819D01*
X84321428Y-173574819D02*
X84083333Y-173574819D01*
X84083333Y-173574819D02*
X83988095Y-173527200D01*
X83988095Y-173527200D02*
X83940476Y-173479580D01*
X82083333Y-170300057D02*
X82130952Y-170252438D01*
X82130952Y-170252438D02*
X82226190Y-170204819D01*
X82226190Y-170204819D02*
X82464285Y-170204819D01*
X82464285Y-170204819D02*
X82559523Y-170252438D01*
X82559523Y-170252438D02*
X82607142Y-170300057D01*
X82607142Y-170300057D02*
X82654761Y-170395295D01*
X82654761Y-170395295D02*
X82654761Y-170490533D01*
X82654761Y-170490533D02*
X82607142Y-170633390D01*
X82607142Y-170633390D02*
X82035714Y-171204819D01*
X82035714Y-171204819D02*
X82654761Y-171204819D01*
X83273809Y-170204819D02*
X83369047Y-170204819D01*
X83369047Y-170204819D02*
X83464285Y-170252438D01*
X83464285Y-170252438D02*
X83511904Y-170300057D01*
X83511904Y-170300057D02*
X83559523Y-170395295D01*
X83559523Y-170395295D02*
X83607142Y-170585771D01*
X83607142Y-170585771D02*
X83607142Y-170823866D01*
X83607142Y-170823866D02*
X83559523Y-171014342D01*
X83559523Y-171014342D02*
X83511904Y-171109580D01*
X83511904Y-171109580D02*
X83464285Y-171157200D01*
X83464285Y-171157200D02*
X83369047Y-171204819D01*
X83369047Y-171204819D02*
X83273809Y-171204819D01*
X83273809Y-171204819D02*
X83178571Y-171157200D01*
X83178571Y-171157200D02*
X83130952Y-171109580D01*
X83130952Y-171109580D02*
X83083333Y-171014342D01*
X83083333Y-171014342D02*
X83035714Y-170823866D01*
X83035714Y-170823866D02*
X83035714Y-170585771D01*
X83035714Y-170585771D02*
X83083333Y-170395295D01*
X83083333Y-170395295D02*
X83130952Y-170300057D01*
X83130952Y-170300057D02*
X83178571Y-170252438D01*
X83178571Y-170252438D02*
X83273809Y-170204819D01*
X84035714Y-171204819D02*
X84035714Y-170204819D01*
X84130952Y-170823866D02*
X84416666Y-171204819D01*
X84416666Y-170538152D02*
X84035714Y-170919104D01*
X78004819Y-186195238D02*
X77528628Y-186528571D01*
X78004819Y-186766666D02*
X77004819Y-186766666D01*
X77004819Y-186766666D02*
X77004819Y-186385714D01*
X77004819Y-186385714D02*
X77052438Y-186290476D01*
X77052438Y-186290476D02*
X77100057Y-186242857D01*
X77100057Y-186242857D02*
X77195295Y-186195238D01*
X77195295Y-186195238D02*
X77338152Y-186195238D01*
X77338152Y-186195238D02*
X77433390Y-186242857D01*
X77433390Y-186242857D02*
X77481009Y-186290476D01*
X77481009Y-186290476D02*
X77528628Y-186385714D01*
X77528628Y-186385714D02*
X77528628Y-186766666D01*
X77004819Y-185909523D02*
X78004819Y-185576190D01*
X78004819Y-185576190D02*
X77004819Y-185242857D01*
X77004819Y-184480952D02*
X77004819Y-184671428D01*
X77004819Y-184671428D02*
X77052438Y-184766666D01*
X77052438Y-184766666D02*
X77100057Y-184814285D01*
X77100057Y-184814285D02*
X77242914Y-184909523D01*
X77242914Y-184909523D02*
X77433390Y-184957142D01*
X77433390Y-184957142D02*
X77814342Y-184957142D01*
X77814342Y-184957142D02*
X77909580Y-184909523D01*
X77909580Y-184909523D02*
X77957200Y-184861904D01*
X77957200Y-184861904D02*
X78004819Y-184766666D01*
X78004819Y-184766666D02*
X78004819Y-184576190D01*
X78004819Y-184576190D02*
X77957200Y-184480952D01*
X77957200Y-184480952D02*
X77909580Y-184433333D01*
X77909580Y-184433333D02*
X77814342Y-184385714D01*
X77814342Y-184385714D02*
X77576247Y-184385714D01*
X77576247Y-184385714D02*
X77481009Y-184433333D01*
X77481009Y-184433333D02*
X77433390Y-184480952D01*
X77433390Y-184480952D02*
X77385771Y-184576190D01*
X77385771Y-184576190D02*
X77385771Y-184766666D01*
X77385771Y-184766666D02*
X77433390Y-184861904D01*
X77433390Y-184861904D02*
X77481009Y-184909523D01*
X77481009Y-184909523D02*
X77576247Y-184957142D01*
X89454819Y-186321428D02*
X89454819Y-186892856D01*
X89454819Y-186607142D02*
X88454819Y-186607142D01*
X88454819Y-186607142D02*
X88597676Y-186702380D01*
X88597676Y-186702380D02*
X88692914Y-186797618D01*
X88692914Y-186797618D02*
X88740533Y-186892856D01*
X88454819Y-185702380D02*
X88454819Y-185607142D01*
X88454819Y-185607142D02*
X88502438Y-185511904D01*
X88502438Y-185511904D02*
X88550057Y-185464285D01*
X88550057Y-185464285D02*
X88645295Y-185416666D01*
X88645295Y-185416666D02*
X88835771Y-185369047D01*
X88835771Y-185369047D02*
X89073866Y-185369047D01*
X89073866Y-185369047D02*
X89264342Y-185416666D01*
X89264342Y-185416666D02*
X89359580Y-185464285D01*
X89359580Y-185464285D02*
X89407200Y-185511904D01*
X89407200Y-185511904D02*
X89454819Y-185607142D01*
X89454819Y-185607142D02*
X89454819Y-185702380D01*
X89454819Y-185702380D02*
X89407200Y-185797618D01*
X89407200Y-185797618D02*
X89359580Y-185845237D01*
X89359580Y-185845237D02*
X89264342Y-185892856D01*
X89264342Y-185892856D02*
X89073866Y-185940475D01*
X89073866Y-185940475D02*
X88835771Y-185940475D01*
X88835771Y-185940475D02*
X88645295Y-185892856D01*
X88645295Y-185892856D02*
X88550057Y-185845237D01*
X88550057Y-185845237D02*
X88502438Y-185797618D01*
X88502438Y-185797618D02*
X88454819Y-185702380D01*
X88454819Y-184749999D02*
X88454819Y-184654761D01*
X88454819Y-184654761D02*
X88502438Y-184559523D01*
X88502438Y-184559523D02*
X88550057Y-184511904D01*
X88550057Y-184511904D02*
X88645295Y-184464285D01*
X88645295Y-184464285D02*
X88835771Y-184416666D01*
X88835771Y-184416666D02*
X89073866Y-184416666D01*
X89073866Y-184416666D02*
X89264342Y-184464285D01*
X89264342Y-184464285D02*
X89359580Y-184511904D01*
X89359580Y-184511904D02*
X89407200Y-184559523D01*
X89407200Y-184559523D02*
X89454819Y-184654761D01*
X89454819Y-184654761D02*
X89454819Y-184749999D01*
X89454819Y-184749999D02*
X89407200Y-184845237D01*
X89407200Y-184845237D02*
X89359580Y-184892856D01*
X89359580Y-184892856D02*
X89264342Y-184940475D01*
X89264342Y-184940475D02*
X89073866Y-184988094D01*
X89073866Y-184988094D02*
X88835771Y-184988094D01*
X88835771Y-184988094D02*
X88645295Y-184940475D01*
X88645295Y-184940475D02*
X88550057Y-184892856D01*
X88550057Y-184892856D02*
X88502438Y-184845237D01*
X88502438Y-184845237D02*
X88454819Y-184749999D01*
X89454819Y-183988094D02*
X88454819Y-183988094D01*
X89073866Y-183892856D02*
X89454819Y-183607142D01*
X88788152Y-183607142D02*
X89169104Y-183988094D01*
X80702380Y-174704819D02*
X80892856Y-174704819D01*
X80892856Y-174704819D02*
X80982141Y-174752438D01*
X80982141Y-174752438D02*
X81065475Y-174847676D01*
X81065475Y-174847676D02*
X81089284Y-175038152D01*
X81089284Y-175038152D02*
X81047618Y-175371485D01*
X81047618Y-175371485D02*
X80976189Y-175561961D01*
X80976189Y-175561961D02*
X80869046Y-175657200D01*
X80869046Y-175657200D02*
X80767856Y-175704819D01*
X80767856Y-175704819D02*
X80577380Y-175704819D01*
X80577380Y-175704819D02*
X80488094Y-175657200D01*
X80488094Y-175657200D02*
X80404761Y-175561961D01*
X80404761Y-175561961D02*
X80380951Y-175371485D01*
X80380951Y-175371485D02*
X80422618Y-175038152D01*
X80422618Y-175038152D02*
X80494046Y-174847676D01*
X80494046Y-174847676D02*
X80601189Y-174752438D01*
X80601189Y-174752438D02*
X80702380Y-174704819D01*
X81374999Y-175038152D02*
X81755951Y-175038152D01*
X81434522Y-175704819D02*
X81541665Y-174847676D01*
X81541665Y-174847676D02*
X81601189Y-174752438D01*
X81601189Y-174752438D02*
X81702380Y-174704819D01*
X81702380Y-174704819D02*
X81797618Y-174704819D01*
X81946428Y-175038152D02*
X82327380Y-175038152D01*
X82005951Y-175704819D02*
X82113094Y-174847676D01*
X82113094Y-174847676D02*
X82172618Y-174752438D01*
X82172618Y-174752438D02*
X82273809Y-174704819D01*
X82273809Y-174704819D02*
X82369047Y-174704819D01*
X82535714Y-175657200D02*
X82624999Y-175704819D01*
X82624999Y-175704819D02*
X82815476Y-175704819D01*
X82815476Y-175704819D02*
X82916666Y-175657200D01*
X82916666Y-175657200D02*
X82976190Y-175561961D01*
X82976190Y-175561961D02*
X82982142Y-175514342D01*
X82982142Y-175514342D02*
X82946428Y-175419104D01*
X82946428Y-175419104D02*
X82857142Y-175371485D01*
X82857142Y-175371485D02*
X82714285Y-175371485D01*
X82714285Y-175371485D02*
X82624999Y-175323866D01*
X82624999Y-175323866D02*
X82589285Y-175228628D01*
X82589285Y-175228628D02*
X82595238Y-175181009D01*
X82595238Y-175181009D02*
X82654761Y-175085771D01*
X82654761Y-175085771D02*
X82755952Y-175038152D01*
X82755952Y-175038152D02*
X82898809Y-175038152D01*
X82898809Y-175038152D02*
X82988095Y-175085771D01*
X83773809Y-175657200D02*
X83672619Y-175704819D01*
X83672619Y-175704819D02*
X83482142Y-175704819D01*
X83482142Y-175704819D02*
X83392857Y-175657200D01*
X83392857Y-175657200D02*
X83357142Y-175561961D01*
X83357142Y-175561961D02*
X83404762Y-175181009D01*
X83404762Y-175181009D02*
X83464285Y-175085771D01*
X83464285Y-175085771D02*
X83565476Y-175038152D01*
X83565476Y-175038152D02*
X83755952Y-175038152D01*
X83755952Y-175038152D02*
X83845238Y-175085771D01*
X83845238Y-175085771D02*
X83880952Y-175181009D01*
X83880952Y-175181009D02*
X83869047Y-175276247D01*
X83869047Y-175276247D02*
X83380952Y-175371485D01*
X84184524Y-175038152D02*
X84565476Y-175038152D01*
X84369047Y-174704819D02*
X84261905Y-175561961D01*
X84261905Y-175561961D02*
X84297619Y-175657200D01*
X84297619Y-175657200D02*
X84386905Y-175704819D01*
X84386905Y-175704819D02*
X84482143Y-175704819D01*
X86160715Y-175609580D02*
X86107143Y-175657200D01*
X86107143Y-175657200D02*
X85958334Y-175704819D01*
X85958334Y-175704819D02*
X85863096Y-175704819D01*
X85863096Y-175704819D02*
X85726191Y-175657200D01*
X85726191Y-175657200D02*
X85642858Y-175561961D01*
X85642858Y-175561961D02*
X85607143Y-175466723D01*
X85607143Y-175466723D02*
X85583334Y-175276247D01*
X85583334Y-175276247D02*
X85601191Y-175133390D01*
X85601191Y-175133390D02*
X85672619Y-174942914D01*
X85672619Y-174942914D02*
X85732143Y-174847676D01*
X85732143Y-174847676D02*
X85839286Y-174752438D01*
X85839286Y-174752438D02*
X85988096Y-174704819D01*
X85988096Y-174704819D02*
X86083334Y-174704819D01*
X86083334Y-174704819D02*
X86220239Y-174752438D01*
X86220239Y-174752438D02*
X86261905Y-174800057D01*
X70107142Y-177454819D02*
X69773809Y-176978628D01*
X69535714Y-177454819D02*
X69535714Y-176454819D01*
X69535714Y-176454819D02*
X69916666Y-176454819D01*
X69916666Y-176454819D02*
X70011904Y-176502438D01*
X70011904Y-176502438D02*
X70059523Y-176550057D01*
X70059523Y-176550057D02*
X70107142Y-176645295D01*
X70107142Y-176645295D02*
X70107142Y-176788152D01*
X70107142Y-176788152D02*
X70059523Y-176883390D01*
X70059523Y-176883390D02*
X70011904Y-176931009D01*
X70011904Y-176931009D02*
X69916666Y-176978628D01*
X69916666Y-176978628D02*
X69535714Y-176978628D01*
X70964285Y-176454819D02*
X70773809Y-176454819D01*
X70773809Y-176454819D02*
X70678571Y-176502438D01*
X70678571Y-176502438D02*
X70630952Y-176550057D01*
X70630952Y-176550057D02*
X70535714Y-176692914D01*
X70535714Y-176692914D02*
X70488095Y-176883390D01*
X70488095Y-176883390D02*
X70488095Y-177264342D01*
X70488095Y-177264342D02*
X70535714Y-177359580D01*
X70535714Y-177359580D02*
X70583333Y-177407200D01*
X70583333Y-177407200D02*
X70678571Y-177454819D01*
X70678571Y-177454819D02*
X70869047Y-177454819D01*
X70869047Y-177454819D02*
X70964285Y-177407200D01*
X70964285Y-177407200D02*
X71011904Y-177359580D01*
X71011904Y-177359580D02*
X71059523Y-177264342D01*
X71059523Y-177264342D02*
X71059523Y-177026247D01*
X71059523Y-177026247D02*
X71011904Y-176931009D01*
X71011904Y-176931009D02*
X70964285Y-176883390D01*
X70964285Y-176883390D02*
X70869047Y-176835771D01*
X70869047Y-176835771D02*
X70678571Y-176835771D01*
X70678571Y-176835771D02*
X70583333Y-176883390D01*
X70583333Y-176883390D02*
X70535714Y-176931009D01*
X70535714Y-176931009D02*
X70488095Y-177026247D01*
X72011904Y-177454819D02*
X71440476Y-177454819D01*
X71726190Y-177454819D02*
X71726190Y-176454819D01*
X71726190Y-176454819D02*
X71630952Y-176597676D01*
X71630952Y-176597676D02*
X71535714Y-176692914D01*
X71535714Y-176692914D02*
X71440476Y-176740533D01*
X71204819Y-182619047D02*
X71204819Y-183190475D01*
X71204819Y-182904761D02*
X70204819Y-182904761D01*
X70204819Y-182904761D02*
X70347676Y-182999999D01*
X70347676Y-182999999D02*
X70442914Y-183095237D01*
X70442914Y-183095237D02*
X70490533Y-183190475D01*
X71204819Y-182190475D02*
X70204819Y-182190475D01*
X70823866Y-182095237D02*
X71204819Y-181809523D01*
X70538152Y-181809523D02*
X70919104Y-182190475D01*
X73574819Y-63142857D02*
X73098628Y-63476190D01*
X73574819Y-63714285D02*
X72574819Y-63714285D01*
X72574819Y-63714285D02*
X72574819Y-63333333D01*
X72574819Y-63333333D02*
X72622438Y-63238095D01*
X72622438Y-63238095D02*
X72670057Y-63190476D01*
X72670057Y-63190476D02*
X72765295Y-63142857D01*
X72765295Y-63142857D02*
X72908152Y-63142857D01*
X72908152Y-63142857D02*
X73003390Y-63190476D01*
X73003390Y-63190476D02*
X73051009Y-63238095D01*
X73051009Y-63238095D02*
X73098628Y-63333333D01*
X73098628Y-63333333D02*
X73098628Y-63714285D01*
X72574819Y-62238095D02*
X72574819Y-62714285D01*
X72574819Y-62714285D02*
X73051009Y-62761904D01*
X73051009Y-62761904D02*
X73003390Y-62714285D01*
X73003390Y-62714285D02*
X72955771Y-62619047D01*
X72955771Y-62619047D02*
X72955771Y-62380952D01*
X72955771Y-62380952D02*
X73003390Y-62285714D01*
X73003390Y-62285714D02*
X73051009Y-62238095D01*
X73051009Y-62238095D02*
X73146247Y-62190476D01*
X73146247Y-62190476D02*
X73384342Y-62190476D01*
X73384342Y-62190476D02*
X73479580Y-62238095D01*
X73479580Y-62238095D02*
X73527200Y-62285714D01*
X73527200Y-62285714D02*
X73574819Y-62380952D01*
X73574819Y-62380952D02*
X73574819Y-62619047D01*
X73574819Y-62619047D02*
X73527200Y-62714285D01*
X73527200Y-62714285D02*
X73479580Y-62761904D01*
X72574819Y-61857142D02*
X72574819Y-61190476D01*
X72574819Y-61190476D02*
X73574819Y-61619047D01*
X71204819Y-62619047D02*
X71204819Y-63190475D01*
X71204819Y-62904761D02*
X70204819Y-62904761D01*
X70204819Y-62904761D02*
X70347676Y-62999999D01*
X70347676Y-62999999D02*
X70442914Y-63095237D01*
X70442914Y-63095237D02*
X70490533Y-63190475D01*
X71204819Y-62190475D02*
X70204819Y-62190475D01*
X70823866Y-62095237D02*
X71204819Y-61809523D01*
X70538152Y-61809523D02*
X70919104Y-62190475D01*
X94666666Y-137124819D02*
X94666666Y-137839104D01*
X94666666Y-137839104D02*
X94619047Y-137981961D01*
X94619047Y-137981961D02*
X94523809Y-138077200D01*
X94523809Y-138077200D02*
X94380952Y-138124819D01*
X94380952Y-138124819D02*
X94285714Y-138124819D01*
X95333333Y-137124819D02*
X95428571Y-137124819D01*
X95428571Y-137124819D02*
X95523809Y-137172438D01*
X95523809Y-137172438D02*
X95571428Y-137220057D01*
X95571428Y-137220057D02*
X95619047Y-137315295D01*
X95619047Y-137315295D02*
X95666666Y-137505771D01*
X95666666Y-137505771D02*
X95666666Y-137743866D01*
X95666666Y-137743866D02*
X95619047Y-137934342D01*
X95619047Y-137934342D02*
X95571428Y-138029580D01*
X95571428Y-138029580D02*
X95523809Y-138077200D01*
X95523809Y-138077200D02*
X95428571Y-138124819D01*
X95428571Y-138124819D02*
X95333333Y-138124819D01*
X95333333Y-138124819D02*
X95238095Y-138077200D01*
X95238095Y-138077200D02*
X95190476Y-138029580D01*
X95190476Y-138029580D02*
X95142857Y-137934342D01*
X95142857Y-137934342D02*
X95095238Y-137743866D01*
X95095238Y-137743866D02*
X95095238Y-137505771D01*
X95095238Y-137505771D02*
X95142857Y-137315295D01*
X95142857Y-137315295D02*
X95190476Y-137220057D01*
X95190476Y-137220057D02*
X95238095Y-137172438D01*
X95238095Y-137172438D02*
X95333333Y-137124819D01*
X87574819Y-149142857D02*
X87098628Y-149476190D01*
X87574819Y-149714285D02*
X86574819Y-149714285D01*
X86574819Y-149714285D02*
X86574819Y-149333333D01*
X86574819Y-149333333D02*
X86622438Y-149238095D01*
X86622438Y-149238095D02*
X86670057Y-149190476D01*
X86670057Y-149190476D02*
X86765295Y-149142857D01*
X86765295Y-149142857D02*
X86908152Y-149142857D01*
X86908152Y-149142857D02*
X87003390Y-149190476D01*
X87003390Y-149190476D02*
X87051009Y-149238095D01*
X87051009Y-149238095D02*
X87098628Y-149333333D01*
X87098628Y-149333333D02*
X87098628Y-149714285D01*
X86574819Y-148238095D02*
X86574819Y-148714285D01*
X86574819Y-148714285D02*
X87051009Y-148761904D01*
X87051009Y-148761904D02*
X87003390Y-148714285D01*
X87003390Y-148714285D02*
X86955771Y-148619047D01*
X86955771Y-148619047D02*
X86955771Y-148380952D01*
X86955771Y-148380952D02*
X87003390Y-148285714D01*
X87003390Y-148285714D02*
X87051009Y-148238095D01*
X87051009Y-148238095D02*
X87146247Y-148190476D01*
X87146247Y-148190476D02*
X87384342Y-148190476D01*
X87384342Y-148190476D02*
X87479580Y-148238095D01*
X87479580Y-148238095D02*
X87527200Y-148285714D01*
X87527200Y-148285714D02*
X87574819Y-148380952D01*
X87574819Y-148380952D02*
X87574819Y-148619047D01*
X87574819Y-148619047D02*
X87527200Y-148714285D01*
X87527200Y-148714285D02*
X87479580Y-148761904D01*
X87003390Y-147619047D02*
X86955771Y-147714285D01*
X86955771Y-147714285D02*
X86908152Y-147761904D01*
X86908152Y-147761904D02*
X86812914Y-147809523D01*
X86812914Y-147809523D02*
X86765295Y-147809523D01*
X86765295Y-147809523D02*
X86670057Y-147761904D01*
X86670057Y-147761904D02*
X86622438Y-147714285D01*
X86622438Y-147714285D02*
X86574819Y-147619047D01*
X86574819Y-147619047D02*
X86574819Y-147428571D01*
X86574819Y-147428571D02*
X86622438Y-147333333D01*
X86622438Y-147333333D02*
X86670057Y-147285714D01*
X86670057Y-147285714D02*
X86765295Y-147238095D01*
X86765295Y-147238095D02*
X86812914Y-147238095D01*
X86812914Y-147238095D02*
X86908152Y-147285714D01*
X86908152Y-147285714D02*
X86955771Y-147333333D01*
X86955771Y-147333333D02*
X87003390Y-147428571D01*
X87003390Y-147428571D02*
X87003390Y-147619047D01*
X87003390Y-147619047D02*
X87051009Y-147714285D01*
X87051009Y-147714285D02*
X87098628Y-147761904D01*
X87098628Y-147761904D02*
X87193866Y-147809523D01*
X87193866Y-147809523D02*
X87384342Y-147809523D01*
X87384342Y-147809523D02*
X87479580Y-147761904D01*
X87479580Y-147761904D02*
X87527200Y-147714285D01*
X87527200Y-147714285D02*
X87574819Y-147619047D01*
X87574819Y-147619047D02*
X87574819Y-147428571D01*
X87574819Y-147428571D02*
X87527200Y-147333333D01*
X87527200Y-147333333D02*
X87479580Y-147285714D01*
X87479580Y-147285714D02*
X87384342Y-147238095D01*
X87384342Y-147238095D02*
X87193866Y-147238095D01*
X87193866Y-147238095D02*
X87098628Y-147285714D01*
X87098628Y-147285714D02*
X87051009Y-147333333D01*
X87051009Y-147333333D02*
X87003390Y-147428571D01*
X85204819Y-148619047D02*
X85204819Y-149190475D01*
X85204819Y-148904761D02*
X84204819Y-148904761D01*
X84204819Y-148904761D02*
X84347676Y-148999999D01*
X84347676Y-148999999D02*
X84442914Y-149095237D01*
X84442914Y-149095237D02*
X84490533Y-149190475D01*
X85204819Y-148190475D02*
X84204819Y-148190475D01*
X84823866Y-148095237D02*
X85204819Y-147809523D01*
X84538152Y-147809523D02*
X84919104Y-148190475D01*
X73414819Y-134988094D02*
X72414819Y-134988094D01*
X72414819Y-134988094D02*
X72414819Y-134749999D01*
X72414819Y-134749999D02*
X72462438Y-134607142D01*
X72462438Y-134607142D02*
X72557676Y-134511904D01*
X72557676Y-134511904D02*
X72652914Y-134464285D01*
X72652914Y-134464285D02*
X72843390Y-134416666D01*
X72843390Y-134416666D02*
X72986247Y-134416666D01*
X72986247Y-134416666D02*
X73176723Y-134464285D01*
X73176723Y-134464285D02*
X73271961Y-134511904D01*
X73271961Y-134511904D02*
X73367200Y-134607142D01*
X73367200Y-134607142D02*
X73414819Y-134749999D01*
X73414819Y-134749999D02*
X73414819Y-134988094D01*
X72414819Y-134083332D02*
X72414819Y-133416666D01*
X72414819Y-133416666D02*
X73414819Y-133845237D01*
X82607142Y-52824819D02*
X82273809Y-52348628D01*
X82035714Y-52824819D02*
X82035714Y-51824819D01*
X82035714Y-51824819D02*
X82416666Y-51824819D01*
X82416666Y-51824819D02*
X82511904Y-51872438D01*
X82511904Y-51872438D02*
X82559523Y-51920057D01*
X82559523Y-51920057D02*
X82607142Y-52015295D01*
X82607142Y-52015295D02*
X82607142Y-52158152D01*
X82607142Y-52158152D02*
X82559523Y-52253390D01*
X82559523Y-52253390D02*
X82511904Y-52301009D01*
X82511904Y-52301009D02*
X82416666Y-52348628D01*
X82416666Y-52348628D02*
X82035714Y-52348628D01*
X83511904Y-51824819D02*
X83035714Y-51824819D01*
X83035714Y-51824819D02*
X82988095Y-52301009D01*
X82988095Y-52301009D02*
X83035714Y-52253390D01*
X83035714Y-52253390D02*
X83130952Y-52205771D01*
X83130952Y-52205771D02*
X83369047Y-52205771D01*
X83369047Y-52205771D02*
X83464285Y-52253390D01*
X83464285Y-52253390D02*
X83511904Y-52301009D01*
X83511904Y-52301009D02*
X83559523Y-52396247D01*
X83559523Y-52396247D02*
X83559523Y-52634342D01*
X83559523Y-52634342D02*
X83511904Y-52729580D01*
X83511904Y-52729580D02*
X83464285Y-52777200D01*
X83464285Y-52777200D02*
X83369047Y-52824819D01*
X83369047Y-52824819D02*
X83130952Y-52824819D01*
X83130952Y-52824819D02*
X83035714Y-52777200D01*
X83035714Y-52777200D02*
X82988095Y-52729580D01*
X83892857Y-51824819D02*
X84511904Y-51824819D01*
X84511904Y-51824819D02*
X84178571Y-52205771D01*
X84178571Y-52205771D02*
X84321428Y-52205771D01*
X84321428Y-52205771D02*
X84416666Y-52253390D01*
X84416666Y-52253390D02*
X84464285Y-52301009D01*
X84464285Y-52301009D02*
X84511904Y-52396247D01*
X84511904Y-52396247D02*
X84511904Y-52634342D01*
X84511904Y-52634342D02*
X84464285Y-52729580D01*
X84464285Y-52729580D02*
X84416666Y-52777200D01*
X84416666Y-52777200D02*
X84321428Y-52824819D01*
X84321428Y-52824819D02*
X84035714Y-52824819D01*
X84035714Y-52824819D02*
X83940476Y-52777200D01*
X83940476Y-52777200D02*
X83892857Y-52729580D01*
X82083333Y-49550057D02*
X82130952Y-49502438D01*
X82130952Y-49502438D02*
X82226190Y-49454819D01*
X82226190Y-49454819D02*
X82464285Y-49454819D01*
X82464285Y-49454819D02*
X82559523Y-49502438D01*
X82559523Y-49502438D02*
X82607142Y-49550057D01*
X82607142Y-49550057D02*
X82654761Y-49645295D01*
X82654761Y-49645295D02*
X82654761Y-49740533D01*
X82654761Y-49740533D02*
X82607142Y-49883390D01*
X82607142Y-49883390D02*
X82035714Y-50454819D01*
X82035714Y-50454819D02*
X82654761Y-50454819D01*
X83273809Y-49454819D02*
X83369047Y-49454819D01*
X83369047Y-49454819D02*
X83464285Y-49502438D01*
X83464285Y-49502438D02*
X83511904Y-49550057D01*
X83511904Y-49550057D02*
X83559523Y-49645295D01*
X83559523Y-49645295D02*
X83607142Y-49835771D01*
X83607142Y-49835771D02*
X83607142Y-50073866D01*
X83607142Y-50073866D02*
X83559523Y-50264342D01*
X83559523Y-50264342D02*
X83511904Y-50359580D01*
X83511904Y-50359580D02*
X83464285Y-50407200D01*
X83464285Y-50407200D02*
X83369047Y-50454819D01*
X83369047Y-50454819D02*
X83273809Y-50454819D01*
X83273809Y-50454819D02*
X83178571Y-50407200D01*
X83178571Y-50407200D02*
X83130952Y-50359580D01*
X83130952Y-50359580D02*
X83083333Y-50264342D01*
X83083333Y-50264342D02*
X83035714Y-50073866D01*
X83035714Y-50073866D02*
X83035714Y-49835771D01*
X83035714Y-49835771D02*
X83083333Y-49645295D01*
X83083333Y-49645295D02*
X83130952Y-49550057D01*
X83130952Y-49550057D02*
X83178571Y-49502438D01*
X83178571Y-49502438D02*
X83273809Y-49454819D01*
X84035714Y-50454819D02*
X84035714Y-49454819D01*
X84130952Y-50073866D02*
X84416666Y-50454819D01*
X84416666Y-49788152D02*
X84035714Y-50169104D01*
X73666667Y-201407200D02*
X73809524Y-201454819D01*
X73809524Y-201454819D02*
X74047619Y-201454819D01*
X74047619Y-201454819D02*
X74142857Y-201407200D01*
X74142857Y-201407200D02*
X74190476Y-201359580D01*
X74190476Y-201359580D02*
X74238095Y-201264342D01*
X74238095Y-201264342D02*
X74238095Y-201169104D01*
X74238095Y-201169104D02*
X74190476Y-201073866D01*
X74190476Y-201073866D02*
X74142857Y-201026247D01*
X74142857Y-201026247D02*
X74047619Y-200978628D01*
X74047619Y-200978628D02*
X73857143Y-200931009D01*
X73857143Y-200931009D02*
X73761905Y-200883390D01*
X73761905Y-200883390D02*
X73714286Y-200835771D01*
X73714286Y-200835771D02*
X73666667Y-200740533D01*
X73666667Y-200740533D02*
X73666667Y-200645295D01*
X73666667Y-200645295D02*
X73714286Y-200550057D01*
X73714286Y-200550057D02*
X73761905Y-200502438D01*
X73761905Y-200502438D02*
X73857143Y-200454819D01*
X73857143Y-200454819D02*
X74095238Y-200454819D01*
X74095238Y-200454819D02*
X74238095Y-200502438D01*
X74571429Y-200454819D02*
X74809524Y-201454819D01*
X74809524Y-201454819D02*
X75000000Y-200740533D01*
X75000000Y-200740533D02*
X75190476Y-201454819D01*
X75190476Y-201454819D02*
X75428572Y-200454819D01*
X75714286Y-200454819D02*
X76333333Y-200454819D01*
X76333333Y-200454819D02*
X76000000Y-200835771D01*
X76000000Y-200835771D02*
X76142857Y-200835771D01*
X76142857Y-200835771D02*
X76238095Y-200883390D01*
X76238095Y-200883390D02*
X76285714Y-200931009D01*
X76285714Y-200931009D02*
X76333333Y-201026247D01*
X76333333Y-201026247D02*
X76333333Y-201264342D01*
X76333333Y-201264342D02*
X76285714Y-201359580D01*
X76285714Y-201359580D02*
X76238095Y-201407200D01*
X76238095Y-201407200D02*
X76142857Y-201454819D01*
X76142857Y-201454819D02*
X75857143Y-201454819D01*
X75857143Y-201454819D02*
X75761905Y-201407200D01*
X75761905Y-201407200D02*
X75714286Y-201359580D01*
X80407200Y-211869047D02*
X80454819Y-211726190D01*
X80454819Y-211726190D02*
X80454819Y-211488095D01*
X80454819Y-211488095D02*
X80407200Y-211392857D01*
X80407200Y-211392857D02*
X80359580Y-211345238D01*
X80359580Y-211345238D02*
X80264342Y-211297619D01*
X80264342Y-211297619D02*
X80169104Y-211297619D01*
X80169104Y-211297619D02*
X80073866Y-211345238D01*
X80073866Y-211345238D02*
X80026247Y-211392857D01*
X80026247Y-211392857D02*
X79978628Y-211488095D01*
X79978628Y-211488095D02*
X79931009Y-211678571D01*
X79931009Y-211678571D02*
X79883390Y-211773809D01*
X79883390Y-211773809D02*
X79835771Y-211821428D01*
X79835771Y-211821428D02*
X79740533Y-211869047D01*
X79740533Y-211869047D02*
X79645295Y-211869047D01*
X79645295Y-211869047D02*
X79550057Y-211821428D01*
X79550057Y-211821428D02*
X79502438Y-211773809D01*
X79502438Y-211773809D02*
X79454819Y-211678571D01*
X79454819Y-211678571D02*
X79454819Y-211440476D01*
X79454819Y-211440476D02*
X79502438Y-211297619D01*
X79454819Y-210964285D02*
X80454819Y-210726190D01*
X80454819Y-210726190D02*
X79740533Y-210535714D01*
X79740533Y-210535714D02*
X80454819Y-210345238D01*
X80454819Y-210345238D02*
X79454819Y-210107143D01*
X80550057Y-209964286D02*
X80550057Y-209202381D01*
X80454819Y-208964285D02*
X79454819Y-208964285D01*
X79454819Y-208964285D02*
X79454819Y-208726190D01*
X79454819Y-208726190D02*
X79502438Y-208583333D01*
X79502438Y-208583333D02*
X79597676Y-208488095D01*
X79597676Y-208488095D02*
X79692914Y-208440476D01*
X79692914Y-208440476D02*
X79883390Y-208392857D01*
X79883390Y-208392857D02*
X80026247Y-208392857D01*
X80026247Y-208392857D02*
X80216723Y-208440476D01*
X80216723Y-208440476D02*
X80311961Y-208488095D01*
X80311961Y-208488095D02*
X80407200Y-208583333D01*
X80407200Y-208583333D02*
X80454819Y-208726190D01*
X80454819Y-208726190D02*
X80454819Y-208964285D01*
X80454819Y-207964285D02*
X79454819Y-207964285D01*
X79454819Y-207964285D02*
X79454819Y-207583333D01*
X79454819Y-207583333D02*
X79502438Y-207488095D01*
X79502438Y-207488095D02*
X79550057Y-207440476D01*
X79550057Y-207440476D02*
X79645295Y-207392857D01*
X79645295Y-207392857D02*
X79788152Y-207392857D01*
X79788152Y-207392857D02*
X79883390Y-207440476D01*
X79883390Y-207440476D02*
X79931009Y-207488095D01*
X79931009Y-207488095D02*
X79978628Y-207583333D01*
X79978628Y-207583333D02*
X79978628Y-207964285D01*
X80454819Y-206964285D02*
X79454819Y-206964285D01*
X79454819Y-206964285D02*
X79454819Y-206726190D01*
X79454819Y-206726190D02*
X79502438Y-206583333D01*
X79502438Y-206583333D02*
X79597676Y-206488095D01*
X79597676Y-206488095D02*
X79692914Y-206440476D01*
X79692914Y-206440476D02*
X79883390Y-206392857D01*
X79883390Y-206392857D02*
X80026247Y-206392857D01*
X80026247Y-206392857D02*
X80216723Y-206440476D01*
X80216723Y-206440476D02*
X80311961Y-206488095D01*
X80311961Y-206488095D02*
X80407200Y-206583333D01*
X80407200Y-206583333D02*
X80454819Y-206726190D01*
X80454819Y-206726190D02*
X80454819Y-206964285D01*
X79454819Y-206107142D02*
X79454819Y-205535714D01*
X80454819Y-205821428D02*
X79454819Y-205821428D01*
X72613094Y-216954819D02*
X72738094Y-215954819D01*
X72738094Y-215954819D02*
X72982142Y-216669104D01*
X72982142Y-216669104D02*
X73404761Y-215954819D01*
X73404761Y-215954819D02*
X73279761Y-216954819D01*
X74267856Y-216288152D02*
X74184523Y-216954819D01*
X73839285Y-216288152D02*
X73773809Y-216811961D01*
X73773809Y-216811961D02*
X73809523Y-216907200D01*
X73809523Y-216907200D02*
X73898809Y-216954819D01*
X73898809Y-216954819D02*
X74041666Y-216954819D01*
X74041666Y-216954819D02*
X74142856Y-216907200D01*
X74142856Y-216907200D02*
X74196428Y-216859580D01*
X74601190Y-216288152D02*
X74982142Y-216288152D01*
X74785713Y-215954819D02*
X74678571Y-216811961D01*
X74678571Y-216811961D02*
X74714285Y-216907200D01*
X74714285Y-216907200D02*
X74803571Y-216954819D01*
X74803571Y-216954819D02*
X74898809Y-216954819D01*
X75619047Y-216907200D02*
X75517857Y-216954819D01*
X75517857Y-216954819D02*
X75327380Y-216954819D01*
X75327380Y-216954819D02*
X75238095Y-216907200D01*
X75238095Y-216907200D02*
X75202380Y-216811961D01*
X75202380Y-216811961D02*
X75250000Y-216431009D01*
X75250000Y-216431009D02*
X75309523Y-216335771D01*
X75309523Y-216335771D02*
X75410714Y-216288152D01*
X75410714Y-216288152D02*
X75601190Y-216288152D01*
X75601190Y-216288152D02*
X75690476Y-216335771D01*
X75690476Y-216335771D02*
X75726190Y-216431009D01*
X75726190Y-216431009D02*
X75714285Y-216526247D01*
X75714285Y-216526247D02*
X75226190Y-216621485D01*
X77434524Y-216859580D02*
X77380952Y-216907200D01*
X77380952Y-216907200D02*
X77232143Y-216954819D01*
X77232143Y-216954819D02*
X77136905Y-216954819D01*
X77136905Y-216954819D02*
X77000000Y-216907200D01*
X77000000Y-216907200D02*
X76916667Y-216811961D01*
X76916667Y-216811961D02*
X76880952Y-216716723D01*
X76880952Y-216716723D02*
X76857143Y-216526247D01*
X76857143Y-216526247D02*
X76875000Y-216383390D01*
X76875000Y-216383390D02*
X76946428Y-216192914D01*
X76946428Y-216192914D02*
X77005952Y-216097676D01*
X77005952Y-216097676D02*
X77113095Y-216002438D01*
X77113095Y-216002438D02*
X77261905Y-215954819D01*
X77261905Y-215954819D02*
X77357143Y-215954819D01*
X77357143Y-215954819D02*
X77494048Y-216002438D01*
X77494048Y-216002438D02*
X77535714Y-216050057D01*
X73414819Y-195238094D02*
X72414819Y-195238094D01*
X72414819Y-195238094D02*
X72414819Y-194999999D01*
X72414819Y-194999999D02*
X72462438Y-194857142D01*
X72462438Y-194857142D02*
X72557676Y-194761904D01*
X72557676Y-194761904D02*
X72652914Y-194714285D01*
X72652914Y-194714285D02*
X72843390Y-194666666D01*
X72843390Y-194666666D02*
X72986247Y-194666666D01*
X72986247Y-194666666D02*
X73176723Y-194714285D01*
X73176723Y-194714285D02*
X73271961Y-194761904D01*
X73271961Y-194761904D02*
X73367200Y-194857142D01*
X73367200Y-194857142D02*
X73414819Y-194999999D01*
X73414819Y-194999999D02*
X73414819Y-195238094D01*
X72843390Y-194095237D02*
X72795771Y-194190475D01*
X72795771Y-194190475D02*
X72748152Y-194238094D01*
X72748152Y-194238094D02*
X72652914Y-194285713D01*
X72652914Y-194285713D02*
X72605295Y-194285713D01*
X72605295Y-194285713D02*
X72510057Y-194238094D01*
X72510057Y-194238094D02*
X72462438Y-194190475D01*
X72462438Y-194190475D02*
X72414819Y-194095237D01*
X72414819Y-194095237D02*
X72414819Y-193904761D01*
X72414819Y-193904761D02*
X72462438Y-193809523D01*
X72462438Y-193809523D02*
X72510057Y-193761904D01*
X72510057Y-193761904D02*
X72605295Y-193714285D01*
X72605295Y-193714285D02*
X72652914Y-193714285D01*
X72652914Y-193714285D02*
X72748152Y-193761904D01*
X72748152Y-193761904D02*
X72795771Y-193809523D01*
X72795771Y-193809523D02*
X72843390Y-193904761D01*
X72843390Y-193904761D02*
X72843390Y-194095237D01*
X72843390Y-194095237D02*
X72891009Y-194190475D01*
X72891009Y-194190475D02*
X72938628Y-194238094D01*
X72938628Y-194238094D02*
X73033866Y-194285713D01*
X73033866Y-194285713D02*
X73224342Y-194285713D01*
X73224342Y-194285713D02*
X73319580Y-194238094D01*
X73319580Y-194238094D02*
X73367200Y-194190475D01*
X73367200Y-194190475D02*
X73414819Y-194095237D01*
X73414819Y-194095237D02*
X73414819Y-193904761D01*
X73414819Y-193904761D02*
X73367200Y-193809523D01*
X73367200Y-193809523D02*
X73319580Y-193761904D01*
X73319580Y-193761904D02*
X73224342Y-193714285D01*
X73224342Y-193714285D02*
X73033866Y-193714285D01*
X73033866Y-193714285D02*
X72938628Y-193761904D01*
X72938628Y-193761904D02*
X72891009Y-193809523D01*
X72891009Y-193809523D02*
X72843390Y-193904761D01*
X78004819Y-65695238D02*
X77528628Y-66028571D01*
X78004819Y-66266666D02*
X77004819Y-66266666D01*
X77004819Y-66266666D02*
X77004819Y-65885714D01*
X77004819Y-65885714D02*
X77052438Y-65790476D01*
X77052438Y-65790476D02*
X77100057Y-65742857D01*
X77100057Y-65742857D02*
X77195295Y-65695238D01*
X77195295Y-65695238D02*
X77338152Y-65695238D01*
X77338152Y-65695238D02*
X77433390Y-65742857D01*
X77433390Y-65742857D02*
X77481009Y-65790476D01*
X77481009Y-65790476D02*
X77528628Y-65885714D01*
X77528628Y-65885714D02*
X77528628Y-66266666D01*
X77004819Y-65409523D02*
X78004819Y-65076190D01*
X78004819Y-65076190D02*
X77004819Y-64742857D01*
X77338152Y-63980952D02*
X78004819Y-63980952D01*
X76957200Y-64219047D02*
X77671485Y-64457142D01*
X77671485Y-64457142D02*
X77671485Y-63838095D01*
X89454819Y-65821428D02*
X89454819Y-66392856D01*
X89454819Y-66107142D02*
X88454819Y-66107142D01*
X88454819Y-66107142D02*
X88597676Y-66202380D01*
X88597676Y-66202380D02*
X88692914Y-66297618D01*
X88692914Y-66297618D02*
X88740533Y-66392856D01*
X88454819Y-65202380D02*
X88454819Y-65107142D01*
X88454819Y-65107142D02*
X88502438Y-65011904D01*
X88502438Y-65011904D02*
X88550057Y-64964285D01*
X88550057Y-64964285D02*
X88645295Y-64916666D01*
X88645295Y-64916666D02*
X88835771Y-64869047D01*
X88835771Y-64869047D02*
X89073866Y-64869047D01*
X89073866Y-64869047D02*
X89264342Y-64916666D01*
X89264342Y-64916666D02*
X89359580Y-64964285D01*
X89359580Y-64964285D02*
X89407200Y-65011904D01*
X89407200Y-65011904D02*
X89454819Y-65107142D01*
X89454819Y-65107142D02*
X89454819Y-65202380D01*
X89454819Y-65202380D02*
X89407200Y-65297618D01*
X89407200Y-65297618D02*
X89359580Y-65345237D01*
X89359580Y-65345237D02*
X89264342Y-65392856D01*
X89264342Y-65392856D02*
X89073866Y-65440475D01*
X89073866Y-65440475D02*
X88835771Y-65440475D01*
X88835771Y-65440475D02*
X88645295Y-65392856D01*
X88645295Y-65392856D02*
X88550057Y-65345237D01*
X88550057Y-65345237D02*
X88502438Y-65297618D01*
X88502438Y-65297618D02*
X88454819Y-65202380D01*
X88454819Y-64249999D02*
X88454819Y-64154761D01*
X88454819Y-64154761D02*
X88502438Y-64059523D01*
X88502438Y-64059523D02*
X88550057Y-64011904D01*
X88550057Y-64011904D02*
X88645295Y-63964285D01*
X88645295Y-63964285D02*
X88835771Y-63916666D01*
X88835771Y-63916666D02*
X89073866Y-63916666D01*
X89073866Y-63916666D02*
X89264342Y-63964285D01*
X89264342Y-63964285D02*
X89359580Y-64011904D01*
X89359580Y-64011904D02*
X89407200Y-64059523D01*
X89407200Y-64059523D02*
X89454819Y-64154761D01*
X89454819Y-64154761D02*
X89454819Y-64249999D01*
X89454819Y-64249999D02*
X89407200Y-64345237D01*
X89407200Y-64345237D02*
X89359580Y-64392856D01*
X89359580Y-64392856D02*
X89264342Y-64440475D01*
X89264342Y-64440475D02*
X89073866Y-64488094D01*
X89073866Y-64488094D02*
X88835771Y-64488094D01*
X88835771Y-64488094D02*
X88645295Y-64440475D01*
X88645295Y-64440475D02*
X88550057Y-64392856D01*
X88550057Y-64392856D02*
X88502438Y-64345237D01*
X88502438Y-64345237D02*
X88454819Y-64249999D01*
X89454819Y-63488094D02*
X88454819Y-63488094D01*
X89073866Y-63392856D02*
X89454819Y-63107142D01*
X88788152Y-63107142D02*
X89169104Y-63488094D01*
X80773809Y-54204819D02*
X80964285Y-54204819D01*
X80964285Y-54204819D02*
X81053570Y-54252438D01*
X81053570Y-54252438D02*
X81136904Y-54347676D01*
X81136904Y-54347676D02*
X81160713Y-54538152D01*
X81160713Y-54538152D02*
X81119047Y-54871485D01*
X81119047Y-54871485D02*
X81047618Y-55061961D01*
X81047618Y-55061961D02*
X80940475Y-55157200D01*
X80940475Y-55157200D02*
X80839285Y-55204819D01*
X80839285Y-55204819D02*
X80648809Y-55204819D01*
X80648809Y-55204819D02*
X80559523Y-55157200D01*
X80559523Y-55157200D02*
X80476190Y-55061961D01*
X80476190Y-55061961D02*
X80452380Y-54871485D01*
X80452380Y-54871485D02*
X80494047Y-54538152D01*
X80494047Y-54538152D02*
X80565475Y-54347676D01*
X80565475Y-54347676D02*
X80672618Y-54252438D01*
X80672618Y-54252438D02*
X80773809Y-54204819D01*
X81446428Y-54538152D02*
X81827380Y-54538152D01*
X81505951Y-55204819D02*
X81613094Y-54347676D01*
X81613094Y-54347676D02*
X81672618Y-54252438D01*
X81672618Y-54252438D02*
X81773809Y-54204819D01*
X81773809Y-54204819D02*
X81869047Y-54204819D01*
X82017857Y-54538152D02*
X82398809Y-54538152D01*
X82077380Y-55204819D02*
X82184523Y-54347676D01*
X82184523Y-54347676D02*
X82244047Y-54252438D01*
X82244047Y-54252438D02*
X82345238Y-54204819D01*
X82345238Y-54204819D02*
X82440476Y-54204819D01*
X82607143Y-55157200D02*
X82696428Y-55204819D01*
X82696428Y-55204819D02*
X82886905Y-55204819D01*
X82886905Y-55204819D02*
X82988095Y-55157200D01*
X82988095Y-55157200D02*
X83047619Y-55061961D01*
X83047619Y-55061961D02*
X83053571Y-55014342D01*
X83053571Y-55014342D02*
X83017857Y-54919104D01*
X83017857Y-54919104D02*
X82928571Y-54871485D01*
X82928571Y-54871485D02*
X82785714Y-54871485D01*
X82785714Y-54871485D02*
X82696428Y-54823866D01*
X82696428Y-54823866D02*
X82660714Y-54728628D01*
X82660714Y-54728628D02*
X82666667Y-54681009D01*
X82666667Y-54681009D02*
X82726190Y-54585771D01*
X82726190Y-54585771D02*
X82827381Y-54538152D01*
X82827381Y-54538152D02*
X82970238Y-54538152D01*
X82970238Y-54538152D02*
X83059524Y-54585771D01*
X83845238Y-55157200D02*
X83744048Y-55204819D01*
X83744048Y-55204819D02*
X83553571Y-55204819D01*
X83553571Y-55204819D02*
X83464286Y-55157200D01*
X83464286Y-55157200D02*
X83428571Y-55061961D01*
X83428571Y-55061961D02*
X83476191Y-54681009D01*
X83476191Y-54681009D02*
X83535714Y-54585771D01*
X83535714Y-54585771D02*
X83636905Y-54538152D01*
X83636905Y-54538152D02*
X83827381Y-54538152D01*
X83827381Y-54538152D02*
X83916667Y-54585771D01*
X83916667Y-54585771D02*
X83952381Y-54681009D01*
X83952381Y-54681009D02*
X83940476Y-54776247D01*
X83940476Y-54776247D02*
X83452381Y-54871485D01*
X84255953Y-54538152D02*
X84636905Y-54538152D01*
X84440476Y-54204819D02*
X84333334Y-55061961D01*
X84333334Y-55061961D02*
X84369048Y-55157200D01*
X84369048Y-55157200D02*
X84458334Y-55204819D01*
X84458334Y-55204819D02*
X84553572Y-55204819D01*
X85636906Y-54919104D02*
X86113096Y-54919104D01*
X85505953Y-55204819D02*
X85964287Y-54204819D01*
X85964287Y-54204819D02*
X86172620Y-55204819D01*
X82607142Y-113324819D02*
X82273809Y-112848628D01*
X82035714Y-113324819D02*
X82035714Y-112324819D01*
X82035714Y-112324819D02*
X82416666Y-112324819D01*
X82416666Y-112324819D02*
X82511904Y-112372438D01*
X82511904Y-112372438D02*
X82559523Y-112420057D01*
X82559523Y-112420057D02*
X82607142Y-112515295D01*
X82607142Y-112515295D02*
X82607142Y-112658152D01*
X82607142Y-112658152D02*
X82559523Y-112753390D01*
X82559523Y-112753390D02*
X82511904Y-112801009D01*
X82511904Y-112801009D02*
X82416666Y-112848628D01*
X82416666Y-112848628D02*
X82035714Y-112848628D01*
X83511904Y-112324819D02*
X83035714Y-112324819D01*
X83035714Y-112324819D02*
X82988095Y-112801009D01*
X82988095Y-112801009D02*
X83035714Y-112753390D01*
X83035714Y-112753390D02*
X83130952Y-112705771D01*
X83130952Y-112705771D02*
X83369047Y-112705771D01*
X83369047Y-112705771D02*
X83464285Y-112753390D01*
X83464285Y-112753390D02*
X83511904Y-112801009D01*
X83511904Y-112801009D02*
X83559523Y-112896247D01*
X83559523Y-112896247D02*
X83559523Y-113134342D01*
X83559523Y-113134342D02*
X83511904Y-113229580D01*
X83511904Y-113229580D02*
X83464285Y-113277200D01*
X83464285Y-113277200D02*
X83369047Y-113324819D01*
X83369047Y-113324819D02*
X83130952Y-113324819D01*
X83130952Y-113324819D02*
X83035714Y-113277200D01*
X83035714Y-113277200D02*
X82988095Y-113229580D01*
X84416666Y-112658152D02*
X84416666Y-113324819D01*
X84178571Y-112277200D02*
X83940476Y-112991485D01*
X83940476Y-112991485D02*
X84559523Y-112991485D01*
X82083333Y-110050057D02*
X82130952Y-110002438D01*
X82130952Y-110002438D02*
X82226190Y-109954819D01*
X82226190Y-109954819D02*
X82464285Y-109954819D01*
X82464285Y-109954819D02*
X82559523Y-110002438D01*
X82559523Y-110002438D02*
X82607142Y-110050057D01*
X82607142Y-110050057D02*
X82654761Y-110145295D01*
X82654761Y-110145295D02*
X82654761Y-110240533D01*
X82654761Y-110240533D02*
X82607142Y-110383390D01*
X82607142Y-110383390D02*
X82035714Y-110954819D01*
X82035714Y-110954819D02*
X82654761Y-110954819D01*
X83273809Y-109954819D02*
X83369047Y-109954819D01*
X83369047Y-109954819D02*
X83464285Y-110002438D01*
X83464285Y-110002438D02*
X83511904Y-110050057D01*
X83511904Y-110050057D02*
X83559523Y-110145295D01*
X83559523Y-110145295D02*
X83607142Y-110335771D01*
X83607142Y-110335771D02*
X83607142Y-110573866D01*
X83607142Y-110573866D02*
X83559523Y-110764342D01*
X83559523Y-110764342D02*
X83511904Y-110859580D01*
X83511904Y-110859580D02*
X83464285Y-110907200D01*
X83464285Y-110907200D02*
X83369047Y-110954819D01*
X83369047Y-110954819D02*
X83273809Y-110954819D01*
X83273809Y-110954819D02*
X83178571Y-110907200D01*
X83178571Y-110907200D02*
X83130952Y-110859580D01*
X83130952Y-110859580D02*
X83083333Y-110764342D01*
X83083333Y-110764342D02*
X83035714Y-110573866D01*
X83035714Y-110573866D02*
X83035714Y-110335771D01*
X83035714Y-110335771D02*
X83083333Y-110145295D01*
X83083333Y-110145295D02*
X83130952Y-110050057D01*
X83130952Y-110050057D02*
X83178571Y-110002438D01*
X83178571Y-110002438D02*
X83273809Y-109954819D01*
X84035714Y-110954819D02*
X84035714Y-109954819D01*
X84130952Y-110573866D02*
X84416666Y-110954819D01*
X84416666Y-110288152D02*
X84035714Y-110669104D01*
X73666667Y-141157200D02*
X73809524Y-141204819D01*
X73809524Y-141204819D02*
X74047619Y-141204819D01*
X74047619Y-141204819D02*
X74142857Y-141157200D01*
X74142857Y-141157200D02*
X74190476Y-141109580D01*
X74190476Y-141109580D02*
X74238095Y-141014342D01*
X74238095Y-141014342D02*
X74238095Y-140919104D01*
X74238095Y-140919104D02*
X74190476Y-140823866D01*
X74190476Y-140823866D02*
X74142857Y-140776247D01*
X74142857Y-140776247D02*
X74047619Y-140728628D01*
X74047619Y-140728628D02*
X73857143Y-140681009D01*
X73857143Y-140681009D02*
X73761905Y-140633390D01*
X73761905Y-140633390D02*
X73714286Y-140585771D01*
X73714286Y-140585771D02*
X73666667Y-140490533D01*
X73666667Y-140490533D02*
X73666667Y-140395295D01*
X73666667Y-140395295D02*
X73714286Y-140300057D01*
X73714286Y-140300057D02*
X73761905Y-140252438D01*
X73761905Y-140252438D02*
X73857143Y-140204819D01*
X73857143Y-140204819D02*
X74095238Y-140204819D01*
X74095238Y-140204819D02*
X74238095Y-140252438D01*
X74571429Y-140204819D02*
X74809524Y-141204819D01*
X74809524Y-141204819D02*
X75000000Y-140490533D01*
X75000000Y-140490533D02*
X75190476Y-141204819D01*
X75190476Y-141204819D02*
X75428572Y-140204819D01*
X75761905Y-140300057D02*
X75809524Y-140252438D01*
X75809524Y-140252438D02*
X75904762Y-140204819D01*
X75904762Y-140204819D02*
X76142857Y-140204819D01*
X76142857Y-140204819D02*
X76238095Y-140252438D01*
X76238095Y-140252438D02*
X76285714Y-140300057D01*
X76285714Y-140300057D02*
X76333333Y-140395295D01*
X76333333Y-140395295D02*
X76333333Y-140490533D01*
X76333333Y-140490533D02*
X76285714Y-140633390D01*
X76285714Y-140633390D02*
X75714286Y-141204819D01*
X75714286Y-141204819D02*
X76333333Y-141204819D01*
X80407200Y-151619047D02*
X80454819Y-151476190D01*
X80454819Y-151476190D02*
X80454819Y-151238095D01*
X80454819Y-151238095D02*
X80407200Y-151142857D01*
X80407200Y-151142857D02*
X80359580Y-151095238D01*
X80359580Y-151095238D02*
X80264342Y-151047619D01*
X80264342Y-151047619D02*
X80169104Y-151047619D01*
X80169104Y-151047619D02*
X80073866Y-151095238D01*
X80073866Y-151095238D02*
X80026247Y-151142857D01*
X80026247Y-151142857D02*
X79978628Y-151238095D01*
X79978628Y-151238095D02*
X79931009Y-151428571D01*
X79931009Y-151428571D02*
X79883390Y-151523809D01*
X79883390Y-151523809D02*
X79835771Y-151571428D01*
X79835771Y-151571428D02*
X79740533Y-151619047D01*
X79740533Y-151619047D02*
X79645295Y-151619047D01*
X79645295Y-151619047D02*
X79550057Y-151571428D01*
X79550057Y-151571428D02*
X79502438Y-151523809D01*
X79502438Y-151523809D02*
X79454819Y-151428571D01*
X79454819Y-151428571D02*
X79454819Y-151190476D01*
X79454819Y-151190476D02*
X79502438Y-151047619D01*
X79454819Y-150714285D02*
X80454819Y-150476190D01*
X80454819Y-150476190D02*
X79740533Y-150285714D01*
X79740533Y-150285714D02*
X80454819Y-150095238D01*
X80454819Y-150095238D02*
X79454819Y-149857143D01*
X80550057Y-149714286D02*
X80550057Y-148952381D01*
X80454819Y-148714285D02*
X79454819Y-148714285D01*
X79454819Y-148714285D02*
X79454819Y-148476190D01*
X79454819Y-148476190D02*
X79502438Y-148333333D01*
X79502438Y-148333333D02*
X79597676Y-148238095D01*
X79597676Y-148238095D02*
X79692914Y-148190476D01*
X79692914Y-148190476D02*
X79883390Y-148142857D01*
X79883390Y-148142857D02*
X80026247Y-148142857D01*
X80026247Y-148142857D02*
X80216723Y-148190476D01*
X80216723Y-148190476D02*
X80311961Y-148238095D01*
X80311961Y-148238095D02*
X80407200Y-148333333D01*
X80407200Y-148333333D02*
X80454819Y-148476190D01*
X80454819Y-148476190D02*
X80454819Y-148714285D01*
X80454819Y-147714285D02*
X79454819Y-147714285D01*
X79454819Y-147714285D02*
X79454819Y-147333333D01*
X79454819Y-147333333D02*
X79502438Y-147238095D01*
X79502438Y-147238095D02*
X79550057Y-147190476D01*
X79550057Y-147190476D02*
X79645295Y-147142857D01*
X79645295Y-147142857D02*
X79788152Y-147142857D01*
X79788152Y-147142857D02*
X79883390Y-147190476D01*
X79883390Y-147190476D02*
X79931009Y-147238095D01*
X79931009Y-147238095D02*
X79978628Y-147333333D01*
X79978628Y-147333333D02*
X79978628Y-147714285D01*
X80454819Y-146714285D02*
X79454819Y-146714285D01*
X79454819Y-146714285D02*
X79454819Y-146476190D01*
X79454819Y-146476190D02*
X79502438Y-146333333D01*
X79502438Y-146333333D02*
X79597676Y-146238095D01*
X79597676Y-146238095D02*
X79692914Y-146190476D01*
X79692914Y-146190476D02*
X79883390Y-146142857D01*
X79883390Y-146142857D02*
X80026247Y-146142857D01*
X80026247Y-146142857D02*
X80216723Y-146190476D01*
X80216723Y-146190476D02*
X80311961Y-146238095D01*
X80311961Y-146238095D02*
X80407200Y-146333333D01*
X80407200Y-146333333D02*
X80454819Y-146476190D01*
X80454819Y-146476190D02*
X80454819Y-146714285D01*
X79454819Y-145857142D02*
X79454819Y-145285714D01*
X80454819Y-145571428D02*
X79454819Y-145571428D01*
X72613094Y-156704819D02*
X72738094Y-155704819D01*
X72738094Y-155704819D02*
X72982142Y-156419104D01*
X72982142Y-156419104D02*
X73404761Y-155704819D01*
X73404761Y-155704819D02*
X73279761Y-156704819D01*
X74267856Y-156038152D02*
X74184523Y-156704819D01*
X73839285Y-156038152D02*
X73773809Y-156561961D01*
X73773809Y-156561961D02*
X73809523Y-156657200D01*
X73809523Y-156657200D02*
X73898809Y-156704819D01*
X73898809Y-156704819D02*
X74041666Y-156704819D01*
X74041666Y-156704819D02*
X74142856Y-156657200D01*
X74142856Y-156657200D02*
X74196428Y-156609580D01*
X74601190Y-156038152D02*
X74982142Y-156038152D01*
X74785713Y-155704819D02*
X74678571Y-156561961D01*
X74678571Y-156561961D02*
X74714285Y-156657200D01*
X74714285Y-156657200D02*
X74803571Y-156704819D01*
X74803571Y-156704819D02*
X74898809Y-156704819D01*
X75619047Y-156657200D02*
X75517857Y-156704819D01*
X75517857Y-156704819D02*
X75327380Y-156704819D01*
X75327380Y-156704819D02*
X75238095Y-156657200D01*
X75238095Y-156657200D02*
X75202380Y-156561961D01*
X75202380Y-156561961D02*
X75250000Y-156181009D01*
X75250000Y-156181009D02*
X75309523Y-156085771D01*
X75309523Y-156085771D02*
X75410714Y-156038152D01*
X75410714Y-156038152D02*
X75601190Y-156038152D01*
X75601190Y-156038152D02*
X75690476Y-156085771D01*
X75690476Y-156085771D02*
X75726190Y-156181009D01*
X75726190Y-156181009D02*
X75714285Y-156276247D01*
X75714285Y-156276247D02*
X75226190Y-156371485D01*
X77250000Y-156181009D02*
X77386905Y-156228628D01*
X77386905Y-156228628D02*
X77428571Y-156276247D01*
X77428571Y-156276247D02*
X77464286Y-156371485D01*
X77464286Y-156371485D02*
X77446428Y-156514342D01*
X77446428Y-156514342D02*
X77386905Y-156609580D01*
X77386905Y-156609580D02*
X77333333Y-156657200D01*
X77333333Y-156657200D02*
X77232143Y-156704819D01*
X77232143Y-156704819D02*
X76851190Y-156704819D01*
X76851190Y-156704819D02*
X76976190Y-155704819D01*
X76976190Y-155704819D02*
X77309524Y-155704819D01*
X77309524Y-155704819D02*
X77398809Y-155752438D01*
X77398809Y-155752438D02*
X77440476Y-155800057D01*
X77440476Y-155800057D02*
X77476190Y-155895295D01*
X77476190Y-155895295D02*
X77464286Y-155990533D01*
X77464286Y-155990533D02*
X77404762Y-156085771D01*
X77404762Y-156085771D02*
X77351190Y-156133390D01*
X77351190Y-156133390D02*
X77250000Y-156181009D01*
X77250000Y-156181009D02*
X76916667Y-156181009D01*
X73414819Y-74738094D02*
X72414819Y-74738094D01*
X72414819Y-74738094D02*
X72414819Y-74499999D01*
X72414819Y-74499999D02*
X72462438Y-74357142D01*
X72462438Y-74357142D02*
X72557676Y-74261904D01*
X72557676Y-74261904D02*
X72652914Y-74214285D01*
X72652914Y-74214285D02*
X72843390Y-74166666D01*
X72843390Y-74166666D02*
X72986247Y-74166666D01*
X72986247Y-74166666D02*
X73176723Y-74214285D01*
X73176723Y-74214285D02*
X73271961Y-74261904D01*
X73271961Y-74261904D02*
X73367200Y-74357142D01*
X73367200Y-74357142D02*
X73414819Y-74499999D01*
X73414819Y-74499999D02*
X73414819Y-74738094D01*
X72414819Y-73309523D02*
X72414819Y-73499999D01*
X72414819Y-73499999D02*
X72462438Y-73595237D01*
X72462438Y-73595237D02*
X72510057Y-73642856D01*
X72510057Y-73642856D02*
X72652914Y-73738094D01*
X72652914Y-73738094D02*
X72843390Y-73785713D01*
X72843390Y-73785713D02*
X73224342Y-73785713D01*
X73224342Y-73785713D02*
X73319580Y-73738094D01*
X73319580Y-73738094D02*
X73367200Y-73690475D01*
X73367200Y-73690475D02*
X73414819Y-73595237D01*
X73414819Y-73595237D02*
X73414819Y-73404761D01*
X73414819Y-73404761D02*
X73367200Y-73309523D01*
X73367200Y-73309523D02*
X73319580Y-73261904D01*
X73319580Y-73261904D02*
X73224342Y-73214285D01*
X73224342Y-73214285D02*
X72986247Y-73214285D01*
X72986247Y-73214285D02*
X72891009Y-73261904D01*
X72891009Y-73261904D02*
X72843390Y-73309523D01*
X72843390Y-73309523D02*
X72795771Y-73404761D01*
X72795771Y-73404761D02*
X72795771Y-73595237D01*
X72795771Y-73595237D02*
X72843390Y-73690475D01*
X72843390Y-73690475D02*
X72891009Y-73738094D01*
X72891009Y-73738094D02*
X72986247Y-73785713D01*
X73574819Y-123142857D02*
X73098628Y-123476190D01*
X73574819Y-123714285D02*
X72574819Y-123714285D01*
X72574819Y-123714285D02*
X72574819Y-123333333D01*
X72574819Y-123333333D02*
X72622438Y-123238095D01*
X72622438Y-123238095D02*
X72670057Y-123190476D01*
X72670057Y-123190476D02*
X72765295Y-123142857D01*
X72765295Y-123142857D02*
X72908152Y-123142857D01*
X72908152Y-123142857D02*
X73003390Y-123190476D01*
X73003390Y-123190476D02*
X73051009Y-123238095D01*
X73051009Y-123238095D02*
X73098628Y-123333333D01*
X73098628Y-123333333D02*
X73098628Y-123714285D01*
X72574819Y-122238095D02*
X72574819Y-122714285D01*
X72574819Y-122714285D02*
X73051009Y-122761904D01*
X73051009Y-122761904D02*
X73003390Y-122714285D01*
X73003390Y-122714285D02*
X72955771Y-122619047D01*
X72955771Y-122619047D02*
X72955771Y-122380952D01*
X72955771Y-122380952D02*
X73003390Y-122285714D01*
X73003390Y-122285714D02*
X73051009Y-122238095D01*
X73051009Y-122238095D02*
X73146247Y-122190476D01*
X73146247Y-122190476D02*
X73384342Y-122190476D01*
X73384342Y-122190476D02*
X73479580Y-122238095D01*
X73479580Y-122238095D02*
X73527200Y-122285714D01*
X73527200Y-122285714D02*
X73574819Y-122380952D01*
X73574819Y-122380952D02*
X73574819Y-122619047D01*
X73574819Y-122619047D02*
X73527200Y-122714285D01*
X73527200Y-122714285D02*
X73479580Y-122761904D01*
X73574819Y-121714285D02*
X73574819Y-121523809D01*
X73574819Y-121523809D02*
X73527200Y-121428571D01*
X73527200Y-121428571D02*
X73479580Y-121380952D01*
X73479580Y-121380952D02*
X73336723Y-121285714D01*
X73336723Y-121285714D02*
X73146247Y-121238095D01*
X73146247Y-121238095D02*
X72765295Y-121238095D01*
X72765295Y-121238095D02*
X72670057Y-121285714D01*
X72670057Y-121285714D02*
X72622438Y-121333333D01*
X72622438Y-121333333D02*
X72574819Y-121428571D01*
X72574819Y-121428571D02*
X72574819Y-121619047D01*
X72574819Y-121619047D02*
X72622438Y-121714285D01*
X72622438Y-121714285D02*
X72670057Y-121761904D01*
X72670057Y-121761904D02*
X72765295Y-121809523D01*
X72765295Y-121809523D02*
X73003390Y-121809523D01*
X73003390Y-121809523D02*
X73098628Y-121761904D01*
X73098628Y-121761904D02*
X73146247Y-121714285D01*
X73146247Y-121714285D02*
X73193866Y-121619047D01*
X73193866Y-121619047D02*
X73193866Y-121428571D01*
X73193866Y-121428571D02*
X73146247Y-121333333D01*
X73146247Y-121333333D02*
X73098628Y-121285714D01*
X73098628Y-121285714D02*
X73003390Y-121238095D01*
X71204819Y-122619047D02*
X71204819Y-123190475D01*
X71204819Y-122904761D02*
X70204819Y-122904761D01*
X70204819Y-122904761D02*
X70347676Y-122999999D01*
X70347676Y-122999999D02*
X70442914Y-123095237D01*
X70442914Y-123095237D02*
X70490533Y-123190475D01*
X71204819Y-122190475D02*
X70204819Y-122190475D01*
X70823866Y-122095237D02*
X71204819Y-121809523D01*
X70538152Y-121809523D02*
X70919104Y-122190475D01*
X73666667Y-80907200D02*
X73809524Y-80954819D01*
X73809524Y-80954819D02*
X74047619Y-80954819D01*
X74047619Y-80954819D02*
X74142857Y-80907200D01*
X74142857Y-80907200D02*
X74190476Y-80859580D01*
X74190476Y-80859580D02*
X74238095Y-80764342D01*
X74238095Y-80764342D02*
X74238095Y-80669104D01*
X74238095Y-80669104D02*
X74190476Y-80573866D01*
X74190476Y-80573866D02*
X74142857Y-80526247D01*
X74142857Y-80526247D02*
X74047619Y-80478628D01*
X74047619Y-80478628D02*
X73857143Y-80431009D01*
X73857143Y-80431009D02*
X73761905Y-80383390D01*
X73761905Y-80383390D02*
X73714286Y-80335771D01*
X73714286Y-80335771D02*
X73666667Y-80240533D01*
X73666667Y-80240533D02*
X73666667Y-80145295D01*
X73666667Y-80145295D02*
X73714286Y-80050057D01*
X73714286Y-80050057D02*
X73761905Y-80002438D01*
X73761905Y-80002438D02*
X73857143Y-79954819D01*
X73857143Y-79954819D02*
X74095238Y-79954819D01*
X74095238Y-79954819D02*
X74238095Y-80002438D01*
X74571429Y-79954819D02*
X74809524Y-80954819D01*
X74809524Y-80954819D02*
X75000000Y-80240533D01*
X75000000Y-80240533D02*
X75190476Y-80954819D01*
X75190476Y-80954819D02*
X75428572Y-79954819D01*
X76333333Y-80954819D02*
X75761905Y-80954819D01*
X76047619Y-80954819D02*
X76047619Y-79954819D01*
X76047619Y-79954819D02*
X75952381Y-80097676D01*
X75952381Y-80097676D02*
X75857143Y-80192914D01*
X75857143Y-80192914D02*
X75761905Y-80240533D01*
X80407200Y-91369047D02*
X80454819Y-91226190D01*
X80454819Y-91226190D02*
X80454819Y-90988095D01*
X80454819Y-90988095D02*
X80407200Y-90892857D01*
X80407200Y-90892857D02*
X80359580Y-90845238D01*
X80359580Y-90845238D02*
X80264342Y-90797619D01*
X80264342Y-90797619D02*
X80169104Y-90797619D01*
X80169104Y-90797619D02*
X80073866Y-90845238D01*
X80073866Y-90845238D02*
X80026247Y-90892857D01*
X80026247Y-90892857D02*
X79978628Y-90988095D01*
X79978628Y-90988095D02*
X79931009Y-91178571D01*
X79931009Y-91178571D02*
X79883390Y-91273809D01*
X79883390Y-91273809D02*
X79835771Y-91321428D01*
X79835771Y-91321428D02*
X79740533Y-91369047D01*
X79740533Y-91369047D02*
X79645295Y-91369047D01*
X79645295Y-91369047D02*
X79550057Y-91321428D01*
X79550057Y-91321428D02*
X79502438Y-91273809D01*
X79502438Y-91273809D02*
X79454819Y-91178571D01*
X79454819Y-91178571D02*
X79454819Y-90940476D01*
X79454819Y-90940476D02*
X79502438Y-90797619D01*
X79454819Y-90464285D02*
X80454819Y-90226190D01*
X80454819Y-90226190D02*
X79740533Y-90035714D01*
X79740533Y-90035714D02*
X80454819Y-89845238D01*
X80454819Y-89845238D02*
X79454819Y-89607143D01*
X80550057Y-89464286D02*
X80550057Y-88702381D01*
X80454819Y-88464285D02*
X79454819Y-88464285D01*
X79454819Y-88464285D02*
X79454819Y-88226190D01*
X79454819Y-88226190D02*
X79502438Y-88083333D01*
X79502438Y-88083333D02*
X79597676Y-87988095D01*
X79597676Y-87988095D02*
X79692914Y-87940476D01*
X79692914Y-87940476D02*
X79883390Y-87892857D01*
X79883390Y-87892857D02*
X80026247Y-87892857D01*
X80026247Y-87892857D02*
X80216723Y-87940476D01*
X80216723Y-87940476D02*
X80311961Y-87988095D01*
X80311961Y-87988095D02*
X80407200Y-88083333D01*
X80407200Y-88083333D02*
X80454819Y-88226190D01*
X80454819Y-88226190D02*
X80454819Y-88464285D01*
X80454819Y-87464285D02*
X79454819Y-87464285D01*
X79454819Y-87464285D02*
X79454819Y-87083333D01*
X79454819Y-87083333D02*
X79502438Y-86988095D01*
X79502438Y-86988095D02*
X79550057Y-86940476D01*
X79550057Y-86940476D02*
X79645295Y-86892857D01*
X79645295Y-86892857D02*
X79788152Y-86892857D01*
X79788152Y-86892857D02*
X79883390Y-86940476D01*
X79883390Y-86940476D02*
X79931009Y-86988095D01*
X79931009Y-86988095D02*
X79978628Y-87083333D01*
X79978628Y-87083333D02*
X79978628Y-87464285D01*
X80454819Y-86464285D02*
X79454819Y-86464285D01*
X79454819Y-86464285D02*
X79454819Y-86226190D01*
X79454819Y-86226190D02*
X79502438Y-86083333D01*
X79502438Y-86083333D02*
X79597676Y-85988095D01*
X79597676Y-85988095D02*
X79692914Y-85940476D01*
X79692914Y-85940476D02*
X79883390Y-85892857D01*
X79883390Y-85892857D02*
X80026247Y-85892857D01*
X80026247Y-85892857D02*
X80216723Y-85940476D01*
X80216723Y-85940476D02*
X80311961Y-85988095D01*
X80311961Y-85988095D02*
X80407200Y-86083333D01*
X80407200Y-86083333D02*
X80454819Y-86226190D01*
X80454819Y-86226190D02*
X80454819Y-86464285D01*
X79454819Y-85607142D02*
X79454819Y-85035714D01*
X80454819Y-85321428D02*
X79454819Y-85321428D01*
D11*
X72684523Y-96452219D02*
X72809523Y-95452219D01*
X72809523Y-95452219D02*
X73053571Y-96166504D01*
X73053571Y-96166504D02*
X73476190Y-95452219D01*
X73476190Y-95452219D02*
X73351190Y-96452219D01*
X74339285Y-95785552D02*
X74255952Y-96452219D01*
X73910714Y-95785552D02*
X73845238Y-96309361D01*
X73845238Y-96309361D02*
X73880952Y-96404600D01*
X73880952Y-96404600D02*
X73970238Y-96452219D01*
X73970238Y-96452219D02*
X74113095Y-96452219D01*
X74113095Y-96452219D02*
X74214285Y-96404600D01*
X74214285Y-96404600D02*
X74267857Y-96356980D01*
X74672619Y-95785552D02*
X75053571Y-95785552D01*
X74857142Y-95452219D02*
X74750000Y-96309361D01*
X74750000Y-96309361D02*
X74785714Y-96404600D01*
X74785714Y-96404600D02*
X74875000Y-96452219D01*
X74875000Y-96452219D02*
X74970238Y-96452219D01*
X75690476Y-96404600D02*
X75589286Y-96452219D01*
X75589286Y-96452219D02*
X75398809Y-96452219D01*
X75398809Y-96452219D02*
X75309524Y-96404600D01*
X75309524Y-96404600D02*
X75273809Y-96309361D01*
X75273809Y-96309361D02*
X75321429Y-95928409D01*
X75321429Y-95928409D02*
X75380952Y-95833171D01*
X75380952Y-95833171D02*
X75482143Y-95785552D01*
X75482143Y-95785552D02*
X75672619Y-95785552D01*
X75672619Y-95785552D02*
X75761905Y-95833171D01*
X75761905Y-95833171D02*
X75797619Y-95928409D01*
X75797619Y-95928409D02*
X75785714Y-96023647D01*
X75785714Y-96023647D02*
X75297619Y-96118885D01*
X76910715Y-96166504D02*
X77386905Y-96166504D01*
X76779762Y-96452219D02*
X77238096Y-95452219D01*
X77238096Y-95452219D02*
X77446429Y-96452219D01*
D10*
X73857142Y-177454819D02*
X73523809Y-176978628D01*
X73285714Y-177454819D02*
X73285714Y-176454819D01*
X73285714Y-176454819D02*
X73666666Y-176454819D01*
X73666666Y-176454819D02*
X73761904Y-176502438D01*
X73761904Y-176502438D02*
X73809523Y-176550057D01*
X73809523Y-176550057D02*
X73857142Y-176645295D01*
X73857142Y-176645295D02*
X73857142Y-176788152D01*
X73857142Y-176788152D02*
X73809523Y-176883390D01*
X73809523Y-176883390D02*
X73761904Y-176931009D01*
X73761904Y-176931009D02*
X73666666Y-176978628D01*
X73666666Y-176978628D02*
X73285714Y-176978628D01*
X74714285Y-176454819D02*
X74523809Y-176454819D01*
X74523809Y-176454819D02*
X74428571Y-176502438D01*
X74428571Y-176502438D02*
X74380952Y-176550057D01*
X74380952Y-176550057D02*
X74285714Y-176692914D01*
X74285714Y-176692914D02*
X74238095Y-176883390D01*
X74238095Y-176883390D02*
X74238095Y-177264342D01*
X74238095Y-177264342D02*
X74285714Y-177359580D01*
X74285714Y-177359580D02*
X74333333Y-177407200D01*
X74333333Y-177407200D02*
X74428571Y-177454819D01*
X74428571Y-177454819D02*
X74619047Y-177454819D01*
X74619047Y-177454819D02*
X74714285Y-177407200D01*
X74714285Y-177407200D02*
X74761904Y-177359580D01*
X74761904Y-177359580D02*
X74809523Y-177264342D01*
X74809523Y-177264342D02*
X74809523Y-177026247D01*
X74809523Y-177026247D02*
X74761904Y-176931009D01*
X74761904Y-176931009D02*
X74714285Y-176883390D01*
X74714285Y-176883390D02*
X74619047Y-176835771D01*
X74619047Y-176835771D02*
X74428571Y-176835771D01*
X74428571Y-176835771D02*
X74333333Y-176883390D01*
X74333333Y-176883390D02*
X74285714Y-176931009D01*
X74285714Y-176931009D02*
X74238095Y-177026247D01*
X75428571Y-176454819D02*
X75523809Y-176454819D01*
X75523809Y-176454819D02*
X75619047Y-176502438D01*
X75619047Y-176502438D02*
X75666666Y-176550057D01*
X75666666Y-176550057D02*
X75714285Y-176645295D01*
X75714285Y-176645295D02*
X75761904Y-176835771D01*
X75761904Y-176835771D02*
X75761904Y-177073866D01*
X75761904Y-177073866D02*
X75714285Y-177264342D01*
X75714285Y-177264342D02*
X75666666Y-177359580D01*
X75666666Y-177359580D02*
X75619047Y-177407200D01*
X75619047Y-177407200D02*
X75523809Y-177454819D01*
X75523809Y-177454819D02*
X75428571Y-177454819D01*
X75428571Y-177454819D02*
X75333333Y-177407200D01*
X75333333Y-177407200D02*
X75285714Y-177359580D01*
X75285714Y-177359580D02*
X75238095Y-177264342D01*
X75238095Y-177264342D02*
X75190476Y-177073866D01*
X75190476Y-177073866D02*
X75190476Y-176835771D01*
X75190476Y-176835771D02*
X75238095Y-176645295D01*
X75238095Y-176645295D02*
X75285714Y-176550057D01*
X75285714Y-176550057D02*
X75333333Y-176502438D01*
X75333333Y-176502438D02*
X75428571Y-176454819D01*
X74954819Y-182619047D02*
X74954819Y-183190475D01*
X74954819Y-182904761D02*
X73954819Y-182904761D01*
X73954819Y-182904761D02*
X74097676Y-182999999D01*
X74097676Y-182999999D02*
X74192914Y-183095237D01*
X74192914Y-183095237D02*
X74240533Y-183190475D01*
X74954819Y-182190475D02*
X73954819Y-182190475D01*
X74573866Y-182095237D02*
X74954819Y-181809523D01*
X74288152Y-181809523D02*
X74669104Y-182190475D01*
X78004819Y-125945238D02*
X77528628Y-126278571D01*
X78004819Y-126516666D02*
X77004819Y-126516666D01*
X77004819Y-126516666D02*
X77004819Y-126135714D01*
X77004819Y-126135714D02*
X77052438Y-126040476D01*
X77052438Y-126040476D02*
X77100057Y-125992857D01*
X77100057Y-125992857D02*
X77195295Y-125945238D01*
X77195295Y-125945238D02*
X77338152Y-125945238D01*
X77338152Y-125945238D02*
X77433390Y-125992857D01*
X77433390Y-125992857D02*
X77481009Y-126040476D01*
X77481009Y-126040476D02*
X77528628Y-126135714D01*
X77528628Y-126135714D02*
X77528628Y-126516666D01*
X77004819Y-125659523D02*
X78004819Y-125326190D01*
X78004819Y-125326190D02*
X77004819Y-124992857D01*
X77004819Y-124183333D02*
X77004819Y-124659523D01*
X77004819Y-124659523D02*
X77481009Y-124707142D01*
X77481009Y-124707142D02*
X77433390Y-124659523D01*
X77433390Y-124659523D02*
X77385771Y-124564285D01*
X77385771Y-124564285D02*
X77385771Y-124326190D01*
X77385771Y-124326190D02*
X77433390Y-124230952D01*
X77433390Y-124230952D02*
X77481009Y-124183333D01*
X77481009Y-124183333D02*
X77576247Y-124135714D01*
X77576247Y-124135714D02*
X77814342Y-124135714D01*
X77814342Y-124135714D02*
X77909580Y-124183333D01*
X77909580Y-124183333D02*
X77957200Y-124230952D01*
X77957200Y-124230952D02*
X78004819Y-124326190D01*
X78004819Y-124326190D02*
X78004819Y-124564285D01*
X78004819Y-124564285D02*
X77957200Y-124659523D01*
X77957200Y-124659523D02*
X77909580Y-124707142D01*
X89454819Y-126071428D02*
X89454819Y-126642856D01*
X89454819Y-126357142D02*
X88454819Y-126357142D01*
X88454819Y-126357142D02*
X88597676Y-126452380D01*
X88597676Y-126452380D02*
X88692914Y-126547618D01*
X88692914Y-126547618D02*
X88740533Y-126642856D01*
X88454819Y-125452380D02*
X88454819Y-125357142D01*
X88454819Y-125357142D02*
X88502438Y-125261904D01*
X88502438Y-125261904D02*
X88550057Y-125214285D01*
X88550057Y-125214285D02*
X88645295Y-125166666D01*
X88645295Y-125166666D02*
X88835771Y-125119047D01*
X88835771Y-125119047D02*
X89073866Y-125119047D01*
X89073866Y-125119047D02*
X89264342Y-125166666D01*
X89264342Y-125166666D02*
X89359580Y-125214285D01*
X89359580Y-125214285D02*
X89407200Y-125261904D01*
X89407200Y-125261904D02*
X89454819Y-125357142D01*
X89454819Y-125357142D02*
X89454819Y-125452380D01*
X89454819Y-125452380D02*
X89407200Y-125547618D01*
X89407200Y-125547618D02*
X89359580Y-125595237D01*
X89359580Y-125595237D02*
X89264342Y-125642856D01*
X89264342Y-125642856D02*
X89073866Y-125690475D01*
X89073866Y-125690475D02*
X88835771Y-125690475D01*
X88835771Y-125690475D02*
X88645295Y-125642856D01*
X88645295Y-125642856D02*
X88550057Y-125595237D01*
X88550057Y-125595237D02*
X88502438Y-125547618D01*
X88502438Y-125547618D02*
X88454819Y-125452380D01*
X88454819Y-124499999D02*
X88454819Y-124404761D01*
X88454819Y-124404761D02*
X88502438Y-124309523D01*
X88502438Y-124309523D02*
X88550057Y-124261904D01*
X88550057Y-124261904D02*
X88645295Y-124214285D01*
X88645295Y-124214285D02*
X88835771Y-124166666D01*
X88835771Y-124166666D02*
X89073866Y-124166666D01*
X89073866Y-124166666D02*
X89264342Y-124214285D01*
X89264342Y-124214285D02*
X89359580Y-124261904D01*
X89359580Y-124261904D02*
X89407200Y-124309523D01*
X89407200Y-124309523D02*
X89454819Y-124404761D01*
X89454819Y-124404761D02*
X89454819Y-124499999D01*
X89454819Y-124499999D02*
X89407200Y-124595237D01*
X89407200Y-124595237D02*
X89359580Y-124642856D01*
X89359580Y-124642856D02*
X89264342Y-124690475D01*
X89264342Y-124690475D02*
X89073866Y-124738094D01*
X89073866Y-124738094D02*
X88835771Y-124738094D01*
X88835771Y-124738094D02*
X88645295Y-124690475D01*
X88645295Y-124690475D02*
X88550057Y-124642856D01*
X88550057Y-124642856D02*
X88502438Y-124595237D01*
X88502438Y-124595237D02*
X88454819Y-124499999D01*
X89454819Y-123738094D02*
X88454819Y-123738094D01*
X89073866Y-123642856D02*
X89454819Y-123357142D01*
X88788152Y-123357142D02*
X89169104Y-123738094D01*
X80702380Y-114454819D02*
X80892856Y-114454819D01*
X80892856Y-114454819D02*
X80982141Y-114502438D01*
X80982141Y-114502438D02*
X81065475Y-114597676D01*
X81065475Y-114597676D02*
X81089284Y-114788152D01*
X81089284Y-114788152D02*
X81047618Y-115121485D01*
X81047618Y-115121485D02*
X80976189Y-115311961D01*
X80976189Y-115311961D02*
X80869046Y-115407200D01*
X80869046Y-115407200D02*
X80767856Y-115454819D01*
X80767856Y-115454819D02*
X80577380Y-115454819D01*
X80577380Y-115454819D02*
X80488094Y-115407200D01*
X80488094Y-115407200D02*
X80404761Y-115311961D01*
X80404761Y-115311961D02*
X80380951Y-115121485D01*
X80380951Y-115121485D02*
X80422618Y-114788152D01*
X80422618Y-114788152D02*
X80494046Y-114597676D01*
X80494046Y-114597676D02*
X80601189Y-114502438D01*
X80601189Y-114502438D02*
X80702380Y-114454819D01*
X81374999Y-114788152D02*
X81755951Y-114788152D01*
X81434522Y-115454819D02*
X81541665Y-114597676D01*
X81541665Y-114597676D02*
X81601189Y-114502438D01*
X81601189Y-114502438D02*
X81702380Y-114454819D01*
X81702380Y-114454819D02*
X81797618Y-114454819D01*
X81946428Y-114788152D02*
X82327380Y-114788152D01*
X82005951Y-115454819D02*
X82113094Y-114597676D01*
X82113094Y-114597676D02*
X82172618Y-114502438D01*
X82172618Y-114502438D02*
X82273809Y-114454819D01*
X82273809Y-114454819D02*
X82369047Y-114454819D01*
X82535714Y-115407200D02*
X82624999Y-115454819D01*
X82624999Y-115454819D02*
X82815476Y-115454819D01*
X82815476Y-115454819D02*
X82916666Y-115407200D01*
X82916666Y-115407200D02*
X82976190Y-115311961D01*
X82976190Y-115311961D02*
X82982142Y-115264342D01*
X82982142Y-115264342D02*
X82946428Y-115169104D01*
X82946428Y-115169104D02*
X82857142Y-115121485D01*
X82857142Y-115121485D02*
X82714285Y-115121485D01*
X82714285Y-115121485D02*
X82624999Y-115073866D01*
X82624999Y-115073866D02*
X82589285Y-114978628D01*
X82589285Y-114978628D02*
X82595238Y-114931009D01*
X82595238Y-114931009D02*
X82654761Y-114835771D01*
X82654761Y-114835771D02*
X82755952Y-114788152D01*
X82755952Y-114788152D02*
X82898809Y-114788152D01*
X82898809Y-114788152D02*
X82988095Y-114835771D01*
X83773809Y-115407200D02*
X83672619Y-115454819D01*
X83672619Y-115454819D02*
X83482142Y-115454819D01*
X83482142Y-115454819D02*
X83392857Y-115407200D01*
X83392857Y-115407200D02*
X83357142Y-115311961D01*
X83357142Y-115311961D02*
X83404762Y-114931009D01*
X83404762Y-114931009D02*
X83464285Y-114835771D01*
X83464285Y-114835771D02*
X83565476Y-114788152D01*
X83565476Y-114788152D02*
X83755952Y-114788152D01*
X83755952Y-114788152D02*
X83845238Y-114835771D01*
X83845238Y-114835771D02*
X83880952Y-114931009D01*
X83880952Y-114931009D02*
X83869047Y-115026247D01*
X83869047Y-115026247D02*
X83380952Y-115121485D01*
X84184524Y-114788152D02*
X84565476Y-114788152D01*
X84369047Y-114454819D02*
X84261905Y-115311961D01*
X84261905Y-115311961D02*
X84297619Y-115407200D01*
X84297619Y-115407200D02*
X84386905Y-115454819D01*
X84386905Y-115454819D02*
X84482143Y-115454819D01*
X85976191Y-114931009D02*
X86113096Y-114978628D01*
X86113096Y-114978628D02*
X86154762Y-115026247D01*
X86154762Y-115026247D02*
X86190477Y-115121485D01*
X86190477Y-115121485D02*
X86172619Y-115264342D01*
X86172619Y-115264342D02*
X86113096Y-115359580D01*
X86113096Y-115359580D02*
X86059524Y-115407200D01*
X86059524Y-115407200D02*
X85958334Y-115454819D01*
X85958334Y-115454819D02*
X85577381Y-115454819D01*
X85577381Y-115454819D02*
X85702381Y-114454819D01*
X85702381Y-114454819D02*
X86035715Y-114454819D01*
X86035715Y-114454819D02*
X86125000Y-114502438D01*
X86125000Y-114502438D02*
X86166667Y-114550057D01*
X86166667Y-114550057D02*
X86202381Y-114645295D01*
X86202381Y-114645295D02*
X86190477Y-114740533D01*
X86190477Y-114740533D02*
X86130953Y-114835771D01*
X86130953Y-114835771D02*
X86077381Y-114883390D01*
X86077381Y-114883390D02*
X85976191Y-114931009D01*
X85976191Y-114931009D02*
X85642858Y-114931009D01*
X87574819Y-89142857D02*
X87098628Y-89476190D01*
X87574819Y-89714285D02*
X86574819Y-89714285D01*
X86574819Y-89714285D02*
X86574819Y-89333333D01*
X86574819Y-89333333D02*
X86622438Y-89238095D01*
X86622438Y-89238095D02*
X86670057Y-89190476D01*
X86670057Y-89190476D02*
X86765295Y-89142857D01*
X86765295Y-89142857D02*
X86908152Y-89142857D01*
X86908152Y-89142857D02*
X87003390Y-89190476D01*
X87003390Y-89190476D02*
X87051009Y-89238095D01*
X87051009Y-89238095D02*
X87098628Y-89333333D01*
X87098628Y-89333333D02*
X87098628Y-89714285D01*
X86574819Y-88238095D02*
X86574819Y-88714285D01*
X86574819Y-88714285D02*
X87051009Y-88761904D01*
X87051009Y-88761904D02*
X87003390Y-88714285D01*
X87003390Y-88714285D02*
X86955771Y-88619047D01*
X86955771Y-88619047D02*
X86955771Y-88380952D01*
X86955771Y-88380952D02*
X87003390Y-88285714D01*
X87003390Y-88285714D02*
X87051009Y-88238095D01*
X87051009Y-88238095D02*
X87146247Y-88190476D01*
X87146247Y-88190476D02*
X87384342Y-88190476D01*
X87384342Y-88190476D02*
X87479580Y-88238095D01*
X87479580Y-88238095D02*
X87527200Y-88285714D01*
X87527200Y-88285714D02*
X87574819Y-88380952D01*
X87574819Y-88380952D02*
X87574819Y-88619047D01*
X87574819Y-88619047D02*
X87527200Y-88714285D01*
X87527200Y-88714285D02*
X87479580Y-88761904D01*
X86574819Y-87333333D02*
X86574819Y-87523809D01*
X86574819Y-87523809D02*
X86622438Y-87619047D01*
X86622438Y-87619047D02*
X86670057Y-87666666D01*
X86670057Y-87666666D02*
X86812914Y-87761904D01*
X86812914Y-87761904D02*
X87003390Y-87809523D01*
X87003390Y-87809523D02*
X87384342Y-87809523D01*
X87384342Y-87809523D02*
X87479580Y-87761904D01*
X87479580Y-87761904D02*
X87527200Y-87714285D01*
X87527200Y-87714285D02*
X87574819Y-87619047D01*
X87574819Y-87619047D02*
X87574819Y-87428571D01*
X87574819Y-87428571D02*
X87527200Y-87333333D01*
X87527200Y-87333333D02*
X87479580Y-87285714D01*
X87479580Y-87285714D02*
X87384342Y-87238095D01*
X87384342Y-87238095D02*
X87146247Y-87238095D01*
X87146247Y-87238095D02*
X87051009Y-87285714D01*
X87051009Y-87285714D02*
X87003390Y-87333333D01*
X87003390Y-87333333D02*
X86955771Y-87428571D01*
X86955771Y-87428571D02*
X86955771Y-87619047D01*
X86955771Y-87619047D02*
X87003390Y-87714285D01*
X87003390Y-87714285D02*
X87051009Y-87761904D01*
X87051009Y-87761904D02*
X87146247Y-87809523D01*
X85204819Y-88619047D02*
X85204819Y-89190475D01*
X85204819Y-88904761D02*
X84204819Y-88904761D01*
X84204819Y-88904761D02*
X84347676Y-88999999D01*
X84347676Y-88999999D02*
X84442914Y-89095237D01*
X84442914Y-89095237D02*
X84490533Y-89190475D01*
X85204819Y-88190475D02*
X84204819Y-88190475D01*
X84823866Y-88095237D02*
X85204819Y-87809523D01*
X84538152Y-87809523D02*
X84919104Y-88190475D01*
D12*
%TO.C,R55*%
X79980000Y-169380000D02*
X79980000Y-169710000D01*
X79980000Y-172120000D02*
X79980000Y-171790000D01*
X86520000Y-169380000D02*
X79980000Y-169380000D01*
X86520000Y-169710000D02*
X86520000Y-169380000D01*
X86520000Y-171790000D02*
X86520000Y-172120000D01*
X86520000Y-172120000D02*
X79980000Y-172120000D01*
%TO.C,RV6*%
X78370000Y-187620000D02*
X78370000Y-182900000D01*
X78380000Y-179090000D02*
X78380000Y-176030000D01*
X79560000Y-187620000D02*
X78380000Y-187620000D01*
X82460000Y-187620000D02*
X81930000Y-187620000D01*
X84910000Y-187620000D02*
X84080000Y-187620000D01*
X88120000Y-176030000D02*
X78380000Y-176030000D01*
X88120000Y-179090000D02*
X88120000Y-176030000D01*
X88120000Y-187620000D02*
X86630000Y-187620000D01*
X88120000Y-187620000D02*
X88120000Y-182900000D01*
%TO.C,R61*%
X69380000Y-179230000D02*
X69380000Y-185770000D01*
X69380000Y-185770000D02*
X69710000Y-185770000D01*
X69710000Y-179230000D02*
X69380000Y-179230000D01*
X71790000Y-179230000D02*
X72120000Y-179230000D01*
X72120000Y-179230000D02*
X72120000Y-185770000D01*
X72120000Y-185770000D02*
X71790000Y-185770000D01*
%TO.C,R57*%
X69380000Y-59230000D02*
X69380000Y-65770000D01*
X69380000Y-65770000D02*
X69710000Y-65770000D01*
X69710000Y-59230000D02*
X69380000Y-59230000D01*
X71790000Y-59230000D02*
X72120000Y-59230000D01*
X72120000Y-59230000D02*
X72120000Y-65770000D01*
X72120000Y-65770000D02*
X71790000Y-65770000D01*
%TO.C,J0*%
X93670000Y-138670000D02*
X95000000Y-138670000D01*
X93670000Y-140000000D02*
X93670000Y-138670000D01*
X93670000Y-141270000D02*
X93670000Y-141330000D01*
X93670000Y-141270000D02*
X96330000Y-141270000D01*
X93670000Y-141330000D02*
X96330000Y-141330000D01*
X96330000Y-141270000D02*
X96330000Y-141330000D01*
%TO.C,R58*%
X83380000Y-145230000D02*
X83380000Y-151770000D01*
X83380000Y-151770000D02*
X83710000Y-151770000D01*
X83710000Y-145230000D02*
X83380000Y-145230000D01*
X85790000Y-145230000D02*
X86120000Y-145230000D01*
X86120000Y-145230000D02*
X86120000Y-151770000D01*
X86120000Y-151770000D02*
X85790000Y-151770000D01*
%TO.C,D7*%
X68920000Y-132690000D02*
X68764000Y-132690000D01*
X71236000Y-132690000D02*
X71080000Y-132690000D01*
X68919939Y-135921397D02*
G75*
G02*
X68764484Y-132690000I1080061J1671397D01*
G01*
X68919951Y-135290910D02*
G75*
G02*
X68920000Y-133209039I1080049J1040910D01*
G01*
X71080000Y-133209039D02*
G75*
G02*
X71080049Y-135290910I-1080000J-1040961D01*
G01*
X71235516Y-132690000D02*
G75*
G02*
X71080061Y-135921397I-1235516J-1560000D01*
G01*
%TO.C,R53*%
X79980000Y-48630000D02*
X79980000Y-48960000D01*
X79980000Y-51370000D02*
X79980000Y-51040000D01*
X86520000Y-48630000D02*
X79980000Y-48630000D01*
X86520000Y-48960000D02*
X86520000Y-48630000D01*
X86520000Y-51040000D02*
X86520000Y-51370000D01*
X86520000Y-51370000D02*
X79980000Y-51370000D01*
%TO.C,SW3*%
X81200000Y-215550000D02*
X68800000Y-215550000D01*
X68800000Y-201950000D01*
X81200000Y-201950000D01*
X81200000Y-215550000D01*
%TO.C,D8*%
X68920000Y-192940000D02*
X68764000Y-192940000D01*
X71236000Y-192940000D02*
X71080000Y-192940000D01*
X68919939Y-196171397D02*
G75*
G02*
X68764484Y-192940000I1080061J1671397D01*
G01*
X68919951Y-195540910D02*
G75*
G02*
X68920000Y-193459039I1080049J1040910D01*
G01*
X71080000Y-193459039D02*
G75*
G02*
X71080049Y-195540910I-1080000J-1040961D01*
G01*
X71235516Y-192940000D02*
G75*
G02*
X71080061Y-196171397I-1235516J-1560000D01*
G01*
%TO.C,RV4*%
X78370000Y-67120000D02*
X78370000Y-62400000D01*
X78380000Y-58590000D02*
X78380000Y-55530000D01*
X79560000Y-67120000D02*
X78380000Y-67120000D01*
X82460000Y-67120000D02*
X81930000Y-67120000D01*
X84910000Y-67120000D02*
X84080000Y-67120000D01*
X88120000Y-55530000D02*
X78380000Y-55530000D01*
X88120000Y-58590000D02*
X88120000Y-55530000D01*
X88120000Y-67120000D02*
X86630000Y-67120000D01*
X88120000Y-67120000D02*
X88120000Y-62400000D01*
%TO.C,R54*%
X79980000Y-109130000D02*
X79980000Y-109460000D01*
X79980000Y-111870000D02*
X79980000Y-111540000D01*
X86520000Y-109130000D02*
X79980000Y-109130000D01*
X86520000Y-109460000D02*
X86520000Y-109130000D01*
X86520000Y-111540000D02*
X86520000Y-111870000D01*
X86520000Y-111870000D02*
X79980000Y-111870000D01*
%TO.C,SW2*%
X81200000Y-155300000D02*
X68800000Y-155300000D01*
X68800000Y-141700000D01*
X81200000Y-141700000D01*
X81200000Y-155300000D01*
%TO.C,D6*%
X68920000Y-72440000D02*
X68764000Y-72440000D01*
X71236000Y-72440000D02*
X71080000Y-72440000D01*
X68919939Y-75671397D02*
G75*
G02*
X68764484Y-72440000I1080061J1671397D01*
G01*
X68919951Y-75040910D02*
G75*
G02*
X68920000Y-72959039I1080049J1040910D01*
G01*
X71080000Y-72959039D02*
G75*
G02*
X71080049Y-75040910I-1080000J-1040961D01*
G01*
X71235516Y-72440000D02*
G75*
G02*
X71080061Y-75671397I-1235516J-1560000D01*
G01*
%TO.C,R59*%
X69380000Y-119230000D02*
X69380000Y-125770000D01*
X69380000Y-125770000D02*
X69710000Y-125770000D01*
X69710000Y-119230000D02*
X69380000Y-119230000D01*
X71790000Y-119230000D02*
X72120000Y-119230000D01*
X72120000Y-119230000D02*
X72120000Y-125770000D01*
X72120000Y-125770000D02*
X71790000Y-125770000D01*
%TO.C,SW1*%
X81200000Y-95050000D02*
X68800000Y-95050000D01*
X68800000Y-81450000D01*
X81200000Y-81450000D01*
X81200000Y-95050000D01*
%TO.C,R60*%
X73130000Y-179230000D02*
X73130000Y-185770000D01*
X73130000Y-185770000D02*
X73460000Y-185770000D01*
X73460000Y-179230000D02*
X73130000Y-179230000D01*
X75540000Y-179230000D02*
X75870000Y-179230000D01*
X75870000Y-179230000D02*
X75870000Y-185770000D01*
X75870000Y-185770000D02*
X75540000Y-185770000D01*
%TO.C,RV5*%
X78370000Y-127370000D02*
X78370000Y-122650000D01*
X78380000Y-118840000D02*
X78380000Y-115780000D01*
X79560000Y-127370000D02*
X78380000Y-127370000D01*
X82460000Y-127370000D02*
X81930000Y-127370000D01*
X84910000Y-127370000D02*
X84080000Y-127370000D01*
X88120000Y-115780000D02*
X78380000Y-115780000D01*
X88120000Y-118840000D02*
X88120000Y-115780000D01*
X88120000Y-127370000D02*
X86630000Y-127370000D01*
X88120000Y-127370000D02*
X88120000Y-122650000D01*
%TO.C,R56*%
X83380000Y-85230000D02*
X83380000Y-91770000D01*
X83380000Y-91770000D02*
X83710000Y-91770000D01*
X83710000Y-85230000D02*
X83380000Y-85230000D01*
X85790000Y-85230000D02*
X86120000Y-85230000D01*
X86120000Y-85230000D02*
X86120000Y-91770000D01*
X86120000Y-91770000D02*
X85790000Y-91770000D01*
%TD*%
%LPC*%
D13*
%TO.C,R55*%
X87060000Y-170750000D03*
D14*
X79440000Y-170750000D03*
%TD*%
D15*
%TO.C,RV6*%
X78450000Y-181000000D03*
X88050000Y-181000000D03*
D16*
X80750000Y-188500000D03*
D17*
X83250000Y-188500000D03*
X85750000Y-188500000D03*
%TD*%
D13*
%TO.C,R61*%
X70750000Y-178690000D03*
D14*
X70750000Y-186310000D03*
%TD*%
D13*
%TO.C,R57*%
X70750000Y-58690000D03*
D14*
X70750000Y-66310000D03*
%TD*%
D18*
%TO.C,J0*%
X95000000Y-140000000D03*
%TD*%
D13*
%TO.C,R58*%
X84750000Y-144690000D03*
D14*
X84750000Y-152310000D03*
%TD*%
D19*
%TO.C,D7*%
X70000000Y-132250000D03*
D20*
X70000000Y-134250000D03*
X70000000Y-136250000D03*
%TD*%
D13*
%TO.C,R53*%
X87060000Y-50000000D03*
D14*
X79440000Y-50000000D03*
%TD*%
D21*
%TO.C,SW3*%
X77375000Y-204050000D03*
X77375000Y-208750000D03*
X77375000Y-213450000D03*
X72625000Y-204050000D03*
X72625000Y-208750000D03*
X72625000Y-213450000D03*
%TD*%
D19*
%TO.C,D8*%
X70000000Y-192500000D03*
D20*
X70000000Y-194500000D03*
X70000000Y-196500000D03*
%TD*%
D15*
%TO.C,RV4*%
X78450000Y-60500000D03*
X88050000Y-60500000D03*
D16*
X80750000Y-68000000D03*
D17*
X83250000Y-68000000D03*
X85750000Y-68000000D03*
%TD*%
D13*
%TO.C,R54*%
X87060000Y-110500000D03*
D14*
X79440000Y-110500000D03*
%TD*%
D21*
%TO.C,SW2*%
X77375000Y-143800000D03*
X77375000Y-148500000D03*
X77375000Y-153200000D03*
X72625000Y-143800000D03*
X72625000Y-148500000D03*
X72625000Y-153200000D03*
%TD*%
D19*
%TO.C,D6*%
X70000000Y-72000000D03*
D20*
X70000000Y-74000000D03*
X70000000Y-76000000D03*
%TD*%
D13*
%TO.C,R59*%
X70750000Y-118690000D03*
D14*
X70750000Y-126310000D03*
%TD*%
D21*
%TO.C,SW1*%
X77375000Y-83550000D03*
X77375000Y-88250000D03*
X77375000Y-92950000D03*
X72625000Y-83550000D03*
X72625000Y-88250000D03*
X72625000Y-92950000D03*
%TD*%
D13*
%TO.C,R60*%
X74500000Y-178690000D03*
D14*
X74500000Y-186310000D03*
%TD*%
D15*
%TO.C,RV5*%
X78450000Y-120750000D03*
X88050000Y-120750000D03*
D16*
X80750000Y-128250000D03*
D17*
X83250000Y-128250000D03*
X85750000Y-128250000D03*
%TD*%
D13*
%TO.C,R56*%
X84750000Y-84690000D03*
D14*
X84750000Y-92310000D03*
%TD*%
D18*
%TO.C,J60*%
X76675000Y-131225000D03*
D22*
X79215000Y-131225000D03*
X81755000Y-131225000D03*
X84295000Y-131225000D03*
X86835000Y-131225000D03*
X89375000Y-131225000D03*
%TD*%
D18*
%TO.C,J70*%
X76675000Y-194225000D03*
D22*
X79215000Y-194225000D03*
X81755000Y-194225000D03*
X84295000Y-194225000D03*
X86835000Y-194225000D03*
X89375000Y-194225000D03*
%TD*%
D18*
%TO.C,J50*%
X76675000Y-70975000D03*
D22*
X79215000Y-70975000D03*
X81755000Y-70975000D03*
X84295000Y-70975000D03*
X86835000Y-70975000D03*
X89375000Y-70975000D03*
%TD*%
%LPD*%
M02*
