%TF.GenerationSoftware,KiCad,Pcbnew,9.0.0*%
%TF.CreationDate,2025-04-19T14:08:19+02:00*%
%TF.ProjectId,DMH_Tripple_VCA_PCB_2,444d485f-5472-4697-9070-6c655f564341,1*%
%TF.SameCoordinates,Original*%
%TF.FileFunction,Copper,L1,Top*%
%TF.FilePolarity,Positive*%
%FSLAX46Y46*%
G04 Gerber Fmt 4.6, Leading zero omitted, Abs format (unit mm)*
G04 Created by KiCad (PCBNEW 9.0.0) date 2025-04-19 14:08:19*
%MOMM*%
%LPD*%
G01*
G04 APERTURE LIST*
%TA.AperFunction,ComponentPad*%
%ADD10C,1.600000*%
%TD*%
%TA.AperFunction,ComponentPad*%
%ADD11O,1.600000X1.600000*%
%TD*%
%TA.AperFunction,ComponentPad*%
%ADD12O,2.720000X3.240000*%
%TD*%
%TA.AperFunction,ComponentPad*%
%ADD13R,1.800000X1.800000*%
%TD*%
%TA.AperFunction,ComponentPad*%
%ADD14C,1.800000*%
%TD*%
%TA.AperFunction,ComponentPad*%
%ADD15R,1.700000X1.700000*%
%TD*%
%TA.AperFunction,ComponentPad*%
%ADD16R,1.800000X1.400000*%
%TD*%
%TA.AperFunction,ComponentPad*%
%ADD17O,1.800000X1.400000*%
%TD*%
%TA.AperFunction,ComponentPad*%
%ADD18C,2.600000*%
%TD*%
%TA.AperFunction,ComponentPad*%
%ADD19O,1.700000X1.700000*%
%TD*%
%TA.AperFunction,Conductor*%
%ADD20C,0.200000*%
%TD*%
G04 APERTURE END LIST*
D10*
%TO.P,R55,1*%
%TO.N,Net-(R55-Pad1)*%
X87060000Y-170750000D03*
D11*
%TO.P,R55,2*%
%TO.N,+12V*%
X79440000Y-170750000D03*
%TD*%
D12*
%TO.P,RV6,*%
%TO.N,*%
X78450000Y-181000000D03*
X88050000Y-181000000D03*
D13*
%TO.P,RV6,1,1*%
%TO.N,GND*%
X80750000Y-188500000D03*
D14*
%TO.P,RV6,2,2*%
%TO.N,/Inputs and Outputs/Offset C Pot*%
X83250000Y-188500000D03*
%TO.P,RV6,3,3*%
%TO.N,Net-(R55-Pad1)*%
X85750000Y-188500000D03*
%TD*%
D10*
%TO.P,R61,1*%
%TO.N,Net-(D8-A1)*%
X70750000Y-178690000D03*
D11*
%TO.P,R61,2*%
%TO.N,Net-(R61-Pad2)*%
X70750000Y-186310000D03*
%TD*%
D10*
%TO.P,R57,1*%
%TO.N,Net-(D6-A1)*%
X70750000Y-58690000D03*
D11*
%TO.P,R57,2*%
%TO.N,Net-(R57-Pad2)*%
X70750000Y-66310000D03*
%TD*%
D15*
%TO.P,J0,1,Pin_1*%
%TO.N,GND*%
X95000000Y-140000000D03*
%TD*%
D10*
%TO.P,R58,1*%
%TO.N,Net-(D7-A2)*%
X84750000Y-144690000D03*
D11*
%TO.P,R58,2*%
%TO.N,Net-(R58-Pad2)*%
X84750000Y-152310000D03*
%TD*%
D16*
%TO.P,D7,1,A1*%
%TO.N,Net-(D7-A1)*%
X70000000Y-132250000D03*
D17*
%TO.P,D7,2,K*%
%TO.N,GND*%
X70000000Y-134250000D03*
%TO.P,D7,3,A2*%
%TO.N,Net-(D7-A2)*%
X70000000Y-136250000D03*
%TD*%
D10*
%TO.P,R53,1*%
%TO.N,Net-(R53-Pad1)*%
X87060000Y-50000000D03*
D11*
%TO.P,R53,2*%
%TO.N,+12V*%
X79440000Y-50000000D03*
%TD*%
D18*
%TO.P,SW3,1,A*%
%TO.N,/Inputs and Outputs/Mute C Switch*%
X77375000Y-204050000D03*
%TO.P,SW3,2,B*%
%TO.N,/Inputs and Outputs/Output C Jack*%
X77375000Y-208750000D03*
%TO.P,SW3,3,C*%
%TO.N,unconnected-(SW3-C-Pad3)*%
X77375000Y-213450000D03*
%TO.P,SW3,4,A*%
%TO.N,Net-(R61-Pad2)*%
X72625000Y-204050000D03*
%TO.P,SW3,5,B*%
%TO.N,+12V*%
X72625000Y-208750000D03*
%TO.P,SW3,6,C*%
%TO.N,Net-(R60-Pad2)*%
X72625000Y-213450000D03*
%TD*%
D16*
%TO.P,D8,1,A1*%
%TO.N,Net-(D8-A1)*%
X70000000Y-192500000D03*
D17*
%TO.P,D8,2,K*%
%TO.N,GND*%
X70000000Y-194500000D03*
%TO.P,D8,3,A2*%
%TO.N,Net-(D8-A2)*%
X70000000Y-196500000D03*
%TD*%
D12*
%TO.P,RV4,*%
%TO.N,*%
X78450000Y-60500000D03*
X88050000Y-60500000D03*
D13*
%TO.P,RV4,1,1*%
%TO.N,GND*%
X80750000Y-68000000D03*
D14*
%TO.P,RV4,2,2*%
%TO.N,/Inputs and Outputs/Offset A Pot*%
X83250000Y-68000000D03*
%TO.P,RV4,3,3*%
%TO.N,Net-(R53-Pad1)*%
X85750000Y-68000000D03*
%TD*%
D10*
%TO.P,R54,1*%
%TO.N,Net-(R54-Pad1)*%
X87060000Y-110500000D03*
D11*
%TO.P,R54,2*%
%TO.N,+12V*%
X79440000Y-110500000D03*
%TD*%
D18*
%TO.P,SW2,1,A*%
%TO.N,/Inputs and Outputs/Mute B Switch*%
X77375000Y-143800000D03*
%TO.P,SW2,2,B*%
%TO.N,/Inputs and Outputs/Output B Jack*%
X77375000Y-148500000D03*
%TO.P,SW2,3,C*%
%TO.N,unconnected-(SW2-C-Pad3)*%
X77375000Y-153200000D03*
%TO.P,SW2,4,A*%
%TO.N,Net-(R59-Pad2)*%
X72625000Y-143800000D03*
%TO.P,SW2,5,B*%
%TO.N,+12V*%
X72625000Y-148500000D03*
%TO.P,SW2,6,C*%
%TO.N,Net-(R58-Pad2)*%
X72625000Y-153200000D03*
%TD*%
D16*
%TO.P,D6,1,A1*%
%TO.N,Net-(D6-A1)*%
X70000000Y-72000000D03*
D17*
%TO.P,D6,2,K*%
%TO.N,GND*%
X70000000Y-74000000D03*
%TO.P,D6,3,A2*%
%TO.N,Net-(D6-A2)*%
X70000000Y-76000000D03*
%TD*%
D10*
%TO.P,R59,1*%
%TO.N,Net-(D7-A1)*%
X70750000Y-118690000D03*
D11*
%TO.P,R59,2*%
%TO.N,Net-(R59-Pad2)*%
X70750000Y-126310000D03*
%TD*%
D18*
%TO.P,SW1,1,A*%
%TO.N,/Inputs and Outputs/Mute A Switch*%
X77375000Y-83550000D03*
%TO.P,SW1,2,B*%
%TO.N,/Inputs and Outputs/Output A Jack*%
X77375000Y-88250000D03*
%TO.P,SW1,3,C*%
%TO.N,unconnected-(SW1-C-Pad3)*%
X77375000Y-92950000D03*
%TO.P,SW1,4,A*%
%TO.N,Net-(R57-Pad2)*%
X72625000Y-83550000D03*
%TO.P,SW1,5,B*%
%TO.N,+12V*%
X72625000Y-88250000D03*
%TO.P,SW1,6,C*%
%TO.N,Net-(R56-Pad2)*%
X72625000Y-92950000D03*
%TD*%
D10*
%TO.P,R60,1*%
%TO.N,Net-(D8-A2)*%
X74500000Y-178690000D03*
D11*
%TO.P,R60,2*%
%TO.N,Net-(R60-Pad2)*%
X74500000Y-186310000D03*
%TD*%
D12*
%TO.P,RV5,*%
%TO.N,*%
X78450000Y-120750000D03*
X88050000Y-120750000D03*
D13*
%TO.P,RV5,1,1*%
%TO.N,GND*%
X80750000Y-128250000D03*
D14*
%TO.P,RV5,2,2*%
%TO.N,/Inputs and Outputs/Offset B Pot*%
X83250000Y-128250000D03*
%TO.P,RV5,3,3*%
%TO.N,Net-(R54-Pad1)*%
X85750000Y-128250000D03*
%TD*%
D10*
%TO.P,R56,1*%
%TO.N,Net-(D6-A2)*%
X84750000Y-84690000D03*
D11*
%TO.P,R56,2*%
%TO.N,Net-(R56-Pad2)*%
X84750000Y-92310000D03*
%TD*%
D15*
%TO.P,J60,1,Pin_1*%
%TO.N,+12V*%
X76675000Y-131225000D03*
D19*
%TO.P,J60,2,Pin_2*%
%TO.N,/Inputs and Outputs/Mute B Switch*%
X79215000Y-131225000D03*
%TO.P,J60,3,Pin_3*%
%TO.N,/Inputs and Outputs/Output B Jack*%
X81755000Y-131225000D03*
%TO.P,J60,4,Pin_4*%
%TO.N,/Inputs and Outputs/Offset B Pot*%
X84295000Y-131225000D03*
%TO.P,J60,5,Pin_5*%
%TO.N,GND*%
X86835000Y-131225000D03*
%TO.P,J60,6,Pin_6*%
X89375000Y-131225000D03*
%TD*%
D15*
%TO.P,J70,1,Pin_1*%
%TO.N,+12V*%
X76675000Y-194225000D03*
D19*
%TO.P,J70,2,Pin_2*%
%TO.N,/Inputs and Outputs/Mute C Switch*%
X79215000Y-194225000D03*
%TO.P,J70,3,Pin_3*%
%TO.N,/Inputs and Outputs/Output C Jack*%
X81755000Y-194225000D03*
%TO.P,J70,4,Pin_4*%
%TO.N,/Inputs and Outputs/Offset C Pot*%
X84295000Y-194225000D03*
%TO.P,J70,5,Pin_5*%
%TO.N,GND*%
X86835000Y-194225000D03*
%TO.P,J70,6,Pin_6*%
X89375000Y-194225000D03*
%TD*%
D15*
%TO.P,J50,1,Pin_1*%
%TO.N,+12V*%
X76675000Y-70975000D03*
D19*
%TO.P,J50,2,Pin_2*%
%TO.N,/Inputs and Outputs/Mute A Switch*%
X79215000Y-70975000D03*
%TO.P,J50,3,Pin_3*%
%TO.N,/Inputs and Outputs/Output A Jack*%
X81755000Y-70975000D03*
%TO.P,J50,4,Pin_4*%
%TO.N,/Inputs and Outputs/Offset A Pot*%
X84295000Y-70975000D03*
%TO.P,J50,5,Pin_5*%
%TO.N,GND*%
X86835000Y-70975000D03*
%TO.P,J50,6,Pin_6*%
X89375000Y-70975000D03*
%TD*%
D20*
%TO.N,Net-(D6-A2)*%
X70000000Y-76000000D02*
X76060000Y-76000000D01*
%TO.N,Net-(D7-A2)*%
X70000000Y-136250000D02*
X76310000Y-136250000D01*
X76310000Y-136250000D02*
X84750000Y-144690000D01*
%TO.N,Net-(D8-A2)*%
X74500000Y-178690000D02*
X72750000Y-180440000D01*
X72750000Y-195250000D02*
X71500000Y-196500000D01*
X72750000Y-180440000D02*
X72750000Y-195250000D01*
X71500000Y-196500000D02*
X70000000Y-196500000D01*
%TO.N,Net-(R56-Pad2)*%
X74675000Y-95000000D02*
X72625000Y-92950000D01*
X82060000Y-95000000D02*
X74675000Y-95000000D01*
X84750000Y-92310000D02*
X82060000Y-95000000D01*
%TO.N,Net-(R58-Pad2)*%
X74675000Y-155250000D02*
X81810000Y-155250000D01*
X81810000Y-155250000D02*
X84750000Y-152310000D01*
X72625000Y-153200000D02*
X74675000Y-155250000D01*
%TO.N,Net-(D6-A2)*%
X76060000Y-76000000D02*
X84750000Y-84690000D01*
%TD*%
%TA.AperFunction,Conductor*%
%TO.N,GND*%
G36*
X88909075Y-194032007D02*
G01*
X88875000Y-194159174D01*
X88875000Y-194290826D01*
X88909075Y-194417993D01*
X88941988Y-194475000D01*
X87268012Y-194475000D01*
X87300925Y-194417993D01*
X87335000Y-194290826D01*
X87335000Y-194159174D01*
X87300925Y-194032007D01*
X87268012Y-193975000D01*
X88941988Y-193975000D01*
X88909075Y-194032007D01*
G37*
%TD.AperFunction*%
%TA.AperFunction,Conductor*%
G36*
X88909075Y-131032007D02*
G01*
X88875000Y-131159174D01*
X88875000Y-131290826D01*
X88909075Y-131417993D01*
X88941988Y-131475000D01*
X87268012Y-131475000D01*
X87300925Y-131417993D01*
X87335000Y-131290826D01*
X87335000Y-131159174D01*
X87300925Y-131032007D01*
X87268012Y-130975000D01*
X88941988Y-130975000D01*
X88909075Y-131032007D01*
G37*
%TD.AperFunction*%
%TA.AperFunction,Conductor*%
G36*
X88909075Y-70782007D02*
G01*
X88875000Y-70909174D01*
X88875000Y-71040826D01*
X88909075Y-71167993D01*
X88941988Y-71225000D01*
X87268012Y-71225000D01*
X87300925Y-71167993D01*
X87335000Y-71040826D01*
X87335000Y-70909174D01*
X87300925Y-70782007D01*
X87268012Y-70725000D01*
X88941988Y-70725000D01*
X88909075Y-70782007D01*
G37*
%TD.AperFunction*%
%TA.AperFunction,Conductor*%
G36*
X98442539Y-43020185D02*
G01*
X98488294Y-43072989D01*
X98499500Y-43124500D01*
X98499500Y-198875500D01*
X98479815Y-198942539D01*
X98427011Y-198988294D01*
X98375500Y-198999500D01*
X82434108Y-198999500D01*
X82306812Y-199033608D01*
X82192686Y-199099500D01*
X82192683Y-199099502D01*
X82099502Y-199192683D01*
X82099500Y-199192686D01*
X82033608Y-199306812D01*
X81999500Y-199434108D01*
X81999500Y-216875500D01*
X81979815Y-216942539D01*
X81927011Y-216988294D01*
X81875500Y-216999500D01*
X68124500Y-216999500D01*
X68057461Y-216979815D01*
X68011706Y-216927011D01*
X68000500Y-216875500D01*
X68000500Y-213331995D01*
X70824500Y-213331995D01*
X70824500Y-213568004D01*
X70824501Y-213568020D01*
X70855306Y-213802010D01*
X70916394Y-214029993D01*
X71006714Y-214248045D01*
X71006719Y-214248056D01*
X71077677Y-214370957D01*
X71124727Y-214452450D01*
X71124729Y-214452453D01*
X71124730Y-214452454D01*
X71268406Y-214639697D01*
X71268412Y-214639704D01*
X71435295Y-214806587D01*
X71435301Y-214806592D01*
X71622550Y-214950273D01*
X71753918Y-215026118D01*
X71826943Y-215068280D01*
X71826948Y-215068282D01*
X71826951Y-215068284D01*
X72045007Y-215158606D01*
X72272986Y-215219693D01*
X72506989Y-215250500D01*
X72506996Y-215250500D01*
X72743004Y-215250500D01*
X72743011Y-215250500D01*
X72977014Y-215219693D01*
X73204993Y-215158606D01*
X73423049Y-215068284D01*
X73627450Y-214950273D01*
X73814699Y-214806592D01*
X73981592Y-214639699D01*
X74125273Y-214452450D01*
X74243284Y-214248049D01*
X74333606Y-214029993D01*
X74394693Y-213802014D01*
X74425500Y-213568011D01*
X74425500Y-213331995D01*
X75574500Y-213331995D01*
X75574500Y-213568004D01*
X75574501Y-213568020D01*
X75605306Y-213802010D01*
X75666394Y-214029993D01*
X75756714Y-214248045D01*
X75756719Y-214248056D01*
X75827677Y-214370957D01*
X75874727Y-214452450D01*
X75874729Y-214452453D01*
X75874730Y-214452454D01*
X76018406Y-214639697D01*
X76018412Y-214639704D01*
X76185295Y-214806587D01*
X76185301Y-214806592D01*
X76372550Y-214950273D01*
X76503918Y-215026118D01*
X76576943Y-215068280D01*
X76576948Y-215068282D01*
X76576951Y-215068284D01*
X76795007Y-215158606D01*
X77022986Y-215219693D01*
X77256989Y-215250500D01*
X77256996Y-215250500D01*
X77493004Y-215250500D01*
X77493011Y-215250500D01*
X77727014Y-215219693D01*
X77954993Y-215158606D01*
X78173049Y-215068284D01*
X78377450Y-214950273D01*
X78564699Y-214806592D01*
X78731592Y-214639699D01*
X78875273Y-214452450D01*
X78993284Y-214248049D01*
X79083606Y-214029993D01*
X79144693Y-213802014D01*
X79175500Y-213568011D01*
X79175500Y-213331989D01*
X79144693Y-213097986D01*
X79083606Y-212870007D01*
X78993284Y-212651951D01*
X78993282Y-212651948D01*
X78993280Y-212651943D01*
X78951118Y-212578918D01*
X78875273Y-212447550D01*
X78731592Y-212260301D01*
X78731587Y-212260295D01*
X78564704Y-212093412D01*
X78564697Y-212093406D01*
X78377454Y-211949730D01*
X78377453Y-211949729D01*
X78377450Y-211949727D01*
X78295957Y-211902677D01*
X78173056Y-211831719D01*
X78173045Y-211831714D01*
X77954993Y-211741394D01*
X77727010Y-211680306D01*
X77493020Y-211649501D01*
X77493017Y-211649500D01*
X77493011Y-211649500D01*
X77256989Y-211649500D01*
X77256983Y-211649500D01*
X77256979Y-211649501D01*
X77022989Y-211680306D01*
X76795006Y-211741394D01*
X76576954Y-211831714D01*
X76576943Y-211831719D01*
X76372545Y-211949730D01*
X76185302Y-212093406D01*
X76185295Y-212093412D01*
X76018412Y-212260295D01*
X76018406Y-212260302D01*
X75874730Y-212447545D01*
X75756719Y-212651943D01*
X75756714Y-212651954D01*
X75666394Y-212870006D01*
X75605306Y-213097989D01*
X75574501Y-213331979D01*
X75574500Y-213331995D01*
X74425500Y-213331995D01*
X74425500Y-213331989D01*
X74394693Y-213097986D01*
X74333606Y-212870007D01*
X74243284Y-212651951D01*
X74243282Y-212651948D01*
X74243280Y-212651943D01*
X74201118Y-212578918D01*
X74125273Y-212447550D01*
X73981592Y-212260301D01*
X73981587Y-212260295D01*
X73814704Y-212093412D01*
X73814697Y-212093406D01*
X73627454Y-211949730D01*
X73627453Y-211949729D01*
X73627450Y-211949727D01*
X73545957Y-211902677D01*
X73423056Y-211831719D01*
X73423045Y-211831714D01*
X73204993Y-211741394D01*
X72977010Y-211680306D01*
X72743020Y-211649501D01*
X72743017Y-211649500D01*
X72743011Y-211649500D01*
X72506989Y-211649500D01*
X72506983Y-211649500D01*
X72506979Y-211649501D01*
X72272989Y-211680306D01*
X72045006Y-211741394D01*
X71826954Y-211831714D01*
X71826943Y-211831719D01*
X71622545Y-211949730D01*
X71435302Y-212093406D01*
X71435295Y-212093412D01*
X71268412Y-212260295D01*
X71268406Y-212260302D01*
X71124730Y-212447545D01*
X71006719Y-212651943D01*
X71006714Y-212651954D01*
X70916394Y-212870006D01*
X70855306Y-213097989D01*
X70824501Y-213331979D01*
X70824500Y-213331995D01*
X68000500Y-213331995D01*
X68000500Y-208631995D01*
X70824500Y-208631995D01*
X70824500Y-208868004D01*
X70824501Y-208868020D01*
X70855306Y-209102010D01*
X70916394Y-209329993D01*
X71006714Y-209548045D01*
X71006719Y-209548056D01*
X71077677Y-209670957D01*
X71124727Y-209752450D01*
X71124729Y-209752453D01*
X71124730Y-209752454D01*
X71268406Y-209939697D01*
X71268412Y-209939704D01*
X71435295Y-210106587D01*
X71435301Y-210106592D01*
X71622550Y-210250273D01*
X71753918Y-210326118D01*
X71826943Y-210368280D01*
X71826948Y-210368282D01*
X71826951Y-210368284D01*
X72045007Y-210458606D01*
X72272986Y-210519693D01*
X72506989Y-210550500D01*
X72506996Y-210550500D01*
X72743004Y-210550500D01*
X72743011Y-210550500D01*
X72977014Y-210519693D01*
X73204993Y-210458606D01*
X73423049Y-210368284D01*
X73627450Y-210250273D01*
X73814699Y-210106592D01*
X73981592Y-209939699D01*
X74125273Y-209752450D01*
X74243284Y-209548049D01*
X74333606Y-209329993D01*
X74394693Y-209102014D01*
X74425500Y-208868011D01*
X74425500Y-208631995D01*
X75574500Y-208631995D01*
X75574500Y-208868004D01*
X75574501Y-208868020D01*
X75605306Y-209102010D01*
X75666394Y-209329993D01*
X75756714Y-209548045D01*
X75756719Y-209548056D01*
X75827677Y-209670957D01*
X75874727Y-209752450D01*
X75874729Y-209752453D01*
X75874730Y-209752454D01*
X76018406Y-209939697D01*
X76018412Y-209939704D01*
X76185295Y-210106587D01*
X76185301Y-210106592D01*
X76372550Y-210250273D01*
X76503918Y-210326118D01*
X76576943Y-210368280D01*
X76576948Y-210368282D01*
X76576951Y-210368284D01*
X76795007Y-210458606D01*
X77022986Y-210519693D01*
X77256989Y-210550500D01*
X77256996Y-210550500D01*
X77493004Y-210550500D01*
X77493011Y-210550500D01*
X77727014Y-210519693D01*
X77954993Y-210458606D01*
X78173049Y-210368284D01*
X78377450Y-210250273D01*
X78564699Y-210106592D01*
X78731592Y-209939699D01*
X78875273Y-209752450D01*
X78993284Y-209548049D01*
X79083606Y-209329993D01*
X79144693Y-209102014D01*
X79175500Y-208868011D01*
X79175500Y-208631989D01*
X79144693Y-208397986D01*
X79083606Y-208170007D01*
X78993284Y-207951951D01*
X78993282Y-207951948D01*
X78993280Y-207951943D01*
X78951118Y-207878918D01*
X78875273Y-207747550D01*
X78731592Y-207560301D01*
X78731587Y-207560295D01*
X78564704Y-207393412D01*
X78564697Y-207393406D01*
X78377454Y-207249730D01*
X78377453Y-207249729D01*
X78377450Y-207249727D01*
X78295957Y-207202677D01*
X78173056Y-207131719D01*
X78173045Y-207131714D01*
X77954993Y-207041394D01*
X77727010Y-206980306D01*
X77493020Y-206949501D01*
X77493017Y-206949500D01*
X77493011Y-206949500D01*
X77256989Y-206949500D01*
X77256983Y-206949500D01*
X77256979Y-206949501D01*
X77022989Y-206980306D01*
X76795006Y-207041394D01*
X76576954Y-207131714D01*
X76576943Y-207131719D01*
X76372545Y-207249730D01*
X76185302Y-207393406D01*
X76185295Y-207393412D01*
X76018412Y-207560295D01*
X76018406Y-207560302D01*
X75874730Y-207747545D01*
X75756719Y-207951943D01*
X75756714Y-207951954D01*
X75666394Y-208170006D01*
X75605306Y-208397989D01*
X75574501Y-208631979D01*
X75574500Y-208631995D01*
X74425500Y-208631995D01*
X74425500Y-208631989D01*
X74394693Y-208397986D01*
X74333606Y-208170007D01*
X74243284Y-207951951D01*
X74243282Y-207951948D01*
X74243280Y-207951943D01*
X74201118Y-207878918D01*
X74125273Y-207747550D01*
X73981592Y-207560301D01*
X73981587Y-207560295D01*
X73814704Y-207393412D01*
X73814697Y-207393406D01*
X73627454Y-207249730D01*
X73627453Y-207249729D01*
X73627450Y-207249727D01*
X73545957Y-207202677D01*
X73423056Y-207131719D01*
X73423045Y-207131714D01*
X73204993Y-207041394D01*
X72977010Y-206980306D01*
X72743020Y-206949501D01*
X72743017Y-206949500D01*
X72743011Y-206949500D01*
X72506989Y-206949500D01*
X72506983Y-206949500D01*
X72506979Y-206949501D01*
X72272989Y-206980306D01*
X72045006Y-207041394D01*
X71826954Y-207131714D01*
X71826943Y-207131719D01*
X71622545Y-207249730D01*
X71435302Y-207393406D01*
X71435295Y-207393412D01*
X71268412Y-207560295D01*
X71268406Y-207560302D01*
X71124730Y-207747545D01*
X71006719Y-207951943D01*
X71006714Y-207951954D01*
X70916394Y-208170006D01*
X70855306Y-208397989D01*
X70824501Y-208631979D01*
X70824500Y-208631995D01*
X68000500Y-208631995D01*
X68000500Y-203931995D01*
X70824500Y-203931995D01*
X70824500Y-204168004D01*
X70824501Y-204168020D01*
X70855306Y-204402010D01*
X70916394Y-204629993D01*
X71006714Y-204848045D01*
X71006719Y-204848056D01*
X71077677Y-204970957D01*
X71124727Y-205052450D01*
X71124729Y-205052453D01*
X71124730Y-205052454D01*
X71268406Y-205239697D01*
X71268412Y-205239704D01*
X71435295Y-205406587D01*
X71435301Y-205406592D01*
X71622550Y-205550273D01*
X71753918Y-205626118D01*
X71826943Y-205668280D01*
X71826948Y-205668282D01*
X71826951Y-205668284D01*
X72045007Y-205758606D01*
X72272986Y-205819693D01*
X72506989Y-205850500D01*
X72506996Y-205850500D01*
X72743004Y-205850500D01*
X72743011Y-205850500D01*
X72977014Y-205819693D01*
X73204993Y-205758606D01*
X73423049Y-205668284D01*
X73627450Y-205550273D01*
X73814699Y-205406592D01*
X73981592Y-205239699D01*
X74125273Y-205052450D01*
X74243284Y-204848049D01*
X74333606Y-204629993D01*
X74394693Y-204402014D01*
X74425500Y-204168011D01*
X74425500Y-203931995D01*
X75574500Y-203931995D01*
X75574500Y-204168004D01*
X75574501Y-204168020D01*
X75605306Y-204402010D01*
X75666394Y-204629993D01*
X75756714Y-204848045D01*
X75756719Y-204848056D01*
X75827677Y-204970957D01*
X75874727Y-205052450D01*
X75874729Y-205052453D01*
X75874730Y-205052454D01*
X76018406Y-205239697D01*
X76018412Y-205239704D01*
X76185295Y-205406587D01*
X76185301Y-205406592D01*
X76372550Y-205550273D01*
X76503918Y-205626118D01*
X76576943Y-205668280D01*
X76576948Y-205668282D01*
X76576951Y-205668284D01*
X76795007Y-205758606D01*
X77022986Y-205819693D01*
X77256989Y-205850500D01*
X77256996Y-205850500D01*
X77493004Y-205850500D01*
X77493011Y-205850500D01*
X77727014Y-205819693D01*
X77954993Y-205758606D01*
X78173049Y-205668284D01*
X78377450Y-205550273D01*
X78564699Y-205406592D01*
X78731592Y-205239699D01*
X78875273Y-205052450D01*
X78993284Y-204848049D01*
X79083606Y-204629993D01*
X79144693Y-204402014D01*
X79175500Y-204168011D01*
X79175500Y-203931989D01*
X79144693Y-203697986D01*
X79083606Y-203470007D01*
X78993284Y-203251951D01*
X78993282Y-203251948D01*
X78993280Y-203251943D01*
X78951118Y-203178918D01*
X78875273Y-203047550D01*
X78731592Y-202860301D01*
X78731587Y-202860295D01*
X78564704Y-202693412D01*
X78564697Y-202693406D01*
X78377454Y-202549730D01*
X78377453Y-202549729D01*
X78377450Y-202549727D01*
X78295957Y-202502677D01*
X78173056Y-202431719D01*
X78173045Y-202431714D01*
X77954993Y-202341394D01*
X77727010Y-202280306D01*
X77493020Y-202249501D01*
X77493017Y-202249500D01*
X77493011Y-202249500D01*
X77256989Y-202249500D01*
X77256983Y-202249500D01*
X77256979Y-202249501D01*
X77022989Y-202280306D01*
X76795006Y-202341394D01*
X76576954Y-202431714D01*
X76576943Y-202431719D01*
X76372545Y-202549730D01*
X76185302Y-202693406D01*
X76185295Y-202693412D01*
X76018412Y-202860295D01*
X76018406Y-202860302D01*
X75874730Y-203047545D01*
X75756719Y-203251943D01*
X75756714Y-203251954D01*
X75666394Y-203470006D01*
X75605306Y-203697989D01*
X75574501Y-203931979D01*
X75574500Y-203931995D01*
X74425500Y-203931995D01*
X74425500Y-203931989D01*
X74394693Y-203697986D01*
X74333606Y-203470007D01*
X74243284Y-203251951D01*
X74243282Y-203251948D01*
X74243280Y-203251943D01*
X74201118Y-203178918D01*
X74125273Y-203047550D01*
X73981592Y-202860301D01*
X73981587Y-202860295D01*
X73814704Y-202693412D01*
X73814697Y-202693406D01*
X73627454Y-202549730D01*
X73627453Y-202549729D01*
X73627450Y-202549727D01*
X73545957Y-202502677D01*
X73423056Y-202431719D01*
X73423045Y-202431714D01*
X73204993Y-202341394D01*
X72977010Y-202280306D01*
X72743020Y-202249501D01*
X72743017Y-202249500D01*
X72743011Y-202249500D01*
X72506989Y-202249500D01*
X72506983Y-202249500D01*
X72506979Y-202249501D01*
X72272989Y-202280306D01*
X72045006Y-202341394D01*
X71826954Y-202431714D01*
X71826943Y-202431719D01*
X71622545Y-202549730D01*
X71435302Y-202693406D01*
X71435295Y-202693412D01*
X71268412Y-202860295D01*
X71268406Y-202860302D01*
X71124730Y-203047545D01*
X71006719Y-203251943D01*
X71006714Y-203251954D01*
X70916394Y-203470006D01*
X70855306Y-203697989D01*
X70824501Y-203931979D01*
X70824500Y-203931995D01*
X68000500Y-203931995D01*
X68000500Y-191752135D01*
X68599500Y-191752135D01*
X68599500Y-193247870D01*
X68599501Y-193247876D01*
X68605908Y-193307483D01*
X68656202Y-193442328D01*
X68656206Y-193442335D01*
X68718798Y-193525946D01*
X68742454Y-193557546D01*
X68812352Y-193609872D01*
X68854222Y-193665804D01*
X68859206Y-193735496D01*
X68838359Y-193782021D01*
X68773669Y-193871060D01*
X68687914Y-194039362D01*
X68629548Y-194218997D01*
X68624638Y-194250000D01*
X69624722Y-194250000D01*
X69580667Y-194326306D01*
X69550000Y-194440756D01*
X69550000Y-194559244D01*
X69580667Y-194673694D01*
X69624722Y-194750000D01*
X68624638Y-194750000D01*
X68629548Y-194781002D01*
X68687914Y-194960637D01*
X68773670Y-195128940D01*
X68884685Y-195281741D01*
X68884689Y-195281746D01*
X69014909Y-195411966D01*
X69048394Y-195473289D01*
X69043410Y-195542981D01*
X69014909Y-195587328D01*
X68884312Y-195717924D01*
X68884312Y-195717925D01*
X68884310Y-195717927D01*
X68884308Y-195717930D01*
X68773240Y-195870800D01*
X68687454Y-196039163D01*
X68629059Y-196218881D01*
X68599500Y-196405513D01*
X68599500Y-196594486D01*
X68629059Y-196781118D01*
X68687454Y-196960836D01*
X68762284Y-197107696D01*
X68773240Y-197129199D01*
X68884310Y-197282073D01*
X69017927Y-197415690D01*
X69170801Y-197526760D01*
X69250347Y-197567290D01*
X69339163Y-197612545D01*
X69339165Y-197612545D01*
X69339168Y-197612547D01*
X69435497Y-197643846D01*
X69518881Y-197670940D01*
X69705514Y-197700500D01*
X69705519Y-197700500D01*
X70294486Y-197700500D01*
X70481118Y-197670940D01*
X70660832Y-197612547D01*
X70829199Y-197526760D01*
X70982073Y-197415690D01*
X71115690Y-197282073D01*
X71210475Y-197151613D01*
X71214806Y-197148273D01*
X71217079Y-197143297D01*
X71242178Y-197127166D01*
X71265804Y-197108949D01*
X71272475Y-197107696D01*
X71275857Y-197105523D01*
X71310792Y-197100500D01*
X71413331Y-197100500D01*
X71413347Y-197100501D01*
X71420943Y-197100501D01*
X71579054Y-197100501D01*
X71579057Y-197100501D01*
X71731785Y-197059577D01*
X71781904Y-197030639D01*
X71868716Y-196980520D01*
X71980520Y-196868716D01*
X71980520Y-196868714D01*
X71990728Y-196858507D01*
X71990730Y-196858504D01*
X73108506Y-195740728D01*
X73108511Y-195740724D01*
X73118714Y-195730520D01*
X73118716Y-195730520D01*
X73230520Y-195618716D01*
X73288208Y-195518796D01*
X73309577Y-195481785D01*
X73350501Y-195329057D01*
X73350501Y-195170943D01*
X73350501Y-195163348D01*
X73350500Y-195163330D01*
X73350500Y-193327135D01*
X75324500Y-193327135D01*
X75324500Y-195122870D01*
X75324501Y-195122876D01*
X75330908Y-195182483D01*
X75381202Y-195317328D01*
X75381206Y-195317335D01*
X75467452Y-195432544D01*
X75467455Y-195432547D01*
X75582664Y-195518793D01*
X75582671Y-195518797D01*
X75717517Y-195569091D01*
X75717516Y-195569091D01*
X75724444Y-195569835D01*
X75777127Y-195575500D01*
X77572872Y-195575499D01*
X77632483Y-195569091D01*
X77767331Y-195518796D01*
X77882546Y-195432546D01*
X77968796Y-195317331D01*
X78017810Y-195185916D01*
X78059681Y-195129984D01*
X78125145Y-195105566D01*
X78193418Y-195120417D01*
X78221673Y-195141569D01*
X78335213Y-195255109D01*
X78507179Y-195380048D01*
X78507181Y-195380049D01*
X78507184Y-195380051D01*
X78696588Y-195476557D01*
X78898757Y-195542246D01*
X79108713Y-195575500D01*
X79108714Y-195575500D01*
X79321286Y-195575500D01*
X79321287Y-195575500D01*
X79531243Y-195542246D01*
X79733412Y-195476557D01*
X79922816Y-195380051D01*
X80009138Y-195317335D01*
X80094786Y-195255109D01*
X80094788Y-195255106D01*
X80094792Y-195255104D01*
X80245104Y-195104792D01*
X80245106Y-195104788D01*
X80245109Y-195104786D01*
X80370048Y-194932820D01*
X80370047Y-194932820D01*
X80370051Y-194932816D01*
X80374514Y-194924054D01*
X80422488Y-194873259D01*
X80490308Y-194856463D01*
X80556444Y-194878999D01*
X80595486Y-194924056D01*
X80599951Y-194932820D01*
X80724890Y-195104786D01*
X80875213Y-195255109D01*
X81047179Y-195380048D01*
X81047181Y-195380049D01*
X81047184Y-195380051D01*
X81236588Y-195476557D01*
X81438757Y-195542246D01*
X81648713Y-195575500D01*
X81648714Y-195575500D01*
X81861286Y-195575500D01*
X81861287Y-195575500D01*
X82071243Y-195542246D01*
X82273412Y-195476557D01*
X82462816Y-195380051D01*
X82549138Y-195317335D01*
X82634786Y-195255109D01*
X82634788Y-195255106D01*
X82634792Y-195255104D01*
X82785104Y-195104792D01*
X82785106Y-195104788D01*
X82785109Y-195104786D01*
X82910048Y-194932820D01*
X82910047Y-194932820D01*
X82910051Y-194932816D01*
X82914514Y-194924054D01*
X82962488Y-194873259D01*
X83030308Y-194856463D01*
X83096444Y-194878999D01*
X83135486Y-194924056D01*
X83139951Y-194932820D01*
X83264890Y-195104786D01*
X83415213Y-195255109D01*
X83587179Y-195380048D01*
X83587181Y-195380049D01*
X83587184Y-195380051D01*
X83776588Y-195476557D01*
X83978757Y-195542246D01*
X84188713Y-195575500D01*
X84188714Y-195575500D01*
X84401286Y-195575500D01*
X84401287Y-195575500D01*
X84611243Y-195542246D01*
X84813412Y-195476557D01*
X85002816Y-195380051D01*
X85089138Y-195317335D01*
X85174786Y-195255109D01*
X85174788Y-195255106D01*
X85174792Y-195255104D01*
X85325104Y-195104792D01*
X85325106Y-195104788D01*
X85325109Y-195104786D01*
X85437566Y-194950000D01*
X85450051Y-194932816D01*
X85454793Y-194923508D01*
X85502763Y-194872711D01*
X85570583Y-194855911D01*
X85636719Y-194878445D01*
X85675763Y-194923500D01*
X85680377Y-194932555D01*
X85805272Y-195104459D01*
X85805276Y-195104464D01*
X85955535Y-195254723D01*
X85955540Y-195254727D01*
X86127442Y-195379620D01*
X86316782Y-195476095D01*
X86518871Y-195541757D01*
X86585000Y-195552231D01*
X86585000Y-194658012D01*
X86642007Y-194690925D01*
X86769174Y-194725000D01*
X86900826Y-194725000D01*
X87027993Y-194690925D01*
X87085000Y-194658012D01*
X87085000Y-195552230D01*
X87151126Y-195541757D01*
X87151129Y-195541757D01*
X87353217Y-195476095D01*
X87542557Y-195379620D01*
X87714459Y-195254727D01*
X87714464Y-195254723D01*
X87864723Y-195104464D01*
X87864727Y-195104459D01*
X87989620Y-194932558D01*
X87994514Y-194922954D01*
X88042488Y-194872157D01*
X88110308Y-194855361D01*
X88176444Y-194877897D01*
X88215486Y-194922954D01*
X88220379Y-194932558D01*
X88345272Y-195104459D01*
X88345276Y-195104464D01*
X88495535Y-195254723D01*
X88495540Y-195254727D01*
X88667442Y-195379620D01*
X88856782Y-195476095D01*
X89058871Y-195541757D01*
X89125000Y-195552231D01*
X89125000Y-194658012D01*
X89182007Y-194690925D01*
X89309174Y-194725000D01*
X89440826Y-194725000D01*
X89567993Y-194690925D01*
X89625000Y-194658012D01*
X89625000Y-195552230D01*
X89691126Y-195541757D01*
X89691129Y-195541757D01*
X89893217Y-195476095D01*
X90082557Y-195379620D01*
X90254459Y-195254727D01*
X90254464Y-195254723D01*
X90404723Y-195104464D01*
X90404727Y-195104459D01*
X90529620Y-194932557D01*
X90626095Y-194743217D01*
X90691757Y-194541129D01*
X90691757Y-194541126D01*
X90702231Y-194475000D01*
X89808012Y-194475000D01*
X89840925Y-194417993D01*
X89875000Y-194290826D01*
X89875000Y-194159174D01*
X89840925Y-194032007D01*
X89808012Y-193975000D01*
X90702231Y-193975000D01*
X90691757Y-193908873D01*
X90691757Y-193908870D01*
X90626095Y-193706782D01*
X90529620Y-193517442D01*
X90404727Y-193345540D01*
X90404723Y-193345535D01*
X90254464Y-193195276D01*
X90254459Y-193195272D01*
X90082557Y-193070379D01*
X89893215Y-192973903D01*
X89691124Y-192908241D01*
X89625000Y-192897768D01*
X89625000Y-193791988D01*
X89567993Y-193759075D01*
X89440826Y-193725000D01*
X89309174Y-193725000D01*
X89182007Y-193759075D01*
X89125000Y-193791988D01*
X89125000Y-192897768D01*
X89124999Y-192897768D01*
X89058875Y-192908241D01*
X88856784Y-192973903D01*
X88667442Y-193070379D01*
X88495540Y-193195272D01*
X88495535Y-193195276D01*
X88345276Y-193345535D01*
X88345272Y-193345540D01*
X88220377Y-193517444D01*
X88215484Y-193527048D01*
X88167509Y-193577844D01*
X88099688Y-193594638D01*
X88033553Y-193572100D01*
X87994516Y-193527048D01*
X87989622Y-193517444D01*
X87864727Y-193345540D01*
X87864723Y-193345535D01*
X87714464Y-193195276D01*
X87714459Y-193195272D01*
X87542557Y-193070379D01*
X87353215Y-192973903D01*
X87151124Y-192908241D01*
X87085000Y-192897768D01*
X87085000Y-193791988D01*
X87027993Y-193759075D01*
X86900826Y-193725000D01*
X86769174Y-193725000D01*
X86642007Y-193759075D01*
X86585000Y-193791988D01*
X86585000Y-192897768D01*
X86584999Y-192897768D01*
X86518875Y-192908241D01*
X86316784Y-192973903D01*
X86127442Y-193070379D01*
X85955540Y-193195272D01*
X85955535Y-193195276D01*
X85805276Y-193345535D01*
X85805272Y-193345540D01*
X85680378Y-193517443D01*
X85675762Y-193526502D01*
X85627784Y-193577295D01*
X85559963Y-193594087D01*
X85493829Y-193571546D01*
X85454794Y-193526493D01*
X85450051Y-193517184D01*
X85450049Y-193517181D01*
X85450048Y-193517179D01*
X85325109Y-193345213D01*
X85174786Y-193194890D01*
X85002820Y-193069951D01*
X84813414Y-192973444D01*
X84813413Y-192973443D01*
X84813412Y-192973443D01*
X84611243Y-192907754D01*
X84611241Y-192907753D01*
X84611240Y-192907753D01*
X84449957Y-192882208D01*
X84401287Y-192874500D01*
X84188713Y-192874500D01*
X84140042Y-192882208D01*
X83978760Y-192907753D01*
X83776585Y-192973444D01*
X83587179Y-193069951D01*
X83415213Y-193194890D01*
X83264890Y-193345213D01*
X83139949Y-193517182D01*
X83135484Y-193525946D01*
X83087509Y-193576742D01*
X83019688Y-193593536D01*
X82953553Y-193570998D01*
X82914516Y-193525946D01*
X82910050Y-193517182D01*
X82785109Y-193345213D01*
X82634786Y-193194890D01*
X82462820Y-193069951D01*
X82273414Y-192973444D01*
X82273413Y-192973443D01*
X82273412Y-192973443D01*
X82071243Y-192907754D01*
X82071241Y-192907753D01*
X82071240Y-192907753D01*
X81909957Y-192882208D01*
X81861287Y-192874500D01*
X81648713Y-192874500D01*
X81600042Y-192882208D01*
X81438760Y-192907753D01*
X81236585Y-192973444D01*
X81047179Y-193069951D01*
X80875213Y-193194890D01*
X80724890Y-193345213D01*
X80599949Y-193517182D01*
X80595484Y-193525946D01*
X80547509Y-193576742D01*
X80479688Y-193593536D01*
X80413553Y-193570998D01*
X80374516Y-193525946D01*
X80370050Y-193517182D01*
X80245109Y-193345213D01*
X80094786Y-193194890D01*
X79922820Y-193069951D01*
X79733414Y-192973444D01*
X79733413Y-192973443D01*
X79733412Y-192973443D01*
X79531243Y-192907754D01*
X79531241Y-192907753D01*
X79531240Y-192907753D01*
X79369957Y-192882208D01*
X79321287Y-192874500D01*
X79108713Y-192874500D01*
X79060042Y-192882208D01*
X78898760Y-192907753D01*
X78696585Y-192973444D01*
X78507179Y-193069951D01*
X78335215Y-193194889D01*
X78221673Y-193308431D01*
X78160350Y-193341915D01*
X78090658Y-193336931D01*
X78034725Y-193295059D01*
X78017810Y-193264082D01*
X77968797Y-193132671D01*
X77968793Y-193132664D01*
X77882547Y-193017455D01*
X77882544Y-193017452D01*
X77767335Y-192931206D01*
X77767328Y-192931202D01*
X77632482Y-192880908D01*
X77632483Y-192880908D01*
X77572883Y-192874501D01*
X77572881Y-192874500D01*
X77572873Y-192874500D01*
X77572864Y-192874500D01*
X75777129Y-192874500D01*
X75777123Y-192874501D01*
X75717516Y-192880908D01*
X75582671Y-192931202D01*
X75582664Y-192931206D01*
X75467455Y-193017452D01*
X75467452Y-193017455D01*
X75381206Y-193132664D01*
X75381202Y-193132671D01*
X75330908Y-193267517D01*
X75324501Y-193327116D01*
X75324500Y-193327135D01*
X73350500Y-193327135D01*
X73350500Y-187299047D01*
X73370185Y-187232008D01*
X73422989Y-187186253D01*
X73492147Y-187176309D01*
X73555703Y-187205334D01*
X73562181Y-187211366D01*
X73652786Y-187301971D01*
X73799873Y-187408834D01*
X73818390Y-187422287D01*
X73934607Y-187481503D01*
X74000776Y-187515218D01*
X74000778Y-187515218D01*
X74000781Y-187515220D01*
X74105137Y-187549127D01*
X74195465Y-187578477D01*
X74253324Y-187587641D01*
X74397648Y-187610500D01*
X74397649Y-187610500D01*
X74602351Y-187610500D01*
X74602352Y-187610500D01*
X74804534Y-187578477D01*
X74885545Y-187552155D01*
X79350000Y-187552155D01*
X79350000Y-188250000D01*
X80316988Y-188250000D01*
X80284075Y-188307007D01*
X80250000Y-188434174D01*
X80250000Y-188565826D01*
X80284075Y-188692993D01*
X80316988Y-188750000D01*
X79350000Y-188750000D01*
X79350000Y-189447844D01*
X79356401Y-189507372D01*
X79356403Y-189507379D01*
X79406645Y-189642086D01*
X79406649Y-189642093D01*
X79492809Y-189757187D01*
X79492812Y-189757190D01*
X79607906Y-189843350D01*
X79607913Y-189843354D01*
X79742620Y-189893596D01*
X79742627Y-189893598D01*
X79802155Y-189899999D01*
X79802172Y-189900000D01*
X80500000Y-189900000D01*
X80500000Y-188933012D01*
X80557007Y-188965925D01*
X80684174Y-189000000D01*
X80815826Y-189000000D01*
X80942993Y-188965925D01*
X81000000Y-188933012D01*
X81000000Y-189900000D01*
X81697828Y-189900000D01*
X81697844Y-189899999D01*
X81757372Y-189893598D01*
X81757379Y-189893596D01*
X81892086Y-189843354D01*
X81892093Y-189843350D01*
X82007187Y-189757190D01*
X82007190Y-189757187D01*
X82093350Y-189642093D01*
X82093353Y-189642088D01*
X82112345Y-189591166D01*
X82154215Y-189535232D01*
X82219679Y-189510813D01*
X82287952Y-189525663D01*
X82316209Y-189546816D01*
X82337636Y-189568243D01*
X82337641Y-189568247D01*
X82493192Y-189681260D01*
X82515978Y-189697815D01*
X82632501Y-189757187D01*
X82712393Y-189797895D01*
X82712396Y-189797896D01*
X82817221Y-189831955D01*
X82922049Y-189866015D01*
X83139778Y-189900500D01*
X83139779Y-189900500D01*
X83360221Y-189900500D01*
X83360222Y-189900500D01*
X83577951Y-189866015D01*
X83787606Y-189797895D01*
X83984022Y-189697815D01*
X84162365Y-189568242D01*
X84318242Y-189412365D01*
X84399682Y-189300270D01*
X84455011Y-189257606D01*
X84524624Y-189251627D01*
X84586420Y-189284232D01*
X84600313Y-189300265D01*
X84681753Y-189412358D01*
X84681758Y-189412365D01*
X84837636Y-189568243D01*
X84837641Y-189568247D01*
X84993192Y-189681260D01*
X85015978Y-189697815D01*
X85132501Y-189757187D01*
X85212393Y-189797895D01*
X85212396Y-189797896D01*
X85317221Y-189831955D01*
X85422049Y-189866015D01*
X85639778Y-189900500D01*
X85639779Y-189900500D01*
X85860221Y-189900500D01*
X85860222Y-189900500D01*
X86077951Y-189866015D01*
X86287606Y-189797895D01*
X86484022Y-189697815D01*
X86662365Y-189568242D01*
X86818242Y-189412365D01*
X86947815Y-189234022D01*
X87047895Y-189037606D01*
X87116015Y-188827951D01*
X87150500Y-188610222D01*
X87150500Y-188389778D01*
X87116015Y-188172049D01*
X87047895Y-187962394D01*
X87047895Y-187962393D01*
X87013237Y-187894375D01*
X86947815Y-187765978D01*
X86899681Y-187699727D01*
X86818247Y-187587641D01*
X86818243Y-187587636D01*
X86662363Y-187431756D01*
X86662358Y-187431752D01*
X86484025Y-187302187D01*
X86484024Y-187302186D01*
X86484022Y-187302185D01*
X86421096Y-187270122D01*
X86287606Y-187202104D01*
X86287603Y-187202103D01*
X86077952Y-187133985D01*
X85969086Y-187116742D01*
X85860222Y-187099500D01*
X85639778Y-187099500D01*
X85567201Y-187110995D01*
X85422047Y-187133985D01*
X85212396Y-187202103D01*
X85212393Y-187202104D01*
X85015974Y-187302187D01*
X84837641Y-187431752D01*
X84837636Y-187431756D01*
X84681756Y-187587636D01*
X84681752Y-187587641D01*
X84600318Y-187699727D01*
X84544989Y-187742393D01*
X84475375Y-187748372D01*
X84413580Y-187715767D01*
X84399682Y-187699727D01*
X84318247Y-187587641D01*
X84318243Y-187587636D01*
X84162363Y-187431756D01*
X84162358Y-187431752D01*
X83984025Y-187302187D01*
X83984024Y-187302186D01*
X83984022Y-187302185D01*
X83921096Y-187270122D01*
X83787606Y-187202104D01*
X83787603Y-187202103D01*
X83577952Y-187133985D01*
X83469086Y-187116742D01*
X83360222Y-187099500D01*
X83139778Y-187099500D01*
X83067201Y-187110995D01*
X82922047Y-187133985D01*
X82712396Y-187202103D01*
X82712393Y-187202104D01*
X82515974Y-187302187D01*
X82337641Y-187431752D01*
X82337635Y-187431757D01*
X82316207Y-187453185D01*
X82254884Y-187486669D01*
X82185192Y-187481683D01*
X82129259Y-187439810D01*
X82112346Y-187408834D01*
X82093355Y-187357915D01*
X82093350Y-187357906D01*
X82007190Y-187242812D01*
X82007187Y-187242809D01*
X81892093Y-187156649D01*
X81892086Y-187156645D01*
X81757379Y-187106403D01*
X81757372Y-187106401D01*
X81697844Y-187100000D01*
X81000000Y-187100000D01*
X81000000Y-188066988D01*
X80942993Y-188034075D01*
X80815826Y-188000000D01*
X80684174Y-188000000D01*
X80557007Y-188034075D01*
X80500000Y-188066988D01*
X80500000Y-187100000D01*
X79802155Y-187100000D01*
X79742627Y-187106401D01*
X79742620Y-187106403D01*
X79607913Y-187156645D01*
X79607906Y-187156649D01*
X79492812Y-187242809D01*
X79492809Y-187242812D01*
X79406649Y-187357906D01*
X79406645Y-187357913D01*
X79356403Y-187492620D01*
X79356401Y-187492627D01*
X79350000Y-187552155D01*
X74885545Y-187552155D01*
X74999219Y-187515220D01*
X75181610Y-187422287D01*
X75202770Y-187406913D01*
X75347213Y-187301971D01*
X75347215Y-187301968D01*
X75347219Y-187301966D01*
X75491966Y-187157219D01*
X75491968Y-187157215D01*
X75491971Y-187157213D01*
X75544732Y-187084590D01*
X75612287Y-186991610D01*
X75705220Y-186809219D01*
X75768477Y-186614534D01*
X75800500Y-186412352D01*
X75800500Y-186207648D01*
X75768477Y-186005466D01*
X75705220Y-185810781D01*
X75705218Y-185810778D01*
X75705218Y-185810776D01*
X75665015Y-185731874D01*
X75612287Y-185628390D01*
X75604556Y-185617749D01*
X75491971Y-185462786D01*
X75347213Y-185318028D01*
X75181613Y-185197715D01*
X75181612Y-185197714D01*
X75181610Y-185197713D01*
X75124653Y-185168691D01*
X74999223Y-185104781D01*
X74804534Y-185041522D01*
X74629995Y-185013878D01*
X74602352Y-185009500D01*
X74397648Y-185009500D01*
X74373329Y-185013351D01*
X74195465Y-185041522D01*
X74000776Y-185104781D01*
X73818386Y-185197715D01*
X73652786Y-185318028D01*
X73652782Y-185318032D01*
X73562181Y-185408634D01*
X73500858Y-185442119D01*
X73431166Y-185437135D01*
X73375233Y-185395263D01*
X73350816Y-185329799D01*
X73350500Y-185320953D01*
X73350500Y-180740097D01*
X73359144Y-180710656D01*
X73365668Y-180680670D01*
X73369422Y-180675654D01*
X73370185Y-180673058D01*
X73386819Y-180652416D01*
X73421187Y-180618048D01*
X76589500Y-180618048D01*
X76589500Y-181381951D01*
X76616013Y-181583333D01*
X76621334Y-181623744D01*
X76621335Y-181623746D01*
X76684456Y-181859320D01*
X76684459Y-181859330D01*
X76777786Y-182084640D01*
X76777791Y-182084651D01*
X76899727Y-182295848D01*
X76899738Y-182295864D01*
X77048199Y-182489343D01*
X77048205Y-182489350D01*
X77220649Y-182661794D01*
X77220655Y-182661799D01*
X77414144Y-182810268D01*
X77414151Y-182810272D01*
X77625348Y-182932208D01*
X77625353Y-182932210D01*
X77625356Y-182932212D01*
X77850679Y-183025544D01*
X78086256Y-183088666D01*
X78328056Y-183120500D01*
X78328063Y-183120500D01*
X78571937Y-183120500D01*
X78571944Y-183120500D01*
X78813744Y-183088666D01*
X79049321Y-183025544D01*
X79274644Y-182932212D01*
X79485856Y-182810268D01*
X79679345Y-182661799D01*
X79851799Y-182489345D01*
X80000268Y-182295856D01*
X80122212Y-182084644D01*
X80215544Y-181859321D01*
X80278666Y-181623744D01*
X80310500Y-181381944D01*
X80310500Y-180618056D01*
X80310499Y-180618048D01*
X86189500Y-180618048D01*
X86189500Y-181381951D01*
X86216013Y-181583333D01*
X86221334Y-181623744D01*
X86221335Y-181623746D01*
X86284456Y-181859320D01*
X86284459Y-181859330D01*
X86377786Y-182084640D01*
X86377791Y-182084651D01*
X86499727Y-182295848D01*
X86499738Y-182295864D01*
X86648199Y-182489343D01*
X86648205Y-182489350D01*
X86820649Y-182661794D01*
X86820655Y-182661799D01*
X87014144Y-182810268D01*
X87014151Y-182810272D01*
X87225348Y-182932208D01*
X87225353Y-182932210D01*
X87225356Y-182932212D01*
X87450679Y-183025544D01*
X87686256Y-183088666D01*
X87928056Y-183120500D01*
X87928063Y-183120500D01*
X88171937Y-183120500D01*
X88171944Y-183120500D01*
X88413744Y-183088666D01*
X88649321Y-183025544D01*
X88874644Y-182932212D01*
X89085856Y-182810268D01*
X89279345Y-182661799D01*
X89451799Y-182489345D01*
X89600268Y-182295856D01*
X89722212Y-182084644D01*
X89815544Y-181859321D01*
X89878666Y-181623744D01*
X89910500Y-181381944D01*
X89910500Y-180618056D01*
X89878666Y-180376256D01*
X89815544Y-180140679D01*
X89722212Y-179915356D01*
X89722210Y-179915353D01*
X89722208Y-179915348D01*
X89600272Y-179704151D01*
X89600268Y-179704144D01*
X89451799Y-179510655D01*
X89451794Y-179510649D01*
X89279350Y-179338205D01*
X89279343Y-179338199D01*
X89085864Y-179189738D01*
X89085862Y-179189736D01*
X89085856Y-179189732D01*
X89085851Y-179189729D01*
X89085848Y-179189727D01*
X88874651Y-179067791D01*
X88874640Y-179067786D01*
X88649330Y-178974459D01*
X88649323Y-178974457D01*
X88649321Y-178974456D01*
X88413744Y-178911334D01*
X88373333Y-178906013D01*
X88171951Y-178879500D01*
X88171944Y-178879500D01*
X87928056Y-178879500D01*
X87928048Y-178879500D01*
X87697896Y-178909801D01*
X87686256Y-178911334D01*
X87450679Y-178974456D01*
X87450669Y-178974459D01*
X87225359Y-179067786D01*
X87225348Y-179067791D01*
X87014151Y-179189727D01*
X87014135Y-179189738D01*
X86820656Y-179338199D01*
X86820649Y-179338205D01*
X86648205Y-179510649D01*
X86648199Y-179510656D01*
X86499738Y-179704135D01*
X86499727Y-179704151D01*
X86377791Y-179915348D01*
X86377786Y-179915359D01*
X86284459Y-180140669D01*
X86284457Y-180140674D01*
X86284456Y-180140679D01*
X86225437Y-180360943D01*
X86221335Y-180376253D01*
X86221333Y-180376264D01*
X86189500Y-180618048D01*
X80310499Y-180618048D01*
X80278666Y-180376256D01*
X80215544Y-180140679D01*
X80122212Y-179915356D01*
X80122210Y-179915353D01*
X80122208Y-179915348D01*
X80000272Y-179704151D01*
X80000268Y-179704144D01*
X79851799Y-179510655D01*
X79851794Y-179510649D01*
X79679350Y-179338205D01*
X79679343Y-179338199D01*
X79485864Y-179189738D01*
X79485862Y-179189736D01*
X79485856Y-179189732D01*
X79485851Y-179189729D01*
X79485848Y-179189727D01*
X79274651Y-179067791D01*
X79274640Y-179067786D01*
X79049330Y-178974459D01*
X79049323Y-178974457D01*
X79049321Y-178974456D01*
X78813744Y-178911334D01*
X78773333Y-178906013D01*
X78571951Y-178879500D01*
X78571944Y-178879500D01*
X78328056Y-178879500D01*
X78328048Y-178879500D01*
X78097896Y-178909801D01*
X78086256Y-178911334D01*
X77850679Y-178974456D01*
X77850669Y-178974459D01*
X77625359Y-179067786D01*
X77625348Y-179067791D01*
X77414151Y-179189727D01*
X77414135Y-179189738D01*
X77220656Y-179338199D01*
X77220649Y-179338205D01*
X77048205Y-179510649D01*
X77048199Y-179510656D01*
X76899738Y-179704135D01*
X76899727Y-179704151D01*
X76777791Y-179915348D01*
X76777786Y-179915359D01*
X76684459Y-180140669D01*
X76684457Y-180140674D01*
X76684456Y-180140679D01*
X76625437Y-180360943D01*
X76621335Y-180376253D01*
X76621333Y-180376264D01*
X76589500Y-180618048D01*
X73421187Y-180618048D01*
X73512919Y-180526316D01*
X73678292Y-180360943D01*
X74055159Y-179984075D01*
X74116480Y-179950592D01*
X74181154Y-179953826D01*
X74195466Y-179958477D01*
X74397648Y-179990500D01*
X74397649Y-179990500D01*
X74602351Y-179990500D01*
X74602352Y-179990500D01*
X74804534Y-179958477D01*
X74999219Y-179895220D01*
X75181610Y-179802287D01*
X75316684Y-179704151D01*
X75347213Y-179681971D01*
X75347215Y-179681968D01*
X75347219Y-179681966D01*
X75491966Y-179537219D01*
X75491968Y-179537215D01*
X75491971Y-179537213D01*
X75544732Y-179464590D01*
X75612287Y-179371610D01*
X75705220Y-179189219D01*
X75768477Y-178994534D01*
X75800500Y-178792352D01*
X75800500Y-178587648D01*
X75768477Y-178385466D01*
X75705220Y-178190781D01*
X75705218Y-178190778D01*
X75705218Y-178190776D01*
X75671503Y-178124607D01*
X75612287Y-178008390D01*
X75604556Y-177997749D01*
X75491971Y-177842786D01*
X75347213Y-177698028D01*
X75181613Y-177577715D01*
X75181612Y-177577714D01*
X75181610Y-177577713D01*
X75124653Y-177548691D01*
X74999223Y-177484781D01*
X74804534Y-177421522D01*
X74629995Y-177393878D01*
X74602352Y-177389500D01*
X74397648Y-177389500D01*
X74373329Y-177393351D01*
X74195465Y-177421522D01*
X74000776Y-177484781D01*
X73818386Y-177577715D01*
X73652786Y-177698028D01*
X73508028Y-177842786D01*
X73387715Y-178008386D01*
X73294781Y-178190776D01*
X73231522Y-178385465D01*
X73199500Y-178587648D01*
X73199500Y-178792351D01*
X73231523Y-178994535D01*
X73236172Y-179008845D01*
X73238165Y-179078687D01*
X73205921Y-179134841D01*
X72381286Y-179959478D01*
X72269481Y-180071282D01*
X72269480Y-180071284D01*
X72229415Y-180140679D01*
X72190423Y-180208215D01*
X72149499Y-180360943D01*
X72149499Y-180360945D01*
X72149499Y-180529046D01*
X72149500Y-180529059D01*
X72149500Y-185675579D01*
X72129815Y-185742618D01*
X72077011Y-185788373D01*
X72007853Y-185798317D01*
X71944297Y-185769292D01*
X71915015Y-185731874D01*
X71886331Y-185675579D01*
X71862287Y-185628390D01*
X71854556Y-185617749D01*
X71741971Y-185462786D01*
X71597213Y-185318028D01*
X71431613Y-185197715D01*
X71431612Y-185197714D01*
X71431610Y-185197713D01*
X71374653Y-185168691D01*
X71249223Y-185104781D01*
X71054534Y-185041522D01*
X70879995Y-185013878D01*
X70852352Y-185009500D01*
X70647648Y-185009500D01*
X70623329Y-185013351D01*
X70445465Y-185041522D01*
X70250776Y-185104781D01*
X70068386Y-185197715D01*
X69902786Y-185318028D01*
X69758028Y-185462786D01*
X69637715Y-185628386D01*
X69544781Y-185810776D01*
X69481522Y-186005465D01*
X69449500Y-186207648D01*
X69449500Y-186412351D01*
X69481522Y-186614534D01*
X69544781Y-186809223D01*
X69589907Y-186897786D01*
X69613668Y-186944420D01*
X69637715Y-186991613D01*
X69758028Y-187157213D01*
X69902786Y-187301971D01*
X70049873Y-187408834D01*
X70068390Y-187422287D01*
X70184607Y-187481503D01*
X70250776Y-187515218D01*
X70250778Y-187515218D01*
X70250781Y-187515220D01*
X70355137Y-187549127D01*
X70445465Y-187578477D01*
X70503324Y-187587641D01*
X70647648Y-187610500D01*
X70647649Y-187610500D01*
X70852351Y-187610500D01*
X70852352Y-187610500D01*
X71054534Y-187578477D01*
X71249219Y-187515220D01*
X71431610Y-187422287D01*
X71524590Y-187354732D01*
X71597213Y-187301971D01*
X71597215Y-187301968D01*
X71597219Y-187301966D01*
X71741966Y-187157219D01*
X71741968Y-187157215D01*
X71741971Y-187157213D01*
X71862284Y-186991614D01*
X71862285Y-186991613D01*
X71862287Y-186991610D01*
X71915015Y-186888124D01*
X71962989Y-186837329D01*
X72030810Y-186820534D01*
X72096945Y-186843071D01*
X72140397Y-186897786D01*
X72149500Y-186944420D01*
X72149500Y-194949903D01*
X72129815Y-195016942D01*
X72113181Y-195037584D01*
X71351809Y-195798955D01*
X71290486Y-195832440D01*
X71220794Y-195827456D01*
X71164861Y-195785584D01*
X71163850Y-195784213D01*
X71115690Y-195717927D01*
X70985091Y-195587328D01*
X70951606Y-195526005D01*
X70956590Y-195456313D01*
X70985091Y-195411966D01*
X71115310Y-195281746D01*
X71115314Y-195281741D01*
X71226329Y-195128940D01*
X71312085Y-194960637D01*
X71370451Y-194781002D01*
X71375362Y-194750000D01*
X70375278Y-194750000D01*
X70419333Y-194673694D01*
X70450000Y-194559244D01*
X70450000Y-194440756D01*
X70419333Y-194326306D01*
X70375278Y-194250000D01*
X71375362Y-194250000D01*
X71370451Y-194218997D01*
X71312085Y-194039362D01*
X71226329Y-193871059D01*
X71161641Y-193782022D01*
X71138161Y-193716216D01*
X71153987Y-193648162D01*
X71187646Y-193609872D01*
X71257546Y-193557546D01*
X71343796Y-193442331D01*
X71394091Y-193307483D01*
X71400500Y-193247873D01*
X71400499Y-191752128D01*
X71394091Y-191692517D01*
X71343796Y-191557669D01*
X71343795Y-191557668D01*
X71343793Y-191557664D01*
X71257547Y-191442455D01*
X71257544Y-191442452D01*
X71142335Y-191356206D01*
X71142328Y-191356202D01*
X71007482Y-191305908D01*
X71007483Y-191305908D01*
X70947883Y-191299501D01*
X70947881Y-191299500D01*
X70947873Y-191299500D01*
X70947864Y-191299500D01*
X69052129Y-191299500D01*
X69052123Y-191299501D01*
X68992516Y-191305908D01*
X68857671Y-191356202D01*
X68857664Y-191356206D01*
X68742455Y-191442452D01*
X68742452Y-191442455D01*
X68656206Y-191557664D01*
X68656202Y-191557671D01*
X68605908Y-191692517D01*
X68599501Y-191752116D01*
X68599501Y-191752123D01*
X68599500Y-191752135D01*
X68000500Y-191752135D01*
X68000500Y-178587648D01*
X69449500Y-178587648D01*
X69449500Y-178792351D01*
X69481522Y-178994534D01*
X69544781Y-179189223D01*
X69637715Y-179371613D01*
X69758028Y-179537213D01*
X69902786Y-179681971D01*
X70057749Y-179794556D01*
X70068390Y-179802287D01*
X70184607Y-179861503D01*
X70250776Y-179895218D01*
X70250778Y-179895218D01*
X70250781Y-179895220D01*
X70355137Y-179929127D01*
X70445465Y-179958477D01*
X70546557Y-179974488D01*
X70647648Y-179990500D01*
X70647649Y-179990500D01*
X70852351Y-179990500D01*
X70852352Y-179990500D01*
X71054534Y-179958477D01*
X71249219Y-179895220D01*
X71431610Y-179802287D01*
X71566684Y-179704151D01*
X71597213Y-179681971D01*
X71597215Y-179681968D01*
X71597219Y-179681966D01*
X71741966Y-179537219D01*
X71741968Y-179537215D01*
X71741971Y-179537213D01*
X71794732Y-179464590D01*
X71862287Y-179371610D01*
X71955220Y-179189219D01*
X72018477Y-178994534D01*
X72050500Y-178792352D01*
X72050500Y-178587648D01*
X72018477Y-178385466D01*
X71955220Y-178190781D01*
X71955218Y-178190778D01*
X71955218Y-178190776D01*
X71921503Y-178124607D01*
X71862287Y-178008390D01*
X71854556Y-177997749D01*
X71741971Y-177842786D01*
X71597213Y-177698028D01*
X71431613Y-177577715D01*
X71431612Y-177577714D01*
X71431610Y-177577713D01*
X71374653Y-177548691D01*
X71249223Y-177484781D01*
X71054534Y-177421522D01*
X70879995Y-177393878D01*
X70852352Y-177389500D01*
X70647648Y-177389500D01*
X70623329Y-177393351D01*
X70445465Y-177421522D01*
X70250776Y-177484781D01*
X70068386Y-177577715D01*
X69902786Y-177698028D01*
X69758028Y-177842786D01*
X69637715Y-178008386D01*
X69544781Y-178190776D01*
X69481522Y-178385465D01*
X69449500Y-178587648D01*
X68000500Y-178587648D01*
X68000500Y-170647648D01*
X78139500Y-170647648D01*
X78139500Y-170852351D01*
X78171522Y-171054534D01*
X78234781Y-171249223D01*
X78327715Y-171431613D01*
X78448028Y-171597213D01*
X78592786Y-171741971D01*
X78747749Y-171854556D01*
X78758390Y-171862287D01*
X78874607Y-171921503D01*
X78940776Y-171955218D01*
X78940778Y-171955218D01*
X78940781Y-171955220D01*
X79045137Y-171989127D01*
X79135465Y-172018477D01*
X79236557Y-172034488D01*
X79337648Y-172050500D01*
X79337649Y-172050500D01*
X79542351Y-172050500D01*
X79542352Y-172050500D01*
X79744534Y-172018477D01*
X79939219Y-171955220D01*
X80121610Y-171862287D01*
X80214590Y-171794732D01*
X80287213Y-171741971D01*
X80287215Y-171741968D01*
X80287219Y-171741966D01*
X80431966Y-171597219D01*
X80431968Y-171597215D01*
X80431971Y-171597213D01*
X80484732Y-171524590D01*
X80552287Y-171431610D01*
X80645220Y-171249219D01*
X80708477Y-171054534D01*
X80740500Y-170852352D01*
X80740500Y-170647648D01*
X85759500Y-170647648D01*
X85759500Y-170852351D01*
X85791522Y-171054534D01*
X85854781Y-171249223D01*
X85947715Y-171431613D01*
X86068028Y-171597213D01*
X86212786Y-171741971D01*
X86367749Y-171854556D01*
X86378390Y-171862287D01*
X86494607Y-171921503D01*
X86560776Y-171955218D01*
X86560778Y-171955218D01*
X86560781Y-171955220D01*
X86665137Y-171989127D01*
X86755465Y-172018477D01*
X86856557Y-172034488D01*
X86957648Y-172050500D01*
X86957649Y-172050500D01*
X87162351Y-172050500D01*
X87162352Y-172050500D01*
X87364534Y-172018477D01*
X87559219Y-171955220D01*
X87741610Y-171862287D01*
X87834590Y-171794732D01*
X87907213Y-171741971D01*
X87907215Y-171741968D01*
X87907219Y-171741966D01*
X88051966Y-171597219D01*
X88051968Y-171597215D01*
X88051971Y-171597213D01*
X88104732Y-171524590D01*
X88172287Y-171431610D01*
X88265220Y-171249219D01*
X88328477Y-171054534D01*
X88360500Y-170852352D01*
X88360500Y-170647648D01*
X88328477Y-170445466D01*
X88265220Y-170250781D01*
X88265218Y-170250778D01*
X88265218Y-170250776D01*
X88231503Y-170184607D01*
X88172287Y-170068390D01*
X88164556Y-170057749D01*
X88051971Y-169902786D01*
X87907213Y-169758028D01*
X87741613Y-169637715D01*
X87741612Y-169637714D01*
X87741610Y-169637713D01*
X87684653Y-169608691D01*
X87559223Y-169544781D01*
X87364534Y-169481522D01*
X87189995Y-169453878D01*
X87162352Y-169449500D01*
X86957648Y-169449500D01*
X86933329Y-169453351D01*
X86755465Y-169481522D01*
X86560776Y-169544781D01*
X86378386Y-169637715D01*
X86212786Y-169758028D01*
X86068028Y-169902786D01*
X85947715Y-170068386D01*
X85854781Y-170250776D01*
X85791522Y-170445465D01*
X85759500Y-170647648D01*
X80740500Y-170647648D01*
X80708477Y-170445466D01*
X80645220Y-170250781D01*
X80645218Y-170250778D01*
X80645218Y-170250776D01*
X80611503Y-170184607D01*
X80552287Y-170068390D01*
X80544556Y-170057749D01*
X80431971Y-169902786D01*
X80287213Y-169758028D01*
X80121613Y-169637715D01*
X80121612Y-169637714D01*
X80121610Y-169637713D01*
X80064653Y-169608691D01*
X79939223Y-169544781D01*
X79744534Y-169481522D01*
X79569995Y-169453878D01*
X79542352Y-169449500D01*
X79337648Y-169449500D01*
X79313329Y-169453351D01*
X79135465Y-169481522D01*
X78940776Y-169544781D01*
X78758386Y-169637715D01*
X78592786Y-169758028D01*
X78448028Y-169902786D01*
X78327715Y-170068386D01*
X78234781Y-170250776D01*
X78171522Y-170445465D01*
X78139500Y-170647648D01*
X68000500Y-170647648D01*
X68000500Y-153081995D01*
X70824500Y-153081995D01*
X70824500Y-153318004D01*
X70824501Y-153318020D01*
X70855306Y-153552010D01*
X70916394Y-153779993D01*
X71006714Y-153998045D01*
X71006719Y-153998056D01*
X71077677Y-154120957D01*
X71124727Y-154202450D01*
X71124729Y-154202453D01*
X71124730Y-154202454D01*
X71268406Y-154389697D01*
X71268412Y-154389704D01*
X71435295Y-154556587D01*
X71435302Y-154556593D01*
X71530727Y-154629815D01*
X71622550Y-154700273D01*
X71753918Y-154776118D01*
X71826943Y-154818280D01*
X71826948Y-154818282D01*
X71826951Y-154818284D01*
X72045007Y-154908606D01*
X72272986Y-154969693D01*
X72506989Y-155000500D01*
X72506996Y-155000500D01*
X72743004Y-155000500D01*
X72743011Y-155000500D01*
X72977014Y-154969693D01*
X73204993Y-154908606D01*
X73325998Y-154858483D01*
X73395462Y-154851015D01*
X73457942Y-154882289D01*
X73461128Y-154885364D01*
X74306284Y-155730520D01*
X74443215Y-155809577D01*
X74595943Y-155850501D01*
X74595946Y-155850501D01*
X74761654Y-155850501D01*
X74761670Y-155850500D01*
X81723331Y-155850500D01*
X81723347Y-155850501D01*
X81730943Y-155850501D01*
X81889054Y-155850501D01*
X81889057Y-155850501D01*
X82041785Y-155809577D01*
X82091904Y-155780639D01*
X82178716Y-155730520D01*
X82290520Y-155618716D01*
X82290520Y-155618714D01*
X82300728Y-155608507D01*
X82300730Y-155608504D01*
X84305158Y-153604075D01*
X84366479Y-153570592D01*
X84431151Y-153573825D01*
X84445466Y-153578477D01*
X84647648Y-153610500D01*
X84647649Y-153610500D01*
X84852351Y-153610500D01*
X84852352Y-153610500D01*
X85054534Y-153578477D01*
X85249219Y-153515220D01*
X85431610Y-153422287D01*
X85524590Y-153354732D01*
X85597213Y-153301971D01*
X85597215Y-153301968D01*
X85597219Y-153301966D01*
X85741966Y-153157219D01*
X85741968Y-153157215D01*
X85741971Y-153157213D01*
X85796631Y-153081979D01*
X85862287Y-152991610D01*
X85955220Y-152809219D01*
X86018477Y-152614534D01*
X86050500Y-152412352D01*
X86050500Y-152207648D01*
X86018477Y-152005466D01*
X85955220Y-151810781D01*
X85955218Y-151810778D01*
X85955218Y-151810776D01*
X85921503Y-151744607D01*
X85862287Y-151628390D01*
X85828375Y-151581714D01*
X85741971Y-151462786D01*
X85597213Y-151318028D01*
X85431613Y-151197715D01*
X85431612Y-151197714D01*
X85431610Y-151197713D01*
X85374653Y-151168691D01*
X85249223Y-151104781D01*
X85054534Y-151041522D01*
X84879995Y-151013878D01*
X84852352Y-151009500D01*
X84647648Y-151009500D01*
X84623329Y-151013351D01*
X84445465Y-151041522D01*
X84250776Y-151104781D01*
X84068386Y-151197715D01*
X83902786Y-151318028D01*
X83758028Y-151462786D01*
X83637715Y-151628386D01*
X83544781Y-151810776D01*
X83481522Y-152005465D01*
X83449500Y-152207648D01*
X83449500Y-152412351D01*
X83481522Y-152614534D01*
X83486173Y-152628848D01*
X83488165Y-152698690D01*
X83455921Y-152754842D01*
X81597584Y-154613181D01*
X81536261Y-154646666D01*
X81509903Y-154649500D01*
X78771154Y-154649500D01*
X78704115Y-154629815D01*
X78658360Y-154577011D01*
X78648416Y-154507853D01*
X78677441Y-154444297D01*
X78683473Y-154437819D01*
X78731587Y-154389704D01*
X78731592Y-154389699D01*
X78875273Y-154202450D01*
X78993284Y-153998049D01*
X79083606Y-153779993D01*
X79144693Y-153552014D01*
X79175500Y-153318011D01*
X79175500Y-153081989D01*
X79144693Y-152847986D01*
X79083606Y-152620007D01*
X78993284Y-152401951D01*
X78993282Y-152401948D01*
X78993280Y-152401943D01*
X78951118Y-152328918D01*
X78875273Y-152197550D01*
X78731592Y-152010301D01*
X78731587Y-152010295D01*
X78564704Y-151843412D01*
X78564697Y-151843406D01*
X78377454Y-151699730D01*
X78377453Y-151699729D01*
X78377450Y-151699727D01*
X78253884Y-151628386D01*
X78173056Y-151581719D01*
X78173045Y-151581714D01*
X77954993Y-151491394D01*
X77727010Y-151430306D01*
X77493020Y-151399501D01*
X77493017Y-151399500D01*
X77493011Y-151399500D01*
X77256989Y-151399500D01*
X77256983Y-151399500D01*
X77256979Y-151399501D01*
X77022989Y-151430306D01*
X76795006Y-151491394D01*
X76576954Y-151581714D01*
X76576943Y-151581719D01*
X76372545Y-151699730D01*
X76185302Y-151843406D01*
X76185295Y-151843412D01*
X76018412Y-152010295D01*
X76018406Y-152010302D01*
X75874730Y-152197545D01*
X75756719Y-152401943D01*
X75756714Y-152401954D01*
X75666394Y-152620006D01*
X75605306Y-152847989D01*
X75574501Y-153081979D01*
X75574500Y-153081995D01*
X75574500Y-153318004D01*
X75574501Y-153318020D01*
X75605306Y-153552010D01*
X75666394Y-153779993D01*
X75756714Y-153998045D01*
X75756719Y-153998056D01*
X75827677Y-154120957D01*
X75874727Y-154202450D01*
X75874729Y-154202453D01*
X75874730Y-154202454D01*
X76018406Y-154389697D01*
X76018412Y-154389704D01*
X76066527Y-154437819D01*
X76100012Y-154499142D01*
X76095028Y-154568834D01*
X76053156Y-154624767D01*
X75987692Y-154649184D01*
X75978846Y-154649500D01*
X74975098Y-154649500D01*
X74908059Y-154629815D01*
X74887417Y-154613181D01*
X74310364Y-154036128D01*
X74276879Y-153974805D01*
X74281863Y-153905113D01*
X74283449Y-153901081D01*
X74333606Y-153779993D01*
X74394693Y-153552014D01*
X74425500Y-153318011D01*
X74425500Y-153081989D01*
X74394693Y-152847986D01*
X74333606Y-152620007D01*
X74243284Y-152401951D01*
X74243282Y-152401948D01*
X74243280Y-152401943D01*
X74201118Y-152328918D01*
X74125273Y-152197550D01*
X73981592Y-152010301D01*
X73981587Y-152010295D01*
X73814704Y-151843412D01*
X73814697Y-151843406D01*
X73627454Y-151699730D01*
X73627453Y-151699729D01*
X73627450Y-151699727D01*
X73503884Y-151628386D01*
X73423056Y-151581719D01*
X73423045Y-151581714D01*
X73204993Y-151491394D01*
X72977010Y-151430306D01*
X72743020Y-151399501D01*
X72743017Y-151399500D01*
X72743011Y-151399500D01*
X72506989Y-151399500D01*
X72506983Y-151399500D01*
X72506979Y-151399501D01*
X72272989Y-151430306D01*
X72045006Y-151491394D01*
X71826954Y-151581714D01*
X71826943Y-151581719D01*
X71622545Y-151699730D01*
X71435302Y-151843406D01*
X71435295Y-151843412D01*
X71268412Y-152010295D01*
X71268406Y-152010302D01*
X71124730Y-152197545D01*
X71006719Y-152401943D01*
X71006714Y-152401954D01*
X70916394Y-152620006D01*
X70855306Y-152847989D01*
X70824501Y-153081979D01*
X70824500Y-153081995D01*
X68000500Y-153081995D01*
X68000500Y-148381995D01*
X70824500Y-148381995D01*
X70824500Y-148618004D01*
X70824501Y-148618020D01*
X70855306Y-148852010D01*
X70916394Y-149079993D01*
X71006714Y-149298045D01*
X71006719Y-149298056D01*
X71077677Y-149420957D01*
X71124727Y-149502450D01*
X71124729Y-149502453D01*
X71124730Y-149502454D01*
X71268406Y-149689697D01*
X71268412Y-149689704D01*
X71435295Y-149856587D01*
X71435301Y-149856592D01*
X71622550Y-150000273D01*
X71753918Y-150076118D01*
X71826943Y-150118280D01*
X71826948Y-150118282D01*
X71826951Y-150118284D01*
X72045007Y-150208606D01*
X72272986Y-150269693D01*
X72506989Y-150300500D01*
X72506996Y-150300500D01*
X72743004Y-150300500D01*
X72743011Y-150300500D01*
X72977014Y-150269693D01*
X73204993Y-150208606D01*
X73423049Y-150118284D01*
X73627450Y-150000273D01*
X73814699Y-149856592D01*
X73981592Y-149689699D01*
X74125273Y-149502450D01*
X74243284Y-149298049D01*
X74333606Y-149079993D01*
X74394693Y-148852014D01*
X74425500Y-148618011D01*
X74425500Y-148381995D01*
X75574500Y-148381995D01*
X75574500Y-148618004D01*
X75574501Y-148618020D01*
X75605306Y-148852010D01*
X75666394Y-149079993D01*
X75756714Y-149298045D01*
X75756719Y-149298056D01*
X75827677Y-149420957D01*
X75874727Y-149502450D01*
X75874729Y-149502453D01*
X75874730Y-149502454D01*
X76018406Y-149689697D01*
X76018412Y-149689704D01*
X76185295Y-149856587D01*
X76185301Y-149856592D01*
X76372550Y-150000273D01*
X76503918Y-150076118D01*
X76576943Y-150118280D01*
X76576948Y-150118282D01*
X76576951Y-150118284D01*
X76795007Y-150208606D01*
X77022986Y-150269693D01*
X77256989Y-150300500D01*
X77256996Y-150300500D01*
X77493004Y-150300500D01*
X77493011Y-150300500D01*
X77727014Y-150269693D01*
X77954993Y-150208606D01*
X78173049Y-150118284D01*
X78377450Y-150000273D01*
X78564699Y-149856592D01*
X78731592Y-149689699D01*
X78875273Y-149502450D01*
X78993284Y-149298049D01*
X79083606Y-149079993D01*
X79144693Y-148852014D01*
X79175500Y-148618011D01*
X79175500Y-148381989D01*
X79144693Y-148147986D01*
X79083606Y-147920007D01*
X78993284Y-147701951D01*
X78993282Y-147701948D01*
X78993280Y-147701943D01*
X78951118Y-147628918D01*
X78875273Y-147497550D01*
X78731592Y-147310301D01*
X78731587Y-147310295D01*
X78564704Y-147143412D01*
X78564697Y-147143406D01*
X78377454Y-146999730D01*
X78377453Y-146999729D01*
X78377450Y-146999727D01*
X78295957Y-146952677D01*
X78173056Y-146881719D01*
X78173045Y-146881714D01*
X77954993Y-146791394D01*
X77727010Y-146730306D01*
X77493020Y-146699501D01*
X77493017Y-146699500D01*
X77493011Y-146699500D01*
X77256989Y-146699500D01*
X77256983Y-146699500D01*
X77256979Y-146699501D01*
X77022989Y-146730306D01*
X76795006Y-146791394D01*
X76576954Y-146881714D01*
X76576943Y-146881719D01*
X76372545Y-146999730D01*
X76185302Y-147143406D01*
X76185295Y-147143412D01*
X76018412Y-147310295D01*
X76018406Y-147310302D01*
X75874730Y-147497545D01*
X75756719Y-147701943D01*
X75756714Y-147701954D01*
X75666394Y-147920006D01*
X75605306Y-148147989D01*
X75574501Y-148381979D01*
X75574500Y-148381995D01*
X74425500Y-148381995D01*
X74425500Y-148381989D01*
X74394693Y-148147986D01*
X74333606Y-147920007D01*
X74243284Y-147701951D01*
X74243282Y-147701948D01*
X74243280Y-147701943D01*
X74201118Y-147628918D01*
X74125273Y-147497550D01*
X73981592Y-147310301D01*
X73981587Y-147310295D01*
X73814704Y-147143412D01*
X73814697Y-147143406D01*
X73627454Y-146999730D01*
X73627453Y-146999729D01*
X73627450Y-146999727D01*
X73545957Y-146952677D01*
X73423056Y-146881719D01*
X73423045Y-146881714D01*
X73204993Y-146791394D01*
X72977010Y-146730306D01*
X72743020Y-146699501D01*
X72743017Y-146699500D01*
X72743011Y-146699500D01*
X72506989Y-146699500D01*
X72506983Y-146699500D01*
X72506979Y-146699501D01*
X72272989Y-146730306D01*
X72045006Y-146791394D01*
X71826954Y-146881714D01*
X71826943Y-146881719D01*
X71622545Y-146999730D01*
X71435302Y-147143406D01*
X71435295Y-147143412D01*
X71268412Y-147310295D01*
X71268406Y-147310302D01*
X71124730Y-147497545D01*
X71006719Y-147701943D01*
X71006714Y-147701954D01*
X70916394Y-147920006D01*
X70855306Y-148147989D01*
X70824501Y-148381979D01*
X70824500Y-148381995D01*
X68000500Y-148381995D01*
X68000500Y-143681995D01*
X70824500Y-143681995D01*
X70824500Y-143918004D01*
X70824501Y-143918020D01*
X70855306Y-144152010D01*
X70916394Y-144379993D01*
X71006714Y-144598045D01*
X71006719Y-144598056D01*
X71077677Y-144720957D01*
X71124727Y-144802450D01*
X71124729Y-144802453D01*
X71124730Y-144802454D01*
X71268406Y-144989697D01*
X71268412Y-144989704D01*
X71435295Y-145156587D01*
X71435302Y-145156593D01*
X71545306Y-145241001D01*
X71622550Y-145300273D01*
X71753918Y-145376118D01*
X71826943Y-145418280D01*
X71826948Y-145418282D01*
X71826951Y-145418284D01*
X72045007Y-145508606D01*
X72272986Y-145569693D01*
X72506989Y-145600500D01*
X72506996Y-145600500D01*
X72743004Y-145600500D01*
X72743011Y-145600500D01*
X72977014Y-145569693D01*
X73204993Y-145508606D01*
X73423049Y-145418284D01*
X73627450Y-145300273D01*
X73814699Y-145156592D01*
X73981592Y-144989699D01*
X74125273Y-144802450D01*
X74243284Y-144598049D01*
X74333606Y-144379993D01*
X74394693Y-144152014D01*
X74425500Y-143918011D01*
X74425500Y-143681995D01*
X75574500Y-143681995D01*
X75574500Y-143918004D01*
X75574501Y-143918020D01*
X75605306Y-144152010D01*
X75666394Y-144379993D01*
X75756714Y-144598045D01*
X75756719Y-144598056D01*
X75827677Y-144720957D01*
X75874727Y-144802450D01*
X75874729Y-144802453D01*
X75874730Y-144802454D01*
X76018406Y-144989697D01*
X76018412Y-144989704D01*
X76185295Y-145156587D01*
X76185302Y-145156593D01*
X76295306Y-145241001D01*
X76372550Y-145300273D01*
X76503918Y-145376118D01*
X76576943Y-145418280D01*
X76576948Y-145418282D01*
X76576951Y-145418284D01*
X76795007Y-145508606D01*
X77022986Y-145569693D01*
X77256989Y-145600500D01*
X77256996Y-145600500D01*
X77493004Y-145600500D01*
X77493011Y-145600500D01*
X77727014Y-145569693D01*
X77954993Y-145508606D01*
X78173049Y-145418284D01*
X78377450Y-145300273D01*
X78564699Y-145156592D01*
X78731592Y-144989699D01*
X78875273Y-144802450D01*
X78993284Y-144598049D01*
X79083606Y-144379993D01*
X79144693Y-144152014D01*
X79175500Y-143918011D01*
X79175500Y-143681989D01*
X79144693Y-143447986D01*
X79083606Y-143220007D01*
X78993284Y-143001951D01*
X78993282Y-143001948D01*
X78993280Y-143001943D01*
X78951118Y-142928918D01*
X78875273Y-142797550D01*
X78731592Y-142610301D01*
X78731587Y-142610295D01*
X78564704Y-142443412D01*
X78564697Y-142443406D01*
X78377454Y-142299730D01*
X78377453Y-142299729D01*
X78377450Y-142299727D01*
X78295957Y-142252677D01*
X78173056Y-142181719D01*
X78173045Y-142181714D01*
X77954993Y-142091394D01*
X77727010Y-142030306D01*
X77493020Y-141999501D01*
X77493017Y-141999500D01*
X77493011Y-141999500D01*
X77256989Y-141999500D01*
X77256983Y-141999500D01*
X77256979Y-141999501D01*
X77022989Y-142030306D01*
X76795006Y-142091394D01*
X76576954Y-142181714D01*
X76576943Y-142181719D01*
X76372545Y-142299730D01*
X76185302Y-142443406D01*
X76185295Y-142443412D01*
X76018412Y-142610295D01*
X76018406Y-142610302D01*
X75874730Y-142797545D01*
X75756719Y-143001943D01*
X75756714Y-143001954D01*
X75666394Y-143220006D01*
X75605306Y-143447989D01*
X75574501Y-143681979D01*
X75574500Y-143681995D01*
X74425500Y-143681995D01*
X74425500Y-143681989D01*
X74394693Y-143447986D01*
X74333606Y-143220007D01*
X74243284Y-143001951D01*
X74243282Y-143001948D01*
X74243280Y-143001943D01*
X74201118Y-142928918D01*
X74125273Y-142797550D01*
X73981592Y-142610301D01*
X73981587Y-142610295D01*
X73814704Y-142443412D01*
X73814697Y-142443406D01*
X73627454Y-142299730D01*
X73627453Y-142299729D01*
X73627450Y-142299727D01*
X73545957Y-142252677D01*
X73423056Y-142181719D01*
X73423045Y-142181714D01*
X73204993Y-142091394D01*
X72977010Y-142030306D01*
X72743020Y-141999501D01*
X72743017Y-141999500D01*
X72743011Y-141999500D01*
X72506989Y-141999500D01*
X72506983Y-141999500D01*
X72506979Y-141999501D01*
X72272989Y-142030306D01*
X72045006Y-142091394D01*
X71826954Y-142181714D01*
X71826943Y-142181719D01*
X71622545Y-142299730D01*
X71435302Y-142443406D01*
X71435295Y-142443412D01*
X71268412Y-142610295D01*
X71268406Y-142610302D01*
X71124730Y-142797545D01*
X71006719Y-143001943D01*
X71006714Y-143001954D01*
X70916394Y-143220006D01*
X70855306Y-143447989D01*
X70824501Y-143681979D01*
X70824500Y-143681995D01*
X68000500Y-143681995D01*
X68000500Y-131502135D01*
X68599500Y-131502135D01*
X68599500Y-132997870D01*
X68599501Y-132997876D01*
X68605908Y-133057483D01*
X68656202Y-133192328D01*
X68656206Y-133192335D01*
X68725358Y-133284709D01*
X68742454Y-133307546D01*
X68812352Y-133359872D01*
X68854222Y-133415804D01*
X68859206Y-133485496D01*
X68838359Y-133532021D01*
X68773669Y-133621060D01*
X68687914Y-133789362D01*
X68629548Y-133968997D01*
X68624638Y-134000000D01*
X69624722Y-134000000D01*
X69580667Y-134076306D01*
X69550000Y-134190756D01*
X69550000Y-134309244D01*
X69580667Y-134423694D01*
X69624722Y-134500000D01*
X68624638Y-134500000D01*
X68629548Y-134531002D01*
X68687914Y-134710637D01*
X68773670Y-134878940D01*
X68884685Y-135031741D01*
X68884689Y-135031746D01*
X69014909Y-135161966D01*
X69048394Y-135223289D01*
X69043410Y-135292981D01*
X69014909Y-135337328D01*
X68884312Y-135467924D01*
X68884312Y-135467925D01*
X68884310Y-135467927D01*
X68836610Y-135533579D01*
X68773240Y-135620800D01*
X68687454Y-135789163D01*
X68629059Y-135968881D01*
X68599500Y-136155513D01*
X68599500Y-136344486D01*
X68629059Y-136531118D01*
X68687454Y-136710836D01*
X68758617Y-136850500D01*
X68773240Y-136879199D01*
X68884310Y-137032073D01*
X69017927Y-137165690D01*
X69170801Y-137276760D01*
X69250347Y-137317290D01*
X69339163Y-137362545D01*
X69339165Y-137362545D01*
X69339168Y-137362547D01*
X69435497Y-137393846D01*
X69518881Y-137420940D01*
X69705514Y-137450500D01*
X69705519Y-137450500D01*
X70294486Y-137450500D01*
X70481118Y-137420940D01*
X70660832Y-137362547D01*
X70829199Y-137276760D01*
X70982073Y-137165690D01*
X71115690Y-137032073D01*
X71210475Y-136901613D01*
X71265804Y-136858949D01*
X71310792Y-136850500D01*
X76009903Y-136850500D01*
X76076942Y-136870185D01*
X76097584Y-136886819D01*
X83455922Y-144245157D01*
X83489407Y-144306480D01*
X83486173Y-144371155D01*
X83481522Y-144385468D01*
X83449500Y-144587648D01*
X83449500Y-144792351D01*
X83481522Y-144994534D01*
X83544781Y-145189223D01*
X83637715Y-145371613D01*
X83758028Y-145537213D01*
X83902786Y-145681971D01*
X84057749Y-145794556D01*
X84068390Y-145802287D01*
X84184607Y-145861503D01*
X84250776Y-145895218D01*
X84250778Y-145895218D01*
X84250781Y-145895220D01*
X84355137Y-145929127D01*
X84445465Y-145958477D01*
X84546557Y-145974488D01*
X84647648Y-145990500D01*
X84647649Y-145990500D01*
X84852351Y-145990500D01*
X84852352Y-145990500D01*
X85054534Y-145958477D01*
X85249219Y-145895220D01*
X85431610Y-145802287D01*
X85524590Y-145734732D01*
X85597213Y-145681971D01*
X85597215Y-145681968D01*
X85597219Y-145681966D01*
X85741966Y-145537219D01*
X85741968Y-145537215D01*
X85741971Y-145537213D01*
X85794732Y-145464590D01*
X85862287Y-145371610D01*
X85955220Y-145189219D01*
X86018477Y-144994534D01*
X86050500Y-144792352D01*
X86050500Y-144587648D01*
X86018477Y-144385466D01*
X85955220Y-144190781D01*
X85955218Y-144190778D01*
X85955218Y-144190776D01*
X85921503Y-144124607D01*
X85862287Y-144008390D01*
X85854556Y-143997749D01*
X85741971Y-143842786D01*
X85597213Y-143698028D01*
X85431613Y-143577715D01*
X85431612Y-143577714D01*
X85431610Y-143577713D01*
X85374653Y-143548691D01*
X85249223Y-143484781D01*
X85054534Y-143421522D01*
X84879995Y-143393878D01*
X84852352Y-143389500D01*
X84647648Y-143389500D01*
X84609599Y-143395526D01*
X84445468Y-143421522D01*
X84436717Y-143424365D01*
X84431154Y-143426173D01*
X84361313Y-143428167D01*
X84305157Y-143395922D01*
X80011390Y-139102155D01*
X93650000Y-139102155D01*
X93650000Y-139750000D01*
X94566988Y-139750000D01*
X94534075Y-139807007D01*
X94500000Y-139934174D01*
X94500000Y-140065826D01*
X94534075Y-140192993D01*
X94566988Y-140250000D01*
X93650000Y-140250000D01*
X93650000Y-140897844D01*
X93656401Y-140957372D01*
X93656403Y-140957379D01*
X93706645Y-141092086D01*
X93706649Y-141092093D01*
X93792809Y-141207187D01*
X93792812Y-141207190D01*
X93907906Y-141293350D01*
X93907913Y-141293354D01*
X94042620Y-141343596D01*
X94042627Y-141343598D01*
X94102155Y-141349999D01*
X94102172Y-141350000D01*
X94750000Y-141350000D01*
X94750000Y-140433012D01*
X94807007Y-140465925D01*
X94934174Y-140500000D01*
X95065826Y-140500000D01*
X95192993Y-140465925D01*
X95250000Y-140433012D01*
X95250000Y-141350000D01*
X95897828Y-141350000D01*
X95897844Y-141349999D01*
X95957372Y-141343598D01*
X95957379Y-141343596D01*
X96092086Y-141293354D01*
X96092093Y-141293350D01*
X96207187Y-141207190D01*
X96207190Y-141207187D01*
X96293350Y-141092093D01*
X96293354Y-141092086D01*
X96343596Y-140957379D01*
X96343598Y-140957372D01*
X96349999Y-140897844D01*
X96350000Y-140897827D01*
X96350000Y-140250000D01*
X95433012Y-140250000D01*
X95465925Y-140192993D01*
X95500000Y-140065826D01*
X95500000Y-139934174D01*
X95465925Y-139807007D01*
X95433012Y-139750000D01*
X96350000Y-139750000D01*
X96350000Y-139102172D01*
X96349999Y-139102155D01*
X96343598Y-139042627D01*
X96343596Y-139042620D01*
X96293354Y-138907913D01*
X96293350Y-138907906D01*
X96207190Y-138792812D01*
X96207187Y-138792809D01*
X96092093Y-138706649D01*
X96092086Y-138706645D01*
X95957379Y-138656403D01*
X95957372Y-138656401D01*
X95897844Y-138650000D01*
X95250000Y-138650000D01*
X95250000Y-139566988D01*
X95192993Y-139534075D01*
X95065826Y-139500000D01*
X94934174Y-139500000D01*
X94807007Y-139534075D01*
X94750000Y-139566988D01*
X94750000Y-138650000D01*
X94102155Y-138650000D01*
X94042627Y-138656401D01*
X94042620Y-138656403D01*
X93907913Y-138706645D01*
X93907906Y-138706649D01*
X93792812Y-138792809D01*
X93792809Y-138792812D01*
X93706649Y-138907906D01*
X93706645Y-138907913D01*
X93656403Y-139042620D01*
X93656401Y-139042627D01*
X93650000Y-139102155D01*
X80011390Y-139102155D01*
X76797590Y-135888355D01*
X76797588Y-135888352D01*
X76678717Y-135769481D01*
X76678716Y-135769480D01*
X76591904Y-135719360D01*
X76591904Y-135719359D01*
X76591900Y-135719358D01*
X76541785Y-135690423D01*
X76389057Y-135649499D01*
X76230943Y-135649499D01*
X76223347Y-135649499D01*
X76223331Y-135649500D01*
X71310792Y-135649500D01*
X71243753Y-135629815D01*
X71210474Y-135598386D01*
X71115690Y-135467927D01*
X70985091Y-135337328D01*
X70951606Y-135276005D01*
X70956590Y-135206313D01*
X70985091Y-135161966D01*
X71115310Y-135031746D01*
X71115314Y-135031741D01*
X71226329Y-134878940D01*
X71312085Y-134710637D01*
X71370451Y-134531002D01*
X71375362Y-134500000D01*
X70375278Y-134500000D01*
X70419333Y-134423694D01*
X70450000Y-134309244D01*
X70450000Y-134190756D01*
X70419333Y-134076306D01*
X70375278Y-134000000D01*
X71375362Y-134000000D01*
X71370451Y-133968997D01*
X71312085Y-133789362D01*
X71226329Y-133621059D01*
X71161641Y-133532022D01*
X71138161Y-133466216D01*
X71153987Y-133398162D01*
X71187646Y-133359872D01*
X71257546Y-133307546D01*
X71343796Y-133192331D01*
X71394091Y-133057483D01*
X71400500Y-132997873D01*
X71400499Y-131502128D01*
X71394091Y-131442517D01*
X71384944Y-131417993D01*
X71343797Y-131307671D01*
X71343793Y-131307664D01*
X71257547Y-131192455D01*
X71257544Y-131192452D01*
X71142335Y-131106206D01*
X71142328Y-131106202D01*
X71007482Y-131055908D01*
X71007483Y-131055908D01*
X70947883Y-131049501D01*
X70947881Y-131049500D01*
X70947873Y-131049500D01*
X70947864Y-131049500D01*
X69052129Y-131049500D01*
X69052123Y-131049501D01*
X68992516Y-131055908D01*
X68857671Y-131106202D01*
X68857664Y-131106206D01*
X68742455Y-131192452D01*
X68742452Y-131192455D01*
X68656206Y-131307664D01*
X68656202Y-131307671D01*
X68605908Y-131442517D01*
X68599501Y-131502116D01*
X68599501Y-131502123D01*
X68599500Y-131502135D01*
X68000500Y-131502135D01*
X68000500Y-130327135D01*
X75324500Y-130327135D01*
X75324500Y-132122870D01*
X75324501Y-132122876D01*
X75330908Y-132182483D01*
X75381202Y-132317328D01*
X75381206Y-132317335D01*
X75467452Y-132432544D01*
X75467455Y-132432547D01*
X75582664Y-132518793D01*
X75582671Y-132518797D01*
X75717517Y-132569091D01*
X75717516Y-132569091D01*
X75724444Y-132569835D01*
X75777127Y-132575500D01*
X77572872Y-132575499D01*
X77632483Y-132569091D01*
X77767331Y-132518796D01*
X77882546Y-132432546D01*
X77968796Y-132317331D01*
X78017810Y-132185916D01*
X78059681Y-132129984D01*
X78125145Y-132105566D01*
X78193418Y-132120417D01*
X78221673Y-132141569D01*
X78335213Y-132255109D01*
X78507179Y-132380048D01*
X78507181Y-132380049D01*
X78507184Y-132380051D01*
X78696588Y-132476557D01*
X78898757Y-132542246D01*
X79108713Y-132575500D01*
X79108714Y-132575500D01*
X79321286Y-132575500D01*
X79321287Y-132575500D01*
X79531243Y-132542246D01*
X79733412Y-132476557D01*
X79922816Y-132380051D01*
X80009138Y-132317335D01*
X80094786Y-132255109D01*
X80094788Y-132255106D01*
X80094792Y-132255104D01*
X80245104Y-132104792D01*
X80245106Y-132104788D01*
X80245109Y-132104786D01*
X80370048Y-131932820D01*
X80370047Y-131932820D01*
X80370051Y-131932816D01*
X80374514Y-131924054D01*
X80422488Y-131873259D01*
X80490308Y-131856463D01*
X80556444Y-131878999D01*
X80595486Y-131924056D01*
X80599951Y-131932820D01*
X80724890Y-132104786D01*
X80875213Y-132255109D01*
X81047179Y-132380048D01*
X81047181Y-132380049D01*
X81047184Y-132380051D01*
X81236588Y-132476557D01*
X81438757Y-132542246D01*
X81648713Y-132575500D01*
X81648714Y-132575500D01*
X81861286Y-132575500D01*
X81861287Y-132575500D01*
X82071243Y-132542246D01*
X82273412Y-132476557D01*
X82462816Y-132380051D01*
X82549138Y-132317335D01*
X82634786Y-132255109D01*
X82634788Y-132255106D01*
X82634792Y-132255104D01*
X82785104Y-132104792D01*
X82785106Y-132104788D01*
X82785109Y-132104786D01*
X82910048Y-131932820D01*
X82910047Y-131932820D01*
X82910051Y-131932816D01*
X82914514Y-131924054D01*
X82962488Y-131873259D01*
X83030308Y-131856463D01*
X83096444Y-131878999D01*
X83135486Y-131924056D01*
X83139951Y-131932820D01*
X83264890Y-132104786D01*
X83415213Y-132255109D01*
X83587179Y-132380048D01*
X83587181Y-132380049D01*
X83587184Y-132380051D01*
X83776588Y-132476557D01*
X83978757Y-132542246D01*
X84188713Y-132575500D01*
X84188714Y-132575500D01*
X84401286Y-132575500D01*
X84401287Y-132575500D01*
X84611243Y-132542246D01*
X84813412Y-132476557D01*
X85002816Y-132380051D01*
X85089138Y-132317335D01*
X85174786Y-132255109D01*
X85174788Y-132255106D01*
X85174792Y-132255104D01*
X85325104Y-132104792D01*
X85325106Y-132104788D01*
X85325109Y-132104786D01*
X85450048Y-131932820D01*
X85450051Y-131932816D01*
X85454793Y-131923508D01*
X85502763Y-131872711D01*
X85570583Y-131855911D01*
X85636719Y-131878445D01*
X85675763Y-131923500D01*
X85680377Y-131932555D01*
X85805272Y-132104459D01*
X85805276Y-132104464D01*
X85955535Y-132254723D01*
X85955540Y-132254727D01*
X86127442Y-132379620D01*
X86316782Y-132476095D01*
X86518871Y-132541757D01*
X86585000Y-132552231D01*
X86585000Y-131658012D01*
X86642007Y-131690925D01*
X86769174Y-131725000D01*
X86900826Y-131725000D01*
X87027993Y-131690925D01*
X87085000Y-131658012D01*
X87085000Y-132552230D01*
X87151126Y-132541757D01*
X87151129Y-132541757D01*
X87353217Y-132476095D01*
X87542557Y-132379620D01*
X87714459Y-132254727D01*
X87714464Y-132254723D01*
X87864723Y-132104464D01*
X87864727Y-132104459D01*
X87989620Y-131932558D01*
X87994514Y-131922954D01*
X88042488Y-131872157D01*
X88110308Y-131855361D01*
X88176444Y-131877897D01*
X88215486Y-131922954D01*
X88220379Y-131932558D01*
X88345272Y-132104459D01*
X88345276Y-132104464D01*
X88495535Y-132254723D01*
X88495540Y-132254727D01*
X88667442Y-132379620D01*
X88856782Y-132476095D01*
X89058871Y-132541757D01*
X89125000Y-132552231D01*
X89125000Y-131658012D01*
X89182007Y-131690925D01*
X89309174Y-131725000D01*
X89440826Y-131725000D01*
X89567993Y-131690925D01*
X89625000Y-131658012D01*
X89625000Y-132552230D01*
X89691126Y-132541757D01*
X89691129Y-132541757D01*
X89893217Y-132476095D01*
X90082557Y-132379620D01*
X90254459Y-132254727D01*
X90254464Y-132254723D01*
X90404723Y-132104464D01*
X90404727Y-132104459D01*
X90529620Y-131932557D01*
X90626095Y-131743217D01*
X90691757Y-131541129D01*
X90691757Y-131541126D01*
X90702231Y-131475000D01*
X89808012Y-131475000D01*
X89840925Y-131417993D01*
X89875000Y-131290826D01*
X89875000Y-131159174D01*
X89840925Y-131032007D01*
X89808012Y-130975000D01*
X90702231Y-130975000D01*
X90691757Y-130908873D01*
X90691757Y-130908870D01*
X90626095Y-130706782D01*
X90529620Y-130517442D01*
X90404727Y-130345540D01*
X90404723Y-130345535D01*
X90254464Y-130195276D01*
X90254459Y-130195272D01*
X90082557Y-130070379D01*
X89893215Y-129973903D01*
X89691124Y-129908241D01*
X89625000Y-129897768D01*
X89625000Y-130791988D01*
X89567993Y-130759075D01*
X89440826Y-130725000D01*
X89309174Y-130725000D01*
X89182007Y-130759075D01*
X89125000Y-130791988D01*
X89125000Y-129897768D01*
X89124999Y-129897768D01*
X89058875Y-129908241D01*
X88856784Y-129973903D01*
X88667442Y-130070379D01*
X88495540Y-130195272D01*
X88495535Y-130195276D01*
X88345276Y-130345535D01*
X88345272Y-130345540D01*
X88220377Y-130517444D01*
X88215484Y-130527048D01*
X88167509Y-130577844D01*
X88099688Y-130594638D01*
X88033553Y-130572100D01*
X87994516Y-130527048D01*
X87989622Y-130517444D01*
X87864727Y-130345540D01*
X87864723Y-130345535D01*
X87714464Y-130195276D01*
X87714459Y-130195272D01*
X87542557Y-130070379D01*
X87353215Y-129973903D01*
X87151124Y-129908241D01*
X87085000Y-129897768D01*
X87085000Y-130791988D01*
X87027993Y-130759075D01*
X86900826Y-130725000D01*
X86769174Y-130725000D01*
X86642007Y-130759075D01*
X86585000Y-130791988D01*
X86585000Y-129897768D01*
X86584999Y-129897768D01*
X86518875Y-129908241D01*
X86316784Y-129973903D01*
X86127442Y-130070379D01*
X85955540Y-130195272D01*
X85955535Y-130195276D01*
X85805276Y-130345535D01*
X85805272Y-130345540D01*
X85680378Y-130517443D01*
X85675762Y-130526502D01*
X85627784Y-130577295D01*
X85559963Y-130594087D01*
X85493829Y-130571546D01*
X85454794Y-130526493D01*
X85450051Y-130517184D01*
X85450049Y-130517181D01*
X85450048Y-130517179D01*
X85325109Y-130345213D01*
X85174786Y-130194890D01*
X85002820Y-130069951D01*
X84813414Y-129973444D01*
X84813413Y-129973443D01*
X84813412Y-129973443D01*
X84611243Y-129907754D01*
X84611241Y-129907753D01*
X84611240Y-129907753D01*
X84449957Y-129882208D01*
X84401287Y-129874500D01*
X84188713Y-129874500D01*
X84140042Y-129882208D01*
X83978760Y-129907753D01*
X83776585Y-129973444D01*
X83587179Y-130069951D01*
X83415213Y-130194890D01*
X83264890Y-130345213D01*
X83139949Y-130517182D01*
X83135484Y-130525946D01*
X83087509Y-130576742D01*
X83019688Y-130593536D01*
X82953553Y-130570998D01*
X82914516Y-130525946D01*
X82910050Y-130517182D01*
X82785109Y-130345213D01*
X82634786Y-130194890D01*
X82462820Y-130069951D01*
X82273414Y-129973444D01*
X82273413Y-129973443D01*
X82273412Y-129973443D01*
X82071243Y-129907754D01*
X82071241Y-129907753D01*
X82071240Y-129907753D01*
X81909957Y-129882208D01*
X81861287Y-129874500D01*
X81825590Y-129874500D01*
X81758551Y-129854815D01*
X81712796Y-129802011D01*
X81702852Y-129732853D01*
X81731877Y-129669297D01*
X81782257Y-129634318D01*
X81892086Y-129593354D01*
X81892093Y-129593350D01*
X82007187Y-129507190D01*
X82007190Y-129507187D01*
X82093350Y-129392093D01*
X82093353Y-129392088D01*
X82112345Y-129341166D01*
X82154215Y-129285232D01*
X82219679Y-129260813D01*
X82287952Y-129275663D01*
X82316209Y-129296816D01*
X82337636Y-129318243D01*
X82337641Y-129318247D01*
X82493192Y-129431260D01*
X82515978Y-129447815D01*
X82632501Y-129507187D01*
X82712393Y-129547895D01*
X82712396Y-129547896D01*
X82817221Y-129581955D01*
X82922049Y-129616015D01*
X83139778Y-129650500D01*
X83139779Y-129650500D01*
X83360221Y-129650500D01*
X83360222Y-129650500D01*
X83577951Y-129616015D01*
X83787606Y-129547895D01*
X83984022Y-129447815D01*
X84162365Y-129318242D01*
X84318242Y-129162365D01*
X84399682Y-129050270D01*
X84455011Y-129007606D01*
X84524624Y-129001627D01*
X84586420Y-129034232D01*
X84600313Y-129050265D01*
X84681753Y-129162358D01*
X84681758Y-129162365D01*
X84837636Y-129318243D01*
X84837641Y-129318247D01*
X84993192Y-129431260D01*
X85015978Y-129447815D01*
X85132501Y-129507187D01*
X85212393Y-129547895D01*
X85212396Y-129547896D01*
X85317221Y-129581955D01*
X85422049Y-129616015D01*
X85639778Y-129650500D01*
X85639779Y-129650500D01*
X85860221Y-129650500D01*
X85860222Y-129650500D01*
X86077951Y-129616015D01*
X86287606Y-129547895D01*
X86484022Y-129447815D01*
X86662365Y-129318242D01*
X86818242Y-129162365D01*
X86947815Y-128984022D01*
X87047895Y-128787606D01*
X87116015Y-128577951D01*
X87150500Y-128360222D01*
X87150500Y-128139778D01*
X87116015Y-127922049D01*
X87047895Y-127712394D01*
X87047895Y-127712393D01*
X87013237Y-127644375D01*
X86947815Y-127515978D01*
X86879743Y-127422284D01*
X86818247Y-127337641D01*
X86818243Y-127337636D01*
X86662363Y-127181756D01*
X86662358Y-127181752D01*
X86484025Y-127052187D01*
X86484024Y-127052186D01*
X86484022Y-127052185D01*
X86421096Y-127020122D01*
X86287606Y-126952104D01*
X86287603Y-126952103D01*
X86077952Y-126883985D01*
X85969086Y-126866742D01*
X85860222Y-126849500D01*
X85639778Y-126849500D01*
X85567201Y-126860995D01*
X85422047Y-126883985D01*
X85212396Y-126952103D01*
X85212393Y-126952104D01*
X85015974Y-127052187D01*
X84837641Y-127181752D01*
X84837636Y-127181756D01*
X84681756Y-127337636D01*
X84681752Y-127337641D01*
X84600318Y-127449727D01*
X84544989Y-127492393D01*
X84475375Y-127498372D01*
X84413580Y-127465767D01*
X84399682Y-127449727D01*
X84318247Y-127337641D01*
X84318243Y-127337636D01*
X84162363Y-127181756D01*
X84162358Y-127181752D01*
X83984025Y-127052187D01*
X83984024Y-127052186D01*
X83984022Y-127052185D01*
X83921096Y-127020122D01*
X83787606Y-126952104D01*
X83787603Y-126952103D01*
X83577952Y-126883985D01*
X83469086Y-126866742D01*
X83360222Y-126849500D01*
X83139778Y-126849500D01*
X83067201Y-126860995D01*
X82922047Y-126883985D01*
X82712396Y-126952103D01*
X82712393Y-126952104D01*
X82515974Y-127052187D01*
X82337641Y-127181752D01*
X82337635Y-127181757D01*
X82316207Y-127203185D01*
X82254884Y-127236669D01*
X82185192Y-127231683D01*
X82129259Y-127189810D01*
X82112346Y-127158834D01*
X82093355Y-127107915D01*
X82093350Y-127107906D01*
X82007190Y-126992812D01*
X82007187Y-126992809D01*
X81892093Y-126906649D01*
X81892086Y-126906645D01*
X81757379Y-126856403D01*
X81757372Y-126856401D01*
X81697844Y-126850000D01*
X81000000Y-126850000D01*
X81000000Y-127816988D01*
X80942993Y-127784075D01*
X80815826Y-127750000D01*
X80684174Y-127750000D01*
X80557007Y-127784075D01*
X80500000Y-127816988D01*
X80500000Y-126850000D01*
X79802155Y-126850000D01*
X79742627Y-126856401D01*
X79742620Y-126856403D01*
X79607913Y-126906645D01*
X79607906Y-126906649D01*
X79492812Y-126992809D01*
X79492809Y-126992812D01*
X79406649Y-127107906D01*
X79406645Y-127107913D01*
X79356403Y-127242620D01*
X79356401Y-127242627D01*
X79350000Y-127302155D01*
X79350000Y-128000000D01*
X80316988Y-128000000D01*
X80284075Y-128057007D01*
X80250000Y-128184174D01*
X80250000Y-128315826D01*
X80284075Y-128442993D01*
X80316988Y-128500000D01*
X79350000Y-128500000D01*
X79350000Y-129197844D01*
X79356401Y-129257372D01*
X79356403Y-129257379D01*
X79406645Y-129392086D01*
X79406649Y-129392093D01*
X79492809Y-129507187D01*
X79492812Y-129507190D01*
X79607906Y-129593350D01*
X79607913Y-129593354D01*
X79742620Y-129643596D01*
X79742627Y-129643598D01*
X79802155Y-129649999D01*
X79802172Y-129650000D01*
X80500000Y-129650000D01*
X80500000Y-128683012D01*
X80557007Y-128715925D01*
X80684174Y-128750000D01*
X80815826Y-128750000D01*
X80942993Y-128715925D01*
X81000000Y-128683012D01*
X81000000Y-129650000D01*
X81490584Y-129650000D01*
X81557623Y-129669685D01*
X81603378Y-129722489D01*
X81613322Y-129791647D01*
X81584297Y-129855203D01*
X81525519Y-129892977D01*
X81509982Y-129896473D01*
X81438760Y-129907753D01*
X81236585Y-129973444D01*
X81047179Y-130069951D01*
X80875213Y-130194890D01*
X80724890Y-130345213D01*
X80599949Y-130517182D01*
X80595484Y-130525946D01*
X80547509Y-130576742D01*
X80479688Y-130593536D01*
X80413553Y-130570998D01*
X80374516Y-130525946D01*
X80370050Y-130517182D01*
X80245109Y-130345213D01*
X80094786Y-130194890D01*
X79922820Y-130069951D01*
X79733414Y-129973444D01*
X79733413Y-129973443D01*
X79733412Y-129973443D01*
X79531243Y-129907754D01*
X79531241Y-129907753D01*
X79531240Y-129907753D01*
X79369957Y-129882208D01*
X79321287Y-129874500D01*
X79108713Y-129874500D01*
X79060042Y-129882208D01*
X78898760Y-129907753D01*
X78696585Y-129973444D01*
X78507179Y-130069951D01*
X78335215Y-130194889D01*
X78221673Y-130308431D01*
X78160350Y-130341915D01*
X78090658Y-130336931D01*
X78034725Y-130295059D01*
X78017810Y-130264082D01*
X77968797Y-130132671D01*
X77968793Y-130132664D01*
X77882547Y-130017455D01*
X77882544Y-130017452D01*
X77767335Y-129931206D01*
X77767328Y-129931202D01*
X77632482Y-129880908D01*
X77632483Y-129880908D01*
X77572883Y-129874501D01*
X77572881Y-129874500D01*
X77572873Y-129874500D01*
X77572864Y-129874500D01*
X75777129Y-129874500D01*
X75777123Y-129874501D01*
X75717516Y-129880908D01*
X75582671Y-129931202D01*
X75582664Y-129931206D01*
X75467455Y-130017452D01*
X75467452Y-130017455D01*
X75381206Y-130132664D01*
X75381202Y-130132671D01*
X75330908Y-130267517D01*
X75324501Y-130327116D01*
X75324500Y-130327135D01*
X68000500Y-130327135D01*
X68000500Y-126207648D01*
X69449500Y-126207648D01*
X69449500Y-126412351D01*
X69481522Y-126614534D01*
X69544781Y-126809223D01*
X69637715Y-126991613D01*
X69758028Y-127157213D01*
X69902786Y-127301971D01*
X70057749Y-127414556D01*
X70068390Y-127422287D01*
X70184607Y-127481503D01*
X70250776Y-127515218D01*
X70250778Y-127515218D01*
X70250781Y-127515220D01*
X70355137Y-127549127D01*
X70445465Y-127578477D01*
X70546557Y-127594488D01*
X70647648Y-127610500D01*
X70647649Y-127610500D01*
X70852351Y-127610500D01*
X70852352Y-127610500D01*
X71054534Y-127578477D01*
X71249219Y-127515220D01*
X71431610Y-127422287D01*
X71548123Y-127337636D01*
X71597213Y-127301971D01*
X71597215Y-127301968D01*
X71597219Y-127301966D01*
X71741966Y-127157219D01*
X71741968Y-127157215D01*
X71741971Y-127157213D01*
X71794732Y-127084590D01*
X71862287Y-126991610D01*
X71955220Y-126809219D01*
X72018477Y-126614534D01*
X72050500Y-126412352D01*
X72050500Y-126207648D01*
X72018477Y-126005466D01*
X71955220Y-125810781D01*
X71955218Y-125810778D01*
X71955218Y-125810776D01*
X71921503Y-125744607D01*
X71862287Y-125628390D01*
X71854556Y-125617749D01*
X71741971Y-125462786D01*
X71597213Y-125318028D01*
X71431613Y-125197715D01*
X71431612Y-125197714D01*
X71431610Y-125197713D01*
X71374653Y-125168691D01*
X71249223Y-125104781D01*
X71054534Y-125041522D01*
X70879995Y-125013878D01*
X70852352Y-125009500D01*
X70647648Y-125009500D01*
X70623329Y-125013351D01*
X70445465Y-125041522D01*
X70250776Y-125104781D01*
X70068386Y-125197715D01*
X69902786Y-125318028D01*
X69758028Y-125462786D01*
X69637715Y-125628386D01*
X69544781Y-125810776D01*
X69481522Y-126005465D01*
X69449500Y-126207648D01*
X68000500Y-126207648D01*
X68000500Y-120368048D01*
X76589500Y-120368048D01*
X76589500Y-121131951D01*
X76616013Y-121333333D01*
X76621334Y-121373744D01*
X76621335Y-121373746D01*
X76684456Y-121609320D01*
X76684459Y-121609330D01*
X76777786Y-121834640D01*
X76777791Y-121834651D01*
X76899727Y-122045848D01*
X76899738Y-122045864D01*
X77048199Y-122239343D01*
X77048205Y-122239350D01*
X77220649Y-122411794D01*
X77220655Y-122411799D01*
X77414144Y-122560268D01*
X77414151Y-122560272D01*
X77625348Y-122682208D01*
X77625353Y-122682210D01*
X77625356Y-122682212D01*
X77850679Y-122775544D01*
X78086256Y-122838666D01*
X78328056Y-122870500D01*
X78328063Y-122870500D01*
X78571937Y-122870500D01*
X78571944Y-122870500D01*
X78813744Y-122838666D01*
X79049321Y-122775544D01*
X79274644Y-122682212D01*
X79485856Y-122560268D01*
X79679345Y-122411799D01*
X79851799Y-122239345D01*
X80000268Y-122045856D01*
X80122212Y-121834644D01*
X80215544Y-121609321D01*
X80278666Y-121373744D01*
X80310500Y-121131944D01*
X80310500Y-120368056D01*
X80310499Y-120368048D01*
X86189500Y-120368048D01*
X86189500Y-121131951D01*
X86216013Y-121333333D01*
X86221334Y-121373744D01*
X86221335Y-121373746D01*
X86284456Y-121609320D01*
X86284459Y-121609330D01*
X86377786Y-121834640D01*
X86377791Y-121834651D01*
X86499727Y-122045848D01*
X86499738Y-122045864D01*
X86648199Y-122239343D01*
X86648205Y-122239350D01*
X86820649Y-122411794D01*
X86820655Y-122411799D01*
X87014144Y-122560268D01*
X87014151Y-122560272D01*
X87225348Y-122682208D01*
X87225353Y-122682210D01*
X87225356Y-122682212D01*
X87450679Y-122775544D01*
X87686256Y-122838666D01*
X87928056Y-122870500D01*
X87928063Y-122870500D01*
X88171937Y-122870500D01*
X88171944Y-122870500D01*
X88413744Y-122838666D01*
X88649321Y-122775544D01*
X88874644Y-122682212D01*
X89085856Y-122560268D01*
X89279345Y-122411799D01*
X89451799Y-122239345D01*
X89600268Y-122045856D01*
X89722212Y-121834644D01*
X89815544Y-121609321D01*
X89878666Y-121373744D01*
X89910500Y-121131944D01*
X89910500Y-120368056D01*
X89878666Y-120126256D01*
X89815544Y-119890679D01*
X89722212Y-119665356D01*
X89722210Y-119665353D01*
X89722208Y-119665348D01*
X89600272Y-119454151D01*
X89600268Y-119454144D01*
X89451799Y-119260655D01*
X89451794Y-119260649D01*
X89279350Y-119088205D01*
X89279343Y-119088199D01*
X89085864Y-118939738D01*
X89085862Y-118939736D01*
X89085856Y-118939732D01*
X89085851Y-118939729D01*
X89085848Y-118939727D01*
X88874651Y-118817791D01*
X88874640Y-118817786D01*
X88649330Y-118724459D01*
X88649323Y-118724457D01*
X88649321Y-118724456D01*
X88413744Y-118661334D01*
X88373333Y-118656013D01*
X88171951Y-118629500D01*
X88171944Y-118629500D01*
X87928056Y-118629500D01*
X87928048Y-118629500D01*
X87697896Y-118659801D01*
X87686256Y-118661334D01*
X87450679Y-118724456D01*
X87450669Y-118724459D01*
X87225359Y-118817786D01*
X87225348Y-118817791D01*
X87014151Y-118939727D01*
X87014135Y-118939738D01*
X86820656Y-119088199D01*
X86820649Y-119088205D01*
X86648205Y-119260649D01*
X86648199Y-119260656D01*
X86499738Y-119454135D01*
X86499727Y-119454151D01*
X86377791Y-119665348D01*
X86377786Y-119665359D01*
X86284459Y-119890669D01*
X86284456Y-119890679D01*
X86221335Y-120126253D01*
X86221333Y-120126264D01*
X86189500Y-120368048D01*
X80310499Y-120368048D01*
X80278666Y-120126256D01*
X80215544Y-119890679D01*
X80122212Y-119665356D01*
X80122210Y-119665353D01*
X80122208Y-119665348D01*
X80000272Y-119454151D01*
X80000268Y-119454144D01*
X79851799Y-119260655D01*
X79851794Y-119260649D01*
X79679350Y-119088205D01*
X79679343Y-119088199D01*
X79485864Y-118939738D01*
X79485862Y-118939736D01*
X79485856Y-118939732D01*
X79485851Y-118939729D01*
X79485848Y-118939727D01*
X79274651Y-118817791D01*
X79274640Y-118817786D01*
X79049330Y-118724459D01*
X79049323Y-118724457D01*
X79049321Y-118724456D01*
X78813744Y-118661334D01*
X78773333Y-118656013D01*
X78571951Y-118629500D01*
X78571944Y-118629500D01*
X78328056Y-118629500D01*
X78328048Y-118629500D01*
X78097896Y-118659801D01*
X78086256Y-118661334D01*
X77850679Y-118724456D01*
X77850669Y-118724459D01*
X77625359Y-118817786D01*
X77625348Y-118817791D01*
X77414151Y-118939727D01*
X77414135Y-118939738D01*
X77220656Y-119088199D01*
X77220649Y-119088205D01*
X77048205Y-119260649D01*
X77048199Y-119260656D01*
X76899738Y-119454135D01*
X76899727Y-119454151D01*
X76777791Y-119665348D01*
X76777786Y-119665359D01*
X76684459Y-119890669D01*
X76684456Y-119890679D01*
X76621335Y-120126253D01*
X76621333Y-120126264D01*
X76589500Y-120368048D01*
X68000500Y-120368048D01*
X68000500Y-118587648D01*
X69449500Y-118587648D01*
X69449500Y-118792351D01*
X69481522Y-118994534D01*
X69544781Y-119189223D01*
X69637715Y-119371613D01*
X69758028Y-119537213D01*
X69902786Y-119681971D01*
X70057749Y-119794556D01*
X70068390Y-119802287D01*
X70184607Y-119861503D01*
X70250776Y-119895218D01*
X70250778Y-119895218D01*
X70250781Y-119895220D01*
X70355137Y-119929127D01*
X70445465Y-119958477D01*
X70546557Y-119974488D01*
X70647648Y-119990500D01*
X70647649Y-119990500D01*
X70852351Y-119990500D01*
X70852352Y-119990500D01*
X71054534Y-119958477D01*
X71249219Y-119895220D01*
X71431610Y-119802287D01*
X71524590Y-119734732D01*
X71597213Y-119681971D01*
X71597215Y-119681968D01*
X71597219Y-119681966D01*
X71741966Y-119537219D01*
X71741968Y-119537215D01*
X71741971Y-119537213D01*
X71802323Y-119454144D01*
X71862287Y-119371610D01*
X71955220Y-119189219D01*
X72018477Y-118994534D01*
X72050500Y-118792352D01*
X72050500Y-118587648D01*
X72018477Y-118385466D01*
X71955220Y-118190781D01*
X71955218Y-118190778D01*
X71955218Y-118190776D01*
X71921503Y-118124607D01*
X71862287Y-118008390D01*
X71854556Y-117997749D01*
X71741971Y-117842786D01*
X71597213Y-117698028D01*
X71431613Y-117577715D01*
X71431612Y-117577714D01*
X71431610Y-117577713D01*
X71374653Y-117548691D01*
X71249223Y-117484781D01*
X71054534Y-117421522D01*
X70879995Y-117393878D01*
X70852352Y-117389500D01*
X70647648Y-117389500D01*
X70623329Y-117393351D01*
X70445465Y-117421522D01*
X70250776Y-117484781D01*
X70068386Y-117577715D01*
X69902786Y-117698028D01*
X69758028Y-117842786D01*
X69637715Y-118008386D01*
X69544781Y-118190776D01*
X69481522Y-118385465D01*
X69449500Y-118587648D01*
X68000500Y-118587648D01*
X68000500Y-110397648D01*
X78139500Y-110397648D01*
X78139500Y-110602351D01*
X78171522Y-110804534D01*
X78234781Y-110999223D01*
X78327715Y-111181613D01*
X78448028Y-111347213D01*
X78592786Y-111491971D01*
X78747749Y-111604556D01*
X78758390Y-111612287D01*
X78874607Y-111671503D01*
X78940776Y-111705218D01*
X78940778Y-111705218D01*
X78940781Y-111705220D01*
X79045137Y-111739127D01*
X79135465Y-111768477D01*
X79236557Y-111784488D01*
X79337648Y-111800500D01*
X79337649Y-111800500D01*
X79542351Y-111800500D01*
X79542352Y-111800500D01*
X79744534Y-111768477D01*
X79939219Y-111705220D01*
X80121610Y-111612287D01*
X80214590Y-111544732D01*
X80287213Y-111491971D01*
X80287215Y-111491968D01*
X80287219Y-111491966D01*
X80431966Y-111347219D01*
X80431968Y-111347215D01*
X80431971Y-111347213D01*
X80484732Y-111274590D01*
X80552287Y-111181610D01*
X80645220Y-110999219D01*
X80708477Y-110804534D01*
X80740500Y-110602352D01*
X80740500Y-110397648D01*
X85759500Y-110397648D01*
X85759500Y-110602351D01*
X85791522Y-110804534D01*
X85854781Y-110999223D01*
X85947715Y-111181613D01*
X86068028Y-111347213D01*
X86212786Y-111491971D01*
X86367749Y-111604556D01*
X86378390Y-111612287D01*
X86494607Y-111671503D01*
X86560776Y-111705218D01*
X86560778Y-111705218D01*
X86560781Y-111705220D01*
X86665137Y-111739127D01*
X86755465Y-111768477D01*
X86856557Y-111784488D01*
X86957648Y-111800500D01*
X86957649Y-111800500D01*
X87162351Y-111800500D01*
X87162352Y-111800500D01*
X87364534Y-111768477D01*
X87559219Y-111705220D01*
X87741610Y-111612287D01*
X87834590Y-111544732D01*
X87907213Y-111491971D01*
X87907215Y-111491968D01*
X87907219Y-111491966D01*
X88051966Y-111347219D01*
X88051968Y-111347215D01*
X88051971Y-111347213D01*
X88104732Y-111274590D01*
X88172287Y-111181610D01*
X88265220Y-110999219D01*
X88328477Y-110804534D01*
X88360500Y-110602352D01*
X88360500Y-110397648D01*
X88328477Y-110195466D01*
X88265220Y-110000781D01*
X88265218Y-110000778D01*
X88265218Y-110000776D01*
X88231503Y-109934607D01*
X88172287Y-109818390D01*
X88164556Y-109807749D01*
X88051971Y-109652786D01*
X87907213Y-109508028D01*
X87741613Y-109387715D01*
X87741612Y-109387714D01*
X87741610Y-109387713D01*
X87684653Y-109358691D01*
X87559223Y-109294781D01*
X87364534Y-109231522D01*
X87189995Y-109203878D01*
X87162352Y-109199500D01*
X86957648Y-109199500D01*
X86933329Y-109203351D01*
X86755465Y-109231522D01*
X86560776Y-109294781D01*
X86378386Y-109387715D01*
X86212786Y-109508028D01*
X86068028Y-109652786D01*
X85947715Y-109818386D01*
X85854781Y-110000776D01*
X85791522Y-110195465D01*
X85759500Y-110397648D01*
X80740500Y-110397648D01*
X80708477Y-110195466D01*
X80645220Y-110000781D01*
X80645218Y-110000778D01*
X80645218Y-110000776D01*
X80611503Y-109934607D01*
X80552287Y-109818390D01*
X80544556Y-109807749D01*
X80431971Y-109652786D01*
X80287213Y-109508028D01*
X80121613Y-109387715D01*
X80121612Y-109387714D01*
X80121610Y-109387713D01*
X80064653Y-109358691D01*
X79939223Y-109294781D01*
X79744534Y-109231522D01*
X79569995Y-109203878D01*
X79542352Y-109199500D01*
X79337648Y-109199500D01*
X79313329Y-109203351D01*
X79135465Y-109231522D01*
X78940776Y-109294781D01*
X78758386Y-109387715D01*
X78592786Y-109508028D01*
X78448028Y-109652786D01*
X78327715Y-109818386D01*
X78234781Y-110000776D01*
X78171522Y-110195465D01*
X78139500Y-110397648D01*
X68000500Y-110397648D01*
X68000500Y-92831995D01*
X70824500Y-92831995D01*
X70824500Y-93068004D01*
X70824501Y-93068020D01*
X70855306Y-93302010D01*
X70916394Y-93529993D01*
X71006714Y-93748045D01*
X71006719Y-93748056D01*
X71077677Y-93870957D01*
X71124727Y-93952450D01*
X71124729Y-93952453D01*
X71124730Y-93952454D01*
X71268406Y-94139697D01*
X71268412Y-94139704D01*
X71435295Y-94306587D01*
X71435302Y-94306593D01*
X71530727Y-94379815D01*
X71622550Y-94450273D01*
X71753918Y-94526118D01*
X71826943Y-94568280D01*
X71826948Y-94568282D01*
X71826951Y-94568284D01*
X72045007Y-94658606D01*
X72272986Y-94719693D01*
X72506989Y-94750500D01*
X72506996Y-94750500D01*
X72743004Y-94750500D01*
X72743011Y-94750500D01*
X72977014Y-94719693D01*
X73204993Y-94658606D01*
X73325998Y-94608483D01*
X73395462Y-94601015D01*
X73457942Y-94632289D01*
X73461128Y-94635364D01*
X74306284Y-95480520D01*
X74443215Y-95559577D01*
X74595943Y-95600501D01*
X74595946Y-95600501D01*
X74761654Y-95600501D01*
X74761670Y-95600500D01*
X81973331Y-95600500D01*
X81973347Y-95600501D01*
X81980943Y-95600501D01*
X82139054Y-95600501D01*
X82139057Y-95600501D01*
X82291785Y-95559577D01*
X82341904Y-95530639D01*
X82428716Y-95480520D01*
X82540520Y-95368716D01*
X82540520Y-95368714D01*
X82550728Y-95358507D01*
X82550730Y-95358504D01*
X84305158Y-93604075D01*
X84366479Y-93570592D01*
X84431151Y-93573825D01*
X84445466Y-93578477D01*
X84647648Y-93610500D01*
X84647649Y-93610500D01*
X84852351Y-93610500D01*
X84852352Y-93610500D01*
X85054534Y-93578477D01*
X85249219Y-93515220D01*
X85431610Y-93422287D01*
X85524590Y-93354732D01*
X85597213Y-93301971D01*
X85597215Y-93301968D01*
X85597219Y-93301966D01*
X85741966Y-93157219D01*
X85741968Y-93157215D01*
X85741971Y-93157213D01*
X85806784Y-93068004D01*
X85862287Y-92991610D01*
X85955220Y-92809219D01*
X86018477Y-92614534D01*
X86050500Y-92412352D01*
X86050500Y-92207648D01*
X86018477Y-92005466D01*
X85955220Y-91810781D01*
X85955218Y-91810778D01*
X85955218Y-91810776D01*
X85921503Y-91744607D01*
X85862287Y-91628390D01*
X85836874Y-91593412D01*
X85741971Y-91462786D01*
X85597213Y-91318028D01*
X85431613Y-91197715D01*
X85431612Y-91197714D01*
X85431610Y-91197713D01*
X85336987Y-91149500D01*
X85249223Y-91104781D01*
X85054534Y-91041522D01*
X84879995Y-91013878D01*
X84852352Y-91009500D01*
X84647648Y-91009500D01*
X84623329Y-91013351D01*
X84445465Y-91041522D01*
X84250776Y-91104781D01*
X84068386Y-91197715D01*
X83902786Y-91318028D01*
X83758028Y-91462786D01*
X83637715Y-91628386D01*
X83544781Y-91810776D01*
X83481522Y-92005465D01*
X83449500Y-92207648D01*
X83449500Y-92412351D01*
X83481522Y-92614534D01*
X83486173Y-92628848D01*
X83488165Y-92698690D01*
X83455921Y-92754842D01*
X81847584Y-94363181D01*
X81786261Y-94396666D01*
X81759903Y-94399500D01*
X78771154Y-94399500D01*
X78704115Y-94379815D01*
X78658360Y-94327011D01*
X78648416Y-94257853D01*
X78677441Y-94194297D01*
X78683473Y-94187819D01*
X78731587Y-94139704D01*
X78731592Y-94139699D01*
X78875273Y-93952450D01*
X78993284Y-93748049D01*
X79083606Y-93529993D01*
X79144693Y-93302014D01*
X79175500Y-93068011D01*
X79175500Y-92831989D01*
X79144693Y-92597986D01*
X79083606Y-92370007D01*
X78993284Y-92151951D01*
X78993282Y-92151948D01*
X78993280Y-92151943D01*
X78951118Y-92078918D01*
X78875273Y-91947550D01*
X78731592Y-91760301D01*
X78731587Y-91760295D01*
X78564704Y-91593412D01*
X78564697Y-91593406D01*
X78377454Y-91449730D01*
X78377453Y-91449729D01*
X78377450Y-91449727D01*
X78295957Y-91402677D01*
X78173056Y-91331719D01*
X78173045Y-91331714D01*
X77954993Y-91241394D01*
X77727010Y-91180306D01*
X77493020Y-91149501D01*
X77493017Y-91149500D01*
X77493011Y-91149500D01*
X77256989Y-91149500D01*
X77256983Y-91149500D01*
X77256979Y-91149501D01*
X77022989Y-91180306D01*
X76795006Y-91241394D01*
X76576954Y-91331714D01*
X76576943Y-91331719D01*
X76372545Y-91449730D01*
X76185302Y-91593406D01*
X76185295Y-91593412D01*
X76018412Y-91760295D01*
X76018406Y-91760302D01*
X75874730Y-91947545D01*
X75756719Y-92151943D01*
X75756714Y-92151954D01*
X75666394Y-92370006D01*
X75605306Y-92597989D01*
X75574501Y-92831979D01*
X75574500Y-92831995D01*
X75574500Y-93068004D01*
X75574501Y-93068020D01*
X75605306Y-93302010D01*
X75666394Y-93529993D01*
X75756714Y-93748045D01*
X75756719Y-93748056D01*
X75827677Y-93870957D01*
X75874727Y-93952450D01*
X75874729Y-93952453D01*
X75874730Y-93952454D01*
X76018406Y-94139697D01*
X76018412Y-94139704D01*
X76066527Y-94187819D01*
X76100012Y-94249142D01*
X76095028Y-94318834D01*
X76053156Y-94374767D01*
X75987692Y-94399184D01*
X75978846Y-94399500D01*
X74975098Y-94399500D01*
X74908059Y-94379815D01*
X74887417Y-94363181D01*
X74310364Y-93786128D01*
X74276879Y-93724805D01*
X74281863Y-93655113D01*
X74283449Y-93651081D01*
X74333606Y-93529993D01*
X74394693Y-93302014D01*
X74425500Y-93068011D01*
X74425500Y-92831989D01*
X74394693Y-92597986D01*
X74333606Y-92370007D01*
X74243284Y-92151951D01*
X74243282Y-92151948D01*
X74243280Y-92151943D01*
X74201118Y-92078918D01*
X74125273Y-91947550D01*
X73981592Y-91760301D01*
X73981587Y-91760295D01*
X73814704Y-91593412D01*
X73814697Y-91593406D01*
X73627454Y-91449730D01*
X73627453Y-91449729D01*
X73627450Y-91449727D01*
X73545957Y-91402677D01*
X73423056Y-91331719D01*
X73423045Y-91331714D01*
X73204993Y-91241394D01*
X72977010Y-91180306D01*
X72743020Y-91149501D01*
X72743017Y-91149500D01*
X72743011Y-91149500D01*
X72506989Y-91149500D01*
X72506983Y-91149500D01*
X72506979Y-91149501D01*
X72272989Y-91180306D01*
X72045006Y-91241394D01*
X71826954Y-91331714D01*
X71826943Y-91331719D01*
X71622545Y-91449730D01*
X71435302Y-91593406D01*
X71435295Y-91593412D01*
X71268412Y-91760295D01*
X71268406Y-91760302D01*
X71124730Y-91947545D01*
X71006719Y-92151943D01*
X71006714Y-92151954D01*
X70916394Y-92370006D01*
X70855306Y-92597989D01*
X70824501Y-92831979D01*
X70824500Y-92831995D01*
X68000500Y-92831995D01*
X68000500Y-88131995D01*
X70824500Y-88131995D01*
X70824500Y-88368004D01*
X70824501Y-88368020D01*
X70855306Y-88602010D01*
X70916394Y-88829993D01*
X71006714Y-89048045D01*
X71006719Y-89048056D01*
X71077677Y-89170957D01*
X71124727Y-89252450D01*
X71124729Y-89252453D01*
X71124730Y-89252454D01*
X71268406Y-89439697D01*
X71268412Y-89439704D01*
X71435295Y-89606587D01*
X71435301Y-89606592D01*
X71622550Y-89750273D01*
X71753918Y-89826118D01*
X71826943Y-89868280D01*
X71826948Y-89868282D01*
X71826951Y-89868284D01*
X72045007Y-89958606D01*
X72272986Y-90019693D01*
X72506989Y-90050500D01*
X72506996Y-90050500D01*
X72743004Y-90050500D01*
X72743011Y-90050500D01*
X72977014Y-90019693D01*
X73204993Y-89958606D01*
X73423049Y-89868284D01*
X73627450Y-89750273D01*
X73814699Y-89606592D01*
X73981592Y-89439699D01*
X74125273Y-89252450D01*
X74243284Y-89048049D01*
X74333606Y-88829993D01*
X74394693Y-88602014D01*
X74425500Y-88368011D01*
X74425500Y-88131995D01*
X75574500Y-88131995D01*
X75574500Y-88368004D01*
X75574501Y-88368020D01*
X75605306Y-88602010D01*
X75666394Y-88829993D01*
X75756714Y-89048045D01*
X75756719Y-89048056D01*
X75827677Y-89170957D01*
X75874727Y-89252450D01*
X75874729Y-89252453D01*
X75874730Y-89252454D01*
X76018406Y-89439697D01*
X76018412Y-89439704D01*
X76185295Y-89606587D01*
X76185301Y-89606592D01*
X76372550Y-89750273D01*
X76503918Y-89826118D01*
X76576943Y-89868280D01*
X76576948Y-89868282D01*
X76576951Y-89868284D01*
X76795007Y-89958606D01*
X77022986Y-90019693D01*
X77256989Y-90050500D01*
X77256996Y-90050500D01*
X77493004Y-90050500D01*
X77493011Y-90050500D01*
X77727014Y-90019693D01*
X77954993Y-89958606D01*
X78173049Y-89868284D01*
X78377450Y-89750273D01*
X78564699Y-89606592D01*
X78731592Y-89439699D01*
X78875273Y-89252450D01*
X78993284Y-89048049D01*
X79083606Y-88829993D01*
X79144693Y-88602014D01*
X79175500Y-88368011D01*
X79175500Y-88131989D01*
X79144693Y-87897986D01*
X79083606Y-87670007D01*
X78993284Y-87451951D01*
X78993282Y-87451948D01*
X78993280Y-87451943D01*
X78951118Y-87378918D01*
X78875273Y-87247550D01*
X78731592Y-87060301D01*
X78731587Y-87060295D01*
X78564704Y-86893412D01*
X78564697Y-86893406D01*
X78377454Y-86749730D01*
X78377453Y-86749729D01*
X78377450Y-86749727D01*
X78295957Y-86702677D01*
X78173056Y-86631719D01*
X78173045Y-86631714D01*
X77954993Y-86541394D01*
X77727010Y-86480306D01*
X77493020Y-86449501D01*
X77493017Y-86449500D01*
X77493011Y-86449500D01*
X77256989Y-86449500D01*
X77256983Y-86449500D01*
X77256979Y-86449501D01*
X77022989Y-86480306D01*
X76795006Y-86541394D01*
X76576954Y-86631714D01*
X76576943Y-86631719D01*
X76372545Y-86749730D01*
X76185302Y-86893406D01*
X76185295Y-86893412D01*
X76018412Y-87060295D01*
X76018406Y-87060302D01*
X75874730Y-87247545D01*
X75756719Y-87451943D01*
X75756714Y-87451954D01*
X75666394Y-87670006D01*
X75605306Y-87897989D01*
X75574501Y-88131979D01*
X75574500Y-88131995D01*
X74425500Y-88131995D01*
X74425500Y-88131989D01*
X74394693Y-87897986D01*
X74333606Y-87670007D01*
X74243284Y-87451951D01*
X74243282Y-87451948D01*
X74243280Y-87451943D01*
X74201118Y-87378918D01*
X74125273Y-87247550D01*
X73981592Y-87060301D01*
X73981587Y-87060295D01*
X73814704Y-86893412D01*
X73814697Y-86893406D01*
X73627454Y-86749730D01*
X73627453Y-86749729D01*
X73627450Y-86749727D01*
X73545957Y-86702677D01*
X73423056Y-86631719D01*
X73423045Y-86631714D01*
X73204993Y-86541394D01*
X72977010Y-86480306D01*
X72743020Y-86449501D01*
X72743017Y-86449500D01*
X72743011Y-86449500D01*
X72506989Y-86449500D01*
X72506983Y-86449500D01*
X72506979Y-86449501D01*
X72272989Y-86480306D01*
X72045006Y-86541394D01*
X71826954Y-86631714D01*
X71826943Y-86631719D01*
X71622545Y-86749730D01*
X71435302Y-86893406D01*
X71435295Y-86893412D01*
X71268412Y-87060295D01*
X71268406Y-87060302D01*
X71124730Y-87247545D01*
X71006719Y-87451943D01*
X71006714Y-87451954D01*
X70916394Y-87670006D01*
X70855306Y-87897989D01*
X70824501Y-88131979D01*
X70824500Y-88131995D01*
X68000500Y-88131995D01*
X68000500Y-83431995D01*
X70824500Y-83431995D01*
X70824500Y-83668004D01*
X70824501Y-83668020D01*
X70847509Y-83842786D01*
X70855307Y-83902014D01*
X70916394Y-84129993D01*
X71006714Y-84348045D01*
X71006719Y-84348056D01*
X71077677Y-84470957D01*
X71124727Y-84552450D01*
X71124729Y-84552453D01*
X71124730Y-84552454D01*
X71268406Y-84739697D01*
X71268412Y-84739704D01*
X71435295Y-84906587D01*
X71435301Y-84906592D01*
X71622550Y-85050273D01*
X71753918Y-85126118D01*
X71826943Y-85168280D01*
X71826948Y-85168282D01*
X71826951Y-85168284D01*
X72045007Y-85258606D01*
X72272986Y-85319693D01*
X72506989Y-85350500D01*
X72506996Y-85350500D01*
X72743004Y-85350500D01*
X72743011Y-85350500D01*
X72977014Y-85319693D01*
X73204993Y-85258606D01*
X73423049Y-85168284D01*
X73627450Y-85050273D01*
X73814699Y-84906592D01*
X73981592Y-84739699D01*
X74125273Y-84552450D01*
X74243284Y-84348049D01*
X74333606Y-84129993D01*
X74394693Y-83902014D01*
X74425500Y-83668011D01*
X74425500Y-83431995D01*
X75574500Y-83431995D01*
X75574500Y-83668004D01*
X75574501Y-83668020D01*
X75597509Y-83842786D01*
X75605307Y-83902014D01*
X75666394Y-84129993D01*
X75756714Y-84348045D01*
X75756719Y-84348056D01*
X75827677Y-84470957D01*
X75874727Y-84552450D01*
X75874729Y-84552453D01*
X75874730Y-84552454D01*
X76018406Y-84739697D01*
X76018412Y-84739704D01*
X76185295Y-84906587D01*
X76185301Y-84906592D01*
X76372550Y-85050273D01*
X76503918Y-85126118D01*
X76576943Y-85168280D01*
X76576948Y-85168282D01*
X76576951Y-85168284D01*
X76795007Y-85258606D01*
X77022986Y-85319693D01*
X77256989Y-85350500D01*
X77256996Y-85350500D01*
X77493004Y-85350500D01*
X77493011Y-85350500D01*
X77727014Y-85319693D01*
X77954993Y-85258606D01*
X78173049Y-85168284D01*
X78377450Y-85050273D01*
X78564699Y-84906592D01*
X78731592Y-84739699D01*
X78875273Y-84552450D01*
X78993284Y-84348049D01*
X79083606Y-84129993D01*
X79144693Y-83902014D01*
X79175500Y-83668011D01*
X79175500Y-83431989D01*
X79144693Y-83197986D01*
X79083606Y-82970007D01*
X78993284Y-82751951D01*
X78993282Y-82751948D01*
X78993280Y-82751943D01*
X78951118Y-82678918D01*
X78875273Y-82547550D01*
X78731592Y-82360301D01*
X78731587Y-82360295D01*
X78564704Y-82193412D01*
X78564697Y-82193406D01*
X78377454Y-82049730D01*
X78377453Y-82049729D01*
X78377450Y-82049727D01*
X78295957Y-82002677D01*
X78173056Y-81931719D01*
X78173045Y-81931714D01*
X77954993Y-81841394D01*
X77727010Y-81780306D01*
X77493020Y-81749501D01*
X77493017Y-81749500D01*
X77493011Y-81749500D01*
X77256989Y-81749500D01*
X77256983Y-81749500D01*
X77256979Y-81749501D01*
X77022989Y-81780306D01*
X76795006Y-81841394D01*
X76576954Y-81931714D01*
X76576943Y-81931719D01*
X76372545Y-82049730D01*
X76185302Y-82193406D01*
X76185295Y-82193412D01*
X76018412Y-82360295D01*
X76018406Y-82360302D01*
X75874730Y-82547545D01*
X75756719Y-82751943D01*
X75756714Y-82751954D01*
X75666394Y-82970006D01*
X75605306Y-83197989D01*
X75574501Y-83431979D01*
X75574500Y-83431995D01*
X74425500Y-83431995D01*
X74425500Y-83431989D01*
X74394693Y-83197986D01*
X74333606Y-82970007D01*
X74243284Y-82751951D01*
X74243282Y-82751948D01*
X74243280Y-82751943D01*
X74201118Y-82678918D01*
X74125273Y-82547550D01*
X73981592Y-82360301D01*
X73981587Y-82360295D01*
X73814704Y-82193412D01*
X73814697Y-82193406D01*
X73627454Y-82049730D01*
X73627453Y-82049729D01*
X73627450Y-82049727D01*
X73545957Y-82002677D01*
X73423056Y-81931719D01*
X73423045Y-81931714D01*
X73204993Y-81841394D01*
X72977010Y-81780306D01*
X72743020Y-81749501D01*
X72743017Y-81749500D01*
X72743011Y-81749500D01*
X72506989Y-81749500D01*
X72506983Y-81749500D01*
X72506979Y-81749501D01*
X72272989Y-81780306D01*
X72045006Y-81841394D01*
X71826954Y-81931714D01*
X71826943Y-81931719D01*
X71622545Y-82049730D01*
X71435302Y-82193406D01*
X71435295Y-82193412D01*
X71268412Y-82360295D01*
X71268406Y-82360302D01*
X71124730Y-82547545D01*
X71006719Y-82751943D01*
X71006714Y-82751954D01*
X70916394Y-82970006D01*
X70855306Y-83197989D01*
X70824501Y-83431979D01*
X70824500Y-83431995D01*
X68000500Y-83431995D01*
X68000500Y-71252135D01*
X68599500Y-71252135D01*
X68599500Y-72747870D01*
X68599501Y-72747876D01*
X68605908Y-72807483D01*
X68656202Y-72942328D01*
X68656206Y-72942335D01*
X68725358Y-73034709D01*
X68742454Y-73057546D01*
X68812352Y-73109872D01*
X68854222Y-73165804D01*
X68859206Y-73235496D01*
X68838359Y-73282021D01*
X68773669Y-73371060D01*
X68687914Y-73539362D01*
X68629548Y-73718997D01*
X68624638Y-73750000D01*
X69624722Y-73750000D01*
X69580667Y-73826306D01*
X69550000Y-73940756D01*
X69550000Y-74059244D01*
X69580667Y-74173694D01*
X69624722Y-74250000D01*
X68624638Y-74250000D01*
X68629548Y-74281002D01*
X68687914Y-74460637D01*
X68773670Y-74628940D01*
X68884685Y-74781741D01*
X68884689Y-74781746D01*
X69014909Y-74911966D01*
X69048394Y-74973289D01*
X69043410Y-75042981D01*
X69014909Y-75087328D01*
X68884312Y-75217924D01*
X68884312Y-75217925D01*
X68884310Y-75217927D01*
X68836610Y-75283579D01*
X68773240Y-75370800D01*
X68687454Y-75539163D01*
X68629059Y-75718881D01*
X68599500Y-75905513D01*
X68599500Y-76094486D01*
X68629059Y-76281118D01*
X68687454Y-76460836D01*
X68758617Y-76600500D01*
X68773240Y-76629199D01*
X68884310Y-76782073D01*
X69017927Y-76915690D01*
X69170801Y-77026760D01*
X69250347Y-77067290D01*
X69339163Y-77112545D01*
X69339165Y-77112545D01*
X69339168Y-77112547D01*
X69435497Y-77143846D01*
X69518881Y-77170940D01*
X69705514Y-77200500D01*
X69705519Y-77200500D01*
X70294486Y-77200500D01*
X70481118Y-77170940D01*
X70660832Y-77112547D01*
X70829199Y-77026760D01*
X70982073Y-76915690D01*
X71115690Y-76782073D01*
X71210475Y-76651613D01*
X71265804Y-76608949D01*
X71310792Y-76600500D01*
X75759903Y-76600500D01*
X75826942Y-76620185D01*
X75847584Y-76636819D01*
X83455922Y-84245157D01*
X83489407Y-84306480D01*
X83486173Y-84371155D01*
X83481522Y-84385468D01*
X83449500Y-84587648D01*
X83449500Y-84792351D01*
X83481522Y-84994534D01*
X83544781Y-85189223D01*
X83637715Y-85371613D01*
X83758028Y-85537213D01*
X83902786Y-85681971D01*
X84057749Y-85794556D01*
X84068390Y-85802287D01*
X84184607Y-85861503D01*
X84250776Y-85895218D01*
X84250778Y-85895218D01*
X84250781Y-85895220D01*
X84355137Y-85929127D01*
X84445465Y-85958477D01*
X84546557Y-85974488D01*
X84647648Y-85990500D01*
X84647649Y-85990500D01*
X84852351Y-85990500D01*
X84852352Y-85990500D01*
X85054534Y-85958477D01*
X85249219Y-85895220D01*
X85431610Y-85802287D01*
X85524590Y-85734732D01*
X85597213Y-85681971D01*
X85597215Y-85681968D01*
X85597219Y-85681966D01*
X85741966Y-85537219D01*
X85741968Y-85537215D01*
X85741971Y-85537213D01*
X85794732Y-85464590D01*
X85862287Y-85371610D01*
X85955220Y-85189219D01*
X86018477Y-84994534D01*
X86050500Y-84792352D01*
X86050500Y-84587648D01*
X86018477Y-84385466D01*
X86006319Y-84348049D01*
X85955218Y-84190776D01*
X85921503Y-84124607D01*
X85862287Y-84008390D01*
X85854556Y-83997749D01*
X85741971Y-83842786D01*
X85597213Y-83698028D01*
X85431613Y-83577715D01*
X85431612Y-83577714D01*
X85431610Y-83577713D01*
X85374653Y-83548691D01*
X85249223Y-83484781D01*
X85054534Y-83421522D01*
X84879995Y-83393878D01*
X84852352Y-83389500D01*
X84647648Y-83389500D01*
X84609599Y-83395526D01*
X84445468Y-83421522D01*
X84436717Y-83424365D01*
X84431154Y-83426173D01*
X84361313Y-83428167D01*
X84305157Y-83395922D01*
X76547590Y-75638355D01*
X76547588Y-75638352D01*
X76428717Y-75519481D01*
X76428716Y-75519480D01*
X76341904Y-75469360D01*
X76341904Y-75469359D01*
X76341900Y-75469358D01*
X76291785Y-75440423D01*
X76139057Y-75399499D01*
X75980943Y-75399499D01*
X75973347Y-75399499D01*
X75973331Y-75399500D01*
X71310792Y-75399500D01*
X71243753Y-75379815D01*
X71210474Y-75348386D01*
X71115690Y-75217927D01*
X70985091Y-75087328D01*
X70951606Y-75026005D01*
X70956590Y-74956313D01*
X70985091Y-74911966D01*
X71115310Y-74781746D01*
X71115314Y-74781741D01*
X71226329Y-74628940D01*
X71312085Y-74460637D01*
X71370451Y-74281002D01*
X71375362Y-74250000D01*
X70375278Y-74250000D01*
X70419333Y-74173694D01*
X70450000Y-74059244D01*
X70450000Y-73940756D01*
X70419333Y-73826306D01*
X70375278Y-73750000D01*
X71375362Y-73750000D01*
X71370451Y-73718997D01*
X71312085Y-73539362D01*
X71226329Y-73371059D01*
X71161641Y-73282022D01*
X71138161Y-73216216D01*
X71153987Y-73148162D01*
X71187646Y-73109872D01*
X71257546Y-73057546D01*
X71343796Y-72942331D01*
X71394091Y-72807483D01*
X71400500Y-72747873D01*
X71400499Y-71252128D01*
X71394091Y-71192517D01*
X71384944Y-71167993D01*
X71343797Y-71057671D01*
X71343793Y-71057664D01*
X71257547Y-70942455D01*
X71257544Y-70942452D01*
X71142335Y-70856206D01*
X71142328Y-70856202D01*
X71007482Y-70805908D01*
X71007483Y-70805908D01*
X70947883Y-70799501D01*
X70947881Y-70799500D01*
X70947873Y-70799500D01*
X70947864Y-70799500D01*
X69052129Y-70799500D01*
X69052123Y-70799501D01*
X68992516Y-70805908D01*
X68857671Y-70856202D01*
X68857664Y-70856206D01*
X68742455Y-70942452D01*
X68742452Y-70942455D01*
X68656206Y-71057664D01*
X68656202Y-71057671D01*
X68605908Y-71192517D01*
X68599501Y-71252116D01*
X68599501Y-71252123D01*
X68599500Y-71252135D01*
X68000500Y-71252135D01*
X68000500Y-70077135D01*
X75324500Y-70077135D01*
X75324500Y-71872870D01*
X75324501Y-71872876D01*
X75330908Y-71932483D01*
X75381202Y-72067328D01*
X75381206Y-72067335D01*
X75467452Y-72182544D01*
X75467455Y-72182547D01*
X75582664Y-72268793D01*
X75582671Y-72268797D01*
X75717517Y-72319091D01*
X75717516Y-72319091D01*
X75724444Y-72319835D01*
X75777127Y-72325500D01*
X77572872Y-72325499D01*
X77632483Y-72319091D01*
X77767331Y-72268796D01*
X77882546Y-72182546D01*
X77968796Y-72067331D01*
X78017810Y-71935916D01*
X78059681Y-71879984D01*
X78125145Y-71855566D01*
X78193418Y-71870417D01*
X78221673Y-71891569D01*
X78335213Y-72005109D01*
X78507179Y-72130048D01*
X78507181Y-72130049D01*
X78507184Y-72130051D01*
X78696588Y-72226557D01*
X78898757Y-72292246D01*
X79108713Y-72325500D01*
X79108714Y-72325500D01*
X79321286Y-72325500D01*
X79321287Y-72325500D01*
X79531243Y-72292246D01*
X79733412Y-72226557D01*
X79922816Y-72130051D01*
X80009138Y-72067335D01*
X80094786Y-72005109D01*
X80094788Y-72005106D01*
X80094792Y-72005104D01*
X80245104Y-71854792D01*
X80245106Y-71854788D01*
X80245109Y-71854786D01*
X80370048Y-71682820D01*
X80370047Y-71682820D01*
X80370051Y-71682816D01*
X80374514Y-71674054D01*
X80422488Y-71623259D01*
X80490308Y-71606463D01*
X80556444Y-71628999D01*
X80595486Y-71674056D01*
X80599951Y-71682820D01*
X80724890Y-71854786D01*
X80875213Y-72005109D01*
X81047179Y-72130048D01*
X81047181Y-72130049D01*
X81047184Y-72130051D01*
X81236588Y-72226557D01*
X81438757Y-72292246D01*
X81648713Y-72325500D01*
X81648714Y-72325500D01*
X81861286Y-72325500D01*
X81861287Y-72325500D01*
X82071243Y-72292246D01*
X82273412Y-72226557D01*
X82462816Y-72130051D01*
X82549138Y-72067335D01*
X82634786Y-72005109D01*
X82634788Y-72005106D01*
X82634792Y-72005104D01*
X82785104Y-71854792D01*
X82785106Y-71854788D01*
X82785109Y-71854786D01*
X82910048Y-71682820D01*
X82910047Y-71682820D01*
X82910051Y-71682816D01*
X82914514Y-71674054D01*
X82962488Y-71623259D01*
X83030308Y-71606463D01*
X83096444Y-71628999D01*
X83135486Y-71674056D01*
X83139951Y-71682820D01*
X83264890Y-71854786D01*
X83415213Y-72005109D01*
X83587179Y-72130048D01*
X83587181Y-72130049D01*
X83587184Y-72130051D01*
X83776588Y-72226557D01*
X83978757Y-72292246D01*
X84188713Y-72325500D01*
X84188714Y-72325500D01*
X84401286Y-72325500D01*
X84401287Y-72325500D01*
X84611243Y-72292246D01*
X84813412Y-72226557D01*
X85002816Y-72130051D01*
X85089138Y-72067335D01*
X85174786Y-72005109D01*
X85174788Y-72005106D01*
X85174792Y-72005104D01*
X85325104Y-71854792D01*
X85325106Y-71854788D01*
X85325109Y-71854786D01*
X85450048Y-71682820D01*
X85450051Y-71682816D01*
X85454793Y-71673508D01*
X85502763Y-71622711D01*
X85570583Y-71605911D01*
X85636719Y-71628445D01*
X85675763Y-71673500D01*
X85680377Y-71682555D01*
X85805272Y-71854459D01*
X85805276Y-71854464D01*
X85955535Y-72004723D01*
X85955540Y-72004727D01*
X86127442Y-72129620D01*
X86316782Y-72226095D01*
X86518871Y-72291757D01*
X86585000Y-72302231D01*
X86585000Y-71408012D01*
X86642007Y-71440925D01*
X86769174Y-71475000D01*
X86900826Y-71475000D01*
X87027993Y-71440925D01*
X87085000Y-71408012D01*
X87085000Y-72302230D01*
X87151126Y-72291757D01*
X87151129Y-72291757D01*
X87353217Y-72226095D01*
X87542557Y-72129620D01*
X87714459Y-72004727D01*
X87714464Y-72004723D01*
X87864723Y-71854464D01*
X87864727Y-71854459D01*
X87989620Y-71682558D01*
X87994514Y-71672954D01*
X88042488Y-71622157D01*
X88110308Y-71605361D01*
X88176444Y-71627897D01*
X88215486Y-71672954D01*
X88220379Y-71682558D01*
X88345272Y-71854459D01*
X88345276Y-71854464D01*
X88495535Y-72004723D01*
X88495540Y-72004727D01*
X88667442Y-72129620D01*
X88856782Y-72226095D01*
X89058871Y-72291757D01*
X89125000Y-72302231D01*
X89125000Y-71408012D01*
X89182007Y-71440925D01*
X89309174Y-71475000D01*
X89440826Y-71475000D01*
X89567993Y-71440925D01*
X89625000Y-71408012D01*
X89625000Y-72302230D01*
X89691126Y-72291757D01*
X89691129Y-72291757D01*
X89893217Y-72226095D01*
X90082557Y-72129620D01*
X90254459Y-72004727D01*
X90254464Y-72004723D01*
X90404723Y-71854464D01*
X90404727Y-71854459D01*
X90529620Y-71682557D01*
X90626095Y-71493217D01*
X90691757Y-71291129D01*
X90691757Y-71291126D01*
X90702231Y-71225000D01*
X89808012Y-71225000D01*
X89840925Y-71167993D01*
X89875000Y-71040826D01*
X89875000Y-70909174D01*
X89840925Y-70782007D01*
X89808012Y-70725000D01*
X90702231Y-70725000D01*
X90691757Y-70658873D01*
X90691757Y-70658870D01*
X90626095Y-70456782D01*
X90529620Y-70267442D01*
X90404727Y-70095540D01*
X90404723Y-70095535D01*
X90254464Y-69945276D01*
X90254459Y-69945272D01*
X90082557Y-69820379D01*
X89893215Y-69723903D01*
X89691124Y-69658241D01*
X89625000Y-69647768D01*
X89625000Y-70541988D01*
X89567993Y-70509075D01*
X89440826Y-70475000D01*
X89309174Y-70475000D01*
X89182007Y-70509075D01*
X89125000Y-70541988D01*
X89125000Y-69647768D01*
X89124999Y-69647768D01*
X89058875Y-69658241D01*
X88856784Y-69723903D01*
X88667442Y-69820379D01*
X88495540Y-69945272D01*
X88495535Y-69945276D01*
X88345276Y-70095535D01*
X88345272Y-70095540D01*
X88220377Y-70267444D01*
X88215484Y-70277048D01*
X88167509Y-70327844D01*
X88099688Y-70344638D01*
X88033553Y-70322100D01*
X87994516Y-70277048D01*
X87989622Y-70267444D01*
X87864727Y-70095540D01*
X87864723Y-70095535D01*
X87714464Y-69945276D01*
X87714459Y-69945272D01*
X87542557Y-69820379D01*
X87353215Y-69723903D01*
X87151124Y-69658241D01*
X87085000Y-69647768D01*
X87085000Y-70541988D01*
X87027993Y-70509075D01*
X86900826Y-70475000D01*
X86769174Y-70475000D01*
X86642007Y-70509075D01*
X86585000Y-70541988D01*
X86585000Y-69647768D01*
X86584999Y-69647768D01*
X86518875Y-69658241D01*
X86316784Y-69723903D01*
X86127442Y-69820379D01*
X85955540Y-69945272D01*
X85955535Y-69945276D01*
X85805276Y-70095535D01*
X85805272Y-70095540D01*
X85680378Y-70267443D01*
X85675762Y-70276502D01*
X85627784Y-70327295D01*
X85559963Y-70344087D01*
X85493829Y-70321546D01*
X85454794Y-70276493D01*
X85450051Y-70267184D01*
X85450049Y-70267181D01*
X85450048Y-70267179D01*
X85325109Y-70095213D01*
X85174786Y-69944890D01*
X85002820Y-69819951D01*
X84813414Y-69723444D01*
X84813413Y-69723443D01*
X84813412Y-69723443D01*
X84611243Y-69657754D01*
X84611241Y-69657753D01*
X84611240Y-69657753D01*
X84449957Y-69632208D01*
X84401287Y-69624500D01*
X84188713Y-69624500D01*
X84140042Y-69632208D01*
X83978760Y-69657753D01*
X83776585Y-69723444D01*
X83587179Y-69819951D01*
X83415213Y-69944890D01*
X83264890Y-70095213D01*
X83139949Y-70267182D01*
X83135484Y-70275946D01*
X83087509Y-70326742D01*
X83019688Y-70343536D01*
X82953553Y-70320998D01*
X82914516Y-70275946D01*
X82910050Y-70267182D01*
X82785109Y-70095213D01*
X82634786Y-69944890D01*
X82462820Y-69819951D01*
X82273414Y-69723444D01*
X82273413Y-69723443D01*
X82273412Y-69723443D01*
X82071243Y-69657754D01*
X82071241Y-69657753D01*
X82071240Y-69657753D01*
X81909957Y-69632208D01*
X81861287Y-69624500D01*
X81825590Y-69624500D01*
X81758551Y-69604815D01*
X81712796Y-69552011D01*
X81702852Y-69482853D01*
X81731877Y-69419297D01*
X81782257Y-69384318D01*
X81892086Y-69343354D01*
X81892093Y-69343350D01*
X82007187Y-69257190D01*
X82007190Y-69257187D01*
X82093350Y-69142093D01*
X82093353Y-69142088D01*
X82112345Y-69091166D01*
X82154215Y-69035232D01*
X82219679Y-69010813D01*
X82287952Y-69025663D01*
X82316209Y-69046816D01*
X82337636Y-69068243D01*
X82337641Y-69068247D01*
X82493192Y-69181260D01*
X82515978Y-69197815D01*
X82632501Y-69257187D01*
X82712393Y-69297895D01*
X82712396Y-69297896D01*
X82817221Y-69331955D01*
X82922049Y-69366015D01*
X83139778Y-69400500D01*
X83139779Y-69400500D01*
X83360221Y-69400500D01*
X83360222Y-69400500D01*
X83577951Y-69366015D01*
X83787606Y-69297895D01*
X83984022Y-69197815D01*
X84162365Y-69068242D01*
X84318242Y-68912365D01*
X84399682Y-68800270D01*
X84455011Y-68757606D01*
X84524624Y-68751627D01*
X84586420Y-68784232D01*
X84600313Y-68800265D01*
X84681753Y-68912358D01*
X84681758Y-68912365D01*
X84837636Y-69068243D01*
X84837641Y-69068247D01*
X84993192Y-69181260D01*
X85015978Y-69197815D01*
X85132501Y-69257187D01*
X85212393Y-69297895D01*
X85212396Y-69297896D01*
X85317221Y-69331955D01*
X85422049Y-69366015D01*
X85639778Y-69400500D01*
X85639779Y-69400500D01*
X85860221Y-69400500D01*
X85860222Y-69400500D01*
X86077951Y-69366015D01*
X86287606Y-69297895D01*
X86484022Y-69197815D01*
X86662365Y-69068242D01*
X86818242Y-68912365D01*
X86947815Y-68734022D01*
X87047895Y-68537606D01*
X87116015Y-68327951D01*
X87150500Y-68110222D01*
X87150500Y-67889778D01*
X87116015Y-67672049D01*
X87047895Y-67462394D01*
X87047895Y-67462393D01*
X87013237Y-67394375D01*
X86947815Y-67265978D01*
X86899681Y-67199727D01*
X86818247Y-67087641D01*
X86818243Y-67087636D01*
X86662363Y-66931756D01*
X86662358Y-66931752D01*
X86484025Y-66802187D01*
X86484024Y-66802186D01*
X86484022Y-66802185D01*
X86421096Y-66770122D01*
X86287606Y-66702104D01*
X86287603Y-66702103D01*
X86077952Y-66633985D01*
X85969086Y-66616742D01*
X85860222Y-66599500D01*
X85639778Y-66599500D01*
X85567201Y-66610995D01*
X85422047Y-66633985D01*
X85212396Y-66702103D01*
X85212393Y-66702104D01*
X85015974Y-66802187D01*
X84837641Y-66931752D01*
X84837636Y-66931756D01*
X84681756Y-67087636D01*
X84681752Y-67087641D01*
X84600318Y-67199727D01*
X84544989Y-67242393D01*
X84475375Y-67248372D01*
X84413580Y-67215767D01*
X84399682Y-67199727D01*
X84318247Y-67087641D01*
X84318243Y-67087636D01*
X84162363Y-66931756D01*
X84162358Y-66931752D01*
X83984025Y-66802187D01*
X83984024Y-66802186D01*
X83984022Y-66802185D01*
X83921096Y-66770122D01*
X83787606Y-66702104D01*
X83787603Y-66702103D01*
X83577952Y-66633985D01*
X83469086Y-66616742D01*
X83360222Y-66599500D01*
X83139778Y-66599500D01*
X83067201Y-66610995D01*
X82922047Y-66633985D01*
X82712396Y-66702103D01*
X82712393Y-66702104D01*
X82515974Y-66802187D01*
X82337641Y-66931752D01*
X82337635Y-66931757D01*
X82316207Y-66953185D01*
X82254884Y-66986669D01*
X82185192Y-66981683D01*
X82129259Y-66939810D01*
X82112346Y-66908834D01*
X82093355Y-66857915D01*
X82093350Y-66857906D01*
X82007190Y-66742812D01*
X82007187Y-66742809D01*
X81892093Y-66656649D01*
X81892086Y-66656645D01*
X81757379Y-66606403D01*
X81757372Y-66606401D01*
X81697844Y-66600000D01*
X81000000Y-66600000D01*
X81000000Y-67566988D01*
X80942993Y-67534075D01*
X80815826Y-67500000D01*
X80684174Y-67500000D01*
X80557007Y-67534075D01*
X80500000Y-67566988D01*
X80500000Y-66600000D01*
X79802155Y-66600000D01*
X79742627Y-66606401D01*
X79742620Y-66606403D01*
X79607913Y-66656645D01*
X79607906Y-66656649D01*
X79492812Y-66742809D01*
X79492809Y-66742812D01*
X79406649Y-66857906D01*
X79406645Y-66857913D01*
X79356403Y-66992620D01*
X79356401Y-66992627D01*
X79350000Y-67052155D01*
X79350000Y-67750000D01*
X80316988Y-67750000D01*
X80284075Y-67807007D01*
X80250000Y-67934174D01*
X80250000Y-68065826D01*
X80284075Y-68192993D01*
X80316988Y-68250000D01*
X79350000Y-68250000D01*
X79350000Y-68947844D01*
X79356401Y-69007372D01*
X79356403Y-69007379D01*
X79406645Y-69142086D01*
X79406649Y-69142093D01*
X79492809Y-69257187D01*
X79492812Y-69257190D01*
X79607906Y-69343350D01*
X79607913Y-69343354D01*
X79742620Y-69393596D01*
X79742627Y-69393598D01*
X79802155Y-69399999D01*
X79802172Y-69400000D01*
X80500000Y-69400000D01*
X80500000Y-68433012D01*
X80557007Y-68465925D01*
X80684174Y-68500000D01*
X80815826Y-68500000D01*
X80942993Y-68465925D01*
X81000000Y-68433012D01*
X81000000Y-69400000D01*
X81490584Y-69400000D01*
X81557623Y-69419685D01*
X81603378Y-69472489D01*
X81613322Y-69541647D01*
X81584297Y-69605203D01*
X81525519Y-69642977D01*
X81509982Y-69646473D01*
X81438760Y-69657753D01*
X81236585Y-69723444D01*
X81047179Y-69819951D01*
X80875213Y-69944890D01*
X80724890Y-70095213D01*
X80599949Y-70267182D01*
X80595484Y-70275946D01*
X80547509Y-70326742D01*
X80479688Y-70343536D01*
X80413553Y-70320998D01*
X80374516Y-70275946D01*
X80370050Y-70267182D01*
X80245109Y-70095213D01*
X80094786Y-69944890D01*
X79922820Y-69819951D01*
X79733414Y-69723444D01*
X79733413Y-69723443D01*
X79733412Y-69723443D01*
X79531243Y-69657754D01*
X79531241Y-69657753D01*
X79531240Y-69657753D01*
X79369957Y-69632208D01*
X79321287Y-69624500D01*
X79108713Y-69624500D01*
X79060042Y-69632208D01*
X78898760Y-69657753D01*
X78696585Y-69723444D01*
X78507179Y-69819951D01*
X78335215Y-69944889D01*
X78221673Y-70058431D01*
X78160350Y-70091915D01*
X78090658Y-70086931D01*
X78034725Y-70045059D01*
X78017810Y-70014082D01*
X77968797Y-69882671D01*
X77968793Y-69882664D01*
X77882547Y-69767455D01*
X77882544Y-69767452D01*
X77767335Y-69681206D01*
X77767328Y-69681202D01*
X77632482Y-69630908D01*
X77632483Y-69630908D01*
X77572883Y-69624501D01*
X77572881Y-69624500D01*
X77572873Y-69624500D01*
X77572864Y-69624500D01*
X75777129Y-69624500D01*
X75777123Y-69624501D01*
X75717516Y-69630908D01*
X75582671Y-69681202D01*
X75582664Y-69681206D01*
X75467455Y-69767452D01*
X75467452Y-69767455D01*
X75381206Y-69882664D01*
X75381202Y-69882671D01*
X75330908Y-70017517D01*
X75324501Y-70077116D01*
X75324500Y-70077135D01*
X68000500Y-70077135D01*
X68000500Y-66207648D01*
X69449500Y-66207648D01*
X69449500Y-66412351D01*
X69481522Y-66614534D01*
X69544781Y-66809223D01*
X69595536Y-66908834D01*
X69635195Y-66986669D01*
X69637715Y-66991613D01*
X69758028Y-67157213D01*
X69902786Y-67301971D01*
X69994213Y-67368395D01*
X70068390Y-67422287D01*
X70184607Y-67481503D01*
X70250776Y-67515218D01*
X70250778Y-67515218D01*
X70250781Y-67515220D01*
X70308811Y-67534075D01*
X70445465Y-67578477D01*
X70546557Y-67594488D01*
X70647648Y-67610500D01*
X70647649Y-67610500D01*
X70852351Y-67610500D01*
X70852352Y-67610500D01*
X71054534Y-67578477D01*
X71249219Y-67515220D01*
X71431610Y-67422287D01*
X71524590Y-67354732D01*
X71597213Y-67301971D01*
X71597215Y-67301968D01*
X71597219Y-67301966D01*
X71741966Y-67157219D01*
X71741968Y-67157215D01*
X71741971Y-67157213D01*
X71862285Y-66991613D01*
X71864805Y-66986669D01*
X71955220Y-66809219D01*
X72018477Y-66614534D01*
X72050500Y-66412352D01*
X72050500Y-66207648D01*
X72018477Y-66005466D01*
X71955220Y-65810781D01*
X71955218Y-65810778D01*
X71955218Y-65810776D01*
X71921503Y-65744607D01*
X71862287Y-65628390D01*
X71854556Y-65617749D01*
X71741971Y-65462786D01*
X71597213Y-65318028D01*
X71431613Y-65197715D01*
X71431612Y-65197714D01*
X71431610Y-65197713D01*
X71374653Y-65168691D01*
X71249223Y-65104781D01*
X71054534Y-65041522D01*
X70879995Y-65013878D01*
X70852352Y-65009500D01*
X70647648Y-65009500D01*
X70623329Y-65013351D01*
X70445465Y-65041522D01*
X70250776Y-65104781D01*
X70068386Y-65197715D01*
X69902786Y-65318028D01*
X69758028Y-65462786D01*
X69637715Y-65628386D01*
X69544781Y-65810776D01*
X69481522Y-66005465D01*
X69449500Y-66207648D01*
X68000500Y-66207648D01*
X68000500Y-60118048D01*
X76589500Y-60118048D01*
X76589500Y-60881951D01*
X76616013Y-61083333D01*
X76621334Y-61123744D01*
X76621335Y-61123746D01*
X76684456Y-61359320D01*
X76684459Y-61359330D01*
X76777786Y-61584640D01*
X76777791Y-61584651D01*
X76899727Y-61795848D01*
X76899738Y-61795864D01*
X77048199Y-61989343D01*
X77048205Y-61989350D01*
X77220649Y-62161794D01*
X77220655Y-62161799D01*
X77414144Y-62310268D01*
X77414151Y-62310272D01*
X77625348Y-62432208D01*
X77625353Y-62432210D01*
X77625356Y-62432212D01*
X77850679Y-62525544D01*
X78086256Y-62588666D01*
X78328056Y-62620500D01*
X78328063Y-62620500D01*
X78571937Y-62620500D01*
X78571944Y-62620500D01*
X78813744Y-62588666D01*
X79049321Y-62525544D01*
X79274644Y-62432212D01*
X79485856Y-62310268D01*
X79679345Y-62161799D01*
X79851799Y-61989345D01*
X80000268Y-61795856D01*
X80122212Y-61584644D01*
X80215544Y-61359321D01*
X80278666Y-61123744D01*
X80310500Y-60881944D01*
X80310500Y-60118056D01*
X80310499Y-60118048D01*
X86189500Y-60118048D01*
X86189500Y-60881951D01*
X86216013Y-61083333D01*
X86221334Y-61123744D01*
X86221335Y-61123746D01*
X86284456Y-61359320D01*
X86284459Y-61359330D01*
X86377786Y-61584640D01*
X86377791Y-61584651D01*
X86499727Y-61795848D01*
X86499738Y-61795864D01*
X86648199Y-61989343D01*
X86648205Y-61989350D01*
X86820649Y-62161794D01*
X86820655Y-62161799D01*
X87014144Y-62310268D01*
X87014151Y-62310272D01*
X87225348Y-62432208D01*
X87225353Y-62432210D01*
X87225356Y-62432212D01*
X87450679Y-62525544D01*
X87686256Y-62588666D01*
X87928056Y-62620500D01*
X87928063Y-62620500D01*
X88171937Y-62620500D01*
X88171944Y-62620500D01*
X88413744Y-62588666D01*
X88649321Y-62525544D01*
X88874644Y-62432212D01*
X89085856Y-62310268D01*
X89279345Y-62161799D01*
X89451799Y-61989345D01*
X89600268Y-61795856D01*
X89722212Y-61584644D01*
X89815544Y-61359321D01*
X89878666Y-61123744D01*
X89910500Y-60881944D01*
X89910500Y-60118056D01*
X89878666Y-59876256D01*
X89815544Y-59640679D01*
X89722212Y-59415356D01*
X89722210Y-59415353D01*
X89722208Y-59415348D01*
X89600272Y-59204151D01*
X89600268Y-59204144D01*
X89451799Y-59010655D01*
X89451794Y-59010649D01*
X89279350Y-58838205D01*
X89279343Y-58838199D01*
X89085864Y-58689738D01*
X89085862Y-58689736D01*
X89085856Y-58689732D01*
X89085851Y-58689729D01*
X89085848Y-58689727D01*
X88874651Y-58567791D01*
X88874640Y-58567786D01*
X88649330Y-58474459D01*
X88649323Y-58474457D01*
X88649321Y-58474456D01*
X88413744Y-58411334D01*
X88373333Y-58406013D01*
X88171951Y-58379500D01*
X88171944Y-58379500D01*
X87928056Y-58379500D01*
X87928048Y-58379500D01*
X87697896Y-58409801D01*
X87686256Y-58411334D01*
X87450679Y-58474456D01*
X87450669Y-58474459D01*
X87225359Y-58567786D01*
X87225348Y-58567791D01*
X87014151Y-58689727D01*
X87014135Y-58689738D01*
X86820656Y-58838199D01*
X86820649Y-58838205D01*
X86648205Y-59010649D01*
X86648199Y-59010656D01*
X86499738Y-59204135D01*
X86499727Y-59204151D01*
X86377791Y-59415348D01*
X86377786Y-59415359D01*
X86284459Y-59640669D01*
X86284456Y-59640679D01*
X86221335Y-59876253D01*
X86221333Y-59876264D01*
X86189500Y-60118048D01*
X80310499Y-60118048D01*
X80278666Y-59876256D01*
X80215544Y-59640679D01*
X80122212Y-59415356D01*
X80122210Y-59415353D01*
X80122208Y-59415348D01*
X80000272Y-59204151D01*
X80000268Y-59204144D01*
X79851799Y-59010655D01*
X79851794Y-59010649D01*
X79679350Y-58838205D01*
X79679343Y-58838199D01*
X79485864Y-58689738D01*
X79485862Y-58689736D01*
X79485856Y-58689732D01*
X79485851Y-58689729D01*
X79485848Y-58689727D01*
X79274651Y-58567791D01*
X79274640Y-58567786D01*
X79049330Y-58474459D01*
X79049323Y-58474457D01*
X79049321Y-58474456D01*
X78813744Y-58411334D01*
X78773333Y-58406013D01*
X78571951Y-58379500D01*
X78571944Y-58379500D01*
X78328056Y-58379500D01*
X78328048Y-58379500D01*
X78097896Y-58409801D01*
X78086256Y-58411334D01*
X77850679Y-58474456D01*
X77850669Y-58474459D01*
X77625359Y-58567786D01*
X77625348Y-58567791D01*
X77414151Y-58689727D01*
X77414135Y-58689738D01*
X77220656Y-58838199D01*
X77220649Y-58838205D01*
X77048205Y-59010649D01*
X77048199Y-59010656D01*
X76899738Y-59204135D01*
X76899727Y-59204151D01*
X76777791Y-59415348D01*
X76777786Y-59415359D01*
X76684459Y-59640669D01*
X76684456Y-59640679D01*
X76621335Y-59876253D01*
X76621333Y-59876264D01*
X76589500Y-60118048D01*
X68000500Y-60118048D01*
X68000500Y-58587648D01*
X69449500Y-58587648D01*
X69449500Y-58792351D01*
X69481522Y-58994534D01*
X69544781Y-59189223D01*
X69637715Y-59371613D01*
X69758028Y-59537213D01*
X69902786Y-59681971D01*
X70057749Y-59794556D01*
X70068390Y-59802287D01*
X70184607Y-59861503D01*
X70250776Y-59895218D01*
X70250778Y-59895218D01*
X70250781Y-59895220D01*
X70355137Y-59929127D01*
X70445465Y-59958477D01*
X70546557Y-59974488D01*
X70647648Y-59990500D01*
X70647649Y-59990500D01*
X70852351Y-59990500D01*
X70852352Y-59990500D01*
X71054534Y-59958477D01*
X71249219Y-59895220D01*
X71431610Y-59802287D01*
X71524590Y-59734732D01*
X71597213Y-59681971D01*
X71597215Y-59681968D01*
X71597219Y-59681966D01*
X71741966Y-59537219D01*
X71741968Y-59537215D01*
X71741971Y-59537213D01*
X71794732Y-59464590D01*
X71862287Y-59371610D01*
X71955220Y-59189219D01*
X72018477Y-58994534D01*
X72050500Y-58792352D01*
X72050500Y-58587648D01*
X72018477Y-58385466D01*
X71955220Y-58190781D01*
X71955218Y-58190778D01*
X71955218Y-58190776D01*
X71921503Y-58124607D01*
X71862287Y-58008390D01*
X71854556Y-57997749D01*
X71741971Y-57842786D01*
X71597213Y-57698028D01*
X71431613Y-57577715D01*
X71431612Y-57577714D01*
X71431610Y-57577713D01*
X71374653Y-57548691D01*
X71249223Y-57484781D01*
X71054534Y-57421522D01*
X70879995Y-57393878D01*
X70852352Y-57389500D01*
X70647648Y-57389500D01*
X70623329Y-57393351D01*
X70445465Y-57421522D01*
X70250776Y-57484781D01*
X70068386Y-57577715D01*
X69902786Y-57698028D01*
X69758028Y-57842786D01*
X69637715Y-58008386D01*
X69544781Y-58190776D01*
X69481522Y-58385465D01*
X69449500Y-58587648D01*
X68000500Y-58587648D01*
X68000500Y-49897648D01*
X78139500Y-49897648D01*
X78139500Y-50102351D01*
X78171522Y-50304534D01*
X78234781Y-50499223D01*
X78327715Y-50681613D01*
X78448028Y-50847213D01*
X78592786Y-50991971D01*
X78747749Y-51104556D01*
X78758390Y-51112287D01*
X78874607Y-51171503D01*
X78940776Y-51205218D01*
X78940778Y-51205218D01*
X78940781Y-51205220D01*
X79045137Y-51239127D01*
X79135465Y-51268477D01*
X79236557Y-51284488D01*
X79337648Y-51300500D01*
X79337649Y-51300500D01*
X79542351Y-51300500D01*
X79542352Y-51300500D01*
X79744534Y-51268477D01*
X79939219Y-51205220D01*
X80121610Y-51112287D01*
X80214590Y-51044732D01*
X80287213Y-50991971D01*
X80287215Y-50991968D01*
X80287219Y-50991966D01*
X80431966Y-50847219D01*
X80431968Y-50847215D01*
X80431971Y-50847213D01*
X80484732Y-50774590D01*
X80552287Y-50681610D01*
X80645220Y-50499219D01*
X80708477Y-50304534D01*
X80740500Y-50102352D01*
X80740500Y-49897648D01*
X85759500Y-49897648D01*
X85759500Y-50102351D01*
X85791522Y-50304534D01*
X85854781Y-50499223D01*
X85947715Y-50681613D01*
X86068028Y-50847213D01*
X86212786Y-50991971D01*
X86367749Y-51104556D01*
X86378390Y-51112287D01*
X86494607Y-51171503D01*
X86560776Y-51205218D01*
X86560778Y-51205218D01*
X86560781Y-51205220D01*
X86665137Y-51239127D01*
X86755465Y-51268477D01*
X86856557Y-51284488D01*
X86957648Y-51300500D01*
X86957649Y-51300500D01*
X87162351Y-51300500D01*
X87162352Y-51300500D01*
X87364534Y-51268477D01*
X87559219Y-51205220D01*
X87741610Y-51112287D01*
X87834590Y-51044732D01*
X87907213Y-50991971D01*
X87907215Y-50991968D01*
X87907219Y-50991966D01*
X88051966Y-50847219D01*
X88051968Y-50847215D01*
X88051971Y-50847213D01*
X88104732Y-50774590D01*
X88172287Y-50681610D01*
X88265220Y-50499219D01*
X88328477Y-50304534D01*
X88360500Y-50102352D01*
X88360500Y-49897648D01*
X88328477Y-49695466D01*
X88265220Y-49500781D01*
X88265218Y-49500778D01*
X88265218Y-49500776D01*
X88231503Y-49434607D01*
X88172287Y-49318390D01*
X88164556Y-49307749D01*
X88051971Y-49152786D01*
X87907213Y-49008028D01*
X87741613Y-48887715D01*
X87741612Y-48887714D01*
X87741610Y-48887713D01*
X87684653Y-48858691D01*
X87559223Y-48794781D01*
X87364534Y-48731522D01*
X87189995Y-48703878D01*
X87162352Y-48699500D01*
X86957648Y-48699500D01*
X86933329Y-48703351D01*
X86755465Y-48731522D01*
X86560776Y-48794781D01*
X86378386Y-48887715D01*
X86212786Y-49008028D01*
X86068028Y-49152786D01*
X85947715Y-49318386D01*
X85854781Y-49500776D01*
X85791522Y-49695465D01*
X85759500Y-49897648D01*
X80740500Y-49897648D01*
X80708477Y-49695466D01*
X80645220Y-49500781D01*
X80645218Y-49500778D01*
X80645218Y-49500776D01*
X80611503Y-49434607D01*
X80552287Y-49318390D01*
X80544556Y-49307749D01*
X80431971Y-49152786D01*
X80287213Y-49008028D01*
X80121613Y-48887715D01*
X80121612Y-48887714D01*
X80121610Y-48887713D01*
X80064653Y-48858691D01*
X79939223Y-48794781D01*
X79744534Y-48731522D01*
X79569995Y-48703878D01*
X79542352Y-48699500D01*
X79337648Y-48699500D01*
X79313329Y-48703351D01*
X79135465Y-48731522D01*
X78940776Y-48794781D01*
X78758386Y-48887715D01*
X78592786Y-49008028D01*
X78448028Y-49152786D01*
X78327715Y-49318386D01*
X78234781Y-49500776D01*
X78171522Y-49695465D01*
X78139500Y-49897648D01*
X68000500Y-49897648D01*
X68000500Y-43124500D01*
X68020185Y-43057461D01*
X68072989Y-43011706D01*
X68124500Y-43000500D01*
X98375500Y-43000500D01*
X98442539Y-43020185D01*
G37*
%TD.AperFunction*%
%TD*%
M02*
