M48
; DRILL file {KiCad 9.0.0} date 2025-04-19T14:08:37+0200
; FORMAT={-:-/ absolute / metric / decimal}
; #@! TF.CreationDate,2025-04-19T14:08:37+02:00
; #@! TF.GenerationSoftware,Kicad,Pcbnew,9.0.0
; #@! TF.FileFunction,Plated,1,2,PTH
FMAT,2
METRIC
; #@! TA.AperFunction,Plated,PTH,ComponentDrill
T1C0.800
; #@! TA.AperFunction,Plated,PTH,ComponentDrill
T2C0.900
; #@! TA.AperFunction,Plated,PTH,ComponentDrill
T3C1.000
; #@! TA.AperFunction,Plated,PTH,ComponentDrill
T4C1.100
; #@! TA.AperFunction,Plated,PTH,ComponentDrill
T5C1.600
%
G90
G05
T1
X70.75Y-58.69
X70.75Y-66.31
X70.75Y-118.69
X70.75Y-126.31
X70.75Y-178.69
X70.75Y-186.31
X74.5Y-178.69
X74.5Y-186.31
X79.44Y-50.0
X79.44Y-110.5
X79.44Y-170.75
X84.75Y-84.69
X84.75Y-92.31
X84.75Y-144.69
X84.75Y-152.31
X87.06Y-50.0
X87.06Y-110.5
X87.06Y-170.75
T2
X70.0Y-72.0
X70.0Y-74.0
X70.0Y-76.0
X70.0Y-132.25
X70.0Y-134.25
X70.0Y-136.25
X70.0Y-192.5
X70.0Y-194.5
X70.0Y-196.5
T3
X76.675Y-70.975
X76.675Y-131.225
X76.675Y-194.225
X79.215Y-70.975
X79.215Y-131.225
X79.215Y-194.225
X80.75Y-68.0
X80.75Y-128.25
X80.75Y-188.5
X81.755Y-70.975
X81.755Y-131.225
X81.755Y-194.225
X83.25Y-68.0
X83.25Y-128.25
X83.25Y-188.5
X84.295Y-70.975
X84.295Y-131.225
X84.295Y-194.225
X85.75Y-68.0
X85.75Y-128.25
X85.75Y-188.5
X86.835Y-70.975
X86.835Y-131.225
X86.835Y-194.225
X89.375Y-70.975
X89.375Y-131.225
X89.375Y-194.225
X95.0Y-140.0
T5
X72.625Y-83.55
X72.625Y-88.25
X72.625Y-92.95
X72.625Y-143.8
X72.625Y-148.5
X72.625Y-153.2
X72.625Y-204.05
X72.625Y-208.75
X72.625Y-213.45
X77.375Y-83.55
X77.375Y-88.25
X77.375Y-92.95
X77.375Y-143.8
X77.375Y-148.5
X77.375Y-153.2
X77.375Y-204.05
X77.375Y-208.75
X77.375Y-213.45
T4
X78.45Y-60.85G85X78.45Y-60.15
G05
X78.45Y-121.1G85X78.45Y-120.4
G05
X78.45Y-181.35G85X78.45Y-180.65
G05
X88.05Y-60.85G85X88.05Y-60.15
G05
X88.05Y-121.1G85X88.05Y-120.4
G05
X88.05Y-181.35G85X88.05Y-180.65
G05
M30
