%TF.GenerationSoftware,KiCad,Pcbnew,9.0.0*%
%TF.CreationDate,2025-03-16T11:10:15+01:00*%
%TF.ProjectId,DMH_Tripple_VCA_PCB_2,444d485f-5472-4697-9070-6c655f564341,1*%
%TF.SameCoordinates,Original*%
%TF.FileFunction,Drillmap*%
%TF.FilePolarity,Positive*%
%FSLAX45Y45*%
G04 Gerber Fmt 4.5, Leading zero omitted, Abs format (unit mm)*
G04 Created by KiCad (PCBNEW 9.0.0) date 2025-03-16 11:10:15*
%MOMM*%
%LPD*%
G01*
G04 APERTURE LIST*
%ADD10C,0.050000*%
%ADD11C,0.200000*%
%ADD12C,0.100000*%
%ADD13C,0.110000*%
%ADD14C,0.160000*%
G04 APERTURE END LIST*
D10*
X6750000Y-4250000D02*
X6750000Y-21750000D01*
X9900000Y-19950000D02*
X8250000Y-19950000D01*
X8250000Y-21750000D02*
X8250000Y-19950000D01*
X6750000Y-21750000D02*
X8250000Y-21750000D01*
X9900000Y-4250000D02*
X9900000Y-19950000D01*
X6750000Y-4250000D02*
X9900000Y-4250000D01*
D11*
D12*
X7035000Y-5829000D02*
X7115000Y-5909000D01*
X7115000Y-5829000D02*
X7035000Y-5909000D01*
X7035000Y-6591000D02*
X7115000Y-6671000D01*
X7115000Y-6591000D02*
X7035000Y-6671000D01*
X7035000Y-11829000D02*
X7115000Y-11909000D01*
X7115000Y-11829000D02*
X7035000Y-11909000D01*
X7035000Y-12591000D02*
X7115000Y-12671000D01*
X7115000Y-12591000D02*
X7035000Y-12671000D01*
X7035000Y-17829000D02*
X7115000Y-17909000D01*
X7115000Y-17829000D02*
X7035000Y-17909000D01*
X7035000Y-18591000D02*
X7115000Y-18671000D01*
X7115000Y-18591000D02*
X7035000Y-18671000D01*
X7410000Y-17829000D02*
X7490000Y-17909000D01*
X7490000Y-17829000D02*
X7410000Y-17909000D01*
X7410000Y-18591000D02*
X7490000Y-18671000D01*
X7490000Y-18591000D02*
X7410000Y-18671000D01*
X7904000Y-4960000D02*
X7984000Y-5040000D01*
X7984000Y-4960000D02*
X7904000Y-5040000D01*
X7904000Y-11010000D02*
X7984000Y-11090000D01*
X7984000Y-11010000D02*
X7904000Y-11090000D01*
X7904000Y-17035000D02*
X7984000Y-17115000D01*
X7984000Y-17035000D02*
X7904000Y-17115000D01*
X8435000Y-8429000D02*
X8515000Y-8509000D01*
X8515000Y-8429000D02*
X8435000Y-8509000D01*
X8435000Y-9191000D02*
X8515000Y-9271000D01*
X8515000Y-9191000D02*
X8435000Y-9271000D01*
X8435000Y-14429000D02*
X8515000Y-14509000D01*
X8515000Y-14429000D02*
X8435000Y-14509000D01*
X8435000Y-15191000D02*
X8515000Y-15271000D01*
X8515000Y-15191000D02*
X8435000Y-15271000D01*
X8666000Y-4960000D02*
X8746000Y-5040000D01*
X8746000Y-4960000D02*
X8666000Y-5040000D01*
X8666000Y-11010000D02*
X8746000Y-11090000D01*
X8746000Y-11010000D02*
X8666000Y-11090000D01*
X8666000Y-17035000D02*
X8746000Y-17115000D01*
X8746000Y-17035000D02*
X8666000Y-17115000D01*
X7045000Y-7200000D02*
G75*
G02*
X6955000Y-7200000I-45000J0D01*
G01*
X6955000Y-7200000D02*
G75*
G02*
X7045000Y-7200000I45000J0D01*
G01*
X7045000Y-7400000D02*
G75*
G02*
X6955000Y-7400000I-45000J0D01*
G01*
X6955000Y-7400000D02*
G75*
G02*
X7045000Y-7400000I45000J0D01*
G01*
X7045000Y-7600000D02*
G75*
G02*
X6955000Y-7600000I-45000J0D01*
G01*
X6955000Y-7600000D02*
G75*
G02*
X7045000Y-7600000I45000J0D01*
G01*
X7045000Y-13225000D02*
G75*
G02*
X6955000Y-13225000I-45000J0D01*
G01*
X6955000Y-13225000D02*
G75*
G02*
X7045000Y-13225000I45000J0D01*
G01*
X7045000Y-13425000D02*
G75*
G02*
X6955000Y-13425000I-45000J0D01*
G01*
X6955000Y-13425000D02*
G75*
G02*
X7045000Y-13425000I45000J0D01*
G01*
X7045000Y-13625000D02*
G75*
G02*
X6955000Y-13625000I-45000J0D01*
G01*
X6955000Y-13625000D02*
G75*
G02*
X7045000Y-13625000I45000J0D01*
G01*
X7045000Y-19250000D02*
G75*
G02*
X6955000Y-19250000I-45000J0D01*
G01*
X6955000Y-19250000D02*
G75*
G02*
X7045000Y-19250000I45000J0D01*
G01*
X7045000Y-19450000D02*
G75*
G02*
X6955000Y-19450000I-45000J0D01*
G01*
X6955000Y-19450000D02*
G75*
G02*
X7045000Y-19450000I45000J0D01*
G01*
X7045000Y-19650000D02*
G75*
G02*
X6955000Y-19650000I-45000J0D01*
G01*
X6955000Y-19650000D02*
G75*
G02*
X7045000Y-19650000I45000J0D01*
G01*
X7667500Y-7047500D02*
X7667500Y-7147500D01*
X7617500Y-7097500D02*
X7717500Y-7097500D01*
X7667500Y-13072500D02*
X7667500Y-13172500D01*
X7617500Y-13122500D02*
X7717500Y-13122500D01*
X7667500Y-19372500D02*
X7667500Y-19472500D01*
X7617500Y-19422500D02*
X7717500Y-19422500D01*
X7921500Y-7047500D02*
X7921500Y-7147500D01*
X7871500Y-7097500D02*
X7971500Y-7097500D01*
X7921500Y-13072500D02*
X7921500Y-13172500D01*
X7871500Y-13122500D02*
X7971500Y-13122500D01*
X7921500Y-19372500D02*
X7921500Y-19472500D01*
X7871500Y-19422500D02*
X7971500Y-19422500D01*
X8075000Y-6750000D02*
X8075000Y-6850000D01*
X8025000Y-6800000D02*
X8125000Y-6800000D01*
X8075000Y-12775000D02*
X8075000Y-12875000D01*
X8025000Y-12825000D02*
X8125000Y-12825000D01*
X8075000Y-18800000D02*
X8075000Y-18900000D01*
X8025000Y-18850000D02*
X8125000Y-18850000D01*
X8175500Y-7047500D02*
X8175500Y-7147500D01*
X8125500Y-7097500D02*
X8225500Y-7097500D01*
X8175500Y-13072500D02*
X8175500Y-13172500D01*
X8125500Y-13122500D02*
X8225500Y-13122500D01*
X8175500Y-19372500D02*
X8175500Y-19472500D01*
X8125500Y-19422500D02*
X8225500Y-19422500D01*
X8325000Y-6750000D02*
X8325000Y-6850000D01*
X8275000Y-6800000D02*
X8375000Y-6800000D01*
X8325000Y-12775000D02*
X8325000Y-12875000D01*
X8275000Y-12825000D02*
X8375000Y-12825000D01*
X8325000Y-18800000D02*
X8325000Y-18900000D01*
X8275000Y-18850000D02*
X8375000Y-18850000D01*
X8429500Y-7047500D02*
X8429500Y-7147500D01*
X8379500Y-7097500D02*
X8479500Y-7097500D01*
X8429500Y-13072500D02*
X8429500Y-13172500D01*
X8379500Y-13122500D02*
X8479500Y-13122500D01*
X8429500Y-19372500D02*
X8429500Y-19472500D01*
X8379500Y-19422500D02*
X8479500Y-19422500D01*
X8575000Y-6750000D02*
X8575000Y-6850000D01*
X8525000Y-6800000D02*
X8625000Y-6800000D01*
X8575000Y-12775000D02*
X8575000Y-12875000D01*
X8525000Y-12825000D02*
X8625000Y-12825000D01*
X8575000Y-18800000D02*
X8575000Y-18900000D01*
X8525000Y-18850000D02*
X8625000Y-18850000D01*
X8683500Y-7047500D02*
X8683500Y-7147500D01*
X8633500Y-7097500D02*
X8733500Y-7097500D01*
X8683500Y-13072500D02*
X8683500Y-13172500D01*
X8633500Y-13122500D02*
X8733500Y-13122500D01*
X8683500Y-19372500D02*
X8683500Y-19472500D01*
X8633500Y-19422500D02*
X8733500Y-19422500D01*
X8937500Y-7047500D02*
X8937500Y-7147500D01*
X8887500Y-7097500D02*
X8987500Y-7097500D01*
X8937500Y-13072500D02*
X8937500Y-13172500D01*
X8887500Y-13122500D02*
X8987500Y-13122500D01*
X8937500Y-19372500D02*
X8937500Y-19472500D01*
X8887500Y-19422500D02*
X8987500Y-19422500D01*
X9500000Y-13950000D02*
X9500000Y-14050000D01*
X9450000Y-14000000D02*
X9550000Y-14000000D01*
D13*
X7883891Y-6088891D02*
X7883891Y-6011109D01*
X7806109Y-6011109D01*
X7806109Y-6088891D01*
X7883891Y-6088891D01*
D12*
X7900000Y-6085000D02*
X7900000Y-6015000D01*
X7790000Y-6015000D02*
G75*
G02*
X7900000Y-6015000I55000J0D01*
G01*
X7790000Y-6015000D02*
X7790000Y-6085000D01*
X7790000Y-6085000D02*
G75*
G03*
X7900000Y-6085000I55000J0D01*
G01*
D13*
X7883891Y-12113891D02*
X7883891Y-12036109D01*
X7806109Y-12036109D01*
X7806109Y-12113891D01*
X7883891Y-12113891D01*
D12*
X7900000Y-12110000D02*
X7900000Y-12040000D01*
X7790000Y-12040000D02*
G75*
G02*
X7900000Y-12040000I55000J0D01*
G01*
X7790000Y-12040000D02*
X7790000Y-12110000D01*
X7790000Y-12110000D02*
G75*
G03*
X7900000Y-12110000I55000J0D01*
G01*
D13*
X7883891Y-18138891D02*
X7883891Y-18061109D01*
X7806109Y-18061109D01*
X7806109Y-18138891D01*
X7883891Y-18138891D01*
D12*
X7900000Y-18135000D02*
X7900000Y-18065000D01*
X7790000Y-18065000D02*
G75*
G02*
X7900000Y-18065000I55000J0D01*
G01*
X7790000Y-18065000D02*
X7790000Y-18135000D01*
X7790000Y-18135000D02*
G75*
G03*
X7900000Y-18135000I55000J0D01*
G01*
D13*
X8843891Y-6088891D02*
X8843891Y-6011109D01*
X8766109Y-6011109D01*
X8766109Y-6088891D01*
X8843891Y-6088891D01*
D12*
X8860000Y-6085000D02*
X8860000Y-6015000D01*
X8750000Y-6015000D02*
G75*
G02*
X8860000Y-6015000I55000J0D01*
G01*
X8750000Y-6015000D02*
X8750000Y-6085000D01*
X8750000Y-6085000D02*
G75*
G03*
X8860000Y-6085000I55000J0D01*
G01*
D13*
X8843891Y-12113891D02*
X8843891Y-12036109D01*
X8766109Y-12036109D01*
X8766109Y-12113891D01*
X8843891Y-12113891D01*
D12*
X8860000Y-12110000D02*
X8860000Y-12040000D01*
X8750000Y-12040000D02*
G75*
G02*
X8860000Y-12040000I55000J0D01*
G01*
X8750000Y-12040000D02*
X8750000Y-12110000D01*
X8750000Y-12110000D02*
G75*
G03*
X8860000Y-12110000I55000J0D01*
G01*
D13*
X8843891Y-18138891D02*
X8843891Y-18061109D01*
X8766109Y-18061109D01*
X8766109Y-18138891D01*
X8843891Y-18138891D01*
D12*
X8860000Y-18135000D02*
X8860000Y-18065000D01*
X8750000Y-18065000D02*
G75*
G02*
X8860000Y-18065000I55000J0D01*
G01*
X8750000Y-18065000D02*
X8750000Y-18135000D01*
X8750000Y-18135000D02*
G75*
G03*
X8860000Y-18135000I55000J0D01*
G01*
D14*
X7262500Y-8435000D02*
X7342500Y-8355000D01*
X7262500Y-8275000D01*
X7182500Y-8355000D01*
X7262500Y-8435000D01*
X7262500Y-8905000D02*
X7342500Y-8825000D01*
X7262500Y-8745000D01*
X7182500Y-8825000D01*
X7262500Y-8905000D01*
X7262500Y-9375000D02*
X7342500Y-9295000D01*
X7262500Y-9215000D01*
X7182500Y-9295000D01*
X7262500Y-9375000D01*
X7262500Y-14460000D02*
X7342500Y-14380000D01*
X7262500Y-14300000D01*
X7182500Y-14380000D01*
X7262500Y-14460000D01*
X7262500Y-14930000D02*
X7342500Y-14850000D01*
X7262500Y-14770000D01*
X7182500Y-14850000D01*
X7262500Y-14930000D01*
X7262500Y-15400000D02*
X7342500Y-15320000D01*
X7262500Y-15240000D01*
X7182500Y-15320000D01*
X7262500Y-15400000D01*
X7262500Y-20485000D02*
X7342500Y-20405000D01*
X7262500Y-20325000D01*
X7182500Y-20405000D01*
X7262500Y-20485000D01*
X7262500Y-20955000D02*
X7342500Y-20875000D01*
X7262500Y-20795000D01*
X7182500Y-20875000D01*
X7262500Y-20955000D01*
X7262500Y-21425000D02*
X7342500Y-21345000D01*
X7262500Y-21265000D01*
X7182500Y-21345000D01*
X7262500Y-21425000D01*
X7737500Y-8435000D02*
X7817500Y-8355000D01*
X7737500Y-8275000D01*
X7657500Y-8355000D01*
X7737500Y-8435000D01*
X7737500Y-8905000D02*
X7817500Y-8825000D01*
X7737500Y-8745000D01*
X7657500Y-8825000D01*
X7737500Y-8905000D01*
X7737500Y-9375000D02*
X7817500Y-9295000D01*
X7737500Y-9215000D01*
X7657500Y-9295000D01*
X7737500Y-9375000D01*
X7737500Y-14460000D02*
X7817500Y-14380000D01*
X7737500Y-14300000D01*
X7657500Y-14380000D01*
X7737500Y-14460000D01*
X7737500Y-14930000D02*
X7817500Y-14850000D01*
X7737500Y-14770000D01*
X7657500Y-14850000D01*
X7737500Y-14930000D01*
X7737500Y-15400000D02*
X7817500Y-15320000D01*
X7737500Y-15240000D01*
X7657500Y-15320000D01*
X7737500Y-15400000D01*
X7737500Y-20485000D02*
X7817500Y-20405000D01*
X7737500Y-20325000D01*
X7657500Y-20405000D01*
X7737500Y-20485000D01*
X7737500Y-20955000D02*
X7817500Y-20875000D01*
X7737500Y-20795000D01*
X7657500Y-20875000D01*
X7737500Y-20955000D01*
X7737500Y-21425000D02*
X7817500Y-21345000D01*
X7737500Y-21265000D01*
X7657500Y-21345000D01*
X7737500Y-21425000D01*
D11*
X7008277Y-22063984D02*
X7008277Y-21863984D01*
X7008277Y-21863984D02*
X7055896Y-21863984D01*
X7055896Y-21863984D02*
X7084467Y-21873508D01*
X7084467Y-21873508D02*
X7103515Y-21892555D01*
X7103515Y-21892555D02*
X7113039Y-21911603D01*
X7113039Y-21911603D02*
X7122562Y-21949698D01*
X7122562Y-21949698D02*
X7122562Y-21978270D01*
X7122562Y-21978270D02*
X7113039Y-22016365D01*
X7113039Y-22016365D02*
X7103515Y-22035412D01*
X7103515Y-22035412D02*
X7084467Y-22054460D01*
X7084467Y-22054460D02*
X7055896Y-22063984D01*
X7055896Y-22063984D02*
X7008277Y-22063984D01*
X7208277Y-22063984D02*
X7208277Y-21930650D01*
X7208277Y-21968746D02*
X7217801Y-21949698D01*
X7217801Y-21949698D02*
X7227324Y-21940174D01*
X7227324Y-21940174D02*
X7246372Y-21930650D01*
X7246372Y-21930650D02*
X7265420Y-21930650D01*
X7332086Y-22063984D02*
X7332086Y-21930650D01*
X7332086Y-21863984D02*
X7322562Y-21873508D01*
X7322562Y-21873508D02*
X7332086Y-21883031D01*
X7332086Y-21883031D02*
X7341610Y-21873508D01*
X7341610Y-21873508D02*
X7332086Y-21863984D01*
X7332086Y-21863984D02*
X7332086Y-21883031D01*
X7455896Y-22063984D02*
X7436848Y-22054460D01*
X7436848Y-22054460D02*
X7427324Y-22035412D01*
X7427324Y-22035412D02*
X7427324Y-21863984D01*
X7560658Y-22063984D02*
X7541610Y-22054460D01*
X7541610Y-22054460D02*
X7532086Y-22035412D01*
X7532086Y-22035412D02*
X7532086Y-21863984D01*
X7789229Y-22063984D02*
X7789229Y-21863984D01*
X7789229Y-21863984D02*
X7855896Y-22006841D01*
X7855896Y-22006841D02*
X7922562Y-21863984D01*
X7922562Y-21863984D02*
X7922562Y-22063984D01*
X8103515Y-22063984D02*
X8103515Y-21959222D01*
X8103515Y-21959222D02*
X8093991Y-21940174D01*
X8093991Y-21940174D02*
X8074943Y-21930650D01*
X8074943Y-21930650D02*
X8036848Y-21930650D01*
X8036848Y-21930650D02*
X8017801Y-21940174D01*
X8103515Y-22054460D02*
X8084467Y-22063984D01*
X8084467Y-22063984D02*
X8036848Y-22063984D01*
X8036848Y-22063984D02*
X8017801Y-22054460D01*
X8017801Y-22054460D02*
X8008277Y-22035412D01*
X8008277Y-22035412D02*
X8008277Y-22016365D01*
X8008277Y-22016365D02*
X8017801Y-21997317D01*
X8017801Y-21997317D02*
X8036848Y-21987793D01*
X8036848Y-21987793D02*
X8084467Y-21987793D01*
X8084467Y-21987793D02*
X8103515Y-21978270D01*
X8198753Y-21930650D02*
X8198753Y-22130650D01*
X8198753Y-21940174D02*
X8217801Y-21930650D01*
X8217801Y-21930650D02*
X8255896Y-21930650D01*
X8255896Y-21930650D02*
X8274943Y-21940174D01*
X8274943Y-21940174D02*
X8284467Y-21949698D01*
X8284467Y-21949698D02*
X8293991Y-21968746D01*
X8293991Y-21968746D02*
X8293991Y-22025889D01*
X8293991Y-22025889D02*
X8284467Y-22044936D01*
X8284467Y-22044936D02*
X8274943Y-22054460D01*
X8274943Y-22054460D02*
X8255896Y-22063984D01*
X8255896Y-22063984D02*
X8217801Y-22063984D01*
X8217801Y-22063984D02*
X8198753Y-22054460D01*
X8379705Y-22044936D02*
X8389229Y-22054460D01*
X8389229Y-22054460D02*
X8379705Y-22063984D01*
X8379705Y-22063984D02*
X8370182Y-22054460D01*
X8370182Y-22054460D02*
X8379705Y-22044936D01*
X8379705Y-22044936D02*
X8379705Y-22063984D01*
X8379705Y-21940174D02*
X8389229Y-21949698D01*
X8389229Y-21949698D02*
X8379705Y-21959222D01*
X8379705Y-21959222D02*
X8370182Y-21949698D01*
X8370182Y-21949698D02*
X8379705Y-21940174D01*
X8379705Y-21940174D02*
X8379705Y-21959222D01*
D12*
X6667500Y-22352500D02*
X6747500Y-22432500D01*
X6747500Y-22352500D02*
X6667500Y-22432500D01*
D11*
X7046372Y-22283984D02*
X7065420Y-22283984D01*
X7065420Y-22283984D02*
X7084467Y-22293508D01*
X7084467Y-22293508D02*
X7093991Y-22303031D01*
X7093991Y-22303031D02*
X7103515Y-22322079D01*
X7103515Y-22322079D02*
X7113039Y-22360174D01*
X7113039Y-22360174D02*
X7113039Y-22407793D01*
X7113039Y-22407793D02*
X7103515Y-22445888D01*
X7103515Y-22445888D02*
X7093991Y-22464936D01*
X7093991Y-22464936D02*
X7084467Y-22474460D01*
X7084467Y-22474460D02*
X7065420Y-22483984D01*
X7065420Y-22483984D02*
X7046372Y-22483984D01*
X7046372Y-22483984D02*
X7027324Y-22474460D01*
X7027324Y-22474460D02*
X7017801Y-22464936D01*
X7017801Y-22464936D02*
X7008277Y-22445888D01*
X7008277Y-22445888D02*
X6998753Y-22407793D01*
X6998753Y-22407793D02*
X6998753Y-22360174D01*
X6998753Y-22360174D02*
X7008277Y-22322079D01*
X7008277Y-22322079D02*
X7017801Y-22303031D01*
X7017801Y-22303031D02*
X7027324Y-22293508D01*
X7027324Y-22293508D02*
X7046372Y-22283984D01*
X7198753Y-22464936D02*
X7208277Y-22474460D01*
X7208277Y-22474460D02*
X7198753Y-22483984D01*
X7198753Y-22483984D02*
X7189229Y-22474460D01*
X7189229Y-22474460D02*
X7198753Y-22464936D01*
X7198753Y-22464936D02*
X7198753Y-22483984D01*
X7322562Y-22369698D02*
X7303515Y-22360174D01*
X7303515Y-22360174D02*
X7293991Y-22350650D01*
X7293991Y-22350650D02*
X7284467Y-22331603D01*
X7284467Y-22331603D02*
X7284467Y-22322079D01*
X7284467Y-22322079D02*
X7293991Y-22303031D01*
X7293991Y-22303031D02*
X7303515Y-22293508D01*
X7303515Y-22293508D02*
X7322562Y-22283984D01*
X7322562Y-22283984D02*
X7360658Y-22283984D01*
X7360658Y-22283984D02*
X7379705Y-22293508D01*
X7379705Y-22293508D02*
X7389229Y-22303031D01*
X7389229Y-22303031D02*
X7398753Y-22322079D01*
X7398753Y-22322079D02*
X7398753Y-22331603D01*
X7398753Y-22331603D02*
X7389229Y-22350650D01*
X7389229Y-22350650D02*
X7379705Y-22360174D01*
X7379705Y-22360174D02*
X7360658Y-22369698D01*
X7360658Y-22369698D02*
X7322562Y-22369698D01*
X7322562Y-22369698D02*
X7303515Y-22379222D01*
X7303515Y-22379222D02*
X7293991Y-22388746D01*
X7293991Y-22388746D02*
X7284467Y-22407793D01*
X7284467Y-22407793D02*
X7284467Y-22445888D01*
X7284467Y-22445888D02*
X7293991Y-22464936D01*
X7293991Y-22464936D02*
X7303515Y-22474460D01*
X7303515Y-22474460D02*
X7322562Y-22483984D01*
X7322562Y-22483984D02*
X7360658Y-22483984D01*
X7360658Y-22483984D02*
X7379705Y-22474460D01*
X7379705Y-22474460D02*
X7389229Y-22464936D01*
X7389229Y-22464936D02*
X7398753Y-22445888D01*
X7398753Y-22445888D02*
X7398753Y-22407793D01*
X7398753Y-22407793D02*
X7389229Y-22388746D01*
X7389229Y-22388746D02*
X7379705Y-22379222D01*
X7379705Y-22379222D02*
X7360658Y-22369698D01*
X7522562Y-22283984D02*
X7541610Y-22283984D01*
X7541610Y-22283984D02*
X7560658Y-22293508D01*
X7560658Y-22293508D02*
X7570182Y-22303031D01*
X7570182Y-22303031D02*
X7579705Y-22322079D01*
X7579705Y-22322079D02*
X7589229Y-22360174D01*
X7589229Y-22360174D02*
X7589229Y-22407793D01*
X7589229Y-22407793D02*
X7579705Y-22445888D01*
X7579705Y-22445888D02*
X7570182Y-22464936D01*
X7570182Y-22464936D02*
X7560658Y-22474460D01*
X7560658Y-22474460D02*
X7541610Y-22483984D01*
X7541610Y-22483984D02*
X7522562Y-22483984D01*
X7522562Y-22483984D02*
X7503515Y-22474460D01*
X7503515Y-22474460D02*
X7493991Y-22464936D01*
X7493991Y-22464936D02*
X7484467Y-22445888D01*
X7484467Y-22445888D02*
X7474943Y-22407793D01*
X7474943Y-22407793D02*
X7474943Y-22360174D01*
X7474943Y-22360174D02*
X7484467Y-22322079D01*
X7484467Y-22322079D02*
X7493991Y-22303031D01*
X7493991Y-22303031D02*
X7503515Y-22293508D01*
X7503515Y-22293508D02*
X7522562Y-22283984D01*
X7713039Y-22283984D02*
X7732086Y-22283984D01*
X7732086Y-22283984D02*
X7751134Y-22293508D01*
X7751134Y-22293508D02*
X7760658Y-22303031D01*
X7760658Y-22303031D02*
X7770182Y-22322079D01*
X7770182Y-22322079D02*
X7779705Y-22360174D01*
X7779705Y-22360174D02*
X7779705Y-22407793D01*
X7779705Y-22407793D02*
X7770182Y-22445888D01*
X7770182Y-22445888D02*
X7760658Y-22464936D01*
X7760658Y-22464936D02*
X7751134Y-22474460D01*
X7751134Y-22474460D02*
X7732086Y-22483984D01*
X7732086Y-22483984D02*
X7713039Y-22483984D01*
X7713039Y-22483984D02*
X7693991Y-22474460D01*
X7693991Y-22474460D02*
X7684467Y-22464936D01*
X7684467Y-22464936D02*
X7674943Y-22445888D01*
X7674943Y-22445888D02*
X7665420Y-22407793D01*
X7665420Y-22407793D02*
X7665420Y-22360174D01*
X7665420Y-22360174D02*
X7674943Y-22322079D01*
X7674943Y-22322079D02*
X7684467Y-22303031D01*
X7684467Y-22303031D02*
X7693991Y-22293508D01*
X7693991Y-22293508D02*
X7713039Y-22283984D01*
X7865420Y-22483984D02*
X7865420Y-22350650D01*
X7865420Y-22369698D02*
X7874943Y-22360174D01*
X7874943Y-22360174D02*
X7893991Y-22350650D01*
X7893991Y-22350650D02*
X7922563Y-22350650D01*
X7922563Y-22350650D02*
X7941610Y-22360174D01*
X7941610Y-22360174D02*
X7951134Y-22379222D01*
X7951134Y-22379222D02*
X7951134Y-22483984D01*
X7951134Y-22379222D02*
X7960658Y-22360174D01*
X7960658Y-22360174D02*
X7979705Y-22350650D01*
X7979705Y-22350650D02*
X8008277Y-22350650D01*
X8008277Y-22350650D02*
X8027324Y-22360174D01*
X8027324Y-22360174D02*
X8036848Y-22379222D01*
X8036848Y-22379222D02*
X8036848Y-22483984D01*
X8132086Y-22483984D02*
X8132086Y-22350650D01*
X8132086Y-22369698D02*
X8141610Y-22360174D01*
X8141610Y-22360174D02*
X8160658Y-22350650D01*
X8160658Y-22350650D02*
X8189229Y-22350650D01*
X8189229Y-22350650D02*
X8208277Y-22360174D01*
X8208277Y-22360174D02*
X8217801Y-22379222D01*
X8217801Y-22379222D02*
X8217801Y-22483984D01*
X8217801Y-22379222D02*
X8227324Y-22360174D01*
X8227324Y-22360174D02*
X8246372Y-22350650D01*
X8246372Y-22350650D02*
X8274943Y-22350650D01*
X8274943Y-22350650D02*
X8293991Y-22360174D01*
X8293991Y-22360174D02*
X8303515Y-22379222D01*
X8303515Y-22379222D02*
X8303515Y-22483984D01*
X8693991Y-22274460D02*
X8522563Y-22531603D01*
X8951134Y-22283984D02*
X8970182Y-22283984D01*
X8970182Y-22283984D02*
X8989229Y-22293508D01*
X8989229Y-22293508D02*
X8998753Y-22303031D01*
X8998753Y-22303031D02*
X9008277Y-22322079D01*
X9008277Y-22322079D02*
X9017801Y-22360174D01*
X9017801Y-22360174D02*
X9017801Y-22407793D01*
X9017801Y-22407793D02*
X9008277Y-22445888D01*
X9008277Y-22445888D02*
X8998753Y-22464936D01*
X8998753Y-22464936D02*
X8989229Y-22474460D01*
X8989229Y-22474460D02*
X8970182Y-22483984D01*
X8970182Y-22483984D02*
X8951134Y-22483984D01*
X8951134Y-22483984D02*
X8932087Y-22474460D01*
X8932087Y-22474460D02*
X8922563Y-22464936D01*
X8922563Y-22464936D02*
X8913039Y-22445888D01*
X8913039Y-22445888D02*
X8903515Y-22407793D01*
X8903515Y-22407793D02*
X8903515Y-22360174D01*
X8903515Y-22360174D02*
X8913039Y-22322079D01*
X8913039Y-22322079D02*
X8922563Y-22303031D01*
X8922563Y-22303031D02*
X8932087Y-22293508D01*
X8932087Y-22293508D02*
X8951134Y-22283984D01*
X9103515Y-22464936D02*
X9113039Y-22474460D01*
X9113039Y-22474460D02*
X9103515Y-22483984D01*
X9103515Y-22483984D02*
X9093991Y-22474460D01*
X9093991Y-22474460D02*
X9103515Y-22464936D01*
X9103515Y-22464936D02*
X9103515Y-22483984D01*
X9236848Y-22283984D02*
X9255896Y-22283984D01*
X9255896Y-22283984D02*
X9274944Y-22293508D01*
X9274944Y-22293508D02*
X9284468Y-22303031D01*
X9284468Y-22303031D02*
X9293991Y-22322079D01*
X9293991Y-22322079D02*
X9303515Y-22360174D01*
X9303515Y-22360174D02*
X9303515Y-22407793D01*
X9303515Y-22407793D02*
X9293991Y-22445888D01*
X9293991Y-22445888D02*
X9284468Y-22464936D01*
X9284468Y-22464936D02*
X9274944Y-22474460D01*
X9274944Y-22474460D02*
X9255896Y-22483984D01*
X9255896Y-22483984D02*
X9236848Y-22483984D01*
X9236848Y-22483984D02*
X9217801Y-22474460D01*
X9217801Y-22474460D02*
X9208277Y-22464936D01*
X9208277Y-22464936D02*
X9198753Y-22445888D01*
X9198753Y-22445888D02*
X9189229Y-22407793D01*
X9189229Y-22407793D02*
X9189229Y-22360174D01*
X9189229Y-22360174D02*
X9198753Y-22322079D01*
X9198753Y-22322079D02*
X9208277Y-22303031D01*
X9208277Y-22303031D02*
X9217801Y-22293508D01*
X9217801Y-22293508D02*
X9236848Y-22283984D01*
X9370182Y-22283984D02*
X9493991Y-22283984D01*
X9493991Y-22283984D02*
X9427325Y-22360174D01*
X9427325Y-22360174D02*
X9455896Y-22360174D01*
X9455896Y-22360174D02*
X9474944Y-22369698D01*
X9474944Y-22369698D02*
X9484468Y-22379222D01*
X9484468Y-22379222D02*
X9493991Y-22398269D01*
X9493991Y-22398269D02*
X9493991Y-22445888D01*
X9493991Y-22445888D02*
X9484468Y-22464936D01*
X9484468Y-22464936D02*
X9474944Y-22474460D01*
X9474944Y-22474460D02*
X9455896Y-22483984D01*
X9455896Y-22483984D02*
X9398753Y-22483984D01*
X9398753Y-22483984D02*
X9379706Y-22474460D01*
X9379706Y-22474460D02*
X9370182Y-22464936D01*
X9684468Y-22483984D02*
X9570182Y-22483984D01*
X9627325Y-22483984D02*
X9627325Y-22283984D01*
X9627325Y-22283984D02*
X9608277Y-22312555D01*
X9608277Y-22312555D02*
X9589229Y-22331603D01*
X9589229Y-22331603D02*
X9570182Y-22341127D01*
X9865420Y-22283984D02*
X9770182Y-22283984D01*
X9770182Y-22283984D02*
X9760658Y-22379222D01*
X9760658Y-22379222D02*
X9770182Y-22369698D01*
X9770182Y-22369698D02*
X9789229Y-22360174D01*
X9789229Y-22360174D02*
X9836849Y-22360174D01*
X9836849Y-22360174D02*
X9855896Y-22369698D01*
X9855896Y-22369698D02*
X9865420Y-22379222D01*
X9865420Y-22379222D02*
X9874944Y-22398269D01*
X9874944Y-22398269D02*
X9874944Y-22445888D01*
X9874944Y-22445888D02*
X9865420Y-22464936D01*
X9865420Y-22464936D02*
X9855896Y-22474460D01*
X9855896Y-22474460D02*
X9836849Y-22483984D01*
X9836849Y-22483984D02*
X9789229Y-22483984D01*
X9789229Y-22483984D02*
X9770182Y-22474460D01*
X9770182Y-22474460D02*
X9760658Y-22464936D01*
X9951134Y-22283984D02*
X9951134Y-22322079D01*
X10027325Y-22283984D02*
X10027325Y-22322079D01*
X10322563Y-22560174D02*
X10313039Y-22550650D01*
X10313039Y-22550650D02*
X10293991Y-22522079D01*
X10293991Y-22522079D02*
X10284468Y-22503031D01*
X10284468Y-22503031D02*
X10274944Y-22474460D01*
X10274944Y-22474460D02*
X10265420Y-22426841D01*
X10265420Y-22426841D02*
X10265420Y-22388746D01*
X10265420Y-22388746D02*
X10274944Y-22341127D01*
X10274944Y-22341127D02*
X10284468Y-22312555D01*
X10284468Y-22312555D02*
X10293991Y-22293508D01*
X10293991Y-22293508D02*
X10313039Y-22264936D01*
X10313039Y-22264936D02*
X10322563Y-22255412D01*
X10503515Y-22483984D02*
X10389230Y-22483984D01*
X10446372Y-22483984D02*
X10446372Y-22283984D01*
X10446372Y-22283984D02*
X10427325Y-22312555D01*
X10427325Y-22312555D02*
X10408277Y-22331603D01*
X10408277Y-22331603D02*
X10389230Y-22341127D01*
X10617801Y-22369698D02*
X10598753Y-22360174D01*
X10598753Y-22360174D02*
X10589230Y-22350650D01*
X10589230Y-22350650D02*
X10579706Y-22331603D01*
X10579706Y-22331603D02*
X10579706Y-22322079D01*
X10579706Y-22322079D02*
X10589230Y-22303031D01*
X10589230Y-22303031D02*
X10598753Y-22293508D01*
X10598753Y-22293508D02*
X10617801Y-22283984D01*
X10617801Y-22283984D02*
X10655896Y-22283984D01*
X10655896Y-22283984D02*
X10674944Y-22293508D01*
X10674944Y-22293508D02*
X10684468Y-22303031D01*
X10684468Y-22303031D02*
X10693991Y-22322079D01*
X10693991Y-22322079D02*
X10693991Y-22331603D01*
X10693991Y-22331603D02*
X10684468Y-22350650D01*
X10684468Y-22350650D02*
X10674944Y-22360174D01*
X10674944Y-22360174D02*
X10655896Y-22369698D01*
X10655896Y-22369698D02*
X10617801Y-22369698D01*
X10617801Y-22369698D02*
X10598753Y-22379222D01*
X10598753Y-22379222D02*
X10589230Y-22388746D01*
X10589230Y-22388746D02*
X10579706Y-22407793D01*
X10579706Y-22407793D02*
X10579706Y-22445888D01*
X10579706Y-22445888D02*
X10589230Y-22464936D01*
X10589230Y-22464936D02*
X10598753Y-22474460D01*
X10598753Y-22474460D02*
X10617801Y-22483984D01*
X10617801Y-22483984D02*
X10655896Y-22483984D01*
X10655896Y-22483984D02*
X10674944Y-22474460D01*
X10674944Y-22474460D02*
X10684468Y-22464936D01*
X10684468Y-22464936D02*
X10693991Y-22445888D01*
X10693991Y-22445888D02*
X10693991Y-22407793D01*
X10693991Y-22407793D02*
X10684468Y-22388746D01*
X10684468Y-22388746D02*
X10674944Y-22379222D01*
X10674944Y-22379222D02*
X10655896Y-22369698D01*
X10932087Y-22483984D02*
X10932087Y-22283984D01*
X11017801Y-22483984D02*
X11017801Y-22379222D01*
X11017801Y-22379222D02*
X11008277Y-22360174D01*
X11008277Y-22360174D02*
X10989230Y-22350650D01*
X10989230Y-22350650D02*
X10960658Y-22350650D01*
X10960658Y-22350650D02*
X10941611Y-22360174D01*
X10941611Y-22360174D02*
X10932087Y-22369698D01*
X11141611Y-22483984D02*
X11122563Y-22474460D01*
X11122563Y-22474460D02*
X11113039Y-22464936D01*
X11113039Y-22464936D02*
X11103515Y-22445888D01*
X11103515Y-22445888D02*
X11103515Y-22388746D01*
X11103515Y-22388746D02*
X11113039Y-22369698D01*
X11113039Y-22369698D02*
X11122563Y-22360174D01*
X11122563Y-22360174D02*
X11141611Y-22350650D01*
X11141611Y-22350650D02*
X11170182Y-22350650D01*
X11170182Y-22350650D02*
X11189230Y-22360174D01*
X11189230Y-22360174D02*
X11198753Y-22369698D01*
X11198753Y-22369698D02*
X11208277Y-22388746D01*
X11208277Y-22388746D02*
X11208277Y-22445888D01*
X11208277Y-22445888D02*
X11198753Y-22464936D01*
X11198753Y-22464936D02*
X11189230Y-22474460D01*
X11189230Y-22474460D02*
X11170182Y-22483984D01*
X11170182Y-22483984D02*
X11141611Y-22483984D01*
X11322563Y-22483984D02*
X11303515Y-22474460D01*
X11303515Y-22474460D02*
X11293991Y-22455412D01*
X11293991Y-22455412D02*
X11293991Y-22283984D01*
X11474944Y-22474460D02*
X11455896Y-22483984D01*
X11455896Y-22483984D02*
X11417801Y-22483984D01*
X11417801Y-22483984D02*
X11398753Y-22474460D01*
X11398753Y-22474460D02*
X11389230Y-22455412D01*
X11389230Y-22455412D02*
X11389230Y-22379222D01*
X11389230Y-22379222D02*
X11398753Y-22360174D01*
X11398753Y-22360174D02*
X11417801Y-22350650D01*
X11417801Y-22350650D02*
X11455896Y-22350650D01*
X11455896Y-22350650D02*
X11474944Y-22360174D01*
X11474944Y-22360174D02*
X11484468Y-22379222D01*
X11484468Y-22379222D02*
X11484468Y-22398269D01*
X11484468Y-22398269D02*
X11389230Y-22417317D01*
X11560658Y-22474460D02*
X11579706Y-22483984D01*
X11579706Y-22483984D02*
X11617801Y-22483984D01*
X11617801Y-22483984D02*
X11636849Y-22474460D01*
X11636849Y-22474460D02*
X11646372Y-22455412D01*
X11646372Y-22455412D02*
X11646372Y-22445888D01*
X11646372Y-22445888D02*
X11636849Y-22426841D01*
X11636849Y-22426841D02*
X11617801Y-22417317D01*
X11617801Y-22417317D02*
X11589230Y-22417317D01*
X11589230Y-22417317D02*
X11570182Y-22407793D01*
X11570182Y-22407793D02*
X11560658Y-22388746D01*
X11560658Y-22388746D02*
X11560658Y-22379222D01*
X11560658Y-22379222D02*
X11570182Y-22360174D01*
X11570182Y-22360174D02*
X11589230Y-22350650D01*
X11589230Y-22350650D02*
X11617801Y-22350650D01*
X11617801Y-22350650D02*
X11636849Y-22360174D01*
X11713039Y-22560174D02*
X11722563Y-22550650D01*
X11722563Y-22550650D02*
X11741611Y-22522079D01*
X11741611Y-22522079D02*
X11751134Y-22503031D01*
X11751134Y-22503031D02*
X11760658Y-22474460D01*
X11760658Y-22474460D02*
X11770182Y-22426841D01*
X11770182Y-22426841D02*
X11770182Y-22388746D01*
X11770182Y-22388746D02*
X11760658Y-22341127D01*
X11760658Y-22341127D02*
X11751134Y-22312555D01*
X11751134Y-22312555D02*
X11741611Y-22293508D01*
X11741611Y-22293508D02*
X11722563Y-22264936D01*
X11722563Y-22264936D02*
X11713039Y-22255412D01*
D12*
X6747500Y-22656500D02*
G75*
G02*
X6657500Y-22656500I-45000J0D01*
G01*
X6657500Y-22656500D02*
G75*
G02*
X6747500Y-22656500I45000J0D01*
G01*
D11*
X7046372Y-22547984D02*
X7065420Y-22547984D01*
X7065420Y-22547984D02*
X7084467Y-22557508D01*
X7084467Y-22557508D02*
X7093991Y-22567031D01*
X7093991Y-22567031D02*
X7103515Y-22586079D01*
X7103515Y-22586079D02*
X7113039Y-22624174D01*
X7113039Y-22624174D02*
X7113039Y-22671793D01*
X7113039Y-22671793D02*
X7103515Y-22709888D01*
X7103515Y-22709888D02*
X7093991Y-22728936D01*
X7093991Y-22728936D02*
X7084467Y-22738460D01*
X7084467Y-22738460D02*
X7065420Y-22747984D01*
X7065420Y-22747984D02*
X7046372Y-22747984D01*
X7046372Y-22747984D02*
X7027324Y-22738460D01*
X7027324Y-22738460D02*
X7017801Y-22728936D01*
X7017801Y-22728936D02*
X7008277Y-22709888D01*
X7008277Y-22709888D02*
X6998753Y-22671793D01*
X6998753Y-22671793D02*
X6998753Y-22624174D01*
X6998753Y-22624174D02*
X7008277Y-22586079D01*
X7008277Y-22586079D02*
X7017801Y-22567031D01*
X7017801Y-22567031D02*
X7027324Y-22557508D01*
X7027324Y-22557508D02*
X7046372Y-22547984D01*
X7198753Y-22728936D02*
X7208277Y-22738460D01*
X7208277Y-22738460D02*
X7198753Y-22747984D01*
X7198753Y-22747984D02*
X7189229Y-22738460D01*
X7189229Y-22738460D02*
X7198753Y-22728936D01*
X7198753Y-22728936D02*
X7198753Y-22747984D01*
X7303515Y-22747984D02*
X7341610Y-22747984D01*
X7341610Y-22747984D02*
X7360658Y-22738460D01*
X7360658Y-22738460D02*
X7370182Y-22728936D01*
X7370182Y-22728936D02*
X7389229Y-22700365D01*
X7389229Y-22700365D02*
X7398753Y-22662269D01*
X7398753Y-22662269D02*
X7398753Y-22586079D01*
X7398753Y-22586079D02*
X7389229Y-22567031D01*
X7389229Y-22567031D02*
X7379705Y-22557508D01*
X7379705Y-22557508D02*
X7360658Y-22547984D01*
X7360658Y-22547984D02*
X7322562Y-22547984D01*
X7322562Y-22547984D02*
X7303515Y-22557508D01*
X7303515Y-22557508D02*
X7293991Y-22567031D01*
X7293991Y-22567031D02*
X7284467Y-22586079D01*
X7284467Y-22586079D02*
X7284467Y-22633698D01*
X7284467Y-22633698D02*
X7293991Y-22652746D01*
X7293991Y-22652746D02*
X7303515Y-22662269D01*
X7303515Y-22662269D02*
X7322562Y-22671793D01*
X7322562Y-22671793D02*
X7360658Y-22671793D01*
X7360658Y-22671793D02*
X7379705Y-22662269D01*
X7379705Y-22662269D02*
X7389229Y-22652746D01*
X7389229Y-22652746D02*
X7398753Y-22633698D01*
X7522562Y-22547984D02*
X7541610Y-22547984D01*
X7541610Y-22547984D02*
X7560658Y-22557508D01*
X7560658Y-22557508D02*
X7570182Y-22567031D01*
X7570182Y-22567031D02*
X7579705Y-22586079D01*
X7579705Y-22586079D02*
X7589229Y-22624174D01*
X7589229Y-22624174D02*
X7589229Y-22671793D01*
X7589229Y-22671793D02*
X7579705Y-22709888D01*
X7579705Y-22709888D02*
X7570182Y-22728936D01*
X7570182Y-22728936D02*
X7560658Y-22738460D01*
X7560658Y-22738460D02*
X7541610Y-22747984D01*
X7541610Y-22747984D02*
X7522562Y-22747984D01*
X7522562Y-22747984D02*
X7503515Y-22738460D01*
X7503515Y-22738460D02*
X7493991Y-22728936D01*
X7493991Y-22728936D02*
X7484467Y-22709888D01*
X7484467Y-22709888D02*
X7474943Y-22671793D01*
X7474943Y-22671793D02*
X7474943Y-22624174D01*
X7474943Y-22624174D02*
X7484467Y-22586079D01*
X7484467Y-22586079D02*
X7493991Y-22567031D01*
X7493991Y-22567031D02*
X7503515Y-22557508D01*
X7503515Y-22557508D02*
X7522562Y-22547984D01*
X7713039Y-22547984D02*
X7732086Y-22547984D01*
X7732086Y-22547984D02*
X7751134Y-22557508D01*
X7751134Y-22557508D02*
X7760658Y-22567031D01*
X7760658Y-22567031D02*
X7770182Y-22586079D01*
X7770182Y-22586079D02*
X7779705Y-22624174D01*
X7779705Y-22624174D02*
X7779705Y-22671793D01*
X7779705Y-22671793D02*
X7770182Y-22709888D01*
X7770182Y-22709888D02*
X7760658Y-22728936D01*
X7760658Y-22728936D02*
X7751134Y-22738460D01*
X7751134Y-22738460D02*
X7732086Y-22747984D01*
X7732086Y-22747984D02*
X7713039Y-22747984D01*
X7713039Y-22747984D02*
X7693991Y-22738460D01*
X7693991Y-22738460D02*
X7684467Y-22728936D01*
X7684467Y-22728936D02*
X7674943Y-22709888D01*
X7674943Y-22709888D02*
X7665420Y-22671793D01*
X7665420Y-22671793D02*
X7665420Y-22624174D01*
X7665420Y-22624174D02*
X7674943Y-22586079D01*
X7674943Y-22586079D02*
X7684467Y-22567031D01*
X7684467Y-22567031D02*
X7693991Y-22557508D01*
X7693991Y-22557508D02*
X7713039Y-22547984D01*
X7865420Y-22747984D02*
X7865420Y-22614650D01*
X7865420Y-22633698D02*
X7874943Y-22624174D01*
X7874943Y-22624174D02*
X7893991Y-22614650D01*
X7893991Y-22614650D02*
X7922563Y-22614650D01*
X7922563Y-22614650D02*
X7941610Y-22624174D01*
X7941610Y-22624174D02*
X7951134Y-22643222D01*
X7951134Y-22643222D02*
X7951134Y-22747984D01*
X7951134Y-22643222D02*
X7960658Y-22624174D01*
X7960658Y-22624174D02*
X7979705Y-22614650D01*
X7979705Y-22614650D02*
X8008277Y-22614650D01*
X8008277Y-22614650D02*
X8027324Y-22624174D01*
X8027324Y-22624174D02*
X8036848Y-22643222D01*
X8036848Y-22643222D02*
X8036848Y-22747984D01*
X8132086Y-22747984D02*
X8132086Y-22614650D01*
X8132086Y-22633698D02*
X8141610Y-22624174D01*
X8141610Y-22624174D02*
X8160658Y-22614650D01*
X8160658Y-22614650D02*
X8189229Y-22614650D01*
X8189229Y-22614650D02*
X8208277Y-22624174D01*
X8208277Y-22624174D02*
X8217801Y-22643222D01*
X8217801Y-22643222D02*
X8217801Y-22747984D01*
X8217801Y-22643222D02*
X8227324Y-22624174D01*
X8227324Y-22624174D02*
X8246372Y-22614650D01*
X8246372Y-22614650D02*
X8274943Y-22614650D01*
X8274943Y-22614650D02*
X8293991Y-22624174D01*
X8293991Y-22624174D02*
X8303515Y-22643222D01*
X8303515Y-22643222D02*
X8303515Y-22747984D01*
X8693991Y-22538460D02*
X8522563Y-22795603D01*
X8951134Y-22547984D02*
X8970182Y-22547984D01*
X8970182Y-22547984D02*
X8989229Y-22557508D01*
X8989229Y-22557508D02*
X8998753Y-22567031D01*
X8998753Y-22567031D02*
X9008277Y-22586079D01*
X9008277Y-22586079D02*
X9017801Y-22624174D01*
X9017801Y-22624174D02*
X9017801Y-22671793D01*
X9017801Y-22671793D02*
X9008277Y-22709888D01*
X9008277Y-22709888D02*
X8998753Y-22728936D01*
X8998753Y-22728936D02*
X8989229Y-22738460D01*
X8989229Y-22738460D02*
X8970182Y-22747984D01*
X8970182Y-22747984D02*
X8951134Y-22747984D01*
X8951134Y-22747984D02*
X8932087Y-22738460D01*
X8932087Y-22738460D02*
X8922563Y-22728936D01*
X8922563Y-22728936D02*
X8913039Y-22709888D01*
X8913039Y-22709888D02*
X8903515Y-22671793D01*
X8903515Y-22671793D02*
X8903515Y-22624174D01*
X8903515Y-22624174D02*
X8913039Y-22586079D01*
X8913039Y-22586079D02*
X8922563Y-22567031D01*
X8922563Y-22567031D02*
X8932087Y-22557508D01*
X8932087Y-22557508D02*
X8951134Y-22547984D01*
X9103515Y-22728936D02*
X9113039Y-22738460D01*
X9113039Y-22738460D02*
X9103515Y-22747984D01*
X9103515Y-22747984D02*
X9093991Y-22738460D01*
X9093991Y-22738460D02*
X9103515Y-22728936D01*
X9103515Y-22728936D02*
X9103515Y-22747984D01*
X9236848Y-22547984D02*
X9255896Y-22547984D01*
X9255896Y-22547984D02*
X9274944Y-22557508D01*
X9274944Y-22557508D02*
X9284468Y-22567031D01*
X9284468Y-22567031D02*
X9293991Y-22586079D01*
X9293991Y-22586079D02*
X9303515Y-22624174D01*
X9303515Y-22624174D02*
X9303515Y-22671793D01*
X9303515Y-22671793D02*
X9293991Y-22709888D01*
X9293991Y-22709888D02*
X9284468Y-22728936D01*
X9284468Y-22728936D02*
X9274944Y-22738460D01*
X9274944Y-22738460D02*
X9255896Y-22747984D01*
X9255896Y-22747984D02*
X9236848Y-22747984D01*
X9236848Y-22747984D02*
X9217801Y-22738460D01*
X9217801Y-22738460D02*
X9208277Y-22728936D01*
X9208277Y-22728936D02*
X9198753Y-22709888D01*
X9198753Y-22709888D02*
X9189229Y-22671793D01*
X9189229Y-22671793D02*
X9189229Y-22624174D01*
X9189229Y-22624174D02*
X9198753Y-22586079D01*
X9198753Y-22586079D02*
X9208277Y-22567031D01*
X9208277Y-22567031D02*
X9217801Y-22557508D01*
X9217801Y-22557508D02*
X9236848Y-22547984D01*
X9370182Y-22547984D02*
X9493991Y-22547984D01*
X9493991Y-22547984D02*
X9427325Y-22624174D01*
X9427325Y-22624174D02*
X9455896Y-22624174D01*
X9455896Y-22624174D02*
X9474944Y-22633698D01*
X9474944Y-22633698D02*
X9484468Y-22643222D01*
X9484468Y-22643222D02*
X9493991Y-22662269D01*
X9493991Y-22662269D02*
X9493991Y-22709888D01*
X9493991Y-22709888D02*
X9484468Y-22728936D01*
X9484468Y-22728936D02*
X9474944Y-22738460D01*
X9474944Y-22738460D02*
X9455896Y-22747984D01*
X9455896Y-22747984D02*
X9398753Y-22747984D01*
X9398753Y-22747984D02*
X9379706Y-22738460D01*
X9379706Y-22738460D02*
X9370182Y-22728936D01*
X9674944Y-22547984D02*
X9579706Y-22547984D01*
X9579706Y-22547984D02*
X9570182Y-22643222D01*
X9570182Y-22643222D02*
X9579706Y-22633698D01*
X9579706Y-22633698D02*
X9598753Y-22624174D01*
X9598753Y-22624174D02*
X9646372Y-22624174D01*
X9646372Y-22624174D02*
X9665420Y-22633698D01*
X9665420Y-22633698D02*
X9674944Y-22643222D01*
X9674944Y-22643222D02*
X9684468Y-22662269D01*
X9684468Y-22662269D02*
X9684468Y-22709888D01*
X9684468Y-22709888D02*
X9674944Y-22728936D01*
X9674944Y-22728936D02*
X9665420Y-22738460D01*
X9665420Y-22738460D02*
X9646372Y-22747984D01*
X9646372Y-22747984D02*
X9598753Y-22747984D01*
X9598753Y-22747984D02*
X9579706Y-22738460D01*
X9579706Y-22738460D02*
X9570182Y-22728936D01*
X9855896Y-22614650D02*
X9855896Y-22747984D01*
X9808277Y-22538460D02*
X9760658Y-22681317D01*
X9760658Y-22681317D02*
X9884468Y-22681317D01*
X9951134Y-22547984D02*
X9951134Y-22586079D01*
X10027325Y-22547984D02*
X10027325Y-22586079D01*
X10322563Y-22824174D02*
X10313039Y-22814650D01*
X10313039Y-22814650D02*
X10293991Y-22786079D01*
X10293991Y-22786079D02*
X10284468Y-22767031D01*
X10284468Y-22767031D02*
X10274944Y-22738460D01*
X10274944Y-22738460D02*
X10265420Y-22690841D01*
X10265420Y-22690841D02*
X10265420Y-22652746D01*
X10265420Y-22652746D02*
X10274944Y-22605127D01*
X10274944Y-22605127D02*
X10284468Y-22576555D01*
X10284468Y-22576555D02*
X10293991Y-22557508D01*
X10293991Y-22557508D02*
X10313039Y-22528936D01*
X10313039Y-22528936D02*
X10322563Y-22519412D01*
X10408277Y-22747984D02*
X10446372Y-22747984D01*
X10446372Y-22747984D02*
X10465420Y-22738460D01*
X10465420Y-22738460D02*
X10474944Y-22728936D01*
X10474944Y-22728936D02*
X10493991Y-22700365D01*
X10493991Y-22700365D02*
X10503515Y-22662269D01*
X10503515Y-22662269D02*
X10503515Y-22586079D01*
X10503515Y-22586079D02*
X10493991Y-22567031D01*
X10493991Y-22567031D02*
X10484468Y-22557508D01*
X10484468Y-22557508D02*
X10465420Y-22547984D01*
X10465420Y-22547984D02*
X10427325Y-22547984D01*
X10427325Y-22547984D02*
X10408277Y-22557508D01*
X10408277Y-22557508D02*
X10398753Y-22567031D01*
X10398753Y-22567031D02*
X10389230Y-22586079D01*
X10389230Y-22586079D02*
X10389230Y-22633698D01*
X10389230Y-22633698D02*
X10398753Y-22652746D01*
X10398753Y-22652746D02*
X10408277Y-22662269D01*
X10408277Y-22662269D02*
X10427325Y-22671793D01*
X10427325Y-22671793D02*
X10465420Y-22671793D01*
X10465420Y-22671793D02*
X10484468Y-22662269D01*
X10484468Y-22662269D02*
X10493991Y-22652746D01*
X10493991Y-22652746D02*
X10503515Y-22633698D01*
X10741611Y-22747984D02*
X10741611Y-22547984D01*
X10827325Y-22747984D02*
X10827325Y-22643222D01*
X10827325Y-22643222D02*
X10817801Y-22624174D01*
X10817801Y-22624174D02*
X10798753Y-22614650D01*
X10798753Y-22614650D02*
X10770182Y-22614650D01*
X10770182Y-22614650D02*
X10751134Y-22624174D01*
X10751134Y-22624174D02*
X10741611Y-22633698D01*
X10951134Y-22747984D02*
X10932087Y-22738460D01*
X10932087Y-22738460D02*
X10922563Y-22728936D01*
X10922563Y-22728936D02*
X10913039Y-22709888D01*
X10913039Y-22709888D02*
X10913039Y-22652746D01*
X10913039Y-22652746D02*
X10922563Y-22633698D01*
X10922563Y-22633698D02*
X10932087Y-22624174D01*
X10932087Y-22624174D02*
X10951134Y-22614650D01*
X10951134Y-22614650D02*
X10979706Y-22614650D01*
X10979706Y-22614650D02*
X10998753Y-22624174D01*
X10998753Y-22624174D02*
X11008277Y-22633698D01*
X11008277Y-22633698D02*
X11017801Y-22652746D01*
X11017801Y-22652746D02*
X11017801Y-22709888D01*
X11017801Y-22709888D02*
X11008277Y-22728936D01*
X11008277Y-22728936D02*
X10998753Y-22738460D01*
X10998753Y-22738460D02*
X10979706Y-22747984D01*
X10979706Y-22747984D02*
X10951134Y-22747984D01*
X11132087Y-22747984D02*
X11113039Y-22738460D01*
X11113039Y-22738460D02*
X11103515Y-22719412D01*
X11103515Y-22719412D02*
X11103515Y-22547984D01*
X11284468Y-22738460D02*
X11265420Y-22747984D01*
X11265420Y-22747984D02*
X11227325Y-22747984D01*
X11227325Y-22747984D02*
X11208277Y-22738460D01*
X11208277Y-22738460D02*
X11198753Y-22719412D01*
X11198753Y-22719412D02*
X11198753Y-22643222D01*
X11198753Y-22643222D02*
X11208277Y-22624174D01*
X11208277Y-22624174D02*
X11227325Y-22614650D01*
X11227325Y-22614650D02*
X11265420Y-22614650D01*
X11265420Y-22614650D02*
X11284468Y-22624174D01*
X11284468Y-22624174D02*
X11293991Y-22643222D01*
X11293991Y-22643222D02*
X11293991Y-22662269D01*
X11293991Y-22662269D02*
X11198753Y-22681317D01*
X11370182Y-22738460D02*
X11389230Y-22747984D01*
X11389230Y-22747984D02*
X11427325Y-22747984D01*
X11427325Y-22747984D02*
X11446372Y-22738460D01*
X11446372Y-22738460D02*
X11455896Y-22719412D01*
X11455896Y-22719412D02*
X11455896Y-22709888D01*
X11455896Y-22709888D02*
X11446372Y-22690841D01*
X11446372Y-22690841D02*
X11427325Y-22681317D01*
X11427325Y-22681317D02*
X11398753Y-22681317D01*
X11398753Y-22681317D02*
X11379706Y-22671793D01*
X11379706Y-22671793D02*
X11370182Y-22652746D01*
X11370182Y-22652746D02*
X11370182Y-22643222D01*
X11370182Y-22643222D02*
X11379706Y-22624174D01*
X11379706Y-22624174D02*
X11398753Y-22614650D01*
X11398753Y-22614650D02*
X11427325Y-22614650D01*
X11427325Y-22614650D02*
X11446372Y-22624174D01*
X11522563Y-22824174D02*
X11532087Y-22814650D01*
X11532087Y-22814650D02*
X11551134Y-22786079D01*
X11551134Y-22786079D02*
X11560658Y-22767031D01*
X11560658Y-22767031D02*
X11570182Y-22738460D01*
X11570182Y-22738460D02*
X11579706Y-22690841D01*
X11579706Y-22690841D02*
X11579706Y-22652746D01*
X11579706Y-22652746D02*
X11570182Y-22605127D01*
X11570182Y-22605127D02*
X11560658Y-22576555D01*
X11560658Y-22576555D02*
X11551134Y-22557508D01*
X11551134Y-22557508D02*
X11532087Y-22528936D01*
X11532087Y-22528936D02*
X11522563Y-22519412D01*
D12*
X6697500Y-22870500D02*
X6697500Y-22970500D01*
X6647500Y-22920500D02*
X6747500Y-22920500D01*
D11*
X7113039Y-23011984D02*
X6998753Y-23011984D01*
X7055896Y-23011984D02*
X7055896Y-22811984D01*
X7055896Y-22811984D02*
X7036848Y-22840555D01*
X7036848Y-22840555D02*
X7017801Y-22859603D01*
X7017801Y-22859603D02*
X6998753Y-22869127D01*
X7198753Y-22992936D02*
X7208277Y-23002460D01*
X7208277Y-23002460D02*
X7198753Y-23011984D01*
X7198753Y-23011984D02*
X7189229Y-23002460D01*
X7189229Y-23002460D02*
X7198753Y-22992936D01*
X7198753Y-22992936D02*
X7198753Y-23011984D01*
X7332086Y-22811984D02*
X7351134Y-22811984D01*
X7351134Y-22811984D02*
X7370182Y-22821508D01*
X7370182Y-22821508D02*
X7379705Y-22831031D01*
X7379705Y-22831031D02*
X7389229Y-22850079D01*
X7389229Y-22850079D02*
X7398753Y-22888174D01*
X7398753Y-22888174D02*
X7398753Y-22935793D01*
X7398753Y-22935793D02*
X7389229Y-22973888D01*
X7389229Y-22973888D02*
X7379705Y-22992936D01*
X7379705Y-22992936D02*
X7370182Y-23002460D01*
X7370182Y-23002460D02*
X7351134Y-23011984D01*
X7351134Y-23011984D02*
X7332086Y-23011984D01*
X7332086Y-23011984D02*
X7313039Y-23002460D01*
X7313039Y-23002460D02*
X7303515Y-22992936D01*
X7303515Y-22992936D02*
X7293991Y-22973888D01*
X7293991Y-22973888D02*
X7284467Y-22935793D01*
X7284467Y-22935793D02*
X7284467Y-22888174D01*
X7284467Y-22888174D02*
X7293991Y-22850079D01*
X7293991Y-22850079D02*
X7303515Y-22831031D01*
X7303515Y-22831031D02*
X7313039Y-22821508D01*
X7313039Y-22821508D02*
X7332086Y-22811984D01*
X7522562Y-22811984D02*
X7541610Y-22811984D01*
X7541610Y-22811984D02*
X7560658Y-22821508D01*
X7560658Y-22821508D02*
X7570182Y-22831031D01*
X7570182Y-22831031D02*
X7579705Y-22850079D01*
X7579705Y-22850079D02*
X7589229Y-22888174D01*
X7589229Y-22888174D02*
X7589229Y-22935793D01*
X7589229Y-22935793D02*
X7579705Y-22973888D01*
X7579705Y-22973888D02*
X7570182Y-22992936D01*
X7570182Y-22992936D02*
X7560658Y-23002460D01*
X7560658Y-23002460D02*
X7541610Y-23011984D01*
X7541610Y-23011984D02*
X7522562Y-23011984D01*
X7522562Y-23011984D02*
X7503515Y-23002460D01*
X7503515Y-23002460D02*
X7493991Y-22992936D01*
X7493991Y-22992936D02*
X7484467Y-22973888D01*
X7484467Y-22973888D02*
X7474943Y-22935793D01*
X7474943Y-22935793D02*
X7474943Y-22888174D01*
X7474943Y-22888174D02*
X7484467Y-22850079D01*
X7484467Y-22850079D02*
X7493991Y-22831031D01*
X7493991Y-22831031D02*
X7503515Y-22821508D01*
X7503515Y-22821508D02*
X7522562Y-22811984D01*
X7713039Y-22811984D02*
X7732086Y-22811984D01*
X7732086Y-22811984D02*
X7751134Y-22821508D01*
X7751134Y-22821508D02*
X7760658Y-22831031D01*
X7760658Y-22831031D02*
X7770182Y-22850079D01*
X7770182Y-22850079D02*
X7779705Y-22888174D01*
X7779705Y-22888174D02*
X7779705Y-22935793D01*
X7779705Y-22935793D02*
X7770182Y-22973888D01*
X7770182Y-22973888D02*
X7760658Y-22992936D01*
X7760658Y-22992936D02*
X7751134Y-23002460D01*
X7751134Y-23002460D02*
X7732086Y-23011984D01*
X7732086Y-23011984D02*
X7713039Y-23011984D01*
X7713039Y-23011984D02*
X7693991Y-23002460D01*
X7693991Y-23002460D02*
X7684467Y-22992936D01*
X7684467Y-22992936D02*
X7674943Y-22973888D01*
X7674943Y-22973888D02*
X7665420Y-22935793D01*
X7665420Y-22935793D02*
X7665420Y-22888174D01*
X7665420Y-22888174D02*
X7674943Y-22850079D01*
X7674943Y-22850079D02*
X7684467Y-22831031D01*
X7684467Y-22831031D02*
X7693991Y-22821508D01*
X7693991Y-22821508D02*
X7713039Y-22811984D01*
X7865420Y-23011984D02*
X7865420Y-22878650D01*
X7865420Y-22897698D02*
X7874943Y-22888174D01*
X7874943Y-22888174D02*
X7893991Y-22878650D01*
X7893991Y-22878650D02*
X7922563Y-22878650D01*
X7922563Y-22878650D02*
X7941610Y-22888174D01*
X7941610Y-22888174D02*
X7951134Y-22907222D01*
X7951134Y-22907222D02*
X7951134Y-23011984D01*
X7951134Y-22907222D02*
X7960658Y-22888174D01*
X7960658Y-22888174D02*
X7979705Y-22878650D01*
X7979705Y-22878650D02*
X8008277Y-22878650D01*
X8008277Y-22878650D02*
X8027324Y-22888174D01*
X8027324Y-22888174D02*
X8036848Y-22907222D01*
X8036848Y-22907222D02*
X8036848Y-23011984D01*
X8132086Y-23011984D02*
X8132086Y-22878650D01*
X8132086Y-22897698D02*
X8141610Y-22888174D01*
X8141610Y-22888174D02*
X8160658Y-22878650D01*
X8160658Y-22878650D02*
X8189229Y-22878650D01*
X8189229Y-22878650D02*
X8208277Y-22888174D01*
X8208277Y-22888174D02*
X8217801Y-22907222D01*
X8217801Y-22907222D02*
X8217801Y-23011984D01*
X8217801Y-22907222D02*
X8227324Y-22888174D01*
X8227324Y-22888174D02*
X8246372Y-22878650D01*
X8246372Y-22878650D02*
X8274943Y-22878650D01*
X8274943Y-22878650D02*
X8293991Y-22888174D01*
X8293991Y-22888174D02*
X8303515Y-22907222D01*
X8303515Y-22907222D02*
X8303515Y-23011984D01*
X8693991Y-22802460D02*
X8522563Y-23059603D01*
X8951134Y-22811984D02*
X8970182Y-22811984D01*
X8970182Y-22811984D02*
X8989229Y-22821508D01*
X8989229Y-22821508D02*
X8998753Y-22831031D01*
X8998753Y-22831031D02*
X9008277Y-22850079D01*
X9008277Y-22850079D02*
X9017801Y-22888174D01*
X9017801Y-22888174D02*
X9017801Y-22935793D01*
X9017801Y-22935793D02*
X9008277Y-22973888D01*
X9008277Y-22973888D02*
X8998753Y-22992936D01*
X8998753Y-22992936D02*
X8989229Y-23002460D01*
X8989229Y-23002460D02*
X8970182Y-23011984D01*
X8970182Y-23011984D02*
X8951134Y-23011984D01*
X8951134Y-23011984D02*
X8932087Y-23002460D01*
X8932087Y-23002460D02*
X8922563Y-22992936D01*
X8922563Y-22992936D02*
X8913039Y-22973888D01*
X8913039Y-22973888D02*
X8903515Y-22935793D01*
X8903515Y-22935793D02*
X8903515Y-22888174D01*
X8903515Y-22888174D02*
X8913039Y-22850079D01*
X8913039Y-22850079D02*
X8922563Y-22831031D01*
X8922563Y-22831031D02*
X8932087Y-22821508D01*
X8932087Y-22821508D02*
X8951134Y-22811984D01*
X9103515Y-22992936D02*
X9113039Y-23002460D01*
X9113039Y-23002460D02*
X9103515Y-23011984D01*
X9103515Y-23011984D02*
X9093991Y-23002460D01*
X9093991Y-23002460D02*
X9103515Y-22992936D01*
X9103515Y-22992936D02*
X9103515Y-23011984D01*
X9236848Y-22811984D02*
X9255896Y-22811984D01*
X9255896Y-22811984D02*
X9274944Y-22821508D01*
X9274944Y-22821508D02*
X9284468Y-22831031D01*
X9284468Y-22831031D02*
X9293991Y-22850079D01*
X9293991Y-22850079D02*
X9303515Y-22888174D01*
X9303515Y-22888174D02*
X9303515Y-22935793D01*
X9303515Y-22935793D02*
X9293991Y-22973888D01*
X9293991Y-22973888D02*
X9284468Y-22992936D01*
X9284468Y-22992936D02*
X9274944Y-23002460D01*
X9274944Y-23002460D02*
X9255896Y-23011984D01*
X9255896Y-23011984D02*
X9236848Y-23011984D01*
X9236848Y-23011984D02*
X9217801Y-23002460D01*
X9217801Y-23002460D02*
X9208277Y-22992936D01*
X9208277Y-22992936D02*
X9198753Y-22973888D01*
X9198753Y-22973888D02*
X9189229Y-22935793D01*
X9189229Y-22935793D02*
X9189229Y-22888174D01*
X9189229Y-22888174D02*
X9198753Y-22850079D01*
X9198753Y-22850079D02*
X9208277Y-22831031D01*
X9208277Y-22831031D02*
X9217801Y-22821508D01*
X9217801Y-22821508D02*
X9236848Y-22811984D01*
X9370182Y-22811984D02*
X9493991Y-22811984D01*
X9493991Y-22811984D02*
X9427325Y-22888174D01*
X9427325Y-22888174D02*
X9455896Y-22888174D01*
X9455896Y-22888174D02*
X9474944Y-22897698D01*
X9474944Y-22897698D02*
X9484468Y-22907222D01*
X9484468Y-22907222D02*
X9493991Y-22926269D01*
X9493991Y-22926269D02*
X9493991Y-22973888D01*
X9493991Y-22973888D02*
X9484468Y-22992936D01*
X9484468Y-22992936D02*
X9474944Y-23002460D01*
X9474944Y-23002460D02*
X9455896Y-23011984D01*
X9455896Y-23011984D02*
X9398753Y-23011984D01*
X9398753Y-23011984D02*
X9379706Y-23002460D01*
X9379706Y-23002460D02*
X9370182Y-22992936D01*
X9589229Y-23011984D02*
X9627325Y-23011984D01*
X9627325Y-23011984D02*
X9646372Y-23002460D01*
X9646372Y-23002460D02*
X9655896Y-22992936D01*
X9655896Y-22992936D02*
X9674944Y-22964365D01*
X9674944Y-22964365D02*
X9684468Y-22926269D01*
X9684468Y-22926269D02*
X9684468Y-22850079D01*
X9684468Y-22850079D02*
X9674944Y-22831031D01*
X9674944Y-22831031D02*
X9665420Y-22821508D01*
X9665420Y-22821508D02*
X9646372Y-22811984D01*
X9646372Y-22811984D02*
X9608277Y-22811984D01*
X9608277Y-22811984D02*
X9589229Y-22821508D01*
X9589229Y-22821508D02*
X9579706Y-22831031D01*
X9579706Y-22831031D02*
X9570182Y-22850079D01*
X9570182Y-22850079D02*
X9570182Y-22897698D01*
X9570182Y-22897698D02*
X9579706Y-22916746D01*
X9579706Y-22916746D02*
X9589229Y-22926269D01*
X9589229Y-22926269D02*
X9608277Y-22935793D01*
X9608277Y-22935793D02*
X9646372Y-22935793D01*
X9646372Y-22935793D02*
X9665420Y-22926269D01*
X9665420Y-22926269D02*
X9674944Y-22916746D01*
X9674944Y-22916746D02*
X9684468Y-22897698D01*
X9855896Y-22878650D02*
X9855896Y-23011984D01*
X9808277Y-22802460D02*
X9760658Y-22945317D01*
X9760658Y-22945317D02*
X9884468Y-22945317D01*
X9951134Y-22811984D02*
X9951134Y-22850079D01*
X10027325Y-22811984D02*
X10027325Y-22850079D01*
X10322563Y-23088174D02*
X10313039Y-23078650D01*
X10313039Y-23078650D02*
X10293991Y-23050079D01*
X10293991Y-23050079D02*
X10284468Y-23031031D01*
X10284468Y-23031031D02*
X10274944Y-23002460D01*
X10274944Y-23002460D02*
X10265420Y-22954841D01*
X10265420Y-22954841D02*
X10265420Y-22916746D01*
X10265420Y-22916746D02*
X10274944Y-22869127D01*
X10274944Y-22869127D02*
X10284468Y-22840555D01*
X10284468Y-22840555D02*
X10293991Y-22821508D01*
X10293991Y-22821508D02*
X10313039Y-22792936D01*
X10313039Y-22792936D02*
X10322563Y-22783412D01*
X10389230Y-22831031D02*
X10398753Y-22821508D01*
X10398753Y-22821508D02*
X10417801Y-22811984D01*
X10417801Y-22811984D02*
X10465420Y-22811984D01*
X10465420Y-22811984D02*
X10484468Y-22821508D01*
X10484468Y-22821508D02*
X10493991Y-22831031D01*
X10493991Y-22831031D02*
X10503515Y-22850079D01*
X10503515Y-22850079D02*
X10503515Y-22869127D01*
X10503515Y-22869127D02*
X10493991Y-22897698D01*
X10493991Y-22897698D02*
X10379706Y-23011984D01*
X10379706Y-23011984D02*
X10503515Y-23011984D01*
X10617801Y-22897698D02*
X10598753Y-22888174D01*
X10598753Y-22888174D02*
X10589230Y-22878650D01*
X10589230Y-22878650D02*
X10579706Y-22859603D01*
X10579706Y-22859603D02*
X10579706Y-22850079D01*
X10579706Y-22850079D02*
X10589230Y-22831031D01*
X10589230Y-22831031D02*
X10598753Y-22821508D01*
X10598753Y-22821508D02*
X10617801Y-22811984D01*
X10617801Y-22811984D02*
X10655896Y-22811984D01*
X10655896Y-22811984D02*
X10674944Y-22821508D01*
X10674944Y-22821508D02*
X10684468Y-22831031D01*
X10684468Y-22831031D02*
X10693991Y-22850079D01*
X10693991Y-22850079D02*
X10693991Y-22859603D01*
X10693991Y-22859603D02*
X10684468Y-22878650D01*
X10684468Y-22878650D02*
X10674944Y-22888174D01*
X10674944Y-22888174D02*
X10655896Y-22897698D01*
X10655896Y-22897698D02*
X10617801Y-22897698D01*
X10617801Y-22897698D02*
X10598753Y-22907222D01*
X10598753Y-22907222D02*
X10589230Y-22916746D01*
X10589230Y-22916746D02*
X10579706Y-22935793D01*
X10579706Y-22935793D02*
X10579706Y-22973888D01*
X10579706Y-22973888D02*
X10589230Y-22992936D01*
X10589230Y-22992936D02*
X10598753Y-23002460D01*
X10598753Y-23002460D02*
X10617801Y-23011984D01*
X10617801Y-23011984D02*
X10655896Y-23011984D01*
X10655896Y-23011984D02*
X10674944Y-23002460D01*
X10674944Y-23002460D02*
X10684468Y-22992936D01*
X10684468Y-22992936D02*
X10693991Y-22973888D01*
X10693991Y-22973888D02*
X10693991Y-22935793D01*
X10693991Y-22935793D02*
X10684468Y-22916746D01*
X10684468Y-22916746D02*
X10674944Y-22907222D01*
X10674944Y-22907222D02*
X10655896Y-22897698D01*
X10932087Y-23011984D02*
X10932087Y-22811984D01*
X11017801Y-23011984D02*
X11017801Y-22907222D01*
X11017801Y-22907222D02*
X11008277Y-22888174D01*
X11008277Y-22888174D02*
X10989230Y-22878650D01*
X10989230Y-22878650D02*
X10960658Y-22878650D01*
X10960658Y-22878650D02*
X10941611Y-22888174D01*
X10941611Y-22888174D02*
X10932087Y-22897698D01*
X11141611Y-23011984D02*
X11122563Y-23002460D01*
X11122563Y-23002460D02*
X11113039Y-22992936D01*
X11113039Y-22992936D02*
X11103515Y-22973888D01*
X11103515Y-22973888D02*
X11103515Y-22916746D01*
X11103515Y-22916746D02*
X11113039Y-22897698D01*
X11113039Y-22897698D02*
X11122563Y-22888174D01*
X11122563Y-22888174D02*
X11141611Y-22878650D01*
X11141611Y-22878650D02*
X11170182Y-22878650D01*
X11170182Y-22878650D02*
X11189230Y-22888174D01*
X11189230Y-22888174D02*
X11198753Y-22897698D01*
X11198753Y-22897698D02*
X11208277Y-22916746D01*
X11208277Y-22916746D02*
X11208277Y-22973888D01*
X11208277Y-22973888D02*
X11198753Y-22992936D01*
X11198753Y-22992936D02*
X11189230Y-23002460D01*
X11189230Y-23002460D02*
X11170182Y-23011984D01*
X11170182Y-23011984D02*
X11141611Y-23011984D01*
X11322563Y-23011984D02*
X11303515Y-23002460D01*
X11303515Y-23002460D02*
X11293991Y-22983412D01*
X11293991Y-22983412D02*
X11293991Y-22811984D01*
X11474944Y-23002460D02*
X11455896Y-23011984D01*
X11455896Y-23011984D02*
X11417801Y-23011984D01*
X11417801Y-23011984D02*
X11398753Y-23002460D01*
X11398753Y-23002460D02*
X11389230Y-22983412D01*
X11389230Y-22983412D02*
X11389230Y-22907222D01*
X11389230Y-22907222D02*
X11398753Y-22888174D01*
X11398753Y-22888174D02*
X11417801Y-22878650D01*
X11417801Y-22878650D02*
X11455896Y-22878650D01*
X11455896Y-22878650D02*
X11474944Y-22888174D01*
X11474944Y-22888174D02*
X11484468Y-22907222D01*
X11484468Y-22907222D02*
X11484468Y-22926269D01*
X11484468Y-22926269D02*
X11389230Y-22945317D01*
X11560658Y-23002460D02*
X11579706Y-23011984D01*
X11579706Y-23011984D02*
X11617801Y-23011984D01*
X11617801Y-23011984D02*
X11636849Y-23002460D01*
X11636849Y-23002460D02*
X11646372Y-22983412D01*
X11646372Y-22983412D02*
X11646372Y-22973888D01*
X11646372Y-22973888D02*
X11636849Y-22954841D01*
X11636849Y-22954841D02*
X11617801Y-22945317D01*
X11617801Y-22945317D02*
X11589230Y-22945317D01*
X11589230Y-22945317D02*
X11570182Y-22935793D01*
X11570182Y-22935793D02*
X11560658Y-22916746D01*
X11560658Y-22916746D02*
X11560658Y-22907222D01*
X11560658Y-22907222D02*
X11570182Y-22888174D01*
X11570182Y-22888174D02*
X11589230Y-22878650D01*
X11589230Y-22878650D02*
X11617801Y-22878650D01*
X11617801Y-22878650D02*
X11636849Y-22888174D01*
X11713039Y-23088174D02*
X11722563Y-23078650D01*
X11722563Y-23078650D02*
X11741611Y-23050079D01*
X11741611Y-23050079D02*
X11751134Y-23031031D01*
X11751134Y-23031031D02*
X11760658Y-23002460D01*
X11760658Y-23002460D02*
X11770182Y-22954841D01*
X11770182Y-22954841D02*
X11770182Y-22916746D01*
X11770182Y-22916746D02*
X11760658Y-22869127D01*
X11760658Y-22869127D02*
X11751134Y-22840555D01*
X11751134Y-22840555D02*
X11741611Y-22821508D01*
X11741611Y-22821508D02*
X11722563Y-22792936D01*
X11722563Y-22792936D02*
X11713039Y-22783412D01*
D13*
X6731391Y-23223391D02*
X6731391Y-23145609D01*
X6653609Y-23145609D01*
X6653609Y-23223391D01*
X6731391Y-23223391D01*
D11*
X7113039Y-23275984D02*
X6998753Y-23275984D01*
X7055896Y-23275984D02*
X7055896Y-23075984D01*
X7055896Y-23075984D02*
X7036848Y-23104555D01*
X7036848Y-23104555D02*
X7017801Y-23123603D01*
X7017801Y-23123603D02*
X6998753Y-23133127D01*
X7198753Y-23256936D02*
X7208277Y-23266460D01*
X7208277Y-23266460D02*
X7198753Y-23275984D01*
X7198753Y-23275984D02*
X7189229Y-23266460D01*
X7189229Y-23266460D02*
X7198753Y-23256936D01*
X7198753Y-23256936D02*
X7198753Y-23275984D01*
X7398753Y-23275984D02*
X7284467Y-23275984D01*
X7341610Y-23275984D02*
X7341610Y-23075984D01*
X7341610Y-23075984D02*
X7322562Y-23104555D01*
X7322562Y-23104555D02*
X7303515Y-23123603D01*
X7303515Y-23123603D02*
X7284467Y-23133127D01*
X7522562Y-23075984D02*
X7541610Y-23075984D01*
X7541610Y-23075984D02*
X7560658Y-23085508D01*
X7560658Y-23085508D02*
X7570182Y-23095031D01*
X7570182Y-23095031D02*
X7579705Y-23114079D01*
X7579705Y-23114079D02*
X7589229Y-23152174D01*
X7589229Y-23152174D02*
X7589229Y-23199793D01*
X7589229Y-23199793D02*
X7579705Y-23237888D01*
X7579705Y-23237888D02*
X7570182Y-23256936D01*
X7570182Y-23256936D02*
X7560658Y-23266460D01*
X7560658Y-23266460D02*
X7541610Y-23275984D01*
X7541610Y-23275984D02*
X7522562Y-23275984D01*
X7522562Y-23275984D02*
X7503515Y-23266460D01*
X7503515Y-23266460D02*
X7493991Y-23256936D01*
X7493991Y-23256936D02*
X7484467Y-23237888D01*
X7484467Y-23237888D02*
X7474943Y-23199793D01*
X7474943Y-23199793D02*
X7474943Y-23152174D01*
X7474943Y-23152174D02*
X7484467Y-23114079D01*
X7484467Y-23114079D02*
X7493991Y-23095031D01*
X7493991Y-23095031D02*
X7503515Y-23085508D01*
X7503515Y-23085508D02*
X7522562Y-23075984D01*
X7713039Y-23075984D02*
X7732086Y-23075984D01*
X7732086Y-23075984D02*
X7751134Y-23085508D01*
X7751134Y-23085508D02*
X7760658Y-23095031D01*
X7760658Y-23095031D02*
X7770182Y-23114079D01*
X7770182Y-23114079D02*
X7779705Y-23152174D01*
X7779705Y-23152174D02*
X7779705Y-23199793D01*
X7779705Y-23199793D02*
X7770182Y-23237888D01*
X7770182Y-23237888D02*
X7760658Y-23256936D01*
X7760658Y-23256936D02*
X7751134Y-23266460D01*
X7751134Y-23266460D02*
X7732086Y-23275984D01*
X7732086Y-23275984D02*
X7713039Y-23275984D01*
X7713039Y-23275984D02*
X7693991Y-23266460D01*
X7693991Y-23266460D02*
X7684467Y-23256936D01*
X7684467Y-23256936D02*
X7674943Y-23237888D01*
X7674943Y-23237888D02*
X7665420Y-23199793D01*
X7665420Y-23199793D02*
X7665420Y-23152174D01*
X7665420Y-23152174D02*
X7674943Y-23114079D01*
X7674943Y-23114079D02*
X7684467Y-23095031D01*
X7684467Y-23095031D02*
X7693991Y-23085508D01*
X7693991Y-23085508D02*
X7713039Y-23075984D01*
X7865420Y-23275984D02*
X7865420Y-23142650D01*
X7865420Y-23161698D02*
X7874943Y-23152174D01*
X7874943Y-23152174D02*
X7893991Y-23142650D01*
X7893991Y-23142650D02*
X7922563Y-23142650D01*
X7922563Y-23142650D02*
X7941610Y-23152174D01*
X7941610Y-23152174D02*
X7951134Y-23171222D01*
X7951134Y-23171222D02*
X7951134Y-23275984D01*
X7951134Y-23171222D02*
X7960658Y-23152174D01*
X7960658Y-23152174D02*
X7979705Y-23142650D01*
X7979705Y-23142650D02*
X8008277Y-23142650D01*
X8008277Y-23142650D02*
X8027324Y-23152174D01*
X8027324Y-23152174D02*
X8036848Y-23171222D01*
X8036848Y-23171222D02*
X8036848Y-23275984D01*
X8132086Y-23275984D02*
X8132086Y-23142650D01*
X8132086Y-23161698D02*
X8141610Y-23152174D01*
X8141610Y-23152174D02*
X8160658Y-23142650D01*
X8160658Y-23142650D02*
X8189229Y-23142650D01*
X8189229Y-23142650D02*
X8208277Y-23152174D01*
X8208277Y-23152174D02*
X8217801Y-23171222D01*
X8217801Y-23171222D02*
X8217801Y-23275984D01*
X8217801Y-23171222D02*
X8227324Y-23152174D01*
X8227324Y-23152174D02*
X8246372Y-23142650D01*
X8246372Y-23142650D02*
X8274943Y-23142650D01*
X8274943Y-23142650D02*
X8293991Y-23152174D01*
X8293991Y-23152174D02*
X8303515Y-23171222D01*
X8303515Y-23171222D02*
X8303515Y-23275984D01*
X8693991Y-23066460D02*
X8522563Y-23323603D01*
X8951134Y-23075984D02*
X8970182Y-23075984D01*
X8970182Y-23075984D02*
X8989229Y-23085508D01*
X8989229Y-23085508D02*
X8998753Y-23095031D01*
X8998753Y-23095031D02*
X9008277Y-23114079D01*
X9008277Y-23114079D02*
X9017801Y-23152174D01*
X9017801Y-23152174D02*
X9017801Y-23199793D01*
X9017801Y-23199793D02*
X9008277Y-23237888D01*
X9008277Y-23237888D02*
X8998753Y-23256936D01*
X8998753Y-23256936D02*
X8989229Y-23266460D01*
X8989229Y-23266460D02*
X8970182Y-23275984D01*
X8970182Y-23275984D02*
X8951134Y-23275984D01*
X8951134Y-23275984D02*
X8932087Y-23266460D01*
X8932087Y-23266460D02*
X8922563Y-23256936D01*
X8922563Y-23256936D02*
X8913039Y-23237888D01*
X8913039Y-23237888D02*
X8903515Y-23199793D01*
X8903515Y-23199793D02*
X8903515Y-23152174D01*
X8903515Y-23152174D02*
X8913039Y-23114079D01*
X8913039Y-23114079D02*
X8922563Y-23095031D01*
X8922563Y-23095031D02*
X8932087Y-23085508D01*
X8932087Y-23085508D02*
X8951134Y-23075984D01*
X9103515Y-23256936D02*
X9113039Y-23266460D01*
X9113039Y-23266460D02*
X9103515Y-23275984D01*
X9103515Y-23275984D02*
X9093991Y-23266460D01*
X9093991Y-23266460D02*
X9103515Y-23256936D01*
X9103515Y-23256936D02*
X9103515Y-23275984D01*
X9236848Y-23075984D02*
X9255896Y-23075984D01*
X9255896Y-23075984D02*
X9274944Y-23085508D01*
X9274944Y-23085508D02*
X9284468Y-23095031D01*
X9284468Y-23095031D02*
X9293991Y-23114079D01*
X9293991Y-23114079D02*
X9303515Y-23152174D01*
X9303515Y-23152174D02*
X9303515Y-23199793D01*
X9303515Y-23199793D02*
X9293991Y-23237888D01*
X9293991Y-23237888D02*
X9284468Y-23256936D01*
X9284468Y-23256936D02*
X9274944Y-23266460D01*
X9274944Y-23266460D02*
X9255896Y-23275984D01*
X9255896Y-23275984D02*
X9236848Y-23275984D01*
X9236848Y-23275984D02*
X9217801Y-23266460D01*
X9217801Y-23266460D02*
X9208277Y-23256936D01*
X9208277Y-23256936D02*
X9198753Y-23237888D01*
X9198753Y-23237888D02*
X9189229Y-23199793D01*
X9189229Y-23199793D02*
X9189229Y-23152174D01*
X9189229Y-23152174D02*
X9198753Y-23114079D01*
X9198753Y-23114079D02*
X9208277Y-23095031D01*
X9208277Y-23095031D02*
X9217801Y-23085508D01*
X9217801Y-23085508D02*
X9236848Y-23075984D01*
X9474944Y-23142650D02*
X9474944Y-23275984D01*
X9427325Y-23066460D02*
X9379706Y-23209317D01*
X9379706Y-23209317D02*
X9503515Y-23209317D01*
X9560658Y-23075984D02*
X9684468Y-23075984D01*
X9684468Y-23075984D02*
X9617801Y-23152174D01*
X9617801Y-23152174D02*
X9646372Y-23152174D01*
X9646372Y-23152174D02*
X9665420Y-23161698D01*
X9665420Y-23161698D02*
X9674944Y-23171222D01*
X9674944Y-23171222D02*
X9684468Y-23190269D01*
X9684468Y-23190269D02*
X9684468Y-23237888D01*
X9684468Y-23237888D02*
X9674944Y-23256936D01*
X9674944Y-23256936D02*
X9665420Y-23266460D01*
X9665420Y-23266460D02*
X9646372Y-23275984D01*
X9646372Y-23275984D02*
X9589229Y-23275984D01*
X9589229Y-23275984D02*
X9570182Y-23266460D01*
X9570182Y-23266460D02*
X9560658Y-23256936D01*
X9751134Y-23075984D02*
X9874944Y-23075984D01*
X9874944Y-23075984D02*
X9808277Y-23152174D01*
X9808277Y-23152174D02*
X9836849Y-23152174D01*
X9836849Y-23152174D02*
X9855896Y-23161698D01*
X9855896Y-23161698D02*
X9865420Y-23171222D01*
X9865420Y-23171222D02*
X9874944Y-23190269D01*
X9874944Y-23190269D02*
X9874944Y-23237888D01*
X9874944Y-23237888D02*
X9865420Y-23256936D01*
X9865420Y-23256936D02*
X9855896Y-23266460D01*
X9855896Y-23266460D02*
X9836849Y-23275984D01*
X9836849Y-23275984D02*
X9779706Y-23275984D01*
X9779706Y-23275984D02*
X9760658Y-23266460D01*
X9760658Y-23266460D02*
X9751134Y-23256936D01*
X9951134Y-23075984D02*
X9951134Y-23114079D01*
X10027325Y-23075984D02*
X10027325Y-23114079D01*
X10322563Y-23352174D02*
X10313039Y-23342650D01*
X10313039Y-23342650D02*
X10293991Y-23314079D01*
X10293991Y-23314079D02*
X10284468Y-23295031D01*
X10284468Y-23295031D02*
X10274944Y-23266460D01*
X10274944Y-23266460D02*
X10265420Y-23218841D01*
X10265420Y-23218841D02*
X10265420Y-23180746D01*
X10265420Y-23180746D02*
X10274944Y-23133127D01*
X10274944Y-23133127D02*
X10284468Y-23104555D01*
X10284468Y-23104555D02*
X10293991Y-23085508D01*
X10293991Y-23085508D02*
X10313039Y-23056936D01*
X10313039Y-23056936D02*
X10322563Y-23047412D01*
X10436849Y-23075984D02*
X10455896Y-23075984D01*
X10455896Y-23075984D02*
X10474944Y-23085508D01*
X10474944Y-23085508D02*
X10484468Y-23095031D01*
X10484468Y-23095031D02*
X10493991Y-23114079D01*
X10493991Y-23114079D02*
X10503515Y-23152174D01*
X10503515Y-23152174D02*
X10503515Y-23199793D01*
X10503515Y-23199793D02*
X10493991Y-23237888D01*
X10493991Y-23237888D02*
X10484468Y-23256936D01*
X10484468Y-23256936D02*
X10474944Y-23266460D01*
X10474944Y-23266460D02*
X10455896Y-23275984D01*
X10455896Y-23275984D02*
X10436849Y-23275984D01*
X10436849Y-23275984D02*
X10417801Y-23266460D01*
X10417801Y-23266460D02*
X10408277Y-23256936D01*
X10408277Y-23256936D02*
X10398753Y-23237888D01*
X10398753Y-23237888D02*
X10389230Y-23199793D01*
X10389230Y-23199793D02*
X10389230Y-23152174D01*
X10389230Y-23152174D02*
X10398753Y-23114079D01*
X10398753Y-23114079D02*
X10408277Y-23095031D01*
X10408277Y-23095031D02*
X10417801Y-23085508D01*
X10417801Y-23085508D02*
X10436849Y-23075984D01*
X10741611Y-23275984D02*
X10741611Y-23075984D01*
X10827325Y-23275984D02*
X10827325Y-23171222D01*
X10827325Y-23171222D02*
X10817801Y-23152174D01*
X10817801Y-23152174D02*
X10798753Y-23142650D01*
X10798753Y-23142650D02*
X10770182Y-23142650D01*
X10770182Y-23142650D02*
X10751134Y-23152174D01*
X10751134Y-23152174D02*
X10741611Y-23161698D01*
X10951134Y-23275984D02*
X10932087Y-23266460D01*
X10932087Y-23266460D02*
X10922563Y-23256936D01*
X10922563Y-23256936D02*
X10913039Y-23237888D01*
X10913039Y-23237888D02*
X10913039Y-23180746D01*
X10913039Y-23180746D02*
X10922563Y-23161698D01*
X10922563Y-23161698D02*
X10932087Y-23152174D01*
X10932087Y-23152174D02*
X10951134Y-23142650D01*
X10951134Y-23142650D02*
X10979706Y-23142650D01*
X10979706Y-23142650D02*
X10998753Y-23152174D01*
X10998753Y-23152174D02*
X11008277Y-23161698D01*
X11008277Y-23161698D02*
X11017801Y-23180746D01*
X11017801Y-23180746D02*
X11017801Y-23237888D01*
X11017801Y-23237888D02*
X11008277Y-23256936D01*
X11008277Y-23256936D02*
X10998753Y-23266460D01*
X10998753Y-23266460D02*
X10979706Y-23275984D01*
X10979706Y-23275984D02*
X10951134Y-23275984D01*
X11132087Y-23275984D02*
X11113039Y-23266460D01*
X11113039Y-23266460D02*
X11103515Y-23247412D01*
X11103515Y-23247412D02*
X11103515Y-23075984D01*
X11284468Y-23266460D02*
X11265420Y-23275984D01*
X11265420Y-23275984D02*
X11227325Y-23275984D01*
X11227325Y-23275984D02*
X11208277Y-23266460D01*
X11208277Y-23266460D02*
X11198753Y-23247412D01*
X11198753Y-23247412D02*
X11198753Y-23171222D01*
X11198753Y-23171222D02*
X11208277Y-23152174D01*
X11208277Y-23152174D02*
X11227325Y-23142650D01*
X11227325Y-23142650D02*
X11265420Y-23142650D01*
X11265420Y-23142650D02*
X11284468Y-23152174D01*
X11284468Y-23152174D02*
X11293991Y-23171222D01*
X11293991Y-23171222D02*
X11293991Y-23190269D01*
X11293991Y-23190269D02*
X11198753Y-23209317D01*
X11370182Y-23266460D02*
X11389230Y-23275984D01*
X11389230Y-23275984D02*
X11427325Y-23275984D01*
X11427325Y-23275984D02*
X11446372Y-23266460D01*
X11446372Y-23266460D02*
X11455896Y-23247412D01*
X11455896Y-23247412D02*
X11455896Y-23237888D01*
X11455896Y-23237888D02*
X11446372Y-23218841D01*
X11446372Y-23218841D02*
X11427325Y-23209317D01*
X11427325Y-23209317D02*
X11398753Y-23209317D01*
X11398753Y-23209317D02*
X11379706Y-23199793D01*
X11379706Y-23199793D02*
X11370182Y-23180746D01*
X11370182Y-23180746D02*
X11370182Y-23171222D01*
X11370182Y-23171222D02*
X11379706Y-23152174D01*
X11379706Y-23152174D02*
X11398753Y-23142650D01*
X11398753Y-23142650D02*
X11427325Y-23142650D01*
X11427325Y-23142650D02*
X11446372Y-23152174D01*
X11693992Y-23199793D02*
X11846373Y-23199793D01*
X11770182Y-23275984D02*
X11770182Y-23123603D01*
X12179706Y-23075984D02*
X12141611Y-23075984D01*
X12141611Y-23075984D02*
X12122563Y-23085508D01*
X12122563Y-23085508D02*
X12113039Y-23095031D01*
X12113039Y-23095031D02*
X12093992Y-23123603D01*
X12093992Y-23123603D02*
X12084468Y-23161698D01*
X12084468Y-23161698D02*
X12084468Y-23237888D01*
X12084468Y-23237888D02*
X12093992Y-23256936D01*
X12093992Y-23256936D02*
X12103515Y-23266460D01*
X12103515Y-23266460D02*
X12122563Y-23275984D01*
X12122563Y-23275984D02*
X12160658Y-23275984D01*
X12160658Y-23275984D02*
X12179706Y-23266460D01*
X12179706Y-23266460D02*
X12189230Y-23256936D01*
X12189230Y-23256936D02*
X12198753Y-23237888D01*
X12198753Y-23237888D02*
X12198753Y-23190269D01*
X12198753Y-23190269D02*
X12189230Y-23171222D01*
X12189230Y-23171222D02*
X12179706Y-23161698D01*
X12179706Y-23161698D02*
X12160658Y-23152174D01*
X12160658Y-23152174D02*
X12122563Y-23152174D01*
X12122563Y-23152174D02*
X12103515Y-23161698D01*
X12103515Y-23161698D02*
X12093992Y-23171222D01*
X12093992Y-23171222D02*
X12084468Y-23190269D01*
X12427325Y-23266460D02*
X12446373Y-23275984D01*
X12446373Y-23275984D02*
X12484468Y-23275984D01*
X12484468Y-23275984D02*
X12503515Y-23266460D01*
X12503515Y-23266460D02*
X12513039Y-23247412D01*
X12513039Y-23247412D02*
X12513039Y-23237888D01*
X12513039Y-23237888D02*
X12503515Y-23218841D01*
X12503515Y-23218841D02*
X12484468Y-23209317D01*
X12484468Y-23209317D02*
X12455896Y-23209317D01*
X12455896Y-23209317D02*
X12436849Y-23199793D01*
X12436849Y-23199793D02*
X12427325Y-23180746D01*
X12427325Y-23180746D02*
X12427325Y-23171222D01*
X12427325Y-23171222D02*
X12436849Y-23152174D01*
X12436849Y-23152174D02*
X12455896Y-23142650D01*
X12455896Y-23142650D02*
X12484468Y-23142650D01*
X12484468Y-23142650D02*
X12503515Y-23152174D01*
X12627325Y-23275984D02*
X12608277Y-23266460D01*
X12608277Y-23266460D02*
X12598754Y-23247412D01*
X12598754Y-23247412D02*
X12598754Y-23075984D01*
X12732087Y-23275984D02*
X12713039Y-23266460D01*
X12713039Y-23266460D02*
X12703515Y-23256936D01*
X12703515Y-23256936D02*
X12693992Y-23237888D01*
X12693992Y-23237888D02*
X12693992Y-23180746D01*
X12693992Y-23180746D02*
X12703515Y-23161698D01*
X12703515Y-23161698D02*
X12713039Y-23152174D01*
X12713039Y-23152174D02*
X12732087Y-23142650D01*
X12732087Y-23142650D02*
X12760658Y-23142650D01*
X12760658Y-23142650D02*
X12779706Y-23152174D01*
X12779706Y-23152174D02*
X12789230Y-23161698D01*
X12789230Y-23161698D02*
X12798754Y-23180746D01*
X12798754Y-23180746D02*
X12798754Y-23237888D01*
X12798754Y-23237888D02*
X12789230Y-23256936D01*
X12789230Y-23256936D02*
X12779706Y-23266460D01*
X12779706Y-23266460D02*
X12760658Y-23275984D01*
X12760658Y-23275984D02*
X12732087Y-23275984D01*
X12855896Y-23142650D02*
X12932087Y-23142650D01*
X12884468Y-23075984D02*
X12884468Y-23247412D01*
X12884468Y-23247412D02*
X12893992Y-23266460D01*
X12893992Y-23266460D02*
X12913039Y-23275984D01*
X12913039Y-23275984D02*
X12932087Y-23275984D01*
X12989230Y-23266460D02*
X13008277Y-23275984D01*
X13008277Y-23275984D02*
X13046373Y-23275984D01*
X13046373Y-23275984D02*
X13065420Y-23266460D01*
X13065420Y-23266460D02*
X13074944Y-23247412D01*
X13074944Y-23247412D02*
X13074944Y-23237888D01*
X13074944Y-23237888D02*
X13065420Y-23218841D01*
X13065420Y-23218841D02*
X13046373Y-23209317D01*
X13046373Y-23209317D02*
X13017801Y-23209317D01*
X13017801Y-23209317D02*
X12998754Y-23199793D01*
X12998754Y-23199793D02*
X12989230Y-23180746D01*
X12989230Y-23180746D02*
X12989230Y-23171222D01*
X12989230Y-23171222D02*
X12998754Y-23152174D01*
X12998754Y-23152174D02*
X13017801Y-23142650D01*
X13017801Y-23142650D02*
X13046373Y-23142650D01*
X13046373Y-23142650D02*
X13065420Y-23152174D01*
X13141611Y-23352174D02*
X13151135Y-23342650D01*
X13151135Y-23342650D02*
X13170182Y-23314079D01*
X13170182Y-23314079D02*
X13179706Y-23295031D01*
X13179706Y-23295031D02*
X13189230Y-23266460D01*
X13189230Y-23266460D02*
X13198754Y-23218841D01*
X13198754Y-23218841D02*
X13198754Y-23180746D01*
X13198754Y-23180746D02*
X13189230Y-23133127D01*
X13189230Y-23133127D02*
X13179706Y-23104555D01*
X13179706Y-23104555D02*
X13170182Y-23085508D01*
X13170182Y-23085508D02*
X13151135Y-23056936D01*
X13151135Y-23056936D02*
X13141611Y-23047412D01*
D14*
X6667500Y-23528500D02*
X6747500Y-23448500D01*
X6667500Y-23368500D01*
X6587500Y-23448500D01*
X6667500Y-23528500D01*
D11*
X7113039Y-23539984D02*
X6998753Y-23539984D01*
X7055896Y-23539984D02*
X7055896Y-23339984D01*
X7055896Y-23339984D02*
X7036848Y-23368555D01*
X7036848Y-23368555D02*
X7017801Y-23387603D01*
X7017801Y-23387603D02*
X6998753Y-23397127D01*
X7198753Y-23520936D02*
X7208277Y-23530460D01*
X7208277Y-23530460D02*
X7198753Y-23539984D01*
X7198753Y-23539984D02*
X7189229Y-23530460D01*
X7189229Y-23530460D02*
X7198753Y-23520936D01*
X7198753Y-23520936D02*
X7198753Y-23539984D01*
X7379705Y-23339984D02*
X7341610Y-23339984D01*
X7341610Y-23339984D02*
X7322562Y-23349508D01*
X7322562Y-23349508D02*
X7313039Y-23359031D01*
X7313039Y-23359031D02*
X7293991Y-23387603D01*
X7293991Y-23387603D02*
X7284467Y-23425698D01*
X7284467Y-23425698D02*
X7284467Y-23501888D01*
X7284467Y-23501888D02*
X7293991Y-23520936D01*
X7293991Y-23520936D02*
X7303515Y-23530460D01*
X7303515Y-23530460D02*
X7322562Y-23539984D01*
X7322562Y-23539984D02*
X7360658Y-23539984D01*
X7360658Y-23539984D02*
X7379705Y-23530460D01*
X7379705Y-23530460D02*
X7389229Y-23520936D01*
X7389229Y-23520936D02*
X7398753Y-23501888D01*
X7398753Y-23501888D02*
X7398753Y-23454269D01*
X7398753Y-23454269D02*
X7389229Y-23435222D01*
X7389229Y-23435222D02*
X7379705Y-23425698D01*
X7379705Y-23425698D02*
X7360658Y-23416174D01*
X7360658Y-23416174D02*
X7322562Y-23416174D01*
X7322562Y-23416174D02*
X7303515Y-23425698D01*
X7303515Y-23425698D02*
X7293991Y-23435222D01*
X7293991Y-23435222D02*
X7284467Y-23454269D01*
X7522562Y-23339984D02*
X7541610Y-23339984D01*
X7541610Y-23339984D02*
X7560658Y-23349508D01*
X7560658Y-23349508D02*
X7570182Y-23359031D01*
X7570182Y-23359031D02*
X7579705Y-23378079D01*
X7579705Y-23378079D02*
X7589229Y-23416174D01*
X7589229Y-23416174D02*
X7589229Y-23463793D01*
X7589229Y-23463793D02*
X7579705Y-23501888D01*
X7579705Y-23501888D02*
X7570182Y-23520936D01*
X7570182Y-23520936D02*
X7560658Y-23530460D01*
X7560658Y-23530460D02*
X7541610Y-23539984D01*
X7541610Y-23539984D02*
X7522562Y-23539984D01*
X7522562Y-23539984D02*
X7503515Y-23530460D01*
X7503515Y-23530460D02*
X7493991Y-23520936D01*
X7493991Y-23520936D02*
X7484467Y-23501888D01*
X7484467Y-23501888D02*
X7474943Y-23463793D01*
X7474943Y-23463793D02*
X7474943Y-23416174D01*
X7474943Y-23416174D02*
X7484467Y-23378079D01*
X7484467Y-23378079D02*
X7493991Y-23359031D01*
X7493991Y-23359031D02*
X7503515Y-23349508D01*
X7503515Y-23349508D02*
X7522562Y-23339984D01*
X7713039Y-23339984D02*
X7732086Y-23339984D01*
X7732086Y-23339984D02*
X7751134Y-23349508D01*
X7751134Y-23349508D02*
X7760658Y-23359031D01*
X7760658Y-23359031D02*
X7770182Y-23378079D01*
X7770182Y-23378079D02*
X7779705Y-23416174D01*
X7779705Y-23416174D02*
X7779705Y-23463793D01*
X7779705Y-23463793D02*
X7770182Y-23501888D01*
X7770182Y-23501888D02*
X7760658Y-23520936D01*
X7760658Y-23520936D02*
X7751134Y-23530460D01*
X7751134Y-23530460D02*
X7732086Y-23539984D01*
X7732086Y-23539984D02*
X7713039Y-23539984D01*
X7713039Y-23539984D02*
X7693991Y-23530460D01*
X7693991Y-23530460D02*
X7684467Y-23520936D01*
X7684467Y-23520936D02*
X7674943Y-23501888D01*
X7674943Y-23501888D02*
X7665420Y-23463793D01*
X7665420Y-23463793D02*
X7665420Y-23416174D01*
X7665420Y-23416174D02*
X7674943Y-23378079D01*
X7674943Y-23378079D02*
X7684467Y-23359031D01*
X7684467Y-23359031D02*
X7693991Y-23349508D01*
X7693991Y-23349508D02*
X7713039Y-23339984D01*
X7865420Y-23539984D02*
X7865420Y-23406650D01*
X7865420Y-23425698D02*
X7874943Y-23416174D01*
X7874943Y-23416174D02*
X7893991Y-23406650D01*
X7893991Y-23406650D02*
X7922563Y-23406650D01*
X7922563Y-23406650D02*
X7941610Y-23416174D01*
X7941610Y-23416174D02*
X7951134Y-23435222D01*
X7951134Y-23435222D02*
X7951134Y-23539984D01*
X7951134Y-23435222D02*
X7960658Y-23416174D01*
X7960658Y-23416174D02*
X7979705Y-23406650D01*
X7979705Y-23406650D02*
X8008277Y-23406650D01*
X8008277Y-23406650D02*
X8027324Y-23416174D01*
X8027324Y-23416174D02*
X8036848Y-23435222D01*
X8036848Y-23435222D02*
X8036848Y-23539984D01*
X8132086Y-23539984D02*
X8132086Y-23406650D01*
X8132086Y-23425698D02*
X8141610Y-23416174D01*
X8141610Y-23416174D02*
X8160658Y-23406650D01*
X8160658Y-23406650D02*
X8189229Y-23406650D01*
X8189229Y-23406650D02*
X8208277Y-23416174D01*
X8208277Y-23416174D02*
X8217801Y-23435222D01*
X8217801Y-23435222D02*
X8217801Y-23539984D01*
X8217801Y-23435222D02*
X8227324Y-23416174D01*
X8227324Y-23416174D02*
X8246372Y-23406650D01*
X8246372Y-23406650D02*
X8274943Y-23406650D01*
X8274943Y-23406650D02*
X8293991Y-23416174D01*
X8293991Y-23416174D02*
X8303515Y-23435222D01*
X8303515Y-23435222D02*
X8303515Y-23539984D01*
X8693991Y-23330460D02*
X8522563Y-23587603D01*
X8951134Y-23339984D02*
X8970182Y-23339984D01*
X8970182Y-23339984D02*
X8989229Y-23349508D01*
X8989229Y-23349508D02*
X8998753Y-23359031D01*
X8998753Y-23359031D02*
X9008277Y-23378079D01*
X9008277Y-23378079D02*
X9017801Y-23416174D01*
X9017801Y-23416174D02*
X9017801Y-23463793D01*
X9017801Y-23463793D02*
X9008277Y-23501888D01*
X9008277Y-23501888D02*
X8998753Y-23520936D01*
X8998753Y-23520936D02*
X8989229Y-23530460D01*
X8989229Y-23530460D02*
X8970182Y-23539984D01*
X8970182Y-23539984D02*
X8951134Y-23539984D01*
X8951134Y-23539984D02*
X8932087Y-23530460D01*
X8932087Y-23530460D02*
X8922563Y-23520936D01*
X8922563Y-23520936D02*
X8913039Y-23501888D01*
X8913039Y-23501888D02*
X8903515Y-23463793D01*
X8903515Y-23463793D02*
X8903515Y-23416174D01*
X8903515Y-23416174D02*
X8913039Y-23378079D01*
X8913039Y-23378079D02*
X8922563Y-23359031D01*
X8922563Y-23359031D02*
X8932087Y-23349508D01*
X8932087Y-23349508D02*
X8951134Y-23339984D01*
X9103515Y-23520936D02*
X9113039Y-23530460D01*
X9113039Y-23530460D02*
X9103515Y-23539984D01*
X9103515Y-23539984D02*
X9093991Y-23530460D01*
X9093991Y-23530460D02*
X9103515Y-23520936D01*
X9103515Y-23520936D02*
X9103515Y-23539984D01*
X9236848Y-23339984D02*
X9255896Y-23339984D01*
X9255896Y-23339984D02*
X9274944Y-23349508D01*
X9274944Y-23349508D02*
X9284468Y-23359031D01*
X9284468Y-23359031D02*
X9293991Y-23378079D01*
X9293991Y-23378079D02*
X9303515Y-23416174D01*
X9303515Y-23416174D02*
X9303515Y-23463793D01*
X9303515Y-23463793D02*
X9293991Y-23501888D01*
X9293991Y-23501888D02*
X9284468Y-23520936D01*
X9284468Y-23520936D02*
X9274944Y-23530460D01*
X9274944Y-23530460D02*
X9255896Y-23539984D01*
X9255896Y-23539984D02*
X9236848Y-23539984D01*
X9236848Y-23539984D02*
X9217801Y-23530460D01*
X9217801Y-23530460D02*
X9208277Y-23520936D01*
X9208277Y-23520936D02*
X9198753Y-23501888D01*
X9198753Y-23501888D02*
X9189229Y-23463793D01*
X9189229Y-23463793D02*
X9189229Y-23416174D01*
X9189229Y-23416174D02*
X9198753Y-23378079D01*
X9198753Y-23378079D02*
X9208277Y-23359031D01*
X9208277Y-23359031D02*
X9217801Y-23349508D01*
X9217801Y-23349508D02*
X9236848Y-23339984D01*
X9474944Y-23339984D02*
X9436848Y-23339984D01*
X9436848Y-23339984D02*
X9417801Y-23349508D01*
X9417801Y-23349508D02*
X9408277Y-23359031D01*
X9408277Y-23359031D02*
X9389229Y-23387603D01*
X9389229Y-23387603D02*
X9379706Y-23425698D01*
X9379706Y-23425698D02*
X9379706Y-23501888D01*
X9379706Y-23501888D02*
X9389229Y-23520936D01*
X9389229Y-23520936D02*
X9398753Y-23530460D01*
X9398753Y-23530460D02*
X9417801Y-23539984D01*
X9417801Y-23539984D02*
X9455896Y-23539984D01*
X9455896Y-23539984D02*
X9474944Y-23530460D01*
X9474944Y-23530460D02*
X9484468Y-23520936D01*
X9484468Y-23520936D02*
X9493991Y-23501888D01*
X9493991Y-23501888D02*
X9493991Y-23454269D01*
X9493991Y-23454269D02*
X9484468Y-23435222D01*
X9484468Y-23435222D02*
X9474944Y-23425698D01*
X9474944Y-23425698D02*
X9455896Y-23416174D01*
X9455896Y-23416174D02*
X9417801Y-23416174D01*
X9417801Y-23416174D02*
X9398753Y-23425698D01*
X9398753Y-23425698D02*
X9389229Y-23435222D01*
X9389229Y-23435222D02*
X9379706Y-23454269D01*
X9560658Y-23339984D02*
X9684468Y-23339984D01*
X9684468Y-23339984D02*
X9617801Y-23416174D01*
X9617801Y-23416174D02*
X9646372Y-23416174D01*
X9646372Y-23416174D02*
X9665420Y-23425698D01*
X9665420Y-23425698D02*
X9674944Y-23435222D01*
X9674944Y-23435222D02*
X9684468Y-23454269D01*
X9684468Y-23454269D02*
X9684468Y-23501888D01*
X9684468Y-23501888D02*
X9674944Y-23520936D01*
X9674944Y-23520936D02*
X9665420Y-23530460D01*
X9665420Y-23530460D02*
X9646372Y-23539984D01*
X9646372Y-23539984D02*
X9589229Y-23539984D01*
X9589229Y-23539984D02*
X9570182Y-23530460D01*
X9570182Y-23530460D02*
X9560658Y-23520936D01*
X9808277Y-23339984D02*
X9827325Y-23339984D01*
X9827325Y-23339984D02*
X9846372Y-23349508D01*
X9846372Y-23349508D02*
X9855896Y-23359031D01*
X9855896Y-23359031D02*
X9865420Y-23378079D01*
X9865420Y-23378079D02*
X9874944Y-23416174D01*
X9874944Y-23416174D02*
X9874944Y-23463793D01*
X9874944Y-23463793D02*
X9865420Y-23501888D01*
X9865420Y-23501888D02*
X9855896Y-23520936D01*
X9855896Y-23520936D02*
X9846372Y-23530460D01*
X9846372Y-23530460D02*
X9827325Y-23539984D01*
X9827325Y-23539984D02*
X9808277Y-23539984D01*
X9808277Y-23539984D02*
X9789229Y-23530460D01*
X9789229Y-23530460D02*
X9779706Y-23520936D01*
X9779706Y-23520936D02*
X9770182Y-23501888D01*
X9770182Y-23501888D02*
X9760658Y-23463793D01*
X9760658Y-23463793D02*
X9760658Y-23416174D01*
X9760658Y-23416174D02*
X9770182Y-23378079D01*
X9770182Y-23378079D02*
X9779706Y-23359031D01*
X9779706Y-23359031D02*
X9789229Y-23349508D01*
X9789229Y-23349508D02*
X9808277Y-23339984D01*
X9951134Y-23339984D02*
X9951134Y-23378079D01*
X10027325Y-23339984D02*
X10027325Y-23378079D01*
X10322563Y-23616174D02*
X10313039Y-23606650D01*
X10313039Y-23606650D02*
X10293991Y-23578079D01*
X10293991Y-23578079D02*
X10284468Y-23559031D01*
X10284468Y-23559031D02*
X10274944Y-23530460D01*
X10274944Y-23530460D02*
X10265420Y-23482841D01*
X10265420Y-23482841D02*
X10265420Y-23444746D01*
X10265420Y-23444746D02*
X10274944Y-23397127D01*
X10274944Y-23397127D02*
X10284468Y-23368555D01*
X10284468Y-23368555D02*
X10293991Y-23349508D01*
X10293991Y-23349508D02*
X10313039Y-23320936D01*
X10313039Y-23320936D02*
X10322563Y-23311412D01*
X10503515Y-23539984D02*
X10389230Y-23539984D01*
X10446372Y-23539984D02*
X10446372Y-23339984D01*
X10446372Y-23339984D02*
X10427325Y-23368555D01*
X10427325Y-23368555D02*
X10408277Y-23387603D01*
X10408277Y-23387603D02*
X10389230Y-23397127D01*
X10617801Y-23425698D02*
X10598753Y-23416174D01*
X10598753Y-23416174D02*
X10589230Y-23406650D01*
X10589230Y-23406650D02*
X10579706Y-23387603D01*
X10579706Y-23387603D02*
X10579706Y-23378079D01*
X10579706Y-23378079D02*
X10589230Y-23359031D01*
X10589230Y-23359031D02*
X10598753Y-23349508D01*
X10598753Y-23349508D02*
X10617801Y-23339984D01*
X10617801Y-23339984D02*
X10655896Y-23339984D01*
X10655896Y-23339984D02*
X10674944Y-23349508D01*
X10674944Y-23349508D02*
X10684468Y-23359031D01*
X10684468Y-23359031D02*
X10693991Y-23378079D01*
X10693991Y-23378079D02*
X10693991Y-23387603D01*
X10693991Y-23387603D02*
X10684468Y-23406650D01*
X10684468Y-23406650D02*
X10674944Y-23416174D01*
X10674944Y-23416174D02*
X10655896Y-23425698D01*
X10655896Y-23425698D02*
X10617801Y-23425698D01*
X10617801Y-23425698D02*
X10598753Y-23435222D01*
X10598753Y-23435222D02*
X10589230Y-23444746D01*
X10589230Y-23444746D02*
X10579706Y-23463793D01*
X10579706Y-23463793D02*
X10579706Y-23501888D01*
X10579706Y-23501888D02*
X10589230Y-23520936D01*
X10589230Y-23520936D02*
X10598753Y-23530460D01*
X10598753Y-23530460D02*
X10617801Y-23539984D01*
X10617801Y-23539984D02*
X10655896Y-23539984D01*
X10655896Y-23539984D02*
X10674944Y-23530460D01*
X10674944Y-23530460D02*
X10684468Y-23520936D01*
X10684468Y-23520936D02*
X10693991Y-23501888D01*
X10693991Y-23501888D02*
X10693991Y-23463793D01*
X10693991Y-23463793D02*
X10684468Y-23444746D01*
X10684468Y-23444746D02*
X10674944Y-23435222D01*
X10674944Y-23435222D02*
X10655896Y-23425698D01*
X10932087Y-23539984D02*
X10932087Y-23339984D01*
X11017801Y-23539984D02*
X11017801Y-23435222D01*
X11017801Y-23435222D02*
X11008277Y-23416174D01*
X11008277Y-23416174D02*
X10989230Y-23406650D01*
X10989230Y-23406650D02*
X10960658Y-23406650D01*
X10960658Y-23406650D02*
X10941611Y-23416174D01*
X10941611Y-23416174D02*
X10932087Y-23425698D01*
X11141611Y-23539984D02*
X11122563Y-23530460D01*
X11122563Y-23530460D02*
X11113039Y-23520936D01*
X11113039Y-23520936D02*
X11103515Y-23501888D01*
X11103515Y-23501888D02*
X11103515Y-23444746D01*
X11103515Y-23444746D02*
X11113039Y-23425698D01*
X11113039Y-23425698D02*
X11122563Y-23416174D01*
X11122563Y-23416174D02*
X11141611Y-23406650D01*
X11141611Y-23406650D02*
X11170182Y-23406650D01*
X11170182Y-23406650D02*
X11189230Y-23416174D01*
X11189230Y-23416174D02*
X11198753Y-23425698D01*
X11198753Y-23425698D02*
X11208277Y-23444746D01*
X11208277Y-23444746D02*
X11208277Y-23501888D01*
X11208277Y-23501888D02*
X11198753Y-23520936D01*
X11198753Y-23520936D02*
X11189230Y-23530460D01*
X11189230Y-23530460D02*
X11170182Y-23539984D01*
X11170182Y-23539984D02*
X11141611Y-23539984D01*
X11322563Y-23539984D02*
X11303515Y-23530460D01*
X11303515Y-23530460D02*
X11293991Y-23511412D01*
X11293991Y-23511412D02*
X11293991Y-23339984D01*
X11474944Y-23530460D02*
X11455896Y-23539984D01*
X11455896Y-23539984D02*
X11417801Y-23539984D01*
X11417801Y-23539984D02*
X11398753Y-23530460D01*
X11398753Y-23530460D02*
X11389230Y-23511412D01*
X11389230Y-23511412D02*
X11389230Y-23435222D01*
X11389230Y-23435222D02*
X11398753Y-23416174D01*
X11398753Y-23416174D02*
X11417801Y-23406650D01*
X11417801Y-23406650D02*
X11455896Y-23406650D01*
X11455896Y-23406650D02*
X11474944Y-23416174D01*
X11474944Y-23416174D02*
X11484468Y-23435222D01*
X11484468Y-23435222D02*
X11484468Y-23454269D01*
X11484468Y-23454269D02*
X11389230Y-23473317D01*
X11560658Y-23530460D02*
X11579706Y-23539984D01*
X11579706Y-23539984D02*
X11617801Y-23539984D01*
X11617801Y-23539984D02*
X11636849Y-23530460D01*
X11636849Y-23530460D02*
X11646372Y-23511412D01*
X11646372Y-23511412D02*
X11646372Y-23501888D01*
X11646372Y-23501888D02*
X11636849Y-23482841D01*
X11636849Y-23482841D02*
X11617801Y-23473317D01*
X11617801Y-23473317D02*
X11589230Y-23473317D01*
X11589230Y-23473317D02*
X11570182Y-23463793D01*
X11570182Y-23463793D02*
X11560658Y-23444746D01*
X11560658Y-23444746D02*
X11560658Y-23435222D01*
X11560658Y-23435222D02*
X11570182Y-23416174D01*
X11570182Y-23416174D02*
X11589230Y-23406650D01*
X11589230Y-23406650D02*
X11617801Y-23406650D01*
X11617801Y-23406650D02*
X11636849Y-23416174D01*
X11713039Y-23616174D02*
X11722563Y-23606650D01*
X11722563Y-23606650D02*
X11741611Y-23578079D01*
X11741611Y-23578079D02*
X11751134Y-23559031D01*
X11751134Y-23559031D02*
X11760658Y-23530460D01*
X11760658Y-23530460D02*
X11770182Y-23482841D01*
X11770182Y-23482841D02*
X11770182Y-23444746D01*
X11770182Y-23444746D02*
X11760658Y-23397127D01*
X11760658Y-23397127D02*
X11751134Y-23368555D01*
X11751134Y-23368555D02*
X11741611Y-23349508D01*
X11741611Y-23349508D02*
X11722563Y-23320936D01*
X11722563Y-23320936D02*
X11713039Y-23311412D01*
M02*
