%TF.GenerationSoftware,KiCad,Pcbnew,9.0.0*%
%TF.CreationDate,2025-03-16T11:10:09+01:00*%
%TF.ProjectId,DMH_Tripple_VCA_PCB_2,444d485f-5472-4697-9070-6c655f564341,1*%
%TF.SameCoordinates,Original*%
%TF.FileFunction,Copper,L2,Bot*%
%TF.FilePolarity,Positive*%
%FSLAX46Y46*%
G04 Gerber Fmt 4.6, Leading zero omitted, Abs format (unit mm)*
G04 Created by KiCad (PCBNEW 9.0.0) date 2025-03-16 11:10:09*
%MOMM*%
%LPD*%
G01*
G04 APERTURE LIST*
%TA.AperFunction,ComponentPad*%
%ADD10C,1.600000*%
%TD*%
%TA.AperFunction,ComponentPad*%
%ADD11O,1.600000X1.600000*%
%TD*%
%TA.AperFunction,ComponentPad*%
%ADD12O,2.720000X3.240000*%
%TD*%
%TA.AperFunction,ComponentPad*%
%ADD13R,1.800000X1.800000*%
%TD*%
%TA.AperFunction,ComponentPad*%
%ADD14C,1.800000*%
%TD*%
%TA.AperFunction,ComponentPad*%
%ADD15R,1.700000X1.700000*%
%TD*%
%TA.AperFunction,ComponentPad*%
%ADD16R,1.800000X1.400000*%
%TD*%
%TA.AperFunction,ComponentPad*%
%ADD17O,1.800000X1.400000*%
%TD*%
%TA.AperFunction,ComponentPad*%
%ADD18C,2.600000*%
%TD*%
%TA.AperFunction,ComponentPad*%
%ADD19O,1.700000X1.700000*%
%TD*%
%TA.AperFunction,Conductor*%
%ADD20C,0.200000*%
%TD*%
%TA.AperFunction,Conductor*%
%ADD21C,1.000000*%
%TD*%
G04 APERTURE END LIST*
D10*
%TO.P,R55,1*%
%TO.N,Net-(R55-Pad1)*%
X87060000Y-170750000D03*
D11*
%TO.P,R55,2*%
%TO.N,+12V*%
X79440000Y-170750000D03*
%TD*%
D12*
%TO.P,RV6,*%
%TO.N,*%
X78450000Y-181000000D03*
X88050000Y-181000000D03*
D13*
%TO.P,RV6,1,1*%
%TO.N,Net-(R55-Pad1)*%
X80750000Y-188500000D03*
D14*
%TO.P,RV6,2,2*%
%TO.N,/Inputs and Outputs/Offset C Pot*%
X83250000Y-188500000D03*
%TO.P,RV6,3,3*%
%TO.N,GND*%
X85750000Y-188500000D03*
%TD*%
D10*
%TO.P,R61,1*%
%TO.N,Net-(D8-A1)*%
X70750000Y-178690000D03*
D11*
%TO.P,R61,2*%
%TO.N,Net-(R61-Pad2)*%
X70750000Y-186310000D03*
%TD*%
D10*
%TO.P,R57,1*%
%TO.N,Net-(D6-A1)*%
X70750000Y-58690000D03*
D11*
%TO.P,R57,2*%
%TO.N,Net-(R57-Pad2)*%
X70750000Y-66310000D03*
%TD*%
D15*
%TO.P,J0,1,Pin_1*%
%TO.N,GND*%
X95000000Y-140000000D03*
%TD*%
D10*
%TO.P,R58,1*%
%TO.N,Net-(D7-A2)*%
X84750000Y-144690000D03*
D11*
%TO.P,R58,2*%
%TO.N,Net-(R58-Pad2)*%
X84750000Y-152310000D03*
%TD*%
D16*
%TO.P,D7,1,A1*%
%TO.N,Net-(D7-A1)*%
X70000000Y-132250000D03*
D17*
%TO.P,D7,2,K*%
%TO.N,GND*%
X70000000Y-134250000D03*
%TO.P,D7,3,A2*%
%TO.N,Net-(D7-A2)*%
X70000000Y-136250000D03*
%TD*%
D10*
%TO.P,R53,1*%
%TO.N,Net-(R53-Pad1)*%
X87060000Y-50000000D03*
D11*
%TO.P,R53,2*%
%TO.N,+12V*%
X79440000Y-50000000D03*
%TD*%
D18*
%TO.P,SW3,1,A*%
%TO.N,/Inputs and Outputs/Mute C Switch*%
X77375000Y-204050000D03*
%TO.P,SW3,2,B*%
%TO.N,/Inputs and Outputs/Output C Jack*%
X77375000Y-208750000D03*
%TO.P,SW3,3,C*%
%TO.N,unconnected-(SW3-C-Pad3)*%
X77375000Y-213450000D03*
%TO.P,SW3,4,A*%
%TO.N,Net-(R61-Pad2)*%
X72625000Y-204050000D03*
%TO.P,SW3,5,B*%
%TO.N,+12V*%
X72625000Y-208750000D03*
%TO.P,SW3,6,C*%
%TO.N,Net-(R60-Pad2)*%
X72625000Y-213450000D03*
%TD*%
D16*
%TO.P,D8,1,A1*%
%TO.N,Net-(D8-A1)*%
X70000000Y-192500000D03*
D17*
%TO.P,D8,2,K*%
%TO.N,GND*%
X70000000Y-194500000D03*
%TO.P,D8,3,A2*%
%TO.N,Net-(D8-A2)*%
X70000000Y-196500000D03*
%TD*%
D12*
%TO.P,RV4,*%
%TO.N,*%
X78450000Y-60500000D03*
X88050000Y-60500000D03*
D13*
%TO.P,RV4,1,1*%
%TO.N,Net-(R53-Pad1)*%
X80750000Y-68000000D03*
D14*
%TO.P,RV4,2,2*%
%TO.N,/Inputs and Outputs/Offset A Pot*%
X83250000Y-68000000D03*
%TO.P,RV4,3,3*%
%TO.N,GND*%
X85750000Y-68000000D03*
%TD*%
D10*
%TO.P,R54,1*%
%TO.N,Net-(R54-Pad1)*%
X87060000Y-110500000D03*
D11*
%TO.P,R54,2*%
%TO.N,+12V*%
X79440000Y-110500000D03*
%TD*%
D18*
%TO.P,SW2,1,A*%
%TO.N,/Inputs and Outputs/Mute B Switch*%
X77375000Y-143800000D03*
%TO.P,SW2,2,B*%
%TO.N,/Inputs and Outputs/Output B Jack*%
X77375000Y-148500000D03*
%TO.P,SW2,3,C*%
%TO.N,unconnected-(SW2-C-Pad3)*%
X77375000Y-153200000D03*
%TO.P,SW2,4,A*%
%TO.N,Net-(R59-Pad2)*%
X72625000Y-143800000D03*
%TO.P,SW2,5,B*%
%TO.N,+12V*%
X72625000Y-148500000D03*
%TO.P,SW2,6,C*%
%TO.N,Net-(R58-Pad2)*%
X72625000Y-153200000D03*
%TD*%
D16*
%TO.P,D6,1,A1*%
%TO.N,Net-(D6-A1)*%
X70000000Y-72000000D03*
D17*
%TO.P,D6,2,K*%
%TO.N,GND*%
X70000000Y-74000000D03*
%TO.P,D6,3,A2*%
%TO.N,Net-(D6-A2)*%
X70000000Y-76000000D03*
%TD*%
D10*
%TO.P,R59,1*%
%TO.N,Net-(D7-A1)*%
X70750000Y-118690000D03*
D11*
%TO.P,R59,2*%
%TO.N,Net-(R59-Pad2)*%
X70750000Y-126310000D03*
%TD*%
D18*
%TO.P,SW1,1,A*%
%TO.N,/Inputs and Outputs/Mute A Switch*%
X77375000Y-83550000D03*
%TO.P,SW1,2,B*%
%TO.N,/Inputs and Outputs/Output A Jack*%
X77375000Y-88250000D03*
%TO.P,SW1,3,C*%
%TO.N,unconnected-(SW1-C-Pad3)*%
X77375000Y-92950000D03*
%TO.P,SW1,4,A*%
%TO.N,Net-(R57-Pad2)*%
X72625000Y-83550000D03*
%TO.P,SW1,5,B*%
%TO.N,+12V*%
X72625000Y-88250000D03*
%TO.P,SW1,6,C*%
%TO.N,Net-(R56-Pad2)*%
X72625000Y-92950000D03*
%TD*%
D10*
%TO.P,R60,1*%
%TO.N,Net-(D8-A2)*%
X74500000Y-178690000D03*
D11*
%TO.P,R60,2*%
%TO.N,Net-(R60-Pad2)*%
X74500000Y-186310000D03*
%TD*%
D12*
%TO.P,RV5,*%
%TO.N,*%
X78450000Y-120750000D03*
X88050000Y-120750000D03*
D13*
%TO.P,RV5,1,1*%
%TO.N,Net-(R54-Pad1)*%
X80750000Y-128250000D03*
D14*
%TO.P,RV5,2,2*%
%TO.N,/Inputs and Outputs/Offset B Pot*%
X83250000Y-128250000D03*
%TO.P,RV5,3,3*%
%TO.N,GND*%
X85750000Y-128250000D03*
%TD*%
D10*
%TO.P,R56,1*%
%TO.N,Net-(D6-A2)*%
X84750000Y-84690000D03*
D11*
%TO.P,R56,2*%
%TO.N,Net-(R56-Pad2)*%
X84750000Y-92310000D03*
%TD*%
D15*
%TO.P,J60,1,Pin_1*%
%TO.N,+12V*%
X76675000Y-131225000D03*
D19*
%TO.P,J60,2,Pin_2*%
%TO.N,/Inputs and Outputs/Mute B Switch*%
X79215000Y-131225000D03*
%TO.P,J60,3,Pin_3*%
%TO.N,/Inputs and Outputs/Output B Jack*%
X81755000Y-131225000D03*
%TO.P,J60,4,Pin_4*%
%TO.N,/Inputs and Outputs/Offset B Pot*%
X84295000Y-131225000D03*
%TO.P,J60,5,Pin_5*%
%TO.N,GND*%
X86835000Y-131225000D03*
%TO.P,J60,6,Pin_6*%
X89375000Y-131225000D03*
%TD*%
D15*
%TO.P,J70,1,Pin_1*%
%TO.N,+12V*%
X76675000Y-194225000D03*
D19*
%TO.P,J70,2,Pin_2*%
%TO.N,/Inputs and Outputs/Mute C Switch*%
X79215000Y-194225000D03*
%TO.P,J70,3,Pin_3*%
%TO.N,/Inputs and Outputs/Output C Jack*%
X81755000Y-194225000D03*
%TO.P,J70,4,Pin_4*%
%TO.N,/Inputs and Outputs/Offset C Pot*%
X84295000Y-194225000D03*
%TO.P,J70,5,Pin_5*%
%TO.N,GND*%
X86835000Y-194225000D03*
%TO.P,J70,6,Pin_6*%
X89375000Y-194225000D03*
%TD*%
D15*
%TO.P,J50,1,Pin_1*%
%TO.N,+12V*%
X76675000Y-70975000D03*
D19*
%TO.P,J50,2,Pin_2*%
%TO.N,/Inputs and Outputs/Mute A Switch*%
X79215000Y-70975000D03*
%TO.P,J50,3,Pin_3*%
%TO.N,/Inputs and Outputs/Output A Jack*%
X81755000Y-70975000D03*
%TO.P,J50,4,Pin_4*%
%TO.N,/Inputs and Outputs/Offset A Pot*%
X84295000Y-70975000D03*
%TO.P,J50,5,Pin_5*%
%TO.N,GND*%
X86835000Y-70975000D03*
%TO.P,J50,6,Pin_6*%
X89375000Y-70975000D03*
%TD*%
D20*
%TO.N,Net-(D6-A1)*%
X70750000Y-58690000D02*
X69649000Y-59791000D01*
X69649000Y-59791000D02*
X69649000Y-71649000D01*
X69649000Y-71649000D02*
X70000000Y-72000000D01*
%TO.N,Net-(D7-A1)*%
X70750000Y-118690000D02*
X69649000Y-119791000D01*
X69649000Y-131899000D02*
X70000000Y-132250000D01*
X69649000Y-119791000D02*
X69649000Y-131899000D01*
%TO.N,Net-(D8-A1)*%
X69500000Y-179940000D02*
X69500000Y-192000000D01*
X70750000Y-178690000D02*
X69500000Y-179940000D01*
X69500000Y-192000000D02*
X70000000Y-192500000D01*
%TO.N,/Inputs and Outputs/Output A Jack*%
X81755000Y-83870000D02*
X77375000Y-88250000D01*
X81755000Y-70975000D02*
X81755000Y-83870000D01*
D21*
%TO.N,+12V*%
X76675000Y-194225000D02*
X75374000Y-195526000D01*
X79440000Y-170750000D02*
X76389000Y-173801000D01*
X79440000Y-110500000D02*
X76389000Y-113551000D01*
X74626000Y-86249000D02*
X72625000Y-88250000D01*
X72625000Y-148500000D02*
X74626000Y-150501000D01*
X76389000Y-173801000D02*
X76389000Y-193939000D01*
X75374000Y-206001000D02*
X72625000Y-208750000D01*
X74626000Y-165936000D02*
X79440000Y-170750000D01*
X74626000Y-133274000D02*
X74626000Y-146499000D01*
X76389000Y-70689000D02*
X76675000Y-70975000D01*
X76675000Y-131225000D02*
X74626000Y-133274000D01*
X74626000Y-105686000D02*
X79440000Y-110500000D01*
X72625000Y-88250000D02*
X74626000Y-90251000D01*
X76389000Y-113551000D02*
X76389000Y-130939000D01*
X75374000Y-195526000D02*
X75374000Y-206001000D01*
X74626000Y-73024000D02*
X74626000Y-86249000D01*
X74626000Y-150501000D02*
X74626000Y-165936000D01*
X76389000Y-53051000D02*
X76389000Y-70689000D01*
X76389000Y-193939000D02*
X76675000Y-194225000D01*
X79440000Y-50000000D02*
X76389000Y-53051000D01*
X74626000Y-90251000D02*
X74626000Y-105686000D01*
X76389000Y-130939000D02*
X76675000Y-131225000D01*
X76675000Y-70975000D02*
X74626000Y-73024000D01*
X74626000Y-146499000D02*
X72625000Y-148500000D01*
D20*
%TO.N,/Inputs and Outputs/Mute A Switch*%
X79215000Y-70975000D02*
X77375000Y-72815000D01*
X77375000Y-72815000D02*
X77375000Y-83550000D01*
%TO.N,/Inputs and Outputs/Offset A Pot*%
X84295000Y-69045000D02*
X84295000Y-70975000D01*
X83250000Y-68000000D02*
X84295000Y-69045000D01*
%TO.N,/Inputs and Outputs/Offset B Pot*%
X83250000Y-128250000D02*
X84295000Y-129295000D01*
X84295000Y-129295000D02*
X84295000Y-131225000D01*
%TO.N,/Inputs and Outputs/Output B Jack*%
X81755000Y-144120000D02*
X77375000Y-148500000D01*
X81755000Y-131225000D02*
X81755000Y-144120000D01*
%TO.N,/Inputs and Outputs/Mute B Switch*%
X77375000Y-133065000D02*
X77375000Y-143800000D01*
X79215000Y-131225000D02*
X77375000Y-133065000D01*
%TO.N,/Inputs and Outputs/Output C Jack*%
X81755000Y-204370000D02*
X77375000Y-208750000D01*
X81755000Y-194225000D02*
X81755000Y-204370000D01*
%TO.N,/Inputs and Outputs/Offset C Pot*%
X83250000Y-188500000D02*
X84295000Y-189545000D01*
X84295000Y-189545000D02*
X84295000Y-194225000D01*
%TO.N,/Inputs and Outputs/Mute C Switch*%
X77375000Y-196065000D02*
X77375000Y-204050000D01*
X79215000Y-194225000D02*
X77375000Y-196065000D01*
%TO.N,Net-(R53-Pad1)*%
X87060000Y-50000000D02*
X80750000Y-56310000D01*
X80750000Y-56310000D02*
X80750000Y-68000000D01*
%TO.N,Net-(R54-Pad1)*%
X87060000Y-110500000D02*
X80750000Y-116810000D01*
X80750000Y-116810000D02*
X80750000Y-128250000D01*
%TO.N,Net-(R55-Pad1)*%
X80750000Y-177060000D02*
X80750000Y-188500000D01*
X87060000Y-170750000D02*
X80750000Y-177060000D01*
%TO.N,Net-(R57-Pad2)*%
X72625000Y-68185000D02*
X72625000Y-83550000D01*
X70750000Y-66310000D02*
X72625000Y-68185000D01*
%TO.N,Net-(R59-Pad2)*%
X72625000Y-128185000D02*
X72625000Y-143800000D01*
X70750000Y-126310000D02*
X72625000Y-128185000D01*
%TO.N,Net-(R60-Pad2)*%
X74500000Y-204610844D02*
X71024000Y-208086844D01*
X71024000Y-211849000D02*
X72625000Y-213450000D01*
X74500000Y-186310000D02*
X74500000Y-204610844D01*
X71024000Y-208086844D02*
X71024000Y-211849000D01*
%TO.N,Net-(R61-Pad2)*%
X72625000Y-188185000D02*
X72625000Y-204050000D01*
X70750000Y-186310000D02*
X72625000Y-188185000D01*
%TD*%
%TA.AperFunction,Conductor*%
%TO.N,GND*%
G36*
X98442539Y-43020185D02*
G01*
X98488294Y-43072989D01*
X98499500Y-43124500D01*
X98499500Y-198875500D01*
X98479815Y-198942539D01*
X98427011Y-198988294D01*
X98375500Y-198999500D01*
X82479500Y-198999500D01*
X82412461Y-198979815D01*
X82366706Y-198927011D01*
X82355500Y-198875500D01*
X82355500Y-195510718D01*
X82375185Y-195443679D01*
X82423207Y-195400233D01*
X82462815Y-195380052D01*
X82462815Y-195380051D01*
X82462816Y-195380051D01*
X82573686Y-195299500D01*
X82634786Y-195255109D01*
X82634788Y-195255106D01*
X82634792Y-195255104D01*
X82785104Y-195104792D01*
X82785106Y-195104788D01*
X82785109Y-195104786D01*
X82910048Y-194932820D01*
X82910047Y-194932820D01*
X82910051Y-194932816D01*
X82914514Y-194924054D01*
X82962488Y-194873259D01*
X83030308Y-194856463D01*
X83096444Y-194878999D01*
X83135486Y-194924056D01*
X83139951Y-194932820D01*
X83264890Y-195104786D01*
X83415213Y-195255109D01*
X83587179Y-195380048D01*
X83587181Y-195380049D01*
X83587184Y-195380051D01*
X83776588Y-195476557D01*
X83978757Y-195542246D01*
X84188713Y-195575500D01*
X84188714Y-195575500D01*
X84401286Y-195575500D01*
X84401287Y-195575500D01*
X84611243Y-195542246D01*
X84813412Y-195476557D01*
X85002816Y-195380051D01*
X85113686Y-195299500D01*
X85174786Y-195255109D01*
X85174788Y-195255106D01*
X85174792Y-195255104D01*
X85325104Y-195104792D01*
X85325106Y-195104788D01*
X85325109Y-195104786D01*
X85450048Y-194932820D01*
X85450051Y-194932816D01*
X85454793Y-194923508D01*
X85502763Y-194872711D01*
X85570583Y-194855911D01*
X85636719Y-194878445D01*
X85675763Y-194923500D01*
X85680377Y-194932555D01*
X85805272Y-195104459D01*
X85805276Y-195104464D01*
X85955535Y-195254723D01*
X85955540Y-195254727D01*
X86127442Y-195379620D01*
X86316782Y-195476095D01*
X86518871Y-195541757D01*
X86585000Y-195552231D01*
X86585000Y-194658012D01*
X86642007Y-194690925D01*
X86769174Y-194725000D01*
X86900826Y-194725000D01*
X87027993Y-194690925D01*
X87085000Y-194658012D01*
X87085000Y-195552230D01*
X87151126Y-195541757D01*
X87151129Y-195541757D01*
X87353217Y-195476095D01*
X87542557Y-195379620D01*
X87714459Y-195254727D01*
X87714464Y-195254723D01*
X87864723Y-195104464D01*
X87864727Y-195104459D01*
X87989620Y-194932558D01*
X87994514Y-194922954D01*
X88042488Y-194872157D01*
X88110308Y-194855361D01*
X88176444Y-194877897D01*
X88215486Y-194922954D01*
X88220379Y-194932558D01*
X88345272Y-195104459D01*
X88345276Y-195104464D01*
X88495535Y-195254723D01*
X88495540Y-195254727D01*
X88667442Y-195379620D01*
X88856782Y-195476095D01*
X89058871Y-195541757D01*
X89125000Y-195552231D01*
X89125000Y-194658012D01*
X89182007Y-194690925D01*
X89309174Y-194725000D01*
X89440826Y-194725000D01*
X89567993Y-194690925D01*
X89625000Y-194658012D01*
X89625000Y-195552230D01*
X89691126Y-195541757D01*
X89691129Y-195541757D01*
X89893217Y-195476095D01*
X90082557Y-195379620D01*
X90254459Y-195254727D01*
X90254464Y-195254723D01*
X90404723Y-195104464D01*
X90404727Y-195104459D01*
X90529620Y-194932557D01*
X90626095Y-194743217D01*
X90691757Y-194541129D01*
X90691757Y-194541126D01*
X90702231Y-194475000D01*
X89808012Y-194475000D01*
X89840925Y-194417993D01*
X89875000Y-194290826D01*
X89875000Y-194159174D01*
X89840925Y-194032007D01*
X89808012Y-193975000D01*
X90702231Y-193975000D01*
X90691757Y-193908873D01*
X90691757Y-193908870D01*
X90626095Y-193706782D01*
X90529620Y-193517442D01*
X90404727Y-193345540D01*
X90404723Y-193345535D01*
X90254464Y-193195276D01*
X90254459Y-193195272D01*
X90082557Y-193070379D01*
X89893215Y-192973903D01*
X89691124Y-192908241D01*
X89625000Y-192897768D01*
X89625000Y-193791988D01*
X89567993Y-193759075D01*
X89440826Y-193725000D01*
X89309174Y-193725000D01*
X89182007Y-193759075D01*
X89125000Y-193791988D01*
X89125000Y-192897768D01*
X89124999Y-192897768D01*
X89058875Y-192908241D01*
X88856784Y-192973903D01*
X88667442Y-193070379D01*
X88495540Y-193195272D01*
X88495535Y-193195276D01*
X88345276Y-193345535D01*
X88345272Y-193345540D01*
X88220377Y-193517444D01*
X88215484Y-193527048D01*
X88167509Y-193577844D01*
X88099688Y-193594638D01*
X88033553Y-193572100D01*
X87994516Y-193527048D01*
X87989622Y-193517444D01*
X87864727Y-193345540D01*
X87864723Y-193345535D01*
X87714464Y-193195276D01*
X87714459Y-193195272D01*
X87542557Y-193070379D01*
X87353215Y-192973903D01*
X87151124Y-192908241D01*
X87085000Y-192897768D01*
X87085000Y-193791988D01*
X87027993Y-193759075D01*
X86900826Y-193725000D01*
X86769174Y-193725000D01*
X86642007Y-193759075D01*
X86585000Y-193791988D01*
X86585000Y-192897768D01*
X86584999Y-192897768D01*
X86518875Y-192908241D01*
X86316784Y-192973903D01*
X86127442Y-193070379D01*
X85955540Y-193195272D01*
X85955535Y-193195276D01*
X85805276Y-193345535D01*
X85805272Y-193345540D01*
X85680378Y-193517443D01*
X85675762Y-193526502D01*
X85627784Y-193577295D01*
X85559963Y-193594087D01*
X85493829Y-193571546D01*
X85454794Y-193526493D01*
X85450051Y-193517184D01*
X85450049Y-193517181D01*
X85450048Y-193517179D01*
X85325109Y-193345213D01*
X85174786Y-193194890D01*
X85002815Y-193069948D01*
X85002814Y-193069947D01*
X84963205Y-193049765D01*
X84912409Y-193001791D01*
X84895500Y-192939281D01*
X84895500Y-189838216D01*
X84915185Y-189771177D01*
X84967989Y-189725422D01*
X85037147Y-189715478D01*
X85075796Y-189727732D01*
X85212587Y-189797431D01*
X85212586Y-189797431D01*
X85422164Y-189865526D01*
X85639819Y-189900000D01*
X85860181Y-189900000D01*
X86077835Y-189865526D01*
X86287410Y-189797432D01*
X86483760Y-189697386D01*
X86547513Y-189651066D01*
X86547514Y-189651066D01*
X85879409Y-188982962D01*
X85942993Y-188965925D01*
X86057007Y-188900099D01*
X86150099Y-188807007D01*
X86215925Y-188692993D01*
X86232962Y-188629410D01*
X86901066Y-189297514D01*
X86901066Y-189297513D01*
X86947386Y-189233760D01*
X87047432Y-189037410D01*
X87115526Y-188827835D01*
X87150000Y-188610181D01*
X87150000Y-188389818D01*
X87115526Y-188172164D01*
X87047432Y-187962589D01*
X86947388Y-187766243D01*
X86901066Y-187702485D01*
X86901065Y-187702485D01*
X86232962Y-188370589D01*
X86215925Y-188307007D01*
X86150099Y-188192993D01*
X86057007Y-188099901D01*
X85942993Y-188034075D01*
X85879407Y-188017037D01*
X86547513Y-187348932D01*
X86483756Y-187302611D01*
X86287410Y-187202567D01*
X86077835Y-187134473D01*
X85860181Y-187100000D01*
X85639819Y-187100000D01*
X85422164Y-187134473D01*
X85212589Y-187202567D01*
X85016233Y-187302616D01*
X84952485Y-187348931D01*
X84952485Y-187348932D01*
X85620590Y-188017037D01*
X85557007Y-188034075D01*
X85442993Y-188099901D01*
X85349901Y-188192993D01*
X85284075Y-188307007D01*
X85267037Y-188370591D01*
X84598932Y-187702485D01*
X84597448Y-187702602D01*
X84545296Y-187742817D01*
X84475682Y-187748796D01*
X84413887Y-187716190D01*
X84399990Y-187700151D01*
X84318247Y-187587641D01*
X84318243Y-187587636D01*
X84162363Y-187431756D01*
X84162358Y-187431752D01*
X83984025Y-187302187D01*
X83984024Y-187302186D01*
X83984022Y-187302185D01*
X83866791Y-187242452D01*
X83787606Y-187202104D01*
X83787603Y-187202103D01*
X83577952Y-187133985D01*
X83469086Y-187116742D01*
X83360222Y-187099500D01*
X83139778Y-187099500D01*
X83067201Y-187110995D01*
X82922047Y-187133985D01*
X82712396Y-187202103D01*
X82712393Y-187202104D01*
X82515974Y-187302187D01*
X82337641Y-187431752D01*
X82337635Y-187431757D01*
X82316596Y-187452796D01*
X82255273Y-187486280D01*
X82185581Y-187481294D01*
X82129648Y-187439421D01*
X82112735Y-187408446D01*
X82093797Y-187357671D01*
X82093793Y-187357664D01*
X82007547Y-187242455D01*
X82007544Y-187242452D01*
X81892335Y-187156206D01*
X81892328Y-187156202D01*
X81757482Y-187105908D01*
X81757483Y-187105908D01*
X81697883Y-187099501D01*
X81697881Y-187099500D01*
X81697873Y-187099500D01*
X81697865Y-187099500D01*
X81474500Y-187099500D01*
X81407461Y-187079815D01*
X81361706Y-187027011D01*
X81350500Y-186975500D01*
X81350500Y-180618048D01*
X86189500Y-180618048D01*
X86189500Y-181381951D01*
X86216013Y-181583333D01*
X86221334Y-181623744D01*
X86221335Y-181623746D01*
X86284456Y-181859320D01*
X86284459Y-181859330D01*
X86377786Y-182084640D01*
X86377791Y-182084651D01*
X86499727Y-182295848D01*
X86499738Y-182295864D01*
X86648199Y-182489343D01*
X86648205Y-182489350D01*
X86820649Y-182661794D01*
X86820655Y-182661799D01*
X87014144Y-182810268D01*
X87014151Y-182810272D01*
X87225348Y-182932208D01*
X87225353Y-182932210D01*
X87225356Y-182932212D01*
X87253272Y-182943775D01*
X87415117Y-183010814D01*
X87450679Y-183025544D01*
X87686256Y-183088666D01*
X87928056Y-183120500D01*
X87928063Y-183120500D01*
X88171937Y-183120500D01*
X88171944Y-183120500D01*
X88413744Y-183088666D01*
X88649321Y-183025544D01*
X88874644Y-182932212D01*
X89085856Y-182810268D01*
X89279345Y-182661799D01*
X89451799Y-182489345D01*
X89600268Y-182295856D01*
X89722212Y-182084644D01*
X89815544Y-181859321D01*
X89878666Y-181623744D01*
X89910500Y-181381944D01*
X89910500Y-180618056D01*
X89878666Y-180376256D01*
X89815544Y-180140679D01*
X89722212Y-179915356D01*
X89722210Y-179915353D01*
X89722208Y-179915348D01*
X89600272Y-179704151D01*
X89600268Y-179704144D01*
X89528436Y-179610531D01*
X89451800Y-179510656D01*
X89451794Y-179510649D01*
X89279350Y-179338205D01*
X89279343Y-179338199D01*
X89085864Y-179189738D01*
X89085862Y-179189736D01*
X89085856Y-179189732D01*
X89085851Y-179189729D01*
X89085848Y-179189727D01*
X88874651Y-179067791D01*
X88874640Y-179067786D01*
X88649330Y-178974459D01*
X88649323Y-178974457D01*
X88649321Y-178974456D01*
X88413744Y-178911334D01*
X88373333Y-178906013D01*
X88171951Y-178879500D01*
X88171944Y-178879500D01*
X87928056Y-178879500D01*
X87928048Y-178879500D01*
X87697896Y-178909801D01*
X87686256Y-178911334D01*
X87450679Y-178974456D01*
X87450669Y-178974459D01*
X87225359Y-179067786D01*
X87225348Y-179067791D01*
X87014151Y-179189727D01*
X87014135Y-179189738D01*
X86820656Y-179338199D01*
X86820649Y-179338205D01*
X86648205Y-179510649D01*
X86648199Y-179510656D01*
X86499738Y-179704135D01*
X86499727Y-179704151D01*
X86377791Y-179915348D01*
X86377786Y-179915359D01*
X86284459Y-180140669D01*
X86284456Y-180140679D01*
X86221335Y-180376253D01*
X86221333Y-180376264D01*
X86189500Y-180618048D01*
X81350500Y-180618048D01*
X81350500Y-177360097D01*
X81370185Y-177293058D01*
X81386819Y-177272416D01*
X82079757Y-176579478D01*
X86615159Y-172044075D01*
X86676480Y-172010592D01*
X86741154Y-172013826D01*
X86755466Y-172018477D01*
X86957648Y-172050500D01*
X86957649Y-172050500D01*
X87162351Y-172050500D01*
X87162352Y-172050500D01*
X87364534Y-172018477D01*
X87559219Y-171955220D01*
X87741610Y-171862287D01*
X87834590Y-171794732D01*
X87907213Y-171741971D01*
X87907215Y-171741968D01*
X87907219Y-171741966D01*
X88051966Y-171597219D01*
X88051968Y-171597215D01*
X88051971Y-171597213D01*
X88104732Y-171524590D01*
X88172287Y-171431610D01*
X88265220Y-171249219D01*
X88328477Y-171054534D01*
X88360500Y-170852352D01*
X88360500Y-170647648D01*
X88328477Y-170445466D01*
X88265220Y-170250781D01*
X88265218Y-170250778D01*
X88265218Y-170250776D01*
X88231503Y-170184607D01*
X88172287Y-170068390D01*
X88164556Y-170057749D01*
X88051971Y-169902786D01*
X87907213Y-169758028D01*
X87741613Y-169637715D01*
X87741612Y-169637714D01*
X87741610Y-169637713D01*
X87684653Y-169608691D01*
X87559223Y-169544781D01*
X87364534Y-169481522D01*
X87176690Y-169451771D01*
X87162352Y-169449500D01*
X86957648Y-169449500D01*
X86943310Y-169451771D01*
X86755465Y-169481522D01*
X86560776Y-169544781D01*
X86378386Y-169637715D01*
X86212786Y-169758028D01*
X86068028Y-169902786D01*
X85947715Y-170068386D01*
X85854781Y-170250776D01*
X85791522Y-170445465D01*
X85759500Y-170647648D01*
X85759500Y-170852351D01*
X85791523Y-171054535D01*
X85796172Y-171068845D01*
X85798165Y-171138687D01*
X85765921Y-171194841D01*
X80381286Y-176579478D01*
X80269481Y-176691282D01*
X80269479Y-176691285D01*
X80219361Y-176778094D01*
X80219359Y-176778096D01*
X80190425Y-176828209D01*
X80190424Y-176828210D01*
X80190423Y-176828215D01*
X80149499Y-176980943D01*
X80149499Y-176980945D01*
X80149499Y-177149046D01*
X80149500Y-177149059D01*
X80149500Y-179533334D01*
X80129815Y-179600373D01*
X80077011Y-179646128D01*
X80007853Y-179656072D01*
X79944297Y-179627047D01*
X79927124Y-179608820D01*
X79851800Y-179510656D01*
X79851794Y-179510649D01*
X79679350Y-179338205D01*
X79679343Y-179338199D01*
X79485864Y-179189738D01*
X79485862Y-179189736D01*
X79485856Y-179189732D01*
X79485851Y-179189729D01*
X79485848Y-179189727D01*
X79274651Y-179067791D01*
X79274640Y-179067786D01*
X79049330Y-178974459D01*
X79049323Y-178974457D01*
X79049321Y-178974456D01*
X78813744Y-178911334D01*
X78773333Y-178906013D01*
X78571951Y-178879500D01*
X78571944Y-178879500D01*
X78328056Y-178879500D01*
X78328048Y-178879500D01*
X78097896Y-178909801D01*
X78086256Y-178911334D01*
X77850679Y-178974456D01*
X77850669Y-178974459D01*
X77625359Y-179067786D01*
X77625353Y-179067789D01*
X77575499Y-179096572D01*
X77507599Y-179113043D01*
X77441572Y-179090191D01*
X77398382Y-179035269D01*
X77389500Y-178989184D01*
X77389500Y-174266782D01*
X77409185Y-174199743D01*
X77425819Y-174179101D01*
X78441702Y-173163218D01*
X79528204Y-172076715D01*
X79589525Y-172043232D01*
X79596475Y-172041926D01*
X79744534Y-172018477D01*
X79939219Y-171955220D01*
X80121610Y-171862287D01*
X80214590Y-171794732D01*
X80287213Y-171741971D01*
X80287215Y-171741968D01*
X80287219Y-171741966D01*
X80431966Y-171597219D01*
X80431968Y-171597215D01*
X80431971Y-171597213D01*
X80484732Y-171524590D01*
X80552287Y-171431610D01*
X80645220Y-171249219D01*
X80708477Y-171054534D01*
X80740500Y-170852352D01*
X80740500Y-170647648D01*
X80708477Y-170445466D01*
X80645220Y-170250781D01*
X80645218Y-170250778D01*
X80645218Y-170250776D01*
X80611503Y-170184607D01*
X80552287Y-170068390D01*
X80544556Y-170057749D01*
X80431971Y-169902786D01*
X80287213Y-169758028D01*
X80121613Y-169637715D01*
X80121612Y-169637714D01*
X80121610Y-169637713D01*
X80064653Y-169608691D01*
X79939223Y-169544781D01*
X79744535Y-169481523D01*
X79596483Y-169458073D01*
X79533349Y-169428143D01*
X79528201Y-169423281D01*
X75662819Y-165557899D01*
X75629334Y-165496576D01*
X75626500Y-165470218D01*
X75626500Y-154235281D01*
X75646185Y-154168242D01*
X75698989Y-154122487D01*
X75768147Y-154112543D01*
X75831703Y-154141568D01*
X75857884Y-154173278D01*
X75874727Y-154202450D01*
X75874729Y-154202453D01*
X75874730Y-154202454D01*
X76018406Y-154389697D01*
X76018412Y-154389704D01*
X76185295Y-154556587D01*
X76185301Y-154556592D01*
X76372550Y-154700273D01*
X76503918Y-154776118D01*
X76576943Y-154818280D01*
X76576948Y-154818282D01*
X76576951Y-154818284D01*
X76795007Y-154908606D01*
X77022986Y-154969693D01*
X77256989Y-155000500D01*
X77256996Y-155000500D01*
X77493004Y-155000500D01*
X77493011Y-155000500D01*
X77727014Y-154969693D01*
X77954993Y-154908606D01*
X78173049Y-154818284D01*
X78377450Y-154700273D01*
X78564699Y-154556592D01*
X78731592Y-154389699D01*
X78875273Y-154202450D01*
X78993284Y-153998049D01*
X79083606Y-153779993D01*
X79144693Y-153552014D01*
X79175500Y-153318011D01*
X79175500Y-153081989D01*
X79144693Y-152847986D01*
X79083606Y-152620007D01*
X78993284Y-152401951D01*
X78993282Y-152401948D01*
X78993280Y-152401943D01*
X78914087Y-152264778D01*
X78881103Y-152207648D01*
X83449500Y-152207648D01*
X83449500Y-152412351D01*
X83481522Y-152614534D01*
X83544781Y-152809223D01*
X83637715Y-152991613D01*
X83758028Y-153157213D01*
X83902786Y-153301971D01*
X84057749Y-153414556D01*
X84068390Y-153422287D01*
X84184607Y-153481503D01*
X84250776Y-153515218D01*
X84250778Y-153515218D01*
X84250781Y-153515220D01*
X84355137Y-153549127D01*
X84445465Y-153578477D01*
X84546557Y-153594488D01*
X84647648Y-153610500D01*
X84647649Y-153610500D01*
X84852351Y-153610500D01*
X84852352Y-153610500D01*
X85054534Y-153578477D01*
X85249219Y-153515220D01*
X85431610Y-153422287D01*
X85524590Y-153354732D01*
X85597213Y-153301971D01*
X85597215Y-153301968D01*
X85597219Y-153301966D01*
X85741966Y-153157219D01*
X85741968Y-153157215D01*
X85741971Y-153157213D01*
X85796631Y-153081979D01*
X85862287Y-152991610D01*
X85955220Y-152809219D01*
X86018477Y-152614534D01*
X86050500Y-152412352D01*
X86050500Y-152207648D01*
X86018477Y-152005466D01*
X85955220Y-151810781D01*
X85955218Y-151810778D01*
X85955218Y-151810776D01*
X85921503Y-151744607D01*
X85862287Y-151628390D01*
X85828375Y-151581714D01*
X85741971Y-151462786D01*
X85597213Y-151318028D01*
X85431613Y-151197715D01*
X85431612Y-151197714D01*
X85431610Y-151197713D01*
X85374653Y-151168691D01*
X85249223Y-151104781D01*
X85054534Y-151041522D01*
X84879995Y-151013878D01*
X84852352Y-151009500D01*
X84647648Y-151009500D01*
X84623329Y-151013351D01*
X84445465Y-151041522D01*
X84250776Y-151104781D01*
X84068386Y-151197715D01*
X83902786Y-151318028D01*
X83758028Y-151462786D01*
X83637715Y-151628386D01*
X83544781Y-151810776D01*
X83481522Y-152005465D01*
X83449500Y-152207648D01*
X78881103Y-152207648D01*
X78875273Y-152197550D01*
X78731592Y-152010301D01*
X78731587Y-152010295D01*
X78564704Y-151843412D01*
X78564697Y-151843406D01*
X78377454Y-151699730D01*
X78377453Y-151699729D01*
X78377450Y-151699727D01*
X78253884Y-151628386D01*
X78173056Y-151581719D01*
X78173045Y-151581714D01*
X77954993Y-151491394D01*
X77727010Y-151430306D01*
X77493020Y-151399501D01*
X77493017Y-151399500D01*
X77493011Y-151399500D01*
X77256989Y-151399500D01*
X77256983Y-151399500D01*
X77256979Y-151399501D01*
X77022989Y-151430306D01*
X76795006Y-151491394D01*
X76576954Y-151581714D01*
X76576943Y-151581719D01*
X76372545Y-151699730D01*
X76185302Y-151843406D01*
X76185295Y-151843412D01*
X76018412Y-152010295D01*
X76018406Y-152010302D01*
X75874728Y-152197548D01*
X75857886Y-152226719D01*
X75807319Y-152274934D01*
X75738712Y-152288156D01*
X75673847Y-152262188D01*
X75633319Y-152205273D01*
X75626500Y-152164718D01*
X75626500Y-150402456D01*
X75626499Y-150402454D01*
X75603756Y-150288118D01*
X75588051Y-150209165D01*
X75587819Y-150208606D01*
X75550407Y-150118284D01*
X75512632Y-150027086D01*
X75494716Y-150000273D01*
X75403140Y-149863219D01*
X75396508Y-149856587D01*
X75263782Y-149723861D01*
X75263781Y-149723860D01*
X74437611Y-148897690D01*
X74404126Y-148836367D01*
X74402353Y-148793828D01*
X74425500Y-148618011D01*
X74425500Y-148381989D01*
X74402353Y-148206172D01*
X74413118Y-148137139D01*
X74437608Y-148102311D01*
X75403139Y-147136782D01*
X75512631Y-146972915D01*
X75512632Y-146972914D01*
X75556811Y-146866255D01*
X75588051Y-146790836D01*
X75626500Y-146597541D01*
X75626500Y-146400460D01*
X75626500Y-144835281D01*
X75646185Y-144768242D01*
X75698989Y-144722487D01*
X75768147Y-144712543D01*
X75831703Y-144741568D01*
X75857884Y-144773278D01*
X75874727Y-144802450D01*
X75874729Y-144802453D01*
X75874730Y-144802454D01*
X76018406Y-144989697D01*
X76018412Y-144989704D01*
X76185295Y-145156587D01*
X76185302Y-145156593D01*
X76295306Y-145241001D01*
X76372550Y-145300273D01*
X76503918Y-145376118D01*
X76576943Y-145418280D01*
X76576948Y-145418282D01*
X76576951Y-145418284D01*
X76795007Y-145508606D01*
X77022986Y-145569693D01*
X77256989Y-145600500D01*
X77256996Y-145600500D01*
X77493004Y-145600500D01*
X77493011Y-145600500D01*
X77727014Y-145569693D01*
X77954993Y-145508606D01*
X78173049Y-145418284D01*
X78377450Y-145300273D01*
X78564699Y-145156592D01*
X78731592Y-144989699D01*
X78875273Y-144802450D01*
X78993284Y-144598049D01*
X79083606Y-144379993D01*
X79144693Y-144152014D01*
X79175500Y-143918011D01*
X79175500Y-143681989D01*
X79144693Y-143447986D01*
X79083606Y-143220007D01*
X78993284Y-143001951D01*
X78993282Y-143001948D01*
X78993280Y-143001943D01*
X78927584Y-142888156D01*
X78875273Y-142797550D01*
X78731592Y-142610301D01*
X78731587Y-142610295D01*
X78564704Y-142443412D01*
X78564697Y-142443406D01*
X78377454Y-142299730D01*
X78377453Y-142299729D01*
X78377450Y-142299727D01*
X78295957Y-142252677D01*
X78173056Y-142181719D01*
X78173049Y-142181716D01*
X78052046Y-142131594D01*
X77997643Y-142087752D01*
X77975579Y-142021458D01*
X77975500Y-142017033D01*
X77975500Y-133365096D01*
X77995185Y-133298057D01*
X78011815Y-133277419D01*
X78730478Y-132558755D01*
X78791799Y-132525272D01*
X78856473Y-132528506D01*
X78898757Y-132542246D01*
X79108713Y-132575500D01*
X79108714Y-132575500D01*
X79321286Y-132575500D01*
X79321287Y-132575500D01*
X79531243Y-132542246D01*
X79733412Y-132476557D01*
X79922816Y-132380051D01*
X79944789Y-132364086D01*
X80094786Y-132255109D01*
X80094788Y-132255106D01*
X80094792Y-132255104D01*
X80245104Y-132104792D01*
X80245106Y-132104788D01*
X80245109Y-132104786D01*
X80370048Y-131932820D01*
X80370047Y-131932820D01*
X80370051Y-131932816D01*
X80374514Y-131924054D01*
X80422488Y-131873259D01*
X80490308Y-131856463D01*
X80556444Y-131878999D01*
X80595486Y-131924056D01*
X80599951Y-131932820D01*
X80724890Y-132104786D01*
X80875213Y-132255109D01*
X81047184Y-132380051D01*
X81047184Y-132380052D01*
X81086793Y-132400233D01*
X81137590Y-132448206D01*
X81154500Y-132510718D01*
X81154500Y-143819902D01*
X81134815Y-143886941D01*
X81118181Y-143907583D01*
X78211128Y-146814635D01*
X78149805Y-146848120D01*
X78080113Y-146843136D01*
X78076014Y-146841523D01*
X77954993Y-146791394D01*
X77727014Y-146730307D01*
X77727013Y-146730306D01*
X77727010Y-146730306D01*
X77493020Y-146699501D01*
X77493017Y-146699500D01*
X77493011Y-146699500D01*
X77256989Y-146699500D01*
X77256983Y-146699500D01*
X77256979Y-146699501D01*
X77022989Y-146730306D01*
X76795006Y-146791394D01*
X76576954Y-146881714D01*
X76576943Y-146881719D01*
X76372545Y-146999730D01*
X76185302Y-147143406D01*
X76185295Y-147143412D01*
X76018412Y-147310295D01*
X76018406Y-147310302D01*
X75874730Y-147497545D01*
X75756719Y-147701943D01*
X75756714Y-147701954D01*
X75666394Y-147920006D01*
X75605306Y-148147989D01*
X75574501Y-148381979D01*
X75574500Y-148381995D01*
X75574500Y-148618004D01*
X75574501Y-148618020D01*
X75605306Y-148852010D01*
X75666394Y-149079993D01*
X75756714Y-149298045D01*
X75756719Y-149298056D01*
X75827677Y-149420957D01*
X75874727Y-149502450D01*
X75874729Y-149502453D01*
X75874730Y-149502454D01*
X76018406Y-149689697D01*
X76018412Y-149689704D01*
X76185295Y-149856587D01*
X76185301Y-149856592D01*
X76372550Y-150000273D01*
X76503918Y-150076118D01*
X76576943Y-150118280D01*
X76576948Y-150118282D01*
X76576951Y-150118284D01*
X76795007Y-150208606D01*
X77022986Y-150269693D01*
X77256989Y-150300500D01*
X77256996Y-150300500D01*
X77493004Y-150300500D01*
X77493011Y-150300500D01*
X77727014Y-150269693D01*
X77954993Y-150208606D01*
X78173049Y-150118284D01*
X78377450Y-150000273D01*
X78564699Y-149856592D01*
X78731592Y-149689699D01*
X78875273Y-149502450D01*
X78993284Y-149298049D01*
X79083606Y-149079993D01*
X79144693Y-148852014D01*
X79175500Y-148618011D01*
X79175500Y-148381989D01*
X79144693Y-148147986D01*
X79083606Y-147920007D01*
X79033484Y-147799003D01*
X79026015Y-147729534D01*
X79057290Y-147667054D01*
X79060336Y-147663897D01*
X82123713Y-144600521D01*
X82123716Y-144600520D01*
X82136588Y-144587648D01*
X83449500Y-144587648D01*
X83449500Y-144792351D01*
X83481522Y-144994534D01*
X83544781Y-145189223D01*
X83637715Y-145371613D01*
X83758028Y-145537213D01*
X83902786Y-145681971D01*
X84057749Y-145794556D01*
X84068390Y-145802287D01*
X84184607Y-145861503D01*
X84250776Y-145895218D01*
X84250778Y-145895218D01*
X84250781Y-145895220D01*
X84355137Y-145929127D01*
X84445465Y-145958477D01*
X84546557Y-145974488D01*
X84647648Y-145990500D01*
X84647649Y-145990500D01*
X84852351Y-145990500D01*
X84852352Y-145990500D01*
X85054534Y-145958477D01*
X85249219Y-145895220D01*
X85431610Y-145802287D01*
X85524590Y-145734732D01*
X85597213Y-145681971D01*
X85597215Y-145681968D01*
X85597219Y-145681966D01*
X85741966Y-145537219D01*
X85741968Y-145537215D01*
X85741971Y-145537213D01*
X85794732Y-145464590D01*
X85862287Y-145371610D01*
X85955220Y-145189219D01*
X86018477Y-144994534D01*
X86050500Y-144792352D01*
X86050500Y-144587648D01*
X86034831Y-144488717D01*
X86018477Y-144385465D01*
X85989127Y-144295137D01*
X85955220Y-144190781D01*
X85955218Y-144190778D01*
X85955218Y-144190776D01*
X85921503Y-144124607D01*
X85862287Y-144008390D01*
X85854556Y-143997749D01*
X85741971Y-143842786D01*
X85597213Y-143698028D01*
X85431613Y-143577715D01*
X85431612Y-143577714D01*
X85431610Y-143577713D01*
X85374653Y-143548691D01*
X85249223Y-143484781D01*
X85054534Y-143421522D01*
X84879995Y-143393878D01*
X84852352Y-143389500D01*
X84647648Y-143389500D01*
X84623329Y-143393351D01*
X84445465Y-143421522D01*
X84250776Y-143484781D01*
X84068386Y-143577715D01*
X83902786Y-143698028D01*
X83758028Y-143842786D01*
X83637715Y-144008386D01*
X83544781Y-144190776D01*
X83481522Y-144385465D01*
X83449500Y-144587648D01*
X82136588Y-144587648D01*
X82235520Y-144488716D01*
X82314577Y-144351784D01*
X82355500Y-144199057D01*
X82355500Y-139102155D01*
X93650000Y-139102155D01*
X93650000Y-139750000D01*
X94566988Y-139750000D01*
X94534075Y-139807007D01*
X94500000Y-139934174D01*
X94500000Y-140065826D01*
X94534075Y-140192993D01*
X94566988Y-140250000D01*
X93650000Y-140250000D01*
X93650000Y-140897844D01*
X93656401Y-140957372D01*
X93656403Y-140957379D01*
X93706645Y-141092086D01*
X93706649Y-141092093D01*
X93792809Y-141207187D01*
X93792812Y-141207190D01*
X93907906Y-141293350D01*
X93907913Y-141293354D01*
X94042620Y-141343596D01*
X94042627Y-141343598D01*
X94102155Y-141349999D01*
X94102172Y-141350000D01*
X94750000Y-141350000D01*
X94750000Y-140433012D01*
X94807007Y-140465925D01*
X94934174Y-140500000D01*
X95065826Y-140500000D01*
X95192993Y-140465925D01*
X95250000Y-140433012D01*
X95250000Y-141350000D01*
X95897828Y-141350000D01*
X95897844Y-141349999D01*
X95957372Y-141343598D01*
X95957379Y-141343596D01*
X96092086Y-141293354D01*
X96092093Y-141293350D01*
X96207187Y-141207190D01*
X96207190Y-141207187D01*
X96293350Y-141092093D01*
X96293354Y-141092086D01*
X96343596Y-140957379D01*
X96343598Y-140957372D01*
X96349999Y-140897844D01*
X96350000Y-140897827D01*
X96350000Y-140250000D01*
X95433012Y-140250000D01*
X95465925Y-140192993D01*
X95500000Y-140065826D01*
X95500000Y-139934174D01*
X95465925Y-139807007D01*
X95433012Y-139750000D01*
X96350000Y-139750000D01*
X96350000Y-139102172D01*
X96349999Y-139102155D01*
X96343598Y-139042627D01*
X96343596Y-139042620D01*
X96293354Y-138907913D01*
X96293350Y-138907906D01*
X96207190Y-138792812D01*
X96207187Y-138792809D01*
X96092093Y-138706649D01*
X96092086Y-138706645D01*
X95957379Y-138656403D01*
X95957372Y-138656401D01*
X95897844Y-138650000D01*
X95250000Y-138650000D01*
X95250000Y-139566988D01*
X95192993Y-139534075D01*
X95065826Y-139500000D01*
X94934174Y-139500000D01*
X94807007Y-139534075D01*
X94750000Y-139566988D01*
X94750000Y-138650000D01*
X94102155Y-138650000D01*
X94042627Y-138656401D01*
X94042620Y-138656403D01*
X93907913Y-138706645D01*
X93907906Y-138706649D01*
X93792812Y-138792809D01*
X93792809Y-138792812D01*
X93706649Y-138907906D01*
X93706645Y-138907913D01*
X93656403Y-139042620D01*
X93656401Y-139042627D01*
X93650000Y-139102155D01*
X82355500Y-139102155D01*
X82355500Y-132510718D01*
X82375185Y-132443679D01*
X82423207Y-132400233D01*
X82462815Y-132380052D01*
X82462815Y-132380051D01*
X82462816Y-132380051D01*
X82554193Y-132313661D01*
X82634786Y-132255109D01*
X82634788Y-132255106D01*
X82634792Y-132255104D01*
X82785104Y-132104792D01*
X82785106Y-132104788D01*
X82785109Y-132104786D01*
X82910048Y-131932820D01*
X82910047Y-131932820D01*
X82910051Y-131932816D01*
X82914514Y-131924054D01*
X82962488Y-131873259D01*
X83030308Y-131856463D01*
X83096444Y-131878999D01*
X83135486Y-131924056D01*
X83139951Y-131932820D01*
X83264890Y-132104786D01*
X83415213Y-132255109D01*
X83587179Y-132380048D01*
X83587181Y-132380049D01*
X83587184Y-132380051D01*
X83776588Y-132476557D01*
X83978757Y-132542246D01*
X84188713Y-132575500D01*
X84188714Y-132575500D01*
X84401286Y-132575500D01*
X84401287Y-132575500D01*
X84611243Y-132542246D01*
X84813412Y-132476557D01*
X85002816Y-132380051D01*
X85024789Y-132364086D01*
X85174786Y-132255109D01*
X85174788Y-132255106D01*
X85174792Y-132255104D01*
X85325104Y-132104792D01*
X85325106Y-132104788D01*
X85325109Y-132104786D01*
X85450048Y-131932820D01*
X85450051Y-131932816D01*
X85454793Y-131923508D01*
X85502763Y-131872711D01*
X85570583Y-131855911D01*
X85636719Y-131878445D01*
X85675763Y-131923500D01*
X85680377Y-131932555D01*
X85805272Y-132104459D01*
X85805276Y-132104464D01*
X85955535Y-132254723D01*
X85955540Y-132254727D01*
X86127442Y-132379620D01*
X86316782Y-132476095D01*
X86518871Y-132541757D01*
X86585000Y-132552231D01*
X86585000Y-131658012D01*
X86642007Y-131690925D01*
X86769174Y-131725000D01*
X86900826Y-131725000D01*
X87027993Y-131690925D01*
X87085000Y-131658012D01*
X87085000Y-132552230D01*
X87151126Y-132541757D01*
X87151129Y-132541757D01*
X87353217Y-132476095D01*
X87542557Y-132379620D01*
X87714459Y-132254727D01*
X87714464Y-132254723D01*
X87864723Y-132104464D01*
X87864727Y-132104459D01*
X87989620Y-131932558D01*
X87994514Y-131922954D01*
X88042488Y-131872157D01*
X88110308Y-131855361D01*
X88176444Y-131877897D01*
X88215486Y-131922954D01*
X88220379Y-131932558D01*
X88345272Y-132104459D01*
X88345276Y-132104464D01*
X88495535Y-132254723D01*
X88495540Y-132254727D01*
X88667442Y-132379620D01*
X88856782Y-132476095D01*
X89058871Y-132541757D01*
X89125000Y-132552231D01*
X89125000Y-131658012D01*
X89182007Y-131690925D01*
X89309174Y-131725000D01*
X89440826Y-131725000D01*
X89567993Y-131690925D01*
X89625000Y-131658012D01*
X89625000Y-132552230D01*
X89691126Y-132541757D01*
X89691129Y-132541757D01*
X89893217Y-132476095D01*
X90082557Y-132379620D01*
X90254459Y-132254727D01*
X90254464Y-132254723D01*
X90404723Y-132104464D01*
X90404727Y-132104459D01*
X90529620Y-131932557D01*
X90626095Y-131743217D01*
X90691757Y-131541129D01*
X90691757Y-131541126D01*
X90702231Y-131475000D01*
X89808012Y-131475000D01*
X89840925Y-131417993D01*
X89875000Y-131290826D01*
X89875000Y-131159174D01*
X89840925Y-131032007D01*
X89808012Y-130975000D01*
X90702231Y-130975000D01*
X90691757Y-130908873D01*
X90691757Y-130908870D01*
X90626095Y-130706782D01*
X90529620Y-130517442D01*
X90404727Y-130345540D01*
X90404723Y-130345535D01*
X90254464Y-130195276D01*
X90254459Y-130195272D01*
X90082557Y-130070379D01*
X89893215Y-129973903D01*
X89691124Y-129908241D01*
X89625000Y-129897768D01*
X89625000Y-130791988D01*
X89567993Y-130759075D01*
X89440826Y-130725000D01*
X89309174Y-130725000D01*
X89182007Y-130759075D01*
X89125000Y-130791988D01*
X89125000Y-129897768D01*
X89124999Y-129897768D01*
X89058875Y-129908241D01*
X88856784Y-129973903D01*
X88667442Y-130070379D01*
X88495540Y-130195272D01*
X88495535Y-130195276D01*
X88345276Y-130345535D01*
X88345272Y-130345540D01*
X88220377Y-130517444D01*
X88215484Y-130527048D01*
X88167509Y-130577844D01*
X88099688Y-130594638D01*
X88033553Y-130572100D01*
X87994516Y-130527048D01*
X87989622Y-130517444D01*
X87864727Y-130345540D01*
X87864723Y-130345535D01*
X87714464Y-130195276D01*
X87714459Y-130195272D01*
X87542557Y-130070379D01*
X87353215Y-129973903D01*
X87151124Y-129908241D01*
X87085000Y-129897768D01*
X87085000Y-130791988D01*
X87027993Y-130759075D01*
X86900826Y-130725000D01*
X86769174Y-130725000D01*
X86642007Y-130759075D01*
X86585000Y-130791988D01*
X86585000Y-129897768D01*
X86584999Y-129897768D01*
X86518875Y-129908241D01*
X86316784Y-129973903D01*
X86127442Y-130070379D01*
X85955540Y-130195272D01*
X85955535Y-130195276D01*
X85805276Y-130345535D01*
X85805272Y-130345540D01*
X85680378Y-130517443D01*
X85675762Y-130526502D01*
X85627784Y-130577295D01*
X85559963Y-130594087D01*
X85493829Y-130571546D01*
X85454794Y-130526493D01*
X85450051Y-130517184D01*
X85450049Y-130517181D01*
X85450048Y-130517179D01*
X85325109Y-130345213D01*
X85174786Y-130194890D01*
X85002815Y-130069948D01*
X85002814Y-130069947D01*
X84963205Y-130049765D01*
X84912409Y-130001791D01*
X84895500Y-129939281D01*
X84895500Y-129588216D01*
X84915185Y-129521177D01*
X84967989Y-129475422D01*
X85037147Y-129465478D01*
X85075796Y-129477732D01*
X85212587Y-129547431D01*
X85212586Y-129547431D01*
X85422164Y-129615526D01*
X85639819Y-129650000D01*
X85860181Y-129650000D01*
X86077835Y-129615526D01*
X86287410Y-129547432D01*
X86483760Y-129447386D01*
X86547513Y-129401066D01*
X86547514Y-129401066D01*
X85879409Y-128732962D01*
X85942993Y-128715925D01*
X86057007Y-128650099D01*
X86150099Y-128557007D01*
X86215925Y-128442993D01*
X86232962Y-128379410D01*
X86901066Y-129047514D01*
X86901066Y-129047513D01*
X86947386Y-128983760D01*
X87047432Y-128787410D01*
X87115526Y-128577835D01*
X87150000Y-128360181D01*
X87150000Y-128139818D01*
X87115526Y-127922164D01*
X87047432Y-127712589D01*
X86947388Y-127516243D01*
X86901066Y-127452485D01*
X86901065Y-127452485D01*
X86232962Y-128120589D01*
X86215925Y-128057007D01*
X86150099Y-127942993D01*
X86057007Y-127849901D01*
X85942993Y-127784075D01*
X85879407Y-127767037D01*
X86547513Y-127098932D01*
X86483756Y-127052611D01*
X86287410Y-126952567D01*
X86077835Y-126884473D01*
X85860181Y-126850000D01*
X85639819Y-126850000D01*
X85422164Y-126884473D01*
X85212589Y-126952567D01*
X85016233Y-127052616D01*
X84952485Y-127098931D01*
X84952485Y-127098932D01*
X85620590Y-127767037D01*
X85557007Y-127784075D01*
X85442993Y-127849901D01*
X85349901Y-127942993D01*
X85284075Y-128057007D01*
X85267037Y-128120591D01*
X84598932Y-127452485D01*
X84597448Y-127452602D01*
X84545296Y-127492817D01*
X84475682Y-127498796D01*
X84413887Y-127466190D01*
X84399990Y-127450151D01*
X84318247Y-127337641D01*
X84318243Y-127337636D01*
X84162363Y-127181756D01*
X84162358Y-127181752D01*
X83984025Y-127052187D01*
X83984024Y-127052186D01*
X83984022Y-127052185D01*
X83866791Y-126992452D01*
X83787606Y-126952104D01*
X83787603Y-126952103D01*
X83577952Y-126883985D01*
X83469086Y-126866742D01*
X83360222Y-126849500D01*
X83139778Y-126849500D01*
X83067201Y-126860995D01*
X82922047Y-126883985D01*
X82712396Y-126952103D01*
X82712393Y-126952104D01*
X82515974Y-127052187D01*
X82337641Y-127181752D01*
X82337635Y-127181757D01*
X82316596Y-127202796D01*
X82255273Y-127236280D01*
X82185581Y-127231294D01*
X82129648Y-127189421D01*
X82112735Y-127158446D01*
X82093797Y-127107671D01*
X82093793Y-127107664D01*
X82007547Y-126992455D01*
X82007544Y-126992452D01*
X81892335Y-126906206D01*
X81892328Y-126906202D01*
X81757482Y-126855908D01*
X81757483Y-126855908D01*
X81697883Y-126849501D01*
X81697881Y-126849500D01*
X81697873Y-126849500D01*
X81697865Y-126849500D01*
X81474500Y-126849500D01*
X81407461Y-126829815D01*
X81361706Y-126777011D01*
X81350500Y-126725500D01*
X81350500Y-120368048D01*
X86189500Y-120368048D01*
X86189500Y-121131951D01*
X86216013Y-121333333D01*
X86221334Y-121373744D01*
X86221335Y-121373746D01*
X86284456Y-121609320D01*
X86284459Y-121609330D01*
X86377786Y-121834640D01*
X86377791Y-121834651D01*
X86499727Y-122045848D01*
X86499738Y-122045864D01*
X86648199Y-122239343D01*
X86648205Y-122239350D01*
X86820649Y-122411794D01*
X86820655Y-122411799D01*
X87014144Y-122560268D01*
X87014151Y-122560272D01*
X87225348Y-122682208D01*
X87225353Y-122682210D01*
X87225356Y-122682212D01*
X87253272Y-122693775D01*
X87415117Y-122760814D01*
X87450679Y-122775544D01*
X87686256Y-122838666D01*
X87928056Y-122870500D01*
X87928063Y-122870500D01*
X88171937Y-122870500D01*
X88171944Y-122870500D01*
X88413744Y-122838666D01*
X88649321Y-122775544D01*
X88874644Y-122682212D01*
X89085856Y-122560268D01*
X89279345Y-122411799D01*
X89451799Y-122239345D01*
X89600268Y-122045856D01*
X89722212Y-121834644D01*
X89815544Y-121609321D01*
X89878666Y-121373744D01*
X89910500Y-121131944D01*
X89910500Y-120368056D01*
X89878666Y-120126256D01*
X89815544Y-119890679D01*
X89722212Y-119665356D01*
X89722210Y-119665353D01*
X89722208Y-119665348D01*
X89600272Y-119454151D01*
X89600268Y-119454144D01*
X89536938Y-119371610D01*
X89451800Y-119260656D01*
X89451794Y-119260649D01*
X89279350Y-119088205D01*
X89279343Y-119088199D01*
X89085864Y-118939738D01*
X89085862Y-118939736D01*
X89085856Y-118939732D01*
X89085851Y-118939729D01*
X89085848Y-118939727D01*
X88874651Y-118817791D01*
X88874640Y-118817786D01*
X88649330Y-118724459D01*
X88649323Y-118724457D01*
X88649321Y-118724456D01*
X88413744Y-118661334D01*
X88373333Y-118656013D01*
X88171951Y-118629500D01*
X88171944Y-118629500D01*
X87928056Y-118629500D01*
X87928048Y-118629500D01*
X87697896Y-118659801D01*
X87686256Y-118661334D01*
X87450679Y-118724456D01*
X87450669Y-118724459D01*
X87225359Y-118817786D01*
X87225348Y-118817791D01*
X87014151Y-118939727D01*
X87014135Y-118939738D01*
X86820656Y-119088199D01*
X86820649Y-119088205D01*
X86648205Y-119260649D01*
X86648199Y-119260656D01*
X86499738Y-119454135D01*
X86499727Y-119454151D01*
X86377791Y-119665348D01*
X86377786Y-119665359D01*
X86284459Y-119890669D01*
X86284456Y-119890679D01*
X86267536Y-119953828D01*
X86221335Y-120126253D01*
X86221333Y-120126264D01*
X86189500Y-120368048D01*
X81350500Y-120368048D01*
X81350500Y-117110097D01*
X81370185Y-117043058D01*
X81386819Y-117022416D01*
X82079757Y-116329478D01*
X86615159Y-111794075D01*
X86676480Y-111760592D01*
X86741154Y-111763826D01*
X86755466Y-111768477D01*
X86957648Y-111800500D01*
X86957649Y-111800500D01*
X87162351Y-111800500D01*
X87162352Y-111800500D01*
X87364534Y-111768477D01*
X87559219Y-111705220D01*
X87741610Y-111612287D01*
X87834590Y-111544732D01*
X87907213Y-111491971D01*
X87907215Y-111491968D01*
X87907219Y-111491966D01*
X88051966Y-111347219D01*
X88051968Y-111347215D01*
X88051971Y-111347213D01*
X88104732Y-111274590D01*
X88172287Y-111181610D01*
X88265220Y-110999219D01*
X88328477Y-110804534D01*
X88360500Y-110602352D01*
X88360500Y-110397648D01*
X88328477Y-110195466D01*
X88265220Y-110000781D01*
X88265218Y-110000778D01*
X88265218Y-110000776D01*
X88231503Y-109934607D01*
X88172287Y-109818390D01*
X88164556Y-109807749D01*
X88051971Y-109652786D01*
X87907213Y-109508028D01*
X87741613Y-109387715D01*
X87741612Y-109387714D01*
X87741610Y-109387713D01*
X87684653Y-109358691D01*
X87559223Y-109294781D01*
X87364534Y-109231522D01*
X87176690Y-109201771D01*
X87162352Y-109199500D01*
X86957648Y-109199500D01*
X86943310Y-109201771D01*
X86755465Y-109231522D01*
X86560776Y-109294781D01*
X86378386Y-109387715D01*
X86212786Y-109508028D01*
X86068028Y-109652786D01*
X85947715Y-109818386D01*
X85854781Y-110000776D01*
X85791522Y-110195465D01*
X85759500Y-110397648D01*
X85759500Y-110602351D01*
X85791523Y-110804535D01*
X85796172Y-110818845D01*
X85798165Y-110888687D01*
X85765921Y-110944841D01*
X80381286Y-116329478D01*
X80269481Y-116441282D01*
X80269479Y-116441285D01*
X80219361Y-116528094D01*
X80219359Y-116528096D01*
X80190425Y-116578209D01*
X80190424Y-116578210D01*
X80190423Y-116578215D01*
X80149499Y-116730943D01*
X80149499Y-116730945D01*
X80149499Y-116899046D01*
X80149500Y-116899059D01*
X80149500Y-119283334D01*
X80129815Y-119350373D01*
X80077011Y-119396128D01*
X80007853Y-119406072D01*
X79944297Y-119377047D01*
X79927124Y-119358820D01*
X79851800Y-119260656D01*
X79851794Y-119260649D01*
X79679350Y-119088205D01*
X79679343Y-119088199D01*
X79485864Y-118939738D01*
X79485862Y-118939736D01*
X79485856Y-118939732D01*
X79485851Y-118939729D01*
X79485848Y-118939727D01*
X79274651Y-118817791D01*
X79274640Y-118817786D01*
X79049330Y-118724459D01*
X79049323Y-118724457D01*
X79049321Y-118724456D01*
X78813744Y-118661334D01*
X78773333Y-118656013D01*
X78571951Y-118629500D01*
X78571944Y-118629500D01*
X78328056Y-118629500D01*
X78328048Y-118629500D01*
X78097896Y-118659801D01*
X78086256Y-118661334D01*
X77850679Y-118724456D01*
X77850669Y-118724459D01*
X77625359Y-118817786D01*
X77625353Y-118817789D01*
X77575499Y-118846572D01*
X77507599Y-118863043D01*
X77441572Y-118840191D01*
X77398382Y-118785269D01*
X77389500Y-118739184D01*
X77389500Y-114016782D01*
X77409185Y-113949743D01*
X77425819Y-113929101D01*
X78441702Y-112913218D01*
X79528204Y-111826715D01*
X79589525Y-111793232D01*
X79596475Y-111791926D01*
X79744534Y-111768477D01*
X79939219Y-111705220D01*
X80121610Y-111612287D01*
X80214590Y-111544732D01*
X80287213Y-111491971D01*
X80287215Y-111491968D01*
X80287219Y-111491966D01*
X80431966Y-111347219D01*
X80431968Y-111347215D01*
X80431971Y-111347213D01*
X80484732Y-111274590D01*
X80552287Y-111181610D01*
X80645220Y-110999219D01*
X80708477Y-110804534D01*
X80740500Y-110602352D01*
X80740500Y-110397648D01*
X80708477Y-110195466D01*
X80645220Y-110000781D01*
X80645218Y-110000778D01*
X80645218Y-110000776D01*
X80611503Y-109934607D01*
X80552287Y-109818390D01*
X80544556Y-109807749D01*
X80431971Y-109652786D01*
X80287213Y-109508028D01*
X80121613Y-109387715D01*
X80121612Y-109387714D01*
X80121610Y-109387713D01*
X80064653Y-109358691D01*
X79939223Y-109294781D01*
X79744535Y-109231523D01*
X79596483Y-109208073D01*
X79533349Y-109178143D01*
X79528201Y-109173281D01*
X75662819Y-105307899D01*
X75629334Y-105246576D01*
X75626500Y-105220218D01*
X75626500Y-93985281D01*
X75646185Y-93918242D01*
X75698989Y-93872487D01*
X75768147Y-93862543D01*
X75831703Y-93891568D01*
X75857884Y-93923278D01*
X75874727Y-93952450D01*
X75874729Y-93952453D01*
X75874730Y-93952454D01*
X76018406Y-94139697D01*
X76018412Y-94139704D01*
X76185295Y-94306587D01*
X76185301Y-94306592D01*
X76372550Y-94450273D01*
X76503918Y-94526118D01*
X76576943Y-94568280D01*
X76576948Y-94568282D01*
X76576951Y-94568284D01*
X76795007Y-94658606D01*
X77022986Y-94719693D01*
X77256989Y-94750500D01*
X77256996Y-94750500D01*
X77493004Y-94750500D01*
X77493011Y-94750500D01*
X77727014Y-94719693D01*
X77954993Y-94658606D01*
X78173049Y-94568284D01*
X78377450Y-94450273D01*
X78564699Y-94306592D01*
X78731592Y-94139699D01*
X78875273Y-93952450D01*
X78993284Y-93748049D01*
X79083606Y-93529993D01*
X79144693Y-93302014D01*
X79175500Y-93068011D01*
X79175500Y-92831989D01*
X79144693Y-92597986D01*
X79083606Y-92370007D01*
X79016355Y-92207648D01*
X83449500Y-92207648D01*
X83449500Y-92412351D01*
X83481522Y-92614534D01*
X83544781Y-92809223D01*
X83637715Y-92991613D01*
X83758028Y-93157213D01*
X83902786Y-93301971D01*
X84011710Y-93381107D01*
X84068390Y-93422287D01*
X84184607Y-93481503D01*
X84250776Y-93515218D01*
X84250778Y-93515218D01*
X84250781Y-93515220D01*
X84296248Y-93529993D01*
X84445465Y-93578477D01*
X84546557Y-93594488D01*
X84647648Y-93610500D01*
X84647649Y-93610500D01*
X84852351Y-93610500D01*
X84852352Y-93610500D01*
X85054534Y-93578477D01*
X85249219Y-93515220D01*
X85431610Y-93422287D01*
X85524590Y-93354732D01*
X85597213Y-93301971D01*
X85597215Y-93301968D01*
X85597219Y-93301966D01*
X85741966Y-93157219D01*
X85741968Y-93157215D01*
X85741971Y-93157213D01*
X85806784Y-93068004D01*
X85862287Y-92991610D01*
X85955220Y-92809219D01*
X86018477Y-92614534D01*
X86050500Y-92412352D01*
X86050500Y-92207648D01*
X86023655Y-92038156D01*
X86018477Y-92005465D01*
X85955218Y-91810776D01*
X85921503Y-91744607D01*
X85862287Y-91628390D01*
X85836874Y-91593412D01*
X85741971Y-91462786D01*
X85597213Y-91318028D01*
X85431613Y-91197715D01*
X85431612Y-91197714D01*
X85431610Y-91197713D01*
X85336987Y-91149500D01*
X85249223Y-91104781D01*
X85054534Y-91041522D01*
X84879995Y-91013878D01*
X84852352Y-91009500D01*
X84647648Y-91009500D01*
X84623329Y-91013351D01*
X84445465Y-91041522D01*
X84250776Y-91104781D01*
X84068386Y-91197715D01*
X83902786Y-91318028D01*
X83758028Y-91462786D01*
X83637715Y-91628386D01*
X83544781Y-91810776D01*
X83481522Y-92005465D01*
X83449500Y-92207648D01*
X79016355Y-92207648D01*
X78993288Y-92151959D01*
X78993280Y-92151943D01*
X78927584Y-92038156D01*
X78875273Y-91947550D01*
X78731592Y-91760301D01*
X78731587Y-91760295D01*
X78564704Y-91593412D01*
X78564697Y-91593406D01*
X78377454Y-91449730D01*
X78377453Y-91449729D01*
X78377450Y-91449727D01*
X78295957Y-91402677D01*
X78173056Y-91331719D01*
X78173045Y-91331714D01*
X77954993Y-91241394D01*
X77727010Y-91180306D01*
X77493020Y-91149501D01*
X77493017Y-91149500D01*
X77493011Y-91149500D01*
X77256989Y-91149500D01*
X77256983Y-91149500D01*
X77256979Y-91149501D01*
X77022989Y-91180306D01*
X76795006Y-91241394D01*
X76576954Y-91331714D01*
X76576943Y-91331719D01*
X76372545Y-91449730D01*
X76185302Y-91593406D01*
X76185295Y-91593412D01*
X76018412Y-91760295D01*
X76018406Y-91760302D01*
X75874728Y-91947548D01*
X75857886Y-91976719D01*
X75807319Y-92024934D01*
X75738712Y-92038156D01*
X75673847Y-92012188D01*
X75633319Y-91955273D01*
X75626500Y-91914718D01*
X75626500Y-90152456D01*
X75626499Y-90152454D01*
X75603756Y-90038118D01*
X75588051Y-89959165D01*
X75587819Y-89958606D01*
X75550407Y-89868284D01*
X75512632Y-89777086D01*
X75494716Y-89750273D01*
X75403140Y-89613219D01*
X75396508Y-89606587D01*
X75263782Y-89473861D01*
X75263781Y-89473860D01*
X74437611Y-88647690D01*
X74404126Y-88586367D01*
X74402353Y-88543828D01*
X74425500Y-88368011D01*
X74425500Y-88131989D01*
X74402353Y-87956172D01*
X74413118Y-87887139D01*
X74437608Y-87852311D01*
X75403139Y-86886782D01*
X75512631Y-86722915D01*
X75512632Y-86722914D01*
X75556811Y-86616255D01*
X75588051Y-86540836D01*
X75626500Y-86347541D01*
X75626500Y-86150460D01*
X75626500Y-84585281D01*
X75646185Y-84518242D01*
X75698989Y-84472487D01*
X75768147Y-84462543D01*
X75831703Y-84491568D01*
X75857884Y-84523278D01*
X75874727Y-84552450D01*
X75874729Y-84552453D01*
X75874730Y-84552454D01*
X76018406Y-84739697D01*
X76018412Y-84739704D01*
X76185295Y-84906587D01*
X76185301Y-84906592D01*
X76372550Y-85050273D01*
X76503918Y-85126118D01*
X76576943Y-85168280D01*
X76576948Y-85168282D01*
X76576951Y-85168284D01*
X76795007Y-85258606D01*
X77022986Y-85319693D01*
X77256989Y-85350500D01*
X77256996Y-85350500D01*
X77493004Y-85350500D01*
X77493011Y-85350500D01*
X77727014Y-85319693D01*
X77954993Y-85258606D01*
X78173049Y-85168284D01*
X78377450Y-85050273D01*
X78564699Y-84906592D01*
X78731592Y-84739699D01*
X78875273Y-84552450D01*
X78993284Y-84348049D01*
X79083606Y-84129993D01*
X79144693Y-83902014D01*
X79175500Y-83668011D01*
X79175500Y-83431989D01*
X79144693Y-83197986D01*
X79083606Y-82970007D01*
X78993284Y-82751951D01*
X78993282Y-82751948D01*
X78993280Y-82751943D01*
X78927584Y-82638156D01*
X78875273Y-82547550D01*
X78731592Y-82360301D01*
X78731587Y-82360295D01*
X78564704Y-82193412D01*
X78564697Y-82193406D01*
X78377454Y-82049730D01*
X78377453Y-82049729D01*
X78377450Y-82049727D01*
X78295957Y-82002677D01*
X78173056Y-81931719D01*
X78173049Y-81931716D01*
X78052046Y-81881594D01*
X77997643Y-81837752D01*
X77975579Y-81771458D01*
X77975500Y-81767033D01*
X77975500Y-73115096D01*
X77995185Y-73048057D01*
X78011815Y-73027419D01*
X78730478Y-72308755D01*
X78791799Y-72275272D01*
X78856473Y-72278506D01*
X78898757Y-72292246D01*
X79108713Y-72325500D01*
X79108714Y-72325500D01*
X79321286Y-72325500D01*
X79321287Y-72325500D01*
X79531243Y-72292246D01*
X79733412Y-72226557D01*
X79922816Y-72130051D01*
X79944789Y-72114086D01*
X80094786Y-72005109D01*
X80094788Y-72005106D01*
X80094792Y-72005104D01*
X80245104Y-71854792D01*
X80245106Y-71854788D01*
X80245109Y-71854786D01*
X80370048Y-71682820D01*
X80370047Y-71682820D01*
X80370051Y-71682816D01*
X80374514Y-71674054D01*
X80422488Y-71623259D01*
X80490308Y-71606463D01*
X80556444Y-71628999D01*
X80595486Y-71674056D01*
X80599951Y-71682820D01*
X80724890Y-71854786D01*
X80875213Y-72005109D01*
X81047184Y-72130051D01*
X81047184Y-72130052D01*
X81086793Y-72150233D01*
X81137590Y-72198206D01*
X81154500Y-72260718D01*
X81154500Y-83569902D01*
X81134815Y-83636941D01*
X81118181Y-83657583D01*
X78211128Y-86564635D01*
X78149805Y-86598120D01*
X78080113Y-86593136D01*
X78076014Y-86591523D01*
X77954993Y-86541394D01*
X77727014Y-86480307D01*
X77727013Y-86480306D01*
X77727010Y-86480306D01*
X77493020Y-86449501D01*
X77493017Y-86449500D01*
X77493011Y-86449500D01*
X77256989Y-86449500D01*
X77256983Y-86449500D01*
X77256979Y-86449501D01*
X77022989Y-86480306D01*
X76795006Y-86541394D01*
X76576954Y-86631714D01*
X76576943Y-86631719D01*
X76372545Y-86749730D01*
X76185302Y-86893406D01*
X76185295Y-86893412D01*
X76018412Y-87060295D01*
X76018406Y-87060302D01*
X75874730Y-87247545D01*
X75756719Y-87451943D01*
X75756714Y-87451954D01*
X75666394Y-87670006D01*
X75605306Y-87897989D01*
X75574501Y-88131979D01*
X75574500Y-88131995D01*
X75574500Y-88368004D01*
X75574501Y-88368020D01*
X75605306Y-88602010D01*
X75666394Y-88829993D01*
X75756714Y-89048045D01*
X75756719Y-89048056D01*
X75827677Y-89170957D01*
X75874727Y-89252450D01*
X75874729Y-89252453D01*
X75874730Y-89252454D01*
X76018406Y-89439697D01*
X76018412Y-89439704D01*
X76185295Y-89606587D01*
X76185301Y-89606592D01*
X76372550Y-89750273D01*
X76503918Y-89826118D01*
X76576943Y-89868280D01*
X76576948Y-89868282D01*
X76576951Y-89868284D01*
X76795007Y-89958606D01*
X77022986Y-90019693D01*
X77256989Y-90050500D01*
X77256996Y-90050500D01*
X77493004Y-90050500D01*
X77493011Y-90050500D01*
X77727014Y-90019693D01*
X77954993Y-89958606D01*
X78173049Y-89868284D01*
X78377450Y-89750273D01*
X78564699Y-89606592D01*
X78731592Y-89439699D01*
X78875273Y-89252450D01*
X78993284Y-89048049D01*
X79083606Y-88829993D01*
X79144693Y-88602014D01*
X79175500Y-88368011D01*
X79175500Y-88131989D01*
X79144693Y-87897986D01*
X79083606Y-87670007D01*
X79033484Y-87549003D01*
X79026015Y-87479534D01*
X79057290Y-87417054D01*
X79060336Y-87413897D01*
X81886586Y-84587648D01*
X83449500Y-84587648D01*
X83449500Y-84792351D01*
X83481522Y-84994534D01*
X83544781Y-85189223D01*
X83637715Y-85371613D01*
X83758028Y-85537213D01*
X83902786Y-85681971D01*
X84042141Y-85783216D01*
X84068390Y-85802287D01*
X84184607Y-85861503D01*
X84250776Y-85895218D01*
X84250778Y-85895218D01*
X84250781Y-85895220D01*
X84355137Y-85929127D01*
X84445465Y-85958477D01*
X84546557Y-85974488D01*
X84647648Y-85990500D01*
X84647649Y-85990500D01*
X84852351Y-85990500D01*
X84852352Y-85990500D01*
X85054534Y-85958477D01*
X85249219Y-85895220D01*
X85431610Y-85802287D01*
X85524590Y-85734732D01*
X85597213Y-85681971D01*
X85597215Y-85681968D01*
X85597219Y-85681966D01*
X85741966Y-85537219D01*
X85741968Y-85537215D01*
X85741971Y-85537213D01*
X85794732Y-85464590D01*
X85862287Y-85371610D01*
X85955220Y-85189219D01*
X86018477Y-84994534D01*
X86050500Y-84792352D01*
X86050500Y-84587648D01*
X86018477Y-84385466D01*
X86010440Y-84360732D01*
X85955218Y-84190776D01*
X85909873Y-84101783D01*
X85862287Y-84008390D01*
X85842465Y-83981107D01*
X85741971Y-83842786D01*
X85597213Y-83698028D01*
X85431613Y-83577715D01*
X85431612Y-83577714D01*
X85431610Y-83577713D01*
X85374653Y-83548691D01*
X85249223Y-83484781D01*
X85054534Y-83421522D01*
X84879995Y-83393878D01*
X84852352Y-83389500D01*
X84647648Y-83389500D01*
X84623329Y-83393351D01*
X84445465Y-83421522D01*
X84250776Y-83484781D01*
X84068386Y-83577715D01*
X83902786Y-83698028D01*
X83758028Y-83842786D01*
X83637715Y-84008386D01*
X83544781Y-84190776D01*
X83481522Y-84385465D01*
X83449500Y-84587648D01*
X81886586Y-84587648D01*
X82113506Y-84360728D01*
X82113511Y-84360724D01*
X82123714Y-84350520D01*
X82123716Y-84350520D01*
X82235520Y-84238716D01*
X82314577Y-84101784D01*
X82355500Y-83949057D01*
X82355500Y-72260718D01*
X82375185Y-72193679D01*
X82423207Y-72150233D01*
X82462815Y-72130052D01*
X82462815Y-72130051D01*
X82462816Y-72130051D01*
X82554193Y-72063661D01*
X82634786Y-72005109D01*
X82634788Y-72005106D01*
X82634792Y-72005104D01*
X82785104Y-71854792D01*
X82785106Y-71854788D01*
X82785109Y-71854786D01*
X82910048Y-71682820D01*
X82910047Y-71682820D01*
X82910051Y-71682816D01*
X82914514Y-71674054D01*
X82962488Y-71623259D01*
X83030308Y-71606463D01*
X83096444Y-71628999D01*
X83135486Y-71674056D01*
X83139951Y-71682820D01*
X83264890Y-71854786D01*
X83415213Y-72005109D01*
X83587179Y-72130048D01*
X83587181Y-72130049D01*
X83587184Y-72130051D01*
X83776588Y-72226557D01*
X83978757Y-72292246D01*
X84188713Y-72325500D01*
X84188714Y-72325500D01*
X84401286Y-72325500D01*
X84401287Y-72325500D01*
X84611243Y-72292246D01*
X84813412Y-72226557D01*
X85002816Y-72130051D01*
X85024789Y-72114086D01*
X85174786Y-72005109D01*
X85174788Y-72005106D01*
X85174792Y-72005104D01*
X85325104Y-71854792D01*
X85325106Y-71854788D01*
X85325109Y-71854786D01*
X85450048Y-71682820D01*
X85450051Y-71682816D01*
X85454793Y-71673508D01*
X85502763Y-71622711D01*
X85570583Y-71605911D01*
X85636719Y-71628445D01*
X85675763Y-71673500D01*
X85680377Y-71682555D01*
X85805272Y-71854459D01*
X85805276Y-71854464D01*
X85955535Y-72004723D01*
X85955540Y-72004727D01*
X86127442Y-72129620D01*
X86316782Y-72226095D01*
X86518871Y-72291757D01*
X86585000Y-72302231D01*
X86585000Y-71408012D01*
X86642007Y-71440925D01*
X86769174Y-71475000D01*
X86900826Y-71475000D01*
X87027993Y-71440925D01*
X87085000Y-71408012D01*
X87085000Y-72302230D01*
X87151126Y-72291757D01*
X87151129Y-72291757D01*
X87353217Y-72226095D01*
X87542557Y-72129620D01*
X87714459Y-72004727D01*
X87714464Y-72004723D01*
X87864723Y-71854464D01*
X87864727Y-71854459D01*
X87989620Y-71682558D01*
X87994514Y-71672954D01*
X88042488Y-71622157D01*
X88110308Y-71605361D01*
X88176444Y-71627897D01*
X88215486Y-71672954D01*
X88220379Y-71682558D01*
X88345272Y-71854459D01*
X88345276Y-71854464D01*
X88495535Y-72004723D01*
X88495540Y-72004727D01*
X88667442Y-72129620D01*
X88856782Y-72226095D01*
X89058871Y-72291757D01*
X89125000Y-72302231D01*
X89125000Y-71408012D01*
X89182007Y-71440925D01*
X89309174Y-71475000D01*
X89440826Y-71475000D01*
X89567993Y-71440925D01*
X89625000Y-71408012D01*
X89625000Y-72302230D01*
X89691126Y-72291757D01*
X89691129Y-72291757D01*
X89893217Y-72226095D01*
X90082557Y-72129620D01*
X90254459Y-72004727D01*
X90254464Y-72004723D01*
X90404723Y-71854464D01*
X90404727Y-71854459D01*
X90529620Y-71682557D01*
X90626095Y-71493217D01*
X90691757Y-71291129D01*
X90691757Y-71291126D01*
X90702231Y-71225000D01*
X89808012Y-71225000D01*
X89840925Y-71167993D01*
X89875000Y-71040826D01*
X89875000Y-70909174D01*
X89840925Y-70782007D01*
X89808012Y-70725000D01*
X90702231Y-70725000D01*
X90691757Y-70658873D01*
X90691757Y-70658870D01*
X90626095Y-70456782D01*
X90529620Y-70267442D01*
X90404727Y-70095540D01*
X90404723Y-70095535D01*
X90254464Y-69945276D01*
X90254459Y-69945272D01*
X90082557Y-69820379D01*
X89893215Y-69723903D01*
X89691124Y-69658241D01*
X89625000Y-69647768D01*
X89625000Y-70541988D01*
X89567993Y-70509075D01*
X89440826Y-70475000D01*
X89309174Y-70475000D01*
X89182007Y-70509075D01*
X89125000Y-70541988D01*
X89125000Y-69647768D01*
X89124999Y-69647768D01*
X89058875Y-69658241D01*
X88856784Y-69723903D01*
X88667442Y-69820379D01*
X88495540Y-69945272D01*
X88495535Y-69945276D01*
X88345276Y-70095535D01*
X88345272Y-70095540D01*
X88220377Y-70267444D01*
X88215484Y-70277048D01*
X88167509Y-70327844D01*
X88099688Y-70344638D01*
X88033553Y-70322100D01*
X87994516Y-70277048D01*
X87989622Y-70267444D01*
X87864727Y-70095540D01*
X87864723Y-70095535D01*
X87714464Y-69945276D01*
X87714459Y-69945272D01*
X87542557Y-69820379D01*
X87353215Y-69723903D01*
X87151124Y-69658241D01*
X87085000Y-69647768D01*
X87085000Y-70541988D01*
X87027993Y-70509075D01*
X86900826Y-70475000D01*
X86769174Y-70475000D01*
X86642007Y-70509075D01*
X86585000Y-70541988D01*
X86585000Y-69647768D01*
X86584999Y-69647768D01*
X86518875Y-69658241D01*
X86316784Y-69723903D01*
X86127442Y-69820379D01*
X85955540Y-69945272D01*
X85955535Y-69945276D01*
X85805276Y-70095535D01*
X85805272Y-70095540D01*
X85680378Y-70267443D01*
X85675762Y-70276502D01*
X85627784Y-70327295D01*
X85559963Y-70344087D01*
X85493829Y-70321546D01*
X85454794Y-70276493D01*
X85450051Y-70267184D01*
X85450049Y-70267181D01*
X85450048Y-70267179D01*
X85325109Y-70095213D01*
X85174786Y-69944890D01*
X85002815Y-69819948D01*
X85002814Y-69819947D01*
X84963205Y-69799765D01*
X84912409Y-69751791D01*
X84895500Y-69689281D01*
X84895500Y-69338216D01*
X84915185Y-69271177D01*
X84967989Y-69225422D01*
X85037147Y-69215478D01*
X85075796Y-69227732D01*
X85212587Y-69297431D01*
X85212586Y-69297431D01*
X85422164Y-69365526D01*
X85639819Y-69400000D01*
X85860181Y-69400000D01*
X86077835Y-69365526D01*
X86287410Y-69297432D01*
X86483760Y-69197386D01*
X86547513Y-69151066D01*
X86547514Y-69151066D01*
X85879409Y-68482962D01*
X85942993Y-68465925D01*
X86057007Y-68400099D01*
X86150099Y-68307007D01*
X86215925Y-68192993D01*
X86232962Y-68129410D01*
X86901066Y-68797514D01*
X86901066Y-68797513D01*
X86947386Y-68733760D01*
X87047432Y-68537410D01*
X87115526Y-68327835D01*
X87150000Y-68110181D01*
X87150000Y-67889818D01*
X87115526Y-67672164D01*
X87047432Y-67462589D01*
X86947388Y-67266243D01*
X86901066Y-67202485D01*
X86901065Y-67202485D01*
X86232962Y-67870589D01*
X86215925Y-67807007D01*
X86150099Y-67692993D01*
X86057007Y-67599901D01*
X85942993Y-67534075D01*
X85879407Y-67517037D01*
X86547513Y-66848932D01*
X86483756Y-66802611D01*
X86287410Y-66702567D01*
X86077835Y-66634473D01*
X85860181Y-66600000D01*
X85639819Y-66600000D01*
X85422164Y-66634473D01*
X85212589Y-66702567D01*
X85016233Y-66802616D01*
X84952485Y-66848931D01*
X84952485Y-66848932D01*
X85620590Y-67517037D01*
X85557007Y-67534075D01*
X85442993Y-67599901D01*
X85349901Y-67692993D01*
X85284075Y-67807007D01*
X85267037Y-67870591D01*
X84598932Y-67202485D01*
X84597448Y-67202602D01*
X84545296Y-67242817D01*
X84475682Y-67248796D01*
X84413887Y-67216190D01*
X84399990Y-67200151D01*
X84318247Y-67087641D01*
X84318243Y-67087636D01*
X84162363Y-66931756D01*
X84162358Y-66931752D01*
X83984025Y-66802187D01*
X83984024Y-66802186D01*
X83984022Y-66802185D01*
X83921096Y-66770122D01*
X83787606Y-66702104D01*
X83787603Y-66702103D01*
X83577952Y-66633985D01*
X83469086Y-66616742D01*
X83360222Y-66599500D01*
X83139778Y-66599500D01*
X83067201Y-66610995D01*
X82922047Y-66633985D01*
X82712396Y-66702103D01*
X82712393Y-66702104D01*
X82515974Y-66802187D01*
X82337641Y-66931752D01*
X82337635Y-66931757D01*
X82316596Y-66952796D01*
X82255273Y-66986280D01*
X82185581Y-66981294D01*
X82129648Y-66939421D01*
X82112735Y-66908446D01*
X82093797Y-66857671D01*
X82093793Y-66857664D01*
X82007547Y-66742455D01*
X82007544Y-66742452D01*
X81892335Y-66656206D01*
X81892328Y-66656202D01*
X81757482Y-66605908D01*
X81757483Y-66605908D01*
X81697883Y-66599501D01*
X81697881Y-66599500D01*
X81697873Y-66599500D01*
X81697865Y-66599500D01*
X81474500Y-66599500D01*
X81407461Y-66579815D01*
X81361706Y-66527011D01*
X81350500Y-66475500D01*
X81350500Y-60118048D01*
X86189500Y-60118048D01*
X86189500Y-60881951D01*
X86216013Y-61083333D01*
X86221334Y-61123744D01*
X86221335Y-61123746D01*
X86284456Y-61359320D01*
X86284459Y-61359330D01*
X86377786Y-61584640D01*
X86377791Y-61584651D01*
X86499727Y-61795848D01*
X86499738Y-61795864D01*
X86648199Y-61989343D01*
X86648205Y-61989350D01*
X86820649Y-62161794D01*
X86820655Y-62161799D01*
X87014144Y-62310268D01*
X87014151Y-62310272D01*
X87225348Y-62432208D01*
X87225353Y-62432210D01*
X87225356Y-62432212D01*
X87253272Y-62443775D01*
X87415117Y-62510814D01*
X87450679Y-62525544D01*
X87686256Y-62588666D01*
X87928056Y-62620500D01*
X87928063Y-62620500D01*
X88171937Y-62620500D01*
X88171944Y-62620500D01*
X88413744Y-62588666D01*
X88649321Y-62525544D01*
X88874644Y-62432212D01*
X89085856Y-62310268D01*
X89279345Y-62161799D01*
X89451799Y-61989345D01*
X89600268Y-61795856D01*
X89722212Y-61584644D01*
X89815544Y-61359321D01*
X89878666Y-61123744D01*
X89910500Y-60881944D01*
X89910500Y-60118056D01*
X89878666Y-59876256D01*
X89815544Y-59640679D01*
X89722212Y-59415356D01*
X89722210Y-59415353D01*
X89722208Y-59415348D01*
X89600272Y-59204151D01*
X89600268Y-59204144D01*
X89541110Y-59127047D01*
X89451800Y-59010656D01*
X89451794Y-59010649D01*
X89279350Y-58838205D01*
X89279343Y-58838199D01*
X89085864Y-58689738D01*
X89085862Y-58689736D01*
X89085856Y-58689732D01*
X89085851Y-58689729D01*
X89085848Y-58689727D01*
X88874651Y-58567791D01*
X88874640Y-58567786D01*
X88649330Y-58474459D01*
X88649323Y-58474457D01*
X88649321Y-58474456D01*
X88413744Y-58411334D01*
X88373333Y-58406013D01*
X88171951Y-58379500D01*
X88171944Y-58379500D01*
X87928056Y-58379500D01*
X87928048Y-58379500D01*
X87697896Y-58409801D01*
X87686256Y-58411334D01*
X87450679Y-58474456D01*
X87450669Y-58474459D01*
X87225359Y-58567786D01*
X87225348Y-58567791D01*
X87014151Y-58689727D01*
X87014135Y-58689738D01*
X86820656Y-58838199D01*
X86820649Y-58838205D01*
X86648205Y-59010649D01*
X86648199Y-59010656D01*
X86499738Y-59204135D01*
X86499727Y-59204151D01*
X86377791Y-59415348D01*
X86377786Y-59415359D01*
X86284459Y-59640669D01*
X86284456Y-59640679D01*
X86221335Y-59876253D01*
X86221333Y-59876264D01*
X86189500Y-60118048D01*
X81350500Y-60118048D01*
X81350500Y-56610097D01*
X81370185Y-56543058D01*
X81386819Y-56522416D01*
X82079757Y-55829478D01*
X86615159Y-51294075D01*
X86676480Y-51260592D01*
X86741154Y-51263826D01*
X86755466Y-51268477D01*
X86957648Y-51300500D01*
X86957649Y-51300500D01*
X87162351Y-51300500D01*
X87162352Y-51300500D01*
X87364534Y-51268477D01*
X87559219Y-51205220D01*
X87741610Y-51112287D01*
X87834590Y-51044732D01*
X87907213Y-50991971D01*
X87907215Y-50991968D01*
X87907219Y-50991966D01*
X88051966Y-50847219D01*
X88051968Y-50847215D01*
X88051971Y-50847213D01*
X88104732Y-50774590D01*
X88172287Y-50681610D01*
X88265220Y-50499219D01*
X88328477Y-50304534D01*
X88360500Y-50102352D01*
X88360500Y-49897648D01*
X88328477Y-49695466D01*
X88265220Y-49500781D01*
X88265218Y-49500778D01*
X88265218Y-49500776D01*
X88231503Y-49434607D01*
X88172287Y-49318390D01*
X88164556Y-49307749D01*
X88051971Y-49152786D01*
X87907213Y-49008028D01*
X87741613Y-48887715D01*
X87741612Y-48887714D01*
X87741610Y-48887713D01*
X87684653Y-48858691D01*
X87559223Y-48794781D01*
X87364534Y-48731522D01*
X87189995Y-48703878D01*
X87162352Y-48699500D01*
X86957648Y-48699500D01*
X86933329Y-48703351D01*
X86755465Y-48731522D01*
X86560776Y-48794781D01*
X86378386Y-48887715D01*
X86212786Y-49008028D01*
X86068028Y-49152786D01*
X85947715Y-49318386D01*
X85854781Y-49500776D01*
X85791522Y-49695465D01*
X85759500Y-49897648D01*
X85759500Y-50102351D01*
X85791523Y-50304535D01*
X85796172Y-50318845D01*
X85798165Y-50388687D01*
X85765921Y-50444841D01*
X80381286Y-55829478D01*
X80269481Y-55941282D01*
X80269479Y-55941285D01*
X80219361Y-56028094D01*
X80219359Y-56028096D01*
X80190425Y-56078209D01*
X80190424Y-56078210D01*
X80190423Y-56078215D01*
X80149499Y-56230943D01*
X80149499Y-56230945D01*
X80149499Y-56399046D01*
X80149500Y-56399059D01*
X80149500Y-59033334D01*
X80129815Y-59100373D01*
X80077011Y-59146128D01*
X80007853Y-59156072D01*
X79944297Y-59127047D01*
X79927124Y-59108820D01*
X79851800Y-59010656D01*
X79851794Y-59010649D01*
X79679350Y-58838205D01*
X79679343Y-58838199D01*
X79485864Y-58689738D01*
X79485862Y-58689736D01*
X79485856Y-58689732D01*
X79485851Y-58689729D01*
X79485848Y-58689727D01*
X79274651Y-58567791D01*
X79274640Y-58567786D01*
X79049330Y-58474459D01*
X79049323Y-58474457D01*
X79049321Y-58474456D01*
X78813744Y-58411334D01*
X78773333Y-58406013D01*
X78571951Y-58379500D01*
X78571944Y-58379500D01*
X78328056Y-58379500D01*
X78328048Y-58379500D01*
X78097896Y-58409801D01*
X78086256Y-58411334D01*
X77850679Y-58474456D01*
X77850669Y-58474459D01*
X77625359Y-58567786D01*
X77625353Y-58567789D01*
X77575499Y-58596572D01*
X77507599Y-58613043D01*
X77441572Y-58590191D01*
X77398382Y-58535269D01*
X77389500Y-58489184D01*
X77389500Y-53516782D01*
X77409185Y-53449743D01*
X77425819Y-53429101D01*
X78441702Y-52413218D01*
X79528204Y-51326715D01*
X79589525Y-51293232D01*
X79596475Y-51291926D01*
X79744534Y-51268477D01*
X79939219Y-51205220D01*
X80121610Y-51112287D01*
X80214590Y-51044732D01*
X80287213Y-50991971D01*
X80287215Y-50991968D01*
X80287219Y-50991966D01*
X80431966Y-50847219D01*
X80431968Y-50847215D01*
X80431971Y-50847213D01*
X80484732Y-50774590D01*
X80552287Y-50681610D01*
X80645220Y-50499219D01*
X80708477Y-50304534D01*
X80740500Y-50102352D01*
X80740500Y-49897648D01*
X80708477Y-49695466D01*
X80645220Y-49500781D01*
X80645218Y-49500778D01*
X80645218Y-49500776D01*
X80611503Y-49434607D01*
X80552287Y-49318390D01*
X80544556Y-49307749D01*
X80431971Y-49152786D01*
X80287213Y-49008028D01*
X80121613Y-48887715D01*
X80121612Y-48887714D01*
X80121610Y-48887713D01*
X80064653Y-48858691D01*
X79939223Y-48794781D01*
X79744534Y-48731522D01*
X79569995Y-48703878D01*
X79542352Y-48699500D01*
X79337648Y-48699500D01*
X79313329Y-48703351D01*
X79135465Y-48731522D01*
X78940776Y-48794781D01*
X78758386Y-48887715D01*
X78592786Y-49008028D01*
X78448028Y-49152786D01*
X78327715Y-49318386D01*
X78234781Y-49500778D01*
X78171522Y-49695468D01*
X78148073Y-49843514D01*
X78118143Y-49906649D01*
X78113281Y-49911796D01*
X75751220Y-52273859D01*
X75751218Y-52273861D01*
X75681538Y-52343540D01*
X75611859Y-52413219D01*
X75502371Y-52577079D01*
X75502364Y-52577092D01*
X75426950Y-52759160D01*
X75426947Y-52759170D01*
X75388500Y-52952456D01*
X75388500Y-69840735D01*
X75380682Y-69884068D01*
X75330908Y-70017517D01*
X75324501Y-70077116D01*
X75324500Y-70077135D01*
X75324500Y-70859216D01*
X75304815Y-70926255D01*
X75288180Y-70946897D01*
X73988220Y-72246859D01*
X73988218Y-72246861D01*
X73943322Y-72291757D01*
X73848859Y-72386219D01*
X73739371Y-72550079D01*
X73739366Y-72550089D01*
X73686038Y-72678835D01*
X73663950Y-72732159D01*
X73663949Y-72732163D01*
X73663949Y-72732164D01*
X73660824Y-72747871D01*
X73660824Y-72747872D01*
X73625500Y-72925455D01*
X73625500Y-81833826D01*
X73615899Y-81866520D01*
X73606768Y-81899359D01*
X73606075Y-81899976D01*
X73605815Y-81900865D01*
X73580070Y-81923172D01*
X73554627Y-81945868D01*
X73553711Y-81946013D01*
X73553011Y-81946620D01*
X73519282Y-81951469D01*
X73485619Y-81956805D01*
X73484591Y-81956457D01*
X73483853Y-81956564D01*
X73451615Y-81947349D01*
X73445382Y-81944610D01*
X73423049Y-81931716D01*
X73300869Y-81881107D01*
X73299615Y-81880556D01*
X73273865Y-81858884D01*
X73247643Y-81837752D01*
X73247209Y-81836449D01*
X73246159Y-81835565D01*
X73236214Y-81803413D01*
X73225579Y-81771458D01*
X73225532Y-81768879D01*
X73225513Y-81768815D01*
X73225530Y-81768751D01*
X73225500Y-81767033D01*
X73225500Y-68105945D01*
X73225500Y-68105943D01*
X73184577Y-67953216D01*
X73173583Y-67934174D01*
X73105524Y-67816290D01*
X73105521Y-67816286D01*
X73105520Y-67816284D01*
X72993716Y-67704480D01*
X72993715Y-67704479D01*
X72989385Y-67700149D01*
X72989374Y-67700139D01*
X72044077Y-66754842D01*
X72010592Y-66693519D01*
X72013828Y-66628841D01*
X72018477Y-66614534D01*
X72050500Y-66412352D01*
X72050500Y-66207648D01*
X72018477Y-66005466D01*
X71955220Y-65810781D01*
X71955218Y-65810778D01*
X71955218Y-65810776D01*
X71921503Y-65744607D01*
X71862287Y-65628390D01*
X71854556Y-65617749D01*
X71741971Y-65462786D01*
X71597213Y-65318028D01*
X71431613Y-65197715D01*
X71431612Y-65197714D01*
X71431610Y-65197713D01*
X71374653Y-65168691D01*
X71249223Y-65104781D01*
X71054534Y-65041522D01*
X70879995Y-65013878D01*
X70852352Y-65009500D01*
X70647648Y-65009500D01*
X70591652Y-65018369D01*
X70445464Y-65041523D01*
X70445457Y-65041524D01*
X70411817Y-65052455D01*
X70341976Y-65054450D01*
X70282144Y-65018369D01*
X70251316Y-64955668D01*
X70249500Y-64934524D01*
X70249500Y-60091097D01*
X70258144Y-60061656D01*
X70264668Y-60031670D01*
X70268422Y-60026654D01*
X70269185Y-60024058D01*
X70285819Y-60003416D01*
X70305158Y-59984077D01*
X70366481Y-59950592D01*
X70431157Y-59953827D01*
X70445466Y-59958477D01*
X70647648Y-59990500D01*
X70647649Y-59990500D01*
X70852351Y-59990500D01*
X70852352Y-59990500D01*
X71054534Y-59958477D01*
X71249219Y-59895220D01*
X71431610Y-59802287D01*
X71555959Y-59711943D01*
X71597213Y-59681971D01*
X71597215Y-59681968D01*
X71597219Y-59681966D01*
X71741966Y-59537219D01*
X71741968Y-59537215D01*
X71741971Y-59537213D01*
X71825472Y-59422282D01*
X71862287Y-59371610D01*
X71955220Y-59189219D01*
X72018477Y-58994534D01*
X72050500Y-58792352D01*
X72050500Y-58587648D01*
X72018477Y-58385466D01*
X71955220Y-58190781D01*
X71955218Y-58190778D01*
X71955218Y-58190776D01*
X71921503Y-58124607D01*
X71862287Y-58008390D01*
X71854556Y-57997749D01*
X71741971Y-57842786D01*
X71597213Y-57698028D01*
X71431613Y-57577715D01*
X71431612Y-57577714D01*
X71431610Y-57577713D01*
X71374653Y-57548691D01*
X71249223Y-57484781D01*
X71054534Y-57421522D01*
X70879995Y-57393878D01*
X70852352Y-57389500D01*
X70647648Y-57389500D01*
X70623329Y-57393351D01*
X70445465Y-57421522D01*
X70250776Y-57484781D01*
X70068386Y-57577715D01*
X69902786Y-57698028D01*
X69758028Y-57842786D01*
X69637715Y-58008386D01*
X69544781Y-58190776D01*
X69481522Y-58385465D01*
X69449500Y-58587648D01*
X69449500Y-58792351D01*
X69481522Y-58994534D01*
X69486173Y-59008848D01*
X69486606Y-59024059D01*
X69491924Y-59038315D01*
X69487582Y-59058271D01*
X69488165Y-59078690D01*
X69480076Y-59092775D01*
X69477072Y-59106588D01*
X69455921Y-59134842D01*
X69280286Y-59310478D01*
X69168481Y-59422282D01*
X69168479Y-59422284D01*
X69144918Y-59463094D01*
X69134959Y-59480345D01*
X69089423Y-59559215D01*
X69048499Y-59711943D01*
X69048499Y-59711945D01*
X69048499Y-59880046D01*
X69048500Y-59880059D01*
X69048500Y-70698933D01*
X69028815Y-70765972D01*
X68976011Y-70811727D01*
X68967833Y-70815115D01*
X68857671Y-70856202D01*
X68857664Y-70856206D01*
X68742455Y-70942452D01*
X68742452Y-70942455D01*
X68656206Y-71057664D01*
X68656202Y-71057671D01*
X68605908Y-71192517D01*
X68599501Y-71252116D01*
X68599501Y-71252123D01*
X68599500Y-71252135D01*
X68599500Y-72747870D01*
X68599501Y-72747871D01*
X68605908Y-72807483D01*
X68656202Y-72942328D01*
X68656206Y-72942335D01*
X68719898Y-73027415D01*
X68742454Y-73057546D01*
X68812352Y-73109872D01*
X68854222Y-73165804D01*
X68859206Y-73235496D01*
X68838359Y-73282021D01*
X68773669Y-73371060D01*
X68687914Y-73539362D01*
X68629548Y-73718997D01*
X68624638Y-73750000D01*
X69624722Y-73750000D01*
X69580667Y-73826306D01*
X69550000Y-73940756D01*
X69550000Y-74059244D01*
X69580667Y-74173694D01*
X69624722Y-74250000D01*
X68624638Y-74250000D01*
X68629548Y-74281002D01*
X68687914Y-74460637D01*
X68773670Y-74628940D01*
X68884685Y-74781741D01*
X68884689Y-74781746D01*
X69014909Y-74911966D01*
X69048394Y-74973289D01*
X69043410Y-75042981D01*
X69014909Y-75087328D01*
X68884312Y-75217924D01*
X68884312Y-75217925D01*
X68884310Y-75217927D01*
X68836610Y-75283579D01*
X68773240Y-75370800D01*
X68687454Y-75539163D01*
X68629059Y-75718881D01*
X68599500Y-75905513D01*
X68599500Y-76094486D01*
X68629059Y-76281118D01*
X68687454Y-76460836D01*
X68773240Y-76629199D01*
X68884310Y-76782073D01*
X69017927Y-76915690D01*
X69170801Y-77026760D01*
X69250347Y-77067290D01*
X69339163Y-77112545D01*
X69339165Y-77112545D01*
X69339168Y-77112547D01*
X69435497Y-77143846D01*
X69518881Y-77170940D01*
X69705514Y-77200500D01*
X69705519Y-77200500D01*
X70294486Y-77200500D01*
X70481118Y-77170940D01*
X70660832Y-77112547D01*
X70829199Y-77026760D01*
X70982073Y-76915690D01*
X71115690Y-76782073D01*
X71226760Y-76629199D01*
X71312547Y-76460832D01*
X71370940Y-76281118D01*
X71400500Y-76094486D01*
X71400500Y-75905513D01*
X71370940Y-75718881D01*
X71312545Y-75539163D01*
X71226759Y-75370800D01*
X71115690Y-75217927D01*
X70985091Y-75087328D01*
X70951606Y-75026005D01*
X70956590Y-74956313D01*
X70985091Y-74911966D01*
X71115310Y-74781746D01*
X71115314Y-74781741D01*
X71226329Y-74628940D01*
X71312085Y-74460637D01*
X71370451Y-74281002D01*
X71375362Y-74250000D01*
X70375278Y-74250000D01*
X70419333Y-74173694D01*
X70450000Y-74059244D01*
X70450000Y-73940756D01*
X70419333Y-73826306D01*
X70375278Y-73750000D01*
X71375362Y-73750000D01*
X71370451Y-73718997D01*
X71312085Y-73539362D01*
X71226329Y-73371059D01*
X71161641Y-73282022D01*
X71138161Y-73216216D01*
X71153987Y-73148162D01*
X71187646Y-73109872D01*
X71257546Y-73057546D01*
X71343796Y-72942331D01*
X71394091Y-72807483D01*
X71400500Y-72747873D01*
X71400499Y-71252128D01*
X71394091Y-71192517D01*
X71384944Y-71167993D01*
X71343797Y-71057671D01*
X71343793Y-71057664D01*
X71257547Y-70942455D01*
X71257544Y-70942452D01*
X71142335Y-70856206D01*
X71142328Y-70856202D01*
X71007482Y-70805908D01*
X71007483Y-70805908D01*
X70947883Y-70799501D01*
X70947881Y-70799500D01*
X70947873Y-70799500D01*
X70947865Y-70799500D01*
X70373500Y-70799500D01*
X70306461Y-70779815D01*
X70260706Y-70727011D01*
X70249500Y-70675500D01*
X70249500Y-67685475D01*
X70269185Y-67618436D01*
X70321989Y-67572681D01*
X70391147Y-67562737D01*
X70411820Y-67567545D01*
X70445458Y-67578475D01*
X70445461Y-67578475D01*
X70445466Y-67578477D01*
X70647648Y-67610500D01*
X70647649Y-67610500D01*
X70852351Y-67610500D01*
X70852352Y-67610500D01*
X71054534Y-67578477D01*
X71068842Y-67573827D01*
X71138682Y-67571831D01*
X71194842Y-67604077D01*
X71988181Y-68397416D01*
X72021666Y-68458739D01*
X72024500Y-68485097D01*
X72024500Y-81767033D01*
X72004815Y-81834072D01*
X71952011Y-81879827D01*
X71947954Y-81881594D01*
X71826950Y-81931716D01*
X71826943Y-81931719D01*
X71622545Y-82049730D01*
X71435302Y-82193406D01*
X71435295Y-82193412D01*
X71268412Y-82360295D01*
X71268406Y-82360302D01*
X71124730Y-82547545D01*
X71006719Y-82751943D01*
X71006714Y-82751954D01*
X70916394Y-82970006D01*
X70855306Y-83197989D01*
X70824501Y-83431979D01*
X70824500Y-83431995D01*
X70824500Y-83668004D01*
X70824501Y-83668020D01*
X70847509Y-83842786D01*
X70855307Y-83902014D01*
X70908835Y-84101783D01*
X70916394Y-84129993D01*
X71006714Y-84348045D01*
X71006719Y-84348056D01*
X71072819Y-84462543D01*
X71124727Y-84552450D01*
X71124729Y-84552453D01*
X71124730Y-84552454D01*
X71268406Y-84739697D01*
X71268412Y-84739704D01*
X71435295Y-84906587D01*
X71435301Y-84906592D01*
X71622550Y-85050273D01*
X71753918Y-85126118D01*
X71826943Y-85168280D01*
X71826948Y-85168282D01*
X71826951Y-85168284D01*
X72045007Y-85258606D01*
X72272986Y-85319693D01*
X72506989Y-85350500D01*
X72506996Y-85350500D01*
X72743004Y-85350500D01*
X72743011Y-85350500D01*
X72977014Y-85319693D01*
X73204993Y-85258606D01*
X73423049Y-85168284D01*
X73439499Y-85158786D01*
X73507397Y-85142313D01*
X73573425Y-85165164D01*
X73616617Y-85220084D01*
X73625500Y-85266173D01*
X73625500Y-85783216D01*
X73605815Y-85850255D01*
X73589181Y-85870897D01*
X73022690Y-86437387D01*
X72961367Y-86470872D01*
X72918824Y-86472645D01*
X72743021Y-86449501D01*
X72743016Y-86449500D01*
X72743011Y-86449500D01*
X72506989Y-86449500D01*
X72506983Y-86449500D01*
X72506979Y-86449501D01*
X72272989Y-86480306D01*
X72045006Y-86541394D01*
X71826954Y-86631714D01*
X71826943Y-86631719D01*
X71622545Y-86749730D01*
X71435302Y-86893406D01*
X71435295Y-86893412D01*
X71268412Y-87060295D01*
X71268406Y-87060302D01*
X71124730Y-87247545D01*
X71006719Y-87451943D01*
X71006714Y-87451954D01*
X70916394Y-87670006D01*
X70855306Y-87897989D01*
X70824501Y-88131979D01*
X70824500Y-88131995D01*
X70824500Y-88368004D01*
X70824501Y-88368020D01*
X70855306Y-88602010D01*
X70916394Y-88829993D01*
X71006714Y-89048045D01*
X71006719Y-89048056D01*
X71077677Y-89170957D01*
X71124727Y-89252450D01*
X71124729Y-89252453D01*
X71124730Y-89252454D01*
X71268406Y-89439697D01*
X71268412Y-89439704D01*
X71435295Y-89606587D01*
X71435301Y-89606592D01*
X71622550Y-89750273D01*
X71753918Y-89826118D01*
X71826943Y-89868280D01*
X71826948Y-89868282D01*
X71826951Y-89868284D01*
X72045007Y-89958606D01*
X72272986Y-90019693D01*
X72506989Y-90050500D01*
X72506996Y-90050500D01*
X72743004Y-90050500D01*
X72743011Y-90050500D01*
X72918826Y-90027353D01*
X72987859Y-90038118D01*
X73022687Y-90062608D01*
X73589181Y-90629101D01*
X73622666Y-90690424D01*
X73625500Y-90716782D01*
X73625500Y-91233826D01*
X73605815Y-91300865D01*
X73553011Y-91346620D01*
X73483853Y-91356564D01*
X73439504Y-91341215D01*
X73423057Y-91331720D01*
X73423051Y-91331717D01*
X73423049Y-91331716D01*
X73390003Y-91318028D01*
X73204993Y-91241394D01*
X72977010Y-91180306D01*
X72743020Y-91149501D01*
X72743017Y-91149500D01*
X72743011Y-91149500D01*
X72506989Y-91149500D01*
X72506983Y-91149500D01*
X72506979Y-91149501D01*
X72272989Y-91180306D01*
X72045006Y-91241394D01*
X71826954Y-91331714D01*
X71826943Y-91331719D01*
X71622545Y-91449730D01*
X71435302Y-91593406D01*
X71435295Y-91593412D01*
X71268412Y-91760295D01*
X71268406Y-91760302D01*
X71124730Y-91947545D01*
X71006719Y-92151943D01*
X71006714Y-92151954D01*
X70916394Y-92370006D01*
X70855306Y-92597989D01*
X70824501Y-92831979D01*
X70824500Y-92831995D01*
X70824500Y-93068004D01*
X70824501Y-93068020D01*
X70855306Y-93302010D01*
X70916394Y-93529993D01*
X71006714Y-93748045D01*
X71006719Y-93748056D01*
X71072819Y-93862543D01*
X71124727Y-93952450D01*
X71124729Y-93952453D01*
X71124730Y-93952454D01*
X71268406Y-94139697D01*
X71268412Y-94139704D01*
X71435295Y-94306587D01*
X71435301Y-94306592D01*
X71622550Y-94450273D01*
X71753918Y-94526118D01*
X71826943Y-94568280D01*
X71826948Y-94568282D01*
X71826951Y-94568284D01*
X72045007Y-94658606D01*
X72272986Y-94719693D01*
X72506989Y-94750500D01*
X72506996Y-94750500D01*
X72743004Y-94750500D01*
X72743011Y-94750500D01*
X72977014Y-94719693D01*
X73204993Y-94658606D01*
X73423049Y-94568284D01*
X73439499Y-94558786D01*
X73507397Y-94542313D01*
X73573425Y-94565164D01*
X73616617Y-94620084D01*
X73625500Y-94666173D01*
X73625500Y-105784541D01*
X73625500Y-105784543D01*
X73625499Y-105784543D01*
X73663947Y-105977829D01*
X73663950Y-105977839D01*
X73739364Y-106159907D01*
X73739371Y-106159920D01*
X73848860Y-106323781D01*
X73848863Y-106323785D01*
X73992537Y-106467459D01*
X73992559Y-106467479D01*
X77937398Y-110412318D01*
X77970883Y-110473641D01*
X77965899Y-110543333D01*
X77937397Y-110587680D01*
X75751220Y-112773859D01*
X75751218Y-112773861D01*
X75681538Y-112843540D01*
X75611859Y-112913219D01*
X75502371Y-113077079D01*
X75502364Y-113077092D01*
X75426950Y-113259160D01*
X75426947Y-113259170D01*
X75388500Y-113452456D01*
X75388500Y-130090735D01*
X75380682Y-130134068D01*
X75330908Y-130267517D01*
X75324501Y-130327116D01*
X75324500Y-130327135D01*
X75324500Y-131109216D01*
X75304815Y-131176255D01*
X75288180Y-131196897D01*
X73988220Y-132496859D01*
X73988218Y-132496861D01*
X73943322Y-132541757D01*
X73848859Y-132636219D01*
X73739371Y-132800079D01*
X73739366Y-132800089D01*
X73686038Y-132928835D01*
X73663950Y-132982159D01*
X73663949Y-132982163D01*
X73663949Y-132982164D01*
X73660824Y-132997871D01*
X73660824Y-132997872D01*
X73625500Y-133175455D01*
X73625500Y-142083826D01*
X73615899Y-142116520D01*
X73606768Y-142149359D01*
X73606075Y-142149976D01*
X73605815Y-142150865D01*
X73580070Y-142173172D01*
X73554627Y-142195868D01*
X73553711Y-142196013D01*
X73553011Y-142196620D01*
X73519282Y-142201469D01*
X73485619Y-142206805D01*
X73484591Y-142206457D01*
X73483853Y-142206564D01*
X73451615Y-142197349D01*
X73445382Y-142194610D01*
X73423049Y-142181716D01*
X73300869Y-142131107D01*
X73299615Y-142130556D01*
X73273865Y-142108884D01*
X73247643Y-142087752D01*
X73247209Y-142086449D01*
X73246159Y-142085565D01*
X73236214Y-142053413D01*
X73225579Y-142021458D01*
X73225532Y-142018879D01*
X73225513Y-142018815D01*
X73225530Y-142018751D01*
X73225500Y-142017033D01*
X73225500Y-128105945D01*
X73225500Y-128105943D01*
X73184577Y-127953216D01*
X73124929Y-127849901D01*
X73105524Y-127816290D01*
X73105521Y-127816286D01*
X73105520Y-127816284D01*
X72993716Y-127704480D01*
X72993715Y-127704479D01*
X72989385Y-127700149D01*
X72989374Y-127700139D01*
X72044077Y-126754842D01*
X72010592Y-126693519D01*
X72013828Y-126628841D01*
X72018477Y-126614534D01*
X72050500Y-126412352D01*
X72050500Y-126207648D01*
X72018477Y-126005466D01*
X71955220Y-125810781D01*
X71955218Y-125810778D01*
X71955218Y-125810776D01*
X71921503Y-125744607D01*
X71862287Y-125628390D01*
X71854556Y-125617749D01*
X71741971Y-125462786D01*
X71597213Y-125318028D01*
X71431613Y-125197715D01*
X71431612Y-125197714D01*
X71431610Y-125197713D01*
X71374653Y-125168691D01*
X71249223Y-125104781D01*
X71054534Y-125041522D01*
X70879995Y-125013878D01*
X70852352Y-125009500D01*
X70647648Y-125009500D01*
X70591652Y-125018369D01*
X70445464Y-125041523D01*
X70445457Y-125041524D01*
X70411817Y-125052455D01*
X70341976Y-125054450D01*
X70282144Y-125018369D01*
X70251316Y-124955668D01*
X70249500Y-124934524D01*
X70249500Y-120091097D01*
X70258144Y-120061656D01*
X70264668Y-120031670D01*
X70268422Y-120026654D01*
X70269185Y-120024058D01*
X70285819Y-120003416D01*
X70305158Y-119984077D01*
X70366481Y-119950592D01*
X70431157Y-119953827D01*
X70445466Y-119958477D01*
X70647648Y-119990500D01*
X70647649Y-119990500D01*
X70852351Y-119990500D01*
X70852352Y-119990500D01*
X71054534Y-119958477D01*
X71249219Y-119895220D01*
X71431610Y-119802287D01*
X71555959Y-119711943D01*
X71597213Y-119681971D01*
X71597215Y-119681968D01*
X71597219Y-119681966D01*
X71741966Y-119537219D01*
X71741968Y-119537215D01*
X71741971Y-119537213D01*
X71802324Y-119454142D01*
X71862287Y-119371610D01*
X71955220Y-119189219D01*
X72018477Y-118994534D01*
X72050500Y-118792352D01*
X72050500Y-118587648D01*
X72018477Y-118385466D01*
X71955220Y-118190781D01*
X71955218Y-118190778D01*
X71955218Y-118190776D01*
X71921503Y-118124607D01*
X71862287Y-118008390D01*
X71854556Y-117997749D01*
X71741971Y-117842786D01*
X71597213Y-117698028D01*
X71431613Y-117577715D01*
X71431612Y-117577714D01*
X71431610Y-117577713D01*
X71374653Y-117548691D01*
X71249223Y-117484781D01*
X71054534Y-117421522D01*
X70879995Y-117393878D01*
X70852352Y-117389500D01*
X70647648Y-117389500D01*
X70623329Y-117393351D01*
X70445465Y-117421522D01*
X70250776Y-117484781D01*
X70068386Y-117577715D01*
X69902786Y-117698028D01*
X69758028Y-117842786D01*
X69637715Y-118008386D01*
X69544781Y-118190776D01*
X69481522Y-118385465D01*
X69449500Y-118587648D01*
X69449500Y-118792351D01*
X69481522Y-118994534D01*
X69486173Y-119008848D01*
X69486606Y-119024059D01*
X69491924Y-119038315D01*
X69487582Y-119058271D01*
X69488165Y-119078690D01*
X69480076Y-119092775D01*
X69477072Y-119106588D01*
X69455921Y-119134842D01*
X69280286Y-119310478D01*
X69168481Y-119422282D01*
X69168477Y-119422287D01*
X69150091Y-119454135D01*
X69150086Y-119454144D01*
X69089423Y-119559215D01*
X69048499Y-119711943D01*
X69048499Y-119711945D01*
X69048499Y-119880046D01*
X69048500Y-119880059D01*
X69048500Y-130948933D01*
X69028815Y-131015972D01*
X68976011Y-131061727D01*
X68967833Y-131065115D01*
X68857671Y-131106202D01*
X68857664Y-131106206D01*
X68742455Y-131192452D01*
X68742452Y-131192455D01*
X68656206Y-131307664D01*
X68656202Y-131307671D01*
X68605908Y-131442517D01*
X68599501Y-131502116D01*
X68599501Y-131502123D01*
X68599500Y-131502135D01*
X68599500Y-132997870D01*
X68599501Y-132997871D01*
X68605908Y-133057483D01*
X68656202Y-133192328D01*
X68656206Y-133192335D01*
X68719898Y-133277415D01*
X68742454Y-133307546D01*
X68812352Y-133359872D01*
X68854222Y-133415804D01*
X68859206Y-133485496D01*
X68838359Y-133532021D01*
X68773669Y-133621060D01*
X68687914Y-133789362D01*
X68629548Y-133968997D01*
X68624638Y-134000000D01*
X69624722Y-134000000D01*
X69580667Y-134076306D01*
X69550000Y-134190756D01*
X69550000Y-134309244D01*
X69580667Y-134423694D01*
X69624722Y-134500000D01*
X68624638Y-134500000D01*
X68629548Y-134531002D01*
X68687914Y-134710637D01*
X68773670Y-134878940D01*
X68884685Y-135031741D01*
X68884689Y-135031746D01*
X69014909Y-135161966D01*
X69048394Y-135223289D01*
X69043410Y-135292981D01*
X69014909Y-135337328D01*
X68884312Y-135467924D01*
X68884312Y-135467925D01*
X68884310Y-135467927D01*
X68836610Y-135533579D01*
X68773240Y-135620800D01*
X68687454Y-135789163D01*
X68629059Y-135968881D01*
X68599500Y-136155513D01*
X68599500Y-136344486D01*
X68629059Y-136531118D01*
X68687454Y-136710836D01*
X68773240Y-136879199D01*
X68884310Y-137032073D01*
X69017927Y-137165690D01*
X69170801Y-137276760D01*
X69250347Y-137317290D01*
X69339163Y-137362545D01*
X69339165Y-137362545D01*
X69339168Y-137362547D01*
X69435497Y-137393846D01*
X69518881Y-137420940D01*
X69705514Y-137450500D01*
X69705519Y-137450500D01*
X70294486Y-137450500D01*
X70481118Y-137420940D01*
X70660832Y-137362547D01*
X70829199Y-137276760D01*
X70982073Y-137165690D01*
X71115690Y-137032073D01*
X71226760Y-136879199D01*
X71312547Y-136710832D01*
X71370940Y-136531118D01*
X71400500Y-136344486D01*
X71400500Y-136155513D01*
X71370940Y-135968881D01*
X71312545Y-135789163D01*
X71226759Y-135620800D01*
X71115690Y-135467927D01*
X70985091Y-135337328D01*
X70951606Y-135276005D01*
X70956590Y-135206313D01*
X70985091Y-135161966D01*
X71115310Y-135031746D01*
X71115314Y-135031741D01*
X71226329Y-134878940D01*
X71312085Y-134710637D01*
X71370451Y-134531002D01*
X71375362Y-134500000D01*
X70375278Y-134500000D01*
X70419333Y-134423694D01*
X70450000Y-134309244D01*
X70450000Y-134190756D01*
X70419333Y-134076306D01*
X70375278Y-134000000D01*
X71375362Y-134000000D01*
X71370451Y-133968997D01*
X71312085Y-133789362D01*
X71226329Y-133621059D01*
X71161641Y-133532022D01*
X71138161Y-133466216D01*
X71153987Y-133398162D01*
X71187646Y-133359872D01*
X71257546Y-133307546D01*
X71343796Y-133192331D01*
X71394091Y-133057483D01*
X71400500Y-132997873D01*
X71400499Y-131502128D01*
X71394091Y-131442517D01*
X71384944Y-131417993D01*
X71343797Y-131307671D01*
X71343793Y-131307664D01*
X71257547Y-131192455D01*
X71257544Y-131192452D01*
X71142335Y-131106206D01*
X71142328Y-131106202D01*
X71007482Y-131055908D01*
X71007483Y-131055908D01*
X70947883Y-131049501D01*
X70947881Y-131049500D01*
X70947873Y-131049500D01*
X70947865Y-131049500D01*
X70373500Y-131049500D01*
X70306461Y-131029815D01*
X70260706Y-130977011D01*
X70249500Y-130925500D01*
X70249500Y-127685475D01*
X70269185Y-127618436D01*
X70321989Y-127572681D01*
X70391147Y-127562737D01*
X70411820Y-127567545D01*
X70445458Y-127578475D01*
X70445461Y-127578475D01*
X70445466Y-127578477D01*
X70647648Y-127610500D01*
X70647649Y-127610500D01*
X70852351Y-127610500D01*
X70852352Y-127610500D01*
X71054534Y-127578477D01*
X71068842Y-127573827D01*
X71138682Y-127571831D01*
X71194842Y-127604077D01*
X71988181Y-128397416D01*
X72021666Y-128458739D01*
X72024500Y-128485097D01*
X72024500Y-142017033D01*
X72004815Y-142084072D01*
X71952011Y-142129827D01*
X71947954Y-142131594D01*
X71826950Y-142181716D01*
X71826943Y-142181719D01*
X71622545Y-142299730D01*
X71435302Y-142443406D01*
X71435295Y-142443412D01*
X71268412Y-142610295D01*
X71268406Y-142610302D01*
X71124730Y-142797545D01*
X71006719Y-143001943D01*
X71006714Y-143001954D01*
X70916394Y-143220006D01*
X70855306Y-143447989D01*
X70824501Y-143681979D01*
X70824500Y-143681995D01*
X70824500Y-143918004D01*
X70824501Y-143918020D01*
X70855306Y-144152010D01*
X70916394Y-144379993D01*
X71006714Y-144598045D01*
X71006719Y-144598056D01*
X71072819Y-144712543D01*
X71124727Y-144802450D01*
X71124729Y-144802453D01*
X71124730Y-144802454D01*
X71268406Y-144989697D01*
X71268412Y-144989704D01*
X71435295Y-145156587D01*
X71435302Y-145156593D01*
X71545306Y-145241001D01*
X71622550Y-145300273D01*
X71753918Y-145376118D01*
X71826943Y-145418280D01*
X71826948Y-145418282D01*
X71826951Y-145418284D01*
X72045007Y-145508606D01*
X72272986Y-145569693D01*
X72506989Y-145600500D01*
X72506996Y-145600500D01*
X72743004Y-145600500D01*
X72743011Y-145600500D01*
X72977014Y-145569693D01*
X73204993Y-145508606D01*
X73423049Y-145418284D01*
X73439499Y-145408786D01*
X73507397Y-145392313D01*
X73573425Y-145415164D01*
X73616617Y-145470084D01*
X73625500Y-145516173D01*
X73625500Y-146033216D01*
X73605815Y-146100255D01*
X73589181Y-146120897D01*
X73022690Y-146687387D01*
X72961367Y-146720872D01*
X72918824Y-146722645D01*
X72743021Y-146699501D01*
X72743016Y-146699500D01*
X72743011Y-146699500D01*
X72506989Y-146699500D01*
X72506983Y-146699500D01*
X72506979Y-146699501D01*
X72272989Y-146730306D01*
X72045006Y-146791394D01*
X71826954Y-146881714D01*
X71826943Y-146881719D01*
X71622545Y-146999730D01*
X71435302Y-147143406D01*
X71435295Y-147143412D01*
X71268412Y-147310295D01*
X71268406Y-147310302D01*
X71124730Y-147497545D01*
X71006719Y-147701943D01*
X71006714Y-147701954D01*
X70916394Y-147920006D01*
X70855306Y-148147989D01*
X70824501Y-148381979D01*
X70824500Y-148381995D01*
X70824500Y-148618004D01*
X70824501Y-148618020D01*
X70855306Y-148852010D01*
X70916394Y-149079993D01*
X71006714Y-149298045D01*
X71006719Y-149298056D01*
X71077677Y-149420957D01*
X71124727Y-149502450D01*
X71124729Y-149502453D01*
X71124730Y-149502454D01*
X71268406Y-149689697D01*
X71268412Y-149689704D01*
X71435295Y-149856587D01*
X71435301Y-149856592D01*
X71622550Y-150000273D01*
X71753918Y-150076118D01*
X71826943Y-150118280D01*
X71826948Y-150118282D01*
X71826951Y-150118284D01*
X72045007Y-150208606D01*
X72272986Y-150269693D01*
X72506989Y-150300500D01*
X72506996Y-150300500D01*
X72743004Y-150300500D01*
X72743011Y-150300500D01*
X72918826Y-150277353D01*
X72987859Y-150288118D01*
X73022687Y-150312608D01*
X73589181Y-150879101D01*
X73622666Y-150940424D01*
X73625500Y-150966782D01*
X73625500Y-151483826D01*
X73605815Y-151550865D01*
X73553011Y-151596620D01*
X73483853Y-151606564D01*
X73439504Y-151591215D01*
X73423057Y-151581720D01*
X73423051Y-151581717D01*
X73423049Y-151581716D01*
X73204993Y-151491394D01*
X72977014Y-151430307D01*
X72977013Y-151430306D01*
X72977010Y-151430306D01*
X72743020Y-151399501D01*
X72743017Y-151399500D01*
X72743011Y-151399500D01*
X72506989Y-151399500D01*
X72506983Y-151399500D01*
X72506979Y-151399501D01*
X72272989Y-151430306D01*
X72045006Y-151491394D01*
X71826954Y-151581714D01*
X71826943Y-151581719D01*
X71622545Y-151699730D01*
X71435302Y-151843406D01*
X71435295Y-151843412D01*
X71268412Y-152010295D01*
X71268406Y-152010302D01*
X71124730Y-152197545D01*
X71006719Y-152401943D01*
X71006714Y-152401954D01*
X70916394Y-152620006D01*
X70855306Y-152847989D01*
X70824501Y-153081979D01*
X70824500Y-153081995D01*
X70824500Y-153318004D01*
X70824501Y-153318020D01*
X70855306Y-153552010D01*
X70916394Y-153779993D01*
X71006714Y-153998045D01*
X71006719Y-153998056D01*
X71072819Y-154112543D01*
X71124727Y-154202450D01*
X71124729Y-154202453D01*
X71124730Y-154202454D01*
X71268406Y-154389697D01*
X71268412Y-154389704D01*
X71435295Y-154556587D01*
X71435301Y-154556592D01*
X71622550Y-154700273D01*
X71753918Y-154776118D01*
X71826943Y-154818280D01*
X71826948Y-154818282D01*
X71826951Y-154818284D01*
X72045007Y-154908606D01*
X72272986Y-154969693D01*
X72506989Y-155000500D01*
X72506996Y-155000500D01*
X72743004Y-155000500D01*
X72743011Y-155000500D01*
X72977014Y-154969693D01*
X73204993Y-154908606D01*
X73423049Y-154818284D01*
X73439499Y-154808786D01*
X73507397Y-154792313D01*
X73573425Y-154815164D01*
X73616617Y-154870084D01*
X73625500Y-154916173D01*
X73625500Y-166034541D01*
X73625500Y-166034543D01*
X73625499Y-166034543D01*
X73663947Y-166227829D01*
X73663950Y-166227839D01*
X73739364Y-166409907D01*
X73739371Y-166409920D01*
X73848860Y-166573781D01*
X73848863Y-166573785D01*
X73992537Y-166717459D01*
X73992559Y-166717479D01*
X77937398Y-170662318D01*
X77970883Y-170723641D01*
X77965899Y-170793333D01*
X77937397Y-170837680D01*
X75751220Y-173023859D01*
X75751218Y-173023861D01*
X75681538Y-173093540D01*
X75611859Y-173163219D01*
X75502371Y-173327079D01*
X75502364Y-173327092D01*
X75426950Y-173509160D01*
X75426947Y-173509170D01*
X75388500Y-173702456D01*
X75388500Y-177484663D01*
X75368815Y-177551702D01*
X75316011Y-177597457D01*
X75246853Y-177607401D01*
X75191616Y-177584982D01*
X75181613Y-177577714D01*
X74999223Y-177484781D01*
X74804534Y-177421522D01*
X74629995Y-177393878D01*
X74602352Y-177389500D01*
X74397648Y-177389500D01*
X74373329Y-177393351D01*
X74195465Y-177421522D01*
X74000776Y-177484781D01*
X73818386Y-177577715D01*
X73652786Y-177698028D01*
X73508028Y-177842786D01*
X73387715Y-178008386D01*
X73294781Y-178190776D01*
X73231522Y-178385465D01*
X73199500Y-178587648D01*
X73199500Y-178792351D01*
X73231522Y-178994534D01*
X73294781Y-179189223D01*
X73387715Y-179371613D01*
X73508028Y-179537213D01*
X73652786Y-179681971D01*
X73776067Y-179771538D01*
X73818390Y-179802287D01*
X73887433Y-179837466D01*
X74000776Y-179895218D01*
X74000778Y-179895218D01*
X74000781Y-179895220D01*
X74105137Y-179929127D01*
X74195465Y-179958477D01*
X74296557Y-179974488D01*
X74397648Y-179990500D01*
X74397649Y-179990500D01*
X74602351Y-179990500D01*
X74602352Y-179990500D01*
X74804534Y-179958477D01*
X74999219Y-179895220D01*
X75181610Y-179802287D01*
X75191612Y-179795019D01*
X75257417Y-179771538D01*
X75325472Y-179787362D01*
X75374168Y-179837466D01*
X75388500Y-179895336D01*
X75388500Y-185104663D01*
X75368815Y-185171702D01*
X75316011Y-185217457D01*
X75246853Y-185227401D01*
X75191616Y-185204982D01*
X75181613Y-185197714D01*
X74999223Y-185104781D01*
X74804534Y-185041522D01*
X74629995Y-185013878D01*
X74602352Y-185009500D01*
X74397648Y-185009500D01*
X74373329Y-185013351D01*
X74195465Y-185041522D01*
X74000776Y-185104781D01*
X73818386Y-185197715D01*
X73652786Y-185318028D01*
X73508028Y-185462786D01*
X73387715Y-185628386D01*
X73294781Y-185810776D01*
X73231522Y-186005465D01*
X73199500Y-186207648D01*
X73199500Y-186412351D01*
X73231522Y-186614534D01*
X73294781Y-186809223D01*
X73387715Y-186991613D01*
X73508028Y-187157213D01*
X73508034Y-187157219D01*
X73652781Y-187301966D01*
X73818390Y-187422287D01*
X73831793Y-187429116D01*
X73882589Y-187477088D01*
X73899500Y-187539601D01*
X73899500Y-202507030D01*
X73879815Y-202574069D01*
X73827011Y-202619824D01*
X73757853Y-202629768D01*
X73700014Y-202605407D01*
X73659173Y-202574069D01*
X73627450Y-202549727D01*
X73553497Y-202507030D01*
X73423056Y-202431719D01*
X73423049Y-202431716D01*
X73302046Y-202381594D01*
X73247643Y-202337752D01*
X73225579Y-202271458D01*
X73225500Y-202267033D01*
X73225500Y-188105945D01*
X73225500Y-188105943D01*
X73184577Y-187953216D01*
X73184573Y-187953209D01*
X73105524Y-187816290D01*
X73105521Y-187816286D01*
X73105520Y-187816284D01*
X72993716Y-187704480D01*
X72993715Y-187704479D01*
X72989385Y-187700149D01*
X72989374Y-187700139D01*
X72044077Y-186754842D01*
X72010592Y-186693519D01*
X72013828Y-186628841D01*
X72018477Y-186614534D01*
X72050500Y-186412352D01*
X72050500Y-186207648D01*
X72018477Y-186005466D01*
X71955220Y-185810781D01*
X71955218Y-185810778D01*
X71955218Y-185810776D01*
X71921503Y-185744607D01*
X71862287Y-185628390D01*
X71854556Y-185617749D01*
X71741971Y-185462786D01*
X71597213Y-185318028D01*
X71431613Y-185197715D01*
X71431612Y-185197714D01*
X71431610Y-185197713D01*
X71374653Y-185168691D01*
X71249223Y-185104781D01*
X71054534Y-185041522D01*
X70879995Y-185013878D01*
X70852352Y-185009500D01*
X70647648Y-185009500D01*
X70623329Y-185013351D01*
X70445465Y-185041522D01*
X70303848Y-185087537D01*
X70262817Y-185100869D01*
X70192977Y-185102864D01*
X70133144Y-185066784D01*
X70102316Y-185004083D01*
X70100500Y-184982938D01*
X70100500Y-180240096D01*
X70109144Y-180210655D01*
X70115668Y-180180669D01*
X70119422Y-180175653D01*
X70120185Y-180173057D01*
X70136815Y-180152419D01*
X70305157Y-179984076D01*
X70366480Y-179950592D01*
X70431154Y-179953826D01*
X70445466Y-179958477D01*
X70647648Y-179990500D01*
X70647649Y-179990500D01*
X70852351Y-179990500D01*
X70852352Y-179990500D01*
X71054534Y-179958477D01*
X71249219Y-179895220D01*
X71431610Y-179802287D01*
X71566684Y-179704151D01*
X71597213Y-179681971D01*
X71597215Y-179681968D01*
X71597219Y-179681966D01*
X71741966Y-179537219D01*
X71741968Y-179537215D01*
X71741971Y-179537213D01*
X71800266Y-179456975D01*
X71862287Y-179371610D01*
X71955220Y-179189219D01*
X72018477Y-178994534D01*
X72050500Y-178792352D01*
X72050500Y-178587648D01*
X72018477Y-178385466D01*
X71955220Y-178190781D01*
X71955218Y-178190778D01*
X71955218Y-178190776D01*
X71921503Y-178124607D01*
X71862287Y-178008390D01*
X71854556Y-177997749D01*
X71741971Y-177842786D01*
X71597213Y-177698028D01*
X71431613Y-177577715D01*
X71431612Y-177577714D01*
X71431610Y-177577713D01*
X71374653Y-177548691D01*
X71249223Y-177484781D01*
X71054534Y-177421522D01*
X70879995Y-177393878D01*
X70852352Y-177389500D01*
X70647648Y-177389500D01*
X70623329Y-177393351D01*
X70445465Y-177421522D01*
X70250776Y-177484781D01*
X70068386Y-177577715D01*
X69902786Y-177698028D01*
X69758028Y-177842786D01*
X69637715Y-178008386D01*
X69544781Y-178190776D01*
X69481522Y-178385465D01*
X69449500Y-178587648D01*
X69449500Y-178792351D01*
X69481522Y-178994534D01*
X69486173Y-179008848D01*
X69488165Y-179078690D01*
X69455921Y-179134842D01*
X69133788Y-179456975D01*
X69133779Y-179456984D01*
X69131286Y-179459478D01*
X69131284Y-179459480D01*
X69019480Y-179571284D01*
X69003190Y-179599500D01*
X68996821Y-179610530D01*
X68996821Y-179610531D01*
X68942773Y-179704144D01*
X68940423Y-179708215D01*
X68899499Y-179860943D01*
X68899499Y-179860945D01*
X68899499Y-180029046D01*
X68899500Y-180029059D01*
X68899500Y-191262819D01*
X68879815Y-191329858D01*
X68849812Y-191362085D01*
X68742452Y-191442455D01*
X68656206Y-191557664D01*
X68656202Y-191557671D01*
X68605908Y-191692517D01*
X68599501Y-191752116D01*
X68599501Y-191752123D01*
X68599500Y-191752135D01*
X68599500Y-193247870D01*
X68599501Y-193247876D01*
X68605908Y-193307483D01*
X68656202Y-193442328D01*
X68656206Y-193442335D01*
X68718798Y-193525946D01*
X68742454Y-193557546D01*
X68812352Y-193609872D01*
X68854222Y-193665804D01*
X68859206Y-193735496D01*
X68838359Y-193782021D01*
X68773669Y-193871060D01*
X68687914Y-194039362D01*
X68629548Y-194218997D01*
X68624638Y-194250000D01*
X69624722Y-194250000D01*
X69580667Y-194326306D01*
X69550000Y-194440756D01*
X69550000Y-194559244D01*
X69580667Y-194673694D01*
X69624722Y-194750000D01*
X68624638Y-194750000D01*
X68629548Y-194781002D01*
X68687914Y-194960637D01*
X68773670Y-195128940D01*
X68884685Y-195281741D01*
X68884689Y-195281746D01*
X69014909Y-195411966D01*
X69048394Y-195473289D01*
X69043410Y-195542981D01*
X69014909Y-195587328D01*
X68884312Y-195717924D01*
X68884312Y-195717925D01*
X68884310Y-195717927D01*
X68836916Y-195783159D01*
X68773240Y-195870800D01*
X68687454Y-196039163D01*
X68629059Y-196218881D01*
X68599500Y-196405513D01*
X68599500Y-196594486D01*
X68629059Y-196781118D01*
X68687454Y-196960836D01*
X68773240Y-197129199D01*
X68884310Y-197282073D01*
X69017927Y-197415690D01*
X69170801Y-197526760D01*
X69250347Y-197567290D01*
X69339163Y-197612545D01*
X69339165Y-197612545D01*
X69339168Y-197612547D01*
X69435497Y-197643846D01*
X69518881Y-197670940D01*
X69705514Y-197700500D01*
X69705519Y-197700500D01*
X70294486Y-197700500D01*
X70481118Y-197670940D01*
X70660832Y-197612547D01*
X70829199Y-197526760D01*
X70982073Y-197415690D01*
X71115690Y-197282073D01*
X71226760Y-197129199D01*
X71312547Y-196960832D01*
X71370940Y-196781118D01*
X71400500Y-196594486D01*
X71400500Y-196405513D01*
X71370940Y-196218881D01*
X71312545Y-196039163D01*
X71267290Y-195950347D01*
X71226760Y-195870801D01*
X71115690Y-195717927D01*
X70985091Y-195587328D01*
X70951606Y-195526005D01*
X70956590Y-195456313D01*
X70985091Y-195411966D01*
X71115310Y-195281746D01*
X71115314Y-195281741D01*
X71226329Y-195128940D01*
X71312085Y-194960637D01*
X71370451Y-194781002D01*
X71375362Y-194750000D01*
X70375278Y-194750000D01*
X70419333Y-194673694D01*
X70450000Y-194559244D01*
X70450000Y-194440756D01*
X70419333Y-194326306D01*
X70375278Y-194250000D01*
X71375362Y-194250000D01*
X71370451Y-194218997D01*
X71312085Y-194039362D01*
X71226329Y-193871059D01*
X71161641Y-193782022D01*
X71138161Y-193716216D01*
X71153987Y-193648162D01*
X71187646Y-193609872D01*
X71257546Y-193557546D01*
X71343796Y-193442331D01*
X71394091Y-193307483D01*
X71400500Y-193247873D01*
X71400499Y-191752128D01*
X71394091Y-191692517D01*
X71343796Y-191557669D01*
X71343795Y-191557668D01*
X71343793Y-191557664D01*
X71257547Y-191442455D01*
X71257544Y-191442452D01*
X71142335Y-191356206D01*
X71142328Y-191356202D01*
X71007482Y-191305908D01*
X71007483Y-191305908D01*
X70947883Y-191299501D01*
X70947881Y-191299500D01*
X70947873Y-191299500D01*
X70947865Y-191299500D01*
X70224500Y-191299500D01*
X70157461Y-191279815D01*
X70111706Y-191227011D01*
X70100500Y-191175500D01*
X70100500Y-187637061D01*
X70120185Y-187570022D01*
X70172989Y-187524267D01*
X70242147Y-187514323D01*
X70262804Y-187519126D01*
X70410735Y-187567192D01*
X70445465Y-187578477D01*
X70503324Y-187587641D01*
X70647648Y-187610500D01*
X70647649Y-187610500D01*
X70852351Y-187610500D01*
X70852352Y-187610500D01*
X71054534Y-187578477D01*
X71068842Y-187573827D01*
X71138682Y-187571831D01*
X71194842Y-187604077D01*
X71988181Y-188397416D01*
X72021666Y-188458739D01*
X72024500Y-188485097D01*
X72024500Y-202267033D01*
X72004815Y-202334072D01*
X71952011Y-202379827D01*
X71947954Y-202381594D01*
X71826950Y-202431716D01*
X71826943Y-202431719D01*
X71622545Y-202549730D01*
X71435302Y-202693406D01*
X71435295Y-202693412D01*
X71268412Y-202860295D01*
X71268406Y-202860302D01*
X71124730Y-203047545D01*
X71006719Y-203251943D01*
X71006714Y-203251954D01*
X70916394Y-203470006D01*
X70855306Y-203697989D01*
X70824501Y-203931979D01*
X70824500Y-203931995D01*
X70824500Y-204168004D01*
X70824501Y-204168020D01*
X70855306Y-204402010D01*
X70916394Y-204629993D01*
X71006714Y-204848045D01*
X71006719Y-204848056D01*
X71077677Y-204970957D01*
X71124727Y-205052450D01*
X71124729Y-205052453D01*
X71124730Y-205052454D01*
X71268406Y-205239697D01*
X71268412Y-205239704D01*
X71435295Y-205406587D01*
X71435301Y-205406592D01*
X71622550Y-205550273D01*
X71753918Y-205626118D01*
X71826943Y-205668280D01*
X71826948Y-205668282D01*
X71826951Y-205668284D01*
X72045007Y-205758606D01*
X72198763Y-205799805D01*
X72258421Y-205836168D01*
X72288950Y-205899014D01*
X72280656Y-205968390D01*
X72254348Y-206007259D01*
X70655286Y-207606322D01*
X70543481Y-207718126D01*
X70543479Y-207718129D01*
X70493361Y-207804938D01*
X70493359Y-207804940D01*
X70464425Y-207855053D01*
X70464424Y-207855054D01*
X70464423Y-207855059D01*
X70423499Y-208007787D01*
X70423499Y-208007789D01*
X70423499Y-208175890D01*
X70423500Y-208175903D01*
X70423500Y-211762330D01*
X70423499Y-211762348D01*
X70423499Y-211928054D01*
X70423498Y-211928054D01*
X70464423Y-212080785D01*
X70471711Y-212093408D01*
X70543477Y-212217712D01*
X70543481Y-212217717D01*
X70662349Y-212336585D01*
X70662355Y-212336590D01*
X70939635Y-212613870D01*
X70973120Y-212675193D01*
X70968136Y-212744885D01*
X70966515Y-212749003D01*
X70916394Y-212870006D01*
X70855306Y-213097989D01*
X70824501Y-213331979D01*
X70824500Y-213331995D01*
X70824500Y-213568004D01*
X70824501Y-213568020D01*
X70855306Y-213802010D01*
X70916394Y-214029993D01*
X71006714Y-214248045D01*
X71006719Y-214248056D01*
X71077677Y-214370957D01*
X71124727Y-214452450D01*
X71124729Y-214452453D01*
X71124730Y-214452454D01*
X71268406Y-214639697D01*
X71268412Y-214639704D01*
X71435295Y-214806587D01*
X71435301Y-214806592D01*
X71622550Y-214950273D01*
X71753918Y-215026118D01*
X71826943Y-215068280D01*
X71826948Y-215068282D01*
X71826951Y-215068284D01*
X72045007Y-215158606D01*
X72272986Y-215219693D01*
X72506989Y-215250500D01*
X72506996Y-215250500D01*
X72743004Y-215250500D01*
X72743011Y-215250500D01*
X72977014Y-215219693D01*
X73204993Y-215158606D01*
X73423049Y-215068284D01*
X73627450Y-214950273D01*
X73814699Y-214806592D01*
X73981592Y-214639699D01*
X74125273Y-214452450D01*
X74243284Y-214248049D01*
X74333606Y-214029993D01*
X74394693Y-213802014D01*
X74425500Y-213568011D01*
X74425500Y-213331995D01*
X75574500Y-213331995D01*
X75574500Y-213568004D01*
X75574501Y-213568020D01*
X75605306Y-213802010D01*
X75666394Y-214029993D01*
X75756714Y-214248045D01*
X75756719Y-214248056D01*
X75827677Y-214370957D01*
X75874727Y-214452450D01*
X75874729Y-214452453D01*
X75874730Y-214452454D01*
X76018406Y-214639697D01*
X76018412Y-214639704D01*
X76185295Y-214806587D01*
X76185301Y-214806592D01*
X76372550Y-214950273D01*
X76503918Y-215026118D01*
X76576943Y-215068280D01*
X76576948Y-215068282D01*
X76576951Y-215068284D01*
X76795007Y-215158606D01*
X77022986Y-215219693D01*
X77256989Y-215250500D01*
X77256996Y-215250500D01*
X77493004Y-215250500D01*
X77493011Y-215250500D01*
X77727014Y-215219693D01*
X77954993Y-215158606D01*
X78173049Y-215068284D01*
X78377450Y-214950273D01*
X78564699Y-214806592D01*
X78731592Y-214639699D01*
X78875273Y-214452450D01*
X78993284Y-214248049D01*
X79083606Y-214029993D01*
X79144693Y-213802014D01*
X79175500Y-213568011D01*
X79175500Y-213331989D01*
X79144693Y-213097986D01*
X79083606Y-212870007D01*
X78993284Y-212651951D01*
X78993282Y-212651948D01*
X78993280Y-212651943D01*
X78951118Y-212578918D01*
X78875273Y-212447550D01*
X78731592Y-212260301D01*
X78731587Y-212260295D01*
X78564704Y-212093412D01*
X78564697Y-212093406D01*
X78377454Y-211949730D01*
X78377453Y-211949729D01*
X78377450Y-211949727D01*
X78295957Y-211902677D01*
X78173056Y-211831719D01*
X78173045Y-211831714D01*
X77954993Y-211741394D01*
X77727010Y-211680306D01*
X77493020Y-211649501D01*
X77493017Y-211649500D01*
X77493011Y-211649500D01*
X77256989Y-211649500D01*
X77256983Y-211649500D01*
X77256979Y-211649501D01*
X77022989Y-211680306D01*
X76795006Y-211741394D01*
X76576954Y-211831714D01*
X76576943Y-211831719D01*
X76372545Y-211949730D01*
X76185302Y-212093406D01*
X76185295Y-212093412D01*
X76018412Y-212260295D01*
X76018406Y-212260302D01*
X75874730Y-212447545D01*
X75756719Y-212651943D01*
X75756714Y-212651954D01*
X75666394Y-212870006D01*
X75605306Y-213097989D01*
X75574501Y-213331979D01*
X75574500Y-213331995D01*
X74425500Y-213331995D01*
X74425500Y-213331989D01*
X74394693Y-213097986D01*
X74333606Y-212870007D01*
X74243284Y-212651951D01*
X74243282Y-212651948D01*
X74243280Y-212651943D01*
X74201118Y-212578918D01*
X74125273Y-212447550D01*
X73981592Y-212260301D01*
X73981587Y-212260295D01*
X73814704Y-212093412D01*
X73814697Y-212093406D01*
X73627454Y-211949730D01*
X73627453Y-211949729D01*
X73627450Y-211949727D01*
X73545957Y-211902677D01*
X73423056Y-211831719D01*
X73423045Y-211831714D01*
X73204993Y-211741394D01*
X72977010Y-211680306D01*
X72743020Y-211649501D01*
X72743017Y-211649500D01*
X72743011Y-211649500D01*
X72506989Y-211649500D01*
X72506983Y-211649500D01*
X72506979Y-211649501D01*
X72272989Y-211680306D01*
X72045006Y-211741394D01*
X71924003Y-211791515D01*
X71904127Y-211793651D01*
X71885397Y-211800638D01*
X71870100Y-211797310D01*
X71854534Y-211798984D01*
X71836657Y-211790035D01*
X71817124Y-211785786D01*
X71794831Y-211769098D01*
X71792055Y-211767708D01*
X71788870Y-211764635D01*
X71660819Y-211636584D01*
X71627334Y-211575261D01*
X71624500Y-211548903D01*
X71624500Y-210466173D01*
X71644185Y-210399134D01*
X71696989Y-210353379D01*
X71766147Y-210343435D01*
X71810500Y-210358785D01*
X71826951Y-210368284D01*
X72045007Y-210458606D01*
X72272986Y-210519693D01*
X72506989Y-210550500D01*
X72506996Y-210550500D01*
X72743004Y-210550500D01*
X72743011Y-210550500D01*
X72977014Y-210519693D01*
X73204993Y-210458606D01*
X73423049Y-210368284D01*
X73627450Y-210250273D01*
X73814699Y-210106592D01*
X73981592Y-209939699D01*
X74125273Y-209752450D01*
X74243284Y-209548049D01*
X74333606Y-209329993D01*
X74394693Y-209102014D01*
X74425500Y-208868011D01*
X74425500Y-208631989D01*
X74402353Y-208456171D01*
X74413118Y-208387138D01*
X74437608Y-208352310D01*
X76011778Y-206778141D01*
X76011782Y-206778139D01*
X76151139Y-206638782D01*
X76260632Y-206474914D01*
X76336051Y-206292835D01*
X76374500Y-206099541D01*
X76374500Y-205766173D01*
X76394185Y-205699134D01*
X76446989Y-205653379D01*
X76516147Y-205643435D01*
X76560500Y-205658785D01*
X76576951Y-205668284D01*
X76795007Y-205758606D01*
X77022986Y-205819693D01*
X77256989Y-205850500D01*
X77256996Y-205850500D01*
X77493004Y-205850500D01*
X77493011Y-205850500D01*
X77727014Y-205819693D01*
X77954993Y-205758606D01*
X78173049Y-205668284D01*
X78377450Y-205550273D01*
X78564699Y-205406592D01*
X78731592Y-205239699D01*
X78875273Y-205052450D01*
X78993284Y-204848049D01*
X79083606Y-204629993D01*
X79144693Y-204402014D01*
X79175500Y-204168011D01*
X79175500Y-203931989D01*
X79144693Y-203697986D01*
X79083606Y-203470007D01*
X78993284Y-203251951D01*
X78993282Y-203251948D01*
X78993280Y-203251943D01*
X78951118Y-203178918D01*
X78875273Y-203047550D01*
X78731592Y-202860301D01*
X78731587Y-202860295D01*
X78564704Y-202693412D01*
X78564697Y-202693406D01*
X78377454Y-202549730D01*
X78377453Y-202549729D01*
X78377450Y-202549727D01*
X78295957Y-202502677D01*
X78173056Y-202431719D01*
X78173049Y-202431716D01*
X78052046Y-202381594D01*
X77997643Y-202337752D01*
X77975579Y-202271458D01*
X77975500Y-202267033D01*
X77975500Y-196365096D01*
X77995185Y-196298057D01*
X78011815Y-196277419D01*
X78730478Y-195558755D01*
X78791799Y-195525272D01*
X78856473Y-195528506D01*
X78898757Y-195542246D01*
X79108713Y-195575500D01*
X79108714Y-195575500D01*
X79321286Y-195575500D01*
X79321287Y-195575500D01*
X79531243Y-195542246D01*
X79733412Y-195476557D01*
X79922816Y-195380051D01*
X80033686Y-195299500D01*
X80094786Y-195255109D01*
X80094788Y-195255106D01*
X80094792Y-195255104D01*
X80245104Y-195104792D01*
X80245106Y-195104788D01*
X80245109Y-195104786D01*
X80370048Y-194932820D01*
X80370047Y-194932820D01*
X80370051Y-194932816D01*
X80374514Y-194924054D01*
X80422488Y-194873259D01*
X80490308Y-194856463D01*
X80556444Y-194878999D01*
X80595486Y-194924056D01*
X80599951Y-194932820D01*
X80724890Y-195104786D01*
X80875213Y-195255109D01*
X81047184Y-195380051D01*
X81047184Y-195380052D01*
X81086793Y-195400233D01*
X81137590Y-195448206D01*
X81154500Y-195510718D01*
X81154500Y-204069902D01*
X81134815Y-204136941D01*
X81118181Y-204157583D01*
X78211128Y-207064635D01*
X78149805Y-207098120D01*
X78080113Y-207093136D01*
X78076014Y-207091523D01*
X77954993Y-207041394D01*
X77727014Y-206980307D01*
X77727013Y-206980306D01*
X77727010Y-206980306D01*
X77493020Y-206949501D01*
X77493017Y-206949500D01*
X77493011Y-206949500D01*
X77256989Y-206949500D01*
X77256983Y-206949500D01*
X77256979Y-206949501D01*
X77022989Y-206980306D01*
X76795006Y-207041394D01*
X76576954Y-207131714D01*
X76576943Y-207131719D01*
X76372545Y-207249730D01*
X76185302Y-207393406D01*
X76185295Y-207393412D01*
X76018412Y-207560295D01*
X76018406Y-207560302D01*
X75874730Y-207747545D01*
X75756719Y-207951943D01*
X75756714Y-207951954D01*
X75666394Y-208170006D01*
X75605306Y-208397989D01*
X75574501Y-208631979D01*
X75574500Y-208631995D01*
X75574500Y-208868004D01*
X75574501Y-208868020D01*
X75605306Y-209102010D01*
X75666394Y-209329993D01*
X75756714Y-209548045D01*
X75756719Y-209548056D01*
X75827677Y-209670957D01*
X75874727Y-209752450D01*
X75874729Y-209752453D01*
X75874730Y-209752454D01*
X76018406Y-209939697D01*
X76018412Y-209939704D01*
X76185295Y-210106587D01*
X76185301Y-210106592D01*
X76372550Y-210250273D01*
X76503918Y-210326118D01*
X76576943Y-210368280D01*
X76576948Y-210368282D01*
X76576951Y-210368284D01*
X76795007Y-210458606D01*
X77022986Y-210519693D01*
X77256989Y-210550500D01*
X77256996Y-210550500D01*
X77493004Y-210550500D01*
X77493011Y-210550500D01*
X77727014Y-210519693D01*
X77954993Y-210458606D01*
X78173049Y-210368284D01*
X78377450Y-210250273D01*
X78564699Y-210106592D01*
X78731592Y-209939699D01*
X78875273Y-209752450D01*
X78993284Y-209548049D01*
X79083606Y-209329993D01*
X79144693Y-209102014D01*
X79175500Y-208868011D01*
X79175500Y-208631989D01*
X79144693Y-208397986D01*
X79083606Y-208170007D01*
X79033484Y-208049003D01*
X79026015Y-207979534D01*
X79057290Y-207917054D01*
X79060335Y-207913898D01*
X81787821Y-205186413D01*
X81849142Y-205152930D01*
X81918834Y-205157914D01*
X81974767Y-205199786D01*
X81999184Y-205265250D01*
X81999500Y-205274096D01*
X81999500Y-216875500D01*
X81979815Y-216942539D01*
X81927011Y-216988294D01*
X81875500Y-216999500D01*
X68124500Y-216999500D01*
X68057461Y-216979815D01*
X68011706Y-216927011D01*
X68000500Y-216875500D01*
X68000500Y-43124500D01*
X68020185Y-43057461D01*
X68072989Y-43011706D01*
X68124500Y-43000500D01*
X98375500Y-43000500D01*
X98442539Y-43020185D01*
G37*
%TD.AperFunction*%
%TA.AperFunction,Conductor*%
G36*
X88909075Y-194032007D02*
G01*
X88875000Y-194159174D01*
X88875000Y-194290826D01*
X88909075Y-194417993D01*
X88941988Y-194475000D01*
X87268012Y-194475000D01*
X87300925Y-194417993D01*
X87335000Y-194290826D01*
X87335000Y-194159174D01*
X87300925Y-194032007D01*
X87268012Y-193975000D01*
X88941988Y-193975000D01*
X88909075Y-194032007D01*
G37*
%TD.AperFunction*%
%TA.AperFunction,Conductor*%
G36*
X88909075Y-131032007D02*
G01*
X88875000Y-131159174D01*
X88875000Y-131290826D01*
X88909075Y-131417993D01*
X88941988Y-131475000D01*
X87268012Y-131475000D01*
X87300925Y-131417993D01*
X87335000Y-131290826D01*
X87335000Y-131159174D01*
X87300925Y-131032007D01*
X87268012Y-130975000D01*
X88941988Y-130975000D01*
X88909075Y-131032007D01*
G37*
%TD.AperFunction*%
%TA.AperFunction,Conductor*%
G36*
X88909075Y-70782007D02*
G01*
X88875000Y-70909174D01*
X88875000Y-71040826D01*
X88909075Y-71167993D01*
X88941988Y-71225000D01*
X87268012Y-71225000D01*
X87300925Y-71167993D01*
X87335000Y-71040826D01*
X87335000Y-70909174D01*
X87300925Y-70782007D01*
X87268012Y-70725000D01*
X88941988Y-70725000D01*
X88909075Y-70782007D01*
G37*
%TD.AperFunction*%
%TD*%
M02*
