M48
; DRILL file {KiCad 9.0.0} date 2025-03-16T10:30:26+0100
; FORMAT={-:-/ absolute / metric / decimal}
; #@! TF.CreationDate,2025-03-16T10:30:26+01:00
; #@! TF.GenerationSoftware,Kicad,Pcbnew,9.0.0
; #@! TF.FileFunction,Plated,1,2,PTH
FMAT,2
METRIC
; #@! TA.AperFunction,Plated,PTH,ComponentDrill
T1C0.300
; #@! TA.AperFunction,Plated,PTH,ComponentDrill
T2C1.000
; #@! TA.AperFunction,Plated,PTH,ComponentDrill
T3C2.400
; #@! TA.AperFunction,Plated,PTH,ComponentDrill
T4C3.200
; #@! TA.AperFunction,Plated,PTH,ComponentDrill
T5C6.200
%
G90
G05
T1
X52.8Y-51.25
X52.8Y-69.75
X52.8Y-88.25
X52.8Y-111.5
X52.8Y-130.0
X52.8Y-148.5
X52.8Y-171.75
X52.8Y-190.25
X52.8Y-208.75
X54.46Y-47.22
X54.46Y-65.72
X54.46Y-84.22
X54.46Y-107.47
X54.46Y-125.97
X54.46Y-144.47
X54.46Y-167.72
X54.46Y-186.22
X54.46Y-204.72
X54.47Y-55.29
X54.47Y-73.79
X54.47Y-92.29
X54.47Y-115.54
X54.47Y-134.04
X54.47Y-152.54
X54.47Y-175.79
X54.47Y-194.29
X54.47Y-212.79
X58.5Y-45.55
X58.5Y-56.95
X58.5Y-64.05
X58.5Y-75.45
X58.5Y-82.55
X58.5Y-93.95
X58.5Y-105.8
X58.5Y-117.2
X58.5Y-124.3
X58.5Y-135.7
X58.5Y-142.8
X58.5Y-154.2
X58.5Y-166.05
X58.5Y-177.45
X58.5Y-184.55
X58.5Y-195.95
X58.5Y-203.05
X58.5Y-214.45
X62.53Y-55.29
X62.53Y-73.79
X62.53Y-92.29
X62.53Y-115.54
X62.53Y-134.04
X62.53Y-152.54
X62.53Y-175.79
X62.53Y-194.29
X62.53Y-212.79
X62.54Y-47.22
X62.54Y-65.72
X62.54Y-84.22
X62.54Y-107.47
X62.54Y-125.97
X62.54Y-144.47
X62.54Y-167.72
X62.54Y-186.22
X62.54Y-204.72
X64.2Y-51.25
X64.2Y-69.75
X64.2Y-88.25
X64.2Y-111.5
X64.2Y-130.0
X64.2Y-148.5
X64.2Y-171.75
X64.2Y-190.25
X64.2Y-208.75
X85.8Y-208.75
X87.46Y-204.72
X87.47Y-212.79
X91.5Y-203.05
X91.5Y-214.45
X95.53Y-212.79
X95.54Y-204.72
X97.2Y-208.75
T3
X75.0Y-81.85
X75.0Y-142.1
X75.0Y-202.35
T4
X53.5Y-33.5
X53.5Y-226.5
X96.5Y-33.5
X96.5Y-226.5
T5
X75.0Y-88.25
X75.0Y-148.5
X75.0Y-208.75
T2
X82.75Y-66.5G85X83.75Y-66.5
G05
X82.75Y-126.75G85X83.75Y-126.75
G05
X82.75Y-187.0G85X83.75Y-187.0
G05
M30
