%TF.GenerationSoftware,KiCad,Pcbnew,9.0.0*%
%TF.CreationDate,2025-03-16T10:30:10+01:00*%
%TF.ProjectId,DMH_Tripple_VCA_PANEL,444d485f-5472-4697-9070-6c655f564341,rev?*%
%TF.SameCoordinates,Original*%
%TF.FileFunction,Legend,Top*%
%TF.FilePolarity,Positive*%
%FSLAX46Y46*%
G04 Gerber Fmt 4.6, Leading zero omitted, Abs format (unit mm)*
G04 Created by KiCad (PCBNEW 9.0.0) date 2025-03-16 10:30:10*
%MOMM*%
%LPD*%
G01*
G04 APERTURE LIST*
%ADD10C,0.400000*%
%ADD11C,0.800000*%
%ADD12C,0.875000*%
%ADD13C,0.150000*%
%ADD14C,0.500000*%
%ADD15C,0.000000*%
%ADD16C,12.000000*%
%ADD17O,2.500000X1.500000*%
%ADD18C,4.000000*%
%ADD19C,0.500000*%
%ADD20C,3.100000*%
%ADD21C,2.900000*%
%ADD22C,13.000000*%
G04 APERTURE END LIST*
D10*
X52000000Y-100750000D02*
X98000000Y-100750000D01*
X52000000Y-161000000D02*
X98000000Y-161000000D01*
D11*
G36*
X62533845Y-38801891D02*
G01*
X62754284Y-39208240D01*
X63017486Y-39543203D01*
X63325285Y-39807810D01*
X63679515Y-40003088D01*
X64082009Y-40130067D01*
X64534601Y-40189774D01*
X64730076Y-40195052D01*
X65205712Y-40161965D01*
X65627144Y-40062018D01*
X65997414Y-39894183D01*
X66319563Y-39657431D01*
X66596632Y-39350734D01*
X66831662Y-38973062D01*
X66914584Y-38801891D01*
X69624703Y-32779839D01*
X69747801Y-32441807D01*
X67383531Y-32441807D01*
X67293649Y-32711451D01*
X65054431Y-37959741D01*
X64739846Y-38196168D01*
X64415492Y-37959741D01*
X62152826Y-32711451D01*
X62074668Y-32441807D01*
X59677180Y-32441807D01*
X59800279Y-32779839D01*
X62533845Y-38801891D01*
G37*
G36*
X77401395Y-38076978D02*
G01*
X73436845Y-38076978D01*
X72999332Y-38045361D01*
X72575823Y-37936626D01*
X72226549Y-37758351D01*
X71912770Y-37484933D01*
X71674998Y-37155530D01*
X71515436Y-36774034D01*
X71445892Y-36354757D01*
X71443824Y-36267627D01*
X71492583Y-35846507D01*
X71631730Y-35456947D01*
X71850572Y-35113813D01*
X72002651Y-34948715D01*
X72342137Y-34696766D01*
X72721161Y-34538911D01*
X73134692Y-34462369D01*
X73436845Y-34448506D01*
X77401395Y-34448506D01*
X77401395Y-32441807D01*
X73436845Y-32441807D01*
X72993480Y-32459385D01*
X72578668Y-32510989D01*
X72191470Y-32594924D01*
X71744876Y-32742729D01*
X71338130Y-32935094D01*
X70969398Y-33168712D01*
X70636845Y-33440272D01*
X70306331Y-33787663D01*
X70021129Y-34176351D01*
X69785623Y-34601551D01*
X69635943Y-34964782D01*
X69523118Y-35345869D01*
X69449390Y-35742360D01*
X69417005Y-36151805D01*
X69415631Y-36255903D01*
X69442172Y-36722989D01*
X69519768Y-37171354D01*
X69645378Y-37597733D01*
X69815960Y-37998862D01*
X70028474Y-38371476D01*
X70279879Y-38712311D01*
X70390649Y-38839016D01*
X70738195Y-39174083D01*
X71131403Y-39462193D01*
X71479717Y-39656165D01*
X71858749Y-39815448D01*
X72269162Y-39937980D01*
X72711620Y-40021700D01*
X73186788Y-40064547D01*
X73436845Y-40070000D01*
X77401395Y-40070000D01*
X77401395Y-38076978D01*
G37*
G36*
X84156175Y-40195052D02*
G01*
X84549254Y-40154569D01*
X84948980Y-40007592D01*
X85273328Y-39745680D01*
X85432100Y-39503356D01*
X87727983Y-34753321D01*
X87874529Y-34665394D01*
X88052337Y-34866650D01*
X88052337Y-40070000D01*
X90002372Y-40070000D01*
X90002372Y-34516894D01*
X89975620Y-34070869D01*
X89897168Y-33687079D01*
X89743906Y-33309736D01*
X89492600Y-32959316D01*
X89296999Y-32777885D01*
X88949499Y-32551450D01*
X88583818Y-32403964D01*
X88171509Y-32325509D01*
X87974180Y-32316755D01*
X87551350Y-32357531D01*
X87114480Y-32507401D01*
X86745642Y-32756074D01*
X86435408Y-33091571D01*
X86214845Y-33428834D01*
X86059316Y-33731409D01*
X84345708Y-37457578D01*
X84156175Y-37602170D01*
X83964689Y-37457578D01*
X82251081Y-33731409D01*
X82053909Y-33357556D01*
X81826953Y-33030134D01*
X81507606Y-32708276D01*
X81128084Y-32475238D01*
X80678959Y-32342999D01*
X80336217Y-32316755D01*
X79904272Y-32359674D01*
X79517449Y-32478347D01*
X79144690Y-32680654D01*
X79013398Y-32777885D01*
X78714414Y-33081479D01*
X78492917Y-33462742D01*
X78367709Y-33871581D01*
X78314769Y-34285715D01*
X78308025Y-34516894D01*
X78308025Y-40070000D01*
X80258060Y-40070000D01*
X80258060Y-34876420D01*
X80435868Y-34675163D01*
X80582414Y-34763091D01*
X82878297Y-39532665D01*
X83134905Y-39857120D01*
X83488190Y-40071423D01*
X83906855Y-40179484D01*
X84156175Y-40195052D01*
G37*
D12*
G36*
X69055134Y-223893568D02*
G01*
X69230821Y-223905313D01*
X69395929Y-223929624D01*
X69551800Y-223966196D01*
X69697598Y-224014298D01*
X69837022Y-224074980D01*
X69966545Y-224146500D01*
X70092064Y-224232387D01*
X70207497Y-224328709D01*
X70329155Y-224453742D01*
X70506253Y-224696849D01*
X70635978Y-224965618D01*
X70714987Y-225251559D01*
X70741565Y-225547725D01*
X70741511Y-225561527D01*
X70733275Y-225717379D01*
X70711471Y-225868689D01*
X70675994Y-226017389D01*
X70627777Y-226160071D01*
X70566671Y-226297700D01*
X70493879Y-226427799D01*
X70409738Y-226550146D01*
X70315208Y-226663518D01*
X70156038Y-226815963D01*
X69918267Y-226979464D01*
X69787059Y-227045113D01*
X69646522Y-227100070D01*
X69496309Y-227143855D01*
X69336411Y-227175872D01*
X69164585Y-227195753D01*
X68982497Y-227202501D01*
X68477708Y-227202501D01*
X68227604Y-227189555D01*
X68061955Y-227165145D01*
X67906050Y-227128692D01*
X67758620Y-227080298D01*
X67620756Y-227020738D01*
X67489429Y-226948799D01*
X67367765Y-226866303D01*
X67251357Y-226769982D01*
X67144997Y-226663518D01*
X67125596Y-226641937D01*
X66951772Y-226403931D01*
X66823711Y-226137206D01*
X66745207Y-225849585D01*
X66719055Y-225552426D01*
X67605548Y-225552426D01*
X67622782Y-225714176D01*
X67651712Y-225814604D01*
X67693378Y-225909085D01*
X67746997Y-225996778D01*
X67811353Y-226076022D01*
X67856749Y-226121826D01*
X68015785Y-226232588D01*
X68111208Y-226273619D01*
X68218137Y-226304088D01*
X68341091Y-226323639D01*
X68477708Y-226330340D01*
X68982497Y-226330340D01*
X69063210Y-226328080D01*
X69187797Y-226314520D01*
X69299982Y-226289369D01*
X69401464Y-226252921D01*
X69491630Y-226206164D01*
X69575839Y-226146018D01*
X69648853Y-226076022D01*
X69750996Y-225937830D01*
X69828472Y-225751199D01*
X69854658Y-225552426D01*
X69854511Y-225537276D01*
X69845313Y-225432109D01*
X69822450Y-225330683D01*
X69786223Y-225232955D01*
X69737768Y-225141642D01*
X69609530Y-224985020D01*
X69599735Y-224976058D01*
X69441337Y-224865872D01*
X69349085Y-224825831D01*
X69244773Y-224795924D01*
X69121966Y-224776495D01*
X68982497Y-224769811D01*
X68477708Y-224769811D01*
X68235547Y-224791668D01*
X68126853Y-224820317D01*
X68031000Y-224859647D01*
X67934826Y-224916587D01*
X67850462Y-224985020D01*
X67834545Y-225000351D01*
X67766833Y-225077249D01*
X67709720Y-225162847D01*
X67631843Y-225351667D01*
X67605548Y-225552426D01*
X66719055Y-225552426D01*
X66718641Y-225547725D01*
X66725898Y-225392268D01*
X66747197Y-225240859D01*
X66781887Y-225093958D01*
X66830376Y-224949518D01*
X66891426Y-224811198D01*
X66965253Y-224678250D01*
X67050517Y-224553052D01*
X67252708Y-224328709D01*
X67311142Y-224277663D01*
X67548321Y-224114372D01*
X67678241Y-224049148D01*
X67817658Y-223994421D01*
X67966323Y-223950934D01*
X68125057Y-223919059D01*
X68295919Y-223899258D01*
X68477708Y-223892521D01*
X68982497Y-223892521D01*
X69055134Y-223893568D01*
G37*
G36*
X73399935Y-224769811D02*
G01*
X73441445Y-224776100D01*
X73468272Y-224792764D01*
X73487984Y-224848030D01*
X73482561Y-224885991D01*
X73458705Y-224931164D01*
X71949468Y-227065511D01*
X71875951Y-227202501D01*
X72993240Y-227202501D01*
X73061841Y-227075342D01*
X74428960Y-225068368D01*
X74516477Y-224928017D01*
X74573379Y-224810696D01*
X74603370Y-224719137D01*
X74617385Y-224636736D01*
X74620019Y-224578539D01*
X74593718Y-224387559D01*
X74516951Y-224214802D01*
X74448408Y-224122904D01*
X74381105Y-224055576D01*
X74303000Y-223998493D01*
X74219479Y-223955232D01*
X74125285Y-223922640D01*
X74021234Y-223901726D01*
X73905643Y-223892799D01*
X73880147Y-223892521D01*
X70866587Y-223892521D01*
X70866587Y-224769811D01*
X73399935Y-224769811D01*
G37*
G36*
X77525429Y-223828064D02*
G01*
X77698295Y-223888441D01*
X77837247Y-223987196D01*
X77936384Y-224117778D01*
X77974052Y-224202448D01*
X78002686Y-224302834D01*
X78021684Y-224426199D01*
X78028306Y-224570631D01*
X78028306Y-227202501D01*
X77136697Y-227202501D01*
X77136697Y-226737462D01*
X74828816Y-226737462D01*
X74637445Y-226722776D01*
X74542635Y-226700163D01*
X74462780Y-226668128D01*
X74391713Y-226624079D01*
X74333858Y-226570980D01*
X74315544Y-226549055D01*
X74271213Y-226479508D01*
X74239333Y-226401676D01*
X74218312Y-226308392D01*
X74211401Y-226208310D01*
X74211565Y-226194495D01*
X74237404Y-226046061D01*
X74268308Y-225975504D01*
X74311015Y-225909540D01*
X75568689Y-225909540D01*
X75577335Y-225940532D01*
X75595397Y-225957118D01*
X75622544Y-225963395D01*
X77136697Y-225963395D01*
X77136697Y-224938430D01*
X77130389Y-224897322D01*
X77114002Y-224866992D01*
X77063180Y-224840336D01*
X77025727Y-224845866D01*
X76984748Y-224869829D01*
X75602883Y-225855471D01*
X75600244Y-225857104D01*
X75576053Y-225879776D01*
X75568689Y-225909540D01*
X74311015Y-225909540D01*
X74314197Y-225904625D01*
X74332850Y-225880839D01*
X74409635Y-225801888D01*
X74534748Y-225703521D01*
X76891569Y-223977365D01*
X76962678Y-223928482D01*
X77144209Y-223841011D01*
X77245873Y-223817695D01*
X77352120Y-223810456D01*
X77525429Y-223828064D01*
G37*
G36*
X78418759Y-225834741D02*
G01*
X79751683Y-225834741D01*
X79751683Y-225271394D01*
X78418759Y-225271394D01*
X78418759Y-225834741D01*
G37*
G36*
X79882048Y-223892521D02*
G01*
X79882048Y-224769811D01*
X81846921Y-224769811D01*
X81876725Y-224776075D01*
X81895074Y-224792569D01*
X81900776Y-224813836D01*
X81893639Y-224842801D01*
X81871031Y-224865300D01*
X81851622Y-224877309D01*
X81278446Y-225239338D01*
X81177398Y-225312924D01*
X81110963Y-225392956D01*
X81088396Y-225447595D01*
X81078187Y-225510779D01*
X81077556Y-225532979D01*
X81085290Y-225616690D01*
X81112078Y-225692267D01*
X81145183Y-225737817D01*
X81192205Y-225775181D01*
X81248486Y-225800559D01*
X81319156Y-225816491D01*
X81400903Y-225821704D01*
X82067258Y-225821704D01*
X82153018Y-225828332D01*
X82222590Y-225847371D01*
X82273521Y-225874956D01*
X82312402Y-225911087D01*
X82357751Y-226005991D01*
X82366242Y-226085853D01*
X82359088Y-226160047D01*
X82336362Y-226225776D01*
X82304953Y-226271436D01*
X82260878Y-226308474D01*
X82207512Y-226334041D01*
X82141426Y-226349876D01*
X82067258Y-226354917D01*
X79872217Y-226354917D01*
X79872217Y-227202501D01*
X82331834Y-227202501D01*
X82469449Y-227195805D01*
X82598247Y-227176288D01*
X82718653Y-227144612D01*
X82829780Y-227101716D01*
X83025702Y-226984015D01*
X83183943Y-226827710D01*
X83300736Y-226637718D01*
X83371007Y-226420777D01*
X83390352Y-226222842D01*
X83383615Y-226083661D01*
X83363812Y-225956213D01*
X83332773Y-225843821D01*
X83290618Y-225742031D01*
X83238719Y-225651874D01*
X83177087Y-225571651D01*
X83024694Y-225438889D01*
X82830656Y-225341452D01*
X82589836Y-225281551D01*
X82528022Y-225273745D01*
X82504242Y-225262473D01*
X82494268Y-225242758D01*
X82493615Y-225234422D01*
X82513276Y-225195313D01*
X83052259Y-224804005D01*
X83150741Y-224719960D01*
X83225531Y-224631780D01*
X83264931Y-224561602D01*
X83290423Y-224485255D01*
X83302089Y-224377649D01*
X83295257Y-224289087D01*
X83274785Y-224206401D01*
X83242745Y-224134393D01*
X83198468Y-224069788D01*
X83144341Y-224015568D01*
X83078943Y-223970064D01*
X83003113Y-223934492D01*
X82916289Y-223909246D01*
X82748360Y-223892521D01*
X79882048Y-223892521D01*
G37*
D13*
G36*
X77885069Y-195839181D02*
G01*
X77985462Y-195845892D01*
X78079809Y-195859784D01*
X78168878Y-195880683D01*
X78252191Y-195908169D01*
X78331863Y-195942845D01*
X78405876Y-195983713D01*
X78477601Y-196032792D01*
X78543563Y-196087833D01*
X78613081Y-196159281D01*
X78714280Y-196298198D01*
X78788409Y-196451781D01*
X78833557Y-196615176D01*
X78848744Y-196784413D01*
X78848713Y-196792301D01*
X78844007Y-196881359D01*
X78831547Y-196967822D01*
X78811275Y-197052793D01*
X78783723Y-197134326D01*
X78748805Y-197212971D01*
X78707210Y-197287313D01*
X78659129Y-197357226D01*
X78605112Y-197422009D01*
X78514172Y-197509144D01*
X78378342Y-197602550D01*
X78303363Y-197640063D01*
X78223048Y-197671466D01*
X78137198Y-197696487D01*
X78045812Y-197714783D01*
X77947617Y-197726144D01*
X77843563Y-197730000D01*
X77445935Y-197730000D01*
X77303019Y-197722602D01*
X77208362Y-197708653D01*
X77119273Y-197687823D01*
X77035027Y-197660170D01*
X76956248Y-197626135D01*
X76881204Y-197585027D01*
X76811682Y-197537887D01*
X76745163Y-197482846D01*
X76684386Y-197422009D01*
X76673299Y-197409677D01*
X76573972Y-197273674D01*
X76500794Y-197121260D01*
X76455934Y-196956905D01*
X76440990Y-196787100D01*
X76947558Y-196787100D01*
X76957406Y-196879528D01*
X76973937Y-196936916D01*
X76997746Y-196990905D01*
X77028386Y-197041015D01*
X77065161Y-197086297D01*
X77091101Y-197112471D01*
X77181979Y-197175764D01*
X77236506Y-197199210D01*
X77297609Y-197216621D01*
X77367868Y-197227793D01*
X77445935Y-197231622D01*
X77843563Y-197231622D01*
X77889684Y-197230330D01*
X77960877Y-197222582D01*
X78024982Y-197208210D01*
X78082972Y-197187383D01*
X78134496Y-197160665D01*
X78182615Y-197126295D01*
X78224337Y-197086297D01*
X78282705Y-197007330D01*
X78326977Y-196900684D01*
X78341940Y-196787100D01*
X78341861Y-196778682D01*
X78336634Y-196718558D01*
X78323594Y-196660570D01*
X78302909Y-196604675D01*
X78275235Y-196552450D01*
X78201989Y-196462868D01*
X78196391Y-196457747D01*
X78105857Y-196394790D01*
X78053108Y-196371905D01*
X77993466Y-196354813D01*
X77923268Y-196343710D01*
X77843563Y-196339891D01*
X77445935Y-196339891D01*
X77307557Y-196352381D01*
X77245446Y-196368752D01*
X77190673Y-196391226D01*
X77135717Y-196423763D01*
X77087509Y-196462868D01*
X77078413Y-196471628D01*
X77039721Y-196515570D01*
X77007085Y-196564483D01*
X76962584Y-196672380D01*
X76947558Y-196787100D01*
X76440990Y-196787100D01*
X76440754Y-196784413D01*
X76444901Y-196695581D01*
X76457072Y-196609061D01*
X76476894Y-196525118D01*
X76504602Y-196442581D01*
X76539488Y-196363541D01*
X76581675Y-196287571D01*
X76630397Y-196216029D01*
X76745935Y-196087833D01*
X76779326Y-196058664D01*
X76914857Y-195965355D01*
X76989097Y-195928084D01*
X77068764Y-195896811D01*
X77153715Y-195871962D01*
X77244420Y-195853747D01*
X77342056Y-195842432D01*
X77445935Y-195838583D01*
X77843563Y-195838583D01*
X77885069Y-195839181D01*
G37*
G36*
X79430042Y-195838583D02*
G01*
X79360613Y-195842505D01*
X79299012Y-195854325D01*
X79250567Y-195871655D01*
X79208416Y-195895428D01*
X79174708Y-195923541D01*
X79146528Y-195957389D01*
X79106865Y-196042285D01*
X79089045Y-196157647D01*
X79088468Y-196185896D01*
X79088468Y-197730000D01*
X79595272Y-197730000D01*
X79595272Y-197098387D01*
X81070866Y-197098387D01*
X81070866Y-196627976D01*
X79595272Y-196627976D01*
X79595272Y-196423789D01*
X79599215Y-196389951D01*
X79611180Y-196364801D01*
X79648302Y-196342457D01*
X79673674Y-196339891D01*
X81079292Y-196339891D01*
X81079292Y-195838583D01*
X79430042Y-195838583D01*
G37*
G36*
X81641905Y-195838583D02*
G01*
X81572476Y-195842505D01*
X81510876Y-195854325D01*
X81462431Y-195871655D01*
X81420280Y-195895428D01*
X81386571Y-195923541D01*
X81358391Y-195957389D01*
X81318728Y-196042285D01*
X81300908Y-196157647D01*
X81300332Y-196185896D01*
X81300332Y-197730000D01*
X81807136Y-197730000D01*
X81807136Y-197098387D01*
X83282729Y-197098387D01*
X83282729Y-196627976D01*
X81807136Y-196627976D01*
X81807136Y-196423789D01*
X81811078Y-196389951D01*
X81823043Y-196364801D01*
X81860165Y-196342457D01*
X81885538Y-196339891D01*
X83291155Y-196339891D01*
X83291155Y-195838583D01*
X81641905Y-195838583D01*
G37*
G36*
X85494592Y-195838583D02*
G01*
X84105827Y-195838583D01*
X84006782Y-195842407D01*
X83919343Y-195853546D01*
X83845609Y-195870569D01*
X83780532Y-195893379D01*
X83673110Y-195954188D01*
X83610136Y-196009431D01*
X83565945Y-196060451D01*
X83527982Y-196116229D01*
X83496962Y-196175740D01*
X83473078Y-196238821D01*
X83457108Y-196303381D01*
X83448892Y-196370299D01*
X83447837Y-196404616D01*
X83451690Y-196472586D01*
X83463030Y-196537920D01*
X83507489Y-196660632D01*
X83579690Y-196769918D01*
X83607450Y-196800533D01*
X83656158Y-196844731D01*
X83712208Y-196883348D01*
X83769736Y-196912712D01*
X83835085Y-196936636D01*
X83907452Y-196954342D01*
X83989021Y-196965988D01*
X84105827Y-196971381D01*
X84875803Y-196971381D01*
X84933313Y-196975293D01*
X84974589Y-196987041D01*
X85010136Y-197012903D01*
X85042018Y-197065446D01*
X85049337Y-197112676D01*
X85045532Y-197145618D01*
X85034529Y-197175289D01*
X85018563Y-197198527D01*
X84995937Y-197219276D01*
X84965168Y-197234224D01*
X84875803Y-197245666D01*
X83498151Y-197245666D01*
X83498151Y-197730000D01*
X84965318Y-197730000D01*
X85049857Y-197726162D01*
X85127201Y-197714927D01*
X85196151Y-197697208D01*
X85258881Y-197673219D01*
X85367134Y-197607858D01*
X85444156Y-197534117D01*
X85519944Y-197422234D01*
X85547670Y-197360487D01*
X85567974Y-197295741D01*
X85579991Y-197231242D01*
X85584107Y-197165310D01*
X85569026Y-197039721D01*
X85523865Y-196917838D01*
X85449916Y-196806404D01*
X85421808Y-196775376D01*
X85372307Y-196730374D01*
X85316275Y-196691170D01*
X85258438Y-196660803D01*
X85194081Y-196636435D01*
X85125004Y-196619031D01*
X85048915Y-196608236D01*
X84965318Y-196604528D01*
X84133793Y-196604528D01*
X84077155Y-196600450D01*
X84039956Y-196587531D01*
X84024616Y-196576441D01*
X84003038Y-196554054D01*
X83987086Y-196526072D01*
X83976989Y-196475080D01*
X83980814Y-196440683D01*
X83991958Y-196409888D01*
X84016190Y-196376406D01*
X84040284Y-196358352D01*
X84073530Y-196345961D01*
X84133793Y-196339891D01*
X85494592Y-196339891D01*
X85494592Y-195838583D01*
G37*
G36*
X86053420Y-195838583D02*
G01*
X85990662Y-195842496D01*
X85936233Y-195854258D01*
X85895062Y-195871213D01*
X85860398Y-195894346D01*
X85833864Y-195921599D01*
X85813027Y-195954297D01*
X85788220Y-196037702D01*
X85784630Y-196093450D01*
X85784630Y-197466828D01*
X85788533Y-197526739D01*
X85800221Y-197578855D01*
X85817251Y-197618903D01*
X85840466Y-197652761D01*
X85901403Y-197700051D01*
X85987006Y-197725709D01*
X86050611Y-197730000D01*
X87775454Y-197730000D01*
X87775454Y-197245666D01*
X86336253Y-197245666D01*
X86314275Y-197241758D01*
X86299816Y-197230034D01*
X86291434Y-197195840D01*
X86291434Y-196968572D01*
X87767027Y-196968572D01*
X87767027Y-196604528D01*
X86291434Y-196604528D01*
X86291434Y-196387763D01*
X86295418Y-196363440D01*
X86307673Y-196347456D01*
X86336253Y-196339891D01*
X87775454Y-196339891D01*
X87775454Y-195838583D01*
X86053420Y-195838583D01*
G37*
G36*
X87928960Y-195838583D02*
G01*
X87928960Y-196339891D01*
X88760607Y-196339891D01*
X88760607Y-197730000D01*
X89270098Y-197730000D01*
X89270098Y-196339891D01*
X90098936Y-196339891D01*
X90098936Y-195838583D01*
X87928960Y-195838583D01*
G37*
G36*
X52841000Y-138239181D02*
G01*
X52941393Y-138245892D01*
X53035740Y-138259784D01*
X53124809Y-138280683D01*
X53208122Y-138308169D01*
X53287794Y-138342845D01*
X53361807Y-138383713D01*
X53433532Y-138432792D01*
X53499494Y-138487833D01*
X53569012Y-138559281D01*
X53670211Y-138698198D01*
X53744340Y-138851781D01*
X53789488Y-139015176D01*
X53804675Y-139184413D01*
X53804644Y-139192301D01*
X53799938Y-139281359D01*
X53787478Y-139367822D01*
X53767206Y-139452793D01*
X53739654Y-139534326D01*
X53704736Y-139612971D01*
X53663141Y-139687313D01*
X53615060Y-139757226D01*
X53561043Y-139822009D01*
X53470103Y-139909144D01*
X53334273Y-140002550D01*
X53259294Y-140040063D01*
X53178979Y-140071466D01*
X53093129Y-140096487D01*
X53001743Y-140114783D01*
X52903548Y-140126144D01*
X52799494Y-140130000D01*
X52401866Y-140130000D01*
X52258950Y-140122602D01*
X52164293Y-140108653D01*
X52075204Y-140087823D01*
X51990958Y-140060170D01*
X51912179Y-140026135D01*
X51837135Y-139985027D01*
X51767613Y-139937887D01*
X51701094Y-139882846D01*
X51640317Y-139822009D01*
X51629230Y-139809677D01*
X51529903Y-139673674D01*
X51456725Y-139521260D01*
X51411865Y-139356905D01*
X51396921Y-139187100D01*
X51903489Y-139187100D01*
X51913337Y-139279528D01*
X51929868Y-139336916D01*
X51953677Y-139390905D01*
X51984317Y-139441015D01*
X52021092Y-139486297D01*
X52047032Y-139512471D01*
X52137910Y-139575764D01*
X52192437Y-139599210D01*
X52253540Y-139616621D01*
X52323799Y-139627793D01*
X52401866Y-139631622D01*
X52799494Y-139631622D01*
X52845615Y-139630330D01*
X52916808Y-139622582D01*
X52980913Y-139608210D01*
X53038903Y-139587383D01*
X53090427Y-139560665D01*
X53138546Y-139526295D01*
X53180268Y-139486297D01*
X53238636Y-139407330D01*
X53282908Y-139300684D01*
X53297871Y-139187100D01*
X53297792Y-139178682D01*
X53292565Y-139118558D01*
X53279525Y-139060570D01*
X53258840Y-139004675D01*
X53231166Y-138952450D01*
X53157920Y-138862868D01*
X53152322Y-138857747D01*
X53061788Y-138794790D01*
X53009039Y-138771905D01*
X52949397Y-138754813D01*
X52879199Y-138743710D01*
X52799494Y-138739891D01*
X52401866Y-138739891D01*
X52263488Y-138752381D01*
X52201377Y-138768752D01*
X52146604Y-138791226D01*
X52091648Y-138823763D01*
X52043440Y-138862868D01*
X52034344Y-138871628D01*
X51995652Y-138915570D01*
X51963016Y-138964483D01*
X51918515Y-139072380D01*
X51903489Y-139187100D01*
X51396921Y-139187100D01*
X51396685Y-139184413D01*
X51400832Y-139095581D01*
X51413003Y-139009061D01*
X51432825Y-138925118D01*
X51460533Y-138842581D01*
X51495419Y-138763541D01*
X51537606Y-138687571D01*
X51586328Y-138616029D01*
X51701866Y-138487833D01*
X51735257Y-138458664D01*
X51870788Y-138365355D01*
X51945028Y-138328084D01*
X52024695Y-138296811D01*
X52109646Y-138271962D01*
X52200351Y-138253747D01*
X52297987Y-138242432D01*
X52401866Y-138238583D01*
X52799494Y-138238583D01*
X52841000Y-138239181D01*
G37*
G36*
X55547958Y-140130000D02*
G01*
X55662655Y-140126056D01*
X55765328Y-140114083D01*
X55846228Y-140096682D01*
X55918305Y-140072716D01*
X55976471Y-140045062D01*
X56027722Y-140011734D01*
X56070153Y-139974741D01*
X56106683Y-139932440D01*
X56162654Y-139831636D01*
X56198183Y-139701795D01*
X56211566Y-139525376D01*
X56211566Y-138238583D01*
X55701954Y-138238583D01*
X55701954Y-139469445D01*
X55698037Y-139517883D01*
X55686250Y-139558305D01*
X55669613Y-139586991D01*
X55646980Y-139609866D01*
X55585422Y-139638151D01*
X55514375Y-139645666D01*
X54727547Y-139645666D01*
X54675900Y-139641758D01*
X54633273Y-139630034D01*
X54603594Y-139613681D01*
X54580224Y-139591536D01*
X54552329Y-139532498D01*
X54545586Y-139469445D01*
X54545586Y-138238583D01*
X54035973Y-138238583D01*
X54035973Y-139525376D01*
X54039939Y-139626061D01*
X54052072Y-139716921D01*
X54069710Y-139788680D01*
X54094134Y-139853176D01*
X54122602Y-139905901D01*
X54157119Y-139952775D01*
X54196145Y-139992396D01*
X54241081Y-140026808D01*
X54350873Y-140080936D01*
X54495793Y-140116238D01*
X54699581Y-140130000D01*
X55547958Y-140130000D01*
G37*
G36*
X56395847Y-138238583D02*
G01*
X56395847Y-138739891D01*
X57227494Y-138739891D01*
X57227494Y-140130000D01*
X57736985Y-140130000D01*
X57736985Y-138739891D01*
X58565823Y-138739891D01*
X58565823Y-138238583D01*
X56395847Y-138238583D01*
G37*
G36*
X60304351Y-138249453D02*
G01*
X60386016Y-138264902D01*
X60460388Y-138286626D01*
X60529867Y-138315156D01*
X60592796Y-138349570D01*
X60654560Y-138393281D01*
X60710031Y-138443014D01*
X60784863Y-138531132D01*
X60859281Y-138661146D01*
X60904759Y-138801712D01*
X60919958Y-138946032D01*
X60918906Y-138983887D01*
X60910662Y-139058421D01*
X60894567Y-139131076D01*
X60870412Y-139202888D01*
X60838906Y-139271620D01*
X60800166Y-139337193D01*
X60754850Y-139398492D01*
X60716246Y-139441013D01*
X60607694Y-139530127D01*
X60546289Y-139565895D01*
X60478935Y-139596097D01*
X60405441Y-139620306D01*
X60325447Y-139638165D01*
X60237156Y-139649399D01*
X60141556Y-139653237D01*
X59270830Y-139653237D01*
X59270830Y-140130000D01*
X58764026Y-140130000D01*
X58764026Y-138778848D01*
X59270830Y-138778848D01*
X59270830Y-139188443D01*
X60152791Y-139188443D01*
X60222416Y-139183348D01*
X60268373Y-139172341D01*
X60306932Y-139155599D01*
X60342464Y-139130522D01*
X60371144Y-139099295D01*
X60401265Y-139046432D01*
X60412171Y-139007970D01*
X60415963Y-138965572D01*
X60406720Y-138897764D01*
X60391106Y-138858598D01*
X60368335Y-138823422D01*
X60336325Y-138792248D01*
X60302932Y-138770819D01*
X60262683Y-138754504D01*
X60212464Y-138743672D01*
X60152791Y-138739891D01*
X59307222Y-138739891D01*
X59285231Y-138745245D01*
X59274584Y-138757832D01*
X59270830Y-138778848D01*
X58764026Y-138778848D01*
X58764026Y-138356186D01*
X58777154Y-138292338D01*
X58792713Y-138270423D01*
X58814191Y-138254214D01*
X58846760Y-138242491D01*
X58887247Y-138238583D01*
X60141556Y-138238583D01*
X60304351Y-138249453D01*
G37*
G36*
X62625139Y-140130000D02*
G01*
X62739836Y-140126056D01*
X62842509Y-140114083D01*
X62923409Y-140096682D01*
X62995485Y-140072716D01*
X63053652Y-140045062D01*
X63104903Y-140011734D01*
X63147333Y-139974741D01*
X63183864Y-139932440D01*
X63239835Y-139831636D01*
X63275364Y-139701795D01*
X63288747Y-139525376D01*
X63288747Y-138238583D01*
X62779134Y-138238583D01*
X62779134Y-139469445D01*
X62775217Y-139517883D01*
X62763431Y-139558305D01*
X62746793Y-139586991D01*
X62724160Y-139609866D01*
X62662603Y-139638151D01*
X62591556Y-139645666D01*
X61804727Y-139645666D01*
X61753080Y-139641758D01*
X61710454Y-139630034D01*
X61680775Y-139613681D01*
X61657405Y-139591536D01*
X61629509Y-139532498D01*
X61622767Y-139469445D01*
X61622767Y-138238583D01*
X61113154Y-138238583D01*
X61113154Y-139525376D01*
X61117120Y-139626061D01*
X61129252Y-139716921D01*
X61146890Y-139788680D01*
X61171315Y-139853176D01*
X61199782Y-139905901D01*
X61234299Y-139952775D01*
X61273325Y-139992396D01*
X61318261Y-140026808D01*
X61428053Y-140080936D01*
X61572974Y-140116238D01*
X61776762Y-140130000D01*
X62625139Y-140130000D01*
G37*
G36*
X63473028Y-138238583D02*
G01*
X63473028Y-138739891D01*
X64304675Y-138739891D01*
X64304675Y-140130000D01*
X64814166Y-140130000D01*
X64814166Y-138739891D01*
X65643004Y-138739891D01*
X65643004Y-138238583D01*
X63473028Y-138238583D01*
G37*
G36*
X52841000Y-77989181D02*
G01*
X52941393Y-77995892D01*
X53035740Y-78009784D01*
X53124809Y-78030683D01*
X53208122Y-78058169D01*
X53287794Y-78092845D01*
X53361807Y-78133713D01*
X53433532Y-78182792D01*
X53499494Y-78237833D01*
X53569012Y-78309281D01*
X53670211Y-78448198D01*
X53744340Y-78601781D01*
X53789488Y-78765176D01*
X53804675Y-78934413D01*
X53804644Y-78942301D01*
X53799938Y-79031359D01*
X53787478Y-79117822D01*
X53767206Y-79202793D01*
X53739654Y-79284326D01*
X53704736Y-79362971D01*
X53663141Y-79437313D01*
X53615060Y-79507226D01*
X53561043Y-79572009D01*
X53470103Y-79659144D01*
X53334273Y-79752550D01*
X53259294Y-79790063D01*
X53178979Y-79821466D01*
X53093129Y-79846487D01*
X53001743Y-79864783D01*
X52903548Y-79876144D01*
X52799494Y-79880000D01*
X52401866Y-79880000D01*
X52258950Y-79872602D01*
X52164293Y-79858653D01*
X52075204Y-79837823D01*
X51990958Y-79810170D01*
X51912179Y-79776135D01*
X51837135Y-79735027D01*
X51767613Y-79687887D01*
X51701094Y-79632846D01*
X51640317Y-79572009D01*
X51629230Y-79559677D01*
X51529903Y-79423674D01*
X51456725Y-79271260D01*
X51411865Y-79106905D01*
X51396921Y-78937100D01*
X51903489Y-78937100D01*
X51913337Y-79029528D01*
X51929868Y-79086916D01*
X51953677Y-79140905D01*
X51984317Y-79191015D01*
X52021092Y-79236297D01*
X52047032Y-79262471D01*
X52137910Y-79325764D01*
X52192437Y-79349210D01*
X52253540Y-79366621D01*
X52323799Y-79377793D01*
X52401866Y-79381622D01*
X52799494Y-79381622D01*
X52845615Y-79380330D01*
X52916808Y-79372582D01*
X52980913Y-79358210D01*
X53038903Y-79337383D01*
X53090427Y-79310665D01*
X53138546Y-79276295D01*
X53180268Y-79236297D01*
X53238636Y-79157330D01*
X53282908Y-79050684D01*
X53297871Y-78937100D01*
X53297792Y-78928682D01*
X53292565Y-78868558D01*
X53279525Y-78810570D01*
X53258840Y-78754675D01*
X53231166Y-78702450D01*
X53157920Y-78612868D01*
X53152322Y-78607747D01*
X53061788Y-78544790D01*
X53009039Y-78521905D01*
X52949397Y-78504813D01*
X52879199Y-78493710D01*
X52799494Y-78489891D01*
X52401866Y-78489891D01*
X52263488Y-78502381D01*
X52201377Y-78518752D01*
X52146604Y-78541226D01*
X52091648Y-78573763D01*
X52043440Y-78612868D01*
X52034344Y-78621628D01*
X51995652Y-78665570D01*
X51963016Y-78714483D01*
X51918515Y-78822380D01*
X51903489Y-78937100D01*
X51396921Y-78937100D01*
X51396685Y-78934413D01*
X51400832Y-78845581D01*
X51413003Y-78759061D01*
X51432825Y-78675118D01*
X51460533Y-78592581D01*
X51495419Y-78513541D01*
X51537606Y-78437571D01*
X51586328Y-78366029D01*
X51701866Y-78237833D01*
X51735257Y-78208664D01*
X51870788Y-78115355D01*
X51945028Y-78078084D01*
X52024695Y-78046811D01*
X52109646Y-78021962D01*
X52200351Y-78003747D01*
X52297987Y-77992432D01*
X52401866Y-77988583D01*
X52799494Y-77988583D01*
X52841000Y-77989181D01*
G37*
G36*
X55547958Y-79880000D02*
G01*
X55662655Y-79876056D01*
X55765328Y-79864083D01*
X55846228Y-79846682D01*
X55918305Y-79822716D01*
X55976471Y-79795062D01*
X56027722Y-79761734D01*
X56070153Y-79724741D01*
X56106683Y-79682440D01*
X56162654Y-79581636D01*
X56198183Y-79451795D01*
X56211566Y-79275376D01*
X56211566Y-77988583D01*
X55701954Y-77988583D01*
X55701954Y-79219445D01*
X55698037Y-79267883D01*
X55686250Y-79308305D01*
X55669613Y-79336991D01*
X55646980Y-79359866D01*
X55585422Y-79388151D01*
X55514375Y-79395666D01*
X54727547Y-79395666D01*
X54675900Y-79391758D01*
X54633273Y-79380034D01*
X54603594Y-79363681D01*
X54580224Y-79341536D01*
X54552329Y-79282498D01*
X54545586Y-79219445D01*
X54545586Y-77988583D01*
X54035973Y-77988583D01*
X54035973Y-79275376D01*
X54039939Y-79376061D01*
X54052072Y-79466921D01*
X54069710Y-79538680D01*
X54094134Y-79603176D01*
X54122602Y-79655901D01*
X54157119Y-79702775D01*
X54196145Y-79742396D01*
X54241081Y-79776808D01*
X54350873Y-79830936D01*
X54495793Y-79866238D01*
X54699581Y-79880000D01*
X55547958Y-79880000D01*
G37*
G36*
X56395847Y-77988583D02*
G01*
X56395847Y-78489891D01*
X57227494Y-78489891D01*
X57227494Y-79880000D01*
X57736985Y-79880000D01*
X57736985Y-78489891D01*
X58565823Y-78489891D01*
X58565823Y-77988583D01*
X56395847Y-77988583D01*
G37*
G36*
X60304351Y-77999453D02*
G01*
X60386016Y-78014902D01*
X60460388Y-78036626D01*
X60529867Y-78065156D01*
X60592796Y-78099570D01*
X60654560Y-78143281D01*
X60710031Y-78193014D01*
X60784863Y-78281132D01*
X60859281Y-78411146D01*
X60904759Y-78551712D01*
X60919958Y-78696032D01*
X60918906Y-78733887D01*
X60910662Y-78808421D01*
X60894567Y-78881076D01*
X60870412Y-78952888D01*
X60838906Y-79021620D01*
X60800166Y-79087193D01*
X60754850Y-79148492D01*
X60716246Y-79191013D01*
X60607694Y-79280127D01*
X60546289Y-79315895D01*
X60478935Y-79346097D01*
X60405441Y-79370306D01*
X60325447Y-79388165D01*
X60237156Y-79399399D01*
X60141556Y-79403237D01*
X59270830Y-79403237D01*
X59270830Y-79880000D01*
X58764026Y-79880000D01*
X58764026Y-78528848D01*
X59270830Y-78528848D01*
X59270830Y-78938443D01*
X60152791Y-78938443D01*
X60222416Y-78933348D01*
X60268373Y-78922341D01*
X60306932Y-78905599D01*
X60342464Y-78880522D01*
X60371144Y-78849295D01*
X60401265Y-78796432D01*
X60412171Y-78757970D01*
X60415963Y-78715572D01*
X60406720Y-78647764D01*
X60391106Y-78608598D01*
X60368335Y-78573422D01*
X60336325Y-78542248D01*
X60302932Y-78520819D01*
X60262683Y-78504504D01*
X60212464Y-78493672D01*
X60152791Y-78489891D01*
X59307222Y-78489891D01*
X59285231Y-78495245D01*
X59274584Y-78507832D01*
X59270830Y-78528848D01*
X58764026Y-78528848D01*
X58764026Y-78106186D01*
X58777154Y-78042338D01*
X58792713Y-78020423D01*
X58814191Y-78004214D01*
X58846760Y-77992491D01*
X58887247Y-77988583D01*
X60141556Y-77988583D01*
X60304351Y-77999453D01*
G37*
G36*
X62625139Y-79880000D02*
G01*
X62739836Y-79876056D01*
X62842509Y-79864083D01*
X62923409Y-79846682D01*
X62995485Y-79822716D01*
X63053652Y-79795062D01*
X63104903Y-79761734D01*
X63147333Y-79724741D01*
X63183864Y-79682440D01*
X63239835Y-79581636D01*
X63275364Y-79451795D01*
X63288747Y-79275376D01*
X63288747Y-77988583D01*
X62779134Y-77988583D01*
X62779134Y-79219445D01*
X62775217Y-79267883D01*
X62763431Y-79308305D01*
X62746793Y-79336991D01*
X62724160Y-79359866D01*
X62662603Y-79388151D01*
X62591556Y-79395666D01*
X61804727Y-79395666D01*
X61753080Y-79391758D01*
X61710454Y-79380034D01*
X61680775Y-79363681D01*
X61657405Y-79341536D01*
X61629509Y-79282498D01*
X61622767Y-79219445D01*
X61622767Y-77988583D01*
X61113154Y-77988583D01*
X61113154Y-79275376D01*
X61117120Y-79376061D01*
X61129252Y-79466921D01*
X61146890Y-79538680D01*
X61171315Y-79603176D01*
X61199782Y-79655901D01*
X61234299Y-79702775D01*
X61273325Y-79742396D01*
X61318261Y-79776808D01*
X61428053Y-79830936D01*
X61572974Y-79866238D01*
X61776762Y-79880000D01*
X62625139Y-79880000D01*
G37*
G36*
X63473028Y-77988583D02*
G01*
X63473028Y-78489891D01*
X64304675Y-78489891D01*
X64304675Y-79880000D01*
X64814166Y-79880000D01*
X64814166Y-78489891D01*
X65643004Y-78489891D01*
X65643004Y-77988583D01*
X63473028Y-77988583D01*
G37*
G36*
X71526623Y-158569078D02*
G01*
X71588871Y-158565116D01*
X71648530Y-158553013D01*
X71700016Y-158534387D01*
X71747106Y-158508328D01*
X71785279Y-158477909D01*
X71818132Y-158440921D01*
X71845848Y-158395177D01*
X72419819Y-157203150D01*
X72440917Y-157183737D01*
X72456211Y-157180680D01*
X72474447Y-157184588D01*
X72489760Y-157196311D01*
X72501030Y-157231238D01*
X72501030Y-158530000D01*
X72988294Y-158530000D01*
X72988294Y-157141479D01*
X72984435Y-157055422D01*
X72973052Y-156978535D01*
X72955709Y-156913886D01*
X72932193Y-156856216D01*
X72903399Y-156805936D01*
X72869144Y-156761286D01*
X72811829Y-156706727D01*
X72758252Y-156669013D01*
X72698265Y-156637309D01*
X72637601Y-156614590D01*
X72571939Y-156599152D01*
X72481490Y-156591688D01*
X72415269Y-156595530D01*
X72354249Y-156606793D01*
X72298789Y-156624813D01*
X72247807Y-156649306D01*
X72155594Y-156718573D01*
X72072902Y-156818693D01*
X72002652Y-156945230D01*
X71574250Y-157876528D01*
X71560768Y-157899745D01*
X71543416Y-157910761D01*
X71526623Y-157912920D01*
X71503787Y-157908337D01*
X71486694Y-157891885D01*
X71479117Y-157876528D01*
X71050715Y-156945230D01*
X71006880Y-156860978D01*
X70957140Y-156785899D01*
X70911572Y-156732372D01*
X70860912Y-156686442D01*
X70811401Y-156652668D01*
X70757125Y-156625844D01*
X70701312Y-156607355D01*
X70640643Y-156595842D01*
X70571877Y-156591688D01*
X70446243Y-156606303D01*
X70331035Y-156648809D01*
X70241539Y-156706727D01*
X70196088Y-156748323D01*
X70156876Y-156795885D01*
X70126516Y-156845626D01*
X70101957Y-156901587D01*
X70071408Y-157032723D01*
X70065073Y-157141479D01*
X70065073Y-158530000D01*
X70552338Y-158530000D01*
X70552338Y-157231360D01*
X70555931Y-157209895D01*
X70565454Y-157194323D01*
X70597034Y-157180802D01*
X70628547Y-157195068D01*
X70633549Y-157203272D01*
X71207519Y-158395422D01*
X71260812Y-158470894D01*
X71336011Y-158526006D01*
X71433070Y-158559874D01*
X71526623Y-158569078D01*
G37*
G36*
X74761986Y-158530000D02*
G01*
X74876682Y-158526056D01*
X74979355Y-158514083D01*
X75060255Y-158496682D01*
X75132332Y-158472716D01*
X75190498Y-158445062D01*
X75241749Y-158411734D01*
X75284180Y-158374741D01*
X75320710Y-158332440D01*
X75376681Y-158231636D01*
X75412210Y-158101795D01*
X75425593Y-157925376D01*
X75425593Y-156638583D01*
X74915981Y-156638583D01*
X74915981Y-157869445D01*
X74912064Y-157917883D01*
X74900277Y-157958305D01*
X74883640Y-157986991D01*
X74861007Y-158009866D01*
X74799449Y-158038151D01*
X74728402Y-158045666D01*
X73941574Y-158045666D01*
X73889927Y-158041758D01*
X73847300Y-158030034D01*
X73817622Y-158013681D01*
X73794251Y-157991536D01*
X73766356Y-157932498D01*
X73759613Y-157869445D01*
X73759613Y-156638583D01*
X73250000Y-156638583D01*
X73250000Y-157925376D01*
X73253966Y-158026061D01*
X73266099Y-158116921D01*
X73283737Y-158188680D01*
X73308161Y-158253176D01*
X73336629Y-158305901D01*
X73371146Y-158352775D01*
X73410172Y-158392396D01*
X73455108Y-158426808D01*
X73564900Y-158480936D01*
X73709820Y-158516238D01*
X73913608Y-158530000D01*
X74761986Y-158530000D01*
G37*
G36*
X75609875Y-156638583D02*
G01*
X75609875Y-157139891D01*
X76441521Y-157139891D01*
X76441521Y-158530000D01*
X76951012Y-158530000D01*
X76951012Y-157139891D01*
X77779850Y-157139891D01*
X77779850Y-156638583D01*
X75609875Y-156638583D01*
G37*
G36*
X78244034Y-156638583D02*
G01*
X78181276Y-156642496D01*
X78126847Y-156654258D01*
X78085676Y-156671213D01*
X78051013Y-156694346D01*
X78024479Y-156721599D01*
X78003641Y-156754297D01*
X77978834Y-156837702D01*
X77975244Y-156893450D01*
X77975244Y-158266828D01*
X77979147Y-158326739D01*
X77990835Y-158378855D01*
X78007865Y-158418903D01*
X78031080Y-158452761D01*
X78092017Y-158500051D01*
X78177620Y-158525709D01*
X78241225Y-158530000D01*
X79966068Y-158530000D01*
X79966068Y-158045666D01*
X78526867Y-158045666D01*
X78504889Y-158041758D01*
X78490430Y-158030034D01*
X78482048Y-157995840D01*
X78482048Y-157768572D01*
X79957642Y-157768572D01*
X79957642Y-157404528D01*
X78482048Y-157404528D01*
X78482048Y-157187763D01*
X78486032Y-157163440D01*
X78498287Y-157147456D01*
X78526867Y-157139891D01*
X79966068Y-157139891D01*
X79966068Y-156638583D01*
X78244034Y-156638583D01*
G37*
G36*
X58184072Y-218381622D02*
G01*
X57192934Y-218381622D01*
X57114867Y-218377793D01*
X57044608Y-218366621D01*
X56983505Y-218349210D01*
X56928978Y-218325764D01*
X56838100Y-218262471D01*
X56812160Y-218236297D01*
X56775385Y-218191015D01*
X56744745Y-218140905D01*
X56720936Y-218086916D01*
X56704405Y-218029528D01*
X56694557Y-217937100D01*
X56709583Y-217822380D01*
X56754084Y-217714483D01*
X56786720Y-217665570D01*
X56825412Y-217621628D01*
X56834508Y-217612868D01*
X56882716Y-217573763D01*
X56937672Y-217541226D01*
X56992445Y-217518752D01*
X57054556Y-217502381D01*
X57192934Y-217489891D01*
X58184072Y-217489891D01*
X58184072Y-216988583D01*
X57192934Y-216988583D01*
X57089055Y-216992432D01*
X56991419Y-217003747D01*
X56900714Y-217021962D01*
X56815763Y-217046811D01*
X56736096Y-217078084D01*
X56661856Y-217115355D01*
X56526325Y-217208664D01*
X56492934Y-217237833D01*
X56377396Y-217366029D01*
X56328674Y-217437571D01*
X56286487Y-217513541D01*
X56251601Y-217592581D01*
X56223893Y-217675118D01*
X56204071Y-217759061D01*
X56191900Y-217845581D01*
X56187753Y-217934413D01*
X56202933Y-218106905D01*
X56247793Y-218271260D01*
X56320971Y-218423674D01*
X56420298Y-218559677D01*
X56431385Y-218572009D01*
X56492162Y-218632846D01*
X56558681Y-218687887D01*
X56628203Y-218735027D01*
X56703247Y-218776135D01*
X56782026Y-218810170D01*
X56866272Y-218837823D01*
X56955361Y-218858653D01*
X57050018Y-218872602D01*
X57192934Y-218880000D01*
X58184072Y-218880000D01*
X58184072Y-218381622D01*
G37*
G36*
X59049302Y-218572254D02*
G01*
X59085748Y-218643246D01*
X59127114Y-218705918D01*
X59170235Y-218756923D01*
X59217875Y-218800835D01*
X59268286Y-218836575D01*
X59323126Y-218865819D01*
X59447189Y-218905194D01*
X59598116Y-218919078D01*
X59681748Y-218915156D01*
X59758784Y-218903334D01*
X59824383Y-218885292D01*
X59884757Y-218860352D01*
X59938027Y-218829831D01*
X59986837Y-218792821D01*
X60072096Y-218698673D01*
X60143999Y-218572254D01*
X60821650Y-217072602D01*
X60852425Y-216988583D01*
X60261601Y-216988583D01*
X60239253Y-217055750D01*
X59679204Y-218362327D01*
X59661896Y-218392458D01*
X59641721Y-218410856D01*
X59600802Y-218421067D01*
X59573590Y-218416974D01*
X59549154Y-218403950D01*
X59519714Y-218362327D01*
X58954047Y-217055750D01*
X58934508Y-216988583D01*
X58335258Y-216988583D01*
X58366033Y-217072602D01*
X59049302Y-218572254D01*
G37*
G36*
X52841000Y-198489181D02*
G01*
X52941393Y-198495892D01*
X53035740Y-198509784D01*
X53124809Y-198530683D01*
X53208122Y-198558169D01*
X53287794Y-198592845D01*
X53361807Y-198633713D01*
X53433532Y-198682792D01*
X53499494Y-198737833D01*
X53569012Y-198809281D01*
X53670211Y-198948198D01*
X53744340Y-199101781D01*
X53789488Y-199265176D01*
X53804675Y-199434413D01*
X53804644Y-199442301D01*
X53799938Y-199531359D01*
X53787478Y-199617822D01*
X53767206Y-199702793D01*
X53739654Y-199784326D01*
X53704736Y-199862971D01*
X53663141Y-199937313D01*
X53615060Y-200007226D01*
X53561043Y-200072009D01*
X53470103Y-200159144D01*
X53334273Y-200252550D01*
X53259294Y-200290063D01*
X53178979Y-200321466D01*
X53093129Y-200346487D01*
X53001743Y-200364783D01*
X52903548Y-200376144D01*
X52799494Y-200380000D01*
X52401866Y-200380000D01*
X52258950Y-200372602D01*
X52164293Y-200358653D01*
X52075204Y-200337823D01*
X51990958Y-200310170D01*
X51912179Y-200276135D01*
X51837135Y-200235027D01*
X51767613Y-200187887D01*
X51701094Y-200132846D01*
X51640317Y-200072009D01*
X51629230Y-200059677D01*
X51529903Y-199923674D01*
X51456725Y-199771260D01*
X51411865Y-199606905D01*
X51396921Y-199437100D01*
X51903489Y-199437100D01*
X51913337Y-199529528D01*
X51929868Y-199586916D01*
X51953677Y-199640905D01*
X51984317Y-199691015D01*
X52021092Y-199736297D01*
X52047032Y-199762471D01*
X52137910Y-199825764D01*
X52192437Y-199849210D01*
X52253540Y-199866621D01*
X52323799Y-199877793D01*
X52401866Y-199881622D01*
X52799494Y-199881622D01*
X52845615Y-199880330D01*
X52916808Y-199872582D01*
X52980913Y-199858210D01*
X53038903Y-199837383D01*
X53090427Y-199810665D01*
X53138546Y-199776295D01*
X53180268Y-199736297D01*
X53238636Y-199657330D01*
X53282908Y-199550684D01*
X53297871Y-199437100D01*
X53297792Y-199428682D01*
X53292565Y-199368558D01*
X53279525Y-199310570D01*
X53258840Y-199254675D01*
X53231166Y-199202450D01*
X53157920Y-199112868D01*
X53152322Y-199107747D01*
X53061788Y-199044790D01*
X53009039Y-199021905D01*
X52949397Y-199004813D01*
X52879199Y-198993710D01*
X52799494Y-198989891D01*
X52401866Y-198989891D01*
X52263488Y-199002381D01*
X52201377Y-199018752D01*
X52146604Y-199041226D01*
X52091648Y-199073763D01*
X52043440Y-199112868D01*
X52034344Y-199121628D01*
X51995652Y-199165570D01*
X51963016Y-199214483D01*
X51918515Y-199322380D01*
X51903489Y-199437100D01*
X51396921Y-199437100D01*
X51396685Y-199434413D01*
X51400832Y-199345581D01*
X51413003Y-199259061D01*
X51432825Y-199175118D01*
X51460533Y-199092581D01*
X51495419Y-199013541D01*
X51537606Y-198937571D01*
X51586328Y-198866029D01*
X51701866Y-198737833D01*
X51735257Y-198708664D01*
X51870788Y-198615355D01*
X51945028Y-198578084D01*
X52024695Y-198546811D01*
X52109646Y-198521962D01*
X52200351Y-198503747D01*
X52297987Y-198492432D01*
X52401866Y-198488583D01*
X52799494Y-198488583D01*
X52841000Y-198489181D01*
G37*
G36*
X55547958Y-200380000D02*
G01*
X55662655Y-200376056D01*
X55765328Y-200364083D01*
X55846228Y-200346682D01*
X55918305Y-200322716D01*
X55976471Y-200295062D01*
X56027722Y-200261734D01*
X56070153Y-200224741D01*
X56106683Y-200182440D01*
X56162654Y-200081636D01*
X56198183Y-199951795D01*
X56211566Y-199775376D01*
X56211566Y-198488583D01*
X55701954Y-198488583D01*
X55701954Y-199719445D01*
X55698037Y-199767883D01*
X55686250Y-199808305D01*
X55669613Y-199836991D01*
X55646980Y-199859866D01*
X55585422Y-199888151D01*
X55514375Y-199895666D01*
X54727547Y-199895666D01*
X54675900Y-199891758D01*
X54633273Y-199880034D01*
X54603594Y-199863681D01*
X54580224Y-199841536D01*
X54552329Y-199782498D01*
X54545586Y-199719445D01*
X54545586Y-198488583D01*
X54035973Y-198488583D01*
X54035973Y-199775376D01*
X54039939Y-199876061D01*
X54052072Y-199966921D01*
X54069710Y-200038680D01*
X54094134Y-200103176D01*
X54122602Y-200155901D01*
X54157119Y-200202775D01*
X54196145Y-200242396D01*
X54241081Y-200276808D01*
X54350873Y-200330936D01*
X54495793Y-200366238D01*
X54699581Y-200380000D01*
X55547958Y-200380000D01*
G37*
G36*
X56395847Y-198488583D02*
G01*
X56395847Y-198989891D01*
X57227494Y-198989891D01*
X57227494Y-200380000D01*
X57736985Y-200380000D01*
X57736985Y-198989891D01*
X58565823Y-198989891D01*
X58565823Y-198488583D01*
X56395847Y-198488583D01*
G37*
G36*
X60304351Y-198499453D02*
G01*
X60386016Y-198514902D01*
X60460388Y-198536626D01*
X60529867Y-198565156D01*
X60592796Y-198599570D01*
X60654560Y-198643281D01*
X60710031Y-198693014D01*
X60784863Y-198781132D01*
X60859281Y-198911146D01*
X60904759Y-199051712D01*
X60919958Y-199196032D01*
X60918906Y-199233887D01*
X60910662Y-199308421D01*
X60894567Y-199381076D01*
X60870412Y-199452888D01*
X60838906Y-199521620D01*
X60800166Y-199587193D01*
X60754850Y-199648492D01*
X60716246Y-199691013D01*
X60607694Y-199780127D01*
X60546289Y-199815895D01*
X60478935Y-199846097D01*
X60405441Y-199870306D01*
X60325447Y-199888165D01*
X60237156Y-199899399D01*
X60141556Y-199903237D01*
X59270830Y-199903237D01*
X59270830Y-200380000D01*
X58764026Y-200380000D01*
X58764026Y-199028848D01*
X59270830Y-199028848D01*
X59270830Y-199438443D01*
X60152791Y-199438443D01*
X60222416Y-199433348D01*
X60268373Y-199422341D01*
X60306932Y-199405599D01*
X60342464Y-199380522D01*
X60371144Y-199349295D01*
X60401265Y-199296432D01*
X60412171Y-199257970D01*
X60415963Y-199215572D01*
X60406720Y-199147764D01*
X60391106Y-199108598D01*
X60368335Y-199073422D01*
X60336325Y-199042248D01*
X60302932Y-199020819D01*
X60262683Y-199004504D01*
X60212464Y-198993672D01*
X60152791Y-198989891D01*
X59307222Y-198989891D01*
X59285231Y-198995245D01*
X59274584Y-199007832D01*
X59270830Y-199028848D01*
X58764026Y-199028848D01*
X58764026Y-198606186D01*
X58777154Y-198542338D01*
X58792713Y-198520423D01*
X58814191Y-198504214D01*
X58846760Y-198492491D01*
X58887247Y-198488583D01*
X60141556Y-198488583D01*
X60304351Y-198499453D01*
G37*
G36*
X62625139Y-200380000D02*
G01*
X62739836Y-200376056D01*
X62842509Y-200364083D01*
X62923409Y-200346682D01*
X62995485Y-200322716D01*
X63053652Y-200295062D01*
X63104903Y-200261734D01*
X63147333Y-200224741D01*
X63183864Y-200182440D01*
X63239835Y-200081636D01*
X63275364Y-199951795D01*
X63288747Y-199775376D01*
X63288747Y-198488583D01*
X62779134Y-198488583D01*
X62779134Y-199719445D01*
X62775217Y-199767883D01*
X62763431Y-199808305D01*
X62746793Y-199836991D01*
X62724160Y-199859866D01*
X62662603Y-199888151D01*
X62591556Y-199895666D01*
X61804727Y-199895666D01*
X61753080Y-199891758D01*
X61710454Y-199880034D01*
X61680775Y-199863681D01*
X61657405Y-199841536D01*
X61629509Y-199782498D01*
X61622767Y-199719445D01*
X61622767Y-198488583D01*
X61113154Y-198488583D01*
X61113154Y-199775376D01*
X61117120Y-199876061D01*
X61129252Y-199966921D01*
X61146890Y-200038680D01*
X61171315Y-200103176D01*
X61199782Y-200155901D01*
X61234299Y-200202775D01*
X61273325Y-200242396D01*
X61318261Y-200276808D01*
X61428053Y-200330936D01*
X61572974Y-200366238D01*
X61776762Y-200380000D01*
X62625139Y-200380000D01*
G37*
G36*
X63473028Y-198488583D02*
G01*
X63473028Y-198989891D01*
X64304675Y-198989891D01*
X64304675Y-200380000D01*
X64814166Y-200380000D01*
X64814166Y-198989891D01*
X65643004Y-198989891D01*
X65643004Y-198488583D01*
X63473028Y-198488583D01*
G37*
G36*
X58184072Y-158131622D02*
G01*
X57192934Y-158131622D01*
X57114867Y-158127793D01*
X57044608Y-158116621D01*
X56983505Y-158099210D01*
X56928978Y-158075764D01*
X56838100Y-158012471D01*
X56812160Y-157986297D01*
X56775385Y-157941015D01*
X56744745Y-157890905D01*
X56720936Y-157836916D01*
X56704405Y-157779528D01*
X56694557Y-157687100D01*
X56709583Y-157572380D01*
X56754084Y-157464483D01*
X56786720Y-157415570D01*
X56825412Y-157371628D01*
X56834508Y-157362868D01*
X56882716Y-157323763D01*
X56937672Y-157291226D01*
X56992445Y-157268752D01*
X57054556Y-157252381D01*
X57192934Y-157239891D01*
X58184072Y-157239891D01*
X58184072Y-156738583D01*
X57192934Y-156738583D01*
X57089055Y-156742432D01*
X56991419Y-156753747D01*
X56900714Y-156771962D01*
X56815763Y-156796811D01*
X56736096Y-156828084D01*
X56661856Y-156865355D01*
X56526325Y-156958664D01*
X56492934Y-156987833D01*
X56377396Y-157116029D01*
X56328674Y-157187571D01*
X56286487Y-157263541D01*
X56251601Y-157342581D01*
X56223893Y-157425118D01*
X56204071Y-157509061D01*
X56191900Y-157595581D01*
X56187753Y-157684413D01*
X56202933Y-157856905D01*
X56247793Y-158021260D01*
X56320971Y-158173674D01*
X56420298Y-158309677D01*
X56431385Y-158322009D01*
X56492162Y-158382846D01*
X56558681Y-158437887D01*
X56628203Y-158485027D01*
X56703247Y-158526135D01*
X56782026Y-158560170D01*
X56866272Y-158587823D01*
X56955361Y-158608653D01*
X57050018Y-158622602D01*
X57192934Y-158630000D01*
X58184072Y-158630000D01*
X58184072Y-158131622D01*
G37*
G36*
X59049302Y-158322254D02*
G01*
X59085748Y-158393246D01*
X59127114Y-158455918D01*
X59170235Y-158506923D01*
X59217875Y-158550835D01*
X59268286Y-158586575D01*
X59323126Y-158615819D01*
X59447189Y-158655194D01*
X59598116Y-158669078D01*
X59681748Y-158665156D01*
X59758784Y-158653334D01*
X59824383Y-158635292D01*
X59884757Y-158610352D01*
X59938027Y-158579831D01*
X59986837Y-158542821D01*
X60072096Y-158448673D01*
X60143999Y-158322254D01*
X60821650Y-156822602D01*
X60852425Y-156738583D01*
X60261601Y-156738583D01*
X60239253Y-156805750D01*
X59679204Y-158112327D01*
X59661896Y-158142458D01*
X59641721Y-158160856D01*
X59600802Y-158171067D01*
X59573590Y-158166974D01*
X59549154Y-158153950D01*
X59519714Y-158112327D01*
X58954047Y-156805750D01*
X58934508Y-156738583D01*
X58335258Y-156738583D01*
X58366033Y-156822602D01*
X59049302Y-158322254D01*
G37*
G36*
X53392515Y-179988583D02*
G01*
X53392515Y-181880000D01*
X53902128Y-181880000D01*
X53902128Y-179988583D01*
X53392515Y-179988583D01*
G37*
G36*
X56534089Y-179988583D02*
G01*
X56038520Y-179988583D01*
X56038520Y-181211385D01*
X56034857Y-181235490D01*
X56024841Y-181251795D01*
X55999319Y-181261699D01*
X55974452Y-181257852D01*
X55951692Y-181239351D01*
X55027721Y-180134152D01*
X54974423Y-180074903D01*
X54920380Y-180027972D01*
X54871744Y-179996457D01*
X54820419Y-179972763D01*
X54707120Y-179946323D01*
X54618981Y-179941688D01*
X54541934Y-179945687D01*
X54470200Y-179958050D01*
X54412089Y-179976278D01*
X54359214Y-180001778D01*
X54316239Y-180031497D01*
X54278392Y-180067778D01*
X54247560Y-180108554D01*
X54222041Y-180155736D01*
X54188371Y-180269745D01*
X54179344Y-180384989D01*
X54179344Y-181880000D01*
X54677721Y-181880000D01*
X54677721Y-180595282D01*
X54681353Y-180573526D01*
X54691144Y-180557092D01*
X54724003Y-180542056D01*
X54725349Y-180542037D01*
X54744053Y-180545945D01*
X54761153Y-180557669D01*
X54770167Y-180567316D01*
X55808932Y-181770701D01*
X55849925Y-181812155D01*
X55894959Y-181846419D01*
X55995825Y-181893814D01*
X56119251Y-181916861D01*
X56178471Y-181919078D01*
X56235556Y-181915120D01*
X56290662Y-181903044D01*
X56339462Y-181884140D01*
X56384741Y-181857626D01*
X56423105Y-181825753D01*
X56456932Y-181786818D01*
X56484411Y-181742745D01*
X56506465Y-181691839D01*
X56522304Y-181634740D01*
X56531665Y-181570646D01*
X56534089Y-181513513D01*
X56534089Y-179988583D01*
G37*
G36*
X58353339Y-179999453D02*
G01*
X58435004Y-180014902D01*
X58509376Y-180036626D01*
X58578855Y-180065156D01*
X58641785Y-180099570D01*
X58703549Y-180143281D01*
X58759019Y-180193014D01*
X58833852Y-180281132D01*
X58908270Y-180411146D01*
X58953748Y-180551712D01*
X58968946Y-180696032D01*
X58967894Y-180733887D01*
X58959650Y-180808421D01*
X58943556Y-180881076D01*
X58919400Y-180952888D01*
X58887895Y-181021620D01*
X58849155Y-181087193D01*
X58803838Y-181148492D01*
X58765235Y-181191013D01*
X58656682Y-181280127D01*
X58595277Y-181315895D01*
X58527923Y-181346097D01*
X58454430Y-181370306D01*
X58374435Y-181388165D01*
X58286145Y-181399399D01*
X58190544Y-181403237D01*
X57319818Y-181403237D01*
X57319818Y-181880000D01*
X56813014Y-181880000D01*
X56813014Y-180528848D01*
X57319818Y-180528848D01*
X57319818Y-180938443D01*
X58201779Y-180938443D01*
X58271404Y-180933348D01*
X58317361Y-180922341D01*
X58355920Y-180905599D01*
X58391452Y-180880522D01*
X58420132Y-180849295D01*
X58450253Y-180796432D01*
X58461160Y-180757970D01*
X58464951Y-180715572D01*
X58455708Y-180647764D01*
X58440094Y-180608598D01*
X58417324Y-180573422D01*
X58385313Y-180542248D01*
X58351921Y-180520819D01*
X58311672Y-180504504D01*
X58261452Y-180493672D01*
X58201779Y-180489891D01*
X57356210Y-180489891D01*
X57334220Y-180495245D01*
X57323572Y-180507832D01*
X57319818Y-180528848D01*
X56813014Y-180528848D01*
X56813014Y-180106186D01*
X56826142Y-180042338D01*
X56841701Y-180020423D01*
X56863179Y-180004214D01*
X56895748Y-179992491D01*
X56936235Y-179988583D01*
X58190544Y-179988583D01*
X58353339Y-179999453D01*
G37*
G36*
X60674127Y-181880000D02*
G01*
X60788824Y-181876056D01*
X60891497Y-181864083D01*
X60972397Y-181846682D01*
X61044474Y-181822716D01*
X61102640Y-181795062D01*
X61153891Y-181761734D01*
X61196322Y-181724741D01*
X61232852Y-181682440D01*
X61288823Y-181581636D01*
X61324352Y-181451795D01*
X61337735Y-181275376D01*
X61337735Y-179988583D01*
X60828123Y-179988583D01*
X60828123Y-181219445D01*
X60824206Y-181267883D01*
X60812419Y-181308305D01*
X60795782Y-181336991D01*
X60773149Y-181359866D01*
X60711591Y-181388151D01*
X60640544Y-181395666D01*
X59853716Y-181395666D01*
X59802069Y-181391758D01*
X59759442Y-181380034D01*
X59729763Y-181363681D01*
X59706393Y-181341536D01*
X59678498Y-181282498D01*
X59671755Y-181219445D01*
X59671755Y-179988583D01*
X59162142Y-179988583D01*
X59162142Y-181275376D01*
X59166108Y-181376061D01*
X59178241Y-181466921D01*
X59195879Y-181538680D01*
X59220303Y-181603176D01*
X59248771Y-181655901D01*
X59283288Y-181702775D01*
X59322314Y-181742396D01*
X59367250Y-181776808D01*
X59477042Y-181830936D01*
X59621962Y-181866238D01*
X59825750Y-181880000D01*
X60674127Y-181880000D01*
G37*
G36*
X61522016Y-179988583D02*
G01*
X61522016Y-180489891D01*
X62353663Y-180489891D01*
X62353663Y-181880000D01*
X62863154Y-181880000D01*
X62863154Y-180489891D01*
X63691992Y-180489891D01*
X63691992Y-179988583D01*
X61522016Y-179988583D01*
G37*
G36*
X53392515Y-119738583D02*
G01*
X53392515Y-121630000D01*
X53902128Y-121630000D01*
X53902128Y-119738583D01*
X53392515Y-119738583D01*
G37*
G36*
X56534089Y-119738583D02*
G01*
X56038520Y-119738583D01*
X56038520Y-120961385D01*
X56034857Y-120985490D01*
X56024841Y-121001795D01*
X55999319Y-121011699D01*
X55974452Y-121007852D01*
X55951692Y-120989351D01*
X55027721Y-119884152D01*
X54974423Y-119824903D01*
X54920380Y-119777972D01*
X54871744Y-119746457D01*
X54820419Y-119722763D01*
X54707120Y-119696323D01*
X54618981Y-119691688D01*
X54541934Y-119695687D01*
X54470200Y-119708050D01*
X54412089Y-119726278D01*
X54359214Y-119751778D01*
X54316239Y-119781497D01*
X54278392Y-119817778D01*
X54247560Y-119858554D01*
X54222041Y-119905736D01*
X54188371Y-120019745D01*
X54179344Y-120134989D01*
X54179344Y-121630000D01*
X54677721Y-121630000D01*
X54677721Y-120345282D01*
X54681353Y-120323526D01*
X54691144Y-120307092D01*
X54724003Y-120292056D01*
X54725349Y-120292037D01*
X54744053Y-120295945D01*
X54761153Y-120307669D01*
X54770167Y-120317316D01*
X55808932Y-121520701D01*
X55849925Y-121562155D01*
X55894959Y-121596419D01*
X55995825Y-121643814D01*
X56119251Y-121666861D01*
X56178471Y-121669078D01*
X56235556Y-121665120D01*
X56290662Y-121653044D01*
X56339462Y-121634140D01*
X56384741Y-121607626D01*
X56423105Y-121575753D01*
X56456932Y-121536818D01*
X56484411Y-121492745D01*
X56506465Y-121441839D01*
X56522304Y-121384740D01*
X56531665Y-121320646D01*
X56534089Y-121263513D01*
X56534089Y-119738583D01*
G37*
G36*
X58353339Y-119749453D02*
G01*
X58435004Y-119764902D01*
X58509376Y-119786626D01*
X58578855Y-119815156D01*
X58641785Y-119849570D01*
X58703549Y-119893281D01*
X58759019Y-119943014D01*
X58833852Y-120031132D01*
X58908270Y-120161146D01*
X58953748Y-120301712D01*
X58968946Y-120446032D01*
X58967894Y-120483887D01*
X58959650Y-120558421D01*
X58943556Y-120631076D01*
X58919400Y-120702888D01*
X58887895Y-120771620D01*
X58849155Y-120837193D01*
X58803838Y-120898492D01*
X58765235Y-120941013D01*
X58656682Y-121030127D01*
X58595277Y-121065895D01*
X58527923Y-121096097D01*
X58454430Y-121120306D01*
X58374435Y-121138165D01*
X58286145Y-121149399D01*
X58190544Y-121153237D01*
X57319818Y-121153237D01*
X57319818Y-121630000D01*
X56813014Y-121630000D01*
X56813014Y-120278848D01*
X57319818Y-120278848D01*
X57319818Y-120688443D01*
X58201779Y-120688443D01*
X58271404Y-120683348D01*
X58317361Y-120672341D01*
X58355920Y-120655599D01*
X58391452Y-120630522D01*
X58420132Y-120599295D01*
X58450253Y-120546432D01*
X58461160Y-120507970D01*
X58464951Y-120465572D01*
X58455708Y-120397764D01*
X58440094Y-120358598D01*
X58417324Y-120323422D01*
X58385313Y-120292248D01*
X58351921Y-120270819D01*
X58311672Y-120254504D01*
X58261452Y-120243672D01*
X58201779Y-120239891D01*
X57356210Y-120239891D01*
X57334220Y-120245245D01*
X57323572Y-120257832D01*
X57319818Y-120278848D01*
X56813014Y-120278848D01*
X56813014Y-119856186D01*
X56826142Y-119792338D01*
X56841701Y-119770423D01*
X56863179Y-119754214D01*
X56895748Y-119742491D01*
X56936235Y-119738583D01*
X58190544Y-119738583D01*
X58353339Y-119749453D01*
G37*
G36*
X60674127Y-121630000D02*
G01*
X60788824Y-121626056D01*
X60891497Y-121614083D01*
X60972397Y-121596682D01*
X61044474Y-121572716D01*
X61102640Y-121545062D01*
X61153891Y-121511734D01*
X61196322Y-121474741D01*
X61232852Y-121432440D01*
X61288823Y-121331636D01*
X61324352Y-121201795D01*
X61337735Y-121025376D01*
X61337735Y-119738583D01*
X60828123Y-119738583D01*
X60828123Y-120969445D01*
X60824206Y-121017883D01*
X60812419Y-121058305D01*
X60795782Y-121086991D01*
X60773149Y-121109866D01*
X60711591Y-121138151D01*
X60640544Y-121145666D01*
X59853716Y-121145666D01*
X59802069Y-121141758D01*
X59759442Y-121130034D01*
X59729763Y-121113681D01*
X59706393Y-121091536D01*
X59678498Y-121032498D01*
X59671755Y-120969445D01*
X59671755Y-119738583D01*
X59162142Y-119738583D01*
X59162142Y-121025376D01*
X59166108Y-121126061D01*
X59178241Y-121216921D01*
X59195879Y-121288680D01*
X59220303Y-121353176D01*
X59248771Y-121405901D01*
X59283288Y-121452775D01*
X59322314Y-121492396D01*
X59367250Y-121526808D01*
X59477042Y-121580936D01*
X59621962Y-121616238D01*
X59825750Y-121630000D01*
X60674127Y-121630000D01*
G37*
G36*
X61522016Y-119738583D02*
G01*
X61522016Y-120239891D01*
X62353663Y-120239891D01*
X62353663Y-121630000D01*
X62863154Y-121630000D01*
X62863154Y-120239891D01*
X63691992Y-120239891D01*
X63691992Y-119738583D01*
X61522016Y-119738583D01*
G37*
G36*
X77885069Y-75339181D02*
G01*
X77985462Y-75345892D01*
X78079809Y-75359784D01*
X78168878Y-75380683D01*
X78252191Y-75408169D01*
X78331863Y-75442845D01*
X78405876Y-75483713D01*
X78477601Y-75532792D01*
X78543563Y-75587833D01*
X78613081Y-75659281D01*
X78714280Y-75798198D01*
X78788409Y-75951781D01*
X78833557Y-76115176D01*
X78848744Y-76284413D01*
X78848713Y-76292301D01*
X78844007Y-76381359D01*
X78831547Y-76467822D01*
X78811275Y-76552793D01*
X78783723Y-76634326D01*
X78748805Y-76712971D01*
X78707210Y-76787313D01*
X78659129Y-76857226D01*
X78605112Y-76922009D01*
X78514172Y-77009144D01*
X78378342Y-77102550D01*
X78303363Y-77140063D01*
X78223048Y-77171466D01*
X78137198Y-77196487D01*
X78045812Y-77214783D01*
X77947617Y-77226144D01*
X77843563Y-77230000D01*
X77445935Y-77230000D01*
X77303019Y-77222602D01*
X77208362Y-77208653D01*
X77119273Y-77187823D01*
X77035027Y-77160170D01*
X76956248Y-77126135D01*
X76881204Y-77085027D01*
X76811682Y-77037887D01*
X76745163Y-76982846D01*
X76684386Y-76922009D01*
X76673299Y-76909677D01*
X76573972Y-76773674D01*
X76500794Y-76621260D01*
X76455934Y-76456905D01*
X76440990Y-76287100D01*
X76947558Y-76287100D01*
X76957406Y-76379528D01*
X76973937Y-76436916D01*
X76997746Y-76490905D01*
X77028386Y-76541015D01*
X77065161Y-76586297D01*
X77091101Y-76612471D01*
X77181979Y-76675764D01*
X77236506Y-76699210D01*
X77297609Y-76716621D01*
X77367868Y-76727793D01*
X77445935Y-76731622D01*
X77843563Y-76731622D01*
X77889684Y-76730330D01*
X77960877Y-76722582D01*
X78024982Y-76708210D01*
X78082972Y-76687383D01*
X78134496Y-76660665D01*
X78182615Y-76626295D01*
X78224337Y-76586297D01*
X78282705Y-76507330D01*
X78326977Y-76400684D01*
X78341940Y-76287100D01*
X78341861Y-76278682D01*
X78336634Y-76218558D01*
X78323594Y-76160570D01*
X78302909Y-76104675D01*
X78275235Y-76052450D01*
X78201989Y-75962868D01*
X78196391Y-75957747D01*
X78105857Y-75894790D01*
X78053108Y-75871905D01*
X77993466Y-75854813D01*
X77923268Y-75843710D01*
X77843563Y-75839891D01*
X77445935Y-75839891D01*
X77307557Y-75852381D01*
X77245446Y-75868752D01*
X77190673Y-75891226D01*
X77135717Y-75923763D01*
X77087509Y-75962868D01*
X77078413Y-75971628D01*
X77039721Y-76015570D01*
X77007085Y-76064483D01*
X76962584Y-76172380D01*
X76947558Y-76287100D01*
X76440990Y-76287100D01*
X76440754Y-76284413D01*
X76444901Y-76195581D01*
X76457072Y-76109061D01*
X76476894Y-76025118D01*
X76504602Y-75942581D01*
X76539488Y-75863541D01*
X76581675Y-75787571D01*
X76630397Y-75716029D01*
X76745935Y-75587833D01*
X76779326Y-75558664D01*
X76914857Y-75465355D01*
X76989097Y-75428084D01*
X77068764Y-75396811D01*
X77153715Y-75371962D01*
X77244420Y-75353747D01*
X77342056Y-75342432D01*
X77445935Y-75338583D01*
X77843563Y-75338583D01*
X77885069Y-75339181D01*
G37*
G36*
X79430042Y-75338583D02*
G01*
X79360613Y-75342505D01*
X79299012Y-75354325D01*
X79250567Y-75371655D01*
X79208416Y-75395428D01*
X79174708Y-75423541D01*
X79146528Y-75457389D01*
X79106865Y-75542285D01*
X79089045Y-75657647D01*
X79088468Y-75685896D01*
X79088468Y-77230000D01*
X79595272Y-77230000D01*
X79595272Y-76598387D01*
X81070866Y-76598387D01*
X81070866Y-76127976D01*
X79595272Y-76127976D01*
X79595272Y-75923789D01*
X79599215Y-75889951D01*
X79611180Y-75864801D01*
X79648302Y-75842457D01*
X79673674Y-75839891D01*
X81079292Y-75839891D01*
X81079292Y-75338583D01*
X79430042Y-75338583D01*
G37*
G36*
X81641905Y-75338583D02*
G01*
X81572476Y-75342505D01*
X81510876Y-75354325D01*
X81462431Y-75371655D01*
X81420280Y-75395428D01*
X81386571Y-75423541D01*
X81358391Y-75457389D01*
X81318728Y-75542285D01*
X81300908Y-75657647D01*
X81300332Y-75685896D01*
X81300332Y-77230000D01*
X81807136Y-77230000D01*
X81807136Y-76598387D01*
X83282729Y-76598387D01*
X83282729Y-76127976D01*
X81807136Y-76127976D01*
X81807136Y-75923789D01*
X81811078Y-75889951D01*
X81823043Y-75864801D01*
X81860165Y-75842457D01*
X81885538Y-75839891D01*
X83291155Y-75839891D01*
X83291155Y-75338583D01*
X81641905Y-75338583D01*
G37*
G36*
X85494592Y-75338583D02*
G01*
X84105827Y-75338583D01*
X84006782Y-75342407D01*
X83919343Y-75353546D01*
X83845609Y-75370569D01*
X83780532Y-75393379D01*
X83673110Y-75454188D01*
X83610136Y-75509431D01*
X83565945Y-75560451D01*
X83527982Y-75616229D01*
X83496962Y-75675740D01*
X83473078Y-75738821D01*
X83457108Y-75803381D01*
X83448892Y-75870299D01*
X83447837Y-75904616D01*
X83451690Y-75972586D01*
X83463030Y-76037920D01*
X83507489Y-76160632D01*
X83579690Y-76269918D01*
X83607450Y-76300533D01*
X83656158Y-76344731D01*
X83712208Y-76383348D01*
X83769736Y-76412712D01*
X83835085Y-76436636D01*
X83907452Y-76454342D01*
X83989021Y-76465988D01*
X84105827Y-76471381D01*
X84875803Y-76471381D01*
X84933313Y-76475293D01*
X84974589Y-76487041D01*
X85010136Y-76512903D01*
X85042018Y-76565446D01*
X85049337Y-76612676D01*
X85045532Y-76645618D01*
X85034529Y-76675289D01*
X85018563Y-76698527D01*
X84995937Y-76719276D01*
X84965168Y-76734224D01*
X84875803Y-76745666D01*
X83498151Y-76745666D01*
X83498151Y-77230000D01*
X84965318Y-77230000D01*
X85049857Y-77226162D01*
X85127201Y-77214927D01*
X85196151Y-77197208D01*
X85258881Y-77173219D01*
X85367134Y-77107858D01*
X85444156Y-77034117D01*
X85519944Y-76922234D01*
X85547670Y-76860487D01*
X85567974Y-76795741D01*
X85579991Y-76731242D01*
X85584107Y-76665310D01*
X85569026Y-76539721D01*
X85523865Y-76417838D01*
X85449916Y-76306404D01*
X85421808Y-76275376D01*
X85372307Y-76230374D01*
X85316275Y-76191170D01*
X85258438Y-76160803D01*
X85194081Y-76136435D01*
X85125004Y-76119031D01*
X85048915Y-76108236D01*
X84965318Y-76104528D01*
X84133793Y-76104528D01*
X84077155Y-76100450D01*
X84039956Y-76087531D01*
X84024616Y-76076441D01*
X84003038Y-76054054D01*
X83987086Y-76026072D01*
X83976989Y-75975080D01*
X83980814Y-75940683D01*
X83991958Y-75909888D01*
X84016190Y-75876406D01*
X84040284Y-75858352D01*
X84073530Y-75845961D01*
X84133793Y-75839891D01*
X85494592Y-75839891D01*
X85494592Y-75338583D01*
G37*
G36*
X86053420Y-75338583D02*
G01*
X85990662Y-75342496D01*
X85936233Y-75354258D01*
X85895062Y-75371213D01*
X85860398Y-75394346D01*
X85833864Y-75421599D01*
X85813027Y-75454297D01*
X85788220Y-75537702D01*
X85784630Y-75593450D01*
X85784630Y-76966828D01*
X85788533Y-77026739D01*
X85800221Y-77078855D01*
X85817251Y-77118903D01*
X85840466Y-77152761D01*
X85901403Y-77200051D01*
X85987006Y-77225709D01*
X86050611Y-77230000D01*
X87775454Y-77230000D01*
X87775454Y-76745666D01*
X86336253Y-76745666D01*
X86314275Y-76741758D01*
X86299816Y-76730034D01*
X86291434Y-76695840D01*
X86291434Y-76468572D01*
X87767027Y-76468572D01*
X87767027Y-76104528D01*
X86291434Y-76104528D01*
X86291434Y-75887763D01*
X86295418Y-75863440D01*
X86307673Y-75847456D01*
X86336253Y-75839891D01*
X87775454Y-75839891D01*
X87775454Y-75338583D01*
X86053420Y-75338583D01*
G37*
G36*
X87928960Y-75338583D02*
G01*
X87928960Y-75839891D01*
X88760607Y-75839891D01*
X88760607Y-77230000D01*
X89270098Y-77230000D01*
X89270098Y-75839891D01*
X90098936Y-75839891D01*
X90098936Y-75338583D01*
X87928960Y-75338583D01*
G37*
G36*
X71526623Y-218819078D02*
G01*
X71588871Y-218815116D01*
X71648530Y-218803013D01*
X71700016Y-218784387D01*
X71747106Y-218758328D01*
X71785279Y-218727909D01*
X71818132Y-218690921D01*
X71845848Y-218645177D01*
X72419819Y-217453150D01*
X72440917Y-217433737D01*
X72456211Y-217430680D01*
X72474447Y-217434588D01*
X72489760Y-217446311D01*
X72501030Y-217481238D01*
X72501030Y-218780000D01*
X72988294Y-218780000D01*
X72988294Y-217391479D01*
X72984435Y-217305422D01*
X72973052Y-217228535D01*
X72955709Y-217163886D01*
X72932193Y-217106216D01*
X72903399Y-217055936D01*
X72869144Y-217011286D01*
X72811829Y-216956727D01*
X72758252Y-216919013D01*
X72698265Y-216887309D01*
X72637601Y-216864590D01*
X72571939Y-216849152D01*
X72481490Y-216841688D01*
X72415269Y-216845530D01*
X72354249Y-216856793D01*
X72298789Y-216874813D01*
X72247807Y-216899306D01*
X72155594Y-216968573D01*
X72072902Y-217068693D01*
X72002652Y-217195230D01*
X71574250Y-218126528D01*
X71560768Y-218149745D01*
X71543416Y-218160761D01*
X71526623Y-218162920D01*
X71503787Y-218158337D01*
X71486694Y-218141885D01*
X71479117Y-218126528D01*
X71050715Y-217195230D01*
X71006880Y-217110978D01*
X70957140Y-217035899D01*
X70911572Y-216982372D01*
X70860912Y-216936442D01*
X70811401Y-216902668D01*
X70757125Y-216875844D01*
X70701312Y-216857355D01*
X70640643Y-216845842D01*
X70571877Y-216841688D01*
X70446243Y-216856303D01*
X70331035Y-216898809D01*
X70241539Y-216956727D01*
X70196088Y-216998323D01*
X70156876Y-217045885D01*
X70126516Y-217095626D01*
X70101957Y-217151587D01*
X70071408Y-217282723D01*
X70065073Y-217391479D01*
X70065073Y-218780000D01*
X70552338Y-218780000D01*
X70552338Y-217481360D01*
X70555931Y-217459895D01*
X70565454Y-217444323D01*
X70597034Y-217430802D01*
X70628547Y-217445068D01*
X70633549Y-217453272D01*
X71207519Y-218645422D01*
X71260812Y-218720894D01*
X71336011Y-218776006D01*
X71433070Y-218809874D01*
X71526623Y-218819078D01*
G37*
G36*
X74761986Y-218780000D02*
G01*
X74876682Y-218776056D01*
X74979355Y-218764083D01*
X75060255Y-218746682D01*
X75132332Y-218722716D01*
X75190498Y-218695062D01*
X75241749Y-218661734D01*
X75284180Y-218624741D01*
X75320710Y-218582440D01*
X75376681Y-218481636D01*
X75412210Y-218351795D01*
X75425593Y-218175376D01*
X75425593Y-216888583D01*
X74915981Y-216888583D01*
X74915981Y-218119445D01*
X74912064Y-218167883D01*
X74900277Y-218208305D01*
X74883640Y-218236991D01*
X74861007Y-218259866D01*
X74799449Y-218288151D01*
X74728402Y-218295666D01*
X73941574Y-218295666D01*
X73889927Y-218291758D01*
X73847300Y-218280034D01*
X73817622Y-218263681D01*
X73794251Y-218241536D01*
X73766356Y-218182498D01*
X73759613Y-218119445D01*
X73759613Y-216888583D01*
X73250000Y-216888583D01*
X73250000Y-218175376D01*
X73253966Y-218276061D01*
X73266099Y-218366921D01*
X73283737Y-218438680D01*
X73308161Y-218503176D01*
X73336629Y-218555901D01*
X73371146Y-218602775D01*
X73410172Y-218642396D01*
X73455108Y-218676808D01*
X73564900Y-218730936D01*
X73709820Y-218766238D01*
X73913608Y-218780000D01*
X74761986Y-218780000D01*
G37*
G36*
X75609875Y-216888583D02*
G01*
X75609875Y-217389891D01*
X76441521Y-217389891D01*
X76441521Y-218780000D01*
X76951012Y-218780000D01*
X76951012Y-217389891D01*
X77779850Y-217389891D01*
X77779850Y-216888583D01*
X75609875Y-216888583D01*
G37*
G36*
X78244034Y-216888583D02*
G01*
X78181276Y-216892496D01*
X78126847Y-216904258D01*
X78085676Y-216921213D01*
X78051013Y-216944346D01*
X78024479Y-216971599D01*
X78003641Y-217004297D01*
X77978834Y-217087702D01*
X77975244Y-217143450D01*
X77975244Y-218516828D01*
X77979147Y-218576739D01*
X77990835Y-218628855D01*
X78007865Y-218668903D01*
X78031080Y-218702761D01*
X78092017Y-218750051D01*
X78177620Y-218775709D01*
X78241225Y-218780000D01*
X79966068Y-218780000D01*
X79966068Y-218295666D01*
X78526867Y-218295666D01*
X78504889Y-218291758D01*
X78490430Y-218280034D01*
X78482048Y-218245840D01*
X78482048Y-218018572D01*
X79957642Y-218018572D01*
X79957642Y-217654528D01*
X78482048Y-217654528D01*
X78482048Y-217437763D01*
X78486032Y-217413440D01*
X78498287Y-217397456D01*
X78526867Y-217389891D01*
X79966068Y-217389891D01*
X79966068Y-216888583D01*
X78244034Y-216888583D01*
G37*
G36*
X71526623Y-98319078D02*
G01*
X71588871Y-98315116D01*
X71648530Y-98303013D01*
X71700016Y-98284387D01*
X71747106Y-98258328D01*
X71785279Y-98227909D01*
X71818132Y-98190921D01*
X71845848Y-98145177D01*
X72419819Y-96953150D01*
X72440917Y-96933737D01*
X72456211Y-96930680D01*
X72474447Y-96934588D01*
X72489760Y-96946311D01*
X72501030Y-96981238D01*
X72501030Y-98280000D01*
X72988294Y-98280000D01*
X72988294Y-96891479D01*
X72984435Y-96805422D01*
X72973052Y-96728535D01*
X72955709Y-96663886D01*
X72932193Y-96606216D01*
X72903399Y-96555936D01*
X72869144Y-96511286D01*
X72811829Y-96456727D01*
X72758252Y-96419013D01*
X72698265Y-96387309D01*
X72637601Y-96364590D01*
X72571939Y-96349152D01*
X72481490Y-96341688D01*
X72415269Y-96345530D01*
X72354249Y-96356793D01*
X72298789Y-96374813D01*
X72247807Y-96399306D01*
X72155594Y-96468573D01*
X72072902Y-96568693D01*
X72002652Y-96695230D01*
X71574250Y-97626528D01*
X71560768Y-97649745D01*
X71543416Y-97660761D01*
X71526623Y-97662920D01*
X71503787Y-97658337D01*
X71486694Y-97641885D01*
X71479117Y-97626528D01*
X71050715Y-96695230D01*
X71006880Y-96610978D01*
X70957140Y-96535899D01*
X70911572Y-96482372D01*
X70860912Y-96436442D01*
X70811401Y-96402668D01*
X70757125Y-96375844D01*
X70701312Y-96357355D01*
X70640643Y-96345842D01*
X70571877Y-96341688D01*
X70446243Y-96356303D01*
X70331035Y-96398809D01*
X70241539Y-96456727D01*
X70196088Y-96498323D01*
X70156876Y-96545885D01*
X70126516Y-96595626D01*
X70101957Y-96651587D01*
X70071408Y-96782723D01*
X70065073Y-96891479D01*
X70065073Y-98280000D01*
X70552338Y-98280000D01*
X70552338Y-96981360D01*
X70555931Y-96959895D01*
X70565454Y-96944323D01*
X70597034Y-96930802D01*
X70628547Y-96945068D01*
X70633549Y-96953272D01*
X71207519Y-98145422D01*
X71260812Y-98220894D01*
X71336011Y-98276006D01*
X71433070Y-98309874D01*
X71526623Y-98319078D01*
G37*
G36*
X74761986Y-98280000D02*
G01*
X74876682Y-98276056D01*
X74979355Y-98264083D01*
X75060255Y-98246682D01*
X75132332Y-98222716D01*
X75190498Y-98195062D01*
X75241749Y-98161734D01*
X75284180Y-98124741D01*
X75320710Y-98082440D01*
X75376681Y-97981636D01*
X75412210Y-97851795D01*
X75425593Y-97675376D01*
X75425593Y-96388583D01*
X74915981Y-96388583D01*
X74915981Y-97619445D01*
X74912064Y-97667883D01*
X74900277Y-97708305D01*
X74883640Y-97736991D01*
X74861007Y-97759866D01*
X74799449Y-97788151D01*
X74728402Y-97795666D01*
X73941574Y-97795666D01*
X73889927Y-97791758D01*
X73847300Y-97780034D01*
X73817622Y-97763681D01*
X73794251Y-97741536D01*
X73766356Y-97682498D01*
X73759613Y-97619445D01*
X73759613Y-96388583D01*
X73250000Y-96388583D01*
X73250000Y-97675376D01*
X73253966Y-97776061D01*
X73266099Y-97866921D01*
X73283737Y-97938680D01*
X73308161Y-98003176D01*
X73336629Y-98055901D01*
X73371146Y-98102775D01*
X73410172Y-98142396D01*
X73455108Y-98176808D01*
X73564900Y-98230936D01*
X73709820Y-98266238D01*
X73913608Y-98280000D01*
X74761986Y-98280000D01*
G37*
G36*
X75609875Y-96388583D02*
G01*
X75609875Y-96889891D01*
X76441521Y-96889891D01*
X76441521Y-98280000D01*
X76951012Y-98280000D01*
X76951012Y-96889891D01*
X77779850Y-96889891D01*
X77779850Y-96388583D01*
X75609875Y-96388583D01*
G37*
G36*
X78244034Y-96388583D02*
G01*
X78181276Y-96392496D01*
X78126847Y-96404258D01*
X78085676Y-96421213D01*
X78051013Y-96444346D01*
X78024479Y-96471599D01*
X78003641Y-96504297D01*
X77978834Y-96587702D01*
X77975244Y-96643450D01*
X77975244Y-98016828D01*
X77979147Y-98076739D01*
X77990835Y-98128855D01*
X78007865Y-98168903D01*
X78031080Y-98202761D01*
X78092017Y-98250051D01*
X78177620Y-98275709D01*
X78241225Y-98280000D01*
X79966068Y-98280000D01*
X79966068Y-97795666D01*
X78526867Y-97795666D01*
X78504889Y-97791758D01*
X78490430Y-97780034D01*
X78482048Y-97745840D01*
X78482048Y-97518572D01*
X79957642Y-97518572D01*
X79957642Y-97154528D01*
X78482048Y-97154528D01*
X78482048Y-96937763D01*
X78486032Y-96913440D01*
X78498287Y-96897456D01*
X78526867Y-96889891D01*
X79966068Y-96889891D01*
X79966068Y-96388583D01*
X78244034Y-96388583D01*
G37*
G36*
X77885069Y-135589181D02*
G01*
X77985462Y-135595892D01*
X78079809Y-135609784D01*
X78168878Y-135630683D01*
X78252191Y-135658169D01*
X78331863Y-135692845D01*
X78405876Y-135733713D01*
X78477601Y-135782792D01*
X78543563Y-135837833D01*
X78613081Y-135909281D01*
X78714280Y-136048198D01*
X78788409Y-136201781D01*
X78833557Y-136365176D01*
X78848744Y-136534413D01*
X78848713Y-136542301D01*
X78844007Y-136631359D01*
X78831547Y-136717822D01*
X78811275Y-136802793D01*
X78783723Y-136884326D01*
X78748805Y-136962971D01*
X78707210Y-137037313D01*
X78659129Y-137107226D01*
X78605112Y-137172009D01*
X78514172Y-137259144D01*
X78378342Y-137352550D01*
X78303363Y-137390063D01*
X78223048Y-137421466D01*
X78137198Y-137446487D01*
X78045812Y-137464783D01*
X77947617Y-137476144D01*
X77843563Y-137480000D01*
X77445935Y-137480000D01*
X77303019Y-137472602D01*
X77208362Y-137458653D01*
X77119273Y-137437823D01*
X77035027Y-137410170D01*
X76956248Y-137376135D01*
X76881204Y-137335027D01*
X76811682Y-137287887D01*
X76745163Y-137232846D01*
X76684386Y-137172009D01*
X76673299Y-137159677D01*
X76573972Y-137023674D01*
X76500794Y-136871260D01*
X76455934Y-136706905D01*
X76440990Y-136537100D01*
X76947558Y-136537100D01*
X76957406Y-136629528D01*
X76973937Y-136686916D01*
X76997746Y-136740905D01*
X77028386Y-136791015D01*
X77065161Y-136836297D01*
X77091101Y-136862471D01*
X77181979Y-136925764D01*
X77236506Y-136949210D01*
X77297609Y-136966621D01*
X77367868Y-136977793D01*
X77445935Y-136981622D01*
X77843563Y-136981622D01*
X77889684Y-136980330D01*
X77960877Y-136972582D01*
X78024982Y-136958210D01*
X78082972Y-136937383D01*
X78134496Y-136910665D01*
X78182615Y-136876295D01*
X78224337Y-136836297D01*
X78282705Y-136757330D01*
X78326977Y-136650684D01*
X78341940Y-136537100D01*
X78341861Y-136528682D01*
X78336634Y-136468558D01*
X78323594Y-136410570D01*
X78302909Y-136354675D01*
X78275235Y-136302450D01*
X78201989Y-136212868D01*
X78196391Y-136207747D01*
X78105857Y-136144790D01*
X78053108Y-136121905D01*
X77993466Y-136104813D01*
X77923268Y-136093710D01*
X77843563Y-136089891D01*
X77445935Y-136089891D01*
X77307557Y-136102381D01*
X77245446Y-136118752D01*
X77190673Y-136141226D01*
X77135717Y-136173763D01*
X77087509Y-136212868D01*
X77078413Y-136221628D01*
X77039721Y-136265570D01*
X77007085Y-136314483D01*
X76962584Y-136422380D01*
X76947558Y-136537100D01*
X76440990Y-136537100D01*
X76440754Y-136534413D01*
X76444901Y-136445581D01*
X76457072Y-136359061D01*
X76476894Y-136275118D01*
X76504602Y-136192581D01*
X76539488Y-136113541D01*
X76581675Y-136037571D01*
X76630397Y-135966029D01*
X76745935Y-135837833D01*
X76779326Y-135808664D01*
X76914857Y-135715355D01*
X76989097Y-135678084D01*
X77068764Y-135646811D01*
X77153715Y-135621962D01*
X77244420Y-135603747D01*
X77342056Y-135592432D01*
X77445935Y-135588583D01*
X77843563Y-135588583D01*
X77885069Y-135589181D01*
G37*
G36*
X79430042Y-135588583D02*
G01*
X79360613Y-135592505D01*
X79299012Y-135604325D01*
X79250567Y-135621655D01*
X79208416Y-135645428D01*
X79174708Y-135673541D01*
X79146528Y-135707389D01*
X79106865Y-135792285D01*
X79089045Y-135907647D01*
X79088468Y-135935896D01*
X79088468Y-137480000D01*
X79595272Y-137480000D01*
X79595272Y-136848387D01*
X81070866Y-136848387D01*
X81070866Y-136377976D01*
X79595272Y-136377976D01*
X79595272Y-136173789D01*
X79599215Y-136139951D01*
X79611180Y-136114801D01*
X79648302Y-136092457D01*
X79673674Y-136089891D01*
X81079292Y-136089891D01*
X81079292Y-135588583D01*
X79430042Y-135588583D01*
G37*
G36*
X81641905Y-135588583D02*
G01*
X81572476Y-135592505D01*
X81510876Y-135604325D01*
X81462431Y-135621655D01*
X81420280Y-135645428D01*
X81386571Y-135673541D01*
X81358391Y-135707389D01*
X81318728Y-135792285D01*
X81300908Y-135907647D01*
X81300332Y-135935896D01*
X81300332Y-137480000D01*
X81807136Y-137480000D01*
X81807136Y-136848387D01*
X83282729Y-136848387D01*
X83282729Y-136377976D01*
X81807136Y-136377976D01*
X81807136Y-136173789D01*
X81811078Y-136139951D01*
X81823043Y-136114801D01*
X81860165Y-136092457D01*
X81885538Y-136089891D01*
X83291155Y-136089891D01*
X83291155Y-135588583D01*
X81641905Y-135588583D01*
G37*
G36*
X85494592Y-135588583D02*
G01*
X84105827Y-135588583D01*
X84006782Y-135592407D01*
X83919343Y-135603546D01*
X83845609Y-135620569D01*
X83780532Y-135643379D01*
X83673110Y-135704188D01*
X83610136Y-135759431D01*
X83565945Y-135810451D01*
X83527982Y-135866229D01*
X83496962Y-135925740D01*
X83473078Y-135988821D01*
X83457108Y-136053381D01*
X83448892Y-136120299D01*
X83447837Y-136154616D01*
X83451690Y-136222586D01*
X83463030Y-136287920D01*
X83507489Y-136410632D01*
X83579690Y-136519918D01*
X83607450Y-136550533D01*
X83656158Y-136594731D01*
X83712208Y-136633348D01*
X83769736Y-136662712D01*
X83835085Y-136686636D01*
X83907452Y-136704342D01*
X83989021Y-136715988D01*
X84105827Y-136721381D01*
X84875803Y-136721381D01*
X84933313Y-136725293D01*
X84974589Y-136737041D01*
X85010136Y-136762903D01*
X85042018Y-136815446D01*
X85049337Y-136862676D01*
X85045532Y-136895618D01*
X85034529Y-136925289D01*
X85018563Y-136948527D01*
X84995937Y-136969276D01*
X84965168Y-136984224D01*
X84875803Y-136995666D01*
X83498151Y-136995666D01*
X83498151Y-137480000D01*
X84965318Y-137480000D01*
X85049857Y-137476162D01*
X85127201Y-137464927D01*
X85196151Y-137447208D01*
X85258881Y-137423219D01*
X85367134Y-137357858D01*
X85444156Y-137284117D01*
X85519944Y-137172234D01*
X85547670Y-137110487D01*
X85567974Y-137045741D01*
X85579991Y-136981242D01*
X85584107Y-136915310D01*
X85569026Y-136789721D01*
X85523865Y-136667838D01*
X85449916Y-136556404D01*
X85421808Y-136525376D01*
X85372307Y-136480374D01*
X85316275Y-136441170D01*
X85258438Y-136410803D01*
X85194081Y-136386435D01*
X85125004Y-136369031D01*
X85048915Y-136358236D01*
X84965318Y-136354528D01*
X84133793Y-136354528D01*
X84077155Y-136350450D01*
X84039956Y-136337531D01*
X84024616Y-136326441D01*
X84003038Y-136304054D01*
X83987086Y-136276072D01*
X83976989Y-136225080D01*
X83980814Y-136190683D01*
X83991958Y-136159888D01*
X84016190Y-136126406D01*
X84040284Y-136108352D01*
X84073530Y-136095961D01*
X84133793Y-136089891D01*
X85494592Y-136089891D01*
X85494592Y-135588583D01*
G37*
G36*
X86053420Y-135588583D02*
G01*
X85990662Y-135592496D01*
X85936233Y-135604258D01*
X85895062Y-135621213D01*
X85860398Y-135644346D01*
X85833864Y-135671599D01*
X85813027Y-135704297D01*
X85788220Y-135787702D01*
X85784630Y-135843450D01*
X85784630Y-137216828D01*
X85788533Y-137276739D01*
X85800221Y-137328855D01*
X85817251Y-137368903D01*
X85840466Y-137402761D01*
X85901403Y-137450051D01*
X85987006Y-137475709D01*
X86050611Y-137480000D01*
X87775454Y-137480000D01*
X87775454Y-136995666D01*
X86336253Y-136995666D01*
X86314275Y-136991758D01*
X86299816Y-136980034D01*
X86291434Y-136945840D01*
X86291434Y-136718572D01*
X87767027Y-136718572D01*
X87767027Y-136354528D01*
X86291434Y-136354528D01*
X86291434Y-136137763D01*
X86295418Y-136113440D01*
X86307673Y-136097456D01*
X86336253Y-136089891D01*
X87775454Y-136089891D01*
X87775454Y-135588583D01*
X86053420Y-135588583D01*
G37*
G36*
X87928960Y-135588583D02*
G01*
X87928960Y-136089891D01*
X88760607Y-136089891D01*
X88760607Y-137480000D01*
X89270098Y-137480000D01*
X89270098Y-136089891D01*
X90098936Y-136089891D01*
X90098936Y-135588583D01*
X87928960Y-135588583D01*
G37*
G36*
X53392515Y-59488583D02*
G01*
X53392515Y-61380000D01*
X53902128Y-61380000D01*
X53902128Y-59488583D01*
X53392515Y-59488583D01*
G37*
G36*
X56534089Y-59488583D02*
G01*
X56038520Y-59488583D01*
X56038520Y-60711385D01*
X56034857Y-60735490D01*
X56024841Y-60751795D01*
X55999319Y-60761699D01*
X55974452Y-60757852D01*
X55951692Y-60739351D01*
X55027721Y-59634152D01*
X54974423Y-59574903D01*
X54920380Y-59527972D01*
X54871744Y-59496457D01*
X54820419Y-59472763D01*
X54707120Y-59446323D01*
X54618981Y-59441688D01*
X54541934Y-59445687D01*
X54470200Y-59458050D01*
X54412089Y-59476278D01*
X54359214Y-59501778D01*
X54316239Y-59531497D01*
X54278392Y-59567778D01*
X54247560Y-59608554D01*
X54222041Y-59655736D01*
X54188371Y-59769745D01*
X54179344Y-59884989D01*
X54179344Y-61380000D01*
X54677721Y-61380000D01*
X54677721Y-60095282D01*
X54681353Y-60073526D01*
X54691144Y-60057092D01*
X54724003Y-60042056D01*
X54725349Y-60042037D01*
X54744053Y-60045945D01*
X54761153Y-60057669D01*
X54770167Y-60067316D01*
X55808932Y-61270701D01*
X55849925Y-61312155D01*
X55894959Y-61346419D01*
X55995825Y-61393814D01*
X56119251Y-61416861D01*
X56178471Y-61419078D01*
X56235556Y-61415120D01*
X56290662Y-61403044D01*
X56339462Y-61384140D01*
X56384741Y-61357626D01*
X56423105Y-61325753D01*
X56456932Y-61286818D01*
X56484411Y-61242745D01*
X56506465Y-61191839D01*
X56522304Y-61134740D01*
X56531665Y-61070646D01*
X56534089Y-61013513D01*
X56534089Y-59488583D01*
G37*
G36*
X58353339Y-59499453D02*
G01*
X58435004Y-59514902D01*
X58509376Y-59536626D01*
X58578855Y-59565156D01*
X58641785Y-59599570D01*
X58703549Y-59643281D01*
X58759019Y-59693014D01*
X58833852Y-59781132D01*
X58908270Y-59911146D01*
X58953748Y-60051712D01*
X58968946Y-60196032D01*
X58967894Y-60233887D01*
X58959650Y-60308421D01*
X58943556Y-60381076D01*
X58919400Y-60452888D01*
X58887895Y-60521620D01*
X58849155Y-60587193D01*
X58803838Y-60648492D01*
X58765235Y-60691013D01*
X58656682Y-60780127D01*
X58595277Y-60815895D01*
X58527923Y-60846097D01*
X58454430Y-60870306D01*
X58374435Y-60888165D01*
X58286145Y-60899399D01*
X58190544Y-60903237D01*
X57319818Y-60903237D01*
X57319818Y-61380000D01*
X56813014Y-61380000D01*
X56813014Y-60028848D01*
X57319818Y-60028848D01*
X57319818Y-60438443D01*
X58201779Y-60438443D01*
X58271404Y-60433348D01*
X58317361Y-60422341D01*
X58355920Y-60405599D01*
X58391452Y-60380522D01*
X58420132Y-60349295D01*
X58450253Y-60296432D01*
X58461160Y-60257970D01*
X58464951Y-60215572D01*
X58455708Y-60147764D01*
X58440094Y-60108598D01*
X58417324Y-60073422D01*
X58385313Y-60042248D01*
X58351921Y-60020819D01*
X58311672Y-60004504D01*
X58261452Y-59993672D01*
X58201779Y-59989891D01*
X57356210Y-59989891D01*
X57334220Y-59995245D01*
X57323572Y-60007832D01*
X57319818Y-60028848D01*
X56813014Y-60028848D01*
X56813014Y-59606186D01*
X56826142Y-59542338D01*
X56841701Y-59520423D01*
X56863179Y-59504214D01*
X56895748Y-59492491D01*
X56936235Y-59488583D01*
X58190544Y-59488583D01*
X58353339Y-59499453D01*
G37*
G36*
X60674127Y-61380000D02*
G01*
X60788824Y-61376056D01*
X60891497Y-61364083D01*
X60972397Y-61346682D01*
X61044474Y-61322716D01*
X61102640Y-61295062D01*
X61153891Y-61261734D01*
X61196322Y-61224741D01*
X61232852Y-61182440D01*
X61288823Y-61081636D01*
X61324352Y-60951795D01*
X61337735Y-60775376D01*
X61337735Y-59488583D01*
X60828123Y-59488583D01*
X60828123Y-60719445D01*
X60824206Y-60767883D01*
X60812419Y-60808305D01*
X60795782Y-60836991D01*
X60773149Y-60859866D01*
X60711591Y-60888151D01*
X60640544Y-60895666D01*
X59853716Y-60895666D01*
X59802069Y-60891758D01*
X59759442Y-60880034D01*
X59729763Y-60863681D01*
X59706393Y-60841536D01*
X59678498Y-60782498D01*
X59671755Y-60719445D01*
X59671755Y-59488583D01*
X59162142Y-59488583D01*
X59162142Y-60775376D01*
X59166108Y-60876061D01*
X59178241Y-60966921D01*
X59195879Y-61038680D01*
X59220303Y-61103176D01*
X59248771Y-61155901D01*
X59283288Y-61202775D01*
X59322314Y-61242396D01*
X59367250Y-61276808D01*
X59477042Y-61330936D01*
X59621962Y-61366238D01*
X59825750Y-61380000D01*
X60674127Y-61380000D01*
G37*
G36*
X61522016Y-59488583D02*
G01*
X61522016Y-59989891D01*
X62353663Y-59989891D01*
X62353663Y-61380000D01*
X62863154Y-61380000D01*
X62863154Y-59989891D01*
X63691992Y-59989891D01*
X63691992Y-59488583D01*
X61522016Y-59488583D01*
G37*
G36*
X85463050Y-218919078D02*
G01*
X85525298Y-218915116D01*
X85584957Y-218903013D01*
X85636443Y-218884387D01*
X85683533Y-218858328D01*
X85721706Y-218827909D01*
X85754559Y-218790921D01*
X85782275Y-218745177D01*
X86356246Y-217553150D01*
X86377344Y-217533737D01*
X86392638Y-217530680D01*
X86410874Y-217534588D01*
X86426187Y-217546311D01*
X86437457Y-217581238D01*
X86437457Y-218880000D01*
X86924721Y-218880000D01*
X86924721Y-217491479D01*
X86920862Y-217405422D01*
X86909479Y-217328535D01*
X86892136Y-217263886D01*
X86868620Y-217206216D01*
X86839826Y-217155936D01*
X86805571Y-217111286D01*
X86748256Y-217056727D01*
X86694679Y-217019013D01*
X86634692Y-216987309D01*
X86574028Y-216964590D01*
X86508366Y-216949152D01*
X86417917Y-216941688D01*
X86351696Y-216945530D01*
X86290676Y-216956793D01*
X86235216Y-216974813D01*
X86184234Y-216999306D01*
X86092021Y-217068573D01*
X86009329Y-217168693D01*
X85939079Y-217295230D01*
X85510677Y-218226528D01*
X85497195Y-218249745D01*
X85479843Y-218260761D01*
X85463050Y-218262920D01*
X85440214Y-218258337D01*
X85423121Y-218241885D01*
X85415544Y-218226528D01*
X84987142Y-217295230D01*
X84943307Y-217210978D01*
X84893567Y-217135899D01*
X84847999Y-217082372D01*
X84797339Y-217036442D01*
X84747828Y-217002668D01*
X84693552Y-216975844D01*
X84637739Y-216957355D01*
X84577070Y-216945842D01*
X84508304Y-216941688D01*
X84382670Y-216956303D01*
X84267462Y-216998809D01*
X84177966Y-217056727D01*
X84132515Y-217098323D01*
X84093303Y-217145885D01*
X84062943Y-217195626D01*
X84038384Y-217251587D01*
X84007835Y-217382723D01*
X84001500Y-217491479D01*
X84001500Y-218880000D01*
X84488765Y-218880000D01*
X84488765Y-217581360D01*
X84492358Y-217559895D01*
X84501881Y-217544323D01*
X84533461Y-217530802D01*
X84564974Y-217545068D01*
X84569976Y-217553272D01*
X85143946Y-218745422D01*
X85197239Y-218820894D01*
X85272438Y-218876006D01*
X85369497Y-218909874D01*
X85463050Y-218919078D01*
G37*
G36*
X87200471Y-216988583D02*
G01*
X87200471Y-218880000D01*
X87710084Y-218880000D01*
X87710084Y-216988583D01*
X87200471Y-216988583D01*
G37*
G36*
X89866138Y-216988583D02*
G01*
X89812893Y-217050254D01*
X89283741Y-217559378D01*
X88782554Y-217050254D01*
X88734927Y-216988583D01*
X88029309Y-216988583D01*
X88082554Y-217050254D01*
X88928123Y-217870055D01*
X87950907Y-218821259D01*
X87949362Y-218822813D01*
X87900471Y-218880000D01*
X88566888Y-218880000D01*
X88617324Y-218824068D01*
X89252844Y-218197341D01*
X89854902Y-218824068D01*
X89899721Y-218880000D01*
X90624878Y-218880000D01*
X90623987Y-218878760D01*
X90577251Y-218821259D01*
X89619697Y-217870055D01*
X90468074Y-217050254D01*
X90524128Y-216988583D01*
X89866138Y-216988583D01*
G37*
G36*
X93344141Y-216989181D02*
G01*
X93444534Y-216995892D01*
X93538881Y-217009784D01*
X93627950Y-217030683D01*
X93711263Y-217058169D01*
X93790934Y-217092845D01*
X93864947Y-217133713D01*
X93936673Y-217182792D01*
X94002634Y-217237833D01*
X94072153Y-217309281D01*
X94173352Y-217448198D01*
X94247481Y-217601781D01*
X94292629Y-217765176D01*
X94307816Y-217934413D01*
X94307785Y-217942301D01*
X94303079Y-218031359D01*
X94290619Y-218117822D01*
X94270347Y-218202793D01*
X94242794Y-218284326D01*
X94207877Y-218362971D01*
X94166281Y-218437313D01*
X94118200Y-218507226D01*
X94064184Y-218572009D01*
X93973244Y-218659144D01*
X93837414Y-218752550D01*
X93762435Y-218790063D01*
X93682120Y-218821466D01*
X93596269Y-218846487D01*
X93504884Y-218864783D01*
X93406688Y-218876144D01*
X93302634Y-218880000D01*
X92905007Y-218880000D01*
X92762090Y-218872602D01*
X92667434Y-218858653D01*
X92578345Y-218837823D01*
X92494099Y-218810170D01*
X92415320Y-218776135D01*
X92340276Y-218735027D01*
X92270754Y-218687887D01*
X92204235Y-218632846D01*
X92143458Y-218572009D01*
X92132371Y-218559677D01*
X92033043Y-218423674D01*
X91959865Y-218271260D01*
X91915006Y-218106905D01*
X91900062Y-217937100D01*
X92406630Y-217937100D01*
X92416478Y-218029528D01*
X92433009Y-218086916D01*
X92456818Y-218140905D01*
X92487458Y-218191015D01*
X92524233Y-218236297D01*
X92550173Y-218262471D01*
X92641051Y-218325764D01*
X92695578Y-218349210D01*
X92756681Y-218366621D01*
X92826940Y-218377793D01*
X92905007Y-218381622D01*
X93302634Y-218381622D01*
X93348756Y-218380330D01*
X93419948Y-218372582D01*
X93484054Y-218358210D01*
X93542044Y-218337383D01*
X93593568Y-218310665D01*
X93641687Y-218276295D01*
X93683409Y-218236297D01*
X93741777Y-218157330D01*
X93786048Y-218050684D01*
X93801012Y-217937100D01*
X93800932Y-217928682D01*
X93795706Y-217868558D01*
X93782666Y-217810570D01*
X93761981Y-217754675D01*
X93734307Y-217702450D01*
X93661061Y-217612868D01*
X93655463Y-217607747D01*
X93564929Y-217544790D01*
X93512180Y-217521905D01*
X93452538Y-217504813D01*
X93382340Y-217493710D01*
X93302634Y-217489891D01*
X92905007Y-217489891D01*
X92766629Y-217502381D01*
X92704518Y-217518752D01*
X92649745Y-217541226D01*
X92594789Y-217573763D01*
X92546581Y-217612868D01*
X92537485Y-217621628D01*
X92498792Y-217665570D01*
X92466156Y-217714483D01*
X92421655Y-217822380D01*
X92406630Y-217937100D01*
X91900062Y-217937100D01*
X91899826Y-217934413D01*
X91903973Y-217845581D01*
X91916143Y-217759061D01*
X91935966Y-217675118D01*
X91963674Y-217592581D01*
X91998560Y-217513541D01*
X92040747Y-217437571D01*
X92089469Y-217366029D01*
X92205007Y-217237833D01*
X92238398Y-217208664D01*
X92373929Y-217115355D01*
X92448169Y-217078084D01*
X92527836Y-217046811D01*
X92612787Y-217021962D01*
X92703492Y-217003747D01*
X92801127Y-216992432D01*
X92905007Y-216988583D01*
X93302634Y-216988583D01*
X93344141Y-216989181D01*
G37*
G36*
X96051099Y-218880000D02*
G01*
X96165796Y-218876056D01*
X96268469Y-218864083D01*
X96349369Y-218846682D01*
X96421445Y-218822716D01*
X96479612Y-218795062D01*
X96530863Y-218761734D01*
X96573293Y-218724741D01*
X96609824Y-218682440D01*
X96665795Y-218581636D01*
X96701324Y-218451795D01*
X96714707Y-218275376D01*
X96714707Y-216988583D01*
X96205094Y-216988583D01*
X96205094Y-218219445D01*
X96201177Y-218267883D01*
X96189391Y-218308305D01*
X96172753Y-218336991D01*
X96150121Y-218359866D01*
X96088563Y-218388151D01*
X96017516Y-218395666D01*
X95230688Y-218395666D01*
X95179040Y-218391758D01*
X95136414Y-218380034D01*
X95106735Y-218363681D01*
X95083365Y-218341536D01*
X95055469Y-218282498D01*
X95048727Y-218219445D01*
X95048727Y-216988583D01*
X94539114Y-216988583D01*
X94539114Y-218275376D01*
X94543080Y-218376061D01*
X94555212Y-218466921D01*
X94572850Y-218538680D01*
X94597275Y-218603176D01*
X94625742Y-218655901D01*
X94660260Y-218702775D01*
X94699285Y-218742396D01*
X94744222Y-218776808D01*
X94854013Y-218830936D01*
X94998934Y-218866238D01*
X95202722Y-218880000D01*
X96051099Y-218880000D01*
G37*
G36*
X96898988Y-216988583D02*
G01*
X96898988Y-217489891D01*
X97730635Y-217489891D01*
X97730635Y-218880000D01*
X98240126Y-218880000D01*
X98240126Y-217489891D01*
X99068964Y-217489891D01*
X99068964Y-216988583D01*
X96898988Y-216988583D01*
G37*
G36*
X58184072Y-97881622D02*
G01*
X57192934Y-97881622D01*
X57114867Y-97877793D01*
X57044608Y-97866621D01*
X56983505Y-97849210D01*
X56928978Y-97825764D01*
X56838100Y-97762471D01*
X56812160Y-97736297D01*
X56775385Y-97691015D01*
X56744745Y-97640905D01*
X56720936Y-97586916D01*
X56704405Y-97529528D01*
X56694557Y-97437100D01*
X56709583Y-97322380D01*
X56754084Y-97214483D01*
X56786720Y-97165570D01*
X56825412Y-97121628D01*
X56834508Y-97112868D01*
X56882716Y-97073763D01*
X56937672Y-97041226D01*
X56992445Y-97018752D01*
X57054556Y-97002381D01*
X57192934Y-96989891D01*
X58184072Y-96989891D01*
X58184072Y-96488583D01*
X57192934Y-96488583D01*
X57089055Y-96492432D01*
X56991419Y-96503747D01*
X56900714Y-96521962D01*
X56815763Y-96546811D01*
X56736096Y-96578084D01*
X56661856Y-96615355D01*
X56526325Y-96708664D01*
X56492934Y-96737833D01*
X56377396Y-96866029D01*
X56328674Y-96937571D01*
X56286487Y-97013541D01*
X56251601Y-97092581D01*
X56223893Y-97175118D01*
X56204071Y-97259061D01*
X56191900Y-97345581D01*
X56187753Y-97434413D01*
X56202933Y-97606905D01*
X56247793Y-97771260D01*
X56320971Y-97923674D01*
X56420298Y-98059677D01*
X56431385Y-98072009D01*
X56492162Y-98132846D01*
X56558681Y-98187887D01*
X56628203Y-98235027D01*
X56703247Y-98276135D01*
X56782026Y-98310170D01*
X56866272Y-98337823D01*
X56955361Y-98358653D01*
X57050018Y-98372602D01*
X57192934Y-98380000D01*
X58184072Y-98380000D01*
X58184072Y-97881622D01*
G37*
G36*
X59049302Y-98072254D02*
G01*
X59085748Y-98143246D01*
X59127114Y-98205918D01*
X59170235Y-98256923D01*
X59217875Y-98300835D01*
X59268286Y-98336575D01*
X59323126Y-98365819D01*
X59447189Y-98405194D01*
X59598116Y-98419078D01*
X59681748Y-98415156D01*
X59758784Y-98403334D01*
X59824383Y-98385292D01*
X59884757Y-98360352D01*
X59938027Y-98329831D01*
X59986837Y-98292821D01*
X60072096Y-98198673D01*
X60143999Y-98072254D01*
X60821650Y-96572602D01*
X60852425Y-96488583D01*
X60261601Y-96488583D01*
X60239253Y-96555750D01*
X59679204Y-97862327D01*
X59661896Y-97892458D01*
X59641721Y-97910856D01*
X59600802Y-97921067D01*
X59573590Y-97916974D01*
X59549154Y-97903950D01*
X59519714Y-97862327D01*
X58954047Y-96555750D01*
X58934508Y-96488583D01*
X58335258Y-96488583D01*
X58366033Y-96572602D01*
X59049302Y-98072254D01*
G37*
D14*
%TO.C,H13*%
X75750002Y-181000000D02*
X68250000Y-181000000D01*
X76756990Y-177246229D02*
X70257142Y-173504291D01*
X76756990Y-184753772D02*
X70257219Y-188495835D01*
X79496228Y-174506990D02*
X75754163Y-168007217D01*
X79496229Y-187493010D02*
X75754292Y-193992854D01*
X83250000Y-173500000D02*
X83250000Y-166000000D01*
X87003771Y-174506990D02*
X90745709Y-168007142D01*
X87003772Y-187493010D02*
X90745835Y-193992782D01*
X89743010Y-177246228D02*
X96242783Y-173504164D01*
X89743010Y-184753771D02*
X96242855Y-188495709D01*
X90750000Y-181000000D02*
X98249999Y-181000000D01*
D15*
%TO.C,H11*%
G36*
X52000000Y-130000000D02*
G01*
X52000000Y-130000000D01*
G75*
G03*
X58500000Y-136500000I6500000J0D01*
G01*
X53000000Y-136500000D01*
X52000000Y-135500000D01*
X52000000Y-130000000D01*
G37*
G36*
X58500000Y-123500000D02*
G01*
X58500000Y-123500000D01*
G75*
G03*
X52000000Y-130000000I0J-6500000D01*
G01*
X52000000Y-124500000D01*
X53000000Y-123500000D01*
X58500000Y-123500000D01*
G37*
G36*
X65000000Y-135500000D02*
G01*
X64000000Y-136500000D01*
X58500000Y-136500000D01*
G75*
G03*
X65000000Y-130000000I0J6500000D01*
G01*
X65000000Y-135500000D01*
G37*
G36*
X65000000Y-124500000D02*
G01*
X65000000Y-130000000D01*
G75*
G03*
X58500000Y-123500000I-6500000J0D01*
G01*
X64000000Y-123500000D01*
X65000000Y-124500000D01*
G37*
%TO.C,H7*%
G36*
X52000000Y-69750000D02*
G01*
X52000000Y-69750000D01*
G75*
G03*
X58500000Y-76250000I6500000J0D01*
G01*
X53000000Y-76250000D01*
X52000000Y-75250000D01*
X52000000Y-69750000D01*
G37*
G36*
X58500000Y-63250000D02*
G01*
X58500000Y-63250000D01*
G75*
G03*
X52000000Y-69750000I0J-6500000D01*
G01*
X52000000Y-64250000D01*
X53000000Y-63250000D01*
X58500000Y-63250000D01*
G37*
G36*
X65000000Y-75250000D02*
G01*
X64000000Y-76250000D01*
X58500000Y-76250000D01*
G75*
G03*
X65000000Y-69750000I0J6500000D01*
G01*
X65000000Y-75250000D01*
G37*
G36*
X65000000Y-64250000D02*
G01*
X65000000Y-69750000D01*
G75*
G03*
X58500000Y-63250000I-6500000J0D01*
G01*
X64000000Y-63250000D01*
X65000000Y-64250000D01*
G37*
%TO.C,H15*%
G36*
X52000000Y-190250000D02*
G01*
X52000000Y-190250000D01*
G75*
G03*
X58500000Y-196750000I6500000J0D01*
G01*
X53000000Y-196750000D01*
X52000000Y-195750000D01*
X52000000Y-190250000D01*
G37*
G36*
X58500000Y-183750000D02*
G01*
X58500000Y-183750000D01*
G75*
G03*
X52000000Y-190250000I0J-6500000D01*
G01*
X52000000Y-184750000D01*
X53000000Y-183750000D01*
X58500000Y-183750000D01*
G37*
G36*
X65000000Y-195750000D02*
G01*
X64000000Y-196750000D01*
X58500000Y-196750000D01*
G75*
G03*
X65000000Y-190250000I0J6500000D01*
G01*
X65000000Y-195750000D01*
G37*
G36*
X65000000Y-184750000D02*
G01*
X65000000Y-190250000D01*
G75*
G03*
X58500000Y-183750000I-6500000J0D01*
G01*
X64000000Y-183750000D01*
X65000000Y-184750000D01*
G37*
D14*
%TO.C,H5*%
X75750002Y-60500000D02*
X68250000Y-60500000D01*
X76756990Y-56746229D02*
X70257142Y-53004291D01*
X76756990Y-64253772D02*
X70257219Y-67995835D01*
X79496228Y-54006990D02*
X75754163Y-47507217D01*
X79496229Y-66993010D02*
X75754292Y-73492854D01*
X83250000Y-53000000D02*
X83250000Y-45500000D01*
X87003771Y-54006990D02*
X90745709Y-47507142D01*
X87003772Y-66993010D02*
X90745835Y-73492782D01*
X89743010Y-56746228D02*
X96242783Y-53004164D01*
X89743010Y-64253771D02*
X96242855Y-67995709D01*
X90750000Y-60500000D02*
X98249999Y-60500000D01*
%TO.C,H9*%
X75750002Y-120750000D02*
X68250000Y-120750000D01*
X76756990Y-116996229D02*
X70257142Y-113254291D01*
X76756990Y-124503772D02*
X70257219Y-128245835D01*
X79496228Y-114256990D02*
X75754163Y-107757217D01*
X79496229Y-127243010D02*
X75754292Y-133742854D01*
X83250000Y-113250000D02*
X83250000Y-105750000D01*
X87003771Y-114256990D02*
X90745709Y-107757142D01*
X87003772Y-127243010D02*
X90745835Y-133742782D01*
X89743010Y-116996228D02*
X96242783Y-113254164D01*
X89743010Y-124503771D02*
X96242855Y-128245709D01*
X90750000Y-120750000D02*
X98249999Y-120750000D01*
D15*
%TO.C,H18*%
G36*
X85000000Y-208750000D02*
G01*
X85000000Y-208750000D01*
G75*
G03*
X91500000Y-215250000I6500000J0D01*
G01*
X86000000Y-215250000D01*
X85000000Y-214250000D01*
X85000000Y-208750000D01*
G37*
G36*
X91500000Y-202250000D02*
G01*
X91500000Y-202250000D01*
G75*
G03*
X85000000Y-208750000I0J-6500000D01*
G01*
X85000000Y-203250000D01*
X86000000Y-202250000D01*
X91500000Y-202250000D01*
G37*
G36*
X98000000Y-214250000D02*
G01*
X97000000Y-215250000D01*
X91500000Y-215250000D01*
G75*
G03*
X98000000Y-208750000I0J6500000D01*
G01*
X98000000Y-214250000D01*
G37*
G36*
X98000000Y-203250000D02*
G01*
X98000000Y-208750000D01*
G75*
G03*
X91500000Y-202250000I-6500000J0D01*
G01*
X97000000Y-202250000D01*
X98000000Y-203250000D01*
G37*
%TD*%
%LPC*%
D16*
%TO.C,H13*%
X83250000Y-181000000D03*
D17*
X83250000Y-187000000D03*
%TD*%
D18*
%TO.C,H3*%
X53500000Y-226500000D03*
%TD*%
D19*
%TO.C,H11*%
X52800000Y-130000000D03*
X54460000Y-125970000D03*
X54470000Y-134040000D03*
X58500000Y-124300000D03*
D16*
X58500000Y-130000000D03*
D19*
X58500000Y-135700000D03*
X62530000Y-134040000D03*
X62540000Y-125970000D03*
X64200000Y-130000000D03*
%TD*%
D20*
%TO.C,H22*%
X70000000Y-134250000D03*
%TD*%
D19*
%TO.C,H7*%
X52800000Y-69750000D03*
X54460000Y-65720000D03*
X54470000Y-73790000D03*
X58500000Y-64050000D03*
D16*
X58500000Y-69750000D03*
D19*
X58500000Y-75450000D03*
X62530000Y-73790000D03*
X62540000Y-65720000D03*
X64200000Y-69750000D03*
%TD*%
D21*
%TO.C,H20*%
X75000000Y-142100000D03*
D22*
X75000000Y-148500000D03*
%TD*%
D19*
%TO.C,H16*%
X52800000Y-208750000D03*
X54460000Y-204720000D03*
X54470000Y-212790000D03*
X58500000Y-203050000D03*
D16*
X58500000Y-208750000D03*
D19*
X58500000Y-214450000D03*
X62530000Y-212790000D03*
X62540000Y-204720000D03*
X64200000Y-208750000D03*
%TD*%
D20*
%TO.C,H23*%
X70000000Y-194500000D03*
%TD*%
%TO.C,H17*%
X70000000Y-74000000D03*
%TD*%
D19*
%TO.C,H15*%
X52800000Y-190250000D03*
X54460000Y-186220000D03*
X54470000Y-194290000D03*
X58500000Y-184550000D03*
D16*
X58500000Y-190250000D03*
D19*
X58500000Y-195950000D03*
X62530000Y-194290000D03*
X62540000Y-186220000D03*
X64200000Y-190250000D03*
%TD*%
%TO.C,H12*%
X52800000Y-148500000D03*
X54460000Y-144470000D03*
X54470000Y-152540000D03*
X58500000Y-142800000D03*
D16*
X58500000Y-148500000D03*
D19*
X58500000Y-154200000D03*
X62530000Y-152540000D03*
X62540000Y-144470000D03*
X64200000Y-148500000D03*
%TD*%
%TO.C,H14*%
X52800000Y-171750000D03*
X54460000Y-167720000D03*
X54470000Y-175790000D03*
X58500000Y-166050000D03*
D16*
X58500000Y-171750000D03*
D19*
X58500000Y-177450000D03*
X62530000Y-175790000D03*
X62540000Y-167720000D03*
X64200000Y-171750000D03*
%TD*%
%TO.C,H10*%
X52800000Y-111500000D03*
X54460000Y-107470000D03*
X54470000Y-115540000D03*
X58500000Y-105800000D03*
D16*
X58500000Y-111500000D03*
D19*
X58500000Y-117200000D03*
X62530000Y-115540000D03*
X62540000Y-107470000D03*
X64200000Y-111500000D03*
%TD*%
D16*
%TO.C,H5*%
X83250000Y-60500000D03*
D17*
X83250000Y-66500000D03*
%TD*%
D21*
%TO.C,H21*%
X75000000Y-202350000D03*
D22*
X75000000Y-208750000D03*
%TD*%
D18*
%TO.C,H2*%
X96500000Y-33500000D03*
%TD*%
%TO.C,H4*%
X96500000Y-226500000D03*
%TD*%
%TO.C,H1*%
X53500000Y-33500000D03*
%TD*%
D21*
%TO.C,H19*%
X75000000Y-81850000D03*
D22*
X75000000Y-88250000D03*
%TD*%
D16*
%TO.C,H9*%
X83250000Y-120750000D03*
D17*
X83250000Y-126750000D03*
%TD*%
D19*
%TO.C,H6*%
X52800000Y-51250000D03*
X54460000Y-47220000D03*
X54470000Y-55290000D03*
X58500000Y-45550000D03*
D16*
X58500000Y-51250000D03*
D19*
X58500000Y-56950000D03*
X62530000Y-55290000D03*
X62540000Y-47220000D03*
X64200000Y-51250000D03*
%TD*%
%TO.C,H18*%
X85800000Y-208750000D03*
X87460000Y-204720000D03*
X87470000Y-212790000D03*
X91500000Y-203050000D03*
D16*
X91500000Y-208750000D03*
D19*
X91500000Y-214450000D03*
X95530000Y-212790000D03*
X95540000Y-204720000D03*
X97200000Y-208750000D03*
%TD*%
%TO.C,H8*%
X52800000Y-88250000D03*
X54460000Y-84220000D03*
X54470000Y-92290000D03*
X58500000Y-82550000D03*
D16*
X58500000Y-88250000D03*
D19*
X58500000Y-93950000D03*
X62530000Y-92290000D03*
X62540000Y-84220000D03*
X64200000Y-88250000D03*
%TD*%
%LPD*%
M02*
